<?xml version="1.0" encoding="UTF-8"?>
<svg width="4290px" height="662px" viewBox="0 0 4290 662" version="1.1" xmlns="http://www.w3.org/2000/svg" xmlns:xlink="http://www.w3.org/1999/xlink">
    <!-- Generator: Sketch 48.2 (47327) - http://www.bohemiancoding.com/sketch -->
    <title>Untitled</title>
    <desc>Created with Sketch.</desc>
    <defs></defs>
    <g id="Page-1" stroke="none" stroke-width="1" fill="none" fill-rule="evenodd">
        <g id="hackerfund-logo-r" fill-rule="nonzero">
            <polygon id="Shape" fill="#343434" points="0.7 653 0.7 9 143.3 9 143.3 269.3 242.4 269.3 242.4 9 385 9 385 653 242.3 653 242.3 371 143.2 371 143.2 653"></polygon>
            <path d="M451.7,653 L573.7,9 L734.5,9 L855.7,653 L724.4,653 L702.3,516.3 L608.3,516.3 L586.5,653 L451.7,653 Z M620.7,431.2 L689.5,431.2 L654.9,181.8 L620.7,431.2 Z" id="Shape" fill="#343434"></path>
            <path d="M1104.7,662 C1068.7,662 1038,657 1012.6,647 C987.2,637 967.2,622.3 952.6,602.9 C938,583.5 927.4,561.1 920.9,535.7 C914.4,510.3 911.2,480.5 911.2,446.4 L911.2,216.8 C911.2,181.8 914.4,151.5 920.9,125.7 C927.4,99.9 937.9,77.4 952.6,58.1 C967.2,38.8 987.2,24.3 1012.4,14.6 C1037.6,4.9 1068.4,-1.13686838e-13 1104.7,-1.13686838e-13 C1139.4,-1.13686838e-13 1169,4.4 1193.5,13.2 C1218,22 1237.1,35 1251,52 C1264.9,69.1 1274.8,88.5 1280.9,110.3 C1287,132.1 1290,157.3 1290,186 L1290,242.7 L1150.9,242.7 L1150.9,178 C1150.9,167.9 1150.8,160.3 1150.5,155.1 C1150.2,149.9 1149.3,143.3 1147.8,135.1 C1146.2,126.9 1144,120.8 1141,116.6 C1138,112.5 1133.4,108.8 1127.2,105.5 C1121,102.3 1113.5,100.6 1104.7,100.6 C1095.9,100.6 1088.4,102.2 1082.2,105.5 C1076,108.7 1071.3,112.6 1068,117.2 C1064.8,121.7 1062.2,127.9 1060.2,135.8 C1058.3,143.7 1057.1,150.9 1056.7,157.4 C1056.3,163.9 1056.1,171.9 1056.1,181.5 L1056.1,481.8 C1056.1,507.7 1059.5,527.4 1066.2,541 C1072.9,554.6 1085.7,561.4 1104.7,561.4 C1113.2,561.4 1120.6,559.8 1126.6,556.5 C1132.7,553.3 1137.3,549.4 1140.4,545 C1143.5,540.6 1145.9,534.4 1147.6,526.4 C1149.3,518.4 1150.3,511.4 1150.5,505.4 C1150.8,499.4 1150.9,491.5 1150.9,481.7 L1150.9,414.1 L1290,414.1 L1290,469.6 C1290,492.7 1288.2,513.5 1284.6,532.1 C1281,550.7 1274.8,568.3 1266.1,584.7 C1257.4,601.1 1246.2,614.9 1232.3,626.1 C1218.4,637.2 1200.8,646 1179.3,652.3 C1157.7,658.8 1132.9,662 1104.7,662 Z" id="Shape" fill="#343434"></path>
            <polygon id="Shape" fill="#343434" points="1367.3 653 1367.3 9 1509.5 9 1509.5 270.8 1618.2 9 1756.9 9 1637.6 299.9 1762.7 653 1617.4 653 1523.4 365.2 1509.4 387.3 1509.4 653"></polygon>
            <polygon id="Shape" fill="#343434" points="1817.9 653 1817.9 9 2107.3 9 2107.3 106.1 1960 106.1 1960 265.4 2072.3 265.4 2072.3 364.5 1960 364.5 1960 556.8 2108.8 556.8 2108.8 653.1 1817.9 653.1"></polygon>
            <path d="M2173.3,653 L2173.3,9 L2348.9,9 C2376.1,9 2400.2,10.6 2421.1,13.7 C2442.1,16.8 2461.8,22.2 2480.1,30 C2498.5,37.8 2513.6,48 2525.6,60.7 C2537.5,73.4 2546.8,89.7 2553.6,109.6 C2560.3,129.5 2563.7,152.9 2563.7,179.5 C2563.7,221.7 2558,255.6 2546.6,281.3 C2535.2,306.9 2514.6,326.9 2484.8,341.1 L2573.4,653 L2426.2,653 L2355.5,364.8 L2315.5,364.8 L2315.5,653 L2173.3,653 Z M2315.5,282.8 L2352,282.8 C2381,282.8 2401.5,275.3 2413.4,260.3 C2425.3,245.3 2431.3,222.6 2431.3,192.3 C2431.3,162.5 2425.9,140.4 2415.2,126.1 C2404.5,111.7 2385.9,104.5 2359.5,104.5 L2315.6,104.5 L2315.6,282.8 L2315.5,282.8 Z" id="Shape" fill="#343434"></path>
            <polygon id="Shape" fill="#2FB04A" points="2657.3 653 2657.3 9 2889.6 9 2889.6 54.4 2718.3 54.4 2718.3 296.4 2860.9 296.4 2860.9 341.5 2718.3 341.5 2718.3 653"></polygon>
            <path d="M3122.3,661.2 C3096.7,661.2 3074.1,658.2 3054.7,652.3 C3035.3,646.3 3019.5,638.1 3007.3,627.6 C2995.1,617.1 2985.3,604 2977.8,588.2 C2970.3,572.4 2965,555.6 2962.1,537.9 C2959.1,520.2 2957.6,499.9 2957.6,477.1 L2957.6,9 L3016.3,9 L3016.3,479 C3016.3,495.1 3017.2,509.4 3019,522.1 C3020.8,534.8 3024,546.9 3028.7,558.4 C3033.4,569.9 3039.6,579.5 3047.3,587.1 C3055.1,594.7 3065.3,600.8 3078,605.4 C3090.7,609.9 3105.4,612.2 3122.3,612.2 C3142.5,612.2 3159.7,608.9 3173.8,602.3 C3187.9,595.7 3198.8,586.1 3206.4,573.6 C3214,561 3219.5,547.1 3222.9,531.8 C3226.3,516.5 3227.9,498.9 3227.9,479 L3227.9,9 L3286.2,9 L3286.2,477.1 C3286.2,499.6 3284.6,519.8 3281.5,537.7 C3278.4,555.6 3273,572.4 3265.2,588.2 C3257.4,604 3247.4,617.1 3235.1,627.6 C3222.8,638.1 3207.1,646.3 3188.1,652.3 C3169.1,658.2 3147.1,661.2 3122.3,661.2 Z" id="Shape" fill="#2FB04A"></path>
            <polygon id="Shape" fill="#2FB04A" points="3391.4 653 3391.4 9 3436.1 9 3641.2 508.9 3641.2 9 3693.3 9 3693.3 653 3650.6 653 3443.9 147.2 3443.9 653"></polygon>
            <path d="M3805.1,653 L3805.1,9 L3946.1,9 C3972.3,9 3995.4,12 4015.4,17.9 C4035.5,23.9 4052.1,32.1 4065.3,42.8 C4078.5,53.4 4089.2,66.8 4097.5,82.8 C4105.8,98.9 4111.7,116.2 4115.2,134.9 C4118.7,153.5 4120.4,174.7 4120.4,198.2 L4120.4,454.2 C4120.4,485.5 4117.5,513 4111.9,536.5 C4106.2,560.1 4096.9,580.8 4083.9,598.7 C4070.9,616.6 4053.4,630.1 4031.3,639.3 C4009.2,648.5 3982.3,653.1 3950.7,653.1 L3805.1,653.1 L3805.1,653 Z M3866.1,607.6 L3947.3,607.6 C3967.2,607.6 3984.1,604.8 3998,599.2 C4011.9,593.6 4022.7,586.5 4030.6,577.8 C4038.5,569.1 4044.6,557.3 4049,542.3 C4053.4,527.3 4056.2,512.6 4057.4,498.2 C4058.6,483.8 4059.1,466 4059.1,444.8 L4059.1,204.4 C4059.1,183.7 4058.3,166.1 4056.6,151.6 C4054.9,137.1 4051.7,123.4 4046.9,110.6 C4042.1,97.8 4035.5,87.6 4027.1,79.9 C4018.7,72.3 4007.7,66.3 3994.1,62 C3980.5,57.7 3964.2,55.6 3945.4,55.6 L3866.2,55.6 L3866.2,607.6 L3866.1,607.6 Z" id="Shape" fill="#2FB04A"></path>
            <g id="_x38_wxVSu.tif" transform="translate(4164.000000, 9.000000)" fill="#343434">
                <g id="Group">
                    <path d="M0.8,62.2 C0.8,27.9 28.6,0 62.9,0 C97.3,0 125.1,27.8 125.1,62.2 C125.1,96.6 97.3,124.4 62.8,124.4 C28.6,124.4 0.8,96.5 0.8,62.2 Z M62.9,111.8 C90.2,111.8 112.5,89.6 112.5,62.3 C112.5,35 90.3,12.8 63,12.7 C35.6,12.7 13.4,34.9 13.4,62.2 C13.4,89.5 35.6,111.8 62.9,111.8 Z" id="Shape"></path>
                    <path d="M52.4,68.7 C52.4,77 52.4,85.2 52.4,93.3 C46.8,93.3 41.2,93.3 35.7,93.3 C35.7,71.6 35.7,50 35.7,28.3 C35.9,28.3 36.1,28.3 36.2,28.3 C45,28.3 53.7,28.3 62.5,28.3 C66.8,28.3 71.1,28.8 75.3,30.2 C79,31.5 82.2,33.6 84.1,37.2 C85.4,39.6 85.9,42.3 86,45 C86.1,48.1 85.8,51.2 84.5,54.2 C82.9,57.9 80,60.3 76.4,61.9 C75.5,62.3 74.7,62.6 73.7,63 C74.3,63.2 74.8,63.4 75.3,63.6 C78.1,64.8 80.2,66.9 81.9,69.3 C83.7,71.8 85,74.6 86.3,77.3 C88.9,82.4 91.4,87.6 94,92.7 C94.1,92.9 94.2,93.1 94.3,93.4 C94,93.4 93.8,93.4 93.6,93.4 C88.1,93.4 82.6,93.4 77.1,93.4 C76.6,93.4 76.3,93.2 76.1,92.8 C73.5,87.5 70.9,82.1 68.2,76.8 C67.5,75.4 66.6,74 65.7,72.7 C64.1,70.5 61.9,69.3 59.3,69 C57.1,68.7 54.8,68.7 52.4,68.7 Z M52.5,57.1 C55.3,57.1 58,57.1 60.7,57.1 C61.6,57.1 62.5,56.9 63.4,56.8 C66.3,56.2 68.4,54.6 69,51.6 C69.4,49.7 69.4,47.8 69,45.9 C68.5,43.6 67.2,41.9 64.8,41.2 C63.6,40.9 62.4,40.6 61.3,40.5 C58.5,40.4 55.7,40.4 52.9,40.4 C52.8,40.4 52.6,40.4 52.5,40.5 C52.5,46.1 52.5,51.6 52.5,57.1 Z" id="Shape"></path>
                </g>
            </g>
        </g>
    </g>
</svg>