<?xml version="1.0" encoding="utf-8"?>
<!-- Generator: Adobe Illustrator 19.2.1, SVG Export Plug-In . SVG Version: 6.00 Build 0)  -->
<svg version="1.1" id="Layer_1" xmlns="http://www.w3.org/2000/svg" xmlns:xlink="http://www.w3.org/1999/xlink" x="0px" y="0px"
	 width="163.7px" height="65.8px" viewBox="0 0 163.7 65.8" enable-background="new 0 0 163.7 65.8" xml:space="preserve">
<g>
	<path fill="#CC273E" d="M20.2,8c-1.5-1.8-3.7-2.9-6-2.9c-5.1,0-8,4.7-8,9.3s3,9.1,7.9,9.1c2.3,0,4.5-1.2,6-2.9v6.3
		c-2,0.9-4,1.6-6.1,1.6c-7.6,0-13.3-6.6-13.3-14C0.7,6.8,6.1,0,14.1,0c2.1,0,4.2,0.6,6,1.6L20.2,8L20.2,8z"/>
	<path fill="#CC273E" d="M41.2,28.6c-8.3,0-13.4-6.3-13.4-14.3S33.1,0.1,41.2,0.1s13.4,6.2,13.4,14.2C54.6,22.3,49.5,28.6,41.2,28.6
		z M41.2,5.3c-5,0-7.9,4.4-7.9,8.8c0,4.2,2.1,9.3,7.9,9.3c5.9,0,7.9-5.1,7.9-9.3C49.1,9.7,46.2,5.3,41.2,5.3z"/>
	<path fill="#CC273E" d="M62.6,0.8h7.5c7.8,0,13.1,5.9,13.1,13.6c0,7.6-5.4,13.5-13.1,13.5h-7.5V0.8z M67.8,23.3h0.9
		c6.5,0,9-3.6,9-8.9c0-5.9-3-8.9-9-8.9h-0.9V23.3z"/>
	<polygon fill="#CC273E" points="96.4,5.4 96.4,11.3 104.8,11.3 104.8,15.9 96.4,15.9 96.4,23.3 105.2,23.3 105.2,27.9 91.2,27.9 
		91.2,0.8 105.2,0.8 105.2,5.4 	"/>
	<path fill="#3F9ED8" d="M5.9,59.3l-2.7,6H0l11.4-25.1l11.5,25.1h-3.2l-2.7-6H5.9z M11.4,46.8l-4.3,9.7h8.5L11.4,46.8z"/>
	<polygon fill="#3F9ED8" points="33.8,49.4 33.7,49.4 30.9,65.3 27.8,65.3 32.7,40.2 41,59.2 49.2,40.2 54.1,65.3 51.1,65.3 
		48.2,49.4 48.2,49.4 41,65.8 	"/>
	<polygon fill="#3F9ED8" points="61.6,41.2 74.5,41.2 74.5,44 64.6,44 64.6,50.7 74.3,50.7 74.3,53.4 64.6,53.4 64.6,62.5 
		74.5,62.5 74.5,65.3 61.6,65.3 	"/>
	<path fill="#3F9ED8" d="M98,65.3h-3.6l-7.1-10.2h-1.2v10.2h-3V41.2h3.6c2.1,0,4.4,0,6.3,1.1c2,1.2,3.2,3.4,3.2,5.7
		c0,3.4-2.3,6.3-5.8,6.7L98,65.3z M86,52.6h1c3.1,0,6.4-0.6,6.4-4.4s-3.6-4.3-6.5-4.3h-0.8L86,52.6L86,52.6z"/>
	<rect x="105.1" y="41.2" fill="#3F9ED8" width="3" height="24.1"/>
	<path fill="#3F9ED8" d="M134.9,45.8c-1.7-1.5-4.1-2.4-6.3-2.4c-5.4,0-9.5,4.5-9.5,9.8s4.1,9.8,9.4,9.8c2.4,0,4.6-0.9,6.4-2.5V64
		c-1.8,1.1-4.2,1.7-6.3,1.7c-6.9,0-12.5-5.5-12.5-12.4c0-7.1,5.7-12.7,12.8-12.7c2.1,0,4.2,0.5,6.1,1.6v3.6H134.9z"/>
	<path fill="#3F9ED8" d="M146.6,59.3l-2.7,6h-3.2l11.5-25.1l11.5,25.1h-3.3l-2.7-6H146.6z M152.1,46.8l-4.3,9.7h8.6L152.1,46.8z"/>
	<path fill="#3F9ED8" d="M127.1,17.5c-0.8,1.3-1.7,2.8-2.5,4.3s-1.7,3.1-2.6,4.6c-0.9,1.5-1.9,3-3,4.4s-2.2,2.6-3.5,3.7
		c-1.3,1.1-2.7,1.9-4.2,2.6c-1.5,0.6-3.3,1-5.2,1c-0.6,0-1.3-0.1-2-0.2c-0.7-0.1-1.4-0.4-2-0.7s-1.1-0.7-1.5-1.3
		c-0.4-0.5-0.6-1.2-0.6-2c0-0.6,0.1-1.2,0.4-1.6c0.3-0.5,0.6-0.9,1.1-1.2c0.4-0.3,0.9-0.6,1.5-0.7c0.6-0.2,1.1-0.3,1.7-0.3
		c0.3,0,0.6,0,0.8,0s0.5,0.1,0.7,0.1v0.3c-1,0.1-1.8,0.4-2.5,1.1c-0.6,0.7-0.9,1.5-0.9,2.5c0,1.1,0.3,2,0.9,2.6c0.6,0.6,1.6,1,3,1
		c1.3,0,2.5-0.3,3.6-1s2.2-1.6,3.3-2.7c1.1-1.1,2.1-2.4,3-3.8c0.9-1.4,1.9-2.9,2.7-4.4c0.9-1.5,1.7-3,2.5-4.4s1.5-2.7,2.2-3.8h-3.1
		l0.3-0.6h3.1c0.6-1.1,1.3-2.2,2.2-3.5c0.8-1.3,1.8-2.5,2.8-3.6c1.1-1.1,2.2-2,3.5-2.8c1.3-0.7,2.6-1.1,4-1.1c0.4,0,0.9,0.1,1.3,0.2
		s0.8,0.3,1.1,0.5c0.3,0.2,0.6,0.5,0.8,0.8c0.2,0.3,0.3,0.7,0.3,1.2c0,0.8-0.3,1.3-0.8,1.7c-0.6,0.4-1.2,0.6-1.9,0.6
		c-0.2,0-0.4,0-0.6-0.1c0.2-0.4,0.4-0.8,0.5-1.2s0.2-0.9,0.2-1.4c0-0.6-0.1-1.1-0.4-1.4s-0.6-0.5-1-0.5c-0.5,0-1.1,0.2-1.7,0.6
		c-0.6,0.4-1.2,1-1.8,1.6c-0.6,0.7-1.1,1.4-1.7,2.2c-0.6,0.8-1.1,1.6-1.5,2.4c-0.5,0.8-0.9,1.5-1.3,2.2c-0.4,0.7-0.7,1.2-0.9,1.6
		h8.2l-0.4,0.6L127.1,17.5L127.1,17.5z"/>
	<path fill="#3F9ED8" d="M147.7,19.8c-0.4,0.6-0.9,1.1-1.5,1.5S145,22,144.3,22c-0.5,0-0.9-0.1-1.3-0.3c-0.4-0.2-0.7-0.5-1-0.9
		c-0.3,1.1-0.7,2.1-1.3,3s-1.3,1.8-2.1,2.5c-0.8,0.7-1.8,1.3-2.8,1.7s-2.1,0.6-3.2,0.6c-1.2,0-2.1-0.3-2.8-1
		c-0.7-0.7-1.1-1.6-1.1-2.8c0-1.1,0.3-2.2,0.9-3.2c0.6-1,1.3-1.9,2.2-2.7s1.9-1.4,3-1.9s2.2-0.7,3.3-0.7s2.1,0.3,2.7,0.9
		c0.7,0.6,1.1,1.4,1.2,2.2c0.1,0.6,0.3,1.2,0.7,1.5c0.4,0.4,0.9,0.6,1.5,0.6s1.1-0.2,1.6-0.5s1.1-0.9,1.6-1.5L147.7,19.8z
		 M134.5,27.7c0.5-0.4,1-0.8,1.5-1.4c0.5-0.6,0.9-1.2,1.4-1.9c0.4-0.7,0.8-1.4,1.1-2.2c0.3-0.7,0.5-1.4,0.7-2.1
		c0.2-0.7,0.3-1.2,0.3-1.7s-0.1-0.9-0.3-1.2c-0.2-0.3-0.6-0.4-1.1-0.4s-1.1,0.2-1.6,0.5c-0.5,0.4-1,0.8-1.5,1.4
		c-0.5,0.6-0.9,1.2-1.4,1.9c-0.4,0.7-0.8,1.4-1.1,2.2c-0.3,0.7-0.5,1.4-0.7,2.1c-0.2,0.7-0.3,1.2-0.3,1.7s0.1,0.9,0.3,1.2
		c0.2,0.3,0.6,0.4,1.1,0.4S134,28.1,134.5,27.7z"/>
	<path fill="#3F9ED8" d="M141.4,28.1c1.1-1.9,2.2-3.7,3.3-5.6c1.1-1.8,2.2-3.7,3.3-5.6l3.6-0.1l-4.2,5.9l0.1,0.1
		c0.8-1,1.5-1.8,2.2-2.4c0.6-0.6,1.2-1.1,1.6-1.5c0.5-0.4,0.9-0.7,1.2-0.9c0.3-0.2,0.6-0.4,0.7-0.5c0.2-0.2,0.5-0.4,0.7-0.6
		c0.2-0.1,0.4-0.2,0.7-0.3c0.3-0.1,0.6-0.1,1-0.1s0.9,0,1.5-0.1c-0.4,0.6-0.8,1.2-1.1,1.8c-0.3,0.6-0.5,1.3-0.5,2
		c0,0.9,0.5,1.4,1.4,1.4c0.3,0,0.6-0.1,0.9-0.2c0.3-0.1,0.6-0.3,0.8-0.5c0.3-0.2,0.5-0.4,0.7-0.6c0.2-0.2,0.4-0.4,0.6-0.6l0.1,0.2
		c-0.6,0.7-1.3,1.3-2.1,1.8c-0.8,0.5-1.7,0.7-2.6,0.7c-0.9,0-1.5-0.2-2-0.7c-0.5-0.4-0.7-1.1-0.7-2c0-0.6,0.2-1.1,0.5-1.6L153,18
		c-0.9,0.6-1.7,1.3-2.6,2.1c-0.8,0.8-1.6,1.6-2.3,2.5c-0.7,0.9-1.3,1.8-1.9,2.7s-1.1,1.8-1.6,2.7L141.4,28.1z"/>
</g>
</svg>
