<svg width="136" height="155" viewBox="0 0 136 155" fill="none" xmlns="http://www.w3.org/2000/svg">
<path d="M86.0668 121.611H84.2468C83.1485 121.611 82.1908 120.729 82.1014 119.64C82.1014 119.64 81.9114 119.873 82.2092 115.667C82.5344 111.072 83.633 106.987 85.4609 103.114C87.1235 99.5918 88.8304 97.06 92.5897 92.1068C92.7278 91.9249 92.7278 91.9249 92.8655 91.7435C96.48 86.9814 98.0466 84.6545 99.5238 81.5065C101.433 77.4376 102.416 73.0912 102.416 67.8643C102.416 48.9873 87.1128 33.6845 68.2358 33.6845C49.3588 33.6845 34.056 48.9873 34.056 67.8643C34.056 73.0812 35.0605 77.4187 37.0134 81.4814C38.5257 84.6276 40.1305 86.9544 43.8328 91.716C43.9739 91.8975 44.0594 92.0074 44.1153 92.0793C47.9667 97.0331 49.7152 99.5649 51.4192 103.089C53.2948 106.968 54.4202 111.062 54.7555 115.667C55.0539 119.764 54.8826 119.634 54.8826 119.634C54.8396 120.728 53.8687 121.611 52.7747 121.611H50.8976C49.8036 121.611 48.9168 120.723 48.9168 119.628V118.639C48.9168 113.698 47.9513 109.573 46.0677 105.677C44.601 102.643 43.0261 100.363 39.4224 95.7279C39.3667 95.6562 39.2814 95.5466 39.14 95.3647C35.1873 90.281 33.4071 87.6998 31.6559 84.0567C29.3198 79.1968 28.1117 73.9801 28.1117 67.8643C28.1117 45.7044 46.0759 27.7402 68.2358 27.7402C90.3958 27.7402 108.36 45.7044 108.36 67.8643C108.36 73.9701 107.183 79.1779 104.905 84.0316C103.196 87.6729 101.459 90.2541 97.6004 95.3373C97.4624 95.5191 97.4624 95.5191 97.3247 95.7005C93.8065 100.336 92.2691 102.617 90.8365 105.652C88.9948 109.554 88.0502 113.688 88.0502 118.639V119.628C88.0502 120.723 87.1622 121.611 86.0668 121.611ZM51.3936 138.946C51.3936 137.853 52.2816 136.967 53.375 136.967H83.0967C84.191 136.967 85.0781 137.854 85.0781 138.946V140.932C85.0781 142.025 84.1901 142.911 83.0967 142.911H53.375C52.2807 142.911 51.3936 142.025 51.3936 140.932V138.946ZM49.4122 128.048C49.4122 126.955 50.2989 126.069 51.3958 126.069H85.5712C86.6668 126.069 87.5549 126.956 87.5549 128.048V130.034C87.5549 131.127 86.6682 132.013 85.5712 132.013H51.3958C50.3003 132.013 49.4122 131.127 49.4122 130.034V128.048ZM68.2358 154.8C62.0285 154.8 56.0995 151.995 56.0995 147.865H80.3722C80.3722 151.995 74.4432 154.8 68.2358 154.8ZM67.2451 48.0499C56.5766 48.0499 47.9279 56.6975 47.9261 67.4199C47.9261 68.5135 47.0394 69.3999 45.9467 69.3999H43.9611C42.868 69.3999 41.9818 68.5105 41.9818 67.4174L41.9818 67.3167C42.01 53.4059 53.2813 42.1343 67.2465 42.1056C68.3399 42.1056 69.2266 42.9923 69.2266 44.085V46.0705C69.2266 47.1637 68.3394 48.0499 67.2451 48.0499ZM65.016 2.97177C65.016 1.33051 66.3463 0 67.9882 0C69.6296 0 70.9603 1.33085 70.9603 2.97177V16.8426C70.9603 18.4839 69.63 19.8144 67.9882 19.8144C66.3467 19.8144 65.016 18.4836 65.016 16.8426V2.97177ZM133.005 65.016C134.646 65.016 135.976 66.3463 135.976 67.9882C135.976 69.6296 134.645 70.9603 133.005 70.9603H119.134C117.492 70.9603 116.162 69.63 116.162 67.9882C116.162 66.3467 117.493 65.016 119.134 65.016H133.005ZM2.97177 70.9603C1.33051 70.9603 0 69.63 0 67.9882C0 66.3467 1.33085 65.016 2.97177 65.016H16.8426C18.4839 65.016 19.8144 66.3463 19.8144 67.9882C19.8144 69.6296 18.4836 70.9603 16.8426 70.9603H2.97177ZM122.808 32.906C124.229 32.0854 126.047 32.5722 126.868 33.9941C127.688 35.4156 127.201 37.2335 125.78 38.0539L113.768 44.9894C112.346 45.81 110.529 45.3232 109.708 43.9013C108.887 42.4797 109.374 40.6619 110.795 39.8414L122.808 32.906ZM10.1962 38.0539C8.77486 37.2333 8.28777 35.416 9.10869 33.9941C9.92943 32.5725 11.7473 32.0855 13.1684 32.906L25.1809 39.8414C26.6023 40.6621 27.0894 42.4794 26.2685 43.9013C25.4477 45.3228 23.6298 45.8098 22.2087 44.9894L10.1962 38.0539ZM97.9224 10.1962C98.743 8.77486 100.56 8.28777 101.982 9.10869C103.404 9.92943 103.891 11.7473 103.07 13.1684L96.1349 25.1809C95.3143 26.6023 93.4969 27.0894 92.075 26.2685C90.6535 25.4477 90.1665 23.6298 90.987 22.2087L97.9224 10.1962ZM32.906 13.1684C32.0854 11.747 32.5722 9.92961 33.9941 9.10869C35.4156 8.28795 37.2335 8.77515 38.0539 10.1962L44.9894 22.2087C45.81 23.6301 45.3232 25.4475 43.9013 26.2685C42.4797 27.0892 40.6619 26.602 39.8414 25.1809L32.906 13.1684ZM125.78 97.9224C127.201 98.743 127.689 100.56 126.868 101.982C126.047 103.404 124.229 103.891 122.808 103.07L110.795 96.1349C109.374 95.3143 108.887 93.4969 109.708 92.075C110.529 90.6535 112.346 90.1665 113.768 90.987L125.78 97.9224ZM13.1684 103.07C11.747 103.891 9.92961 103.404 9.10869 101.982C8.28795 100.561 8.77515 98.7429 10.1962 97.9224L22.2087 90.987C23.6301 90.1663 25.4475 90.6532 26.2685 92.075C27.0892 93.4966 26.602 95.3144 25.1809 96.1349L13.1684 103.07Z" fill="#030D2D"/>
</svg>
