<svg width="151" height="136" viewBox="0 0 151 136" fill="none" xmlns="http://www.w3.org/2000/svg">
<path d="M7.47266 29.8786H141.98V78.4314H149.453V7.46965C149.453 5.48858 148.666 3.58864 147.264 2.18781C145.863 0.786981 143.962 0 141.98 0H7.47266C5.49079 0 3.59009 0.786981 2.18869 2.18781C0.787295 3.58864 0 5.48858 0 7.46965V112.045C0 114.026 0.787295 115.926 2.18869 117.327C3.59009 118.727 5.49079 119.514 7.47266 119.514H89.6719V112.045H7.47266V29.8786ZM141.98 7.46965V22.409H7.47266V7.46965H141.98ZM14.9453 14.9393C14.9453 14.2006 15.1644 13.4785 15.575 12.8643C15.9856 12.2502 16.5691 11.7715 17.2518 11.4888C17.9345 11.2061 18.6858 11.1321 19.4106 11.2762C20.1353 11.4204 20.8011 11.7761 21.3236 12.2984C21.8462 12.8207 22.202 13.4862 22.3462 14.2107C22.4903 14.9352 22.4164 15.6861 22.1336 16.3686C21.8508 17.051 21.3719 17.6343 20.7574 18.0447C20.143 18.4551 19.4206 18.6741 18.6816 18.6741C17.6907 18.6741 16.7404 18.2806 16.0397 17.5802C15.339 16.8798 14.9453 15.9298 14.9453 14.9393ZM138.08 106.599L149.453 103.757V94.5397L96.2179 74.0728L89.0479 81.24L109.523 134.454H118.744L121.588 123.085L134.508 136L151 119.514L138.08 106.599ZM117.53 108.467L113.584 124.232L97.7685 83.0924L98.0712 82.7899L139.231 98.5994L123.463 102.54L140.434 119.514L134.508 125.438L117.53 108.467Z" fill="#030D2D"/>
</svg>
