<?xml version="1.0" encoding="UTF-8" standalone="no"?>
<svg
class="icon icon-hack-nights nav-icon icon icon-projects nav-icon icon icon-about nav-icon"
width="20px" height="20px" viewBox="0 0 20 20" version="1.1" xmlns="http://www.w3.org/2000/svg" xmlns:xlink="http://www.w3.org/1999/xlink">
    <!-- Generator: Sketch 45.2 (43514) - http://www.bohemiancoding.com/sketch -->
    <title></title>
    <desc>Created with Sketch.</desc>
    <defs></defs>
    <g id="Layout" stroke="none" stroke-width="1" fill="none" fill-rule="evenodd">
        <g id="hfla-web-mobile" transform="translate(-319.000000, -3735.000000)" fill="#046AFA">
            <g id="Group-13" transform="translate(0.000000, 2539.000000)">
                <g id="Group-2" transform="translate(0.000000, 1186.000000)">
                    <path d="M329.984375,17 L329.984375,14.984375 L328.015625,14.984375 L328.015625,17 L329.984375,17 Z M329.984375,25.015625 L329.984375,19.015625 L328.015625,19.015625 L328.015625,25.015625 L329.984375,25.015625 Z M329,10.015625 C331.750014,10.015625 334.101553,10.9921777 336.054688,12.9453125 C338.007822,14.8984473 338.984375,17.2499862 338.984375,20 C338.984375,22.7500138 338.007822,25.1015527 336.054688,27.0546875 C334.101553,29.0078223 331.750014,29.984375 329,29.984375 C326.249986,29.984375 323.898447,29.0078223 321.945312,27.0546875 C319.992178,25.1015527 319.015625,22.7500138 319.015625,20 C319.015625,17.2499862 319.992178,14.8984473 321.945312,12.9453125 C323.898447,10.9921777 326.249986,10.015625 329,10.015625 Z" id=""></path>
                </g>
            </g>
        </g>
    </g>
</svg>
