<?xml version="1.0" encoding="UTF-8" standalone="no"?>
<svg
class="icon icon-hack-nights nav-icon icon icon-projects nav-icon icon icon-press nav-icon"
width="20px" height="20px" viewBox="0 0 20 20" version="1.1" xmlns="http://www.w3.org/2000/svg" xmlns:xlink="http://www.w3.org/1999/xlink">
    <!-- Generator: Sketch 45.2 (43514) - http://www.bohemiancoding.com/sketch -->
    <title></title>
    <desc>Created with Sketch.</desc>
    <defs></defs>
    <g id="Layout" stroke="none" stroke-width="1" fill="none" fill-rule="evenodd">
        <g id="hfla-web-mobile" transform="translate(-132.000000, -3735.000000)" fill="#046AFA">
            <g id="Group-13" transform="translate(0.000000, 2539.000000)">
                <g id="Group-2" transform="translate(0.000000, 1186.000000)">
                    <path d="M142,23.515625 C142.968755,23.515625 143.796872,23.1718784 144.484375,22.484375 C145.171878,21.7968716 145.515625,20.9687548 145.515625,20 C145.515625,19.0312452 145.171878,18.2031284 144.484375,17.515625 C143.796872,16.8281216 142.968755,16.484375 142,16.484375 C141.031245,16.484375 140.203128,16.8281216 139.515625,17.515625 C138.828122,18.2031284 138.484375,19.0312452 138.484375,20 C138.484375,20.9687548 138.828122,21.7968716 139.515625,22.484375 C140.203128,23.1718784 141.031245,23.515625 142,23.515625 Z M149.453125,20.984375 L151.5625,22.625 C151.781251,22.7812508 151.812501,22.9999986 151.65625,23.28125 L149.640625,26.75 C149.515624,26.9687511 149.312501,27.0312505 149.03125,26.9375 L146.546875,25.953125 C145.890622,26.4218773 145.328127,26.7499991 144.859375,26.9375 L144.484375,29.5625 C144.421875,29.8437514 144.265626,29.984375 144.015625,29.984375 L139.984375,29.984375 C139.734374,29.984375 139.578125,29.8437514 139.515625,29.5625 L139.140625,26.9375 C138.546872,26.6874987 137.984378,26.359377 137.453125,25.953125 L134.96875,26.9375 C134.687499,27.0312505 134.484376,26.9687511 134.359375,26.75 L132.34375,23.28125 C132.187499,22.9999986 132.218749,22.7812508 132.4375,22.625 L134.546875,20.984375 C134.515625,20.7656239 134.5,20.4375022 134.5,20 C134.5,19.5624978 134.515625,19.2343761 134.546875,19.015625 L132.4375,17.375 C132.218749,17.2187492 132.187499,17.0000014 132.34375,16.71875 L134.359375,13.25 C134.484376,13.0312489 134.687499,12.9687495 134.96875,13.0625 L137.453125,14.046875 C138.109378,13.5781227 138.671873,13.2500009 139.140625,13.0625 L139.515625,10.4375 C139.578125,10.1562486 139.734374,10.015625 139.984375,10.015625 L144.015625,10.015625 C144.265626,10.015625 144.421875,10.1562486 144.484375,10.4375 L144.859375,13.0625 C145.453128,13.3125013 146.015622,13.640623 146.546875,14.046875 L149.03125,13.0625 C149.312501,12.9687495 149.515624,13.0312489 149.640625,13.25 L151.65625,16.71875 C151.812501,17.0000014 151.781251,17.2187492 151.5625,17.375 L149.453125,19.015625 C149.484375,19.2343761 149.5,19.5624978 149.5,20 C149.5,20.4375022 149.484375,20.7656239 149.453125,20.984375 Z" id=""></path>
                </g>
            </g>
        </g>
    </g>
</svg>
