<svg width="30" height="30" viewBox="0 0 30 30" fill="none" xmlns="http://www.w3.org/2000/svg">
<path d="M7.41074 10.7901C7.46912 10.7994 7.52895 10.7982 7.58681 10.7866C7.64468 10.775 7.69944 10.7532 7.74796 10.7225C7.79649 10.6918 7.83784 10.6528 7.86963 10.6076C7.90143 10.5625 7.92305 10.5122 7.93327 10.4595C8.19347 9.13782 8.67464 7.8594 9.36033 6.66797C11.0125 6.52359 12.6895 6.4451 14.3914 6.4325V9.70162C14.3914 9.80958 14.4389 9.91313 14.5236 9.98947C14.6082 10.0658 14.723 10.1087 14.8427 10.1087C14.9624 10.1087 15.0772 10.0658 15.1619 9.98947C15.2465 9.91313 15.294 9.80958 15.294 9.70162V6.43249C16.9933 6.44432 18.6699 6.52279 20.3238 6.66791C20.9922 7.82805 21.4666 9.07099 21.7316 10.3564C21.7535 10.4624 21.8211 10.5562 21.9195 10.6173C22.018 10.6784 22.1393 10.7018 22.2569 10.6823C22.3744 10.6628 22.4786 10.6021 22.5466 10.5134C22.6145 10.4247 22.6407 10.3153 22.6193 10.2093C22.3748 9.01929 21.9603 7.86288 21.3864 6.76889C23.1958 6.95772 24.9929 7.23278 26.77 7.59293C27.5084 8.98524 27.9376 10.4944 28.0333 12.0354H26.5071C26.3874 12.0354 26.2726 12.0783 26.188 12.1546C26.1033 12.231 26.0558 12.3345 26.0558 12.4425C26.0558 12.5505 26.1033 12.654 26.188 12.7303C26.2726 12.8067 26.3874 12.8496 26.5071 12.8496H28.0529C28.0448 13.6149 27.9555 14.3778 27.7862 15.1277C27.7743 15.1801 27.7739 15.234 27.7851 15.2865C27.7963 15.339 27.8188 15.389 27.8515 15.4337C27.8841 15.4783 27.9261 15.5167 27.9752 15.5467C28.0243 15.5766 28.0794 15.5976 28.1375 15.6083C28.1675 15.614 28.1981 15.6168 28.2287 15.6167C28.3326 15.6166 28.4332 15.5842 28.5137 15.5249C28.5941 15.4657 28.6495 15.3833 28.6704 15.2915C28.8627 14.4445 28.9595 13.582 28.9593 12.7174C28.9593 12.6553 28.9551 12.594 28.9541 12.5321C28.9567 12.5024 28.9593 12.4729 28.9593 12.4425C28.9571 12.4303 28.9542 12.4182 28.9505 12.4063C28.9003 10.6285 28.4377 8.87984 27.5924 7.27312C26.7471 5.66641 25.538 4.23725 24.043 3.07776C22.5479 1.91827 20.8001 1.05417 18.9121 0.541164C17.0242 0.0281551 15.038 -0.122386 13.0816 0.0992438C11.1252 0.320873 9.24203 0.909756 7.55339 1.82794C5.86475 2.74612 4.40814 3.97323 3.27743 5.43018C2.14672 6.88713 1.367 8.5416 0.988528 10.2869C0.610056 12.0323 0.641226 13.8298 1.08003 15.5636C1.1069 15.6687 1.17888 15.7599 1.28019 15.8171C1.3815 15.8744 1.50385 15.8931 1.62041 15.8691C1.73697 15.8451 1.83821 15.7803 1.90192 15.6891C1.96562 15.5978 1.9866 15.4875 1.96024 15.3823C1.75159 14.551 1.64185 13.7019 1.63289 12.8496H3.23493C3.35464 12.8496 3.46944 12.8067 3.55408 12.7303C3.63873 12.654 3.68628 12.5505 3.68628 12.4425C3.68628 12.3345 3.63873 12.231 3.55408 12.1546C3.46944 12.0783 3.35464 12.0354 3.23493 12.0354H1.6519C1.74753 10.4945 2.17648 8.98545 2.91458 7.59315C4.69116 7.23299 6.48763 6.95793 8.29646 6.76911C7.70597 7.89688 7.28485 9.09063 7.04423 10.3188C7.03397 10.3715 7.03531 10.4254 7.04818 10.4776C7.06105 10.5298 7.08519 10.5792 7.11923 10.6229C7.15326 10.6667 7.19653 10.704 7.24655 10.7327C7.29657 10.7614 7.35236 10.7809 7.41074 10.7901ZM9.89652 5.80372C11.0501 4.11176 12.5807 2.65433 14.3914 1.52372V5.61832C12.876 5.62868 11.3777 5.69048 9.89652 5.80372ZM15.2941 5.61832V1.52362C17.1047 2.65451 18.6356 4.11198 19.7897 5.80384C18.3101 5.68955 16.8115 5.62771 15.2941 5.61832ZM26.2146 6.65293C24.4565 6.32077 22.6809 6.0693 20.8946 5.89948C19.6413 3.87935 17.8907 2.14555 15.7777 0.831516C17.9093 0.969317 19.9722 1.57086 21.7898 2.58468C23.6074 3.59849 25.1256 4.99439 26.2146 6.65293H26.2146ZM3.47407 6.65231C4.56251 4.99438 6.08006 3.59895 7.89687 2.58541C9.71369 1.57187 11.7757 0.970382 13.9065 0.832412C11.7939 2.14592 10.044 3.87945 8.79165 5.89936C7.00615 6.06903 5.23135 6.32034 3.4741 6.65231H3.47407Z" fill="#F16618"/>
<path d="M28.5302 22.334C27.7375 22.0275 25.8517 21.2023 24.8612 20.7657C25.3756 20.295 25.7983 19.7495 26.1115 19.152C26.803 18.8749 27.0633 18.0172 27.1993 17.3738C27.2694 17.1945 27.2862 17.0018 27.2481 16.8148C27.21 16.6278 27.1184 16.4531 26.9822 16.308C26.9233 16.2577 26.8558 16.2163 26.7823 16.1855V15.0498C26.7812 14.1314 26.3762 13.251 25.6562 12.6016C24.9362 11.9522 23.9601 11.587 22.9419 11.5859H22.456C21.5915 11.5877 20.7529 11.852 20.0754 12.3363C20.0288 12.3695 19.9899 12.4106 19.961 12.4574C19.932 12.5041 19.9136 12.5556 19.9067 12.6088C19.8998 12.662 19.9046 12.7158 19.9209 12.7673C19.9372 12.8189 19.9645 12.867 20.0014 12.9089C20.0384 12.9509 20.0841 12.9858 20.136 13.0118C20.1879 13.0378 20.245 13.0543 20.304 13.0603C20.363 13.0663 20.4227 13.0618 20.4798 13.047C20.5369 13.0322 20.5901 13.0074 20.6365 12.974C21.1527 12.6011 21.7947 12.3987 22.456 12.4001H22.9419C23.7208 12.4009 24.4675 12.6803 25.0182 13.1771C25.5689 13.6738 25.8787 14.3473 25.8796 15.0497V16.5336C25.8777 16.589 25.8886 16.6442 25.9117 16.6956C25.9348 16.747 25.9696 16.7935 26.0138 16.8321C26.058 16.8707 26.1107 16.9005 26.1684 16.9196C26.2261 16.9388 26.2877 16.9468 26.349 16.9432C26.3491 17.0343 26.3374 17.1251 26.3142 17.2138C26.1046 18.2062 25.8358 18.3969 25.6943 18.4221C25.6214 18.4351 25.5532 18.4641 25.4957 18.5067C25.4383 18.5492 25.3934 18.6038 25.365 18.6658C25.3553 18.6869 24.3537 20.7786 22.852 20.7786H22.5461C21.5348 20.7786 20.8593 20.0041 20.4706 19.3544C20.4131 19.2604 20.3168 19.1907 20.2026 19.1604C20.0884 19.1302 19.9656 19.1418 19.8609 19.1928C19.7562 19.2438 19.6781 19.33 19.6435 19.4327C19.6089 19.5354 19.6207 19.6463 19.6763 19.7412C20.3906 20.9352 21.4098 21.5927 22.5461 21.5927H22.852C23.2696 21.5901 23.6798 21.4937 24.0458 21.3122C24.7867 21.6403 27.2149 22.7112 28.1745 23.0821C28.3905 23.1427 28.5802 23.2624 28.7172 23.4246C28.8543 23.5869 28.9319 23.7837 28.9392 23.9875C28.9377 24.0037 28.9372 24.02 28.9379 24.0362L29.0798 27.4074H24.3266C24.2069 27.4074 24.0921 27.4503 24.0074 27.5267C23.9228 27.603 23.8753 27.7066 23.8753 27.8145C23.8753 27.9225 23.9228 28.026 24.0074 28.1024C24.0921 28.1787 24.2069 28.2216 24.3266 28.2216H29.5486C29.6093 28.2216 29.6693 28.2105 29.7252 28.189C29.7811 28.1676 29.8315 28.1362 29.8736 28.0968C29.9158 28.0573 29.9486 28.0106 29.9703 27.9595C29.9919 27.9083 30.0019 27.8538 29.9997 27.799L29.8408 24.0214C29.8417 23.6526 29.7163 23.2926 29.4817 22.9905C29.2471 22.6885 28.9148 22.4592 28.5302 22.334Z" fill="#F16618"/>
<path d="M0.126377 28.0968C0.168459 28.1363 0.21894 28.1677 0.274795 28.1891C0.330651 28.2106 0.390731 28.2216 0.451439 28.2217H5.67341C5.79311 28.2217 5.90791 28.1788 5.99256 28.1024C6.0772 28.0261 6.12475 27.9225 6.12475 27.8146C6.12475 27.7066 6.0772 27.6031 5.99256 27.5267C5.90791 27.4504 5.79311 27.4075 5.67341 27.4075H0.920195L1.06212 24.0363C1.06278 24.02 1.06234 24.0038 1.0608 23.9876C1.06777 23.7836 1.14522 23.5867 1.28233 23.4244C1.41944 23.262 1.60935 23.1424 1.82553 23.0822C2.78463 22.7114 5.21267 21.6413 5.95539 21.3127C6.321 21.4938 6.73085 21.5901 7.14799 21.5928H7.45388C8.59017 21.5928 9.60944 20.9352 10.3237 19.7412C10.3793 19.6463 10.3911 19.5354 10.3565 19.4327C10.3219 19.33 10.2438 19.2438 10.1391 19.1928C10.0344 19.1418 9.91157 19.1302 9.7974 19.1605C9.68323 19.1907 9.58693 19.2604 9.52944 19.3544C9.14069 20.0042 8.46521 20.7786 7.45388 20.7786H7.14798C5.62866 20.7786 4.64465 18.6865 4.63473 18.6654C4.60625 18.6036 4.56133 18.5491 4.50395 18.5067C4.44656 18.4642 4.37848 18.4352 4.3057 18.4221C4.16421 18.3969 3.89535 18.2063 3.684 17.206C3.66117 17.119 3.65 17.0297 3.65073 16.9403C3.75614 16.9433 3.85955 16.9138 3.94383 16.8566C3.99874 16.8186 4.04322 16.7697 4.07383 16.7136C4.10444 16.6576 4.12036 16.596 4.12036 16.5336V15.0498C4.12125 14.3473 4.43105 13.6738 4.98178 13.1771C5.53251 12.6803 6.27921 12.4009 7.05806 12.4001H7.544C8.2053 12.3987 8.84729 12.6011 9.36348 12.974C9.40988 13.0074 9.46314 13.0322 9.5202 13.047C9.57725 13.0618 9.63699 13.0663 9.69598 13.0603C9.75498 13.0543 9.81207 13.0378 9.86399 13.0118C9.91591 12.9858 9.96163 12.9508 9.99854 12.9089C10.0354 12.867 10.0628 12.8189 10.0791 12.7673C10.0953 12.7158 10.1002 12.662 10.0933 12.6088C10.0864 12.5556 10.068 12.5041 10.039 12.4574C10.0101 12.4106 9.97119 12.3695 9.92457 12.3363C9.24708 11.852 8.40847 11.5877 7.544 11.5859H7.05807C6.03988 11.587 5.06372 11.9522 4.34375 12.6016C3.62378 13.251 3.2188 14.1314 3.21768 15.0498V16.1855C3.14415 16.2163 3.07664 16.2577 3.01779 16.308C2.88218 16.4518 2.79064 16.6251 2.75225 16.8107C2.71386 16.9964 2.72996 17.1878 2.79895 17.366C2.93647 18.0164 3.19696 18.8747 3.8883 19.1518C4.2017 19.7496 4.62468 20.2955 5.13942 20.7663C4.14789 21.203 2.26218 22.0277 1.46983 22.334C1.08525 22.4592 0.752946 22.6885 0.518351 22.9905C0.283756 23.2926 0.158326 23.6526 0.159212 24.0214L0.000316373 27.7991C-0.0019566 27.8538 0.00803651 27.9084 0.029697 27.9595C0.0513575 28.0107 0.0842403 28.0574 0.126377 28.0968Z" fill="#F16618"/>
<path d="M6.8119 24.9419C6.71736 25.9429 6.62546 29.4357 6.62171 29.584C6.62028 29.6383 6.6309 29.6922 6.65293 29.7427C6.67496 29.7932 6.70796 29.8392 6.74999 29.878C6.79202 29.9168 6.84224 29.9477 6.89768 29.9687C6.95312 29.9898 7.01267 30.0007 7.07283 30.0006H23.3261C23.3868 30.0006 23.4468 29.9895 23.5027 29.9681C23.5586 29.9466 23.609 29.9152 23.6512 29.8758C23.6933 29.8363 23.7261 29.7897 23.7478 29.7385C23.7694 29.6873 23.7794 29.6328 23.7772 29.5781L23.5892 25.1057C23.5908 24.6837 23.4473 24.2717 23.1786 23.9262C22.9099 23.5808 22.5291 23.319 22.0886 23.1768C21.092 22.7915 18.7585 21.6808 17.7357 21.1891C18.3386 20.6333 18.8329 19.9896 19.1978 19.2852C20.0022 18.9831 20.3064 17.9771 20.4653 17.2235C20.5445 17.0238 20.5647 16.8088 20.5239 16.5999C20.4831 16.391 20.3827 16.1952 20.2325 16.0319C20.1567 15.967 20.0676 15.916 19.9703 15.8816V14.4888C19.9689 13.4219 19.4984 12.3991 18.662 11.6447C17.8256 10.8903 16.6915 10.466 15.5086 10.4648H14.9334C13.7506 10.466 12.6166 10.8904 11.7802 11.6447C10.9438 12.3991 10.4733 13.4219 10.472 14.4888V15.9041C10.3163 15.9484 10.1766 16.0296 10.0674 16.1392C9.73021 16.4757 9.70332 17.0204 9.98982 17.8163C10.1481 18.2134 10.5871 19.1135 11.4153 19.4337C11.6923 20.0456 12.084 20.6099 12.5732 21.102L7.95613 23.2507C7.62496 23.425 7.34701 23.6708 7.14728 23.966C6.94755 24.2612 6.8323 24.5965 6.8119 24.9419ZM11.8728 18.7167C11.4142 18.6117 11.0384 18.0407 10.844 17.5531C10.634 16.9697 10.6953 16.7292 10.7365 16.6856C10.7591 16.6747 10.7847 16.6697 10.8103 16.6713C10.8162 16.6713 10.8221 16.6716 10.8279 16.6723C10.8938 16.6852 10.962 16.6845 11.0275 16.6705C11.0931 16.6565 11.1543 16.6294 11.2068 16.5912C11.2592 16.5531 11.3015 16.5048 11.3306 16.45C11.3596 16.3951 11.3747 16.3351 11.3747 16.2744V14.4888C11.3758 13.6378 11.7511 12.822 12.4182 12.2202C13.0854 11.6185 13.9899 11.28 14.9334 11.279H15.5086C16.4522 11.2799 17.3568 11.6184 18.024 12.2202C18.6912 12.8219 19.0665 13.6378 19.0676 14.4888V16.2446C19.0684 16.3075 19.0851 16.3694 19.1165 16.4256C19.1479 16.4818 19.193 16.5309 19.2485 16.569C19.3 16.6042 19.3591 16.6293 19.422 16.6427C19.4849 16.6561 19.5502 16.6575 19.6137 16.6469C19.6329 16.7864 19.6215 16.928 19.5802 17.0635C19.3362 18.2198 19.011 18.5116 18.7813 18.5525C18.7084 18.5655 18.6402 18.5946 18.5828 18.6371C18.5253 18.6796 18.4804 18.7343 18.4521 18.7962C18.4404 18.8217 17.2627 21.3425 15.402 21.3425H15.0401C13.1124 21.3425 12.1978 19.0031 12.1888 18.9795C12.1644 18.9155 12.1227 18.858 12.0675 18.8121C12.0124 18.7663 11.9455 18.7335 11.8728 18.7167V18.7167ZM8.36493 23.9766L13.3105 21.6751C13.8204 21.9884 14.4231 22.1562 15.0401 22.1567H15.402C15.9541 22.1509 16.4934 22.0058 16.9589 21.7379C17.6461 22.0704 20.5439 23.4654 21.7329 23.925C22.005 24.0018 22.2435 24.1537 22.4148 24.3593C22.586 24.5649 22.6815 24.8138 22.6876 25.0709C22.6861 25.0871 22.6856 25.1034 22.6863 25.1196L22.8573 29.1865H7.53564C7.56362 28.2075 7.63812 25.7869 7.71151 25.0111C7.71956 24.8038 7.78322 24.6015 7.89702 24.4213C8.01083 24.2411 8.17139 24.0885 8.36494 23.9766L8.36493 23.9766Z" fill="#F16618"/>
</svg>