<svg width="100" height="100" viewBox="0 0 100 100" fill="none" xmlns="http://www.w3.org/2000/svg" id="commofpracdiscu">
<path d="M17.5366 72.9146C22.7033 72.8854 26.8845 68.6583 26.8595 63.4875C26.8262 58.3208 22.5991 54.1375 17.4325 54.1667C12.2637 54.1958 8.0783 58.425 8.10955 63.5917C8.13455 68.7625 12.3658 72.9458 17.5366 72.9146ZM17.4533 58.3333C20.3262 58.3167 22.6741 60.6396 22.6908 63.5104C22.7075 66.3854 20.3866 68.7312 17.5158 68.7479C14.6387 68.7646 12.2908 66.4437 12.2762 63.5687C12.2575 60.6979 14.5804 58.3479 17.4533 58.3333Z" fill="#333333"/>
<path d="M50.0523 72.9146C55.2189 72.8854 59.4023 68.6583 59.3752 63.4875C59.3418 58.3208 55.1148 54.1375 49.9481 54.1667C44.7814 54.1958 40.5939 58.425 40.6252 63.5917C40.6543 68.7625 44.8814 72.9458 50.0523 72.9146ZM49.971 58.3333C52.8439 58.3167 55.1918 60.6396 55.2085 63.5104C55.2252 66.3854 52.9023 68.7312 50.0335 68.7479C47.1564 68.7646 44.8085 66.4437 44.7918 63.5687C44.7752 60.6979 47.0981 58.3479 49.971 58.3333Z" fill="#333333"/>
<path d="M82.5718 72.9146C87.7385 72.8854 91.9197 68.6583 91.8947 63.4875C91.8614 58.3208 87.6343 54.1375 82.4676 54.1667C77.2989 54.1958 73.1135 58.425 73.1447 63.5917C73.1697 68.7625 77.3989 72.9458 82.5718 72.9146ZM82.4885 58.3333C85.3614 58.3167 87.7093 60.6396 87.726 63.5104C87.7426 66.3854 85.4218 68.7312 82.551 68.7479C79.6739 68.7646 77.326 66.4437 77.3114 63.5687C77.2926 60.6979 79.6155 58.3479 82.4885 58.3333Z" fill="#333333"/>
<path d="M90.8583 75H74.1917C70.8042 75 68.0375 77.7104 67.9437 81.075L66.2625 92.0125L64.5875 81.075C64.4958 77.7104 61.7292 75 58.3417 75H41.675C38.2875 75 35.5208 77.7104 35.4271 81.075L33.7458 92.0062L32.0729 81.075C31.9812 77.7104 29.2125 75 25.825 75H9.15833C5.77083 75 3.00417 77.7104 2.91042 81.075L0 100H4.21458L7.05 81.5667L7.075 81.25C7.075 80.1021 8.00833 79.1667 9.15833 79.1667H25.825C26.975 79.1667 27.9083 80.1021 27.9083 81.25L30.775 100H32.5167H34.9688H36.7313L39.5667 81.5667L39.5917 81.25C39.5917 80.1021 40.525 79.1667 41.675 79.1667H58.3417C59.4917 79.1667 60.425 80.1021 60.425 81.25L63.2917 100H65.0354H67.4854H69.25L72.0854 81.5667L72.1083 81.25C72.1083 80.1021 73.0417 79.1667 74.1917 79.1667H90.8583C92.0083 79.1667 92.9417 80.1021 92.9417 81.25L95.8083 100H100L97.1062 81.075C97.0125 77.7104 94.2458 75 90.8583 75Z" fill="#333333"/>
<path d="M89.5833 10.4167H45.8333C44.6813 10.4167 43.75 11.35 43.75 12.5C43.75 13.65 44.6813 14.5833 45.8333 14.5833H89.5833C90.7354 14.5833 91.6667 13.65 91.6667 12.5C91.6667 11.35 90.7354 10.4167 89.5833 10.4167Z" fill="#333333"/>
<path d="M89.5833 16.6667H45.8333C44.6813 16.6667 43.75 17.6 43.75 18.75C43.75 19.9 44.6813 20.8333 45.8333 20.8333H89.5833C90.7354 20.8333 91.6667 19.9 91.6667 18.75C91.6667 17.6 90.7354 16.6667 89.5833 16.6667Z" fill="#333333"/>
<path d="M89.5833 22.9167H45.8333C44.6813 22.9167 43.75 23.85 43.75 25C43.75 26.15 44.6813 27.0833 45.8333 27.0833H89.5833C90.7354 27.0833 91.6667 26.15 91.6667 25C91.6667 23.85 90.7354 22.9167 89.5833 22.9167Z" fill="#333333"/>
<path d="M89.5833 29.1667H45.8333C44.6813 29.1667 43.75 30.1 43.75 31.25C43.75 32.4 44.6813 33.3333 45.8333 33.3333H89.5833C90.7354 33.3333 91.6667 32.4 91.6667 31.25C91.6667 30.1 90.7354 29.1667 89.5833 29.1667Z" fill="#333333"/>
<path d="M93.75 0H6.25C2.80417 0 0 2.80417 0 6.25V37.5C0 40.9458 2.80417 43.75 6.25 43.75H14.5833V50C14.5833 50.8 15.0437 51.5312 15.7625 51.8771C16.0521 52.0146 16.3604 52.0833 16.6667 52.0833C17.1312 52.0833 17.5917 51.9271 17.9688 51.6271L27.8146 43.75H42.7083L48.3333 51.25C48.725 51.775 49.3438 52.0833 50 52.0833C50.6562 52.0833 51.2729 51.775 51.6667 51.25L57.2917 43.75H72.1854L82.0312 51.6271C82.4083 51.9271 82.8687 52.0833 83.3333 52.0833C83.6396 52.0833 83.95 52.0146 84.2375 51.8771C84.9562 51.5312 85.4167 50.8 85.4167 50V43.75H93.75C97.1958 43.75 100 40.9458 100 37.5V6.25C100 2.80417 97.1958 0 93.75 0ZM95.8333 37.5C95.8333 38.6479 94.9 39.5833 93.75 39.5833H83.3333H81.25V45.6646L73.6479 39.5833H72.9167H56.25H55.2083L50 46.5271L44.7917 39.5833H43.75H27.0833H26.3521L18.75 45.6646V39.5833H16.6667H6.25C5.1 39.5833 4.16667 38.6479 4.16667 37.5V6.25C4.16667 5.10208 5.1 4.16667 6.25 4.16667H93.75C94.9 4.16667 95.8333 5.10208 95.8333 6.25V37.5Z" fill="#333333"/>
<path d="M33.334 10.4167H14.584C11.1382 10.4167 8.33398 13.2208 8.33398 16.6667V27.0833C8.33398 30.5292 11.1382 33.3333 14.584 33.3333H33.334C36.7798 33.3333 39.584 30.5292 39.584 27.0833V16.6667C39.584 13.2208 36.7798 10.4167 33.334 10.4167ZM35.4173 27.0833C35.4173 28.2312 34.484 29.1667 33.334 29.1667H14.584C13.434 29.1667 12.5007 28.2312 12.5007 27.0833V16.6667C12.5007 15.5187 13.434 14.5833 14.584 14.5833H33.334C34.484 14.5833 35.4173 15.5187 35.4173 16.6667V27.0833Z" fill="#333333"/>
</svg>
