<svg width="30" height="30" viewBox="0 0 30 30" fill="none" xmlns="http://www.w3.org/2000/svg">
<path d="M27.1094 3.06567C27.1094 2.85773 26.9409 2.68913 26.7328 2.68913H23.555C21.1265 0.996381 18.1782 0 15 0C6.72889 0 0 6.72889 0 14.9998C0 19.5533 2.04211 23.6363 5.25549 26.3895H3.03001C2.82188 26.3895 2.65346 26.5581 2.65346 26.7661C2.65346 26.974 2.82188 27.1426 3.03001 27.1426H6.20889C8.68116 28.9375 11.7181 29.9998 15 29.9998C23.2711 29.9998 30 23.2709 30 14.9998C30 10.3544 27.877 6.19575 24.5506 3.44222H26.7328C26.9409 3.44222 27.1094 3.27362 27.1094 3.06567ZM29.2469 14.9998C29.2469 22.8556 22.856 29.2467 15 29.2467C11.8933 29.2467 9.01794 28.2443 6.6741 26.55V23.4987C6.6741 23.2908 6.50569 23.1222 6.29756 23.1222C6.08943 23.1222 5.92101 23.2908 5.92101 23.4987V25.9705C2.76621 23.3551 0.753089 19.4084 0.753089 14.9998C0.753089 7.14423 7.14405 0.753089 15 0.753089C18.0027 0.753089 20.7895 1.6891 23.0891 3.28132V6.33304C23.0891 6.54099 23.2575 6.70959 23.4656 6.70959C23.6738 6.70959 23.8422 6.54099 23.8422 6.33304V3.84136C27.1315 6.45336 29.2469 10.483 29.2469 14.9998Z" fill="#0DC583"/>
<path d="M14.9621 5.55469C9.71587 5.55469 5.44775 9.8228 5.44775 15.0691C5.44775 20.315 9.71562 24.583 14.9617 24.5832C14.9617 24.5832 14.9617 24.5832 14.9618 24.5832C14.9618 24.5832 14.9618 24.5832 14.9618 24.5832C14.9619 24.5832 14.962 24.5832 14.9621 24.5832C20.2084 24.5832 24.4765 20.3151 24.4765 15.0691C24.4765 9.8228 20.2084 5.55469 14.9621 5.55469ZM22.3301 10.3376H19.1467C18.3962 8.52869 17.3595 7.2225 16.6599 6.47431C19.0327 6.94223 21.063 8.37137 22.3301 10.3376ZM22.8768 18.8227H19.4113C19.7827 17.8161 20.0354 16.6876 20.0787 15.4456H23.7138C23.6626 16.6496 23.3679 17.7913 22.8768 18.8227ZM6.2104 15.4456H9.84551C9.88881 16.6876 10.1416 17.8161 10.5129 18.8227H7.04742C6.55629 17.7913 6.26163 16.6496 6.2104 15.4456ZM7.16015 11.0907H10.4961C10.1344 12.1479 9.8844 13.3519 9.84418 14.6925H6.2104C6.26538 13.4001 6.60235 12.1801 7.16015 11.0907ZM14.5117 6.32616C14.5141 6.32414 14.5151 6.32113 14.5175 6.31906C14.54 6.31793 14.563 6.3183 14.5856 6.31734V10.3376H11.6173C12.7707 7.78114 14.4856 6.34749 14.5117 6.32616ZM15.4179 6.31964C15.42 6.32145 15.4211 6.32402 15.4232 6.32579C15.4491 6.34712 17.1594 7.78091 18.3097 10.3376H15.3387V6.31734C15.365 6.31846 15.3916 6.31828 15.4179 6.31964ZM18.6181 11.0907C19.0064 12.139 19.2826 13.3448 19.3268 14.6925H15.3387V11.0907H18.6181ZM14.5856 11.0907V14.6925H10.5975C10.6418 13.3448 10.9187 12.1389 11.3081 11.0907H14.5856ZM10.5989 15.4456H14.5856V18.8227H11.3323C10.9286 17.8231 10.647 16.6923 10.5989 15.4456ZM14.5856 19.5758V23.4032C13.8481 22.7373 12.5798 21.4222 11.6693 19.5758H14.5856ZM15.3387 23.4032V19.5758H18.2507C17.3406 21.4198 16.0758 22.7376 15.3387 23.4032ZM15.3387 18.8227V15.4456H19.32C19.2715 16.6922 18.9929 17.8232 18.5889 18.8227H15.3387ZM20.0801 14.6925C20.04 13.3519 19.7906 12.1479 19.43 11.0907H22.7641C23.3219 12.1801 23.6589 13.4001 23.7138 14.6925H20.0801ZM13.2754 6.47235C12.5738 7.22029 11.5332 8.52715 10.7801 10.3376H7.59413C8.86315 8.36836 10.8978 6.93805 13.2754 6.47235ZM7.45217 19.5758H10.8211C11.7049 21.5336 12.9892 22.9546 13.8466 23.7567C11.1335 23.4101 8.80416 21.8202 7.45217 19.5758ZM16.0776 23.7567C16.935 22.9546 18.2194 21.5336 19.1031 19.5758H22.4721C21.1201 21.8202 18.7907 23.4101 16.0776 23.7567Z" fill="#0DC583"/>
</svg>