<svg width="30" height="23" viewBox="0 0 30 23" fill="none" xmlns="http://www.w3.org/2000/svg">
<path d="M28.8256 4.19005V3.22054H27.6402V2.27298H26.4878V1.25225H23.8683C23.2741 1.18757 22.6938 1.02953 22.1488 0.783956C21.0636 0.319502 19.9036 0.0542934 18.7244 0.0010294C17.9765 -0.0154796 17.2377 0.166842 16.5833 0.529367C15.929 0.891892 15.3826 1.42163 15 2.06444C14.6174 1.42163 14.071 0.891892 13.4167 0.529367C12.7623 0.166842 12.0235 -0.0154796 11.2756 0.0010294C10.0964 0.0542934 8.93642 0.319502 7.85122 0.783956C7.30625 1.02953 6.72594 1.18757 6.13171 1.25225H3.5122V2.27298H2.35976V3.23883H1.17439V4.20835H0V22.2596H30V4.19005H28.8256ZM28.0939 3.95225V20.5254H25.6902C24.4874 20.5277 23.2861 20.436 22.0976 20.251C21.5854 20.1815 21 20.1047 20.2683 20.0205C18.6951 19.8413 17.2537 20.0644 16.4195 20.6059L16.2329 20.4742C16.7341 19.8888 17.4768 19.3437 19.0793 19.3437C20.0531 19.3531 21.0205 19.5034 21.9512 19.7901C22.8703 20.0735 23.8249 20.225 24.7866 20.2401H27.6512V3.95225H28.0939ZM26.9085 3.00469V19.5083H24.7756C23.8791 19.4995 22.9884 19.3628 22.1305 19.1022C21.1432 18.8019 20.1184 18.643 19.0866 18.6303C17.2061 18.6303 16.2659 19.3254 15.6366 20.0937L15.4537 19.9657C15.7478 19.3517 16.2128 18.8356 16.793 18.4793C17.3731 18.123 18.0438 17.9417 18.7244 17.9571C19.8161 18.007 20.8897 18.2549 21.8927 18.6888C22.5181 18.9691 23.1857 19.1434 23.8683 19.2047H26.4878V3.00469H26.9085ZM18.7244 0.732737C19.8161 0.782575 20.8897 1.03051 21.8927 1.46444C22.5182 1.74376 23.1859 1.91686 23.8683 1.97664H25.7561V18.4401H23.8683C23.2744 18.3736 22.6944 18.2156 22.1488 17.9718C21.0644 17.5043 19.9041 17.2378 18.7244 17.1852C18.0832 17.1696 17.447 17.3014 16.8648 17.5703C16.2825 17.8393 15.7697 18.2382 15.3659 18.7364V2.93883C15.6371 2.27476 16.1032 1.70847 16.7028 1.31464C17.3024 0.920814 18.0072 0.717929 18.7244 0.732737ZM4.2439 1.98396H6.13171C6.81413 1.92418 7.48181 1.75107 8.10732 1.47176C9.11033 1.03783 10.1839 0.789891 11.2756 0.740053C11.9924 0.720256 12.6981 0.919864 13.2983 1.31216C13.8985 1.70446 14.3646 2.27072 14.6341 2.93518V18.7364C14.2292 18.2402 13.7159 17.8434 13.1337 17.5764C12.5515 17.3094 11.9159 17.1793 11.2756 17.1962C10.0959 17.2487 8.93561 17.5153 7.85122 17.9827C7.30564 18.2266 6.72561 18.3846 6.13171 18.451H4.2439V1.98396ZM3.09146 3.00469H3.5122V19.1754H6.13171C6.81428 19.1141 7.48192 18.9398 8.10732 18.6596C9.11033 18.2256 10.1839 17.9777 11.2756 17.9279C11.9539 17.9124 12.6223 18.0926 13.201 18.4468C13.7797 18.801 14.2442 19.3143 14.539 19.9254L14.3488 20.0498C13.7195 19.3181 12.7793 18.6193 10.9134 18.6193C9.88105 18.6356 8.85622 18.7982 7.86951 19.1022C7.01252 19.369 6.12181 19.5119 5.22439 19.5266H3.09146V3.00469ZM1.9061 3.97054H2.35976V20.2401H5.22439C6.18236 20.224 7.13325 20.0725 8.04878 19.7901C8.97366 19.5051 9.93473 19.3548 10.9024 19.3437C12.472 19.3437 13.2146 19.8669 13.7195 20.4413L13.5366 20.5657C12.6951 20.0425 11.2756 19.834 9.72439 20.0059C8.99268 20.0901 8.41463 20.1669 7.89512 20.2364C6.70661 20.4219 5.50534 20.5137 4.30244 20.5108H1.9061V3.97054ZM0.731707 21.5279V4.92176H1.15976V21.2608H1.52561C1.52561 21.2608 2.80244 21.2608 4.2878 21.2608C5.52496 21.263 6.76041 21.1688 7.98293 20.9791C8.49146 20.9132 9.08049 20.8327 9.78659 20.7523C10.8209 20.5999 11.8769 20.7068 12.8598 21.0632L12.2195 21.5315L0.731707 21.5279ZM13.4634 21.5279L14.1695 21.012L14.3744 20.8803C14.4128 20.8687 14.4488 20.8501 14.4805 20.8254C14.4805 20.8254 14.4805 20.8254 14.5061 20.7998L15 20.4998L16.4634 21.5279H13.4634ZM29.239 21.5279H17.7549L17.0963 21.0705C18.0861 20.7056 19.1515 20.5949 20.1951 20.7486C20.9268 20.8291 21.4902 20.9096 21.9988 20.9754C23.1943 21.1645 24.403 21.2587 25.6134 21.2571H25.6939C27.1573 21.2571 28.4561 21.2571 28.4561 21.2571H28.822V4.92176H29.2683L29.239 21.5279ZM5.76585 5.1303C5.76585 5.03327 5.8044 4.94021 5.87301 4.8716C5.94162 4.80299 6.03468 4.76444 6.13171 4.76444C6.72561 4.698 7.30564 4.54003 7.85122 4.29615C8.93561 3.82867 10.0959 3.56215 11.2756 3.50957C12.2211 3.49353 13.1451 3.79209 13.9024 4.35835C13.9748 4.41867 14.0212 4.5046 14.0318 4.59823C14.0424 4.69187 14.0164 4.78598 13.9594 4.86097C13.9023 4.93596 13.8185 4.98604 13.7254 5.00077C13.6324 5.0155 13.5372 4.99375 13.4598 4.94005C12.8256 4.47051 12.0535 4.22474 11.2646 4.24127C10.1732 4.29287 9.09991 4.54074 8.09634 4.97298C7.47154 5.25493 6.80361 5.42933 6.12073 5.48883C6.02687 5.48603 5.93768 5.44725 5.87162 5.38051C5.80556 5.31377 5.76769 5.22418 5.76585 5.1303ZM5.76585 7.19371C5.76585 7.09668 5.8044 7.00363 5.87301 6.93501C5.94162 6.8664 6.03468 6.82786 6.13171 6.82786C6.72608 6.76166 7.30634 6.6024 7.85122 6.35591C8.93595 5.88894 10.0959 5.62125 11.2756 5.56566C11.9787 5.556 12.6738 5.71535 13.3024 6.0303C13.3888 6.07493 13.4539 6.15204 13.4834 6.24467C13.5129 6.33729 13.5044 6.43784 13.4598 6.5242C13.4151 6.61056 13.338 6.67565 13.2454 6.70515C13.1528 6.73465 13.0522 6.72615 12.9659 6.68152C12.4398 6.42624 11.8602 6.30079 11.2756 6.31566C10.1839 6.3655 9.11033 6.61344 8.10732 7.04737C7.48192 7.32762 6.81428 7.50195 6.13171 7.56322C6.08335 7.56323 6.03548 7.55364 5.99085 7.53503C5.94622 7.51642 5.90573 7.48914 5.87171 7.45478C5.83769 7.42042 5.81081 7.37965 5.79265 7.33484C5.77448 7.29003 5.76537 7.24206 5.76585 7.19371ZM13.6866 8.74127C13.6612 8.78369 13.6275 8.82051 13.5874 8.84953C13.5474 8.87854 13.5019 8.89914 13.4537 8.91008C13.4055 8.92102 13.3555 8.92208 13.3069 8.91319C13.2583 8.9043 13.212 8.88564 13.1707 8.85835C12.5941 8.51794 11.9342 8.34441 11.2646 8.35713C10.1732 8.40873 9.09991 8.65659 8.09634 9.08883C7.47154 9.37078 6.80361 9.54519 6.12073 9.60469C6.0237 9.60469 5.93065 9.56614 5.86203 9.49753C5.79342 9.42892 5.75488 9.33587 5.75488 9.23883C5.75488 9.1418 5.79342 9.04875 5.86203 8.98014C5.93065 8.91153 6.0237 8.87298 6.12073 8.87298C6.71463 8.80653 7.29467 8.64857 7.84024 8.40469C8.92463 7.93721 10.0849 7.67068 11.2646 7.6181C12.0683 7.6054 12.8598 7.81562 13.5512 8.22542C13.5951 8.24927 13.6337 8.28186 13.6645 8.32118C13.6954 8.36051 13.7178 8.40573 13.7305 8.45406C13.7432 8.5024 13.7458 8.55282 13.7383 8.60221C13.7307 8.65161 13.7131 8.69894 13.6866 8.74127ZM5.76585 11.3022C5.76585 11.2052 5.8044 11.1122 5.87301 11.0436C5.94162 10.9749 6.03468 10.9364 6.13171 10.9364C6.72594 10.8717 7.30625 10.7137 7.85122 10.4681C8.93642 10.0036 10.0964 9.73844 11.2756 9.68517C11.7969 9.68912 12.3139 9.78064 12.8049 9.95591C12.8959 9.98823 12.9704 10.0552 13.0122 10.1422C13.054 10.2293 13.0597 10.3293 13.028 10.4205C12.9965 10.5122 12.9298 10.5876 12.8427 10.6301C12.7555 10.6726 12.6551 10.6788 12.5634 10.6474C12.149 10.5057 11.7136 10.4352 11.2756 10.4388C10.1841 10.4904 9.11086 10.7382 8.10732 11.1705C7.48252 11.4525 6.81459 11.6269 6.13171 11.6864C6.08304 11.6864 6.03486 11.6767 5.98999 11.6579C5.94512 11.639 5.90446 11.6114 5.87039 11.5767C5.83632 11.5419 5.80952 11.5007 5.79157 11.4555C5.77362 11.4102 5.76488 11.3619 5.76585 11.3132V11.3022ZM13.4488 12.6962C13.4049 12.7823 13.3287 12.8476 13.2369 12.8778C13.145 12.9079 13.0449 12.9005 12.9585 12.8571C12.4307 12.6032 11.8502 12.4778 11.2646 12.4913C10.1729 12.5411 9.09935 12.789 8.09634 13.223C7.47094 13.5032 6.80331 13.6776 6.12073 13.7388C6.0237 13.7388 5.93065 13.7003 5.86203 13.6317C5.79342 13.5631 5.75488 13.47 5.75488 13.373C5.75488 13.276 5.79342 13.1829 5.86203 13.1143C5.93065 13.0457 6.0237 13.0071 6.12073 13.0071C6.7151 12.9409 7.29536 12.7817 7.84024 12.5352C8.92544 12.0707 10.0854 11.8055 11.2646 11.7522C11.9662 11.742 12.6599 11.9001 13.2878 12.2132C13.3319 12.234 13.3714 12.2633 13.404 12.2995C13.4366 12.3357 13.4616 12.378 13.4776 12.424C13.4937 12.47 13.5003 12.5188 13.4973 12.5674C13.4942 12.616 13.4814 12.6635 13.4598 12.7071L13.4488 12.6962ZM8.09634 15.2571C7.47721 15.5505 6.81301 15.7373 6.13171 15.8096C6.03468 15.8096 5.94162 15.771 5.87301 15.7024C5.8044 15.6338 5.76585 15.5407 5.76585 15.4437C5.76585 15.3467 5.8044 15.2536 5.87301 15.185C5.94162 15.1164 6.03468 15.0779 6.13171 15.0779C6.72594 15.0132 7.30625 14.8551 7.85122 14.6096C8.93561 14.1421 10.0959 13.8756 11.2756 13.823H11.3707C11.4678 13.823 11.5608 13.8615 11.6294 13.9301C11.698 13.9987 11.7366 14.0918 11.7366 14.1888C11.7366 14.2859 11.698 14.3789 11.6294 14.4475C11.5608 14.5161 11.4678 14.5547 11.3707 14.5547H11.2756C10.1841 14.6063 9.11089 14.8542 8.10732 15.2864L8.09634 15.2571ZM16.1341 4.87054C16.0759 4.79292 16.0509 4.69534 16.0647 4.59929C16.0784 4.50323 16.1297 4.41656 16.2073 4.35835C16.967 3.7885 17.8957 3.48967 18.8451 3.50957C20.0249 3.56174 21.1853 3.82828 22.2695 4.29615C22.8152 4.53964 23.3952 4.69759 23.989 4.76444C24.0861 4.76444 24.1791 4.80299 24.2477 4.8716C24.3163 4.94021 24.3549 5.03327 24.3549 5.1303C24.3549 5.22733 24.3163 5.32038 24.2477 5.38899C24.1791 5.45761 24.0861 5.49615 23.989 5.49615C23.3073 5.43701 22.6405 5.26258 22.0171 4.9803C21.0122 4.54801 19.9378 4.30015 18.8451 4.24859C18.056 4.23066 17.2835 4.47657 16.65 4.94737C16.6112 4.97658 16.567 4.99777 16.52 5.00973C16.4729 5.02169 16.424 5.02416 16.376 5.01701C16.328 5.00986 16.2819 4.99323 16.2403 4.96808C16.1988 4.94293 16.1627 4.90978 16.1341 4.87054ZM16.1341 6.9303C16.0759 6.85267 16.0509 6.7551 16.0647 6.65905C16.0784 6.56299 16.1297 6.47632 16.2073 6.4181C16.9669 5.84772 17.8954 5.54766 18.8451 5.56566C20.0163 5.61719 21.1688 5.87866 22.2476 6.33761L22.5659 6.45835C22.6467 6.48769 22.7146 6.54457 22.7577 6.61902C22.8008 6.69346 22.8162 6.78069 22.8014 6.86541C22.7865 6.95012 22.7423 7.02689 22.6765 7.08225C22.6107 7.13761 22.5275 7.168 22.4415 7.1681C22.399 7.16805 22.357 7.16062 22.3171 7.14615L21.9951 7.02908C20.9973 6.59881 19.9304 6.35099 18.8451 6.29737C18.0568 6.28061 17.285 6.525 16.65 6.99249C16.6121 7.02248 16.5687 7.04466 16.5222 7.05777C16.4757 7.07088 16.4271 7.07466 16.3791 7.06887C16.3312 7.06309 16.2848 7.04787 16.2428 7.02408C16.2007 7.0003 16.1638 6.96842 16.1341 6.9303ZM24.3549 9.25347C24.3549 9.3505 24.3163 9.44355 24.2477 9.51217C24.1791 9.58078 24.0861 9.61932 23.989 9.61932C23.3073 9.56018 22.6405 9.38575 22.0171 9.10347C21.0122 8.67118 19.9378 8.42332 18.8451 8.37176C18.0558 8.35213 17.2827 8.59822 16.65 9.07054C16.6127 9.1055 16.5685 9.13225 16.5203 9.14908C16.472 9.1659 16.4207 9.17243 16.3698 9.16824C16.3189 9.16405 16.2694 9.14924 16.2245 9.12475C16.1796 9.10026 16.1404 9.06664 16.1093 9.02606C16.0783 8.98549 16.056 8.93885 16.0441 8.88915C16.0321 8.83946 16.0307 8.78781 16.04 8.73754C16.0492 8.68727 16.0689 8.63949 16.0977 8.59729C16.1265 8.55508 16.1639 8.51938 16.2073 8.49249C16.9681 7.92522 17.8963 7.62783 18.8451 7.64737C20.0249 7.69955 21.1853 7.96609 22.2695 8.43396C22.8152 8.67745 23.3952 8.8354 23.989 8.90225C24.0836 8.90217 24.1745 8.9387 24.2427 9.00418C24.3109 9.06966 24.3511 9.159 24.3549 9.25347ZM16.1341 11.0535C16.1046 11.0151 16.0829 10.9713 16.0703 10.9246C16.0578 10.8778 16.0547 10.829 16.0612 10.781C16.0676 10.733 16.0835 10.6868 16.108 10.645C16.1325 10.6033 16.165 10.5667 16.2037 10.5376C16.9656 9.96982 17.8951 9.67241 18.8451 9.69249C20.0285 9.74432 21.1925 10.0108 22.2805 10.4791C22.5585 10.5815 22.8183 10.6803 23.0671 10.7608C23.1497 10.7879 23.2199 10.8436 23.2652 10.9178C23.3104 10.992 23.3278 11.0799 23.3142 11.1658C23.3005 11.2516 23.2567 11.3298 23.1907 11.3863C23.1246 11.4429 23.0406 11.474 22.9537 11.4742C22.9173 11.4797 22.8803 11.4797 22.8439 11.4742C22.5841 11.3901 22.3134 11.2913 22.0244 11.1815C21.0172 10.7484 19.9403 10.5006 18.8451 10.4498C18.0565 10.4314 17.2842 10.6759 16.65 11.1449C16.6103 11.1734 16.5654 11.1936 16.5178 11.2045C16.4702 11.2153 16.4209 11.2165 16.3728 11.208C16.3247 11.1994 16.2788 11.1814 16.2379 11.1548C16.1969 11.1283 16.1616 11.0938 16.1341 11.0535ZM24.3549 13.373C24.3549 13.47 24.3163 13.5631 24.2477 13.6317C24.1791 13.7003 24.0861 13.7388 23.989 13.7388C23.3076 13.678 22.6411 13.5036 22.0171 13.223C21.0128 12.789 19.938 12.5411 18.8451 12.4913C18.0558 12.4716 17.2827 12.7177 16.65 13.1901C16.6115 13.2195 16.5674 13.2409 16.5205 13.2531C16.4736 13.2654 16.4248 13.2682 16.3768 13.2614C16.3288 13.2546 16.2826 13.2383 16.241 13.2135C16.1993 13.1887 16.163 13.1558 16.1341 13.1169C16.0759 13.0393 16.0509 12.9417 16.0647 12.8456C16.0784 12.7496 16.1297 12.6629 16.2073 12.6047C16.9681 12.0374 17.8963 11.74 18.8451 11.7596C20.0244 11.8124 21.1845 12.0776 22.2695 12.5425C22.8145 12.7886 23.3947 12.9478 23.989 13.0144C24.0854 13.0144 24.1779 13.0525 24.2464 13.1203C24.3149 13.1881 24.3539 13.2802 24.3549 13.3766V13.373ZM22.7634 15.173C22.7375 15.2424 22.691 15.3023 22.6303 15.3448C22.5695 15.3873 22.4973 15.4103 22.4232 15.4108C22.3795 15.4112 22.3362 15.4037 22.2951 15.3888L22.0171 15.2864C21.0128 14.8524 19.938 14.6045 18.8451 14.5547C18.0564 14.5393 17.2847 14.7849 16.65 15.2535C16.6123 15.2876 16.568 15.3135 16.5198 15.3295C16.4716 15.3455 16.4206 15.3513 16.37 15.3465C16.3194 15.3418 16.2704 15.3265 16.2261 15.3017C16.1817 15.277 16.143 15.2432 16.1124 15.2027C16.0818 15.1621 16.06 15.1157 16.0483 15.0662C16.0367 15.0168 16.0354 14.9654 16.0447 14.9155C16.054 14.8656 16.0736 14.8181 16.1022 14.7761C16.1308 14.7342 16.1679 14.6986 16.211 14.6718C16.9709 14.1024 17.8994 13.8036 18.8488 13.823C20.0299 13.8767 21.1914 14.1444 22.2768 14.6132L22.5512 14.712C22.6402 14.7465 22.7122 14.8144 22.7518 14.9012C22.7915 14.988 22.7956 15.0868 22.7634 15.1766V15.173Z" fill="#F9B402"/>
</svg>