<svg width="30" height="31" viewBox="0 0 30 31" fill="none" xmlns="http://www.w3.org/2000/svg">
<path d="M5.98815 0C5.74913 0 5.56452 0.183638 5.56452 0.421687V16.4536H0.421687C0.183638 16.4536 0 16.6372 0 16.8772V29.5803C0 29.8193 0.181695 30.0019 0.421687 30.0019H13.1248C13.3638 30.0019 13.5464 29.8202 13.5464 29.5803V24.4355H29.5783C29.8173 24.4355 30 24.2538 30 24.0138V0.421687C30 0.182666 29.8183 0 29.5783 0H5.98815ZM6.40886 0.842402H29.1566V23.5902H13.5464V16.8743C13.5464 16.6353 13.3647 16.4526 13.1248 16.4526H6.40886V1.32822V0.842402ZM21.1047 4.41508C20.8667 4.41508 20.6831 4.59872 20.6831 4.83871C20.6831 5.0787 20.8647 5.2604 21.1047 5.2604H24.1148L15.6549 13.7184C15.4858 13.8875 15.4858 14.145 15.6549 14.314C15.7384 14.3976 15.8443 14.4365 15.9493 14.4374H15.9532C16.063 14.4374 16.166 14.3976 16.2495 14.314H16.2515L24.6677 5.89778V8.81656C24.6677 9.05558 24.8494 9.23824 25.0894 9.23824C25.3294 9.23824 25.5111 9.05655 25.5111 8.81656V4.83871C25.5111 4.59969 25.3274 4.41508 25.0894 4.41508H21.1047ZM0.843374 17.295H5.56452V24.0109C5.56452 24.2489 5.7501 24.4345 5.98815 24.4345H12.704V29.1557H0.843374V17.7808V17.295ZM6.40692 17.295H12.7031V23.5902H6.40692V17.7808V17.295Z" fill="#D11D69"/>
</svg>