<svg width="33" height="35" viewBox="0 0 33 35" fill="none" xmlns="http://www.w3.org/2000/svg">
<path d="M12.7973 25.402C13.2045 25.402 13.6116 25.3439 14.0188 25.2275L7.6202 35L5.58426 29.8229L0 29.9974L5.87511 21.0393C6.39864 21.3884 6.98033 21.5629 7.56203 21.7955C8.02738 21.97 8.49274 22.1446 8.78358 22.3191C9.07443 22.5517 9.36528 22.9008 9.65613 23.3079C10.2378 24.0641 10.8777 24.8785 11.9247 25.2275C12.1574 25.3439 12.4483 25.402 12.7973 25.402ZM26.3507 21.0393C25.8272 21.3884 25.2455 21.5629 24.6638 21.7955C24.1985 21.97 23.7331 22.1446 23.4423 22.3191C23.1514 22.5517 22.8606 22.9008 22.5697 23.3079C21.988 24.0641 21.3482 24.8785 20.3011 25.2275C20.0103 25.3439 19.7194 25.3439 19.3704 25.3439C18.9632 25.3439 18.556 25.2857 18.1489 25.1694L24.5475 34.9418L26.5834 29.7648L32.1677 29.9393L26.3507 21.0393ZM16.1129 23.5988C14.8332 23.5988 13.379 24.5877 12.2156 24.1805C10.994 23.7733 10.4123 22.1446 9.42345 21.3884C8.3764 20.6322 6.68948 20.574 5.93328 19.5851C5.17708 18.5962 5.64243 16.9093 5.29342 15.6877C4.88623 14.5244 3.54834 13.4773 3.54834 12.1394C3.54834 10.8597 4.9444 9.75447 5.29342 8.59108C5.7006 7.36952 5.23525 5.74078 5.93328 4.69373C6.68948 3.64668 8.43457 3.58851 9.42345 2.89048C10.4123 2.13427 11.0522 0.505531 12.2156 0.0983447C13.379 -0.308841 14.8332 0.680039 16.1129 0.680039C17.3927 0.680039 18.8469 -0.308841 20.0103 0.0983447C21.2318 0.505531 21.8135 2.13427 22.8024 2.89048C23.8495 3.64668 25.5364 3.70485 26.2926 4.69373C27.0488 5.68261 26.5834 7.36952 26.9324 8.59108C27.3396 9.75447 28.6775 10.8015 28.6775 12.1394C28.6775 13.4191 27.2815 14.5244 26.9324 15.6877C26.5253 16.9093 26.9906 18.5381 26.2926 19.5851C25.5364 20.6322 23.7913 20.6903 22.8024 21.3884C21.8135 22.1446 21.1737 23.7733 20.0103 24.1805C18.8469 24.5877 17.3927 23.5988 16.1129 23.5988ZM16.1129 21.8537C21.4063 21.8537 25.7691 17.5492 25.7691 12.1976C25.7691 6.90417 21.4645 2.54146 16.1129 2.54146C10.7613 2.54146 6.45681 6.846 6.45681 12.1976C6.45681 17.491 10.8195 21.8537 16.1129 21.8537ZM24.6638 12.1976C24.6638 16.9093 20.8247 20.7485 16.1129 20.7485C11.4012 20.7485 7.56203 16.9093 7.56203 12.1976C7.56203 7.48586 11.4012 3.64668 16.1129 3.64668C20.8247 3.64668 24.6638 7.48586 24.6638 12.1976ZM18.9632 13.1865L21.8135 10.3943L17.858 9.81264L16.1129 6.20613L14.3097 9.81264L10.3542 10.3943L13.2045 13.1865L12.5064 17.142L16.0548 15.2806L19.6031 17.142L18.9632 13.1865Z" fill="#FA114F"/>
</svg>