<svg width="35" height="33" viewBox="0 0 35 33" fill="none" xmlns="http://www.w3.org/2000/svg">
<path fill-rule="evenodd" clip-rule="evenodd" d="M24.7891 24.5663C16.3408 19.8975 15.8962 17.7854 8.33714 21.7872L3.89067 20.5644C1.66743 22.0095 0.55581 24.8997 0 28.9016L8.33714 29.4574H11.7832L23.0105 32.6811L34.349 23.5658C35.3495 22.7877 35.5718 19.4528 32.237 20.2309L25.7896 24.7886C25.7896 24.7886 26.4565 29.2351 21.6766 29.2351L16.2296 26.3448C15.785 26.1225 16.0073 25.2332 17.0078 25.6779L21.6766 28.1234C22.4547 28.4569 25.3449 27.79 24.7891 24.5663Z" fill="#FA114F"/>
<path fill-rule="evenodd" clip-rule="evenodd" d="M12.3394 4.77996C12.3394 9.55993 17.8975 14.3399 23.4555 19.1199C29.0136 14.3399 34.5717 9.55993 34.5717 4.77996C34.5717 2.22324 32.015 0 29.0136 0C26.2346 0 24.7895 1.22278 23.4555 3.66834C22.0104 1.22278 20.6765 0 17.8975 0C14.7849 0 12.3394 2.22324 12.3394 4.77996Z" fill="#FA114F"/>
</svg>