<svg width="35" height="21" viewBox="0 0 35 21" fill="none" xmlns="http://www.w3.org/2000/svg">
<path d="M1.66667 0C1.53225 0 1.40108 0.0220833 1.27604 0.0520833L16.7318 13.4766C17.1032 13.7991 17.8968 13.7991 18.2682 13.4766L33.724 0.0520833C33.5989 0.0220833 33.4678 0 33.3333 0H1.66667ZM0.0650835 1.21091C0.0246668 1.35545 0 1.50879 0 1.66667V19.1667C0 19.3258 0.0366667 19.4768 0.078125 19.6224L11.0938 10.7942L0.0650835 1.21091ZM34.9349 1.21091L23.9062 10.7942L34.9219 19.6224C34.9631 19.4768 35 19.3258 35 19.1667V1.66667C35 1.50879 34.9754 1.35545 34.9349 1.21091ZM12.3698 11.901L1.28908 20.7813C1.41033 20.8092 1.53667 20.8333 1.66667 20.8333H33.3333C33.4633 20.8333 33.5897 20.8092 33.7109 20.7813L22.6302 11.901L19.362 14.7396C18.2995 15.6625 16.7005 15.6625 15.638 14.7396L12.3698 11.901Z" fill="#FA114F"/>
</svg>