<svg width="35" height="26" viewBox="0 0 35 26" fill="none" xmlns="http://www.w3.org/2000/svg">
<path d="M33.6299 4.8884V3.7573H32.247V2.65181H30.9024V1.46096H27.8463C27.1531 1.3855 26.476 1.20112 25.8402 0.914615C24.5742 0.372752 23.2209 0.0633424 21.8451 0.00120097C20.9726 -0.0180595 20.1106 0.194649 19.3472 0.617595C18.5838 1.04054 17.9464 1.65856 17.5 2.40852C17.0536 1.65856 16.4162 1.04054 15.6528 0.617595C14.8894 0.194649 14.0274 -0.0180595 13.1549 0.00120097C11.7791 0.0633424 10.4258 0.372752 9.15976 0.914615C8.52396 1.20112 7.84693 1.3855 7.15366 1.46096H4.09756V2.65181H2.75305V3.77864H1.37012V4.90974H0V25.9695H35V4.8884H33.6299ZM32.7762 4.61096V23.9463H29.972C28.5686 23.949 27.1672 23.842 25.7805 23.6262C25.1829 23.5451 24.5 23.4555 23.6463 23.3573C21.811 23.1482 20.1293 23.4085 19.1561 24.0402L18.9384 23.8866C19.5232 23.2036 20.3896 22.5677 22.2591 22.5677C23.3953 22.5786 24.5239 22.754 25.6098 23.0884C26.682 23.4191 27.7957 23.5959 28.9177 23.6134H32.2598V4.61096H32.7762ZM31.3933 3.50547V22.7597H28.9049C27.8589 22.7495 26.8198 22.5899 25.8189 22.286C24.6671 21.9356 23.4715 21.7502 22.2677 21.7353C20.0738 21.7353 18.9768 22.5463 18.2427 23.4427L18.0293 23.2933C18.3724 22.5769 18.9149 21.9748 19.5918 21.5592C20.2686 21.1435 21.051 20.932 21.8451 20.95C23.1188 21.0081 24.3713 21.2974 25.5415 21.8036C26.2711 22.1306 27.05 22.334 27.8463 22.4055H30.9024V3.50547H31.3933ZM21.8451 0.854859C23.1188 0.913004 24.3713 1.20226 25.5415 1.70852C26.2712 2.03438 27.0502 2.23634 27.8463 2.30608H30.0488V21.5134H27.8463C27.1535 21.4359 26.4768 21.2516 25.8402 20.9671C24.5751 20.4217 23.2214 20.1107 21.8451 20.0494C21.0971 20.0312 20.3549 20.185 19.6756 20.4987C18.9963 20.8125 18.398 21.2779 17.9268 21.8591V3.42864C18.2433 2.65388 18.7871 1.99322 19.4866 1.53375C20.1861 1.07428 21.0084 0.837584 21.8451 0.854859ZM4.95122 2.31462H7.15366C7.94982 2.24487 8.72878 2.04292 9.45854 1.71705C10.6287 1.2108 11.8812 0.92154 13.1549 0.863395C13.9911 0.840299 14.8144 1.07317 15.5147 1.53085C16.2149 1.98853 16.7587 2.64918 17.0732 3.42437V21.8591C16.6007 21.2802 16.0019 20.8172 15.3226 20.5057C14.6434 20.1943 13.9019 20.0425 13.1549 20.0622C11.7786 20.1235 10.4249 20.4345 9.15976 20.9799C8.52325 21.2644 7.84654 21.4487 7.15366 21.5262H4.95122V2.31462ZM3.60671 3.50547H4.09756V22.3713H7.15366C7.95 22.2998 8.72891 22.0965 9.45854 21.7695C10.6287 21.2632 11.8812 20.974 13.1549 20.9158C13.9462 20.8978 14.7261 21.108 15.4012 21.5213C16.0763 21.9345 16.6182 22.5334 16.9622 23.2463L16.7402 23.3914C16.0061 22.5378 14.9091 21.7225 12.7323 21.7225C11.5279 21.7415 10.3323 21.9312 9.1811 22.286C8.18128 22.5972 7.14211 22.7639 6.09512 22.7811H3.60671V3.50547ZM2.22378 4.6323H2.75305V23.6134H6.09512C7.21276 23.5946 8.32212 23.4179 9.39024 23.0884C10.4693 22.756 11.5905 22.5806 12.7195 22.5677C14.5506 22.5677 15.4171 23.178 16.0061 23.8482L15.7927 23.9933C14.811 23.3829 13.1549 23.1396 11.3451 23.3402C10.4915 23.4384 9.81707 23.528 9.21098 23.6091C7.82438 23.8256 6.4229 23.9326 5.01951 23.9293H2.22378V4.6323ZM0.853659 25.1158V5.74205H1.35305V24.8043H1.77988C1.77988 24.8043 3.26951 24.8043 5.00244 24.8043C6.44579 24.8069 7.88714 24.697 9.31341 24.4756C9.90671 24.3988 10.5939 24.3049 11.4177 24.211C12.6244 24.0332 13.8564 24.1579 15.003 24.5738L14.2561 25.1201L0.853659 25.1158ZM15.7073 25.1158L16.5311 24.514L16.7701 24.3603C16.815 24.3468 16.8569 24.3251 16.8939 24.2963C16.8939 24.2963 16.8939 24.2963 16.9238 24.2664L17.5 23.9164L19.2073 25.1158H15.7073ZM34.1122 25.1158H20.714L19.9457 24.5823C21.1004 24.1566 22.3434 24.0274 23.561 24.2067C24.4146 24.3006 25.072 24.3945 25.6652 24.4713C27.0601 24.6919 28.4702 24.8018 29.8823 24.8H29.9762C31.6835 24.8 33.1988 24.8 33.1988 24.8H33.6256V5.74205H34.1463L34.1122 25.1158ZM6.72683 5.98535C6.72683 5.87215 6.7718 5.76358 6.85184 5.68353C6.93189 5.60349 7.04046 5.55852 7.15366 5.55852C7.84654 5.481 8.52325 5.2967 9.15976 5.01218C10.4249 4.46678 11.7786 4.15584 13.1549 4.09449C14.2579 4.07578 15.336 4.42411 16.2195 5.08474C16.304 5.15511 16.358 5.25537 16.3704 5.36461C16.3828 5.47385 16.3525 5.58365 16.2859 5.67114C16.2194 5.75862 16.1216 5.81705 16.013 5.83423C15.9044 5.85142 15.7934 5.82605 15.703 5.7634C14.9632 5.2156 14.0624 4.92886 13.1421 4.94815C11.8687 5.00835 10.6166 5.29753 9.44573 5.80181C8.7168 6.13075 7.93755 6.33422 7.14085 6.40364C7.03135 6.40037 6.92729 6.35513 6.85022 6.27726C6.77315 6.1994 6.72897 6.09488 6.72683 5.98535ZM6.72683 8.39266C6.72683 8.27946 6.7718 8.1709 6.85184 8.09085C6.93189 8.0108 7.04046 7.96584 7.15366 7.96584C7.84709 7.88861 8.52406 7.7028 9.15976 7.41523C10.4253 6.87043 11.7786 6.55812 13.1549 6.49327C13.9751 6.482 14.7861 6.6679 15.5195 7.03535C15.6203 7.08742 15.6962 7.17738 15.7306 7.28545C15.765 7.39351 15.7551 7.51082 15.703 7.61157C15.651 7.71232 15.561 7.78825 15.453 7.82267C15.3449 7.85709 15.2276 7.84718 15.1268 7.7951C14.5131 7.49728 13.8369 7.35092 13.1549 7.36827C11.8812 7.42642 10.6287 7.71568 9.45854 8.22193C8.72891 8.54889 7.95 8.75227 7.15366 8.82376C7.09725 8.82376 7.04139 8.81258 6.98933 8.79087C6.93726 8.76915 6.89002 8.73733 6.85033 8.69724C6.81063 8.65715 6.77928 8.60959 6.75809 8.55731C6.73689 8.50504 6.72627 8.44907 6.72683 8.39266ZM15.9677 10.1982C15.938 10.2476 15.8987 10.2906 15.852 10.3244C15.8053 10.3583 15.7522 10.3823 15.696 10.3951C15.6397 10.4079 15.5815 10.4091 15.5247 10.3987C15.468 10.3883 15.4139 10.3666 15.3659 10.3347C14.6931 9.93759 13.9232 9.73515 13.1421 9.74998C11.8687 9.81018 10.6166 10.0994 9.44573 10.6036C8.7168 10.9326 7.93755 11.1361 7.14085 11.2055C7.02765 11.2055 6.91909 11.1605 6.83904 11.0805C6.75899 11.0004 6.71402 10.8918 6.71402 10.7786C6.71402 10.6654 6.75899 10.5569 6.83904 10.4768C6.91909 10.3968 7.02765 10.3518 7.14085 10.3518C7.83374 10.2743 8.51044 10.09 9.14695 9.80547C10.4121 9.26008 11.7658 8.94913 13.1421 8.88779C14.0797 8.87297 15.0031 9.11822 15.8098 9.59632C15.861 9.62414 15.906 9.66217 15.9419 9.70805C15.9779 9.75392 16.0041 9.80668 16.0189 9.86307C16.0337 9.91946 16.0368 9.97829 16.028 10.0359C16.0192 10.0935 15.9987 10.1488 15.9677 10.1982ZM6.72683 13.186C6.72683 13.0728 6.7718 12.9642 6.85184 12.8841C6.93189 12.8041 7.04046 12.7591 7.15366 12.7591C7.84693 12.6837 8.52396 12.4993 9.15976 12.2128C10.4258 11.6709 11.7791 11.3615 13.1549 11.2994C13.7631 11.304 14.3662 11.4107 14.939 11.6152C15.0452 11.6529 15.1321 11.7311 15.1809 11.8326C15.2297 11.9342 15.2363 12.0509 15.1994 12.1573C15.1625 12.2642 15.0847 12.3522 14.9831 12.4018C14.8815 12.4514 14.7643 12.4586 14.6573 12.4219C14.1738 12.2567 13.6658 12.1744 13.1549 12.1786C11.8815 12.2387 10.6293 12.5279 9.45854 13.0323C8.72961 13.3612 7.95035 13.5647 7.15366 13.6341C7.09688 13.6341 7.04067 13.6228 6.98832 13.6008C6.93597 13.5789 6.88853 13.5467 6.84879 13.5061C6.80904 13.4656 6.77778 13.4175 6.75684 13.3647C6.7359 13.3119 6.72569 13.2555 6.72683 13.1988V13.186ZM15.6902 14.8122C15.6391 14.9127 15.5502 14.9889 15.443 15.0241C15.3358 15.0593 15.2191 15.0506 15.1183 15C14.5025 14.7037 13.8253 14.5574 13.1421 14.5732C11.8684 14.6313 10.6159 14.9206 9.44573 15.4268C8.7161 15.7538 7.93719 15.9572 7.14085 16.0286C7.02765 16.0286 6.91909 15.9837 6.83904 15.9036C6.75899 15.8236 6.71402 15.715 6.71402 15.6018C6.71402 15.4886 6.75899 15.38 6.83904 15.3C6.91909 15.22 7.02765 15.175 7.14085 15.175C7.83428 15.0978 8.51125 14.9119 9.14695 14.6244C10.413 14.0825 11.7663 13.7731 13.1421 13.711C13.9605 13.699 14.7699 13.8835 15.5024 14.2488C15.5539 14.2729 15.6 14.3072 15.638 14.3494C15.676 14.3916 15.7052 14.441 15.7239 14.4947C15.7426 14.5484 15.7504 14.6052 15.7468 14.6619C15.7432 14.7187 15.7283 14.7741 15.703 14.825L15.6902 14.8122ZM9.44573 17.8C8.72342 18.1423 7.94851 18.3602 7.15366 18.4445C7.04046 18.4445 6.93189 18.3995 6.85184 18.3195C6.7718 18.2394 6.72683 18.1309 6.72683 18.0177C6.72683 17.9045 6.7718 17.7959 6.85184 17.7159C6.93189 17.6358 7.04046 17.5908 7.15366 17.5908C7.84693 17.5154 8.52396 17.331 9.15976 17.0445C10.4249 16.4991 11.7786 16.1882 13.1549 16.1268H13.2659C13.3791 16.1268 13.4876 16.1718 13.5677 16.2518C13.6477 16.3319 13.6927 16.4404 13.6927 16.5536C13.6927 16.6668 13.6477 16.7754 13.5677 16.8555C13.4876 16.9355 13.3791 16.9805 13.2659 16.9805H13.1549C11.8815 17.0407 10.6294 17.3298 9.45854 17.8341L9.44573 17.8ZM18.8232 5.6823C18.7552 5.59174 18.7261 5.4779 18.7421 5.36584C18.7581 5.25377 18.818 5.15266 18.9085 5.08474C19.7948 4.41992 20.8783 4.07128 21.986 4.09449C23.3623 4.15537 24.7161 4.46633 25.9811 5.01218C26.6178 5.29625 27.2944 5.48053 27.9872 5.55852C28.1004 5.55852 28.209 5.60349 28.289 5.68353C28.3691 5.76358 28.414 5.87215 28.414 5.98535C28.414 6.09855 28.3691 6.20711 28.289 6.28716C28.209 6.36721 28.1004 6.41218 27.9872 6.41218C27.1918 6.34318 26.4139 6.13968 25.6866 5.81035C24.5143 5.30601 23.2607 5.01684 21.986 4.95669C21.0654 4.93577 20.1641 5.22267 19.425 5.77193C19.3798 5.80601 19.3282 5.83074 19.2733 5.84469C19.2184 5.85863 19.1613 5.86152 19.1053 5.85318C19.0493 5.84484 18.9955 5.82543 18.9471 5.79609C18.8986 5.76676 18.8565 5.72807 18.8232 5.6823ZM18.8232 8.08535C18.7552 7.99478 18.7261 7.88095 18.7421 7.76889C18.7581 7.65682 18.818 7.55571 18.9085 7.48779C19.7947 6.82234 20.878 6.47228 21.986 6.49327C23.3524 6.55339 24.6969 6.85843 25.9555 7.39388L26.3268 7.53474C26.4211 7.56897 26.5004 7.63534 26.5506 7.72218C26.6009 7.80903 26.6189 7.91081 26.6016 8.00964C26.5843 8.10847 26.5327 8.19804 26.4559 8.26262C26.3791 8.32721 26.282 8.36267 26.1817 8.36279C26.1322 8.36273 26.0831 8.35406 26.0366 8.33718L25.661 8.20059C24.4969 7.69862 23.2522 7.40949 21.986 7.34693C21.0662 7.32738 20.1658 7.6125 19.425 8.15791C19.3808 8.19289 19.3301 8.21878 19.2759 8.23407C19.2217 8.24936 19.1649 8.25377 19.109 8.24702C19.053 8.24027 18.999 8.22251 18.9499 8.19477C18.9008 8.16702 18.8578 8.12983 18.8232 8.08535ZM28.414 10.7957C28.414 10.9089 28.3691 11.0175 28.289 11.0975C28.209 11.1776 28.1004 11.2225 27.9872 11.2225C27.1918 11.1535 26.4139 10.95 25.6866 10.6207C24.5143 10.1164 23.2607 9.82721 21.986 9.76705C21.0651 9.74415 20.1632 10.0313 19.425 10.5823C19.3815 10.6231 19.3299 10.6543 19.2736 10.6739C19.2173 10.6936 19.1575 10.7012 19.0981 10.6963C19.0387 10.6914 18.9809 10.6741 18.9286 10.6455C18.8762 10.617 18.8305 10.5777 18.7942 10.5304C18.758 10.4831 18.732 10.4287 18.7181 10.3707C18.7042 10.3127 18.7025 10.2524 18.7133 10.1938C18.7241 10.1351 18.747 10.0794 18.7806 10.0302C18.8143 9.98093 18.8578 9.93928 18.9085 9.90791C19.7961 9.24609 20.879 8.89913 21.986 8.92193C23.3623 8.9828 24.7161 9.29377 25.9811 9.83962C26.6178 10.1237 27.2944 10.308 27.9872 10.386C28.0975 10.3859 28.2036 10.4285 28.2831 10.5049C28.3627 10.5813 28.4096 10.6855 28.414 10.7957ZM18.8232 12.8957C18.7886 12.851 18.7633 12.7999 18.7487 12.7453C18.7341 12.6908 18.7305 12.6338 18.738 12.5779C18.7456 12.5219 18.7641 12.468 18.7927 12.4192C18.8212 12.3705 18.8591 12.3279 18.9043 12.2939C19.7932 11.6315 20.8776 11.2845 21.986 11.3079C23.3665 11.3684 24.7246 11.6793 25.9939 12.2256C26.3183 12.3451 26.6213 12.4603 26.9116 12.5542C27.0079 12.5859 27.0899 12.6509 27.1427 12.7374C27.1955 12.824 27.2158 12.9266 27.1998 13.0268C27.1839 13.1269 27.1329 13.2181 27.0558 13.2841C26.9787 13.35 26.8807 13.3863 26.7793 13.3866C26.7368 13.393 26.6937 13.393 26.6512 13.3866C26.3482 13.2884 26.0323 13.1732 25.6951 13.0451C24.5201 12.5399 23.2636 12.2507 21.986 12.1914C21.066 12.1699 20.1649 12.4553 19.425 13.0024C19.3787 13.0356 19.3263 13.0593 19.2707 13.0719C19.2152 13.0845 19.1577 13.0859 19.1016 13.0759C19.0455 13.066 18.992 13.0449 18.9442 13.014C18.8963 12.983 18.8552 12.9428 18.8232 12.8957ZM28.414 15.6018C28.414 15.715 28.3691 15.8236 28.289 15.9036C28.209 15.9837 28.1004 16.0286 27.9872 16.0286C27.1921 15.9576 26.4146 15.7542 25.6866 15.4268C24.5149 14.9205 23.261 14.6313 21.986 14.5732C21.0651 14.5503 20.1632 14.8374 19.425 15.3884C19.38 15.4227 19.3287 15.4477 19.274 15.462C19.2192 15.4763 19.1622 15.4795 19.1062 15.4716C19.0502 15.4637 18.9964 15.4447 18.9478 15.4157C18.8992 15.3868 18.8568 15.3485 18.8232 15.303C18.7552 15.2125 18.7261 15.0986 18.7421 14.9866C18.7581 14.8745 18.818 14.7734 18.9085 14.7055C19.7961 14.0437 20.879 13.6967 21.986 13.7195C23.3618 13.7811 24.7152 14.0905 25.9811 14.6329C26.617 14.92 27.2939 15.1058 27.9872 15.1835C28.0997 15.1835 28.2076 15.2279 28.2875 15.307C28.3674 15.3861 28.4129 15.4936 28.414 15.6061V15.6018ZM26.5573 17.7018C26.5271 17.7828 26.4729 17.8527 26.402 17.9023C26.3311 17.9518 26.2468 17.9787 26.1604 17.9792C26.1094 17.9797 26.0588 17.971 26.011 17.9536L25.6866 17.8341C24.5149 17.3278 23.261 17.0386 21.986 16.9805C21.0658 16.9625 20.1654 17.2491 19.425 17.7957C19.3811 17.8355 19.3293 17.8657 19.2731 17.8844C19.2169 17.9031 19.1573 17.9099 19.0983 17.9043C19.0393 17.8987 18.9821 17.8809 18.9304 17.852C18.8787 17.8231 18.8335 17.7838 18.7978 17.7365C18.7621 17.6892 18.7366 17.6349 18.723 17.5773C18.7094 17.5196 18.708 17.4597 18.7188 17.4014C18.7296 17.3432 18.7525 17.2878 18.7859 17.2388C18.8193 17.1899 18.8625 17.1484 18.9128 17.1171C19.7994 16.4528 20.8827 16.1043 21.9902 16.1268C23.3682 16.1895 24.7233 16.5019 25.9896 17.0488L26.3098 17.164C26.4136 17.2042 26.4975 17.2834 26.5438 17.3847C26.59 17.486 26.5949 17.6013 26.5573 17.7061V17.7018Z" fill="#FA114F"/>
</svg>