<svg width="43" height="30" viewBox="0 0 43 30" fill="none" xmlns="http://www.w3.org/2000/svg">
<path d="M35.7525 17.6872L30.3584 12.6744C29.8898 12.2935 28.8446 11.4935 28.8446 11.4935L25.464 8.39711C25.3923 8.37023 25.2612 8.33865 25.0991 8.33865C24.9303 8.33865 24.819 8.37259 24.7903 8.38532L22.3388 9.94812C21.6435 10.3682 20.8373 10.5893 20.0095 10.5893C18.5499 10.5893 17.1715 9.90616 16.321 8.75964L16.0165 8.34902C15.3178 7.4071 15.0349 6.25256 15.2202 5.09708C15.4045 3.94254 16.0339 2.93367 16.998 2.25245L17.5529 1.86352C16.7524 1.76593 15.8637 1.85079 15.2141 2.12894C15.2141 2.12894 14.1251 2.60744 13.7762 2.755C12.9668 3.09867 11.832 3.09349 11.832 3.09349L9.16889 0.613281L0 9.72042L3.44806 13.1883L4.23111 12.3675C5.0481 11.5104 6.19792 11.0183 7.38593 11.0187C8.51266 11.0187 9.58092 11.4459 10.3941 12.2214L10.7652 12.5754C11.2427 13.0308 11.5954 13.5682 11.8207 14.1467C12.533 14.3296 13.1897 14.6917 13.7347 15.2112L14.1038 15.5638C14.9454 16.3643 15.4253 17.4467 15.4536 18.6121C15.7091 18.7696 15.9509 18.9553 16.1716 19.167L16.5449 19.5229C17.0677 20.0217 17.4397 20.6195 17.6585 21.2606C18.3189 21.453 18.928 21.8009 19.4353 22.2846L19.8129 22.6433C21.3309 24.0916 21.5723 26.3823 20.5078 28.0978L20.7907 28.3618C21.594 29.1095 22.8631 29.0633 23.6108 28.2595L23.9601 27.8824C24.6918 27.0946 24.655 25.867 23.8969 25.1165L26.4832 27.5156C27.2879 28.2619 28.557 28.2147 29.3047 27.41L29.6541 27.0343C30.3966 26.2352 30.3527 24.9774 29.5621 24.2283L30.2268 24.8468C31.0311 25.5936 32.2997 25.5464 33.0465 24.7426L33.3963 24.3664C34.143 23.5617 34.0959 22.2926 33.2921 21.5449L32.7306 21.0244C33.5377 21.7292 34.7719 21.675 35.5045 20.8849L35.8558 20.5082C36.6039 19.703 36.5577 18.4339 35.7525 17.6872Z" fill="#FA114F"/>
<path d="M25.0984 5.97305C25.7499 5.97305 26.408 6.15031 26.8903 6.49681L30.4392 9.74876C31.3307 10.3899 32.7162 11.5265 33.521 12.2728L36.7442 15.2688L42.4287 8.68238L33.5955 0.227231L31.4688 2.31426C31.4688 2.31426 30.7574 2.1535 30.2629 1.91307L26.9313 0.291817C26.5263 0.0947577 26.0276 0 25.5194 0C24.7882 0 24.0348 0.196587 23.5063 0.569962L18.3526 4.18444C17.4569 4.81804 17.2584 6.05697 17.9123 6.93855L18.2178 7.35152C18.6369 7.91583 19.3224 8.22414 20.0078 8.22414C20.3935 8.22414 20.7786 8.12703 21.1166 7.9229L23.562 6.36198C23.9943 6.10175 24.5435 5.97305 25.0984 5.97305Z" fill="#FA114F"/>
<path d="M18.1823 24.3491L17.8089 23.9942C17.4242 23.6274 16.9283 23.4449 16.4323 23.4449C15.9057 23.4449 15.3792 23.6514 14.9883 24.0611L14.9817 24.0503C15.7379 23.2564 15.7082 21.9863 14.9138 21.2297L14.5414 20.8742C14.1581 20.5093 13.6669 20.3288 13.1743 20.3288C12.676 20.3288 12.1795 20.5131 11.7944 20.877L12.5421 20.0935C13.3001 19.2992 13.2704 18.0291 12.4747 17.272L12.1027 16.9165C11.7189 16.5507 11.2249 16.3697 10.7313 16.3697C10.2184 16.3697 9.70735 16.5644 9.31936 16.9505C9.94259 16.1538 9.88083 14.9945 9.13408 14.2822L8.76307 13.9281C8.37791 13.5614 7.88102 13.3789 7.38554 13.3789C6.85754 13.3784 6.33189 13.5854 5.94107 13.9951L2.19365 17.924C1.43653 18.7174 1.46623 19.9875 2.26295 20.7441L2.6335 21.0986C3.0163 21.463 3.50753 21.6422 3.99877 21.6422C4.45181 21.6422 4.90392 21.4899 5.27116 21.1896L4.28351 22.2239C3.52733 23.0188 3.55751 24.2879 4.35093 25.0454L4.72477 25.4004C5.10946 25.7672 5.60635 25.9497 6.10089 25.9497C6.62889 25.9497 7.15501 25.7432 7.54535 25.3335L8.31615 24.525C7.63021 25.3217 7.67594 26.5333 8.44532 27.2664L8.81917 27.6218C9.20338 27.9881 9.6998 28.1706 10.1958 28.1706C10.7228 28.1706 11.2494 27.9641 11.6397 27.5544L12.8787 26.2726C12.1211 27.0674 12.1503 28.3365 12.9456 29.0941L13.319 29.4491C13.7023 29.8159 14.1987 29.9983 14.6946 29.9983C15.2217 29.9983 15.7483 29.7918 16.1386 29.3822L18.2497 27.1697C19.0068 26.3763 18.9762 25.1067 18.1823 24.3491Z" fill="#FA114F"/>
</svg>