<svg width="35" height="30" viewBox="0 0 35 30" fill="none" xmlns="http://www.w3.org/2000/svg">
<path d="M34.53 22.2935L29.2957 20.3398L19.2694 24.0629C18.7164 24.2472 18.0898 24.3946 17.5 24.3946C16.8734 24.3946 16.2836 24.284 15.7306 24.0629L5.70432 20.3398L0.469984 22.2935C-0.156661 22.5147 -0.156661 23.3993 0.469984 23.6574L16.6522 29.6289C17.2051 29.8132 17.7949 29.8132 18.3478 29.6289L34.53 23.6574C35.1567 23.3993 35.1567 22.5147 34.53 22.2935Z" fill="#FA114F"/>
<path d="M34.53 14.2193L29.2957 12.2656L19.2694 15.9518C18.7164 16.1729 18.0898 16.2835 17.5 16.2835C16.8734 16.2835 16.2836 16.1729 15.7306 15.9518L5.70432 12.2656L0.469984 14.2193C-0.156661 14.4405 -0.156661 15.3251 0.469984 15.5832L16.6522 21.5179C17.2051 21.739 17.7949 21.739 18.3478 21.5179L34.53 15.5463C35.1567 15.3251 35.1567 14.4405 34.53 14.2193Z" fill="#FA114F"/>
<path d="M0.469984 7.47367L16.6522 13.4452C17.2051 13.6295 17.7949 13.6295 18.3478 13.4452L34.53 7.47367C35.1567 7.2525 35.1567 6.33096 34.53 6.1098L18.3478 0.138231C17.7949 -0.0460769 17.2051 -0.0460769 16.6522 0.138231L0.469984 6.1098C-0.156661 6.33096 -0.156661 7.2525 0.469984 7.47367Z" fill="#FA114F"/>
</svg>