<svg width="232" height="115" viewBox="0 0 232 115" preserveAspectRatio="xMidYMid meet" fill="none" xmlns="http://www.w3.org/2000/svg">
<path d="M155.56 109.852C161.366 111.938 167.391 113 173.458 113C181.094 113 188.499 111.503 195.472 108.557C205.575 104.281 214.168 97.2091 220.337 88.1002C223.438 83.5179 225.829 78.5351 227.456 73.2947C229.143 67.8872 230 62.2324 230 56.4975C230 48.865 228.502 41.4622 225.55 34.4982C221.274 24.4004 214.196 15.8103 205.08 9.65413C200.508 6.56907 195.524 4.17344 190.266 2.54387C181.135 -0.297449 171.162 -0.826708 161.871 1.3008C155.431 2.76324 149.04 5.52099 142.886 9.49743C138.324 12.4362 133.832 16.0436 129.152 20.5389C125.378 24.1741 121.478 28.3908 117.227 33.4327L116.293 34.5365L117.209 35.6542C120.338 39.4792 123.373 43.3528 126.321 47.1155L126.333 47.1309L127.04 48.0467C128.382 49.7564 129.727 51.4799 131.086 53.1966L132.442 54.9062L134.745 52.0719C138.443 47.5801 141.711 43.9066 144.743 40.832C147.291 38.2449 149.772 35.9816 152.117 34.1082C155.773 31.1834 159.373 28.9792 162.816 27.5551C164.53 26.8483 166.287 26.3016 168.039 25.9395C173.887 24.7208 180.038 25.4938 185.565 27.8267C191.137 30.1771 195.876 34.0804 199.278 39.1154C200.971 41.6154 202.288 44.3488 203.191 47.2389C204.118 50.2299 204.588 53.3463 204.588 56.4975C204.588 60.6933 203.77 64.7638 202.153 68.6045C199.786 74.1861 195.88 78.9216 190.855 82.3096C188.353 83.9949 185.61 85.3111 182.714 86.2199C177.839 87.7415 172.601 88.0967 167.513 86.9476C164.976 86.3696 162.502 85.4399 159.962 84.1098C159.108 83.6572 158.25 83.1697 157.39 82.6404C154.849 81.077 152.208 79.0818 149.524 76.7175C148.524 75.8331 147.524 74.9104 146.52 73.9389C143.684 71.1916 140.704 67.9812 137.415 64.1231C134.86 61.1286 132.295 57.953 129.706 54.6799L124.461 47.9945L124.448 47.978C120.358 42.7531 116.131 37.355 111.7 32.1722C107.783 27.6004 104.193 23.7597 100.726 20.4344C97.6106 17.4468 94.6067 14.8806 91.5435 12.5894C90.9371 12.1368 90.3273 11.6946 89.707 11.2558C84.9989 7.93749 80.3641 5.42348 75.5411 3.57106C70.5961 1.66988 65.4664 0.513861 60.2948 0.144768C59.0961 0.0577183 57.8973 0.00897182 56.5486 0.00897182H56.5417C48.9029 0.00897182 41.4941 1.50275 34.5279 4.45201C24.4183 8.73139 15.8212 15.8033 9.66348 24.9088C6.56894 29.4807 4.17485 34.4634 2.54742 39.7108C0.857273 45.1183 0 50.7661 0 56.4975C0 64.1231 1.495 71.5224 4.44318 78.4899C8.72257 88.5877 15.8003 97.1778 24.9167 103.334C29.5027 106.429 34.4895 108.822 39.7273 110.448C48.8262 113.282 58.7929 113.811 68.1218 111.691C74.5548 110.228 80.9426 107.471 87.1108 103.494C91.648 100.576 96.14 96.9619 100.841 92.4527C104.615 88.814 108.515 84.5973 112.763 79.5588L113.697 78.455L112.78 77.3373C109.63 73.4862 106.577 69.5968 103.406 65.5368L97.5653 58.1062L95.2444 60.9232C91.5261 65.4254 88.2573 69.1059 85.2464 72.1665C82.7059 74.7467 80.2212 77.01 77.8689 78.8938C74.2098 81.8221 70.61 84.0228 67.1635 85.4434C65.4211 86.1677 63.7135 86.7004 61.9467 87.0626C55.9527 88.2952 49.9274 87.5013 44.4214 85.1684C38.8456 82.818 34.1062 78.9181 30.712 73.8936C29.0148 71.3796 27.6976 68.6428 26.795 65.7631C25.8715 62.7756 25.4011 59.6557 25.4011 56.501C25.4011 52.3052 26.22 48.2347 27.837 44.3941C30.1997 38.8194 34.1062 34.0839 39.1383 30.6924C41.6405 29.0001 44.3761 27.6839 47.272 26.7856C52.1542 25.2674 57.4059 24.9018 62.4729 26.0544C65.8288 26.8204 69.1394 28.2306 72.5998 30.3651C75.1508 31.9424 77.7958 33.9376 80.4651 36.2949C84.173 39.5576 88.1353 43.6768 92.582 48.8928C96.6105 53.6179 100.59 58.7016 104.981 64.3146L105.511 64.9901L105.585 65.0852C109.66 70.2926 113.873 75.6765 118.29 80.8402C122.182 85.3912 125.772 89.2284 129.26 92.578C129.985 93.2745 130.72 93.9604 131.469 94.6464C133.874 96.8226 136.157 98.7133 138.443 100.423C143.753 104.389 148.991 107.338 154.591 109.49L155.56 109.852Z" fill="#333333"/>
</svg>
