<svg width="419" height="164" viewBox="0 0 419 164" fill="none" xmlns="http://www.w3.org/2000/svg">
<path d="M136.154 67.3077C136.154 104.481 105.675 134.615 68.0769 134.615C30.4791 134.615 0 104.481 0 67.3077C0 30.1347 30.4791 0 68.0769 0C105.675 0 136.154 30.1347 136.154 67.3077Z" fill="#52A336" fill-opacity="0.29"/>
<path d="M136.154 67.3077C136.154 104.481 105.675 134.615 68.0769 134.615C30.4791 134.615 0 104.481 0 67.3077C0 30.1347 30.4791 0 68.0769 0C105.675 0 136.154 30.1347 136.154 67.3077Z" />
<path d="M54.6523 56H53.5215V52.0566H49.2207V56H48.0957V47.4688H49.2207V51.1367H53.5215V47.4688H54.6523V56ZM56.1934 52.7715C56.1934 52.1504 56.3145 51.5918 56.5566 51.0957C56.8027 50.5996 57.1426 50.2168 57.5762 49.9473C58.0137 49.6777 58.5117 49.543 59.0703 49.543C59.9336 49.543 60.6309 49.8418 61.1621 50.4395C61.6973 51.0371 61.9648 51.832 61.9648 52.8242V52.9004C61.9648 53.5176 61.8457 54.0723 61.6074 54.5645C61.373 55.0527 61.0352 55.4336 60.5938 55.707C60.1562 55.9805 59.6523 56.1172 59.082 56.1172C58.2227 56.1172 57.5254 55.8184 56.9902 55.2207C56.459 54.623 56.1934 53.832 56.1934 52.8477V52.7715ZM57.2832 52.9004C57.2832 53.6035 57.4453 54.168 57.7695 54.5938C58.0977 55.0195 58.5352 55.2324 59.082 55.2324C59.6328 55.2324 60.0703 55.0176 60.3945 54.5879C60.7188 54.1543 60.8809 53.5488 60.8809 52.7715C60.8809 52.0762 60.7148 51.5137 60.3828 51.084C60.0547 50.6504 59.6172 50.4336 59.0703 50.4336C58.5352 50.4336 58.1035 50.6465 57.7754 51.0723C57.4473 51.498 57.2832 52.1074 57.2832 52.9004ZM67.0156 54.3184C67.0156 54.0254 66.9043 53.7988 66.6816 53.6387C66.4629 53.4746 66.0781 53.334 65.5273 53.2168C64.9805 53.0996 64.5449 52.959 64.2207 52.7949C63.9004 52.6309 63.6621 52.4355 63.5059 52.209C63.3535 51.9824 63.2773 51.7129 63.2773 51.4004C63.2773 50.8809 63.4961 50.4414 63.9336 50.082C64.375 49.7227 64.9375 49.543 65.6211 49.543C66.3398 49.543 66.9219 49.7285 67.3672 50.0996C67.8164 50.4707 68.041 50.9453 68.041 51.5234H66.9512C66.9512 51.2266 66.8242 50.9707 66.5703 50.7559C66.3203 50.541 66.0039 50.4336 65.6211 50.4336C65.2266 50.4336 64.918 50.5195 64.6953 50.6914C64.4727 50.8633 64.3613 51.0879 64.3613 51.3652C64.3613 51.627 64.4648 51.8242 64.6719 51.957C64.8789 52.0898 65.252 52.2168 65.791 52.3379C66.334 52.459 66.7734 52.6035 67.1094 52.7715C67.4453 52.9395 67.6934 53.1426 67.8535 53.3809C68.0176 53.6152 68.0996 53.9023 68.0996 54.2422C68.0996 54.8086 67.873 55.2637 67.4199 55.6074C66.9668 55.9473 66.3789 56.1172 65.6562 56.1172C65.1484 56.1172 64.6992 56.0273 64.3086 55.8477C63.918 55.668 63.6113 55.418 63.3887 55.0977C63.1699 54.7734 63.0605 54.4238 63.0605 54.0488H64.1445C64.1641 54.4121 64.3086 54.7012 64.5781 54.916C64.8516 55.127 65.2109 55.2324 65.6562 55.2324C66.0664 55.2324 66.3945 55.1504 66.6406 54.9863C66.8906 54.8184 67.0156 54.5957 67.0156 54.3184ZM70.9824 48.125V49.6602H72.166V50.498H70.9824V54.4297C70.9824 54.6836 71.0352 54.875 71.1406 55.0039C71.2461 55.1289 71.4258 55.1914 71.6797 55.1914C71.8047 55.1914 71.9766 55.168 72.1953 55.1211V56C71.9102 56.0781 71.6328 56.1172 71.3633 56.1172C70.8789 56.1172 70.5137 55.9707 70.2676 55.6777C70.0215 55.3848 69.8984 54.9688 69.8984 54.4297V50.498H68.7441V49.6602H69.8984V48.125H70.9824ZM74.6152 56H73.5312V49.6602H74.6152V56ZM73.4434 47.9785C73.4434 47.8027 73.4961 47.6543 73.6016 47.5332C73.7109 47.4121 73.8711 47.3516 74.082 47.3516C74.293 47.3516 74.4531 47.4121 74.5625 47.5332C74.6719 47.6543 74.7266 47.8027 74.7266 47.9785C74.7266 48.1543 74.6719 48.3008 74.5625 48.418C74.4531 48.5352 74.293 48.5938 74.082 48.5938C73.8711 48.5938 73.7109 48.5352 73.6016 48.418C73.4961 48.3008 73.4434 48.1543 73.4434 47.9785ZM77.3809 49.6602L77.416 50.457C77.9004 49.8477 78.5332 49.543 79.3145 49.543C80.6543 49.543 81.3301 50.2988 81.3418 51.8105V56H80.2578V51.8047C80.2539 51.3477 80.1484 51.0098 79.9414 50.791C79.7383 50.5723 79.4199 50.4629 78.9863 50.4629C78.6348 50.4629 78.3262 50.5566 78.0605 50.7441C77.7949 50.9316 77.5879 51.1777 77.4395 51.4824V56H76.3555V49.6602H77.3809ZM82.7188 52.7773C82.7188 51.7891 82.9473 51.0039 83.4043 50.4219C83.8613 49.8359 84.4668 49.543 85.2207 49.543C85.9941 49.543 86.5977 49.8164 87.0312 50.3633L87.084 49.6602H88.0742V55.8477C88.0742 56.668 87.8301 57.3145 87.3418 57.7871C86.8574 58.2598 86.2051 58.4961 85.3848 58.4961C84.9277 58.4961 84.4805 58.3984 84.043 58.2031C83.6055 58.0078 83.2715 57.7402 83.041 57.4004L83.6035 56.75C84.0684 57.3242 84.6367 57.6113 85.3086 57.6113C85.8359 57.6113 86.2461 57.4629 86.5391 57.166C86.8359 56.8691 86.9844 56.4512 86.9844 55.9121V55.3672C86.5508 55.8672 85.959 56.1172 85.209 56.1172C84.4668 56.1172 83.8652 55.8184 83.4043 55.2207C82.9473 54.623 82.7188 53.8086 82.7188 52.7773ZM83.8086 52.9004C83.8086 53.6152 83.9551 54.1777 84.248 54.5879C84.541 54.9941 84.9512 55.1973 85.4785 55.1973C86.1621 55.1973 86.6641 54.8867 86.9844 54.2656V51.3711C86.6523 50.7656 86.1543 50.4629 85.4902 50.4629C84.9629 50.4629 84.5508 50.668 84.2539 51.0781C83.957 51.4883 83.8086 52.0957 83.8086 52.9004ZM17.791 63.4688L20.5801 70.4297L23.3691 63.4688H24.8281V72H23.7031V68.6777L23.8086 65.0918L21.0078 72H20.1465L17.3516 65.1094L17.4629 68.6777V72H16.3379V63.4688H17.791ZM30.5586 72C30.4961 71.875 30.4453 71.6523 30.4062 71.332C29.9023 71.8555 29.3008 72.1172 28.6016 72.1172C27.9766 72.1172 27.4629 71.9414 27.0605 71.5898C26.6621 71.2344 26.4629 70.7852 26.4629 70.2422C26.4629 69.582 26.7129 69.0703 27.2129 68.707C27.7168 68.3398 28.4238 68.1562 29.334 68.1562H30.3887V67.6582C30.3887 67.2793 30.2754 66.9785 30.0488 66.7559C29.8223 66.5293 29.4883 66.416 29.0469 66.416C28.6602 66.416 28.3359 66.5137 28.0742 66.709C27.8125 66.9043 27.6816 67.1406 27.6816 67.418H26.5918C26.5918 67.1016 26.7031 66.7969 26.9258 66.5039C27.1523 66.207 27.457 65.9727 27.8398 65.8008C28.2266 65.6289 28.6504 65.543 29.1113 65.543C29.8418 65.543 30.4141 65.7266 30.8281 66.0938C31.2422 66.457 31.457 66.959 31.4727 67.5996V70.5176C31.4727 71.0996 31.5469 71.5625 31.6953 71.9062V72H30.5586ZM28.7598 71.1738C29.0996 71.1738 29.4219 71.0859 29.7266 70.9102C30.0312 70.7344 30.252 70.5059 30.3887 70.2246V68.9238H29.5391C28.2109 68.9238 27.5469 69.3125 27.5469 70.0898C27.5469 70.4297 27.6602 70.6953 27.8867 70.8867C28.1133 71.0781 28.4043 71.1738 28.7598 71.1738ZM34.3496 72H33.2656V65.6602H34.3496V72ZM33.1777 63.9785C33.1777 63.8027 33.2305 63.6543 33.3359 63.5332C33.4453 63.4121 33.6055 63.3516 33.8164 63.3516C34.0273 63.3516 34.1875 63.4121 34.2969 63.5332C34.4062 63.6543 34.4609 63.8027 34.4609 63.9785C34.4609 64.1543 34.4062 64.3008 34.2969 64.418C34.1875 64.5352 34.0273 64.5938 33.8164 64.5938C33.6055 64.5938 33.4453 64.5352 33.3359 64.418C33.2305 64.3008 33.1777 64.1543 33.1777 63.9785ZM37.2676 72H36.1836V63H37.2676V72ZM40.1855 72H39.1016V65.6602H40.1855V72ZM39.0137 63.9785C39.0137 63.8027 39.0664 63.6543 39.1719 63.5332C39.2812 63.4121 39.4414 63.3516 39.6523 63.3516C39.8633 63.3516 40.0234 63.4121 40.1328 63.5332C40.2422 63.6543 40.2969 63.8027 40.2969 63.9785C40.2969 64.1543 40.2422 64.3008 40.1328 64.418C40.0234 64.5352 39.8633 64.5938 39.6523 64.5938C39.4414 64.5938 39.2812 64.5352 39.1719 64.418C39.0664 64.3008 39.0137 64.1543 39.0137 63.9785ZM42.9512 65.6602L42.9863 66.457C43.4707 65.8477 44.1035 65.543 44.8848 65.543C46.2246 65.543 46.9004 66.2988 46.9121 67.8105V72H45.8281V67.8047C45.8242 67.3477 45.7188 67.0098 45.5117 66.791C45.3086 66.5723 44.9902 66.4629 44.5566 66.4629C44.2051 66.4629 43.8965 66.5566 43.6309 66.7441C43.3652 66.9316 43.1582 67.1777 43.0098 67.4824V72H41.9258V65.6602H42.9512ZM48.2891 68.7773C48.2891 67.7891 48.5176 67.0039 48.9746 66.4219C49.4316 65.8359 50.0371 65.543 50.791 65.543C51.5645 65.543 52.168 65.8164 52.6016 66.3633L52.6543 65.6602H53.6445V71.8477C53.6445 72.668 53.4004 73.3145 52.9121 73.7871C52.4277 74.2598 51.7754 74.4961 50.9551 74.4961C50.498 74.4961 50.0508 74.3984 49.6133 74.2031C49.1758 74.0078 48.8418 73.7402 48.6113 73.4004L49.1738 72.75C49.6387 73.3242 50.207 73.6113 50.8789 73.6113C51.4062 73.6113 51.8164 73.4629 52.1094 73.166C52.4062 72.8691 52.5547 72.4512 52.5547 71.9121V71.3672C52.1211 71.8672 51.5293 72.1172 50.7793 72.1172C50.0371 72.1172 49.4355 71.8184 48.9746 71.2207C48.5176 70.623 48.2891 69.8086 48.2891 68.7773ZM49.3789 68.9004C49.3789 69.6152 49.5254 70.1777 49.8184 70.5879C50.1113 70.9941 50.5215 71.1973 51.0488 71.1973C51.7324 71.1973 52.2344 70.8867 52.5547 70.2656V67.3711C52.2227 66.7656 51.7246 66.4629 51.0605 66.4629C50.5332 66.4629 50.1211 66.668 49.8242 67.0781C49.5273 67.4883 49.3789 68.0957 49.3789 68.9004ZM59.4395 72H58.3555V63H59.4395V72ZM62.3574 72H61.2734V65.6602H62.3574V72ZM61.1855 63.9785C61.1855 63.8027 61.2383 63.6543 61.3438 63.5332C61.4531 63.4121 61.6133 63.3516 61.8242 63.3516C62.0352 63.3516 62.1953 63.4121 62.3047 63.5332C62.4141 63.6543 62.4688 63.8027 62.4688 63.9785C62.4688 64.1543 62.4141 64.3008 62.3047 64.418C62.1953 64.5352 62.0352 64.5938 61.8242 64.5938C61.6133 64.5938 61.4531 64.5352 61.3438 64.418C61.2383 64.3008 61.1855 64.1543 61.1855 63.9785ZM67.7891 70.3184C67.7891 70.0254 67.6777 69.7988 67.4551 69.6387C67.2363 69.4746 66.8516 69.334 66.3008 69.2168C65.7539 69.0996 65.3184 68.959 64.9941 68.7949C64.6738 68.6309 64.4355 68.4355 64.2793 68.209C64.127 67.9824 64.0508 67.7129 64.0508 67.4004C64.0508 66.8809 64.2695 66.4414 64.707 66.082C65.1484 65.7227 65.7109 65.543 66.3945 65.543C67.1133 65.543 67.6953 65.7285 68.1406 66.0996C68.5898 66.4707 68.8145 66.9453 68.8145 67.5234H67.7246C67.7246 67.2266 67.5977 66.9707 67.3438 66.7559C67.0938 66.541 66.7773 66.4336 66.3945 66.4336C66 66.4336 65.6914 66.5195 65.4688 66.6914C65.2461 66.8633 65.1348 67.0879 65.1348 67.3652C65.1348 67.627 65.2383 67.8242 65.4453 67.957C65.6523 68.0898 66.0254 68.2168 66.5645 68.3379C67.1074 68.459 67.5469 68.6035 67.8828 68.7715C68.2188 68.9395 68.4668 69.1426 68.627 69.3809C68.791 69.6152 68.873 69.9023 68.873 70.2422C68.873 70.8086 68.6465 71.2637 68.1934 71.6074C67.7402 71.9473 67.1523 72.1172 66.4297 72.1172C65.9219 72.1172 65.4727 72.0273 65.082 71.8477C64.6914 71.668 64.3848 71.418 64.1621 71.0977C63.9434 70.7734 63.834 70.4238 63.834 70.0488H64.918C64.9375 70.4121 65.082 70.7012 65.3516 70.916C65.625 71.127 65.9844 71.2324 66.4297 71.2324C66.8398 71.2324 67.168 71.1504 67.4141 70.9863C67.6641 70.8184 67.7891 70.5957 67.7891 70.3184ZM71.7559 64.125V65.6602H72.9395V66.498H71.7559V70.4297C71.7559 70.6836 71.8086 70.875 71.9141 71.0039C72.0195 71.1289 72.1992 71.1914 72.4531 71.1914C72.5781 71.1914 72.75 71.168 72.9688 71.1211V72C72.6836 72.0781 72.4062 72.1172 72.1367 72.1172C71.6523 72.1172 71.2871 71.9707 71.041 71.6777C70.7949 71.3848 70.6719 70.9688 70.6719 70.4297V66.498H69.5176V65.6602H70.6719V64.125H71.7559ZM80.8789 70.3184C80.8789 70.0254 80.7676 69.7988 80.5449 69.6387C80.3262 69.4746 79.9414 69.334 79.3906 69.2168C78.8438 69.0996 78.4082 68.959 78.084 68.7949C77.7637 68.6309 77.5254 68.4355 77.3691 68.209C77.2168 67.9824 77.1406 67.7129 77.1406 67.4004C77.1406 66.8809 77.3594 66.4414 77.7969 66.082C78.2383 65.7227 78.8008 65.543 79.4844 65.543C80.2031 65.543 80.7852 65.7285 81.2305 66.0996C81.6797 66.4707 81.9043 66.9453 81.9043 67.5234H80.8145C80.8145 67.2266 80.6875 66.9707 80.4336 66.7559C80.1836 66.541 79.8672 66.4336 79.4844 66.4336C79.0898 66.4336 78.7812 66.5195 78.5586 66.6914C78.3359 66.8633 78.2246 67.0879 78.2246 67.3652C78.2246 67.627 78.3281 67.8242 78.5352 67.957C78.7422 68.0898 79.1152 68.2168 79.6543 68.3379C80.1973 68.459 80.6367 68.6035 80.9727 68.7715C81.3086 68.9395 81.5566 69.1426 81.7168 69.3809C81.8809 69.6152 81.9629 69.9023 81.9629 70.2422C81.9629 70.8086 81.7363 71.2637 81.2832 71.6074C80.8301 71.9473 80.2422 72.1172 79.5195 72.1172C79.0117 72.1172 78.5625 72.0273 78.1719 71.8477C77.7812 71.668 77.4746 71.418 77.252 71.0977C77.0332 70.7734 76.9238 70.4238 76.9238 70.0488H78.0078C78.0273 70.4121 78.1719 70.7012 78.4414 70.916C78.7148 71.127 79.0742 71.2324 79.5195 71.2324C79.9297 71.2324 80.2578 71.1504 80.5039 70.9863C80.7539 70.8184 80.8789 70.5957 80.8789 70.3184ZM86.0059 72.1172C85.1465 72.1172 84.4473 71.8359 83.9082 71.2734C83.3691 70.707 83.0996 69.9512 83.0996 69.0059V68.8066C83.0996 68.1777 83.2188 67.6172 83.457 67.125C83.6992 66.6289 84.0352 66.2422 84.4648 65.9648C84.8984 65.6836 85.3672 65.543 85.8711 65.543C86.6953 65.543 87.3359 65.8145 87.793 66.3574C88.25 66.9004 88.4785 67.6777 88.4785 68.6895V69.1406H84.1836C84.1992 69.7656 84.3809 70.2715 84.7285 70.6582C85.0801 71.041 85.5254 71.2324 86.0645 71.2324C86.4473 71.2324 86.7715 71.1543 87.0371 70.998C87.3027 70.8418 87.5352 70.6348 87.7344 70.377L88.3965 70.8926C87.8652 71.709 87.0684 72.1172 86.0059 72.1172ZM85.8711 66.4336C85.4336 66.4336 85.0664 66.5938 84.7695 66.9141C84.4727 67.2305 84.2891 67.6758 84.2188 68.25H87.3945V68.168C87.3633 67.6172 87.2148 67.1914 86.9492 66.8906C86.6836 66.5859 86.3242 66.4336 85.8711 66.4336ZM92.8027 66.6328C92.6387 66.6055 92.4609 66.5918 92.2695 66.5918C91.5586 66.5918 91.0762 66.8945 90.8223 67.5V72H89.7383V65.6602H90.793L90.8105 66.3926C91.166 65.8262 91.6699 65.543 92.3223 65.543C92.5332 65.543 92.6934 65.5703 92.8027 65.625V66.6328ZM96.002 70.5293L97.5723 65.6602H98.6797L96.4062 72H95.5801L93.2832 65.6602H94.3906L96.002 70.5293ZM100.9 72H99.8164V65.6602H100.9V72ZM99.7285 63.9785C99.7285 63.8027 99.7812 63.6543 99.8867 63.5332C99.9961 63.4121 100.156 63.3516 100.367 63.3516C100.578 63.3516 100.738 63.4121 100.848 63.5332C100.957 63.6543 101.012 63.8027 101.012 63.9785C101.012 64.1543 100.957 64.3008 100.848 64.418C100.738 64.5352 100.578 64.5938 100.367 64.5938C100.156 64.5938 99.9961 64.5352 99.8867 64.418C99.7812 64.3008 99.7285 64.1543 99.7285 63.9785ZM105.184 71.2324C105.57 71.2324 105.908 71.1152 106.197 70.8809C106.486 70.6465 106.646 70.3535 106.678 70.002H107.703C107.684 70.3652 107.559 70.7109 107.328 71.0391C107.098 71.3672 106.789 71.6289 106.402 71.8242C106.02 72.0195 105.613 72.1172 105.184 72.1172C104.32 72.1172 103.633 71.8301 103.121 71.2559C102.613 70.6777 102.359 69.8887 102.359 68.8887V68.707C102.359 68.0898 102.473 67.541 102.699 67.0605C102.926 66.5801 103.25 66.207 103.672 65.9414C104.098 65.6758 104.6 65.543 105.178 65.543C105.889 65.543 106.479 65.7559 106.947 66.1816C107.42 66.6074 107.672 67.1602 107.703 67.8398H106.678C106.646 67.4297 106.49 67.0938 106.209 66.832C105.932 66.5664 105.588 66.4336 105.178 66.4336C104.627 66.4336 104.199 66.6328 103.895 67.0312C103.594 67.4258 103.443 67.998 103.443 68.748V68.9531C103.443 69.6836 103.594 70.2461 103.895 70.6406C104.195 71.0352 104.625 71.2324 105.184 71.2324ZM111.553 72.1172C110.693 72.1172 109.994 71.8359 109.455 71.2734C108.916 70.707 108.646 69.9512 108.646 69.0059V68.8066C108.646 68.1777 108.766 67.6172 109.004 67.125C109.246 66.6289 109.582 66.2422 110.012 65.9648C110.445 65.6836 110.914 65.543 111.418 65.543C112.242 65.543 112.883 65.8145 113.34 66.3574C113.797 66.9004 114.025 67.6777 114.025 68.6895V69.1406H109.73C109.746 69.7656 109.928 70.2715 110.275 70.6582C110.627 71.041 111.072 71.2324 111.611 71.2324C111.994 71.2324 112.318 71.1543 112.584 70.998C112.85 70.8418 113.082 70.6348 113.281 70.377L113.943 70.8926C113.412 71.709 112.615 72.1172 111.553 72.1172ZM111.418 66.4336C110.98 66.4336 110.613 66.5938 110.316 66.9141C110.02 67.2305 109.836 67.6758 109.766 68.25H112.941V68.168C112.91 67.6172 112.762 67.1914 112.496 66.8906C112.23 66.5859 111.871 66.4336 111.418 66.4336ZM118.977 70.3184C118.977 70.0254 118.865 69.7988 118.643 69.6387C118.424 69.4746 118.039 69.334 117.488 69.2168C116.941 69.0996 116.506 68.959 116.182 68.7949C115.861 68.6309 115.623 68.4355 115.467 68.209C115.314 67.9824 115.238 67.7129 115.238 67.4004C115.238 66.8809 115.457 66.4414 115.895 66.082C116.336 65.7227 116.898 65.543 117.582 65.543C118.301 65.543 118.883 65.7285 119.328 66.0996C119.777 66.4707 120.002 66.9453 120.002 67.5234H118.912C118.912 67.2266 118.785 66.9707 118.531 66.7559C118.281 66.541 117.965 66.4336 117.582 66.4336C117.188 66.4336 116.879 66.5195 116.656 66.6914C116.434 66.8633 116.322 67.0879 116.322 67.3652C116.322 67.627 116.426 67.8242 116.633 67.957C116.84 68.0898 117.213 68.2168 117.752 68.3379C118.295 68.459 118.734 68.6035 119.07 68.7715C119.406 68.9395 119.654 69.1426 119.814 69.3809C119.979 69.6152 120.061 69.9023 120.061 70.2422C120.061 70.8086 119.834 71.2637 119.381 71.6074C118.928 71.9473 118.34 72.1172 117.617 72.1172C117.109 72.1172 116.66 72.0273 116.27 71.8477C115.879 71.668 115.572 71.418 115.35 71.0977C115.131 70.7734 115.021 70.4238 115.021 70.0488H116.105C116.125 70.4121 116.27 70.7012 116.539 70.916C116.812 71.127 117.172 71.2324 117.617 71.2324C118.027 71.2324 118.355 71.1504 118.602 70.9863C118.852 70.8184 118.977 70.5957 118.977 70.3184ZM28.0684 87.0801H32.9492V88H26.7383V87.1562L31.4141 80.3945H26.8145V79.4688H32.7617V80.2949L28.0684 87.0801ZM33.8223 84.7715C33.8223 84.1504 33.9434 83.5918 34.1855 83.0957C34.4316 82.5996 34.7715 82.2168 35.2051 81.9473C35.6426 81.6777 36.1406 81.543 36.6992 81.543C37.5625 81.543 38.2598 81.8418 38.791 82.4395C39.3262 83.0371 39.5938 83.832 39.5938 84.8242V84.9004C39.5938 85.5176 39.4746 86.0723 39.2363 86.5645C39.002 87.0527 38.6641 87.4336 38.2227 87.707C37.7852 87.9805 37.2812 88.1172 36.7109 88.1172C35.8516 88.1172 35.1543 87.8184 34.6191 87.2207C34.0879 86.623 33.8223 85.832 33.8223 84.8477V84.7715ZM34.9121 84.9004C34.9121 85.6035 35.0742 86.168 35.3984 86.5938C35.7266 87.0195 36.1641 87.2324 36.7109 87.2324C37.2617 87.2324 37.6992 87.0176 38.0234 86.5879C38.3477 86.1543 38.5098 85.5488 38.5098 84.7715C38.5098 84.0762 38.3438 83.5137 38.0117 83.084C37.6836 82.6504 37.2461 82.4336 36.6992 82.4336C36.1641 82.4336 35.7324 82.6465 35.4043 83.0723C35.0762 83.498 34.9121 84.1074 34.9121 84.9004ZM40.666 84.7715C40.666 84.1504 40.7871 83.5918 41.0293 83.0957C41.2754 82.5996 41.6152 82.2168 42.0488 81.9473C42.4863 81.6777 42.9844 81.543 43.543 81.543C44.4062 81.543 45.1035 81.8418 45.6348 82.4395C46.1699 83.0371 46.4375 83.832 46.4375 84.8242V84.9004C46.4375 85.5176 46.3184 86.0723 46.0801 86.5645C45.8457 87.0527 45.5078 87.4336 45.0664 87.707C44.6289 87.9805 44.125 88.1172 43.5547 88.1172C42.6953 88.1172 41.998 87.8184 41.4629 87.2207C40.9316 86.623 40.666 85.832 40.666 84.8477V84.7715ZM41.7559 84.9004C41.7559 85.6035 41.918 86.168 42.2422 86.5938C42.5703 87.0195 43.0078 87.2324 43.5547 87.2324C44.1055 87.2324 44.543 87.0176 44.8672 86.5879C45.1914 86.1543 45.3535 85.5488 45.3535 84.7715C45.3535 84.0762 45.1875 83.5137 44.8555 83.084C44.5273 82.6504 44.0898 82.4336 43.543 82.4336C43.0078 82.4336 42.5762 82.6465 42.248 83.0723C41.9199 83.498 41.7559 84.1074 41.7559 84.9004ZM48.8164 81.6602L48.8457 82.3633C49.3105 81.8164 49.9375 81.543 50.7266 81.543C51.6133 81.543 52.2168 81.8828 52.5371 82.5625C52.748 82.2578 53.0215 82.0117 53.3574 81.8242C53.6973 81.6367 54.0977 81.543 54.5586 81.543C55.9492 81.543 56.6562 82.2793 56.6797 83.752V88H55.5957V83.8164C55.5957 83.3633 55.4922 83.0254 55.2852 82.8027C55.0781 82.5762 54.7305 82.4629 54.2422 82.4629C53.8398 82.4629 53.5059 82.584 53.2402 82.8262C52.9746 83.0645 52.8203 83.3867 52.7773 83.793V88H51.6875V83.8457C51.6875 82.9238 51.2363 82.4629 50.334 82.4629C49.623 82.4629 49.1367 82.7656 48.875 83.3711V88H47.791V81.6602H48.8164ZM65.2109 88C65.1484 87.875 65.0977 87.6523 65.0586 87.332C64.5547 87.8555 63.9531 88.1172 63.2539 88.1172C62.6289 88.1172 62.1152 87.9414 61.7129 87.5898C61.3145 87.2344 61.1152 86.7852 61.1152 86.2422C61.1152 85.582 61.3652 85.0703 61.8652 84.707C62.3691 84.3398 63.0762 84.1562 63.9863 84.1562H65.041V83.6582C65.041 83.2793 64.9277 82.9785 64.7012 82.7559C64.4746 82.5293 64.1406 82.416 63.6992 82.416C63.3125 82.416 62.9883 82.5137 62.7266 82.709C62.4648 82.9043 62.334 83.1406 62.334 83.418H61.2441C61.2441 83.1016 61.3555 82.7969 61.5781 82.5039C61.8047 82.207 62.1094 81.9727 62.4922 81.8008C62.8789 81.6289 63.3027 81.543 63.7637 81.543C64.4941 81.543 65.0664 81.7266 65.4805 82.0938C65.8945 82.457 66.1094 82.959 66.125 83.5996V86.5176C66.125 87.0996 66.1992 87.5625 66.3477 87.9062V88H65.2109ZM63.4121 87.1738C63.752 87.1738 64.0742 87.0859 64.3789 86.9102C64.6836 86.7344 64.9043 86.5059 65.041 86.2246V84.9238H64.1914C62.8633 84.9238 62.1992 85.3125 62.1992 86.0898C62.1992 86.4297 62.3125 86.6953 62.5391 86.8867C62.7656 87.0781 63.0566 87.1738 63.4121 87.1738ZM70.3672 87.2324C70.7539 87.2324 71.0918 87.1152 71.3809 86.8809C71.6699 86.6465 71.8301 86.3535 71.8613 86.002H72.8867C72.8672 86.3652 72.7422 86.7109 72.5117 87.0391C72.2812 87.3672 71.9727 87.6289 71.5859 87.8242C71.2031 88.0195 70.7969 88.1172 70.3672 88.1172C69.5039 88.1172 68.8164 87.8301 68.3047 87.2559C67.7969 86.6777 67.543 85.8887 67.543 84.8887V84.707C67.543 84.0898 67.6562 83.541 67.8828 83.0605C68.1094 82.5801 68.4336 82.207 68.8555 81.9414C69.2812 81.6758 69.7832 81.543 70.3613 81.543C71.0723 81.543 71.6621 81.7559 72.1309 82.1816C72.6035 82.6074 72.8555 83.1602 72.8867 83.8398H71.8613C71.8301 83.4297 71.6738 83.0938 71.3926 82.832C71.1152 82.5664 70.7715 82.4336 70.3613 82.4336C69.8105 82.4336 69.3828 82.6328 69.0781 83.0312C68.7773 83.4258 68.627 83.998 68.627 84.748V84.9531C68.627 85.6836 68.7773 86.2461 69.0781 86.6406C69.3789 87.0352 69.8086 87.2324 70.3672 87.2324ZM76.6484 87.2324C77.0352 87.2324 77.373 87.1152 77.6621 86.8809C77.9512 86.6465 78.1113 86.3535 78.1426 86.002H79.168C79.1484 86.3652 79.0234 86.7109 78.793 87.0391C78.5625 87.3672 78.2539 87.6289 77.8672 87.8242C77.4844 88.0195 77.0781 88.1172 76.6484 88.1172C75.7852 88.1172 75.0977 87.8301 74.5859 87.2559C74.0781 86.6777 73.8242 85.8887 73.8242 84.8887V84.707C73.8242 84.0898 73.9375 83.541 74.1641 83.0605C74.3906 82.5801 74.7148 82.207 75.1367 81.9414C75.5625 81.6758 76.0645 81.543 76.6426 81.543C77.3535 81.543 77.9434 81.7559 78.4121 82.1816C78.8848 82.6074 79.1367 83.1602 79.168 83.8398H78.1426C78.1113 83.4297 77.9551 83.0938 77.6738 82.832C77.3965 82.5664 77.0527 82.4336 76.6426 82.4336C76.0918 82.4336 75.6641 82.6328 75.3594 83.0312C75.0586 83.4258 74.9082 83.998 74.9082 84.748V84.9531C74.9082 85.6836 75.0586 86.2461 75.3594 86.6406C75.6602 87.0352 76.0898 87.2324 76.6484 87.2324ZM80.0996 84.7715C80.0996 84.1504 80.2207 83.5918 80.4629 83.0957C80.709 82.5996 81.0488 82.2168 81.4824 81.9473C81.9199 81.6777 82.418 81.543 82.9766 81.543C83.8398 81.543 84.5371 81.8418 85.0684 82.4395C85.6035 83.0371 85.8711 83.832 85.8711 84.8242V84.9004C85.8711 85.5176 85.752 86.0723 85.5137 86.5645C85.2793 87.0527 84.9414 87.4336 84.5 87.707C84.0625 87.9805 83.5586 88.1172 82.9883 88.1172C82.1289 88.1172 81.4316 87.8184 80.8965 87.2207C80.3652 86.623 80.0996 85.832 80.0996 84.8477V84.7715ZM81.1895 84.9004C81.1895 85.6035 81.3516 86.168 81.6758 86.5938C82.0039 87.0195 82.4414 87.2324 82.9883 87.2324C83.5391 87.2324 83.9766 87.0176 84.3008 86.5879C84.625 86.1543 84.7871 85.5488 84.7871 84.7715C84.7871 84.0762 84.6211 83.5137 84.2891 83.084C83.9609 82.6504 83.5234 82.4336 82.9766 82.4336C82.4414 82.4336 82.0098 82.6465 81.6816 83.0723C81.3535 83.498 81.1895 84.1074 81.1895 84.9004ZM91.1445 87.373C90.7227 87.8691 90.1035 88.1172 89.2871 88.1172C88.6113 88.1172 88.0957 87.9219 87.7402 87.5312C87.3887 87.1367 87.2109 86.5547 87.207 85.7852V81.6602H88.291V85.7559C88.291 86.7168 88.6816 87.1973 89.4629 87.1973C90.291 87.1973 90.8418 86.8887 91.1152 86.2715V81.6602H92.1992V88H91.168L91.1445 87.373ZM94.877 81.6602L94.9121 82.457C95.3965 81.8477 96.0293 81.543 96.8105 81.543C98.1504 81.543 98.8262 82.2988 98.8379 83.8105V88H97.7539V83.8047C97.75 83.3477 97.6445 83.0098 97.4375 82.791C97.2344 82.5723 96.916 82.4629 96.4824 82.4629C96.1309 82.4629 95.8223 82.5566 95.5566 82.7441C95.291 82.9316 95.084 83.1777 94.9355 83.4824V88H93.8516V81.6602H94.877ZM101.943 80.125V81.6602H103.127V82.498H101.943V86.4297C101.943 86.6836 101.996 86.875 102.102 87.0039C102.207 87.1289 102.387 87.1914 102.641 87.1914C102.766 87.1914 102.938 87.168 103.156 87.1211V88C102.871 88.0781 102.594 88.1172 102.324 88.1172C101.84 88.1172 101.475 87.9707 101.229 87.6777C100.982 87.3848 100.859 86.9688 100.859 86.4297V82.498H99.7051V81.6602H100.859V80.125H101.943ZM108.09 86.3184C108.09 86.0254 107.979 85.7988 107.756 85.6387C107.537 85.4746 107.152 85.334 106.602 85.2168C106.055 85.0996 105.619 84.959 105.295 84.7949C104.975 84.6309 104.736 84.4355 104.58 84.209C104.428 83.9824 104.352 83.7129 104.352 83.4004C104.352 82.8809 104.57 82.4414 105.008 82.082C105.449 81.7227 106.012 81.543 106.695 81.543C107.414 81.543 107.996 81.7285 108.441 82.0996C108.891 82.4707 109.115 82.9453 109.115 83.5234H108.025C108.025 83.2266 107.898 82.9707 107.645 82.7559C107.395 82.541 107.078 82.4336 106.695 82.4336C106.301 82.4336 105.992 82.5195 105.77 82.6914C105.547 82.8633 105.436 83.0879 105.436 83.3652C105.436 83.627 105.539 83.8242 105.746 83.957C105.953 84.0898 106.326 84.2168 106.865 84.3379C107.408 84.459 107.848 84.6035 108.184 84.7715C108.52 84.9395 108.768 85.1426 108.928 85.3809C109.092 85.6152 109.174 85.9023 109.174 86.2422C109.174 86.8086 108.947 87.2637 108.494 87.6074C108.041 87.9473 107.453 88.1172 106.73 88.1172C106.223 88.1172 105.773 88.0273 105.383 87.8477C104.992 87.668 104.686 87.418 104.463 87.0977C104.244 86.7734 104.135 86.4238 104.135 86.0488H105.219C105.238 86.4121 105.383 86.7012 105.652 86.916C105.926 87.127 106.285 87.2324 106.73 87.2324C107.141 87.2324 107.469 87.1504 107.715 86.9863C107.965 86.8184 108.09 86.5957 108.09 86.3184Z" fill="#030D2D"/>
<path d="M41.7697 149.392L44.5587 156.353L47.3478 149.392H48.8068V157.923H47.6818V154.601L47.7872 151.015L44.9865 157.923H44.1251L41.3302 151.032L41.4415 154.601V157.923H40.3165V149.392H41.7697ZM57.3556 153.933C57.3556 154.769 57.215 155.499 56.9337 156.124C56.6525 156.745 56.254 157.22 55.7384 157.548C55.2228 157.876 54.6212 158.04 53.9337 158.04C53.2618 158.04 52.6661 157.876 52.1466 157.548C51.6271 157.216 51.2228 156.745 50.9337 156.136C50.6486 155.523 50.5021 154.814 50.4943 154.009V153.394C50.4943 152.573 50.6368 151.849 50.922 151.22C51.2072 150.591 51.6095 150.111 52.129 149.779C52.6525 149.443 53.2501 149.275 53.922 149.275C54.6056 149.275 55.2072 149.441 55.7267 149.773C56.2501 150.101 56.6525 150.579 56.9337 151.208C57.215 151.833 57.3556 152.562 57.3556 153.394V153.933ZM56.2365 153.382C56.2365 152.37 56.0333 151.595 55.6271 151.056C55.2208 150.513 54.6525 150.241 53.922 150.241C53.2111 150.241 52.6505 150.513 52.2404 151.056C51.8341 151.595 51.6251 152.345 51.6134 153.306V153.933C51.6134 154.913 51.8185 155.685 52.2286 156.247C52.6427 156.806 53.2111 157.085 53.9337 157.085C54.6603 157.085 55.2228 156.822 55.6212 156.294C56.0197 155.763 56.2247 155.003 56.2365 154.015V153.382ZM65.5997 157.923H64.4689L60.174 151.349V157.923H59.0431V149.392H60.174L64.4806 155.995V149.392H65.5997V157.923ZM73.3165 150.318H70.5743V157.923H69.4552V150.318H66.7189V149.392H73.3165V150.318ZM81.1388 157.923H80.0079V153.98H75.7072V157.923H74.5822V149.392H75.7072V153.06H80.0079V149.392H81.1388V157.923ZM84.2677 157.003H88.3107V157.923H83.1368V149.392H84.2677V157.003ZM90.7892 153.675L93.0157 149.392H94.2931L91.3517 154.741V157.923H90.2267V154.741L87.2853 149.392H88.5743L90.7892 153.675Z" fill="#030D2D"/>
<path d="M287.185 80.6923C287.185 109.793 263.225 133.385 233.669 133.385C204.114 133.385 180.154 109.793 180.154 80.6923C180.154 51.5911 204.114 28 233.669 28C263.225 28 287.185 51.5911 287.185 80.6923Z" fill="#52A336" fill-opacity="0.29"/>
<path d="M287.185 80.6923C287.185 109.793 263.225 133.385 233.669 133.385C204.114 133.385 180.154 109.793 180.154 80.6923C180.154 51.5911 204.114 28 233.669 28C263.225 28 287.185 51.5911 287.185 80.6923Z"/>
<path d="M193.439 86.6923V78.1611H195.847C196.589 78.1611 197.246 78.3251 197.816 78.6533C198.386 78.9814 198.826 79.4482 199.134 80.0536C199.447 80.6591 199.605 81.3544 199.609 82.1396V82.6845C199.609 83.4892 199.453 84.1943 199.14 84.7997C198.832 85.4052 198.388 85.8701 197.81 86.1943C197.236 86.5185 196.566 86.6845 195.8 86.6923H193.439ZM194.564 79.0869V85.7724H195.748C196.615 85.7724 197.289 85.5029 197.769 84.9638C198.253 84.4247 198.496 83.6572 198.496 82.6611V82.163C198.496 81.1943 198.267 80.4423 197.81 79.9072C197.357 79.3681 196.712 79.0947 195.876 79.0869H194.564ZM200.857 83.4638C200.857 82.8427 200.978 82.2841 201.22 81.788C201.466 81.2919 201.806 80.9091 202.24 80.6396C202.677 80.3701 203.175 80.2353 203.734 80.2353C204.597 80.2353 205.294 80.5341 205.826 81.1318C206.361 81.7294 206.628 82.5244 206.628 83.5165V83.5927C206.628 84.2099 206.509 84.7646 206.271 85.2568C206.037 85.7451 205.699 86.1259 205.257 86.3994C204.82 86.6728 204.316 86.8095 203.746 86.8095C202.886 86.8095 202.189 86.5107 201.654 85.913C201.123 85.3154 200.857 84.5244 200.857 83.54V83.4638ZM201.947 83.5927C201.947 84.2958 202.109 84.8603 202.433 85.2861C202.761 85.7119 203.199 85.9247 203.746 85.9247C204.296 85.9247 204.734 85.7099 205.058 85.2802C205.382 84.8466 205.544 84.2411 205.544 83.4638C205.544 82.7685 205.378 82.206 205.046 81.7763C204.718 81.3427 204.281 81.1259 203.734 81.1259C203.199 81.1259 202.767 81.3388 202.439 81.7646C202.111 82.1904 201.947 82.7997 201.947 83.5927ZM209.007 80.3525L209.037 81.0556C209.501 80.5087 210.128 80.2353 210.917 80.2353C211.804 80.2353 212.408 80.5751 212.728 81.2548C212.939 80.9501 213.212 80.704 213.548 80.5165C213.888 80.329 214.289 80.2353 214.75 80.2353C216.14 80.2353 216.847 80.9716 216.871 82.4443V86.6923H215.787V82.5087C215.787 82.0556 215.683 81.7177 215.476 81.4951C215.269 81.2685 214.921 81.1552 214.433 81.1552C214.031 81.1552 213.697 81.2763 213.431 81.5185C213.166 81.7568 213.011 82.079 212.968 82.4853V86.6923H211.878V82.538C211.878 81.6161 211.427 81.1552 210.525 81.1552C209.814 81.1552 209.328 81.4579 209.066 82.0634V86.6923H207.982V80.3525H209.007ZM222.425 86.6923C222.363 86.5673 222.312 86.3447 222.273 86.0244C221.769 86.5478 221.167 86.8095 220.468 86.8095C219.843 86.8095 219.33 86.6337 218.927 86.2822C218.529 85.9267 218.33 85.4775 218.33 84.9345C218.33 84.2744 218.58 83.7626 219.08 83.3994C219.583 83.0322 220.291 82.8486 221.201 82.8486H222.255V82.3505C222.255 81.9716 222.142 81.6708 221.916 81.4482C221.689 81.2216 221.355 81.1083 220.914 81.1083C220.527 81.1083 220.203 81.206 219.941 81.4013C219.679 81.5966 219.548 81.8329 219.548 82.1103H218.458C218.458 81.7939 218.57 81.4892 218.792 81.1962C219.019 80.8994 219.324 80.665 219.707 80.4931C220.093 80.3212 220.517 80.2353 220.978 80.2353C221.708 80.2353 222.281 80.4189 222.695 80.7861C223.109 81.1494 223.324 81.6513 223.339 82.2919V85.2099C223.339 85.7919 223.414 86.2548 223.562 86.5986V86.6923H222.425ZM220.626 85.8661C220.966 85.8661 221.289 85.7783 221.593 85.6025C221.898 85.4267 222.119 85.1982 222.255 84.9169V83.6161H221.406C220.078 83.6161 219.414 84.0048 219.414 84.7822C219.414 85.122 219.527 85.3876 219.753 85.579C219.98 85.7704 220.271 85.8661 220.626 85.8661ZM226.216 86.6923H225.132V80.3525H226.216V86.6923ZM225.044 78.6708C225.044 78.4951 225.097 78.3466 225.203 78.2255C225.312 78.1044 225.472 78.0439 225.683 78.0439C225.894 78.0439 226.054 78.1044 226.164 78.2255C226.273 78.3466 226.328 78.4951 226.328 78.6708C226.328 78.8466 226.273 78.9931 226.164 79.1103C226.054 79.2275 225.894 79.2861 225.683 79.2861C225.472 79.2861 225.312 79.2275 225.203 79.1103C225.097 78.9931 225.044 78.8466 225.044 78.6708ZM228.982 80.3525L229.017 81.1494C229.501 80.54 230.134 80.2353 230.916 80.2353C232.255 80.2353 232.931 80.9911 232.943 82.5029V86.6923H231.859V82.497C231.855 82.04 231.75 81.7021 231.542 81.4833C231.339 81.2646 231.021 81.1552 230.587 81.1552C230.236 81.1552 229.927 81.249 229.662 81.4365C229.396 81.624 229.189 81.8701 229.041 82.1747V86.6923H227.957V80.3525H228.982ZM244.281 86.6923H243.15L238.855 80.1181V86.6923H237.724V78.1611H238.855L243.162 84.7646V78.1611H244.281V86.6923ZM250.023 86.6923C249.96 86.5673 249.91 86.3447 249.871 86.0244C249.367 86.5478 248.765 86.8095 248.066 86.8095C247.441 86.8095 246.927 86.6337 246.525 86.2822C246.126 85.9267 245.927 85.4775 245.927 84.9345C245.927 84.2744 246.177 83.7626 246.677 83.3994C247.181 83.0322 247.888 82.8486 248.798 82.8486H249.853V82.3505C249.853 81.9716 249.74 81.6708 249.513 81.4482C249.287 81.2216 248.953 81.1083 248.511 81.1083C248.125 81.1083 247.8 81.206 247.539 81.4013C247.277 81.5966 247.146 81.8329 247.146 82.1103H246.056C246.056 81.7939 246.167 81.4892 246.39 81.1962C246.617 80.8994 246.921 80.665 247.304 80.4931C247.691 80.3212 248.115 80.2353 248.576 80.2353C249.306 80.2353 249.878 80.4189 250.292 80.7861C250.707 81.1494 250.921 81.6513 250.937 82.2919V85.2099C250.937 85.7919 251.011 86.2548 251.16 86.5986V86.6923H250.023ZM248.224 85.8661C248.564 85.8661 248.886 85.7783 249.191 85.6025C249.496 85.4267 249.716 85.1982 249.853 84.9169V83.6161H249.003C247.675 83.6161 247.011 84.0048 247.011 84.7822C247.011 85.122 247.125 85.3876 247.351 85.579C247.578 85.7704 247.869 85.8661 248.224 85.8661ZM253.656 80.3525L253.685 81.0556C254.15 80.5087 254.777 80.2353 255.566 80.2353C256.453 80.2353 257.056 80.5751 257.376 81.2548C257.587 80.9501 257.861 80.704 258.197 80.5165C258.537 80.329 258.937 80.2353 259.398 80.2353C260.789 80.2353 261.496 80.9716 261.519 82.4443V86.6923H260.435V82.5087C260.435 82.0556 260.332 81.7177 260.125 81.4951C259.917 81.2685 259.57 81.1552 259.082 81.1552C258.679 81.1552 258.345 81.2763 258.08 81.5185C257.814 81.7568 257.66 82.079 257.617 82.4853V86.6923H256.527V82.538C256.527 81.6161 256.076 81.1552 255.173 81.1552C254.462 81.1552 253.976 81.4579 253.714 82.0634V86.6923H252.63V80.3525H253.656ZM265.791 86.8095C264.931 86.8095 264.232 86.5283 263.693 85.9658C263.154 85.3994 262.884 84.6435 262.884 83.6982V83.499C262.884 82.8701 263.003 82.3095 263.242 81.8173C263.484 81.3212 263.82 80.9345 264.25 80.6572C264.683 80.3759 265.152 80.2353 265.656 80.2353C266.48 80.2353 267.121 80.5068 267.578 81.0497C268.035 81.5927 268.263 82.3701 268.263 83.3818V83.8329H263.968C263.984 84.4579 264.166 84.9638 264.513 85.3505C264.865 85.7333 265.31 85.9247 265.849 85.9247C266.232 85.9247 266.556 85.8466 266.822 85.6904C267.087 85.5341 267.32 85.3271 267.519 85.0693L268.181 85.5849C267.65 86.4013 266.853 86.8095 265.791 86.8095ZM265.656 81.1259C265.218 81.1259 264.851 81.2861 264.554 81.6064C264.257 81.9228 264.074 82.3681 264.003 82.9423H267.179V82.8603C267.148 82.3095 267 81.8837 266.734 81.5829C266.468 81.2783 266.109 81.1259 265.656 81.1259ZM273.214 85.0107C273.214 84.7177 273.103 84.4911 272.88 84.331C272.662 84.1669 272.277 84.0263 271.726 83.9091C271.179 83.7919 270.744 83.6513 270.419 83.4872C270.099 83.3232 269.861 83.1279 269.705 82.9013C269.552 82.6747 269.476 82.4052 269.476 82.0927C269.476 81.5732 269.695 81.1337 270.132 80.7744C270.574 80.415 271.136 80.2353 271.82 80.2353C272.539 80.2353 273.121 80.4208 273.566 80.7919C274.015 81.163 274.24 81.6376 274.24 82.2158H273.15C273.15 81.9189 273.023 81.663 272.769 81.4482C272.519 81.2333 272.203 81.1259 271.82 81.1259C271.425 81.1259 271.117 81.2119 270.894 81.3837C270.671 81.5556 270.56 81.7802 270.56 82.0576C270.56 82.3193 270.664 82.5165 270.871 82.6494C271.078 82.7822 271.451 82.9091 271.99 83.0302C272.533 83.1513 272.972 83.2958 273.308 83.4638C273.644 83.6318 273.892 83.8349 274.052 84.0732C274.216 84.3076 274.298 84.5947 274.298 84.9345C274.298 85.5009 274.072 85.956 273.619 86.2997C273.166 86.6396 272.578 86.8095 271.855 86.8095C271.347 86.8095 270.898 86.7197 270.507 86.54C270.117 86.3603 269.81 86.1103 269.587 85.79C269.369 85.4658 269.259 85.1161 269.259 84.7411H270.343C270.363 85.1044 270.507 85.3935 270.777 85.6083C271.05 85.8193 271.41 85.9247 271.855 85.9247C272.265 85.9247 272.593 85.8427 272.839 85.6786C273.089 85.5107 273.214 85.288 273.214 85.0107Z" fill="#030D2D"/>
<path d="M216.074 156.004H212.5L211.697 158.231H210.537L213.794 149.7H214.779L218.042 158.231H216.888L216.074 156.004ZM212.839 155.078H215.74L214.287 151.088L212.839 155.078ZM225.748 158.231H224.617L220.322 151.657V158.231H219.191V149.7H220.322L224.628 156.303V149.7H225.748V158.231ZM234.302 158.231H233.171L228.876 151.657V158.231H227.746V149.7H228.876L233.183 156.303V149.7H234.302V158.231ZM242.306 149.7V155.5C242.302 156.305 242.048 156.963 241.544 157.475C241.044 157.987 240.365 158.274 239.505 158.336L239.207 158.348C238.273 158.348 237.529 158.096 236.974 157.592C236.419 157.088 236.138 156.395 236.13 155.512V149.7H237.244V155.477C237.244 156.094 237.414 156.575 237.753 156.918C238.093 157.258 238.578 157.428 239.207 157.428C239.843 157.428 240.33 157.258 240.666 156.918C241.005 156.578 241.175 156.1 241.175 155.483V149.7H242.306ZM248.664 156.004H245.089L244.287 158.231H243.126L246.384 149.7H247.369L250.632 158.231H249.478L248.664 156.004ZM245.429 155.078H248.33L246.876 151.088L245.429 155.078ZM252.912 157.311H256.955V158.231H251.781V149.7H252.912V157.311Z" fill="#030D2D"/>
<path d="M407.964 103.923C407.964 121.554 393.327 135.846 375.272 135.846C357.216 135.846 342.579 121.554 342.579 103.923C342.579 86.2924 357.216 72 375.272 72C393.327 72 407.964 86.2924 407.964 103.923Z" fill="#52A336" fill-opacity="0.29"/>
<path d="M407.964 103.923C407.964 121.554 393.327 135.846 375.272 135.846C357.216 135.846 342.579 121.554 342.579 103.923C342.579 86.2924 357.216 72 375.272 72C393.327 72 407.964 86.2924 407.964 103.923Z" />
<path d="M357.088 96.1973C356.123 95.9199 355.42 95.5801 354.979 95.1777C354.541 94.7715 354.322 94.2715 354.322 93.6777C354.322 93.0059 354.59 92.4512 355.125 92.0137C355.664 91.5723 356.363 91.3516 357.223 91.3516C357.809 91.3516 358.33 91.4648 358.787 91.6914C359.248 91.918 359.604 92.2305 359.854 92.6289C360.107 93.0273 360.234 93.4629 360.234 93.9355H359.104C359.104 93.4199 358.939 93.0156 358.611 92.7227C358.283 92.4258 357.82 92.2773 357.223 92.2773C356.668 92.2773 356.234 92.4004 355.922 92.6465C355.613 92.8887 355.459 93.2266 355.459 93.6602C355.459 94.0078 355.605 94.3027 355.898 94.5449C356.195 94.7832 356.697 95.002 357.404 95.2012C358.115 95.4004 358.67 95.6211 359.068 95.8633C359.471 96.1016 359.768 96.3809 359.959 96.7012C360.154 97.0215 360.252 97.3984 360.252 97.832C360.252 98.5234 359.982 99.0781 359.443 99.4961C358.904 99.9102 358.184 100.117 357.281 100.117C356.695 100.117 356.148 100.006 355.641 99.7832C355.133 99.5566 354.74 99.248 354.463 98.8574C354.189 98.4668 354.053 98.0234 354.053 97.5273H355.184C355.184 98.043 355.373 98.4512 355.752 98.752C356.135 99.0488 356.645 99.1973 357.281 99.1973C357.875 99.1973 358.33 99.0762 358.647 98.834C358.963 98.5918 359.121 98.2617 359.121 97.8438C359.121 97.4258 358.975 97.1035 358.682 96.877C358.389 96.6465 357.857 96.4199 357.088 96.1973ZM363 92.125V93.6602H364.184V94.498H363V98.4297C363 98.6836 363.053 98.875 363.158 99.0039C363.264 99.1289 363.443 99.1914 363.697 99.1914C363.822 99.1914 363.994 99.168 364.213 99.1211V100C363.928 100.078 363.65 100.117 363.381 100.117C362.897 100.117 362.531 99.9707 362.285 99.6777C362.039 99.3848 361.916 98.9688 361.916 98.4297V94.498H360.762V93.6602H361.916V92.125H363ZM366.633 100H365.549V93.6602H366.633V100ZM365.461 91.9785C365.461 91.8027 365.514 91.6543 365.619 91.5332C365.729 91.4121 365.889 91.3516 366.1 91.3516C366.311 91.3516 366.471 91.4121 366.58 91.5332C366.689 91.6543 366.744 91.8027 366.744 91.9785C366.744 92.1543 366.689 92.3008 366.58 92.418C366.471 92.5352 366.311 92.5938 366.1 92.5938C365.889 92.5938 365.729 92.5352 365.619 92.418C365.514 92.3008 365.461 92.1543 365.461 91.9785ZM370.916 99.2324C371.303 99.2324 371.641 99.1152 371.93 98.8809C372.219 98.6465 372.379 98.3535 372.41 98.002H373.436C373.416 98.3652 373.291 98.7109 373.061 99.0391C372.83 99.3672 372.522 99.6289 372.135 99.8242C371.752 100.02 371.346 100.117 370.916 100.117C370.053 100.117 369.365 99.8301 368.854 99.2559C368.346 98.6777 368.092 97.8887 368.092 96.8887V96.707C368.092 96.0898 368.205 95.541 368.432 95.0605C368.658 94.5801 368.982 94.207 369.404 93.9414C369.83 93.6758 370.332 93.543 370.91 93.543C371.621 93.543 372.211 93.7559 372.68 94.1816C373.152 94.6074 373.404 95.1602 373.436 95.8398H372.41C372.379 95.4297 372.223 95.0938 371.941 94.832C371.664 94.5664 371.32 94.4336 370.91 94.4336C370.359 94.4336 369.932 94.6328 369.627 95.0312C369.326 95.4258 369.176 95.998 369.176 96.748V96.9531C369.176 97.6836 369.326 98.2461 369.627 98.6406C369.928 99.0352 370.357 99.2324 370.916 99.2324ZM376.424 97.0645L375.744 97.7734V100H374.66V91H375.744V96.4434L376.324 95.7461L378.299 93.6602H379.617L377.15 96.3086L379.904 100H378.633L376.424 97.0645ZM383.25 100.117C382.391 100.117 381.691 99.8359 381.152 99.2734C380.613 98.707 380.344 97.9512 380.344 97.0059V96.8066C380.344 96.1777 380.463 95.6172 380.701 95.125C380.943 94.6289 381.279 94.2422 381.709 93.9648C382.143 93.6836 382.611 93.543 383.115 93.543C383.939 93.543 384.58 93.8145 385.037 94.3574C385.494 94.9004 385.723 95.6777 385.723 96.6895V97.1406H381.428C381.443 97.7656 381.625 98.2715 381.973 98.6582C382.324 99.041 382.77 99.2324 383.309 99.2324C383.691 99.2324 384.016 99.1543 384.281 98.998C384.547 98.8418 384.779 98.6348 384.979 98.377L385.641 98.8926C385.109 99.709 384.313 100.117 383.25 100.117ZM383.115 94.4336C382.678 94.4336 382.311 94.5938 382.014 94.9141C381.717 95.2305 381.533 95.6758 381.463 96.25H384.639V96.168C384.607 95.6172 384.459 95.1914 384.193 94.8906C383.928 94.5859 383.568 94.4336 383.115 94.4336ZM390.047 94.6328C389.883 94.6055 389.705 94.5918 389.514 94.5918C388.803 94.5918 388.32 94.8945 388.066 95.5V100H386.982V93.6602H388.037L388.055 94.3926C388.41 93.8262 388.914 93.543 389.566 93.543C389.777 93.543 389.938 93.5703 390.047 93.625V94.6328ZM394.74 98.3184C394.74 98.0254 394.629 97.7988 394.406 97.6387C394.188 97.4746 393.803 97.334 393.252 97.2168C392.705 97.0996 392.27 96.959 391.945 96.7949C391.625 96.6309 391.387 96.4355 391.23 96.209C391.078 95.9824 391.002 95.7129 391.002 95.4004C391.002 94.8809 391.221 94.4414 391.658 94.082C392.1 93.7227 392.662 93.543 393.346 93.543C394.064 93.543 394.647 93.7285 395.092 94.0996C395.541 94.4707 395.766 94.9453 395.766 95.5234H394.676C394.676 95.2266 394.549 94.9707 394.295 94.7559C394.045 94.541 393.729 94.4336 393.346 94.4336C392.951 94.4336 392.643 94.5195 392.42 94.6914C392.197 94.8633 392.086 95.0879 392.086 95.3652C392.086 95.627 392.189 95.8242 392.397 95.957C392.604 96.0898 392.977 96.2168 393.516 96.3379C394.059 96.459 394.498 96.6035 394.834 96.7715C395.17 96.9395 395.418 97.1426 395.578 97.3809C395.742 97.6152 395.824 97.9023 395.824 98.2422C395.824 98.8086 395.598 99.2637 395.145 99.6074C394.691 99.9473 394.104 100.117 393.381 100.117C392.873 100.117 392.424 100.027 392.033 99.8477C391.643 99.668 391.336 99.418 391.113 99.0977C390.895 98.7734 390.785 98.4238 390.785 98.0488H391.869C391.889 98.4121 392.033 98.7012 392.303 98.916C392.576 99.127 392.936 99.2324 393.381 99.2324C393.791 99.2324 394.119 99.1504 394.365 98.9863C394.615 98.8184 394.74 98.5957 394.74 98.3184ZM362.232 108.395H359.49V116H358.371V108.395H355.635V107.469H362.232V108.395ZM364.225 112.818H361.365V111.934H364.225V112.818ZM368.977 114.318C368.977 114.025 368.865 113.799 368.643 113.639C368.424 113.475 368.039 113.334 367.488 113.217C366.941 113.1 366.506 112.959 366.182 112.795C365.861 112.631 365.623 112.436 365.467 112.209C365.314 111.982 365.238 111.713 365.238 111.4C365.238 110.881 365.457 110.441 365.895 110.082C366.336 109.723 366.898 109.543 367.582 109.543C368.301 109.543 368.883 109.729 369.328 110.1C369.777 110.471 370.002 110.945 370.002 111.523H368.912C368.912 111.227 368.785 110.971 368.531 110.756C368.281 110.541 367.965 110.434 367.582 110.434C367.188 110.434 366.879 110.52 366.656 110.691C366.434 110.863 366.322 111.088 366.322 111.365C366.322 111.627 366.426 111.824 366.633 111.957C366.84 112.09 367.213 112.217 367.752 112.338C368.295 112.459 368.734 112.604 369.07 112.771C369.406 112.939 369.654 113.143 369.814 113.381C369.979 113.615 370.061 113.902 370.061 114.242C370.061 114.809 369.834 115.264 369.381 115.607C368.928 115.947 368.34 116.117 367.617 116.117C367.109 116.117 366.66 116.027 366.27 115.848C365.879 115.668 365.572 115.418 365.35 115.098C365.131 114.773 365.022 114.424 365.022 114.049H366.105C366.125 114.412 366.27 114.701 366.539 114.916C366.813 115.127 367.172 115.232 367.617 115.232C368.027 115.232 368.355 115.15 368.602 114.986C368.852 114.818 368.977 114.596 368.977 114.318ZM372.557 110.428C373.037 109.838 373.662 109.543 374.432 109.543C375.772 109.543 376.447 110.299 376.459 111.811V116H375.375V111.805C375.371 111.348 375.266 111.01 375.059 110.791C374.855 110.572 374.537 110.463 374.104 110.463C373.752 110.463 373.443 110.557 373.178 110.744C372.912 110.932 372.705 111.178 372.557 111.482V116H371.473V107H372.557V110.428ZM379.26 116H378.176V109.66H379.26V116ZM378.088 107.979C378.088 107.803 378.141 107.654 378.246 107.533C378.355 107.412 378.516 107.352 378.727 107.352C378.938 107.352 379.098 107.412 379.207 107.533C379.316 107.654 379.371 107.803 379.371 107.979C379.371 108.154 379.316 108.301 379.207 108.418C379.098 108.535 378.938 108.594 378.727 108.594C378.516 108.594 378.355 108.535 378.246 108.418C378.141 108.301 378.088 108.154 378.088 107.979ZM384.064 110.633C383.9 110.605 383.723 110.592 383.531 110.592C382.82 110.592 382.338 110.895 382.084 111.5V116H381V109.66H382.055L382.072 110.393C382.428 109.826 382.932 109.543 383.584 109.543C383.795 109.543 383.955 109.57 384.064 109.625V110.633ZM386.83 108.125V109.66H388.014V110.498H386.83V114.43C386.83 114.684 386.883 114.875 386.988 115.004C387.094 115.129 387.273 115.191 387.527 115.191C387.652 115.191 387.824 115.168 388.043 115.121V116C387.758 116.078 387.48 116.117 387.211 116.117C386.727 116.117 386.361 115.971 386.115 115.678C385.869 115.385 385.746 114.969 385.746 114.43V110.498H384.592V109.66H385.746V108.125H386.83ZM392.977 114.318C392.977 114.025 392.865 113.799 392.643 113.639C392.424 113.475 392.039 113.334 391.488 113.217C390.941 113.1 390.506 112.959 390.182 112.795C389.861 112.631 389.623 112.436 389.467 112.209C389.314 111.982 389.238 111.713 389.238 111.4C389.238 110.881 389.457 110.441 389.895 110.082C390.336 109.723 390.898 109.543 391.582 109.543C392.301 109.543 392.883 109.729 393.328 110.1C393.777 110.471 394.002 110.945 394.002 111.523H392.912C392.912 111.227 392.785 110.971 392.531 110.756C392.281 110.541 391.965 110.434 391.582 110.434C391.188 110.434 390.879 110.52 390.656 110.691C390.434 110.863 390.322 111.088 390.322 111.365C390.322 111.627 390.426 111.824 390.633 111.957C390.84 112.09 391.213 112.217 391.752 112.338C392.295 112.459 392.734 112.604 393.07 112.771C393.406 112.939 393.654 113.143 393.814 113.381C393.979 113.615 394.061 113.902 394.061 114.242C394.061 114.809 393.834 115.264 393.381 115.607C392.928 115.947 392.34 116.117 391.617 116.117C391.109 116.117 390.66 116.027 390.27 115.848C389.879 115.668 389.572 115.418 389.35 115.098C389.131 114.773 389.022 114.424 389.022 114.049H390.105C390.125 114.412 390.27 114.701 390.539 114.916C390.813 115.127 391.172 115.232 391.617 115.232C392.027 115.232 392.355 115.15 392.602 114.986C392.852 114.818 392.977 114.596 392.977 114.318Z" fill="#030D2D"/>
<path d="M344.931 156.702C344.931 157.538 344.791 158.268 344.509 158.893C344.228 159.515 343.83 159.989 343.314 160.317C342.798 160.645 342.197 160.81 341.509 160.81C340.837 160.81 340.242 160.645 339.722 160.317C339.203 159.985 338.798 159.515 338.509 158.905C338.224 158.292 338.078 157.583 338.07 156.778V156.163C338.07 155.343 338.212 154.618 338.498 153.989C338.783 153.36 339.185 152.88 339.705 152.548C340.228 152.212 340.826 152.044 341.498 152.044C342.181 152.044 342.783 152.21 343.302 152.542C343.826 152.87 344.228 153.349 344.509 153.977C344.791 154.602 344.931 155.331 344.931 156.163V156.702ZM343.812 156.151C343.812 155.14 343.609 154.364 343.203 153.825C342.796 153.282 342.228 153.011 341.498 153.011C340.787 153.011 340.226 153.282 339.816 153.825C339.41 154.364 339.201 155.114 339.189 156.075V156.702C339.189 157.683 339.394 158.454 339.804 159.017C340.218 159.575 340.787 159.854 341.509 159.854C342.236 159.854 342.798 159.591 343.197 159.063C343.595 158.532 343.8 157.772 343.812 156.784V156.151ZM352.894 157.985C352.789 158.888 352.455 159.585 351.892 160.077C351.334 160.565 350.589 160.81 349.66 160.81C348.652 160.81 347.843 160.448 347.234 159.726C346.628 159.003 346.326 158.036 346.326 156.825V156.005C346.326 155.212 346.466 154.515 346.748 153.913C347.033 153.311 347.435 152.851 347.955 152.53C348.474 152.206 349.076 152.044 349.759 152.044C350.666 152.044 351.392 152.298 351.939 152.806C352.486 153.31 352.804 154.009 352.894 154.903H351.763C351.666 154.224 351.453 153.731 351.125 153.427C350.8 153.122 350.345 152.97 349.759 152.97C349.041 152.97 348.476 153.235 348.066 153.767C347.66 154.298 347.457 155.054 347.457 156.034V156.86C347.457 157.786 347.65 158.522 348.037 159.069C348.423 159.616 348.964 159.89 349.66 159.89C350.285 159.89 350.763 159.749 351.095 159.468C351.431 159.183 351.654 158.688 351.763 157.985H352.894ZM360.711 157.985C360.605 158.888 360.271 159.585 359.709 160.077C359.15 160.565 358.406 160.81 357.476 160.81C356.468 160.81 355.66 160.448 355.05 159.726C354.445 159.003 354.142 158.036 354.142 156.825V156.005C354.142 155.212 354.283 154.515 354.564 153.913C354.849 153.311 355.252 152.851 355.771 152.53C356.291 152.206 356.892 152.044 357.576 152.044C358.482 152.044 359.209 152.298 359.755 152.806C360.302 153.31 360.621 154.009 360.711 154.903H359.58C359.482 154.224 359.269 153.731 358.941 153.427C358.617 153.122 358.162 152.97 357.576 152.97C356.857 152.97 356.293 153.235 355.882 153.767C355.476 154.298 355.273 155.054 355.273 156.034V156.86C355.273 157.786 355.466 158.522 355.853 159.069C356.24 159.616 356.781 159.89 357.476 159.89C358.101 159.89 358.58 159.749 358.912 159.468C359.248 159.183 359.47 158.688 359.58 157.985H360.711ZM366.962 158.466H363.388L362.586 160.692H361.425L364.683 152.161H365.668L368.931 160.692H367.777L366.962 158.466ZM363.728 157.54H366.628L365.175 153.55L363.728 157.54ZM372.593 156.89C371.628 156.612 370.925 156.272 370.484 155.87C370.046 155.464 369.828 154.964 369.828 154.37C369.828 153.698 370.095 153.143 370.63 152.706C371.169 152.265 371.869 152.044 372.728 152.044C373.314 152.044 373.836 152.157 374.293 152.384C374.753 152.61 375.109 152.923 375.359 153.321C375.613 153.72 375.74 154.155 375.74 154.628H374.609C374.609 154.112 374.445 153.708 374.117 153.415C373.789 153.118 373.326 152.97 372.728 152.97C372.173 152.97 371.74 153.093 371.427 153.339C371.119 153.581 370.964 153.919 370.964 154.352C370.964 154.7 371.111 154.995 371.404 155.237C371.701 155.476 372.203 155.694 372.91 155.893C373.621 156.093 374.175 156.313 374.574 156.556C374.976 156.794 375.273 157.073 375.464 157.393C375.66 157.714 375.757 158.091 375.757 158.524C375.757 159.216 375.488 159.77 374.949 160.188C374.41 160.602 373.689 160.81 372.787 160.81C372.201 160.81 371.654 160.698 371.146 160.476C370.638 160.249 370.246 159.94 369.968 159.55C369.695 159.159 369.558 158.716 369.558 158.22H370.689C370.689 158.735 370.878 159.143 371.257 159.444C371.64 159.741 372.15 159.89 372.787 159.89C373.38 159.89 373.836 159.768 374.152 159.526C374.468 159.284 374.627 158.954 374.627 158.536C374.627 158.118 374.48 157.796 374.187 157.569C373.894 157.339 373.363 157.112 372.593 156.89ZM378.412 160.692H377.287V152.161H378.412V160.692ZM387.037 156.702C387.037 157.538 386.896 158.268 386.615 158.893C386.334 159.515 385.935 159.989 385.419 160.317C384.904 160.645 384.302 160.81 383.615 160.81C382.943 160.81 382.347 160.645 381.828 160.317C381.308 159.985 380.904 159.515 380.615 158.905C380.33 158.292 380.183 157.583 380.175 156.778V156.163C380.175 155.343 380.318 154.618 380.603 153.989C380.888 153.36 381.291 152.88 381.81 152.548C382.334 152.212 382.931 152.044 383.603 152.044C384.287 152.044 384.888 152.21 385.408 152.542C385.931 152.87 386.334 153.349 386.615 153.977C386.896 154.602 387.037 155.331 387.037 156.163V156.702ZM385.918 156.151C385.918 155.14 385.714 154.364 385.308 153.825C384.902 153.282 384.334 153.011 383.603 153.011C382.892 153.011 382.332 153.282 381.921 153.825C381.515 154.364 381.306 155.114 381.294 156.075V156.702C381.294 157.683 381.5 158.454 381.91 159.017C382.324 159.575 382.892 159.854 383.615 159.854C384.341 159.854 384.904 159.591 385.302 159.063C385.701 158.532 385.906 157.772 385.918 156.784V156.151ZM395.281 160.692H394.15L389.855 154.118V160.692H388.724V152.161H389.855L394.162 158.765V152.161H395.281V160.692ZM402.095 158.466H398.521L397.718 160.692H396.558L399.816 152.161H400.8L404.064 160.692H402.91L402.095 158.466ZM398.861 157.54H401.761L400.308 153.55L398.861 157.54ZM406.343 159.772H410.386V160.692H405.212V152.161H406.343V159.772Z" fill="#030D2D"/>
</svg>
