<svg width="160" height="160" viewBox="0 0 160 160" fill="none" xmlns="http://www.w3.org/2000/svg">
<path d="M37.3872 156.081C37.0622 156.081 36.8997 156.081 36.5685 155.919C35.5872 155.756 34.9373 155.1 34.4435 154.288L19.7498 125.881C18.931 124.413 19.4248 122.45 20.8935 121.638L52.7303 101.719C54.8553 100.413 57.2991 99.763 59.749 99.9255L92.0738 100.744C97.2988 100.907 101.705 105.151 101.868 110.375C102.03 115.6 98.1113 120.332 92.8863 120.825L81.2926 122.132C80.3113 122.294 79.8238 122.95 79.6614 123.275C79.4989 123.6 79.1739 124.419 79.6614 125.232C79.9864 125.882 80.8051 126.375 81.6177 126.375L100.392 127.194C103.823 124.744 116.717 115.932 124.392 110.706C128.961 107.606 135.33 108.75 138.598 113.319L138.761 113.481C141.861 118.05 140.886 124.256 136.473 127.356L107.099 148.406C103.343 151.181 98.6114 152.325 94.0363 151.506L57.2987 145.956C54.6863 145.631 52.2362 146.118 50.1175 147.75L39.3424 155.587C38.6924 155.918 38.0424 156.081 37.3861 156.081L37.3872 156.081ZM27.0997 125.55L38.6935 147.918L46.3685 142.368C49.7997 139.918 54.0436 138.774 58.2873 139.431L95.0248 144.981C97.9623 145.468 100.9 144.656 103.35 143.025L132.575 122.125C134.207 120.982 134.532 118.863 133.394 117.225L133.232 117.063C132.088 115.432 129.8 114.938 128.169 116.082C119.35 122.45 103.182 133.387 103.182 133.387C102.532 133.712 101.876 134.037 101.226 134.037L81.3072 133.218C78.2072 133.056 75.2635 131.262 73.7947 128.481C72.4884 125.869 72.651 122.931 73.9572 120.481C75.2634 118.031 77.8759 116.237 80.651 115.912L92.2447 114.606C94.0385 114.443 95.5073 112.812 95.3447 110.85C95.1822 109.056 93.7135 107.587 91.9135 107.418L59.4255 106.6C58.1193 106.6 57.138 106.762 56.163 107.418L27.0997 125.55Z" fill="#030D2D"/>
<path d="M97.7936 94.2063C97.1436 94.2063 96.4874 94.0438 95.8373 93.8813C70.0437 83.5938 61.3877 64.3309 64.1621 49.7997C66.1184 39.3498 73.7933 32.4941 83.4245 32.4941C87.9933 32.4941 93.0557 34.1253 97.7933 37.2316C102.531 34.1316 107.425 32.4941 112 32.4941C121.631 32.4941 129.305 39.1879 131.262 49.6381C134.037 64.0069 125.387 83.2701 99.7499 93.7197C99.2624 94.2072 98.4499 94.2072 97.7936 94.2072V94.2063ZM83.5936 39.0191C77.0624 39.0191 72.1624 43.5879 70.6936 51.1004C68.4061 63.0191 75.9186 78.8572 97.956 87.6684C119.831 78.5247 127.343 62.6876 125.057 50.9308C123.588 43.5807 118.688 39.0121 112.157 39.0121C108.401 39.0121 104.157 40.6433 99.9132 43.7495C98.7694 44.5683 97.1381 44.5683 95.9944 43.7495C91.5944 40.6495 87.3507 39.0183 83.5944 39.0183L83.5936 39.0191Z" fill="#030D2D"/>
<path d="M97.6321 21.3871C95.8383 21.3871 94.3695 19.9184 94.3695 18.1246V7.1809C94.3695 5.38714 95.8383 3.91833 97.6321 3.91833C99.4258 3.91833 100.895 5.38709 100.895 7.1809V18.1183C100.901 19.9183 99.4321 21.3871 97.6321 21.3871Z" fill="#030D2D"/>
<path d="M125.55 26.9376C125.063 26.9376 124.569 26.7751 124.082 26.6126C122.45 25.7938 121.794 23.8375 122.613 22.2063L128.163 11.2689C128.982 9.63768 130.938 8.98136 132.569 9.80013C134.2 10.6189 134.857 12.5752 134.038 14.2064L128.488 25.1438C127.838 26.2876 126.694 26.9376 125.55 26.9376H125.55Z" fill="#030D2D"/>
<path d="M69.7121 26.9376C68.5683 26.9376 67.4246 26.2876 66.7747 25.1438L61.2246 14.2064C60.4058 12.5752 61.0621 10.6126 62.6933 9.80013C64.3245 8.98138 66.2871 9.63764 67.0996 11.2689L72.6496 22.2063C73.4684 23.8375 72.8121 25.8001 71.1809 26.6126C70.6934 26.7751 70.2059 26.9376 69.7121 26.9376H69.7121Z" fill="#030D2D"/>
</svg>
