<svg width="530" height="355" viewBox="0 0 530 355" fill="none" xmlns="http://www.w3.org/2000/svg">
<path d="M155.425 86.8674L76.0955 140.095L154.285 257.335L233.615 204.108L155.425 86.8674Z" fill="#F5F5F5"/>
<path d="M192.51 198.558L191.613 204.153L152.195 198.445L153.092 192.85L192.51 198.558Z" fill="#E0E0E0"/>
<path d="M172.66 178.601L178.313 179.417L172.045 218.41L166.385 217.587L172.66 178.601Z" fill="#E0E0E0"/>
<path d="M136.387 129.043C136.443 129.121 128.5 134.566 118.642 141.184C108.784 147.801 100.749 153.112 100.693 153.026C100.636 152.941 108.579 147.503 118.437 140.878C128.295 134.254 136.295 128.957 136.387 129.043Z" fill="#E0E0E0"/>
<path d="M165.515 121.687C165.572 121.772 152.357 130.746 136.005 141.737C119.653 152.728 106.325 161.568 106.283 161.489C106.24 161.411 119.427 152.423 135.8 141.432C152.174 130.441 165.459 121.602 165.515 121.687Z" fill="#E0E0E0"/>
<path d="M171.36 130.463C171.416 130.548 158.201 139.529 141.849 150.52C125.497 161.511 112.169 170.35 112.127 170.265C112.084 170.18 125.285 161.206 141.644 150.208C158.004 139.21 171.303 130.377 171.36 130.463Z" fill="#E0E0E0"/>
<path d="M177.204 139.245C177.26 139.33 164.046 148.312 147.693 159.296C131.341 170.279 118.013 179.133 118.013 179.048C118.013 178.963 131.165 169.981 147.524 158.99C163.883 148 177.147 139.16 177.204 139.245Z" fill="#E0E0E0"/>
<path d="M183.027 148.028C183.083 148.113 169.868 157.088 153.516 168.078C137.164 179.069 123.836 187.909 123.801 187.823C123.766 187.738 136.973 178.764 153.347 167.773C169.72 156.782 183.027 147.943 183.027 148.028Z" fill="#E0E0E0"/>
<path d="M420.516 165.405L353.926 210.159L419.514 308.671L486.104 263.917L420.516 165.405Z" fill="#F5F5F5"/>
<path d="M451.701 259.278L450.945 263.978L417.838 259.186L418.601 254.485L451.701 259.278Z" fill="#E0E0E0"/>
<path d="M435.031 242.515L439.78 243.203L434.515 275.949L429.759 275.26L435.031 242.515Z" fill="#E0E0E0"/>
<path d="M404.539 200.93C404.595 201.015 397.931 205.595 389.649 211.154C381.367 216.713 374.611 221.158 374.555 221.094C374.498 221.03 381.169 216.436 389.444 210.87C397.719 205.304 404.482 200.809 404.539 200.93Z" fill="#E0E0E0"/>
<path d="M429.024 194.718C429.081 194.803 417.993 202.357 404.291 211.58C390.589 220.803 379.374 228.229 379.318 228.144C379.261 228.059 390.349 220.505 404.051 211.275C417.753 202.045 428.947 194.632 429.024 194.718Z" fill="#E0E0E0"/>
<path d="M433.936 202.087C433.992 202.172 422.905 209.727 409.202 218.957C395.5 228.187 384.285 235.599 384.229 235.514C384.172 235.429 395.224 227.91 408.962 218.68C422.7 209.45 433.893 202.009 433.936 202.087Z" fill="#E0E0E0"/>
<path d="M438.84 209.45C438.896 209.535 427.802 217.09 414.107 226.32C400.411 235.55 389.19 242.962 389.133 242.877C389.076 242.791 400.164 235.244 413.866 226.007C427.569 216.77 438.79 209.379 438.84 209.45Z" fill="#E0E0E0"/>
<path d="M443.787 216.841C443.843 216.926 432.756 224.474 419.053 233.704C405.351 242.934 394.136 250.346 394.08 250.268C394.023 250.19 405.111 242.628 418.813 233.398C432.515 224.168 443.695 216.756 443.787 216.841Z" fill="#E0E0E0"/>
<path d="M315.167 91.1211L242.51 52.0769L185.288 159.568L257.946 198.612L315.167 91.1211Z" fill="#F5F5F5"/>
<path d="M245.51 164.983L240.903 166.566L229.2 134.069L233.815 132.479L245.51 164.983Z" fill="#E0E0E0"/>
<path d="M252.577 141.666L254.259 146.331L222.134 157.386L220.452 152.721L252.577 141.666Z" fill="#E0E0E0"/>
<path d="M275.402 93.72C275.346 93.8265 267.982 89.9782 258.944 85.1289C249.906 80.2796 242.634 76.2539 242.691 76.1474C242.747 76.0409 250.118 79.8891 259.156 84.7384C268.194 89.5877 275.459 93.6064 275.402 93.72Z" fill="#E0E0E0"/>
<path d="M292.843 113.053C292.786 113.16 280.589 106.713 265.601 98.6617C250.612 90.6103 238.514 83.9931 238.571 83.8866C238.627 83.7801 250.817 90.2198 265.806 98.2782C280.794 106.337 292.899 112.947 292.843 113.053Z" fill="#E0E0E0"/>
<path d="M288.56 121.098C288.504 121.204 276.307 114.764 261.318 106.706C246.33 98.6473 234.232 92.0372 234.288 91.9307C234.345 91.8242 246.535 98.271 261.523 106.322C276.512 114.374 288.617 120.991 288.56 121.098Z" fill="#E0E0E0"/>
<path d="M284.278 129.142C284.221 129.248 272.024 122.809 257.036 114.757C242.047 106.706 229.949 100.11 230.006 99.9823C230.062 99.8545 242.252 106.316 257.241 114.367C272.229 122.418 284.334 129.035 284.278 129.142Z" fill="#E0E0E0"/>
<path d="M279.995 137.186C279.939 137.293 267.742 130.853 252.753 122.802C237.765 114.75 225.66 108.133 225.723 108.026C225.787 107.92 237.97 114.36 252.958 122.411C267.947 130.462 280.052 137.08 279.995 137.186Z" fill="#E0E0E0"/>
<path opacity="0.2" d="M280.37 0H278.547V31.2258H280.37V0Z" fill="black"/>
<path d="M236.896 69.0049H322.021C322.021 69.0049 314.163 31.24 278.815 31.24C247.376 31.24 236.896 69.0049 236.896 69.0049Z" fill="#FA114F"/>
<path d="M280.37 0H278.547V31.2258H280.37V0Z" fill="#FA114F"/>
<path d="M468.993 312.279C468.993 312.379 377.657 312.464 265.007 312.464C152.357 312.464 61.0066 312.4 61.0066 312.279C61.0066 312.159 152.329 312.095 265.007 312.095C377.685 312.095 468.993 312.173 468.993 312.279Z" fill="#263238"/>
<path d="M83.5916 267.812C84.7863 267.899 85.9515 268.226 87.0175 268.775C88.0835 269.324 89.0285 270.083 89.7961 271.007C91.3224 272.866 92.4031 275.052 92.9549 277.397C94.1491 281.884 93.4142 287.188 92.1422 291.654C87.3086 289.914 84.3194 284.731 82.9556 282.005C80.8356 277.702 79.5706 268.614 83.5704 267.805" fill="#FA114F"/>
<path d="M99.1029 297.099C98.3771 295.969 97.9621 294.665 97.9 293.32C97.8379 291.976 98.1311 290.639 98.7496 289.446C99.3875 288.263 100.253 287.221 101.297 286.378C102.34 285.536 103.54 284.911 104.827 284.54C106.007 284.17 107.378 284.021 108.403 284.71C108.865 285.061 109.224 285.53 109.444 286.068C109.664 286.607 109.737 287.194 109.653 287.77C109.468 288.924 108.98 290.007 108.24 290.908C105.887 294.11 103.032 296.773 99.0535 297.099" fill="#FA114F"/>
<path d="M99.64 312.102C99.5352 311.8 99.4617 311.489 99.421 311.172C99.2938 310.504 99.1242 309.645 98.9192 308.616C98.2849 305.797 98.1083 302.893 98.3963 300.018C98.7295 297.128 99.8249 294.38 101.569 292.059C102.102 291.364 102.717 290.737 103.4 290.191C103.585 290.043 103.778 289.906 103.979 289.779C104.043 289.726 104.114 289.683 104.191 289.652C103.297 290.419 102.48 291.273 101.753 292.201C100.101 294.525 99.0602 297.231 98.7284 300.067C98.2762 303.376 98.8344 306.408 99.1595 308.587C99.3291 309.674 99.4704 310.554 99.5482 311.165C99.6038 311.474 99.6346 311.787 99.64 312.102Z" fill="#263238"/>
<path d="M85.1462 274.649C85.2269 274.761 85.2934 274.883 85.3441 275.012C85.4713 275.296 85.6409 275.651 85.8388 276.098C86.2698 277.042 86.8705 278.412 87.5984 280.109C89.0541 283.51 91.0045 288.239 93.0397 293.507C95.0749 298.775 96.8062 303.582 97.9864 307.082C98.5941 308.829 99.0676 310.249 99.3997 311.236C99.5481 311.704 99.6612 312.081 99.753 312.372C99.8035 312.502 99.839 312.638 99.859 312.776C99.7874 312.656 99.7304 312.527 99.6894 312.393C99.5834 312.109 99.4492 311.74 99.2725 311.278L97.7814 307.16C96.5165 303.688 94.7498 298.889 92.7217 293.628C90.6936 288.367 88.7714 283.624 87.3722 280.202C86.6656 278.519 86.1214 277.149 85.7186 276.148C85.5349 275.693 85.3865 275.331 85.2734 275.04C85.2204 274.914 85.1778 274.783 85.1462 274.649Z" fill="#263238"/>
<path d="M93.8949 302.176C92.4408 299.744 90.4314 297.694 88.0328 296.196C85.6342 294.699 82.9152 293.796 80.1008 293.564C78.6874 293.464 76.949 293.706 76.313 294.984C75.677 296.262 76.525 297.824 77.5002 298.86C79.5722 301.038 82.2395 302.551 85.1659 303.208C88.0923 303.865 91.1468 303.637 93.9444 302.552" fill="#FA114F"/>
<path d="M82.2774 297.412C82.577 297.397 82.8773 297.409 83.1748 297.448C83.5232 297.466 83.8701 297.507 84.2136 297.568C84.6164 297.646 85.0899 297.689 85.5846 297.831C86.1375 297.948 86.6827 298.1 87.217 298.285C87.836 298.485 88.4425 298.722 89.0331 298.995C90.3916 299.607 91.6766 300.371 92.8632 301.274C94.0362 302.199 95.0985 303.257 96.0291 304.427C96.4309 304.936 96.8015 305.47 97.1386 306.024C97.4433 306.503 97.7217 306.999 97.9724 307.508C98.1847 307.923 98.3735 308.35 98.5378 308.786C98.6795 309.109 98.7999 309.441 98.8982 309.78C99.0028 310.063 99.0809 310.356 99.1314 310.653C99.0536 310.653 98.7144 309.432 97.7604 307.615C97.5007 307.126 97.2152 306.652 96.9054 306.195C96.561 305.657 96.1883 305.138 95.7888 304.64C93.9405 302.345 91.5834 300.516 88.9059 299.301C88.2911 299.031 87.7046 298.775 87.1322 298.591C86.6067 298.398 86.0712 298.235 85.528 298.101C83.5494 297.554 82.2703 297.49 82.2774 297.412Z" fill="#263238"/>
<path d="M403.054 74.8909C400.977 75.3666 399.966 77.7735 399.768 79.9035C399.571 82.0335 399.839 84.2913 398.949 86.2367C397.945 88.4235 395.55 90.0423 395.472 92.4492C395.422 93.9189 396.292 95.2892 396.249 96.7731C396.179 99.1871 393.733 101.033 393.599 103.419C393.507 105.158 394.659 106.82 394.384 108.538C394.172 109.873 393.133 110.923 392.695 112.201C391.826 114.757 393.571 117.562 395.839 118.996C397.11 119.799 398.54 120.313 400.029 120.503C401.518 120.693 403.031 120.554 404.461 120.095C405.891 119.637 407.204 118.87 408.309 117.849C409.414 116.828 410.283 115.576 410.856 114.182C412.114 111.115 411.838 107.657 411.563 104.356C410.715 94.0562 410.083 83.7422 409.669 73.4141" fill="#263238"/>
<path d="M397.02 111.229C397.447 110.962 397.781 110.567 397.974 110.1C398.177 109.544 398.259 108.951 398.214 108.36C398.136 107.577 397.963 106.807 397.698 106.067C397.36 105.137 397.234 104.142 397.33 103.156C397.507 102.048 398.299 101.14 399.012 100.245C399.397 99.8071 399.718 99.3172 399.966 98.7895C400.215 98.2558 400.256 97.6476 400.079 97.0855C399.712 95.9282 398.581 95.0762 398.065 93.7343C397.823 93.07 397.784 92.348 397.952 91.6611C398.113 91.017 398.35 90.3948 398.659 89.808C399.256 88.7511 399.73 87.6291 400.072 86.4639C400.567 84.2132 400.334 82.0619 400.673 80.294C400.861 78.878 401.487 77.557 402.461 76.5168C402.737 76.2366 403.051 75.9975 403.394 75.8068C403.512 75.7449 403.638 75.6995 403.768 75.6719C403.325 75.9169 402.919 76.2227 402.56 76.5807C401.657 77.6313 401.089 78.9297 400.927 80.3082C400.804 81.2499 400.737 82.1983 400.73 83.1482C400.727 84.266 400.619 85.3811 400.405 86.4781C400.067 87.6701 399.593 88.8186 398.991 89.9003C398.461 91.015 397.974 92.3214 398.44 93.5426C398.906 94.7638 400.03 95.6087 400.461 96.9151C400.656 97.5605 400.608 98.2552 400.327 98.8676C400.051 99.4483 399.694 99.9863 399.267 100.465C398.56 101.36 397.79 102.212 397.62 103.206C397.521 104.148 397.632 105.102 397.945 105.996C398.198 106.759 398.354 107.551 398.412 108.353C398.447 108.971 398.338 109.588 398.094 110.157C397.942 110.513 397.698 110.822 397.387 111.051C397.276 111.132 397.152 111.193 397.02 111.229Z" fill="#455A64"/>
<path d="M391.493 128.063L385.133 146.523L358.534 147.943L354.096 157.883L381.868 160.723C383.181 161.264 384.588 161.532 386.006 161.512C387.425 161.491 388.824 161.181 390.12 160.602C391.416 160.023 392.581 159.186 393.546 158.141C394.511 157.096 395.255 155.866 395.733 154.524L403.146 133.736L391.493 128.063Z" fill="#B78876"/>
<path d="M446.479 302.247C446.479 302.247 426.989 240.037 426.572 238.02C426.198 236.188 433.639 191.423 434.586 179.8L408.248 180.787V181.05L397.055 181.675L407.075 308.85H419.195L417.993 266.64C425.47 286.797 436.183 307.345 436.183 307.345L446.479 302.247Z" fill="#B78876"/>
<path d="M418.488 281.785C418.488 281.402 418.34 267.642 418.34 267.642C418.191 268.465 413.697 255.7 413.803 254.926C413.859 254.521 418.488 281.785 418.488 281.785Z" fill="#A36957"/>
<path d="M413.294 248.876C413.232 249.129 413.206 249.39 413.216 249.65C413.177 250.36 413.177 251.071 413.216 251.78C413.216 252.228 413.28 252.71 413.336 253.236C413.393 253.761 413.471 254.315 413.591 254.89C413.842 256.146 414.175 257.384 414.587 258.596C415.464 261.174 416.439 263.424 417.124 265.057C417.449 265.767 417.732 266.442 417.972 266.981C418.059 267.232 418.178 267.471 418.325 267.691C418.288 267.446 418.216 267.207 418.113 266.981C417.951 266.513 417.704 265.838 417.407 265.008C416.785 263.346 415.852 261.074 414.983 258.525C414.572 257.331 414.234 256.112 413.972 254.876C413.845 254.308 413.76 253.761 413.683 253.25C413.605 252.739 413.548 252.256 413.513 251.83C413.428 250.95 413.393 250.24 413.372 249.743C413.385 249.452 413.359 249.16 413.294 248.876Z" fill="#A36957"/>
<path d="M406.849 309.496V308.353L419.265 307.806L419.301 312.528L418.538 312.577C415.124 312.776 401.189 313.359 398.913 312.67C396.362 311.903 406.849 309.496 406.849 309.496Z" fill="#455A64"/>
<path d="M419.463 312.244C419.393 312.249 419.322 312.249 419.251 312.244L418.644 312.286L416.396 312.386C414.503 312.464 411.881 312.535 408.991 312.549C406.1 312.563 403.472 312.514 401.571 312.457L399.33 312.365H398.716H398.504C398.574 312.359 398.645 312.359 398.716 312.365H399.33L401.578 312.407C403.472 312.407 406.093 312.464 408.984 312.45C411.874 312.436 414.503 312.386 416.396 312.336L418.644 312.279H419.463V312.244Z" fill="#263238"/>
<path d="M402.8 312.641C402.697 312.27 402.555 311.911 402.376 311.569C402.152 311.255 401.894 310.966 401.606 310.71C401.992 310.849 402.312 311.127 402.503 311.491C402.737 311.826 402.842 312.235 402.8 312.641Z" fill="#263238"/>
<path d="M406.461 310.774C406.461 310.774 406.256 310.582 406.072 310.298C405.888 310.014 405.775 309.766 405.81 309.745C405.846 309.723 406.015 309.929 406.199 310.213C406.383 310.497 406.496 310.753 406.461 310.774Z" fill="#263238"/>
<path d="M407.464 310.27C407.464 310.305 407.238 310.171 407.026 309.979C406.814 309.787 406.658 309.61 406.687 309.581C406.715 309.553 406.913 309.681 407.125 309.872C407.337 310.064 407.492 310.206 407.464 310.27Z" fill="#263238"/>
<path d="M408.093 309.063C407.885 309.14 407.663 309.169 407.443 309.148C407.227 309.177 407.006 309.155 406.8 309.084C407.005 309.008 407.225 308.979 407.443 308.999C407.662 308.969 407.884 308.991 408.093 309.063Z" fill="#263238"/>
<path d="M408.305 308.24C408.094 308.377 407.849 308.451 407.598 308.452C407.358 308.484 407.114 308.45 406.892 308.353C407.125 308.314 407.362 308.295 407.598 308.296C407.831 308.255 408.068 308.236 408.305 308.24Z" fill="#263238"/>
<path d="M406.044 309.688C405.78 309.738 405.509 309.738 405.245 309.688C404.96 309.653 404.678 309.591 404.404 309.503C404.235 309.456 404.071 309.389 403.917 309.305C403.823 309.249 403.752 309.16 403.719 309.056C403.706 308.997 403.71 308.935 403.731 308.878C403.753 308.822 403.79 308.772 403.839 308.737C404.035 308.641 404.249 308.591 404.466 308.589C404.684 308.587 404.899 308.634 405.096 308.725C405.294 308.817 405.468 308.951 405.608 309.119C405.747 309.287 405.848 309.484 405.902 309.695C405.916 309.765 405.916 309.838 405.902 309.908C405.822 309.652 405.698 309.411 405.535 309.198C405.347 308.985 405.101 308.832 404.828 308.758C404.515 308.656 404.176 308.682 403.881 308.829C403.761 308.921 403.811 309.07 403.945 309.155C404.089 309.234 404.241 309.298 404.397 309.347C404.663 309.435 404.934 309.504 405.21 309.553C405.74 309.667 406.044 309.667 406.044 309.688Z" fill="#263238"/>
<path d="M405.839 309.73C405.736 309.566 405.7 309.367 405.74 309.177C405.765 308.968 405.841 308.768 405.959 308.594C406.025 308.476 406.12 308.376 406.235 308.304C406.35 308.232 406.481 308.19 406.616 308.183C406.696 308.201 406.766 308.25 406.812 308.318C406.858 308.387 406.876 308.47 406.863 308.552C406.846 308.679 406.8 308.8 406.729 308.907C406.622 309.083 406.496 309.247 406.355 309.397C406.232 309.538 406.076 309.648 405.902 309.716C405.902 309.716 406.058 309.574 406.277 309.319C406.404 309.172 406.515 309.013 406.609 308.843C406.715 308.673 406.793 308.367 406.609 308.332C406.425 308.296 406.213 308.516 406.093 308.673C405.981 308.827 405.903 309.003 405.867 309.191C405.838 309.369 405.829 309.55 405.839 309.73Z" fill="#263238"/>
<path d="M419.202 308.85C419.202 308.85 418.848 308.85 418.29 308.886C417.563 308.973 416.875 309.264 416.304 309.724C415.734 310.185 415.303 310.797 415.061 311.491C414.877 312.024 414.863 312.386 414.835 312.379C414.806 312.372 414.835 312.286 414.835 312.13C414.853 311.902 414.895 311.675 414.962 311.456C415.187 310.729 415.619 310.085 416.205 309.603C416.799 309.13 417.52 308.845 418.276 308.786C418.511 308.758 418.748 308.758 418.983 308.786C419.058 308.798 419.132 308.819 419.202 308.85Z" fill="#263238"/>
<path d="M413.259 311.25C412.666 311.388 412.058 311.448 411.45 311.427C410.845 311.458 410.239 311.405 409.648 311.271C409.648 311.228 410.453 311.271 411.45 311.271C412.446 311.271 413.252 311.207 413.259 311.25Z" fill="#263238"/>
<path d="M415.676 311.228C415.676 311.228 415.613 311.399 415.528 311.583C415.443 311.768 415.4 311.938 415.358 311.931C415.315 311.924 415.294 311.74 415.393 311.52C415.492 311.299 415.648 311.193 415.676 311.228Z" fill="#263238"/>
<path d="M416.588 310.085C416.588 310.085 416.538 310.242 416.411 310.37C416.284 310.497 416.156 310.583 416.121 310.554C416.085 310.526 416.17 310.398 416.298 310.263C416.425 310.128 416.553 310.05 416.588 310.085Z" fill="#263238"/>
<path d="M417.887 309.56C417.887 309.603 417.718 309.603 417.534 309.667C417.35 309.73 417.223 309.83 417.188 309.801C417.152 309.773 417.259 309.603 417.485 309.525C417.711 309.446 417.901 309.517 417.887 309.56Z" fill="#263238"/>
<path d="M418.813 309.304C418.813 309.347 418.764 309.411 418.658 309.446C418.552 309.482 418.46 309.489 418.446 309.446C418.432 309.404 418.502 309.34 418.601 309.304C418.7 309.269 418.799 309.269 418.813 309.304Z" fill="#263238"/>
<path d="M435.936 308.396L435.469 307.352L446.571 301.75L448.529 306.01L447.822 306.372C444.79 307.955 432.318 314.218 429.957 314.53C427.35 314.906 435.936 308.396 435.936 308.396Z" fill="#455A64"/>
<path d="M448.571 305.705L448.387 305.818L447.843 306.102L445.836 307.125C444.14 307.97 441.78 309.113 439.144 310.32C436.508 311.527 434.091 312.556 432.339 313.288L430.254 314.133L429.689 314.353C429.624 314.383 429.555 314.405 429.484 314.417L429.675 314.324L430.233 314.076L432.296 313.188C434.042 312.436 436.444 311.385 439.08 310.178C441.716 308.971 444.084 307.849 445.794 307.025L447.815 306.053L448.373 305.79L448.571 305.705Z" fill="#263238"/>
<path d="M433.554 312.925C433.309 312.626 433.032 312.354 432.727 312.116C432.396 311.919 432.042 311.762 431.674 311.647C432.08 311.642 432.478 311.761 432.814 311.99C433.15 312.218 433.408 312.545 433.554 312.925Z" fill="#263238"/>
<path d="M436.105 309.716C436.105 309.716 435.837 309.631 435.554 309.447C435.271 309.262 435.066 309.084 435.088 309.049C435.109 309.013 435.356 309.134 435.639 309.319C435.921 309.503 436.126 309.681 436.105 309.716Z" fill="#263238"/>
<path d="M436.798 308.85C436.798 308.886 436.557 308.85 436.282 308.765C436.006 308.68 435.801 308.573 435.808 308.531C435.987 308.514 436.167 308.543 436.331 308.616C436.6 308.68 436.812 308.779 436.798 308.85Z" fill="#263238"/>
<path d="M436.897 307.487C436.897 307.529 436.664 307.679 436.338 307.835C436.151 307.948 435.941 308.018 435.724 308.041C435.724 307.998 435.957 307.849 436.275 307.693C436.465 307.58 436.677 307.51 436.897 307.487Z" fill="#263238"/>
<path d="M436.755 306.649C436.755 306.649 436.55 306.933 436.183 307.139C435.975 307.281 435.728 307.355 435.476 307.352C435.679 307.215 435.894 307.099 436.119 307.004C436.466 306.812 436.72 306.613 436.755 306.649Z" fill="#263238"/>
<path d="M435.307 308.907C435.091 309.056 434.852 309.166 434.6 309.234C434.322 309.315 434.039 309.374 433.752 309.411C433.578 309.433 433.403 309.433 433.229 309.411C433.12 309.403 433.018 309.352 432.946 309.269C432.913 309.218 432.896 309.159 432.896 309.099C432.896 309.038 432.913 308.979 432.946 308.928C433.161 308.667 433.46 308.488 433.791 308.424C434.122 308.359 434.466 308.412 434.762 308.573C434.938 308.666 435.092 308.794 435.215 308.95C435.3 309.063 435.335 309.134 435.328 309.141C435.154 308.946 434.945 308.785 434.713 308.666C434.464 308.548 434.187 308.506 433.914 308.545C433.753 308.562 433.596 308.611 433.452 308.689C433.309 308.767 433.183 308.872 433.081 308.999C433.003 309.134 433.081 309.248 433.271 309.269C433.434 309.283 433.597 309.283 433.759 309.269C434.04 309.241 434.319 309.191 434.593 309.12C434.996 309.006 435.307 308.886 435.307 308.907Z" fill="#263238"/>
<path d="M435.109 309.027C434.951 308.915 434.84 308.748 434.798 308.559C434.736 308.359 434.721 308.148 434.755 307.941C434.768 307.805 434.814 307.674 434.891 307.561C434.968 307.448 435.072 307.356 435.194 307.295C435.37 307.238 435.78 307.6 435.808 307.735C435.837 307.87 435.603 307.799 435.589 307.913C435.567 308.114 435.519 308.312 435.448 308.502C435.397 308.685 435.299 308.851 435.165 308.985C435.165 308.985 435.25 308.793 435.349 308.474C435.4 308.285 435.435 308.093 435.455 307.899C435.455 307.7 435.455 307.394 435.229 307.444C435.003 307.494 434.939 307.771 434.89 307.97C434.847 308.154 434.847 308.346 434.89 308.53C434.948 308.702 435.021 308.869 435.109 309.027Z" fill="#263238"/>
<path d="M446.946 302.716C446.946 302.716 446.606 302.836 446.126 303.127C445.497 303.505 444.986 304.051 444.649 304.704C444.322 305.363 444.182 306.1 444.246 306.834C444.288 307.402 444.423 307.728 444.394 307.742C444.349 307.672 444.313 307.595 444.288 307.515C444.218 307.298 444.169 307.074 444.14 306.848C444.039 306.092 444.169 305.322 444.514 304.643C444.858 303.963 445.401 303.405 446.069 303.042C446.269 302.931 446.48 302.841 446.698 302.772C446.778 302.741 446.861 302.722 446.946 302.716Z" fill="#263238"/>
<path d="M442.501 307.359C441.504 308.055 440.391 308.565 439.215 308.864C439.215 308.822 439.957 308.538 440.861 308.154C441.766 307.771 442.479 307.324 442.501 307.359Z" fill="#263238"/>
<path d="M444.698 306.344C444.734 306.344 444.698 306.521 444.698 306.727C444.698 306.933 444.698 307.104 444.698 307.118C444.698 307.132 444.557 306.962 444.557 306.727C444.557 306.493 444.663 306.323 444.698 306.344Z" fill="#263238"/>
<path d="M445.059 304.924C445.094 304.924 445.059 305.087 445.017 305.257C444.974 305.428 444.868 305.556 444.833 305.541C444.797 305.527 444.833 305.378 444.875 305.208C444.918 305.037 445.017 304.909 445.059 304.924Z" fill="#263238"/>
<path d="M446.034 303.88C446.034 303.923 445.893 303.986 445.751 304.121C445.61 304.256 445.532 304.398 445.497 304.384C445.462 304.37 445.497 304.171 445.652 304.008C445.808 303.844 446.027 303.88 446.034 303.88Z" fill="#263238"/>
<path d="M446.776 303.298C446.776 303.298 446.776 303.412 446.691 303.49C446.606 303.568 446.529 303.61 446.5 303.582C446.472 303.554 446.5 303.468 446.585 303.39C446.67 303.312 446.748 303.269 446.776 303.298Z" fill="#263238"/>
<path d="M432.876 158.784L430.812 133.437L441.412 133.629C441.412 133.629 441.9 129.887 440.338 121.694C439.377 116.667 436.049 113.586 432.31 111.754V111.683L431.985 111.598C428.908 110.21 425.622 109.348 422.262 109.049L409.224 109.198C409.224 109.198 399.267 107.92 393.776 115.084C391.656 117.832 385.077 136.639 385.077 136.639L400.73 144.208L399.267 133.778C399.267 133.778 399.564 141.34 400.525 143.718C401.055 145.053 402.645 149.199 402.645 149.199L402.44 161.71L432.876 158.784Z" fill="#FA114F"/>
<path d="M425.689 129.76L423.753 138.038H442.006L440.805 124.151L425.689 129.76Z" fill="#FA114F"/>
<path d="M442.006 138.038C441.208 137.891 440.4 137.81 439.589 137.797C438.091 137.712 436.056 137.633 433.738 137.648C431.42 137.662 429.378 137.761 427.88 137.875C427.069 137.903 426.263 138.003 425.47 138.173C426.279 138.238 427.092 138.238 427.901 138.173C429.392 138.123 431.434 138.067 433.738 138.059C436.042 138.052 438.084 138.059 439.582 138.095C440.39 138.14 441.201 138.121 442.006 138.038Z" fill="#263238"/>
<path d="M424.897 124.087C424.81 124.793 424.791 125.506 424.841 126.217C424.841 127.516 424.897 129.305 424.975 131.286C425.053 133.267 425.145 135.063 425.23 136.355C425.233 137.071 425.309 137.785 425.456 138.485C425.542 137.779 425.561 137.066 425.512 136.355C425.512 135.056 425.456 133.26 425.378 131.279C425.3 129.298 425.208 127.509 425.124 126.21C425.121 125.496 425.045 124.785 424.897 124.087Z" fill="#263238"/>
<g opacity="0.3">
<path opacity="0.3" d="M408.291 131.258C408.291 131.258 412.347 161.483 423.753 160.68C423.753 160.68 428.89 160.623 430.537 157.194V155.845L408.291 131.258Z" fill="black"/>
</g>
<g opacity="0.3">
<path opacity="0.3" d="M424.897 125.869L422.714 140.687L424.127 143.285L426.459 138.202L425.47 138.173L424.897 125.869Z" fill="black"/>
</g>
<path d="M402.581 149.214C402.445 148.992 402.341 148.754 402.27 148.504C402.093 148.042 401.86 147.368 401.563 146.523C400.856 144.321 400.273 142.081 399.818 139.813C399.364 137.544 399.076 135.245 398.956 132.933C398.913 132.046 398.899 131.329 398.913 130.803C398.895 130.547 398.912 130.289 398.963 130.037C399.019 130.037 399.062 131.13 399.21 132.877C399.409 135.167 399.732 137.445 400.178 139.7C400.701 142.341 401.33 144.705 401.811 146.402C402.037 147.19 402.228 147.865 402.383 148.419C402.48 148.675 402.546 148.942 402.581 149.214Z" fill="#263238"/>
<path d="M407.188 157.897C407.089 157.897 406.807 157.279 406.559 156.477C406.347 155.985 406.252 155.45 406.284 154.915C406.596 155.349 406.81 155.845 406.913 156.371C407.115 156.853 407.21 157.374 407.188 157.897Z" fill="#263238"/>
<path d="M408.765 157.783C408.23 156.359 408.207 154.792 408.702 153.353C408.757 154.09 408.757 154.831 408.702 155.568C408.779 156.304 408.8 157.044 408.765 157.783Z" fill="#263238"/>
<path d="M401.048 144.556C400.998 144.641 397.359 142.909 392.914 140.679C388.469 138.45 384.9 136.561 384.943 136.469C384.985 136.377 388.631 138.116 393.076 140.346C397.521 142.575 401.09 144.464 401.048 144.556Z" fill="#263238"/>
<path d="M407.464 111.647C407.542 108.055 407.563 104.278 407.563 104.278C407.563 104.278 402.977 103.39 402.178 97.3268C401.415 91.5474 403.549 77.9793 403.549 77.9793C410.248 75.4375 417.209 77.745 421.795 83.1978L420.657 112.357C420.523 115.744 417.52 118.329 413.916 118.158C410.269 117.981 407.386 115.07 407.464 111.647Z" fill="#B78876"/>
<path d="M403.196 88.821C403.189 89.0201 403.259 89.214 403.391 89.3631C403.522 89.5122 403.705 89.6053 403.902 89.6233C404.003 89.633 404.104 89.6221 404.2 89.5913C404.296 89.5604 404.385 89.5103 404.461 89.4438C404.537 89.3774 404.598 89.2961 404.642 89.2049C404.686 89.1137 404.711 89.0145 404.715 88.9133C404.721 88.715 404.651 88.522 404.52 88.374C404.388 88.226 404.205 88.1344 404.008 88.1181C403.908 88.1028 403.805 88.1095 403.707 88.1378C403.609 88.1661 403.519 88.2153 403.441 88.282C403.364 88.3488 403.302 88.4315 403.26 88.5245C403.217 88.6176 403.196 88.7187 403.196 88.821Z" fill="#263238"/>
<path d="M402.913 87.8056C403.005 87.905 403.62 87.4861 404.433 87.5145C405.245 87.5429 405.846 87.9689 405.945 87.8695C406.044 87.7701 405.902 87.6423 405.641 87.4364C405.287 87.1789 404.862 87.0375 404.425 87.0317C403.995 87.0152 403.571 87.1398 403.217 87.3867C402.956 87.5784 402.864 87.7559 402.913 87.8056Z" fill="#263238"/>
<path d="M411.612 89.3464C411.604 89.5459 411.673 89.7408 411.805 89.8903C411.937 90.0398 412.121 90.1324 412.319 90.1487C412.42 90.1642 412.523 90.1573 412.622 90.1286C412.72 90.0999 412.811 90.0501 412.888 89.9825C412.966 89.915 413.028 89.8314 413.069 89.7375C413.111 89.6436 413.133 89.5416 413.131 89.4387C413.139 89.24 413.07 89.0459 412.938 88.8976C412.806 88.7492 412.622 88.6581 412.425 88.6435C412.324 88.6282 412.221 88.6349 412.123 88.6632C412.026 88.6915 411.935 88.7407 411.858 88.8074C411.781 88.8742 411.719 88.9569 411.676 89.0499C411.634 89.143 411.612 89.2441 411.612 89.3464Z" fill="#263238"/>
<path d="M411.556 88.3312C411.648 88.4377 412.262 88.0188 413.075 88.0401C413.888 88.0614 414.488 88.4945 414.594 88.3951C414.7 88.2957 414.545 88.1679 414.283 87.9691C413.935 87.7048 413.511 87.5604 413.075 87.5573C412.643 87.5443 412.217 87.6685 411.86 87.9123C411.605 88.104 411.513 88.2815 411.556 88.3312Z" fill="#263238"/>
<path d="M408.39 94.4301C407.956 94.2802 407.505 94.1872 407.047 94.1532C406.835 94.1532 406.637 94.0751 406.609 93.9331C406.592 93.7112 406.646 93.4896 406.764 93.3012L407.429 91.7037C408.047 90.346 408.555 88.9403 408.948 87.5005C408.224 88.8051 407.605 90.1655 407.097 91.5688C406.877 92.1297 406.658 92.6693 406.453 93.1805C406.316 93.4341 406.271 93.7279 406.326 94.0112C406.354 94.0882 406.399 94.1577 406.458 94.2143C406.517 94.271 406.588 94.3132 406.665 94.3378C406.783 94.3719 406.904 94.391 407.026 94.3946C407.477 94.4644 407.935 94.4763 408.39 94.4301Z" fill="#263238"/>
<path d="M407.563 104.278C410.39 104.391 413.193 103.716 415.661 102.325C415.661 102.325 413.605 106.422 407.605 105.705L407.563 104.278Z" fill="#A36957"/>
<path d="M414.213 85.9101C414.043 86.1728 413.407 86.0592 412.7 85.9101C411.994 85.761 411.372 85.6403 411.287 85.335C411.202 85.0297 411.944 84.625 412.891 84.8167C413.838 85.0084 414.382 85.6829 414.213 85.9101Z" fill="#263238"/>
<path d="M405.966 84.7029C405.902 85.0082 405.224 85.1218 404.446 85.1573C403.669 85.1928 402.984 85.1573 402.892 84.8449C402.8 84.5325 403.457 84.0923 404.397 84.0497C405.337 84.0071 406.029 84.4118 405.966 84.7029Z" fill="#263238"/>
<path d="M408.404 96.4251C408.315 96.4038 408.221 96.4133 408.138 96.4519C408.054 96.4905 407.986 96.5561 407.945 96.6381C407.904 96.7105 407.884 96.7922 407.885 96.8751C407.885 96.958 407.908 97.0393 407.95 97.1108C407.991 97.1823 408.051 97.2416 408.123 97.2828C408.194 97.324 408.275 97.3457 408.358 97.3457C408.44 97.3457 408.522 97.324 408.593 97.2828C408.665 97.2416 408.724 97.1823 408.766 97.1108C408.808 97.0393 408.83 96.958 408.831 96.8751C408.832 96.7922 408.812 96.7105 408.771 96.6381C408.721 96.5427 408.639 96.4675 408.54 96.4249C408.441 96.3823 408.331 96.3749 408.227 96.4038" fill="#A36957"/>
<path d="M408.595 96.5104C408.595 96.4749 408.46 96.269 408.1 96.3471C407.992 96.3754 407.894 96.4316 407.814 96.5101C407.735 96.5886 407.678 96.6866 407.648 96.7944C407.61 96.9304 407.613 97.0746 407.657 97.2086C407.701 97.3427 407.784 97.4605 407.895 97.547C408.013 97.6279 408.152 97.6712 408.294 97.6712C408.437 97.6712 408.576 97.6279 408.694 97.547C408.788 97.4834 408.862 97.3942 408.907 97.2897C408.952 97.1853 408.966 97.0701 408.948 96.9577C408.877 96.5814 408.602 96.5246 408.588 96.5743C408.574 96.624 408.687 96.7518 408.665 96.9719C408.661 97.0263 408.643 97.0787 408.613 97.1245C408.584 97.1703 408.543 97.2081 408.496 97.2346C408.441 97.2664 408.379 97.2832 408.316 97.2832C408.252 97.2832 408.19 97.2664 408.135 97.2346C408.086 97.1926 408.049 97.1385 408.026 97.0775C408.004 97.0166 407.998 96.9508 408.008 96.8867C408.016 96.8307 408.038 96.7774 408.071 96.7316C408.104 96.6858 408.148 96.6489 408.199 96.624C408.397 96.5033 408.574 96.5601 408.595 96.5104Z" fill="#263238"/>
<path d="M419.053 90.3192C418.347 91.9806 416.594 93.2657 416.834 95.062C416.99 96.2193 417.732 97.2985 417.59 98.4629C417.407 99.8829 415.902 100.934 415.682 102.389C415.421 104.171 417.152 105.556 417.838 107.217C418.848 109.645 417.562 112.372 417.527 115.027C417.569 117.043 418.336 118.976 419.687 120.467C421.039 121.958 422.882 122.906 424.876 123.135C426.487 123.27 428.303 122.78 429.116 121.389C429.823 120.239 429.667 118.776 430.077 117.505C430.699 115.602 432.501 114.211 432.904 112.251C433.611 108.701 429.3 105.719 429.583 102.084C429.703 100.529 430.657 99.18 431.059 97.6748C431.316 96.6856 431.336 95.6495 431.117 94.6511C430.898 93.6528 430.448 92.7206 429.802 91.9309C428.735 90.66 427.194 89.8009 426.268 88.4377C425.244 86.8686 425.208 84.8877 424.855 83.0346C424.381 80.7822 423.345 78.6875 421.846 76.9461C420.347 75.2048 418.433 73.8737 416.283 73.0773C414.133 72.2809 411.817 72.0451 409.552 72.3921C407.287 72.7391 405.146 73.6574 403.33 75.0614C403.33 75.0614 402.305 79.7402 407.089 80.5283C411.874 81.3164 414.085 80.4076 414.622 82.3317C414.496 83.1244 414.558 83.9359 414.804 84.6998C415.049 85.4637 415.472 86.1582 416.036 86.7266C417.986 88.8424 419.845 88.388 419.053 90.3192Z" fill="#263238"/>
<path d="M426.65 122.773C426.503 122.778 426.355 122.764 426.212 122.731C425.797 122.657 425.391 122.545 424.996 122.397C423.537 121.835 422.257 120.885 421.293 119.649C420.618 118.796 420.087 117.837 419.725 116.809C419.312 115.639 419.095 114.408 419.082 113.167C419.067 111.799 419.238 110.435 419.59 109.113C419.783 108.415 420.019 107.729 420.297 107.061C420.589 106.395 420.846 105.715 421.067 105.023C421.262 104.341 421.262 103.618 421.067 102.936C420.861 102.264 420.593 101.613 420.269 100.99C419.941 100.373 419.665 99.7293 419.442 99.0662C419.224 98.41 419.173 97.7096 419.294 97.0285C419.576 95.6937 420.382 94.6997 420.862 93.6844C421.32 92.7446 421.539 91.7054 421.498 90.6598C421.434 89.1298 420.882 87.6611 419.923 86.4708C419.551 86.0539 419.152 85.6625 418.728 85.2993C419.224 85.579 419.666 85.9444 420.036 86.3785C421.065 87.567 421.671 89.0657 421.76 90.6385C421.818 91.7296 421.605 92.8181 421.138 93.8051C420.65 94.8559 419.866 95.857 419.626 97.0782C419.385 98.2994 419.958 99.5845 420.587 100.82C420.93 101.461 421.209 102.134 421.421 102.829C421.629 103.572 421.629 104.358 421.421 105.101C421.186 105.818 420.914 106.521 420.608 107.21C420.33 107.864 420.094 108.535 419.901 109.219C419.551 110.508 419.377 111.838 419.385 113.174C419.364 115.449 420.094 117.666 421.463 119.479C422.378 120.699 423.597 121.657 424.996 122.255C426.049 122.667 426.657 122.731 426.65 122.773Z" fill="#455A64"/>
<path d="M425.943 86.9467C425.599 87.0363 425.246 87.0886 424.89 87.1029C423.921 87.2071 422.942 87.1808 421.979 87.0248C421.249 86.9162 420.548 86.6625 419.917 86.2785C419.286 85.8944 418.738 85.3878 418.304 84.7883C417.9 84.0298 417.578 83.23 417.343 82.4027C417.042 81.5763 416.475 80.8743 415.732 80.4076C414.184 79.4207 412.368 79.3 410.785 79.1083C409.325 79.0351 407.908 78.5905 406.665 77.8161C405.833 77.2622 405.233 76.421 404.977 75.4518C404.915 75.1891 404.898 74.9178 404.927 74.6495C404.927 74.4649 404.97 74.3726 404.984 74.3726C404.992 74.7242 405.037 75.074 405.118 75.4163C405.41 76.3225 406.011 77.0966 406.814 77.6031C408.033 78.3178 409.41 78.7179 410.821 78.7675C412.404 78.9521 414.283 79.0444 415.937 80.0952C416.746 80.6057 417.363 81.3727 417.689 82.2749C417.911 83.0812 418.216 83.8618 418.601 84.6037C419.424 85.7381 420.657 86.5029 422.035 86.7337C422.967 86.9077 423.916 86.972 424.862 86.9254C425.223 86.905 425.584 86.9121 425.943 86.9467Z" fill="#455A64"/>
<path d="M424.191 81.1673C423.925 81.2568 423.644 81.2977 423.364 81.288C422.047 81.2969 420.778 80.7872 419.831 79.868C419.398 79.4325 419.03 78.9377 418.735 78.3983C418.099 77.3191 417.484 75.9914 416.163 75.4376C414.89 75.0085 413.534 74.8892 412.206 75.0897C411.085 75.2478 409.948 75.2478 408.828 75.0897C408.048 74.981 407.314 74.6565 406.708 74.1525C406.551 74.0152 406.413 73.8576 406.298 73.6839C406.213 73.5608 406.178 73.4969 406.192 73.4922C406.192 73.4922 406.39 73.7194 406.8 74.0389C407.404 74.4707 408.106 74.744 408.842 74.8341C409.942 74.9587 411.054 74.9396 412.149 74.7773C413.535 74.5499 414.956 74.6719 416.283 75.1323C416.966 75.4404 417.55 75.9318 417.972 76.5523C418.345 77.1058 418.687 77.6794 418.997 78.2705C419.275 78.7865 419.62 79.2639 420.021 79.6905C420.376 80.0513 420.784 80.3554 421.23 80.5922C421.887 80.937 422.61 81.1379 423.35 81.1815C423.894 81.1744 424.184 81.1318 424.191 81.1673Z" fill="#455A64"/>
<path d="M428.756 121.24C428.721 121.24 428.947 120.771 429.208 119.891C429.562 118.655 429.72 117.37 429.675 116.085C429.623 114.183 429.106 112.322 428.169 110.668C427.654 109.738 426.869 108.907 426.226 107.885C425.886 107.364 425.646 106.783 425.519 106.174C425.408 105.532 425.461 104.872 425.675 104.257C426.071 103.028 426.777 101.999 426.933 100.87C427.088 99.741 426.551 98.7399 426.014 97.7956C425.737 97.336 425.485 96.862 425.258 96.3756C425.051 95.9037 424.915 95.4036 424.855 94.8916C424.789 93.9895 424.817 93.0827 424.94 92.1866C425.166 90.9197 425.049 89.6151 424.601 88.4094C424.401 87.987 424.117 87.6101 423.767 87.3018C423.767 87.3018 423.802 87.3018 423.852 87.3444C423.935 87.3861 424.012 87.4413 424.078 87.5077C424.354 87.739 424.578 88.0271 424.735 88.3526C425.246 89.5686 425.405 90.9049 425.194 92.2079C425.097 93.0874 425.085 93.9743 425.159 94.8562C425.333 95.8481 425.724 96.789 426.304 97.6109C426.605 98.0908 426.863 98.5969 427.074 99.1232C427.297 99.6914 427.37 100.308 427.286 100.912C427.116 102.155 426.389 103.206 426.021 104.363C425.828 104.921 425.777 105.519 425.873 106.103C425.996 106.667 426.221 107.203 426.537 107.686C427.138 108.673 427.95 109.518 428.466 110.49C429.413 112.2 429.918 114.121 429.936 116.078C429.958 117.388 429.758 118.692 429.342 119.933C429.229 120.269 429.092 120.597 428.933 120.913C428.889 121.03 428.83 121.14 428.756 121.24Z" fill="#455A64"/>
<path d="M399.973 253.534C399.973 253.534 395.21 208.207 394.935 191.459C394.659 174.71 402.433 158.181 402.433 158.181L432.876 156.91C432.876 156.91 438.897 173.9 439.003 181.05C439.215 194.923 435.335 208.619 435.78 219.624L436.798 253.562" fill="#263238"/>
<path d="M437.822 197.806C437.664 197.945 437.496 198.073 437.321 198.19L437.045 198.381L436.748 198.672C436.487 198.9 436.25 199.154 436.042 199.432C435.059 200.639 434.346 202.805 433.66 205.495C433.31 206.988 432.793 208.436 432.12 209.812C431.915 210.189 431.678 210.548 431.413 210.884C431.286 211.055 431.166 211.239 431.017 211.403L430.551 211.871C429.883 212.498 429.107 212.999 428.261 213.348C426.558 214.101 424.629 214.456 422.876 215.343C421.081 216.314 419.694 217.902 418.969 219.816C418.106 221.74 417.555 223.757 416.849 225.645C416.142 227.534 415.188 229.337 413.669 230.487C412.216 231.502 410.491 232.049 408.722 232.057C407.083 232.156 405.563 232.106 404.199 232.312C402.972 232.44 401.798 232.885 400.793 233.604C400.059 234.181 399.509 234.961 399.21 235.848C399.021 236.408 398.979 237.007 399.09 237.587C399.175 237.985 399.281 238.177 399.26 238.184C399.146 238.006 399.065 237.808 399.019 237.602C398.87 237.009 398.89 236.387 399.076 235.805C399.357 234.874 399.911 234.05 400.666 233.441C401.697 232.66 402.917 232.17 404.199 232.021C405.613 231.794 407.118 231.822 408.736 231.716C410.453 231.704 412.126 231.17 413.534 230.182C414.962 228.928 416.017 227.301 416.58 225.482C417.287 223.615 417.803 221.591 418.7 219.632C419.461 217.638 420.911 215.987 422.785 214.981C424.608 214.072 426.537 213.724 428.198 213C429.011 212.662 429.757 212.181 430.402 211.58L430.848 211.133C430.989 210.977 431.109 210.799 431.236 210.636C431.486 210.313 431.705 209.969 431.894 209.606C432.571 208.249 433.094 206.82 433.455 205.346C434.162 202.663 434.932 200.469 435.971 199.255C436.178 198.978 436.415 198.725 436.678 198.502C436.791 198.403 436.89 198.303 436.989 198.225L437.278 198.04C437.455 197.951 437.637 197.873 437.822 197.806Z" fill="#FAFAFA"/>
<path d="M438.006 176.833C438.039 177.032 438.053 177.234 438.049 177.436C438.046 178.022 437.975 178.606 437.837 179.176C437.228 181.252 436.032 183.107 434.395 184.515C433.314 185.513 432.13 186.391 430.862 187.135C429.498 187.944 427.993 188.718 426.445 189.598C424.819 190.474 423.306 191.544 421.937 192.786C420.532 194.186 419.375 195.817 418.516 197.607C417.65 199.422 416.66 201.175 415.555 202.854C414.994 203.637 414.344 204.351 413.619 204.984C412.904 205.595 412.119 206.117 411.28 206.539C409.762 207.288 408.179 207.899 406.552 208.364C405.04 208.832 403.627 209.251 402.397 209.784C401.281 210.23 400.219 210.801 399.231 211.488C398.488 212.006 397.82 212.624 397.246 213.327C396.765 213.935 396.363 214.603 396.051 215.315C396.102 215.118 396.168 214.925 396.249 214.739C396.481 214.203 396.777 213.698 397.132 213.234C397.696 212.502 398.363 211.857 399.111 211.317C400.103 210.607 401.173 210.011 402.298 209.542C403.66 208.985 405.049 208.499 406.46 208.087C408.064 207.611 409.625 206.998 411.125 206.255C411.92 205.838 412.667 205.333 413.35 204.75C414.048 204.126 414.674 203.426 415.216 202.662C416.306 200.992 417.286 199.251 418.149 197.451C419.035 195.621 420.231 193.958 421.682 192.538C423.075 191.277 424.618 190.195 426.275 189.314C427.83 188.441 429.335 187.681 430.699 186.879C431.964 186.161 433.148 185.308 434.233 184.337C435.856 182.972 437.062 181.172 437.709 179.147C437.891 178.389 437.99 177.613 438.006 176.833Z" fill="#FAFAFA"/>
<path d="M395.09 193.83C395.062 193.786 395.041 193.738 395.027 193.688C394.974 193.551 394.929 193.411 394.893 193.269C394.771 192.704 394.796 192.118 394.963 191.565C395.359 190.145 396.921 188.321 399.436 187.419C400.694 186.986 402.115 186.709 403.599 186.34C404.831 186.134 405.997 185.636 406.999 184.887C408 184.137 408.809 183.157 409.358 182.03C409.76 181.202 410.111 180.351 410.411 179.481C410.963 177.591 411.714 175.766 412.651 174.035C413.724 172.335 415.353 171.062 417.259 170.436C418.992 169.871 420.76 169.42 422.551 169.087C424.15 168.778 425.699 168.248 427.152 167.51C428.383 166.804 429.444 165.834 430.261 164.67C431.468 162.99 432.156 160.99 432.24 158.919C432.243 158.16 432.193 157.4 432.091 156.647C432.305 157.385 432.403 158.152 432.381 158.919C432.354 161.035 431.688 163.092 430.473 164.82C429.646 166.022 428.562 167.024 427.3 167.752C425.828 168.517 424.255 169.069 422.629 169.392C420.854 169.73 419.103 170.183 417.386 170.748C415.557 171.35 413.993 172.572 412.962 174.206C412.04 175.913 411.299 177.712 410.75 179.573C410.445 180.459 410.084 181.325 409.669 182.165C409.25 182.972 408.717 183.713 408.086 184.366C406.845 185.503 405.317 186.277 403.669 186.602C402.171 186.986 400.758 187.227 399.521 187.639C397.069 188.477 395.514 190.202 395.097 191.579C394.926 192.111 394.88 192.675 394.963 193.227C395.023 193.424 395.066 193.626 395.09 193.83Z" fill="#FAFAFA"/>
<path d="M435.391 232.17C435.42 232.317 435.437 232.467 435.441 232.617C435.454 233.047 435.409 233.477 435.307 233.895C434.863 235.435 433.923 236.783 432.635 237.729C431.776 238.418 430.824 238.982 429.809 239.405C428.728 239.866 427.533 240.236 426.275 240.626C424.97 241.009 423.692 241.484 422.452 242.046C421.164 242.664 420.01 243.53 419.053 244.595C418.022 245.674 417.131 246.86 416.142 247.911C415.196 248.928 414.096 249.791 412.884 250.467C410.821 251.598 408.514 252.202 406.164 252.227C404.59 252.245 403.025 251.983 401.542 251.454C401.14 251.314 400.748 251.146 400.369 250.949C400.231 250.892 400.101 250.818 399.98 250.729C400.123 250.769 400.262 250.819 400.397 250.878C400.785 251.045 401.182 251.192 401.585 251.319C403.065 251.785 404.612 252.003 406.164 251.965C408.462 251.905 410.711 251.289 412.722 250.168C413.896 249.5 414.961 248.655 415.88 247.662C416.849 246.626 417.732 245.447 418.785 244.339C419.798 243.235 421.018 242.342 422.375 241.712C423.633 241.148 424.929 240.673 426.254 240.292C427.498 239.909 428.685 239.582 429.788 239.114C430.774 238.708 431.701 238.171 432.544 237.516C433.81 236.618 434.754 235.333 435.236 233.853C435.34 233.298 435.392 232.734 435.391 232.17Z" fill="#FAFAFA"/>
<path d="M431.922 138.067L426.028 138.209C425.801 139.403 425.35 140.542 424.7 141.567C419.753 132.976 415.958 121.474 415.011 116.852C415.153 116.39 415.315 115.879 415.52 115.311C415.667 114.448 415.64 113.565 415.442 112.712C415.273 111.683 414.99 110.298 414.905 109.659C414.644 107.7 414.326 107.395 413.647 107.615C412.729 107.92 414.029 113.103 413.273 113.217C412.863 113.273 412.368 111.498 412.227 110.043C412.086 108.587 411.421 104.1 410.948 103.802C410.241 103.362 409.626 104.058 409.81 105.506C409.994 106.954 410.213 111.356 409.45 111.42C408.686 111.484 408.036 104.043 408.036 104.043C408.036 104.043 408.157 102.425 407.266 102.46C405.669 102.531 406.92 110.369 407.054 111.115C407.153 111.626 406.347 111.726 406.249 111.165C406.15 110.604 405.782 103.731 404.129 103.788C402.871 103.788 405.097 110.242 404.39 111.733C403.683 113.224 403.203 106.677 402.009 106.763C401.563 106.798 401.231 106.883 402.051 110.582C402.836 113.522 403.78 116.415 404.878 119.252C406.771 129.511 415.082 162.334 428.106 156.328C435.398 152.962 438.352 138.067 438.352 138.067H431.922Z" fill="#B78876"/>
<path d="M406.8 111.612C406.855 111.626 406.914 111.626 406.969 111.612C407.055 111.586 407.128 111.53 407.176 111.455C407.224 111.379 407.243 111.289 407.231 111.2C407.231 110.76 407.146 110.121 407.047 109.29C406.882 108.289 406.773 107.279 406.722 106.266C406.722 105.669 406.722 105.03 406.757 104.356C406.768 104.013 406.803 103.671 406.863 103.333C406.92 103.014 407.132 102.623 407.379 102.687H407.422C407.669 102.687 407.867 102.872 407.945 103.17C408.032 103.479 408.065 103.801 408.043 104.122C408.189 106.11 408.442 108.089 408.8 110.05C408.856 110.313 408.913 110.583 408.997 110.852C409.035 110.99 409.082 111.126 409.139 111.257C409.175 111.33 409.215 111.401 409.259 111.47C409.291 111.522 409.334 111.566 409.386 111.598C409.437 111.63 409.495 111.649 409.556 111.655C409.659 111.643 409.756 111.601 409.835 111.534C409.914 111.468 409.972 111.378 410.001 111.278C410.062 111.14 410.107 110.994 410.135 110.845C410.19 110.559 410.228 110.27 410.248 109.979C410.313 108.796 410.296 107.61 410.199 106.429C410.109 105.84 410.086 105.242 410.128 104.647C410.154 104.39 410.278 104.153 410.474 103.987C410.52 103.96 410.57 103.942 410.623 103.936C410.675 103.93 410.728 103.935 410.778 103.951C410.838 103.966 410.895 103.99 410.948 104.022C410.984 104.049 411.011 104.086 411.026 104.129C411.248 104.704 411.412 105.302 411.513 105.911C411.64 106.536 411.746 107.182 411.845 107.828C411.944 108.474 412.036 109.127 412.114 109.787C412.174 110.469 412.283 111.145 412.439 111.811C412.522 112.151 412.629 112.486 412.757 112.812C412.829 112.995 412.929 113.165 413.054 113.316C413.101 113.379 413.166 113.427 413.24 113.455C413.314 113.482 413.394 113.488 413.471 113.472C413.542 113.449 413.606 113.407 413.657 113.351C413.708 113.295 413.744 113.227 413.76 113.153C413.844 112.79 413.87 112.416 413.838 112.045C413.838 111.69 413.796 111.335 413.76 110.994C413.711 110.398 413.654 109.809 413.633 109.226C413.615 108.94 413.615 108.653 413.633 108.367C413.647 108.241 413.678 108.117 413.725 107.998C413.74 107.959 413.761 107.923 413.789 107.892H413.881C414.347 107.7 414.502 108.353 414.63 108.879C414.757 109.404 414.806 110 414.919 110.561C415.103 111.676 415.343 112.791 415.463 113.856C415.545 114.366 415.526 114.887 415.407 115.389C415.237 115.901 415.068 116.405 414.905 116.909V116.958V117.001C415.733 120.489 416.788 123.919 418.064 127.268C419.181 130.299 420.304 132.948 421.286 135.078C422.269 137.208 423.159 138.876 423.767 139.998L424.473 141.269C424.55 141.42 424.642 141.563 424.749 141.695C424.69 141.537 424.616 141.385 424.53 141.24L423.823 139.941C423.244 138.798 422.41 137.101 421.449 134.971C420.488 132.841 419.4 130.193 418.311 127.161C417.066 123.817 416.032 120.398 415.216 116.923V117.022C415.379 116.525 415.541 116.021 415.711 115.517C415.858 114.964 415.887 114.386 415.796 113.82C415.668 112.705 415.435 111.626 415.251 110.504C415.145 109.951 415.075 109.383 414.962 108.801C414.955 108.501 414.905 108.205 414.813 107.92C414.733 107.747 414.596 107.607 414.425 107.522C414.243 107.463 414.048 107.463 413.866 107.522H413.753C413.693 107.542 413.638 107.573 413.591 107.615C413.512 107.682 413.452 107.767 413.414 107.863C413.349 108.017 413.309 108.18 413.294 108.346C413.273 108.653 413.273 108.962 413.294 109.269C413.294 109.865 413.379 110.462 413.428 111.058C413.428 111.406 413.485 111.768 413.499 112.088C413.527 112.408 413.51 112.731 413.449 113.046C413.449 113.117 413.393 113.103 413.449 113.139L413.407 113.096C413.317 112.98 413.246 112.851 413.195 112.713C413.072 112.405 412.97 112.09 412.891 111.768C412.736 111.122 412.63 110.464 412.573 109.802C412.498 109.134 412.406 108.474 412.298 107.821C412.199 107.167 412.086 106.528 411.958 105.889C411.852 105.239 411.672 104.603 411.421 103.994C411.373 103.892 411.297 103.806 411.202 103.745C411.12 103.697 411.032 103.659 410.941 103.632C410.84 103.605 410.735 103.599 410.632 103.614C410.529 103.628 410.43 103.663 410.34 103.717C410.194 103.826 410.073 103.965 409.983 104.124C409.893 104.282 409.836 104.458 409.817 104.64C409.771 104.963 409.771 105.29 409.817 105.613C409.817 105.918 409.888 106.216 409.909 106.514C410.007 107.676 410.029 108.843 409.973 110.008C409.956 110.284 409.921 110.559 409.867 110.831C409.846 110.958 409.811 111.082 409.761 111.2C409.742 111.247 409.716 111.29 409.683 111.328C409.683 111.392 409.633 111.328 409.641 111.413C409.641 111.342 409.641 111.413 409.641 111.321C409.609 111.273 409.581 111.223 409.556 111.172C409.506 111.058 409.464 110.931 409.421 110.81C409.344 110.554 409.287 110.291 409.231 110.036C408.862 108.092 408.595 106.129 408.432 104.157C408.453 103.8 408.413 103.442 408.312 103.099C408.265 102.92 408.17 102.758 408.036 102.631C407.967 102.563 407.885 102.511 407.795 102.477C407.705 102.443 407.61 102.427 407.513 102.432H407.556C407.436 102.414 407.314 102.432 407.205 102.484C407.095 102.536 407.004 102.619 406.941 102.723C406.836 102.892 406.764 103.08 406.729 103.277C406.67 103.629 406.637 103.985 406.63 104.342C406.63 105.052 406.63 105.669 406.63 106.273C406.697 107.293 406.827 108.308 407.019 109.312C407.139 110.135 407.231 110.774 407.273 111.207C407.287 111.283 407.274 111.361 407.236 111.429C407.199 111.496 407.14 111.548 407.068 111.577C406.856 111.598 406.793 111.605 406.8 111.612Z" fill="#A36957"/>
<path d="M360.775 147.843C359.396 147.814 358.019 147.974 356.683 148.319C353.03 149.285 346.733 153.119 346.472 157.854H351.051C351.051 157.854 348.486 163.335 349.235 162.824C351.192 161.504 355.079 157.535 355.079 157.535L360.775 147.843Z" fill="#B78876"/>
<path d="M423.194 65.32C423.088 65.32 422.678 61.5286 422.269 56.8C421.859 52.0714 421.604 48.28 421.703 48.28C421.802 48.28 422.219 52.0714 422.629 56.8C423.039 61.5286 423.293 65.32 423.194 65.32Z" fill="#263238"/>
<path d="M443.271 48.5711C443.349 48.6279 440.26 53.1364 436.367 58.6389C432.473 64.1414 429.243 68.5789 429.159 68.4937C429.074 68.4085 432.169 63.9284 436.063 58.4259C439.957 52.9234 443.186 48.5143 443.271 48.5711Z" fill="#263238"/>
<path d="M451.61 69.0049C451.61 69.1043 448.02 69.935 443.554 70.858C439.087 71.781 435.441 72.4484 435.42 72.349C435.399 72.2496 439.003 71.4189 443.476 70.4959C447.949 69.5729 451.56 68.9055 451.61 69.0049Z" fill="#263238"/>
<path d="M211.293 166.523L186.277 295.601L183.027 312.499L349.8 311.69C357.291 311.654 363.933 304.973 366.329 295.047L395.91 173.19C397.74 165.657 393.726 157.819 388.045 157.826L219.208 158.003C215.533 157.996 212.24 161.489 211.293 166.523Z" fill="#FA114F"/>
<g opacity="0.5">
<path opacity="0.5" d="M211.293 166.523L186.277 295.601L183.027 312.499L349.8 311.69C357.291 311.654 363.933 304.973 366.329 295.047L395.91 173.19C397.74 165.657 393.726 157.819 388.045 157.826L219.208 158.003C215.533 157.996 212.24 161.489 211.293 166.523Z" fill="black"/>
</g>
<path d="M333.822 286.84L316.156 143.839C315.449 137.981 310.792 133.608 305.301 133.629L266.576 133.75C265.137 133.766 263.716 134.077 262.4 134.662C261.084 135.248 259.901 136.097 258.923 137.158L240.549 156.803L132.853 157.386C126.274 157.421 121.215 163.683 122.084 170.712L138.485 302.879C139.192 308.729 143.849 313.096 149.326 313.089L337.052 312.712C357.955 313.145 359.955 306.947 359.955 306.947C335.956 312.279 333.822 286.875 333.822 286.84Z" fill="#FA114F"/>
<path d="M360.626 73.6838C360.397 73.587 360.201 73.4267 360.059 73.2218C359.918 73.0168 359.838 72.7757 359.828 72.5265L359.545 65.9377C359.535 65.733 359.573 65.5288 359.655 65.3411C359.737 65.1535 359.861 64.9877 360.018 64.8569C360.175 64.726 360.361 64.6336 360.559 64.5871C360.758 64.5405 360.965 64.5411 361.163 64.5887C361.71 64.7073 362.276 64.7125 362.825 64.6038C363.374 64.4952 363.896 64.275 364.357 63.9568C364.782 63.6866 365.148 63.3317 365.431 62.914C365.714 62.4964 365.909 62.0249 366.004 61.5286C366.068 61.0261 366.031 60.5158 365.895 60.028C365.759 59.5401 365.527 59.0847 365.212 58.6886C364.881 58.238 364.465 57.8574 363.987 57.5687C363.509 57.28 362.98 57.0887 362.428 57.0059C361.316 56.9438 360.216 57.2605 359.305 57.9048C358.395 58.549 357.727 59.4831 357.411 60.5559C357.305 60.881 357.079 61.1526 356.779 61.3142C356.479 61.4758 356.129 61.5149 355.801 61.4234C355.473 61.3319 355.193 61.1168 355.019 60.8229C354.845 60.5291 354.79 60.1791 354.867 59.8459C355.348 58.1586 356.392 56.689 357.824 55.6843C359.257 54.6796 360.99 54.2011 362.732 54.3292C363.639 54.4506 364.512 54.7539 365.3 55.221C366.088 55.6882 366.774 56.3096 367.318 57.0485C367.848 57.7334 368.235 58.5179 368.457 59.3557C368.679 60.1935 368.732 61.0676 368.611 61.9262C368.451 62.7836 368.117 63.5988 367.631 64.3217C367.145 65.0446 366.517 65.6598 365.785 66.1294C364.725 66.8466 363.486 67.2523 362.209 67.3009L362.428 72.3845C362.436 72.6079 362.388 72.8297 362.288 73.0294C362.189 73.2291 362.04 73.4003 361.857 73.5271C361.674 73.6538 361.462 73.732 361.24 73.7545C361.019 73.7769 360.796 73.7428 360.591 73.6554L360.626 73.6838Z" fill="#FA114F"/>
<path d="M362.562 76.3818C362.577 76.5962 362.528 76.8102 362.422 76.9968C362.316 77.1834 362.157 77.3341 361.966 77.4299C361.774 77.5256 361.559 77.5622 361.346 77.5349C361.134 77.5076 360.935 77.4176 360.774 77.2765C360.612 77.1353 360.496 76.9492 360.44 76.7418C360.384 76.5343 360.391 76.3149 360.459 76.1111C360.527 75.9074 360.654 75.7286 360.823 75.5973C360.993 75.466 361.197 75.3882 361.41 75.3736C361.552 75.363 361.695 75.3807 361.829 75.4258C361.964 75.4708 362.089 75.5423 362.196 75.6361C362.303 75.7298 362.391 75.844 362.453 75.972C362.516 76.1 362.553 76.2393 362.562 76.3818Z" fill="#FA114F"/>
<path d="M337.921 64.39C337.951 64.2495 337.973 64.1072 337.985 63.964C337.985 63.6516 338.062 63.254 338.119 62.6931C338.188 62.0044 338.304 61.3213 338.465 60.6483C338.557 60.2507 338.606 59.8105 338.748 59.3632C338.889 58.9159 339.03 58.4331 339.186 57.9432C340.004 55.5159 341.196 53.2327 342.719 51.1769C344.715 48.5148 347.245 46.3039 350.146 44.6875C351.797 43.7522 353.556 43.0226 355.383 42.5149C357.354 41.9898 359.385 41.7225 361.425 41.7197C362.499 41.7024 363.573 41.7593 364.64 41.8901C365.184 41.9469 365.721 42.0889 366.265 42.1812C366.816 42.2759 367.359 42.4087 367.891 42.5788C370.118 43.2042 372.237 44.1692 374.173 45.4401C378.478 48.2455 381.757 52.3825 383.515 57.2261C384.462 59.8206 384.94 62.5639 384.928 65.3272C384.958 68.1739 384.457 71.0009 383.452 73.6626L383.134 74.472L383.091 74.5785L383.134 74.685C384.907 78.7817 386.667 82.8074 388.328 86.7053L388.624 86.3645L378.024 82.282L377.897 82.2323L377.791 82.3317C374.987 85.0615 371.554 87.0518 367.799 88.1253C364.59 89.0129 361.23 89.2067 357.941 88.6939C354.652 88.1811 351.509 86.9733 348.719 85.1504C346.433 83.6447 344.419 81.76 342.762 79.5769C340.36 76.3903 338.803 72.6424 338.239 68.6855C338.154 67.9755 338.083 67.3791 338.02 66.8395C337.956 66.2999 338.02 65.8597 337.985 65.4834C337.949 65.1071 337.985 64.8586 337.985 64.6527C338.02 64.6473 338.052 64.6288 338.074 64.6008C338.096 64.5727 338.107 64.5373 338.104 64.5016C338.102 64.4659 338.086 64.4325 338.059 64.4082C338.033 64.3838 337.999 64.3703 337.963 64.3703C337.928 64.3703 337.893 64.3838 337.867 64.4082C337.841 64.4325 337.825 64.4659 337.822 64.5016C337.82 64.5373 337.831 64.5727 337.853 64.6008C337.875 64.6288 337.907 64.6473 337.942 64.6527C337.942 64.8586 337.942 65.1355 337.942 65.4834C337.942 65.8313 337.942 66.3141 337.942 66.8537C337.942 67.3933 338.062 68.011 338.133 68.7139C338.365 70.4216 338.77 72.1012 339.341 73.7265C340.15 75.8729 341.239 77.9022 342.578 79.7615C344.242 81.9835 346.271 83.9044 348.577 85.4415C351.402 87.31 354.59 88.5536 357.929 89.0897C361.269 89.6259 364.684 89.4423 367.947 88.5513C371.748 87.4668 375.224 85.4573 378.067 82.7009L377.834 82.7506L388.434 86.8544L388.964 87.0603L388.73 86.5136C387.048 82.6157 385.31 78.5971 383.543 74.4933V74.6992L383.868 73.8685C384.9 71.1488 385.413 68.2586 385.381 65.3485C385.403 62.5265 384.924 59.7231 383.967 57.0699C382.172 52.1298 378.819 47.9141 374.42 45.0638C372.436 43.7632 370.261 42.7811 367.976 42.1528C367.435 41.9809 366.882 41.8503 366.322 41.7623C365.771 41.6629 365.227 41.5209 364.675 41.4712C363.595 41.3364 362.506 41.2747 361.418 41.2866C359.345 41.2954 357.283 41.5771 355.284 42.1244C353.433 42.6525 351.651 43.401 349.977 44.3538C347.047 46.0099 344.501 48.2727 342.507 50.9923C340.989 53.0821 339.813 55.4023 339.023 57.8651C338.875 58.3763 338.734 58.8662 338.606 59.2851C338.494 59.7131 338.404 60.1468 338.338 60.5844C338.186 61.262 338.087 61.9504 338.041 62.6434C337.999 63.1901 337.97 63.609 337.949 63.9214C337.92 64.0757 337.91 64.2332 337.921 64.39Z" fill="#263238"/>
<path d="M193.299 251.221H200.795V256.824H193.299V269.367H186.396V256.824H161.793V252.779L185.988 215.336H193.299V251.221ZM169.586 251.221H186.396V224.725L185.58 226.209L169.586 251.221ZM240.873 246.322C240.873 254.363 239.5 260.337 236.754 264.246C234.007 268.155 229.715 270.109 223.877 270.109C218.112 270.109 213.845 268.204 211.074 264.395C208.303 260.56 206.868 254.845 206.769 247.25V238.084C206.769 230.143 208.142 224.242 210.888 220.383C213.634 216.523 217.939 214.594 223.802 214.594C229.616 214.594 233.896 216.462 236.642 220.197C239.388 223.908 240.799 229.648 240.873 237.416V246.322ZM234.007 236.934C234.007 231.12 233.191 226.889 231.558 224.242C229.925 221.57 227.34 220.234 223.802 220.234C220.289 220.234 217.729 221.558 216.121 224.205C214.513 226.852 213.684 230.922 213.634 236.414V247.398C213.634 253.237 214.476 257.554 216.158 260.35C217.865 263.12 220.438 264.506 223.877 264.506C227.266 264.506 229.777 263.195 231.41 260.572C233.067 257.95 233.933 253.818 234.007 248.178V236.934ZM278.65 251.221H286.146V256.824H278.65V269.367H271.748V256.824H247.144V252.779L271.34 215.336H278.65V251.221ZM254.937 251.221H271.748V224.725L270.931 226.209L254.937 251.221Z" fill="white" fill-opacity="0.85"/>
</svg>
