<svg width="750" height="500" viewBox="0 0 750 500" fill="none" xmlns="http://www.w3.org/2000/svg">
<path d="M219.883 122.261L107.682 197.316L218.199 362.53L330.4 287.475L219.883 122.261Z" fill="#F5F5F5"/>
<path d="M272.42 279.66L271.15 287.54L215.37 279.5L216.64 271.62L272.42 279.66Z" fill="#E0E0E0"/>
<path d="M244.33 251.55L252.33 252.7L243.46 307.62L235.45 306.46L244.33 251.55Z" fill="#E0E0E0"/>
<path d="M193 181.75C193.08 181.86 181.84 189.53 167.89 198.85C153.94 208.17 142.57 215.65 142.49 215.53C142.41 215.41 153.65 207.75 167.6 198.42C181.55 189.09 192.87 181.63 193 181.75Z" fill="#E0E0E0"/>
<path d="M234.22 171.39C234.3 171.51 215.6 184.15 192.46 199.63C169.32 215.11 150.46 227.56 150.4 227.45C150.34 227.34 169 214.68 192.17 199.2C215.34 183.72 234.14 171.27 234.22 171.39Z" fill="#E0E0E0"/>
<path d="M242.49 183.75C242.57 183.87 223.87 196.52 200.73 212C177.59 227.48 158.73 239.93 158.67 239.81C158.61 239.69 177.29 227.05 200.44 211.56C223.59 196.07 242.41 183.63 242.49 183.75Z" fill="#E0E0E0"/>
<path d="M250.76 196.12C250.84 196.24 232.14 208.89 209 224.36C185.86 239.83 167 252.3 167 252.18C167 252.06 185.61 239.41 208.76 223.93C231.91 208.45 250.68 196 250.76 196.12Z" fill="#E0E0E0"/>
<path d="M259 208.49C259.08 208.61 240.38 221.25 217.24 236.73C194.1 252.21 175.24 264.66 175.19 264.54C175.14 264.42 193.83 251.78 217 236.3C240.17 220.82 259 208.37 259 208.49Z" fill="#E0E0E0"/>
<path d="M595.069 232.965L500.838 295.999L593.652 434.748L687.883 371.713L595.069 232.965Z" fill="#F5F5F5"/>
<path d="M639.2 365.18L638.13 371.8L591.28 365.05L592.36 358.43L639.2 365.18Z" fill="#E0E0E0"/>
<path d="M615.61 341.57L622.33 342.54L614.88 388.66L608.15 387.69L615.61 341.57Z" fill="#E0E0E0"/>
<path d="M572.46 283C572.54 283.12 563.11 289.57 551.39 297.4C539.67 305.23 530.11 311.49 530.03 311.4C529.95 311.31 539.39 304.84 551.1 297C562.81 289.16 572.38 282.83 572.46 283Z" fill="#E0E0E0"/>
<path d="M607.11 274.25C607.19 274.37 591.5 285.01 572.11 298C552.72 310.99 536.85 321.45 536.77 321.33C536.69 321.21 552.38 310.57 571.77 297.57C591.16 284.57 607 274.13 607.11 274.25Z" fill="#E0E0E0"/>
<path d="M614.06 284.63C614.14 284.75 598.45 295.39 579.06 308.39C559.67 321.39 543.8 331.83 543.72 331.71C543.64 331.59 559.28 321 578.72 308C598.16 295 614 284.52 614.06 284.63Z" fill="#E0E0E0"/>
<path d="M621 295C621.08 295.12 605.38 305.76 586 318.76C566.62 331.76 550.74 342.2 550.66 342.08C550.58 341.96 566.27 331.33 585.66 318.32C605.05 305.31 620.93 294.9 621 295Z" fill="#E0E0E0"/>
<path d="M628 305.41C628.08 305.53 612.39 316.16 593 329.16C573.61 342.16 557.74 352.6 557.66 352.49C557.58 352.38 573.27 341.73 592.66 328.73C612.05 315.73 627.87 305.29 628 305.41Z" fill="#E0E0E0"/>
<path d="M445.991 128.339L343.174 73.3477L262.2 224.744L365.018 279.735L445.991 128.339Z" fill="#F5F5F5"/>
<path d="M347.42 232.37L340.9 234.6L324.34 188.83L330.87 186.59L347.42 232.37Z" fill="#E0E0E0"/>
<path d="M357.42 199.53L359.8 206.1L314.34 221.67L311.96 215.1L357.42 199.53Z" fill="#E0E0E0"/>
<path d="M389.72 132C389.64 132.15 379.22 126.73 366.43 119.9C353.64 113.07 343.35 107.4 343.43 107.25C343.51 107.1 353.94 112.52 366.73 119.35C379.52 126.18 389.8 131.84 389.72 132Z" fill="#E0E0E0"/>
<path d="M414.4 159.23C414.32 159.38 397.06 150.3 375.85 138.96C354.64 127.62 337.52 118.3 337.6 118.15C337.68 118 354.93 127.07 376.14 138.42C397.35 149.77 414.48 159.08 414.4 159.23Z" fill="#E0E0E0"/>
<path d="M408.34 170.56C408.26 170.71 391 161.64 369.79 150.29C348.58 138.94 331.46 129.63 331.54 129.48C331.62 129.33 348.87 138.41 370.08 149.75C391.29 161.09 408.42 170.41 408.34 170.56Z" fill="#E0E0E0"/>
<path d="M402.28 181.89C402.2 182.04 384.94 172.97 363.73 161.63C342.52 150.29 325.4 141 325.48 140.82C325.56 140.64 342.81 149.74 364.02 161.08C385.23 172.42 402.36 181.74 402.28 181.89Z" fill="#E0E0E0"/>
<path d="M396.22 193.22C396.14 193.37 378.88 184.3 357.67 172.96C336.46 161.62 319.33 152.3 319.42 152.15C319.51 152 336.75 161.07 357.96 172.41C379.17 183.75 396.3 193.07 396.22 193.22Z" fill="#E0E0E0"/>
<path opacity="0.2" d="M396.75 0H394.17V43.98H396.75V0Z" fill="black"/>
<path d="M335.23 97.19H455.69C455.69 97.19 444.57 44 394.55 44C350.06 44 335.23 97.19 335.23 97.19Z" fill="#FA114F"/>
<path d="M396.75 0H394.17V43.98H396.75V0Z" fill="#FA114F"/>
<path d="M663.67 439.83C663.67 439.97 534.42 440.09 375.01 440.09C215.6 440.09 86.3301 440 86.3301 439.83C86.3301 439.66 215.56 439.57 375.01 439.57C534.46 439.57 663.67 439.68 663.67 439.83Z" fill="#263238"/>
<path d="M118.29 377.2C119.981 377.322 121.629 377.783 123.138 378.556C124.646 379.33 125.984 380.399 127.07 381.7C129.23 384.318 130.759 387.397 131.54 390.7C133.23 397.02 132.19 404.49 130.39 410.78C123.55 408.33 119.32 401.03 117.39 397.19C114.39 391.13 112.6 378.33 118.26 377.19" fill="#FA114F"/>
<path d="M140.24 418.45C139.213 416.857 138.625 415.021 138.537 413.127C138.45 411.234 138.864 409.351 139.74 407.67C140.642 406.005 141.868 404.536 143.344 403.35C144.821 402.163 146.519 401.283 148.34 400.76C150.01 400.24 151.95 400.03 153.4 401C154.053 401.494 154.562 402.155 154.874 402.913C155.185 403.671 155.287 404.499 155.17 405.31C154.907 406.935 154.217 408.46 153.17 409.73C149.84 414.24 145.8 417.99 140.17 418.45" fill="#FA114F"/>
<path d="M141 439.58C140.852 439.155 140.748 438.716 140.69 438.27C140.51 437.33 140.27 436.12 139.98 434.67C139.082 430.7 138.833 426.61 139.24 422.56C139.712 418.49 141.262 414.62 143.73 411.35C144.484 410.372 145.354 409.489 146.32 408.72C146.583 408.512 146.856 408.318 147.14 408.14C147.23 408.065 147.331 408.004 147.44 407.96C146.175 409.041 145.02 410.243 143.99 411.55C141.652 414.823 140.179 418.635 139.71 422.63C139.07 427.29 139.86 431.56 140.32 434.63C140.56 436.16 140.76 437.4 140.87 438.26C140.949 438.696 140.992 439.137 141 439.58Z" fill="#263238"/>
<path d="M120.49 386.83C120.604 386.988 120.698 387.159 120.77 387.34C120.95 387.74 121.19 388.24 121.47 388.87C122.08 390.2 122.93 392.13 123.96 394.52C126.02 399.31 128.78 405.97 131.66 413.39C134.54 420.81 136.99 427.58 138.66 432.51C139.52 434.97 140.19 436.97 140.66 438.36C140.87 439.02 141.03 439.55 141.16 439.96C141.231 440.144 141.281 440.335 141.31 440.53C141.208 440.36 141.128 440.179 141.07 439.99C140.92 439.59 140.73 439.07 140.48 438.42L138.37 432.62C136.58 427.73 134.08 420.97 131.21 413.56C128.34 406.15 125.62 399.47 123.64 394.65C122.64 392.28 121.87 390.35 121.3 388.94C121.04 388.3 120.83 387.79 120.67 387.38C120.595 387.202 120.534 387.018 120.49 386.83Z" fill="#263238"/>
<path d="M132.87 425.6C130.812 422.174 127.969 419.287 124.574 417.178C121.18 415.069 117.333 413.798 113.35 413.47C111.35 413.33 108.89 413.67 107.99 415.47C107.09 417.27 108.29 419.47 109.67 420.93C112.602 423.997 116.376 426.128 120.518 427.053C124.659 427.979 128.981 427.657 132.94 426.13" fill="#FA114F"/>
<path d="M116.43 418.89C116.854 418.869 117.279 418.886 117.7 418.94C118.193 418.967 118.684 419.023 119.17 419.11C119.74 419.22 120.41 419.28 121.11 419.48C121.892 419.645 122.664 419.859 123.42 420.12C124.296 420.401 125.154 420.735 125.99 421.12C127.912 421.981 129.731 423.058 131.41 424.33C133.07 425.632 134.573 427.122 135.89 428.77C136.458 429.487 136.983 430.239 137.46 431.02C137.891 431.694 138.285 432.392 138.64 433.11C138.94 433.694 139.207 434.295 139.44 434.91C139.64 435.365 139.811 435.833 139.95 436.31C140.098 436.709 140.208 437.121 140.28 437.54C140.17 437.54 139.69 435.82 138.34 433.26C137.972 432.572 137.568 431.905 137.13 431.26C136.642 430.502 136.115 429.771 135.55 429.07C132.934 425.838 129.599 423.262 125.81 421.55C124.94 421.17 124.11 420.81 123.3 420.55C122.556 420.279 121.798 420.049 121.03 419.86C118.23 419.09 116.42 419 116.43 418.89Z" fill="#263238"/>
<path d="M570.36 105.48C567.42 106.15 565.99 109.54 565.71 112.54C565.43 115.54 565.81 118.72 564.55 121.46C563.13 124.54 559.74 126.82 559.63 130.21C559.56 132.28 560.79 134.21 560.73 136.3C560.63 139.7 557.17 142.3 556.98 145.66C556.85 148.11 558.48 150.45 558.09 152.87C557.79 154.75 556.32 156.23 555.7 158.03C554.47 161.63 556.94 165.58 560.15 167.6C561.948 168.731 563.972 169.455 566.079 169.722C568.186 169.99 570.327 169.794 572.351 169.148C574.374 168.502 576.233 167.422 577.796 165.984C579.359 164.546 580.589 162.783 581.4 160.82C583.18 156.5 582.79 151.63 582.4 146.98C581.2 132.473 580.307 117.947 579.72 103.4" fill="#263238"/>
<path d="M561.82 156.66C562.425 156.284 562.897 155.728 563.17 155.07C563.459 154.287 563.575 153.452 563.51 152.62C563.401 151.517 563.155 150.433 562.78 149.39C562.302 148.08 562.124 146.678 562.26 145.29C562.51 143.73 563.63 142.45 564.64 141.19C565.184 140.573 565.638 139.883 565.99 139.14C566.342 138.388 566.4 137.532 566.15 136.74C565.63 135.11 564.03 133.91 563.3 132.02C562.957 131.084 562.901 130.068 563.14 129.1C563.367 128.193 563.703 127.317 564.14 126.49C564.984 125.002 565.655 123.421 566.14 121.78C566.84 118.61 566.51 115.58 566.99 113.09C567.256 111.096 568.141 109.235 569.52 107.77C569.91 107.375 570.355 107.039 570.84 106.77C571.007 106.683 571.186 106.619 571.37 106.58C570.743 106.925 570.168 107.356 569.66 107.86C568.383 109.34 567.578 111.169 567.35 113.11C567.175 114.436 567.081 115.772 567.07 117.11C567.067 118.685 566.913 120.255 566.61 121.8C566.133 123.479 565.462 125.097 564.61 126.62C563.86 128.19 563.17 130.03 563.83 131.75C564.49 133.47 566.08 134.66 566.69 136.5C566.965 137.409 566.898 138.388 566.5 139.25C566.11 140.068 565.605 140.826 565 141.5C564 142.76 562.91 143.96 562.67 145.36C562.53 146.688 562.687 148.03 563.13 149.29C563.487 150.365 563.709 151.48 563.79 152.61C563.839 153.48 563.685 154.35 563.34 155.15C563.125 155.652 562.78 156.087 562.34 156.41C562.184 156.525 562.007 156.609 561.82 156.66Z" fill="#455A64"/>
<path d="M554 180.37L545 206.37L507.36 208.37L501.08 222.37L540.38 226.37C542.237 227.132 544.229 227.51 546.236 227.481C548.243 227.452 550.223 227.016 552.057 226.2C553.891 225.384 555.54 224.205 556.905 222.734C558.27 221.262 559.323 219.53 560 217.64L570.49 188.36L554 180.37Z" fill="#B78876"/>
<path d="M631.81 425.7C631.81 425.7 604.23 338.08 603.64 335.24C603.11 332.66 613.64 269.61 614.98 253.24L577.71 254.63V255L561.87 255.88L576.05 435H593.2L591.5 375.55C602.08 403.94 617.24 432.88 617.24 432.88L631.81 425.7Z" fill="#B78876"/>
<path d="M592.2 396.88C592.2 396.34 591.99 376.96 591.99 376.96C591.78 378.12 585.42 360.14 585.57 359.05C585.65 358.48 592.2 396.88 592.2 396.88Z" fill="#A36957"/>
<path d="M584.85 350.53C584.762 350.886 584.725 351.253 584.74 351.62C584.685 352.619 584.685 353.621 584.74 354.62C584.74 355.25 584.83 355.93 584.91 356.67C584.99 357.41 585.1 358.19 585.27 359C585.626 360.769 586.097 362.513 586.68 364.22C587.92 367.85 589.3 371.02 590.27 373.32C590.73 374.32 591.13 375.27 591.47 376.03C591.593 376.384 591.761 376.72 591.97 377.03C591.917 376.684 591.816 376.348 591.67 376.03C591.44 375.37 591.09 374.42 590.67 373.25C589.79 370.91 588.47 367.71 587.24 364.12C586.658 362.438 586.181 360.721 585.81 358.98C585.63 358.18 585.51 357.41 585.4 356.69C585.29 355.97 585.21 355.29 585.16 354.69C585.04 353.45 584.99 352.45 584.96 351.75C584.979 351.34 584.942 350.93 584.85 350.53Z" fill="#A36957"/>
<path d="M575.73 435.91V434.3L593.3 433.53L593.35 440.18L592.27 440.25C587.44 440.53 567.72 441.35 564.5 440.38C560.89 439.3 575.73 435.91 575.73 435.91Z" fill="#455A64"/>
<path d="M593.58 439.78C593.48 439.787 593.38 439.787 593.28 439.78L592.42 439.84L589.24 439.98C586.56 440.09 582.85 440.19 578.76 440.21C574.67 440.23 570.95 440.16 568.26 440.08L565.09 439.95H564.22H563.92C564.02 439.942 564.12 439.942 564.22 439.95H565.09L568.27 440.01C570.95 440.01 574.66 440.09 578.75 440.07C582.84 440.05 586.56 439.98 589.24 439.91L592.42 439.83H593.58V439.78Z" fill="#263238"/>
<path d="M570 440.34C569.854 439.817 569.653 439.311 569.4 438.83C569.084 438.387 568.718 437.981 568.31 437.62C568.856 437.815 569.309 438.208 569.58 438.72C569.911 439.192 570.06 439.767 570 440.34Z" fill="#263238"/>
<path d="M575.18 437.71C575.18 437.71 574.89 437.44 574.63 437.04C574.37 436.64 574.21 436.29 574.26 436.26C574.31 436.23 574.55 436.52 574.81 436.92C575.07 437.32 575.23 437.68 575.18 437.71Z" fill="#263238"/>
<path d="M576.6 437C576.6 437.05 576.28 436.86 575.98 436.59C575.68 436.32 575.46 436.07 575.5 436.03C575.54 435.99 575.82 436.17 576.12 436.44C576.42 436.71 576.64 436.91 576.6 437Z" fill="#263238"/>
<path d="M577.49 435.3C577.196 435.408 576.882 435.449 576.57 435.42C576.264 435.461 575.952 435.43 575.66 435.33C575.951 435.223 576.261 435.182 576.57 435.21C576.879 435.168 577.194 435.199 577.49 435.3Z" fill="#263238"/>
<path d="M577.79 434.14C577.492 434.333 577.145 434.438 576.79 434.44C576.45 434.485 576.105 434.436 575.79 434.3C576.12 434.244 576.455 434.218 576.79 434.22C577.12 434.161 577.455 434.134 577.79 434.14Z" fill="#263238"/>
<path d="M574.59 436.18C574.217 436.25 573.834 436.25 573.46 436.18C573.056 436.131 572.658 436.044 572.27 435.92C572.03 435.854 571.799 435.76 571.58 435.64C571.447 435.562 571.347 435.437 571.3 435.29C571.282 435.207 571.288 435.12 571.318 435.04C571.348 434.96 571.401 434.89 571.47 434.84C571.747 434.706 572.05 434.635 572.358 434.632C572.666 434.629 572.97 434.695 573.25 434.824C573.529 434.953 573.776 435.143 573.973 435.379C574.171 435.615 574.313 435.892 574.39 436.19C574.41 436.289 574.41 436.391 574.39 436.49C574.277 436.129 574.101 435.79 573.87 435.49C573.604 435.191 573.257 434.975 572.87 434.87C572.428 434.727 571.947 434.763 571.53 434.97C571.36 435.1 571.43 435.31 571.62 435.43C571.824 435.54 572.039 435.631 572.26 435.7C572.636 435.824 573.02 435.921 573.41 435.99C574.16 436.15 574.59 436.15 574.59 436.18Z" fill="#263238"/>
<path d="M574.3 436.24C574.154 436.008 574.104 435.728 574.16 435.46C574.197 435.166 574.303 434.885 574.47 434.64C574.564 434.473 574.698 434.332 574.861 434.231C575.023 434.13 575.209 434.071 575.4 434.06C575.513 434.086 575.612 434.155 575.677 434.251C575.742 434.348 575.768 434.465 575.75 434.58C575.725 434.759 575.66 434.93 575.56 435.08C575.408 435.328 575.231 435.559 575.03 435.77C574.856 435.969 574.637 436.124 574.39 436.22C574.39 436.22 574.61 436.02 574.92 435.66C575.1 435.454 575.257 435.229 575.39 434.99C575.54 434.75 575.65 434.32 575.39 434.27C575.13 434.22 574.83 434.53 574.66 434.75C574.501 434.967 574.392 435.216 574.34 435.48C574.299 435.731 574.286 435.986 574.3 436.24Z" fill="#263238"/>
<path d="M593.21 435C593.21 435 592.71 435 591.92 435.05C590.891 435.173 589.918 435.582 589.11 436.231C588.302 436.88 587.692 437.742 587.35 438.72C587.09 439.47 587.07 439.98 587.03 439.97C586.99 439.96 587.03 439.84 587.03 439.62C587.056 439.298 587.116 438.979 587.21 438.67C587.528 437.646 588.14 436.739 588.97 436.06C589.81 435.394 590.831 434.993 591.9 434.91C592.232 434.87 592.568 434.87 592.9 434.91C593.007 434.927 593.111 434.957 593.21 435Z" fill="#263238"/>
<path d="M584.8 438.38C583.961 438.575 583.101 438.659 582.24 438.63C581.384 438.673 580.526 438.599 579.69 438.41C579.69 438.35 580.83 438.41 582.24 438.41C583.65 438.41 584.79 438.32 584.8 438.38Z" fill="#263238"/>
<path d="M588.22 438.35C588.22 438.35 588.13 438.59 588.01 438.85C587.89 439.11 587.83 439.35 587.77 439.34C587.71 439.33 587.68 439.07 587.82 438.76C587.96 438.45 588.18 438.3 588.22 438.35Z" fill="#263238"/>
<path d="M589.51 436.74C589.51 436.74 589.44 436.96 589.26 437.14C589.08 437.32 588.9 437.44 588.85 437.4C588.8 437.36 588.92 437.18 589.1 436.99C589.28 436.8 589.46 436.69 589.51 436.74Z" fill="#263238"/>
<path d="M591.35 436C591.35 436.06 591.11 436.06 590.85 436.15C590.59 436.24 590.41 436.38 590.36 436.34C590.31 436.3 590.46 436.06 590.78 435.95C591.1 435.84 591.37 435.94 591.35 436Z" fill="#263238"/>
<path d="M592.66 435.64C592.66 435.7 592.59 435.79 592.44 435.84C592.29 435.89 592.16 435.9 592.14 435.84C592.12 435.78 592.22 435.69 592.36 435.64C592.5 435.59 592.64 435.59 592.66 435.64Z" fill="#263238"/>
<path d="M616.89 434.36L616.23 432.89L631.94 425L634.71 431L633.71 431.51C629.42 433.74 611.77 442.56 608.43 443C604.74 443.53 616.89 434.36 616.89 434.36Z" fill="#455A64"/>
<path d="M634.77 430.57L634.51 430.73L633.74 431.13L630.9 432.57C628.5 433.76 625.16 435.37 621.43 437.07C617.7 438.77 614.28 440.22 611.8 441.25L608.85 442.44L608.05 442.75C607.958 442.793 607.86 442.823 607.76 442.84L608.03 442.71L608.82 442.36L611.74 441.11C614.21 440.05 617.61 438.57 621.34 436.87C625.07 435.17 628.42 433.59 630.84 432.43L633.7 431.06L634.49 430.69L634.77 430.57Z" fill="#263238"/>
<path d="M613.52 440.74C613.174 440.318 612.781 439.935 612.35 439.6C611.881 439.322 611.381 439.101 610.86 438.94C611.434 438.932 611.997 439.101 612.473 439.422C612.948 439.744 613.314 440.204 613.52 440.74Z" fill="#263238"/>
<path d="M617.13 436.22C617.13 436.22 616.75 436.1 616.35 435.84C615.95 435.58 615.66 435.33 615.69 435.28C615.72 435.23 616.07 435.4 616.47 435.66C616.87 435.92 617.16 436.17 617.13 436.22Z" fill="#263238"/>
<path d="M618.11 435C618.11 435.05 617.77 435 617.38 434.88C616.99 434.76 616.7 434.61 616.71 434.55C616.963 434.526 617.218 434.568 617.45 434.67C617.83 434.76 618.13 434.9 618.11 435Z" fill="#263238"/>
<path d="M618.25 433.08C618.25 433.14 617.92 433.35 617.46 433.57C617.195 433.729 616.898 433.828 616.59 433.86C616.59 433.8 616.92 433.59 617.37 433.37C617.639 433.211 617.939 433.112 618.25 433.08Z" fill="#263238"/>
<path d="M618.05 431.9C618.05 431.9 617.76 432.3 617.24 432.59C616.945 432.79 616.596 432.895 616.24 432.89C616.527 432.697 616.831 432.533 617.15 432.4C617.64 432.13 618 431.85 618.05 431.9Z" fill="#263238"/>
<path d="M616 435.08C615.695 435.289 615.357 435.445 615 435.54C614.607 435.655 614.206 435.738 613.8 435.79C613.554 435.821 613.306 435.821 613.06 435.79C612.906 435.778 612.762 435.707 612.66 435.59C612.614 435.519 612.589 435.435 612.589 435.35C612.589 435.265 612.614 435.181 612.66 435.11C612.964 434.742 613.387 434.49 613.855 434.399C614.324 434.308 614.81 434.383 615.23 434.61C615.478 434.74 615.696 434.921 615.87 435.14C615.99 435.3 616.04 435.4 616.03 435.41C615.784 435.135 615.489 434.908 615.16 434.74C614.808 434.575 614.415 434.516 614.03 434.57C613.801 434.594 613.579 434.663 613.376 434.772C613.174 434.882 612.995 435.031 612.85 435.21C612.74 435.4 612.85 435.56 613.12 435.59C613.35 435.61 613.58 435.61 613.81 435.59C614.208 435.55 614.603 435.48 614.99 435.38C615.56 435.22 616 435.05 616 435.08Z" fill="#263238"/>
<path d="M615.72 435.25C615.497 435.092 615.34 434.857 615.28 434.59C615.192 434.309 615.171 434.011 615.22 433.72C615.237 433.528 615.303 433.344 615.412 433.184C615.52 433.025 615.668 432.896 615.84 432.81C616.09 432.73 616.67 433.24 616.71 433.43C616.75 433.62 616.42 433.52 616.4 433.68C616.368 433.964 616.3 434.243 616.2 434.51C616.127 434.767 615.989 435.001 615.8 435.19C615.8 435.19 615.92 434.92 616.06 434.47C616.132 434.204 616.182 433.934 616.21 433.66C616.21 433.38 616.21 432.95 615.89 433.02C615.57 433.09 615.48 433.48 615.41 433.76C615.349 434.02 615.349 434.29 615.41 434.55C615.493 434.792 615.596 435.026 615.72 435.25Z" fill="#263238"/>
<path d="M632.47 426.36C632.47 426.36 631.99 426.53 631.31 426.94C630.421 427.472 629.697 428.24 629.22 429.16C628.757 430.088 628.56 431.127 628.65 432.16C628.71 432.96 628.9 433.42 628.86 433.44C628.795 433.341 628.745 433.233 628.71 433.12C628.611 432.814 628.541 432.499 628.5 432.18C628.357 431.115 628.541 430.032 629.029 429.074C629.517 428.117 630.284 427.33 631.23 426.82C631.513 426.663 631.811 426.536 632.12 426.44C632.232 426.396 632.35 426.369 632.47 426.36Z" fill="#263238"/>
<path d="M626.18 432.9C624.77 433.881 623.195 434.599 621.53 435.02C621.53 434.96 622.58 434.56 623.86 434.02C625.14 433.48 626.15 432.85 626.18 432.9Z" fill="#263238"/>
<path d="M629.29 431.47C629.34 431.47 629.29 431.72 629.29 432.01C629.29 432.3 629.29 432.54 629.29 432.56C629.29 432.58 629.09 432.34 629.09 432.01C629.09 431.68 629.24 431.44 629.29 431.47Z" fill="#263238"/>
<path d="M629.8 429.47C629.85 429.47 629.8 429.7 629.74 429.94C629.68 430.18 629.53 430.36 629.48 430.34C629.43 430.32 629.48 430.11 629.54 429.87C629.6 429.63 629.74 429.45 629.8 429.47Z" fill="#263238"/>
<path d="M631.18 428C631.18 428.06 630.98 428.15 630.78 428.34C630.58 428.53 630.47 428.73 630.42 428.71C630.37 428.69 630.42 428.41 630.64 428.18C630.86 427.95 631.17 428 631.18 428Z" fill="#263238"/>
<path d="M632.23 427.18C632.23 427.18 632.23 427.34 632.11 427.45C631.99 427.56 631.88 427.62 631.84 427.58C631.8 427.54 631.84 427.42 631.96 427.31C632.08 427.2 632.19 427.14 632.23 427.18Z" fill="#263238"/>
<path d="M612.56 223.64L609.64 187.94L624.64 188.21C624.64 188.21 625.33 182.94 623.12 171.4C621.76 164.32 617.05 159.98 611.76 157.4V157.3L611.3 157.18C606.945 155.225 602.295 154.012 597.54 153.59L579.09 153.8C579.09 153.8 565 152 557.23 162.09C554.23 165.96 544.92 192.45 544.92 192.45L567.07 203.11L565 188.42C565 188.42 565.42 199.07 566.78 202.42C567.53 204.3 569.78 210.14 569.78 210.14L569.49 227.76L612.56 223.64Z" fill="#FA114F"/>
<path d="M602.39 182.76L599.65 194.42H625.48L623.78 174.86L602.39 182.76Z" fill="#FA114F"/>
<path d="M625.48 194.42C624.351 194.212 623.208 194.098 622.06 194.08C619.94 193.96 617.06 193.85 613.78 193.87C610.5 193.89 607.61 194.03 605.49 194.19C604.343 194.23 603.202 194.37 602.08 194.61C603.225 194.701 604.375 194.701 605.52 194.61C607.63 194.54 610.52 194.46 613.78 194.45C617.04 194.44 619.93 194.45 622.05 194.5C623.194 194.564 624.341 194.537 625.48 194.42Z" fill="#263238"/>
<path d="M601.27 174.77C601.147 175.765 601.12 176.77 601.19 177.77C601.19 179.6 601.27 182.12 601.38 184.91C601.49 187.7 601.62 190.23 601.74 192.05C601.745 193.058 601.852 194.063 602.06 195.05C602.183 194.055 602.21 193.05 602.14 192.05C602.14 190.22 602.06 187.69 601.95 184.9C601.84 182.11 601.71 179.59 601.59 177.76C601.586 176.755 601.479 175.753 601.27 174.77Z" fill="#263238"/>
<g opacity="0.3">
<path opacity="0.3" d="M577.77 184.87C577.77 184.87 583.51 227.44 599.65 226.31C599.65 226.31 606.92 226.23 609.25 221.4V219.5L577.77 184.87Z" fill="black"/>
</g>
<g opacity="0.3">
<path opacity="0.3" d="M601.27 177.28L598.18 198.15L600.18 201.81L603.48 194.65L602.08 194.61L601.27 177.28Z" fill="black"/>
</g>
<path d="M569.69 210.16C569.498 209.848 569.35 209.512 569.25 209.16C569 208.51 568.67 207.56 568.25 206.37C567.249 203.269 566.424 200.114 565.78 196.92C565.138 193.724 564.73 190.485 564.56 187.23C564.5 185.98 564.48 184.97 564.5 184.23C564.474 183.869 564.498 183.505 564.57 183.15C564.65 183.15 564.71 184.69 564.92 187.15C565.202 190.376 565.659 193.584 566.29 196.76C567.03 200.48 567.92 203.81 568.6 206.2C568.92 207.31 569.19 208.26 569.41 209.04C569.547 209.401 569.641 209.777 569.69 210.16Z" fill="#263238"/>
<path d="M576.21 222.39C576.07 222.39 575.67 221.52 575.32 220.39C575.019 219.697 574.885 218.944 574.93 218.19C575.371 218.801 575.675 219.5 575.82 220.24C576.107 220.919 576.24 221.653 576.21 222.39Z" fill="#263238"/>
<path d="M578.44 222.23C577.684 220.224 577.652 218.017 578.35 215.99C578.428 217.029 578.428 218.071 578.35 219.11C578.459 220.146 578.489 221.189 578.44 222.23Z" fill="#263238"/>
<path d="M567.52 203.6C567.45 203.72 562.3 201.28 556.01 198.14C549.72 195 544.67 192.34 544.73 192.21C544.79 192.08 549.95 194.53 556.24 197.67C562.53 200.81 567.58 203.47 567.52 203.6Z" fill="#263238"/>
<path d="M576.6 157.25C576.71 152.19 576.74 146.87 576.74 146.87C576.74 146.87 570.25 145.62 569.12 137.08C568.04 128.94 571.06 109.83 571.06 109.83C580.54 106.25 590.39 109.5 596.88 117.18L595.27 158.25C595.08 163.02 590.83 166.66 585.73 166.42C580.57 166.17 576.49 162.07 576.6 157.25Z" fill="#B78876"/>
<path d="M570.56 125.1C570.551 125.38 570.65 125.653 570.836 125.863C571.022 126.073 571.281 126.205 571.56 126.23C571.702 126.244 571.845 126.228 571.981 126.185C572.117 126.141 572.242 126.071 572.35 125.977C572.458 125.884 572.545 125.769 572.607 125.641C572.669 125.512 572.704 125.372 572.71 125.23C572.719 124.951 572.62 124.679 572.434 124.47C572.248 124.262 571.989 124.133 571.71 124.11C571.568 124.088 571.422 124.098 571.284 124.138C571.145 124.177 571.017 124.247 570.908 124.341C570.798 124.435 570.711 124.551 570.651 124.682C570.591 124.813 570.56 124.956 570.56 125.1Z" fill="#263238"/>
<path d="M570.16 123.67C570.29 123.81 571.16 123.22 572.31 123.26C573.46 123.3 574.31 123.9 574.45 123.76C574.59 123.62 574.39 123.44 574.02 123.15C573.519 122.787 572.918 122.588 572.3 122.58C571.691 122.557 571.091 122.732 570.59 123.08C570.22 123.35 570.09 123.6 570.16 123.67Z" fill="#263238"/>
<path d="M582.47 125.84C582.459 126.121 582.557 126.395 582.743 126.606C582.929 126.817 583.19 126.947 583.47 126.97C583.613 126.992 583.76 126.982 583.899 126.942C584.038 126.901 584.167 126.831 584.276 126.736C584.386 126.641 584.473 126.523 584.533 126.391C584.592 126.258 584.622 126.115 584.62 125.97C584.631 125.69 584.533 125.417 584.347 125.208C584.16 124.999 583.9 124.87 583.62 124.85C583.478 124.828 583.332 124.838 583.194 124.878C583.055 124.917 582.927 124.987 582.818 125.081C582.708 125.175 582.621 125.291 582.561 125.422C582.501 125.553 582.47 125.696 582.47 125.84Z" fill="#263238"/>
<path d="M582.39 124.41C582.52 124.56 583.39 123.97 584.54 124C585.69 124.03 586.54 124.64 586.69 124.5C586.84 124.36 586.62 124.18 586.25 123.9C585.757 123.528 585.158 123.324 584.54 123.32C583.928 123.302 583.327 123.477 582.82 123.82C582.46 124.09 582.33 124.34 582.39 124.41Z" fill="#263238"/>
<path d="M577.91 133C577.296 132.789 576.658 132.658 576.01 132.61C575.71 132.61 575.43 132.5 575.39 132.3C575.366 131.987 575.443 131.675 575.61 131.41L576.55 129.16C577.425 127.248 578.144 125.268 578.7 123.24C577.676 125.077 576.8 126.993 576.08 128.97C575.77 129.76 575.46 130.52 575.17 131.24C574.976 131.597 574.912 132.011 574.99 132.41C575.029 132.518 575.093 132.616 575.176 132.696C575.26 132.776 575.36 132.835 575.47 132.87C575.636 132.918 575.807 132.945 575.98 132.95C576.619 133.048 577.267 133.065 577.91 133Z" fill="#263238"/>
<path d="M576.74 146.87C580.741 147.03 584.708 146.078 588.2 144.12C588.2 144.12 585.29 149.89 576.8 148.88L576.74 146.87Z" fill="#A36957"/>
<path d="M586.15 121C585.91 121.37 585.01 121.21 584.01 121C583.01 120.79 582.13 120.62 582.01 120.19C581.89 119.76 582.94 119.19 584.28 119.46C585.62 119.73 586.39 120.68 586.15 121Z" fill="#263238"/>
<path d="M574.48 119.3C574.39 119.73 573.43 119.89 572.33 119.94C571.23 119.99 570.26 119.94 570.13 119.5C570 119.06 570.93 118.44 572.26 118.38C573.59 118.32 574.57 118.89 574.48 119.3Z" fill="#263238"/>
<path d="M577.93 135.81C577.804 135.78 577.671 135.793 577.553 135.848C577.435 135.902 577.339 135.994 577.28 136.11C577.223 136.212 577.194 136.327 577.195 136.444C577.196 136.561 577.228 136.675 577.287 136.776C577.346 136.876 577.431 136.96 577.532 137.018C577.633 137.076 577.748 137.107 577.865 137.107C577.982 137.107 578.097 137.076 578.198 137.018C578.299 136.96 578.384 136.876 578.443 136.776C578.502 136.675 578.534 136.561 578.535 136.444C578.536 136.327 578.507 136.212 578.45 136.11C578.378 135.976 578.263 135.87 578.123 135.81C577.983 135.75 577.827 135.739 577.68 135.78" fill="#A36957"/>
<path d="M578.2 135.93C578.2 135.88 578.01 135.59 577.5 135.7C577.348 135.74 577.208 135.819 577.096 135.929C576.984 136.04 576.902 136.178 576.86 136.33C576.806 136.521 576.811 136.725 576.873 136.913C576.936 137.102 577.053 137.268 577.21 137.39C577.377 137.504 577.573 137.565 577.775 137.565C577.977 137.565 578.174 137.504 578.34 137.39C578.473 137.3 578.578 137.175 578.641 137.028C578.705 136.881 578.726 136.718 578.7 136.56C578.6 136.03 578.21 135.95 578.19 136.02C578.17 136.09 578.33 136.27 578.3 136.58C578.293 136.657 578.268 136.73 578.226 136.795C578.184 136.859 578.127 136.913 578.06 136.95C577.983 136.995 577.895 137.018 577.805 137.018C577.716 137.018 577.628 136.995 577.55 136.95C577.48 136.891 577.427 136.815 577.396 136.729C577.364 136.643 577.355 136.55 577.37 136.46C577.382 136.381 577.412 136.306 577.459 136.242C577.506 136.177 577.568 136.125 577.64 136.09C577.92 135.92 578.17 136 578.2 135.93Z" fill="#263238"/>
<path d="M593 127.21C592 129.55 589.52 131.36 589.86 133.89C590.08 135.52 591.13 137.04 590.93 138.68C590.67 140.68 588.54 142.16 588.23 144.21C587.86 146.72 590.31 148.67 591.28 151.01C592.71 154.43 590.89 158.27 590.84 162.01C590.899 164.849 591.985 167.571 593.897 169.671C595.81 171.771 598.418 173.106 601.24 173.43C603.52 173.62 606.09 172.93 607.24 170.97C608.24 169.35 608.02 167.29 608.6 165.5C609.48 162.82 612.03 160.86 612.6 158.1C613.6 153.1 607.5 148.9 607.9 143.78C608.07 141.59 609.42 139.69 609.99 137.57C610.353 136.177 610.381 134.717 610.072 133.311C609.762 131.905 609.124 130.592 608.21 129.48C606.7 127.69 604.52 126.48 603.21 124.56C601.76 122.35 601.71 119.56 601.21 116.95C600.539 113.778 599.074 110.827 596.953 108.375C594.831 105.922 592.123 104.047 589.08 102.926C586.038 101.804 582.761 101.472 579.555 101.961C576.349 102.449 573.32 103.743 570.75 105.72C570.75 105.72 569.3 112.31 576.07 113.42C582.84 114.53 585.97 113.25 586.73 115.96C586.551 117.076 586.639 118.219 586.986 119.295C587.334 120.371 587.932 121.349 588.73 122.15C591.49 125.13 594.12 124.49 593 127.21Z" fill="#263238"/>
<path d="M603.75 172.92C603.542 172.927 603.333 172.907 603.13 172.86C602.544 172.756 601.968 172.599 601.41 172.39C599.345 171.598 597.534 170.261 596.17 168.52C595.214 167.319 594.463 165.967 593.95 164.52C593.366 162.872 593.058 161.138 593.04 159.39C593.019 157.463 593.262 155.542 593.76 153.68C594.033 152.697 594.367 151.731 594.76 150.79C595.173 149.853 595.537 148.895 595.85 147.92C596.125 146.959 596.125 145.941 595.85 144.98C595.557 144.034 595.179 143.117 594.72 142.24C594.256 141.37 593.865 140.464 593.55 139.53C593.242 138.606 593.17 137.619 593.34 136.66C593.74 134.78 594.88 133.38 595.56 131.95C596.208 130.626 596.517 129.162 596.46 127.69C596.369 125.535 595.587 123.466 594.23 121.79C593.704 121.203 593.14 120.651 592.54 120.14C593.241 120.534 593.868 121.048 594.39 121.66C595.847 123.334 596.705 125.445 596.83 127.66C596.913 129.197 596.61 130.73 595.95 132.12C595.26 133.6 594.15 135.01 593.81 136.73C593.47 138.45 594.28 140.26 595.17 142C595.655 142.902 596.051 143.85 596.35 144.83C596.645 145.876 596.645 146.984 596.35 148.03C596.017 149.039 595.633 150.03 595.2 151C594.807 151.921 594.473 152.866 594.2 153.83C593.704 155.645 593.458 157.519 593.47 159.4C593.439 162.604 594.473 165.727 596.41 168.28C597.705 169.999 599.43 171.347 601.41 172.19C602.9 172.77 603.76 172.86 603.75 172.92Z" fill="#455A64"/>
<path d="M602.75 122.46C602.263 122.586 601.763 122.66 601.26 122.68C599.888 122.827 598.502 122.79 597.14 122.57C596.107 122.417 595.115 122.06 594.223 121.519C593.33 120.978 592.554 120.264 591.94 119.42C591.368 118.352 590.912 117.225 590.58 116.06C590.153 114.896 589.351 113.907 588.3 113.25C586.11 111.86 583.54 111.69 581.3 111.42C579.234 111.317 577.228 110.691 575.47 109.6C574.293 108.82 573.442 107.635 573.08 106.27C572.993 105.9 572.969 105.518 573.01 105.14C573.01 104.88 573.07 104.75 573.09 104.75C573.102 105.245 573.165 105.738 573.28 106.22C573.694 107.496 574.543 108.587 575.68 109.3C577.405 110.307 579.353 110.87 581.35 110.94C583.59 111.2 586.25 111.33 588.59 112.81C589.735 113.529 590.608 114.609 591.07 115.88C591.383 117.016 591.816 118.115 592.36 119.16C593.525 120.758 595.27 121.835 597.22 122.16C598.538 122.405 599.881 122.496 601.22 122.43C601.73 122.401 602.241 122.411 602.75 122.46Z" fill="#455A64"/>
<path d="M600.27 114.32C599.893 114.446 599.497 114.504 599.1 114.49C597.236 114.503 595.441 113.785 594.1 112.49C593.488 111.877 592.966 111.18 592.55 110.42C591.65 108.9 590.78 107.03 588.91 106.25C587.108 105.646 585.189 105.478 583.31 105.76C581.724 105.983 580.116 105.983 578.53 105.76C577.427 105.607 576.388 105.15 575.53 104.44C575.308 104.247 575.113 104.025 574.95 103.78C574.83 103.607 574.78 103.517 574.8 103.51C574.8 103.51 575.08 103.83 575.66 104.28C576.515 104.888 577.508 105.273 578.55 105.4C580.107 105.576 581.68 105.549 583.23 105.32C585.191 105 587.201 105.172 589.08 105.82C590.046 106.254 590.873 106.946 591.47 107.82C591.997 108.6 592.481 109.407 592.92 110.24C593.314 110.967 593.802 111.639 594.37 112.24C594.872 112.748 595.449 113.176 596.08 113.51C597.01 113.996 598.033 114.279 599.08 114.34C599.85 114.33 600.26 114.27 600.27 114.32Z" fill="#455A64"/>
<path d="M606.73 170.76C606.68 170.76 607 170.1 607.37 168.86C607.871 167.119 608.094 165.31 608.03 163.5C607.957 160.82 607.226 158.2 605.9 155.87C605.17 154.56 604.06 153.39 603.15 151.95C602.669 151.216 602.329 150.399 602.15 149.54C601.992 148.636 602.068 147.707 602.37 146.84C602.93 145.11 603.93 143.66 604.15 142.07C604.37 140.48 603.61 139.07 602.85 137.74C602.458 137.093 602.101 136.425 601.78 135.74C601.487 135.075 601.295 134.371 601.21 133.65C601.116 132.379 601.156 131.102 601.33 129.84C601.65 128.056 601.484 126.218 600.85 124.52C600.567 123.925 600.165 123.394 599.67 122.96C599.67 122.96 599.72 122.96 599.79 123.02C599.908 123.079 600.016 123.156 600.11 123.25C600.501 123.576 600.818 123.982 601.04 124.44C601.763 126.153 601.989 128.035 601.69 129.87C601.552 131.109 601.535 132.358 601.64 133.6C601.887 134.997 602.44 136.322 603.26 137.48C603.687 138.156 604.051 138.869 604.35 139.61C604.665 140.41 604.768 141.278 604.65 142.13C604.41 143.88 603.38 145.36 602.86 146.99C602.587 147.776 602.515 148.619 602.65 149.44C602.824 150.234 603.143 150.99 603.59 151.67C604.44 153.06 605.59 154.25 606.32 155.62C607.66 158.028 608.375 160.734 608.4 163.49C608.432 165.335 608.147 167.171 607.56 168.92C607.4 169.393 607.206 169.854 606.98 170.3C606.919 170.464 606.835 170.619 606.73 170.76Z" fill="#455A64"/>
<path d="M566 357.09C566 357.09 559.26 293.25 558.87 269.66C558.48 246.07 569.48 222.79 569.48 222.79L612.56 221C612.56 221 621.08 244.93 621.23 255C621.53 274.54 616.04 293.83 616.67 309.33L618.11 357.13" fill="#263238"/>
<path d="M619.56 278.6C619.335 278.795 619.098 278.976 618.85 279.14L618.46 279.41L618.04 279.82C617.67 280.14 617.335 280.499 617.04 280.89C615.65 282.59 614.64 285.64 613.67 289.43C613.175 291.532 612.443 293.572 611.49 295.51C611.2 296.041 610.866 296.546 610.49 297.02C610.31 297.26 610.14 297.52 609.93 297.75L609.27 298.41C608.325 299.293 607.227 299.998 606.03 300.49C603.62 301.55 600.89 302.05 598.41 303.3C595.869 304.667 593.906 306.903 592.88 309.6C591.66 312.31 590.88 315.15 589.88 317.81C588.88 320.47 587.53 323.01 585.38 324.63C583.324 326.059 580.883 326.829 578.38 326.84C576.06 326.98 573.91 326.91 571.98 327.2C570.243 327.38 568.583 328.007 567.16 329.02C566.121 329.832 565.343 330.931 564.92 332.18C564.652 332.968 564.593 333.812 564.75 334.63C564.87 335.19 565.02 335.46 564.99 335.47C564.829 335.219 564.714 334.941 564.65 334.65C564.439 333.816 564.467 332.939 564.73 332.12C565.127 330.809 565.912 329.648 566.98 328.79C568.439 327.69 570.165 326.999 571.98 326.79C573.98 326.47 576.11 326.51 578.4 326.36C580.83 326.344 583.198 325.591 585.19 324.2C587.211 322.434 588.703 320.143 589.5 317.58C590.5 314.95 591.23 312.1 592.5 309.34C593.576 306.533 595.628 304.207 598.28 302.79C600.86 301.51 603.59 301.02 605.94 300C607.091 299.524 608.147 298.847 609.06 298L609.69 297.37C609.89 297.15 610.06 296.9 610.24 296.67C610.593 296.215 610.904 295.73 611.17 295.22C612.128 293.309 612.869 291.296 613.38 289.22C614.38 285.44 615.47 282.35 616.94 280.64C617.233 280.25 617.568 279.895 617.94 279.58C618.1 279.44 618.24 279.3 618.38 279.19L618.79 278.93C619.04 278.805 619.297 278.694 619.56 278.6Z" fill="#FAFAFA"/>
<path d="M619.82 249.06C619.866 249.341 619.886 249.625 619.88 249.91C619.877 250.736 619.776 251.558 619.58 252.36C618.719 255.285 617.027 257.898 614.71 259.88C613.181 261.286 611.504 262.523 609.71 263.57C607.78 264.71 605.65 265.8 603.46 267.04C601.16 268.273 599.017 269.781 597.08 271.53C595.093 273.502 593.456 275.798 592.24 278.32C591.014 280.876 589.614 283.345 588.05 285.71C587.255 286.812 586.336 287.819 585.31 288.71C584.299 289.57 583.187 290.306 582 290.9C579.852 291.956 577.613 292.816 575.31 293.47C573.17 294.13 571.17 294.72 569.43 295.47C567.851 296.098 566.348 296.903 564.95 297.87C563.898 298.6 562.953 299.471 562.14 300.46C561.46 301.318 560.892 302.259 560.45 303.26C560.521 302.983 560.615 302.712 560.73 302.45C561.058 301.695 561.478 300.983 561.98 300.33C562.778 299.299 563.721 298.39 564.78 297.63C566.184 296.629 567.697 295.79 569.29 295.13C571.216 294.345 573.182 293.661 575.18 293.08C577.45 292.41 579.658 291.547 581.78 290.5C582.906 289.913 583.962 289.202 584.93 288.38C585.917 287.501 586.802 286.515 587.57 285.44C589.112 283.087 590.499 280.635 591.72 278.1C592.975 275.522 594.666 273.181 596.72 271.18C598.691 269.405 600.875 267.88 603.22 266.64C605.42 265.41 607.55 264.34 609.48 263.21C611.269 262.198 612.945 260.998 614.48 259.63C616.777 257.707 618.483 255.173 619.4 252.32C619.657 251.252 619.797 250.159 619.82 249.06Z" fill="#FAFAFA"/>
<path d="M559.09 273C559.05 272.938 559.02 272.871 559 272.8C558.925 272.607 558.862 272.41 558.81 272.21C558.639 271.415 558.673 270.588 558.91 269.81C559.47 267.81 561.68 265.24 565.24 263.97C567.02 263.36 569.03 262.97 571.13 262.45C572.874 262.161 574.523 261.459 575.941 260.403C577.359 259.348 578.504 257.968 579.28 256.38C579.849 255.214 580.346 254.016 580.77 252.79C581.552 250.128 582.614 247.557 583.94 245.12C585.459 242.724 587.764 240.932 590.46 240.05C592.913 239.254 595.415 238.62 597.95 238.15C600.213 237.716 602.404 236.968 604.46 235.93C606.202 234.935 607.704 233.569 608.86 231.93C610.568 229.563 611.541 226.746 611.66 223.83C611.665 222.76 611.594 221.69 611.45 220.63C611.752 221.669 611.89 222.749 611.86 223.83C611.821 226.809 610.88 229.707 609.16 232.14C607.989 233.833 606.455 235.244 604.67 236.27C602.586 237.347 600.361 238.125 598.06 238.58C595.548 239.057 593.07 239.695 590.64 240.49C588.052 241.338 585.839 243.06 584.38 245.36C583.076 247.764 582.027 250.298 581.25 252.92C580.818 254.168 580.307 255.387 579.72 256.57C579.128 257.707 578.373 258.751 577.48 259.67C575.724 261.272 573.562 262.361 571.23 262.82C569.11 263.36 567.11 263.7 565.36 264.28C561.89 265.46 559.69 267.89 559.1 269.83C558.858 270.578 558.793 271.372 558.91 272.15C558.995 272.428 559.055 272.712 559.09 273Z" fill="#FAFAFA"/>
<path d="M616.12 327C616.161 327.208 616.184 327.418 616.19 327.63C616.209 328.236 616.145 328.841 616 329.43C615.372 331.598 614.042 333.497 612.22 334.83C611.003 335.799 609.657 336.594 608.22 337.19C606.69 337.84 605 338.36 603.22 338.91C601.372 339.45 599.565 340.118 597.81 340.91C595.987 341.781 594.353 343 593 344.5C591.54 346.02 590.28 347.69 588.88 349.17C587.541 350.604 585.985 351.818 584.27 352.77C581.351 354.363 578.085 355.214 574.76 355.25C572.533 355.274 570.319 354.905 568.22 354.16C567.65 353.964 567.095 353.726 566.56 353.45C566.365 353.369 566.18 353.265 566.01 353.14C566.212 353.195 566.409 353.266 566.6 353.35C567.149 353.585 567.71 353.792 568.28 353.97C570.375 354.627 572.565 354.934 574.76 354.88C578.012 354.796 581.195 353.928 584.04 352.35C585.702 351.409 587.209 350.218 588.51 348.82C589.88 347.36 591.13 345.7 592.62 344.14C594.053 342.584 595.78 341.327 597.7 340.44C599.481 339.645 601.315 338.977 603.19 338.44C604.95 337.9 606.63 337.44 608.19 336.78C609.585 336.209 610.897 335.452 612.09 334.53C613.882 333.264 615.218 331.455 615.9 329.37C616.047 328.589 616.121 327.795 616.12 327Z" fill="#FAFAFA"/>
<path d="M611.21 194.46L602.87 194.66C602.549 196.342 601.911 197.947 600.99 199.39C593.99 187.29 588.62 171.09 587.28 164.58C587.48 163.93 587.71 163.21 588 162.41C588.208 161.195 588.17 159.95 587.89 158.75C587.65 157.3 587.25 155.35 587.13 154.45C586.76 151.69 586.31 151.26 585.35 151.57C584.05 152 585.89 159.3 584.82 159.46C584.24 159.54 583.54 157.04 583.34 154.99C583.14 152.94 582.2 146.62 581.53 146.2C580.53 145.58 579.66 146.56 579.92 148.6C580.18 150.64 580.49 156.84 579.41 156.93C578.33 157.02 577.41 146.54 577.41 146.54C577.41 146.54 577.58 144.26 576.32 144.31C574.06 144.41 575.83 155.45 576.02 156.5C576.16 157.22 575.02 157.36 574.88 156.57C574.74 155.78 574.22 146.1 571.88 146.18C570.1 146.18 573.25 155.27 572.25 157.37C571.25 159.47 570.57 150.25 568.88 150.37C568.25 150.42 567.78 150.54 568.94 155.75C570.051 159.889 571.386 163.965 572.94 167.96C575.62 182.41 587.38 228.64 605.81 220.18C616.13 215.44 620.31 194.46 620.31 194.46H611.21Z" fill="#B78876"/>
<path d="M575.66 157.2C575.739 157.22 575.821 157.22 575.9 157.2C576.021 157.163 576.124 157.084 576.192 156.978C576.26 156.872 576.287 156.745 576.27 156.62C576.27 156 576.15 155.1 576.01 153.93C575.776 152.52 575.622 151.097 575.55 149.67C575.55 148.83 575.55 147.93 575.6 146.98C575.615 146.497 575.665 146.016 575.75 145.54C575.83 145.09 576.13 144.54 576.48 144.63H576.54C576.89 144.63 577.17 144.89 577.28 145.31C577.404 145.745 577.451 146.198 577.42 146.65C577.626 149.45 577.983 152.238 578.49 155C578.57 155.37 578.65 155.75 578.77 156.13C578.823 156.324 578.89 156.515 578.97 156.7C579.021 156.803 579.078 156.903 579.14 157C579.185 157.073 579.246 157.135 579.319 157.18C579.392 157.225 579.475 157.252 579.56 157.26C579.706 157.244 579.843 157.185 579.955 157.091C580.068 156.996 580.149 156.871 580.19 156.73C580.276 156.534 580.34 156.33 580.38 156.12C580.458 155.717 580.511 155.309 580.54 154.9C580.631 153.234 580.608 151.563 580.47 149.9C580.343 149.07 580.31 148.228 580.37 147.39C580.406 147.028 580.582 146.694 580.86 146.46C580.924 146.422 580.995 146.398 581.07 146.389C581.144 146.38 581.219 146.388 581.29 146.41C581.375 146.43 581.456 146.464 581.53 146.51C581.581 146.548 581.619 146.6 581.64 146.66C581.955 147.471 582.186 148.312 582.33 149.17C582.51 150.05 582.66 150.96 582.8 151.87C582.94 152.78 583.07 153.7 583.18 154.63C583.266 155.59 583.419 156.542 583.64 157.48C583.758 157.959 583.908 158.431 584.09 158.89C584.192 159.147 584.334 159.387 584.51 159.6C584.577 159.689 584.669 159.756 584.773 159.795C584.878 159.834 584.991 159.843 585.1 159.82C585.201 159.786 585.292 159.728 585.364 159.649C585.436 159.57 585.486 159.474 585.51 159.37C585.628 158.859 585.665 158.332 585.62 157.81C585.62 157.31 585.56 156.81 585.51 156.33C585.44 155.49 585.36 154.66 585.33 153.84C585.305 153.437 585.305 153.033 585.33 152.63C585.35 152.452 585.393 152.277 585.46 152.11C585.481 152.055 585.511 152.004 585.55 151.96H585.68C586.34 151.69 586.56 152.61 586.74 153.35C586.92 154.09 586.99 154.93 587.15 155.72C587.41 157.29 587.75 158.86 587.92 160.36C588.036 161.078 588.008 161.812 587.84 162.52C587.6 163.24 587.36 163.95 587.13 164.66V164.73V164.79C588.301 169.703 589.794 174.533 591.6 179.25C593.18 183.52 594.77 187.25 596.16 190.25C597.55 193.25 598.81 195.6 599.67 197.18L600.67 198.97C600.778 199.183 600.909 199.384 601.06 199.57C600.976 199.348 600.872 199.134 600.75 198.93L599.75 197.1C598.93 195.49 597.75 193.1 596.39 190.1C595.03 187.1 593.49 183.37 591.95 179.1C590.188 174.39 588.725 169.574 587.57 164.68V164.82C587.8 164.12 588.03 163.41 588.27 162.7C588.478 161.921 588.519 161.106 588.39 160.31C588.21 158.74 587.88 157.22 587.62 155.64C587.47 154.86 587.37 154.06 587.21 153.24C587.2 152.819 587.129 152.401 587 152C586.886 151.756 586.692 151.558 586.45 151.44C586.193 151.356 585.917 151.356 585.66 151.44H585.5C585.415 151.467 585.337 151.511 585.27 151.57C585.159 151.664 585.073 151.784 585.02 151.92C584.928 152.136 584.871 152.366 584.85 152.6C584.82 153.033 584.82 153.467 584.85 153.9C584.85 154.74 584.97 155.58 585.04 156.42C585.04 156.91 585.12 157.42 585.14 157.87C585.18 158.321 585.156 158.775 585.07 159.22C585.07 159.32 584.99 159.3 585.07 159.35L585.01 159.29C584.883 159.127 584.781 158.944 584.71 158.75C584.535 158.317 584.392 157.873 584.28 157.42C584.06 156.509 583.91 155.583 583.83 154.65C583.723 153.71 583.593 152.78 583.44 151.86C583.3 150.94 583.14 150.04 582.96 149.14C582.809 148.224 582.554 147.328 582.2 146.47C582.131 146.327 582.024 146.205 581.89 146.12C581.773 146.052 581.649 145.999 581.52 145.96C581.377 145.922 581.229 145.914 581.083 145.934C580.937 145.955 580.797 146.004 580.67 146.08C580.464 146.234 580.292 146.429 580.164 146.653C580.037 146.876 579.957 147.124 579.93 147.38C579.865 147.834 579.865 148.296 579.93 148.75C579.93 149.18 580.03 149.6 580.06 150.02C580.199 151.656 580.229 153.3 580.15 154.94C580.127 155.33 580.076 155.717 580 156.1C579.971 156.279 579.921 156.453 579.85 156.62C579.824 156.686 579.787 156.747 579.74 156.8C579.74 156.89 579.67 156.8 579.68 156.92C579.68 156.82 579.68 156.92 579.68 156.79C579.636 156.722 579.596 156.652 579.56 156.58C579.49 156.42 579.43 156.24 579.37 156.07C579.26 155.71 579.18 155.34 579.1 154.98C578.578 152.242 578.201 149.478 577.97 146.7C578 146.197 577.942 145.693 577.8 145.21C577.734 144.958 577.599 144.729 577.41 144.55C577.312 144.455 577.196 144.382 577.069 144.334C576.942 144.285 576.806 144.264 576.67 144.27H576.73C576.561 144.245 576.388 144.271 576.233 144.344C576.078 144.417 575.949 144.534 575.86 144.68C575.711 144.918 575.609 145.183 575.56 145.46C575.476 145.956 575.429 146.457 575.42 146.96C575.42 147.96 575.42 148.83 575.42 149.68C575.515 151.117 575.698 152.546 575.97 153.96C576.14 155.12 576.27 156.02 576.33 156.63C576.349 156.737 576.331 156.847 576.278 156.942C576.225 157.036 576.141 157.11 576.04 157.15C575.74 157.18 575.65 157.19 575.66 157.2Z" fill="#A36957"/>
<path d="M510.53 208.23C508.579 208.188 506.63 208.414 504.74 208.9C499.57 210.26 490.66 215.66 490.29 222.33H496.77C496.77 222.33 493.14 230.05 494.2 229.33C496.97 227.47 502.47 221.88 502.47 221.88L510.53 208.23Z" fill="#B78876"/>
<path d="M598.86 92C598.71 92 598.13 86.66 597.55 80C596.97 73.34 596.61 68 596.75 68C596.89 68 597.48 73.34 598.06 80C598.64 86.66 599 92 598.86 92Z" fill="#263238"/>
<path d="M627.27 68.4099C627.38 68.4899 623.01 74.8399 617.5 82.5899C611.99 90.3399 607.42 96.5899 607.3 96.4699C607.18 96.3499 611.56 90.0399 617.07 82.2899C622.58 74.5399 627.15 68.3299 627.27 68.4099Z" fill="#263238"/>
<path d="M639.07 97.1901C639.07 97.3301 633.99 98.5001 627.67 99.8001C621.35 101.1 616.19 102.04 616.16 101.9C616.13 101.76 621.23 100.59 627.56 99.2901C633.89 97.9901 639 97.0501 639.07 97.1901Z" fill="#263238"/>
<path d="M299 234.54L263.6 416.34L259 440.14L495 439C505.6 438.95 515 429.54 518.39 415.56L560.25 243.93C562.84 233.32 557.16 222.28 549.12 222.29L310.2 222.54C305 222.53 300.34 227.45 299 234.54Z" fill="#FA114F"/>
<g opacity="0.5">
<path opacity="0.5" d="M299 234.54L263.6 416.34L259 440.14L495 439C505.6 438.95 515 429.54 518.39 415.56L560.25 243.93C562.84 233.32 557.16 222.28 549.12 222.29L310.2 222.54C305 222.53 300.34 227.45 299 234.54Z" fill="black"/>
</g>
<path d="M472.39 404L447.39 202.59C446.39 194.34 439.8 188.18 432.03 188.21L377.23 188.38C375.193 188.403 373.183 188.84 371.321 189.666C369.459 190.491 367.785 191.687 366.4 193.18L340.4 220.85L188 221.67C178.69 221.72 171.53 230.54 172.76 240.44L195.97 426.59C196.97 434.83 203.56 440.98 211.31 440.97L476.96 440.44C506.54 441.05 509.37 432.32 509.37 432.32C475.41 439.83 472.39 404.05 472.39 404Z" fill="#FA114F"/>
<g opacity="0.5">
<path opacity="0.5" d="M357.84 363.72L348.88 373.34L279.88 311.26L288.84 301.64L357.84 363.72Z" fill="white"/>
<path opacity="0.5" d="M345.13 299.51L355.03 308.42L292.6 375.47L282.69 366.56L345.13 299.51Z" fill="white"/>
</g>
<path d="M510.32 103.78C509.996 103.644 509.718 103.418 509.518 103.129C509.318 102.841 509.204 102.501 509.19 102.15L508.79 92.8699C508.776 92.5816 508.829 92.2939 508.945 92.0297C509.062 91.7654 509.238 91.5319 509.46 91.3476C509.682 91.1632 509.944 91.0331 510.226 90.9676C510.507 90.902 510.799 90.9029 511.08 90.9699C511.854 91.137 512.655 91.1442 513.432 90.9912C514.209 90.8382 514.947 90.5281 515.6 90.0799C516.201 89.6993 516.718 89.1994 517.119 88.6112C517.52 88.023 517.796 87.3589 517.93 86.6599C518.021 85.9522 517.968 85.2334 517.776 84.5463C517.583 83.8592 517.255 83.2178 516.81 82.6599C516.341 82.0253 515.752 81.4892 515.076 81.0826C514.4 80.6759 513.65 80.4065 512.87 80.2899C511.297 80.2025 509.74 80.6485 508.451 81.5559C507.163 82.4633 506.218 83.779 505.77 85.2899C505.621 85.7478 505.3 86.1303 504.876 86.3579C504.452 86.5855 503.956 86.6406 503.492 86.5117C503.028 86.3828 502.631 86.0799 502.385 85.666C502.139 85.2521 502.062 84.7592 502.17 84.2899C502.85 81.9134 504.328 79.8435 506.355 78.4285C508.382 77.0134 510.835 76.3395 513.3 76.5199C514.583 76.6909 515.819 77.118 516.934 77.776C518.049 78.4339 519.02 79.3092 519.79 80.3499C520.539 81.3145 521.087 82.4195 521.401 83.5995C521.716 84.7795 521.79 86.0106 521.62 87.2199C521.393 88.4275 520.921 89.5757 520.233 90.5939C519.545 91.612 518.656 92.4785 517.62 93.1399C516.12 94.15 514.367 94.7214 512.56 94.7899L512.87 101.95C512.882 102.265 512.814 102.577 512.672 102.858C512.531 103.14 512.321 103.381 512.062 103.559C511.802 103.738 511.502 103.848 511.189 103.879C510.876 103.911 510.56 103.863 510.27 103.74L510.32 103.78Z" fill="#FA114F"/>
<path d="M513.06 107.58C513.081 107.882 513.012 108.183 512.862 108.446C512.712 108.709 512.487 108.921 512.216 109.056C511.945 109.191 511.64 109.243 511.34 109.204C511.039 109.166 510.757 109.039 510.529 108.84C510.301 108.641 510.137 108.379 510.057 108.087C509.978 107.795 509.987 107.486 510.084 107.199C510.18 106.912 510.36 106.66 510.599 106.475C510.839 106.29 511.128 106.18 511.43 106.16C511.631 106.145 511.832 106.17 512.023 106.233C512.214 106.297 512.39 106.398 512.542 106.53C512.693 106.662 512.817 106.823 512.906 107.003C512.995 107.183 513.048 107.379 513.06 107.58Z" fill="#FA114F"/>
<path d="M478.19 90.69C478.233 90.4921 478.263 90.2917 478.28 90.09C478.28 89.65 478.39 89.09 478.47 88.3C478.568 87.33 478.732 86.3679 478.96 85.42C479.09 84.86 479.16 84.24 479.36 83.61C479.56 82.98 479.76 82.3 479.98 81.61C481.138 78.1912 482.825 74.9754 484.98 72.08C487.804 68.3306 491.385 65.2166 495.49 62.94C497.826 61.6226 500.315 60.595 502.9 59.88C505.69 59.1404 508.564 58.764 511.45 58.76C512.97 58.7356 514.491 58.8157 516 59C516.77 59.08 517.53 59.28 518.3 59.41C519.079 59.5433 519.847 59.7305 520.6 59.97C523.752 60.8508 526.75 62.2099 529.49 64C535.582 67.9512 540.223 73.7781 542.71 80.6C544.05 84.2542 544.727 88.118 544.71 92.01C544.751 96.0194 544.042 100.001 542.62 103.75L542.17 104.89L542.11 105.04L542.17 105.19C544.68 110.96 547.17 116.63 549.52 122.12L549.94 121.64L534.94 115.89L534.76 115.82L534.61 115.96C530.642 119.805 525.784 122.608 520.47 124.12C515.929 125.37 511.175 125.643 506.521 124.921C501.867 124.199 497.419 122.497 493.47 119.93C490.236 117.809 487.386 115.155 485.04 112.08C481.641 107.592 479.439 102.313 478.64 96.74C478.52 95.74 478.42 94.9 478.33 94.14C478.24 93.38 478.33 92.76 478.28 92.23C478.23 91.7 478.28 91.35 478.28 91.06C478.33 91.0524 478.375 91.0263 478.407 90.9868C478.438 90.9474 478.453 90.8975 478.449 90.8472C478.446 90.7969 478.423 90.7499 478.386 90.7156C478.349 90.6813 478.3 90.6622 478.25 90.6622C478.2 90.6622 478.151 90.6813 478.114 90.7156C478.077 90.7499 478.054 90.7969 478.051 90.8472C478.047 90.8975 478.062 90.9474 478.094 90.9868C478.125 91.0263 478.17 91.0524 478.22 91.06C478.22 91.35 478.22 91.74 478.22 92.23C478.22 92.72 478.22 93.4 478.22 94.16C478.22 94.92 478.39 95.79 478.49 96.78C478.819 99.1852 479.392 101.551 480.2 103.84C481.345 106.863 482.885 109.721 484.78 112.34C487.135 115.47 490.006 118.175 493.27 120.34C497.267 122.972 501.778 124.723 506.504 125.478C511.23 126.233 516.062 125.975 520.68 124.72C526.058 123.192 530.977 120.362 535 116.48L534.67 116.55L549.67 122.33L550.42 122.62L550.09 121.85C547.71 116.36 545.25 110.7 542.75 104.92V105.21L543.21 104.04C544.669 100.209 545.395 96.1387 545.35 92.04C545.381 88.0653 544.704 84.1169 543.35 80.38C540.809 73.4221 536.065 67.4845 529.84 63.47C527.031 61.6382 523.954 60.2549 520.72 59.37C519.955 59.1278 519.173 58.944 518.38 58.82C517.6 58.68 516.83 58.48 516.05 58.41C514.521 58.2201 512.981 58.1333 511.44 58.15C508.508 58.1624 505.589 58.5591 502.76 59.33C500.141 60.0738 497.619 61.128 495.25 62.47C491.104 64.8025 487.501 67.9896 484.68 71.82C482.531 74.7634 480.867 78.0313 479.75 81.5C479.54 82.22 479.34 82.91 479.16 83.5C479.001 84.1028 478.874 84.7137 478.78 85.33C478.566 86.2844 478.425 87.2539 478.36 88.23C478.3 89 478.26 89.59 478.23 90.03C478.188 90.2473 478.175 90.4692 478.19 90.69Z" fill="#263238"/>
</svg>
