<?xml version="1.0" encoding="UTF-8" standalone="no"?>
<svg width="20px" height="20px" viewBox="0 0 20 20" version="1.1" xmlns="http://www.w3.org/2000/svg" xmlns:xlink="http://www.w3.org/1999/xlink">
    <!-- Generator: Sketch 44.1 (41455) - http://www.bohemiancoding.com/sketch -->
    <title>Page 1</title>
    <desc>Created with Sketch.</desc>
    <defs>
        <polygon id="path-1" points="8.09608707 17.2972973 0.131119527 17.2972973 0.131119527 0.0418095053 8.09608707 0.0418095053 8.09608707 17.2972973"></polygon>
        <polygon id="path-3" points="17.3675676 0.0136473431 17.3675676 7.99438212 0.0958564712 7.99438212 0.0958564712 0.0136473431 17.3675676 0.0136473431"></polygon>
    </defs>
    <g id="Page-1" stroke="none" stroke-width="1" fill="none" fill-rule="evenodd">
        <g id="web-mobile" transform="translate(-283.000000, -22.000000)">
            <g id="Group-7" transform="translate(277.000000, 16.000000)">
                <g id="Page-1" transform="translate(6.000000, 6.000000)">
                    <path d="M12.6575676,1.20302703 C12.3532432,0.290054054 11.3759459,-0.206162162 10.462973,0.0819459459 C9.55,0.38627027 9.05378378,1.36302703 9.34189189,2.276 L13.8424324,16.1138378 C14.1472973,16.9624865 15.0759459,17.443027 15.957027,17.1868108 C16.8856757,16.9143784 17.4462162,15.9376216 17.1418919,15.0408649 C17.1418919,15.0084324 12.6575676,1.20302703 12.6575676,1.20302703" id="Fill-1" fill="#ECB32D"></path>
                    <g id="Group-5" transform="translate(2.162162, 2.216541)">
                        <mask id="mask-2" fill="white">
                            <use xlink:href="#path-1"></use>
                        </mask>
                        <g id="Clip-4"></g>
                        <path d="M3.52827027,1.2447027 C3.22394595,0.33172973 2.24718919,-0.164486486 1.33421622,0.123621622 C0.421243243,0.427945946 -0.0755135135,1.4047027 0.213135135,2.31767568 L4.71367568,16.1555135 C5.01745946,17.0041622 5.94664865,17.4847027 6.82772973,17.2284865 C7.75691892,16.9560541 8.31745946,15.9792973 8.01259459,15.0825405 C8.01259459,15.0501081 3.52827027,1.2447027 3.52827027,1.2447027" id="Fill-3" fill="#63C1A0" mask="url(#mask-2)"></path>
                    </g>
                    <g id="Group-8" transform="translate(2.162162, 9.243568)">
                        <mask id="mask-4" fill="white">
                            <use xlink:href="#path-3"></use>
                        </mask>
                        <g id="Clip-7"></g>
                        <path d="M16.1647568,3.41059459 C17.0777297,3.10627027 17.5739459,2.12951351 17.2858378,1.21654054 C16.9820541,0.303567568 16.0047568,-0.192648649 15.0923243,0.0954594595 L1.23827027,4.61221622 C0.389081081,4.916 -0.0914594595,5.84518919 0.164756757,6.72627027 C0.437189189,7.65491892 1.41394595,8.21545946 2.31124324,7.91113514 C2.34313514,7.91113514 16.1647568,3.41059459 16.1647568,3.41059459" id="Fill-6" fill="#E01A59" mask="url(#mask-4)"></path>
                    </g>
                    <path d="M6.28297297,16.5783243 C7.17972973,16.2902162 8.34891892,15.9058919 9.59810811,15.5053514 C9.31,14.6080541 8.92567568,13.4388649 8.52513514,12.1896757 L5.21,13.2631892 L6.28297297,16.5783243 Z" id="Fill-9" fill="#331333"></path>
                    <path d="M13.2656757,14.3042703 C14.5159459,13.9037297 15.6845946,13.5194054 16.5813514,13.2307568 C16.2932432,12.334 15.9089189,11.1642703 15.5078378,9.91562162 L12.1932432,10.9885946 L13.2656757,14.3042703 Z" id="Fill-11" fill="#D61F27"></path>
                    <path d="M16.0528649,5.6872973 C16.9658378,5.38297297 17.4620541,4.40621622 17.1739459,3.49324324 C16.8701622,2.58027027 15.8923243,2.08351351 14.9798919,2.37216216 L1.14205405,6.8727027 C0.292864865,7.17702703 -0.187135135,8.10567568 0.0690810811,8.98675676 C0.340972973,9.91540541 1.31827027,10.4759459 2.21502703,10.1721622 C2.24691892,10.1721622 16.0528649,5.6872973 16.0528649,5.6872973" id="Fill-13" fill="#89D3DF"></path>
                    <path d="M4.02475676,9.59567568 C4.92151351,9.30702703 6.0907027,8.9227027 7.33989189,8.52216216 C6.93989189,7.27297297 6.55556757,6.10378378 6.26691892,5.20702703 L2.95178378,6.28 L4.02475676,9.59567568 Z" id="Fill-15" fill="#258B74"></path>
                    <path d="M10.9916216,7.33713514 C12.2413514,6.93659459 13.4105405,6.55227027 14.3072973,6.26416216 C13.9067568,5.01497297 13.5224324,3.84578378 13.2337838,2.94848649 L9.91918919,4.022 L10.9916216,7.33713514 Z" id="Fill-17" fill="#819C3C"></path>
                </g>
            </g>
        </g>
    </g>
</svg>