<?xml version="1.0" encoding="utf-8"?>
<!-- Generator: Adobe Illustrator 16.0.4, SVG Export Plug-In . SVG Version: 6.00 Build 0)  -->
<!DOCTYPE svg PUBLIC "-//W3C//DTD SVG 1.1//EN" "http://www.w3.org/Graphics/SVG/1.1/DTD/svg11.dtd">
<svg version="1.1" id="Layer_1" xmlns="http://www.w3.org/2000/svg" xmlns:xlink="http://www.w3.org/1999/xlink" x="0px" y="0px"
	 width="259.438px" height="259.438px" viewBox="355.051 151.733 259.438 259.438"
	 enable-background="new 355.051 151.733 259.438 259.438" xml:space="preserve">
	<g>

			<rect x="466.515" y="264.021" transform="matrix(-0.9482 0.3176 -0.3176 -0.9482 1033.887 394.7541)" fill="#2D333A" width="36.502" height="35.259"/>
		<g>

				<rect x="466.515" y="264.021" transform="matrix(-0.9482 0.3176 -0.3176 -0.9482 1033.887 394.7541)" fill="#2D333A" width="36.502" height="35.259"/>
			<path fill="#2D333A" d="M603.615,245.778c-26.756-89.185-65.334-109.926-154.519-83.17
				c-89.186,26.755-109.926,65.333-83.171,154.519c26.756,89.186,65.334,109.926,154.519,83.17
				C609.63,373.541,630.37,334.963,603.615,245.778z M558.607,303.645l-16.8,5.6l5.808,17.423
				c2.281,7.052-1.452,14.726-8.504,17.007c-1.452,0.415-3.111,0.83-4.563,0.622c-5.393-0.207-10.577-3.733-12.444-9.126
				l-5.808-17.422l-34.637,11.615l5.808,17.422c2.281,7.052-1.452,14.726-8.504,17.008c-1.452,0.414-3.111,0.829-4.562,0.622
				c-5.393-0.208-10.578-3.733-12.445-9.126l-5.807-17.423l-16.801,5.601c-1.451,0.415-3.11,0.829-4.562,0.622
				c-5.393-0.207-10.578-3.733-12.444-9.126c-2.281-7.052,1.452-14.726,8.504-17.007l16.8-5.601l-11.2-33.393l-16.8,5.6
				c-1.452,0.415-3.111,0.83-4.563,0.623c-5.393-0.208-10.577-3.734-12.444-9.126c-2.281-7.052,1.452-14.726,8.504-17.007l16.8-5.6
				l-5.808-17.422c-2.281-7.052,1.452-14.726,8.504-17.007c7.052-2.282,14.727,1.452,17.008,8.503l5.808,17.422l34.637-11.615
				l-5.808-17.422c-2.281-7.052,1.452-14.726,8.504-17.007c7.052-2.282,14.726,1.452,17.008,8.503l5.807,17.422l16.801-5.6
				c7.052-2.281,14.726,1.452,17.007,8.504s-1.452,14.726-8.504,17.007l-16.8,5.6l11.2,33.393l16.8-5.6
				c7.052-2.281,14.727,1.452,17.008,8.503C569.393,293.689,565.659,301.363,558.607,303.645z"/>
		</g>
	</g>
</svg>
