<?xml version="1.0" encoding="UTF-8" standalone="no"?>
<svg width="140px" height="140px" viewBox="0 0 140 140" version="1.1" xmlns="http://www.w3.org/2000/svg" xmlns:xlink="http://www.w3.org/1999/xlink">
    <!-- Generator: Sketch 45.2 (43514) - http://www.bohemiancoding.com/sketch -->
    <title>Group 10</title>
    <desc>Created with Sketch.</desc>
    <defs></defs>
    <g id="Assets" stroke="none" stroke-width="1" fill="none" fill-rule="evenodd">
        <g id="hfla-logo">
            <g id="Group-10" transform="translate(-7.000000, -7.000000)">
                <path d="M108.348382,17.1034439 C125.624959,17.1034439 137.025362,28.2734927 137.025362,45.7804243 L137.025362,108.348382 C137.025362,125.855313 125.624959,137.025362 108.348382,137.025362 L45.7804243,137.025362 C28.5038471,137.025362 17.1034439,125.855313 17.1034439,108.348382 L17.1034439,45.7804243 C17.1034439,28.2734927 28.5038471,17.1034439 45.7804243,17.1034439 L108.348382,17.1034439 Z" id="Base-Copy-4" fill="#FA114F" transform="translate(77.064403, 77.064403) rotate(-20.000000) translate(-77.064403, -77.064403) "></path>
                <path d="M64.9263194,47.1760742 L64.9263194,39.7794816 C64.9263194,39.0697872 64.4058769,38.7070545 63.9012053,38.7070545 C63.3807628,38.7070545 62.8760912,39.0697872 62.8760912,39.7794816 L62.8760912,42.1293585 L59.8165198,42.1293585 L59.8165198,39.7794816 C59.8165198,39.0697872 59.2960773,38.7070545 58.7914057,38.7070545 C58.2709632,38.7070545 57.7662916,39.0697872 57.7662916,39.7794816 L57.7662916,47.1760742 C57.7662916,47.8857686 58.2867341,48.2485013 58.7914057,48.2485013 C59.3118483,48.2485013 59.8165198,47.8857686 59.8165198,47.1760742 L59.8165198,44.1795868 L62.8760912,44.1795868 L62.8760912,47.1760742 C62.8760912,47.8857686 63.3965337,48.2485013 63.9012053,48.2485013 C64.4216479,48.2485013 64.9263194,47.8857686 64.9263194,47.1760742 Z M76.478567,47.2391581 C76.478567,47.8542266 75.9423535,48.2327303 75.4219109,48.2327303 C74.9803233,48.2327303 74.5545066,47.9646235 74.4441097,47.396868 L74.160232,46.0090212 L71.7315001,46.0090212 C71.6211032,46.4821508 71.5264773,46.9552804 71.4160803,47.42841 C71.2899125,47.9803945 70.8798668,48.2169593 70.4540502,48.2169593 C69.9336076,48.2169593 69.3973941,47.8542266 69.3973941,47.2391581 C69.3973941,47.1603032 69.4131651,47.0499063 69.4289361,46.9552804 L71.0060347,40.1737562 C71.2268285,39.1959551 71.9996068,38.7228255 73.024721,38.7228255 C74.4283388,38.7228255 74.9172393,39.5113748 75.1538041,40.6626568 L76.447025,47.0025934 C76.462796,47.0814483 76.478567,47.1603032 76.478567,47.2391581 Z M73.7344154,43.958793 L73.1666598,40.7730537 C73.1666598,40.7730537 73.1508889,40.6784278 73.0404919,40.6784278 C72.945866,40.6784278 72.945866,40.7257408 72.9143241,40.7572827 L72.1888587,43.958793 L73.7344154,43.958793 Z M88.2989213,41.1042444 C88.2989213,41.0253895 88.2831503,40.9623055 88.2673793,40.8834506 C88.0150436,39.5271458 86.9110745,38.8016804 85.6493956,38.8016804 L83.9145871,38.8016804 C82.4478854,38.8016804 81.2335194,39.8110235 81.2335194,41.4827481 L81.2335194,45.4570367 C81.2335194,47.1287612 82.4478854,48.1381044 83.9145871,48.1381044 L85.6493956,48.1381044 C86.9110745,48.1381044 88.0150436,47.412639 88.2673793,46.0563342 C88.2831503,45.9774792 88.2989213,45.9143953 88.2989213,45.8355404 C88.2989213,45.2047009 87.7627078,44.8419682 87.2422652,44.8419682 C86.8006776,44.8419682 86.374861,45.094304 86.2644641,45.6778305 C86.2171511,45.9301663 86.0909832,46.0878761 85.6493956,46.0878761 L83.9145871,46.0878761 C83.4887705,46.0878761 83.2837476,45.8986243 83.2837476,45.4570367 L83.2837476,41.4827481 C83.2837476,41.0411605 83.4887705,40.8519086 83.9145871,40.8519086 L85.6493956,40.8519086 C86.0909832,40.8519086 86.2171511,41.0096185 86.2644641,41.2619543 C86.374861,41.8454808 86.8006776,42.0978166 87.2422652,42.0978166 C87.7627078,42.0978166 88.2989213,41.7350839 88.2989213,41.1042444 Z M100.198131,47.1760742 C100.198131,46.9710514 100.135047,46.7502576 99.9615658,46.5294638 L97.2016432,43.0913887 L99.5199782,40.441863 C99.70923,40.2210692 99.7880849,40.0002754 99.7880849,39.7794816 C99.7880849,39.2117261 99.2834134,38.7228255 98.7314288,38.7228255 C98.4790931,38.7228255 98.1952153,38.8332224 97.9744215,39.1013291 L94.8675372,42.744427 L94.8675372,39.7794816 C94.8675372,39.1013291 94.3470946,38.7543674 93.8424231,38.7543674 C93.3219805,38.7543674 92.8173089,39.1013291 92.8173089,39.7794816 L92.8173089,47.1760742 C92.8173089,47.8542266 93.3377515,48.2011883 93.8424231,48.2011883 C94.3628656,48.2011883 94.8675372,47.8542266 94.8675372,47.1760742 L94.8675372,45.7093725 L95.8295673,44.6527164 L98.3529252,47.8226846 C98.573719,48.1065624 98.8733677,48.2169593 99.1414745,48.2169593 C99.693459,48.2169593 100.198131,47.7438297 100.198131,47.1760742 Z M64.9736324,55.58201 C64.9736324,55.0615674 64.6266707,54.5568959 63.9485183,54.5568959 L59.3591612,54.5568959 C58.8071767,54.5568959 58.3340471,55.0300254 58.3340471,55.58201 L58.3340471,62.9470606 C58.3340471,63.625213 58.8544897,63.9721748 59.3591612,63.9721748 C59.8796038,63.9721748 60.3842753,63.625213 60.3842753,62.9470606 L60.3842753,60.202909 L61.7721221,60.202909 C62.4502746,60.202909 62.7972363,59.6824664 62.7972363,59.1777949 C62.7972363,58.6573523 62.4502746,58.1526808 61.7721221,58.1526808 L60.3842753,58.1526808 L60.3842753,56.6071241 L63.9485183,56.6071241 C64.6266707,56.6071241 64.9736324,56.0866815 64.9736324,55.58201 Z M76.52588,61.2280231 C76.52588,62.8839767 75.358827,63.9090908 73.8448123,63.9090908 L72.1100037,63.9090908 C70.643302,63.9090908 69.4289361,62.8997477 69.4289361,61.2280231 L69.4289361,57.2537345 C69.4289361,55.58201 70.643302,54.5726668 72.1100037,54.5726668 L73.8448123,54.5726668 C75.358827,54.5726668 76.52588,55.597781 76.52588,57.2537345 L76.52588,61.2280231 Z M74.4756517,61.2280231 L74.4756517,57.2537345 C74.4756517,56.7963759 74.2863999,56.6228951 73.8448123,56.6228951 L72.1100037,56.6228951 C71.6841871,56.6228951 71.4791643,56.8121469 71.4791643,57.2537345 L71.4791643,61.2280231 C71.4791643,61.6696107 71.6841871,61.8588626 72.1100037,61.8588626 L73.8448123,61.8588626 C74.2863999,61.8588626 74.4756517,61.6853817 74.4756517,61.2280231 Z M88.1569824,57.6637802 C88.1569824,58.6731233 87.7153948,59.4459016 87.0214714,59.9032603 L88.0150436,62.6158699 C88.0623565,62.7578088 88.0938985,62.8682057 88.0938985,62.9943736 C88.0938985,63.5936711 87.557685,63.9879457 87.0214714,63.9879457 C86.6429677,63.9879457 86.2644641,63.7829229 86.0909832,63.3097933 L85.0027852,60.3448479 L83.1102668,60.3448479 L83.1102668,62.9628316 C83.1102668,63.640984 82.6055952,63.9879457 82.0851527,63.9879457 C81.5804811,63.9879457 81.0600386,63.640984 81.0600386,62.9628316 L81.0600386,55.597781 C81.0600386,55.0457964 81.5331681,54.5726668 82.0851527,54.5726668 L85.4759148,54.5726668 C86.9899294,54.5726668 88.1569824,55.597781 88.1569824,57.2537345 L88.1569824,57.6637802 Z M86.1067542,57.6637802 L86.1067542,57.2537345 C86.1067542,56.7963759 85.9175024,56.6228951 85.4759148,56.6228951 L83.1102668,56.6228951 L83.1102668,58.2946196 L85.4759148,58.2946196 C85.9175024,58.2946196 86.1067542,58.1211388 86.1067542,57.6637802 Z" id="HACK-FOR-Copy" fill="#030C2A"></path>
                <g id="Group-Copy-14" transform="translate(76.937720, 91.403742) rotate(-8.000000) translate(-76.937720, -91.403742) translate(52.937720, 69.403742)" fill="#FFFFFF">
                    <path d="M17.9835112,36.9644334 C19.6199147,36.6006344 19.6805223,36.2368354 19.4380921,34.9029058 C19.316877,33.6902425 19.0138393,32.5382124 18.5289791,31.3255491 C18.0441188,30.1128859 17.3168283,29.8703532 15.9834625,29.9916195 C13.4985535,30.173519 11.4378973,30.4160517 9.07420333,30.901117 C11.86215,22.1699414 15.3773871,12.1654695 17.9229037,5.49582146 C18.4683715,4.1012587 18.3471564,3.55556023 17.1956132,2.58542961 C16.0440701,1.61529899 14.1652364,0.827067868 12.8318706,0.402635723 C11.5591123,-0.0217964223 10.7712144,0.160103068 10.165139,1.61529899 C6.89233201,9.74014291 2.10433661,25.0803333 0.346718044,32.5988456 C-0.0169271762,34.1753078 0.346718044,35.3879711 1.07400848,36.2974686 C2.10433661,37.5101318 2.77101951,38.1770966 3.55891749,38.9046946 C4.28620793,39.6929257 4.8922833,40.2992574 7.3771923,39.5716594 C10.6499993,38.6015288 14.5288816,37.7526645 17.9835112,36.9644334 Z" id="L"></path>
                    <path d="M37.2957814,33.1512187 C33.4168991,33.8181835 29.0531564,34.5457815 25.9621721,35.3946458 C24.6288063,37.8806055 23.4166555,40.2452989 22.3863274,42.3068264 C21.7196445,43.5801229 21.2347842,43.7013892 20.083241,43.1556907 C18.9316978,42.5493591 18.0225848,42.1249269 17.1740792,41.1547963 C16.3255737,40.1846657 16.3255737,39.3358014 17.0528642,37.6380728 C21.0529616,28.7249978 29.113764,13.9305059 34.1441895,5.86629512 C34.992695,4.47173235 36.1442382,3.44096857 38.3261096,3.62286806 C42.0837768,3.86540072 44.023218,4.65363185 46.0232667,5.32059664 C47.4778476,5.86629512 47.6596702,6.83642573 47.4172401,8.35225482 C46.3263044,15.9920334 44.9323311,30.6046259 44.1444331,41.8217611 C44.0838255,43.2163239 43.7201803,43.5801229 42.3868145,43.5801229 C41.0534487,43.5801229 39.841298,43.5194897 38.6291472,43.0344244 C37.4169965,42.5493591 37.0533513,41.8217611 37.0533513,40.0027662 C37.0533513,38.062505 37.1745664,35.7584448 37.2957814,33.1512187 Z M30.6289524,26.6028371 C32.9926463,26.2390381 35.4169478,25.8752391 37.7200342,25.6933396 C38.0836794,20.9033197 38.5685397,15.9314003 39.1140075,11.6264457 C36.7503136,15.6282345 33.6593292,21.0852192 30.6289524,26.6028371 Z" id="A"></path>
                </g>
            </g>
        </g>
    </g>
</svg>