<svg width="75" height="75" viewBox="0 0 75 75" fill="none" xmlns="http://www.w3.org/2000/svg">
<path d="M37.5 0C16.8211 0 0 16.821 0 37.5C0 58.1789 16.8211 74.9999 37.5 74.9999C58.1789 74.9999 75 58.1789 75 37.5C75 16.821 58.1789 0 37.5 0ZM37.5 13.3928C44.8649 13.3928 50.8929 19.4209 50.8929 26.7858C50.8929 34.1507 44.8649 40.1786 37.5 40.1786C30.1351 40.1786 24.1071 34.1507 24.1071 26.7858C24.1071 19.4209 30.1351 13.3928 37.5 13.3928V13.3928ZM26.7857 45.5358H48.2143C55.5275 45.5358 61.4997 51.4596 61.5967 58.7506C55.7118 65.4216 47.1186 69.6427 37.5 69.6427C27.8814 69.6427 19.2882 65.4216 13.4033 58.7506C13.5003 51.4596 19.4724 45.5358 26.7857 45.5358V45.5358Z" fill="#BDBDBD"/>
</svg>
