<svg width="22" height="22" viewBox="0 0 22 22" fill="none" xmlns="http://www.w3.org/2000/svg">
<path d="M3.4 21.16H6.12C8.2 21.16 9.32 20.04 9.32 17.96V13.96C9.32 11.88 8.2 10.76 6.12 10.76H5.08C5.32 8.92 6.12 6.76 7.16 4.84C8.12 2.92 8.2 1.64 7.08 1.08C5.88 0.439999 4.76 0.919997 3.64 2.52C1.72 5.48 0.2 9.24 0.2 13.16V17.96C0.2 20.04 1.32 21.16 3.4 21.16ZM15.4 21.16H18.12C20.2 21.16 21.32 20.04 21.32 17.96V13.96C21.32 11.88 20.2 10.76 18.12 10.76H17.08C17.32 8.92 18.12 6.76 19.16 4.84C20.12 2.92 20.2 1.64 19.08 1.08C17.88 0.439999 16.76 0.919997 15.64 2.52C13.72 5.48 12.2 9.24 12.2 13.16V17.96C12.2 20.04 13.32 21.16 15.4 21.16Z" fill="#BDBDBD"/>
</svg>
