<!-- The MIT License (MIT)

Copyright (c) 2015-present Ionic (http://ionic.io/)

Permission is hereby granted, free of charge, to any person obtaining a copy
of this software and associated documentation files (the "Software"), to deal
in the Software without restriction, including without limitation the rights
to use, copy, modify, merge, publish, distribute, sublicense, and/or sell
copies of the Software, and to permit persons to whom the Software is
furnished to do so, subject to the following conditions:

The above copyright notice and this permission notice shall be included in
all copies or substantial portions of the Software.

THE SOFTWARE IS PROVIDED "AS IS", WITHOUT WARRANTY OF ANY KIND, EXPRESS OR
IMPLIED, INCLUDING BUT NOT LIMITED TO THE WARRANTIES OF MERCHANTABILITY,
FITNESS FOR A PARTICULAR PURPOSE AND NONINFRINGEMENT. IN NO EVENT SHALL THE
AUTHORS OR COPYRIGHT HOLDERS BE LIABLE FOR ANY CLAIM, DAMAGES OR OTHER
LIABILITY, WHETHER IN AN ACTION OF CONTRACT, TORT OR OTHERWISE, ARISING FROM,
OUT OF OR IN CONNECTION WITH THE SOFTWARE OR THE USE OR OTHER DEALINGS IN
THE SOFTWARE. -->

<svg xmlns="http://www.w3.org/2000/svg" viewBox="0 0 725 725"><path d="M256 48C141.6 48 48 141.6 48 256s93.6 208 208 208 208-93.6 208-208S370.4 48 256 48zm0 62.4c34.3 0 62.4 28.1 62.4 62.4s-28.1 62.4-62.4 62.4-62.4-28.1-62.4-62.4 28.1-62.4 62.4-62.4zm0 300.4c-52 0-97.8-27-124.8-66.6 1-41.6 83.2-64.5 124.8-64.5s123.8 22.9 124.8 64.5c-27 39.5-72.8 66.6-124.8 66.6z"/></svg>