<svg class="icon icon-hack-nights nav-icon icon-projects icon-press" width="20" height="20" xmlns="http://www.w3.org/2000/svg"><path d="M10 13.516c.969 0 1.797-.344 2.484-1.032A3.386 3.386 0 0 0 13.516 10c0-.969-.344-1.797-1.032-2.484A3.386 3.386 0 0 0 10 6.484c-.969 0-1.797.344-2.484 1.032A3.386 3.386 0 0 0 6.484 10c0 .969.344 1.797 1.032 2.484A3.386 3.386 0 0 0 10 13.516zm7.453-2.532l2.11 1.641c.218.156.25.375.093.656l-2.015 3.469c-.125.219-.328.281-.61.188l-2.484-.985c-.656.469-1.219.797-1.688.985l-.375 2.625c-.062.28-.218.421-.468.421H7.984c-.25 0-.406-.14-.468-.422l-.375-2.625a7.673 7.673 0 0 1-1.688-.984l-2.484.985c-.282.093-.485.03-.61-.188L.344 13.281c-.157-.281-.125-.5.094-.656l2.109-1.64A7.574 7.574 0 0 1 2.5 10c0-.438.016-.766.047-.984L.437 7.375C.22 7.219.188 7 .345 6.719L2.359 3.25c.125-.219.328-.281.61-.188l2.484.985c.656-.469 1.219-.797 1.688-.984L7.516.437c.062-.28.218-.421.468-.421h4.032c.25 0 .406.14.468.421l.375 2.626c.594.25 1.157.578 1.688.984l2.484-.984c.282-.094.485-.032.61.187l2.015 3.469c.157.281.125.5-.093.656l-2.11 1.64c.031.22.047.547.047.985 0 .438-.016.766-.047.984z" fill="#046AFA" fill-rule="evenodd"/></svg>
