<svg class="icon icon-hack-nights nav-icon icon-projects" width="18" height="21" xmlns="http://www.w3.org/2000/svg"><path d="M9 6.016c-.813 0-1.516-.297-2.11-.891C6.298 4.531 6 3.828 6 3.015c0-.812.297-1.515.89-2.109C7.485.312 8.188.016 9 .016s1.516.296 2.11.89c.593.594.89 1.297.89 2.11 0 .812-.297 1.515-.89 2.109-.594.594-1.297.89-2.11.89zM9 9.53c2.5-2.344 5.5-3.515 9-3.515v10.968c-3.469 0-6.469 1.188-9 3.563-2.531-2.375-5.531-3.563-9-3.563V6.016c3.5 0 6.5 1.171 9 3.515z" fill="#046AFA" fill-rule="evenodd"/></svg>
