<svg class="icon icon-hack-nights nav-icon" height="40" width="40" xmlns="http://www.w3.org/2000/svg" xmlns:xlink="http://www.w3.org/1999/xlink" version="1.1" x="0px" y="0px" viewBox="0 0 100 125" enable-background="new 0 0 100 100" xml:space="preserve"><g><polygon points="34.4,69.9 35.2,66.9 33.1,64.8 30.1,65.6 29.3,68.5 31.5,70.7  "/><path d="M5,95h90V5H5V95z M28.8,64.9L51.8,42c-1.4-3.8-0.6-8.3,2.4-11.4c3.2-3.2,8.1-4,12-2.2l-7.1,7.1v5.3h5.3l7.1-7.1   c1.8,3.9,1.1,8.8-2.2,12c-3.1,3.1-7.5,3.9-11.4,2.4L35.1,71.2c-1.7,1.7-4.5,1.7-6.2,0C27.1,69.5,27.1,66.7,28.8,64.9z"/></g></svg>