<?xml version="1.0" encoding="UTF-8" standalone="no"?>
<!-- Created with Inkscape (http://www.inkscape.org/) -->

<svg class="icon icon-github"
   xmlns:dc="http://purl.org/dc/elements/1.1/"
   xmlns:cc="http://creativecommons.org/ns#"
   xmlns:rdf="http://www.w3.org/1999/02/22-rdf-syntax-ns#"
   xmlns:svg="http://www.w3.org/2000/svg"
   xmlns="http://www.w3.org/2000/svg"
   xmlns:sodipodi="http://sodipodi.sourceforge.net/DTD/sodipodi-0.dtd"
   xmlns:inkscape="http://www.inkscape.org/namespaces/inkscape"
   version="1.1"
   id="svg45"
   xml:space="preserve"
   viewBox="273 250 160 160"
   sodipodi:docname="GitHub-Mark-120px-plus.svg"
   inkscape:version="0.92.3 (2405546, 2018-03-11)"><metadata
     id="metadata51"><rdf:RDF><cc:Work
         rdf:about=""><dc:format>image/svg+xml</dc:format><dc:type
           rdf:resource="http://purl.org/dc/dcmitype/StillImage" /><dc:title></dc:title></cc:Work></rdf:RDF></metadata><defs
     id="defs49" /><sodipodi:namedview
     pagecolor="#ffffff"
     bordercolor="#666666"
     borderopacity="1"
     objecttolerance="10"
     gridtolerance="10"
     guidetolerance="10"
     inkscape:pageopacity="0"
     inkscape:pageshadow="2"
     inkscape:window-width="1853"
     inkscape:window-height="1025"
     id="namedview47"
     showgrid="false"
     inkscape:zoom="1.2660253"
     inkscape:cx="241.81796"
     inkscape:cy="301.73172"
     inkscape:window-x="67"
     inkscape:window-y="27"
     inkscape:window-maximized="1"
     inkscape:current-layer="g53" /><g
     id="g53"
     inkscape:groupmode="layer"
     inkscape:label="ink_ext_XXXXXX"
     transform="matrix(1.3333333,0,0,-1.3333333,0,666.65333)"><path
       d="m 265.48551,308.8919 c -33.347,0 -60.388,-27.036 -60.388,-60.388 0,-26.681 17.303,-49.317 41.297,-57.302 3.018,-0.559 4.126,1.31 4.126,2.905 0,1.44 -0.056,6.197 -0.082,11.243 -16.8,-3.653 -20.345,7.125 -20.345,7.125 -2.747,6.98 -6.705,8.836 -6.705,8.836 -5.479,3.748 0.413,3.671 0.413,3.671 6.064,-0.425 9.257,-6.224 9.257,-6.224 5.386,-9.231 14.127,-6.562 17.573,-5.019 0.542,3.903 2.107,6.568 3.834,8.075 -13.413,1.527 -27.513,6.705 -27.513,29.844 0,6.593 2.359,11.98 6.222,16.209 -0.627,1.522 -2.694,7.663 0.585,15.981 0,0 5.071,1.623 16.611,-6.19 4.817,1.338 9.983,2.009 15.115,2.032 5.132,-0.023 10.302,-0.694 15.128,-2.032 11.526,7.813 16.59,6.19 16.59,6.19 3.287,-8.318 1.219,-14.459 0.592,-15.981 3.872,-4.229 6.215,-9.616 6.215,-16.209 0,-23.194 -14.127,-28.301 -27.574,-29.796 2.166,-1.874 4.096,-5.549 4.096,-11.183 0,-8.08 -0.07,-14.583 -0.07,-16.572 0,-1.607 1.08701,-3.49 4.148,-2.897 23.981,7.994 41.26201,30.622 41.26201,57.294 -3e-5,33.352 -27.03703,60.388 -60.38704,60.388"
       style="fill-opacity:1;fill-rule:evenodd;stroke:none;stroke-width:0.09999999"
       id="path61"
       inkscape:connector-curvature="0" /></g></svg>