<svg class="icon icon-meetup" width="89" height="32" xmlns="http://www.w3.org/2000/svg"><path d="M52.373 17.102c-.123.185-.2.311-.286.433-.794 1.139-1.686 2.178-2.902 2.897-1.63.963-3.395 1.36-5.236.962-.945-.205-1.824-.734-2.713-1.156-.205-.096-.317-.099-.5.009-.763.45-1.505.954-2.313 1.304-1.434.62-2.944.969-4.504.556-.979-.259-1.825-.81-2.59-1.473-.541-.47-.576-.47-1.126-.017-.989.813-2.13 1.338-3.325 1.771-1.482.538-3.01.868-4.572 1.023-1.907.189-3.676-.135-4.966-1.703-1.034-1.256-1.31-2.713-.678-4.227.693-1.659 1.494-3.272 2.247-4.906.392-.85.787-1.7 1.168-2.557.07-.157.098-.34.106-.514.014-.319.08-.668-.29-.86-.377-.196-.821-.16-1.098.189a8.915 8.915 0 0 0-.91 1.412c-.855 1.64-1.681 3.294-2.514 4.944-.625 1.238-1.238 2.48-1.87 3.715-.597 1.17-1.72 1.616-2.937 1.161-.41-.154-.667-.456-.736-.916-.098-.653.116-1.237.347-1.822.506-1.278 1.018-2.554 1.524-3.832.27-.686.541-1.372.796-2.064.178-.483.231-.996.023-1.472-.16-.366-.477-.63-.92-.591-.485.043-.866.296-1.049.746-.643 1.587-1.26 3.184-1.891 4.775-.757 1.904-1.5 3.814-2.289 5.705-.291.699-.731 1.335-1.471 1.635a3.403 3.403 0 0 1-1.203.251c-1.258.017-2.346-.404-3.088-1.472-.59-.85-.735-1.796-.45-2.796.264-.926.528-1.852.805-2.775.262-.874.541-1.743.813-2.615.254-.81.491-1.628.767-2.432.541-1.583.978-3.214 1.836-4.665.587-.994 1.538-1.531 2.63-1.864 1.14-.348 2.111.09 3.085.574.369.184.733.38 1.112.54.53.221 1.011.08 1.438-.267.35-.285.702-.569 1.025-.884.804-.785 2.543-.931 3.393-.017.196.211.426.389.643.58.444.392.628.432 1.143.142 1.224-.691 2.491-.595 3.738-.152.723.257 1.155.871 1.432 1.599.406 1.07.236 2.105-.171 3.112-.75 1.852-1.566 3.676-2.297 5.535a32.885 32.885 0 0 0-1.11 3.38 3.049 3.049 0 0 0-.01 1.486c.179.708.828.94 1.484 1.024 1 .126 1.98-.06 2.937-.324a32.714 32.714 0 0 0 2.422-.792c.385-.14.744-.353 1.112-.54.315-.159.339-.392.173-.685-.339-.598-.695-1.188-.993-1.806-.631-1.307-1.15-2.656-1.012-4.146.121-1.304.592-2.437 1.796-3.124 1.777-1.013 3.219-.733 4.525.78 1.13 1.31 1.502 2.885 1.017 4.573-.271.944-.66 1.856-1.03 2.77-.102.252-.043.414.117.563a8.25 8.25 0 0 0 2.548 1.625c.357.146.734.254 1.113.33.813.163 1.568-.03 2.246-.49.323-.22.33-.424.106-.729-1.56-2.127-2.176-4.494-1.708-7.095.176-.974.626-1.894 1.672-2.175.646-.173 1.376-.166 2.048-.08 1.092.138 2.081.574 2.752 1.514.805 1.129 1.01 2.363.664 3.712-.249.968-.757 1.792-1.316 2.593-.222.317-.23.61.072.822.465.327.937.685 1.463.874 1.142.411 2.327.375 3.478.006 1.259-.406 2.144-1.241 2.648-2.48.603-1.482.61-3.035.58-4.593-.025-1.217-.067-2.434-.103-3.652-.013-.435-.083-.46-.498-.376-1.092.22-2.19.416-3.285.617-.346.062-.694.105-1.04.167-.753.136-1.374-.174-1.416-1.054-.044-.888-.172-1.771-.264-2.657l-.012-.15c-.05-1.042.202-1.609 1.453-1.564 1.292.048 2.584.09 3.874.158.635.033.858-.127.9-.757.032-.489.046-.978.076-1.467.046-.733.213-.907.958-.878.445.018.893.095 1.328.193.613.138.935.57.977 1.18.035.5.02 1.003.012 1.505-.006.354.104.545.502.585 1.148.117 2.291.277 3.437.413.541.064.845.283.918.685.127.699-.024 1.177-.552 1.368-.737.267-1.5.47-2.262.658-.534.132-1.086.188-1.629.288-.364.066-.561.258-.558.667.013 2.021-.032 4.045.026 6.064.03 1.06.19 2.121.641 3.111.365.802.988 1.118 1.854.973 1.271-.213 2.436-.66 3.451-1.464.563-.446.934-.992.962-1.746.05-1.38.119-2.76.2-4.138.023-.398.068-.81.2-1.18.075-.206.345-.478.533-.484 1.038-.031 2.083-.042 3.116.048.65.056 1.097.664 1.063 1.353-.047.963-.171 1.923-.263 2.885-.113 1.186-.218 2.373-.344 3.558-.128 1.199.832 1.794 1.78 1.805.797.01 1.267-.287 1.605-1.13.35-.872.559-1.817.71-2.75.213-1.324.314-2.666.472-3.999.064-.544.404-.962.827-1.053.488-.105 1.13.093 1.29.54.134.373.103.829.056 1.238-.172 1.518-.421 3.029-.564 4.55-.087.934.437 1.6 1.345 1.876.452.137.921.246 1.39.3.822.094 1.405-.507 1.577-1.442.145-.786.165-1.596.235-2.396.083-.95.095-1.911.257-2.847.24-1.386 1.134-2.643 2.793-3.046.995-.242 1.999-.271 2.993-.157 1.515.175 3.1 1.205 3.585 2.946.368 1.323.221 2.601-.211 3.874-.502 1.476-1.419 2.625-2.699 3.501-.118.08-.187.234-.278.354.161.07.323.206.483.203 1.53-.024 2.973-.374 4.294-1.175.298-.18.623-.317.938-.467.289-.137.46.026.379.275-.134.418-.296.86-.563 1.197-1.132 1.431-2.677 2.117-4.463 2.238-.757.05-1.526-.05-2.29-.093-.576-.032-1.151-.082-1.727-.121-.293-.02-.462.103-.535.406-.458 1.893-.701 3.818-.939 5.748a31.534 31.534 0 0 1-.668 3.615c-.157.645-.66 1.09-1.358 1.203-.417.067-.726-.114-.866-.502-.118-.328-.228-.672-.256-1.015a23.727 23.727 0 0 1 .144-5.072c.114-.858.19-1.72.288-2.58.07-.599.16-1.195.216-1.794.044-.484-.066-.599-.53-.69-.958-.192-1.918-.38-2.872-.592-.649-.144-1.154.086-1.594.533-.584.594-1.229 1.11-1.995 1.444-.924.403-1.905.319-2.856.168-1.372-.219-2.468-.94-3.248-2.098-.242-.36-.417-.764-.606-1.156-.106-.22-.202-.305-.46-.174-.911.465-1.82.941-2.761 1.34-1.049.442-2.162.598-3.276.287-1.087-.303-1.92-1.002-2.612-1.877-.185-.234-.368-.47-.655-.838zm31.289-4.347c-.012-.15-.012-.302-.037-.45-.14-.856-.999-1.24-1.691-.723-.314.233-.598.54-.812.868-.713 1.094-1.036 2.347-1.358 3.593a3.615 3.615 0 0 0-.13.965c.011.599.363.775.865.451 1.04-.67 1.81-1.602 2.461-2.637.396-.629.72-1.292.702-2.067zm-40.83.603c.01-.594-.13-1.145-.567-1.573-.243-.237-.547-.34-.895-.232-.423.131-.651.445-.683.965-.061 1.008.372 1.873.817 2.726.23.439.447.425.743.02.415-.568.577-1.213.585-1.906zm-10.272-.192c-.11-.364-.183-.746-.34-1.09-.201-.436-.72-.632-1.177-.513-.484.127-.676.358-.626.955.044.52.164 1.038.302 1.543.101.37.258.734.442 1.072.249.455.509.46.753.019.337-.607.597-1.244.646-1.986z" fill-rule="nonzero" fill="#FFF"/></svg>
