<svg width="370" height="28" viewBox="0 0 370 28" fill="none" xmlns="http://www.w3.org/2000/svg">
<path d="M10.3086 2.09375H13.7539V16.0527C13.7539 17.9577 13.1569 19.4707 11.9629 20.5918C10.778 21.7129 9.21029 22.2734 7.25977 22.2734C5.18164 22.2734 3.57747 21.7493 2.44727 20.7012C1.31706 19.653 0.751953 18.1947 0.751953 16.3262H4.19727C4.19727 17.3835 4.45703 18.181 4.97656 18.7188C5.50521 19.2474 6.26628 19.5117 7.25977 19.5117C8.18945 19.5117 8.92773 19.2064 9.47461 18.5957C10.0306 17.9759 10.3086 17.1237 10.3086 16.0391V2.09375ZM16.7754 14.4668C16.7754 13.0176 17.0625 11.7142 17.6367 10.5566C18.2109 9.38997 19.0176 8.49674 20.0566 7.87695C21.0957 7.24805 22.2897 6.93359 23.6387 6.93359C25.6348 6.93359 27.2526 7.57617 28.4922 8.86133C29.7409 10.1465 30.4154 11.8509 30.5156 13.9746L30.5293 14.7539C30.5293 16.2122 30.2467 17.5156 29.6816 18.6641C29.1257 19.8125 28.3236 20.7012 27.2754 21.3301C26.2363 21.959 25.0332 22.2734 23.666 22.2734C21.5788 22.2734 19.9062 21.5807 18.6484 20.1953C17.3997 18.8008 16.7754 16.946 16.7754 14.6309V14.4668ZM20.0977 14.7539C20.0977 16.276 20.4121 17.4701 21.041 18.3359C21.6699 19.1927 22.5449 19.6211 23.666 19.6211C24.7871 19.6211 25.6576 19.1836 26.2773 18.3086C26.9062 17.4336 27.2207 16.153 27.2207 14.4668C27.2207 12.972 26.8971 11.7871 26.25 10.9121C25.612 10.0371 24.7415 9.59961 23.6387 9.59961C22.554 9.59961 21.6927 10.0326 21.0547 10.8984C20.4167 11.7552 20.0977 13.0404 20.0977 14.7539ZM36.873 22H33.5508V7.20703H36.873V22ZM33.3457 3.36523C33.3457 2.85482 33.5052 2.43099 33.8242 2.09375C34.1523 1.75651 34.6172 1.58789 35.2188 1.58789C35.8203 1.58789 36.2852 1.75651 36.6133 2.09375C36.9414 2.43099 37.1055 2.85482 37.1055 3.36523C37.1055 3.86654 36.9414 4.28581 36.6133 4.62305C36.2852 4.95117 35.8203 5.11523 35.2188 5.11523C34.6172 5.11523 34.1523 4.95117 33.8242 4.62305C33.5052 4.28581 33.3457 3.86654 33.3457 3.36523ZM43.5859 7.20703L43.6816 8.91602C44.7754 7.5944 46.2109 6.93359 47.9883 6.93359C51.069 6.93359 52.6367 8.69727 52.6914 12.2246V22H49.3691V12.416C49.3691 11.4772 49.1641 10.7845 48.7539 10.3379C48.3529 9.88216 47.6921 9.6543 46.7715 9.6543C45.4316 9.6543 44.4336 10.2604 43.7773 11.4727V22H40.4551V7.20703H43.5859ZM71.9004 22C71.7546 21.7174 71.627 21.2572 71.5176 20.6191C70.4603 21.722 69.166 22.2734 67.6348 22.2734C66.1491 22.2734 64.9368 21.8496 63.998 21.002C63.0592 20.1543 62.5898 19.1061 62.5898 17.8574C62.5898 16.2806 63.1732 15.0729 64.3398 14.2344C65.5156 13.3867 67.1927 12.9629 69.3711 12.9629H71.4082V11.9922C71.4082 11.2266 71.194 10.6159 70.7656 10.1602C70.3372 9.69531 69.6855 9.46289 68.8105 9.46289C68.054 9.46289 67.4342 9.6543 66.9512 10.0371C66.4681 10.4108 66.2266 10.8893 66.2266 11.4727H62.9043C62.9043 10.6615 63.1732 9.90495 63.7109 9.20312C64.2487 8.49219 64.9779 7.9362 65.8984 7.53516C66.8281 7.13411 67.8626 6.93359 69.002 6.93359C70.7337 6.93359 72.1146 7.37109 73.1445 8.24609C74.1745 9.11198 74.7031 10.3333 74.7305 11.9102V18.582C74.7305 19.9128 74.9173 20.9746 75.291 21.7676V22H71.9004ZM68.25 19.6074C68.9062 19.6074 69.5215 19.4479 70.0957 19.1289C70.679 18.8099 71.1165 18.3815 71.4082 17.8438V15.0547H69.6172C68.3867 15.0547 67.4616 15.2689 66.8418 15.6973C66.222 16.1257 65.9121 16.7318 65.9121 17.5156C65.9121 18.1536 66.1217 18.6641 66.541 19.0469C66.9694 19.4206 67.5391 19.6074 68.25 19.6074ZM100.693 15.5195C100.493 17.6432 99.709 19.3021 98.3418 20.4961C96.9746 21.681 95.1562 22.2734 92.8867 22.2734C91.3008 22.2734 89.9017 21.8997 88.6895 21.1523C87.4863 20.3958 86.5566 19.3249 85.9004 17.9395C85.2441 16.554 84.9023 14.9453 84.875 13.1133V11.2539C84.875 9.3763 85.2077 7.72201 85.873 6.29102C86.5384 4.86003 87.4909 3.75716 88.7305 2.98242C89.9792 2.20768 91.4193 1.82031 93.0508 1.82031C95.2474 1.82031 97.0156 2.41732 98.3555 3.61133C99.6953 4.80534 100.475 6.49154 100.693 8.66992H97.248C97.084 7.23893 96.6647 6.20898 95.9902 5.58008C95.3249 4.94206 94.3451 4.62305 93.0508 4.62305C91.5469 4.62305 90.3893 5.17448 89.5781 6.27734C88.776 7.37109 88.3659 8.97982 88.3477 11.1035V12.8672C88.3477 15.0182 88.7305 16.6589 89.4961 17.7891C90.2708 18.9193 91.401 19.4844 92.8867 19.4844C94.2448 19.4844 95.2656 19.179 95.9492 18.5684C96.6328 17.9577 97.0658 16.9414 97.248 15.5195H100.693ZM102.854 14.4668C102.854 13.0176 103.141 11.7142 103.715 10.5566C104.289 9.38997 105.096 8.49674 106.135 7.87695C107.174 7.24805 108.368 6.93359 109.717 6.93359C111.713 6.93359 113.331 7.57617 114.57 8.86133C115.819 10.1465 116.493 11.8509 116.594 13.9746L116.607 14.7539C116.607 16.2122 116.325 17.5156 115.76 18.6641C115.204 19.8125 114.402 20.7012 113.354 21.3301C112.314 21.959 111.111 22.2734 109.744 22.2734C107.657 22.2734 105.984 21.5807 104.727 20.1953C103.478 18.8008 102.854 16.946 102.854 14.6309V14.4668ZM106.176 14.7539C106.176 16.276 106.49 17.4701 107.119 18.3359C107.748 19.1927 108.623 19.6211 109.744 19.6211C110.865 19.6211 111.736 19.1836 112.355 18.3086C112.984 17.4336 113.299 16.153 113.299 14.4668C113.299 12.972 112.975 11.7871 112.328 10.9121C111.69 10.0371 110.82 9.59961 109.717 9.59961C108.632 9.59961 107.771 10.0326 107.133 10.8984C106.495 11.7552 106.176 13.0404 106.176 14.7539ZM122.541 7.20703L122.637 8.75195C123.676 7.53971 125.098 6.93359 126.902 6.93359C128.88 6.93359 130.234 7.6901 130.963 9.20312C132.038 7.6901 133.551 6.93359 135.502 6.93359C137.133 6.93359 138.346 7.38477 139.139 8.28711C139.941 9.18945 140.351 10.5202 140.369 12.2793V22H137.047V12.375C137.047 11.4362 136.842 10.748 136.432 10.3105C136.021 9.87305 135.342 9.6543 134.395 9.6543C133.638 9.6543 133.018 9.85938 132.535 10.2695C132.061 10.6706 131.729 11.1992 131.537 11.8555L131.551 22H128.229V12.2656C128.183 10.5247 127.294 9.6543 125.562 9.6543C124.232 9.6543 123.288 10.1966 122.732 11.2812V22H119.41V7.20703H122.541ZM146.904 7.20703L147 8.75195C148.039 7.53971 149.461 6.93359 151.266 6.93359C153.243 6.93359 154.597 7.6901 155.326 9.20312C156.402 7.6901 157.915 6.93359 159.865 6.93359C161.497 6.93359 162.709 7.38477 163.502 8.28711C164.304 9.18945 164.714 10.5202 164.732 12.2793V22H161.41V12.375C161.41 11.4362 161.205 10.748 160.795 10.3105C160.385 9.87305 159.706 9.6543 158.758 9.6543C158.001 9.6543 157.382 9.85938 156.898 10.2695C156.424 10.6706 156.092 11.1992 155.9 11.8555L155.914 22H152.592V12.2656C152.546 10.5247 151.658 9.6543 149.926 9.6543C148.595 9.6543 147.652 10.1966 147.096 11.2812V22H143.773V7.20703H146.904ZM177.105 20.5508C176.13 21.6992 174.745 22.2734 172.949 22.2734C171.345 22.2734 170.128 21.804 169.299 20.8652C168.479 19.9264 168.068 18.5684 168.068 16.791V7.20703H171.391V16.75C171.391 18.6276 172.17 19.5664 173.729 19.5664C175.342 19.5664 176.431 18.9876 176.996 17.8301V7.20703H180.318V22H177.188L177.105 20.5508ZM186.785 7.20703L186.881 8.91602C187.975 7.5944 189.41 6.93359 191.188 6.93359C194.268 6.93359 195.836 8.69727 195.891 12.2246V22H192.568V12.416C192.568 11.4772 192.363 10.7845 191.953 10.3379C191.552 9.88216 190.891 9.6543 189.971 9.6543C188.631 9.6543 187.633 10.2604 186.977 11.4727V22H183.654V7.20703H186.785ZM202.822 22H199.5V7.20703H202.822V22ZM199.295 3.36523C199.295 2.85482 199.454 2.43099 199.773 2.09375C200.102 1.75651 200.566 1.58789 201.168 1.58789C201.77 1.58789 202.234 1.75651 202.562 2.09375C202.891 2.43099 203.055 2.85482 203.055 3.36523C203.055 3.86654 202.891 4.28581 202.562 4.62305C202.234 4.95117 201.77 5.11523 201.168 5.11523C200.566 5.11523 200.102 4.95117 199.773 4.62305C199.454 4.28581 199.295 3.86654 199.295 3.36523ZM210.615 3.61133V7.20703H213.227V9.66797H210.615V17.9258C210.615 18.4909 210.725 18.901 210.943 19.1562C211.171 19.4023 211.572 19.5254 212.146 19.5254C212.529 19.5254 212.917 19.4798 213.309 19.3887V21.959C212.552 22.1686 211.823 22.2734 211.121 22.2734C208.569 22.2734 207.293 20.8652 207.293 18.0488V9.66797H204.859V7.20703H207.293V3.61133H210.615ZM220.951 17.2422L223.959 7.20703H227.5L221.621 24.2422C220.719 26.7305 219.188 27.9746 217.027 27.9746C216.544 27.9746 216.011 27.8926 215.428 27.7285V25.1582L216.057 25.1992C216.895 25.1992 217.524 25.0443 217.943 24.7344C218.372 24.4336 218.709 23.9232 218.955 23.2031L219.434 21.9316L214.238 7.20703H217.82L220.951 17.2422ZM235.771 14.4668C235.771 13.0176 236.059 11.7142 236.633 10.5566C237.207 9.38997 238.014 8.49674 239.053 7.87695C240.092 7.24805 241.286 6.93359 242.635 6.93359C244.631 6.93359 246.249 7.57617 247.488 8.86133C248.737 10.1465 249.411 11.8509 249.512 13.9746L249.525 14.7539C249.525 16.2122 249.243 17.5156 248.678 18.6641C248.122 19.8125 247.32 20.7012 246.271 21.3301C245.232 21.959 244.029 22.2734 242.662 22.2734C240.575 22.2734 238.902 21.5807 237.645 20.1953C236.396 18.8008 235.771 16.946 235.771 14.6309V14.4668ZM239.094 14.7539C239.094 16.276 239.408 17.4701 240.037 18.3359C240.666 19.1927 241.541 19.6211 242.662 19.6211C243.783 19.6211 244.654 19.1836 245.273 18.3086C245.902 17.4336 246.217 16.153 246.217 14.4668C246.217 12.972 245.893 11.7871 245.246 10.9121C244.608 10.0371 243.738 9.59961 242.635 9.59961C241.55 9.59961 240.689 10.0326 240.051 10.8984C239.413 11.7552 239.094 13.0404 239.094 14.7539ZM253.504 22V9.66797H251.248V7.20703H253.504V5.85352C253.504 4.21289 253.96 2.94596 254.871 2.05273C255.783 1.15951 257.059 0.712891 258.699 0.712891C259.283 0.712891 259.902 0.794922 260.559 0.958984L260.477 3.55664C260.112 3.48372 259.688 3.44727 259.205 3.44727C257.619 3.44727 256.826 4.26302 256.826 5.89453V7.20703H259.834V9.66797H256.826V22H253.504ZM273.014 14.6035V22H269.555V2.09375H277.17C279.394 2.09375 281.158 2.67253 282.461 3.83008C283.773 4.98763 284.43 6.51888 284.43 8.42383C284.43 10.3743 283.787 11.8919 282.502 12.9766C281.226 14.0612 279.435 14.6035 277.129 14.6035H273.014ZM273.014 11.8281H277.17C278.4 11.8281 279.339 11.541 279.986 10.9668C280.633 10.3835 280.957 9.54492 280.957 8.45117C280.957 7.37565 280.629 6.51888 279.973 5.88086C279.316 5.23372 278.414 4.90104 277.266 4.88281H273.014V11.8281ZM294.889 10.2422C294.451 10.1693 294 10.1328 293.535 10.1328C292.013 10.1328 290.988 10.7161 290.459 11.8828V22H287.137V7.20703H290.309L290.391 8.86133C291.193 7.57617 292.305 6.93359 293.727 6.93359C294.201 6.93359 294.592 6.9974 294.902 7.125L294.889 10.2422ZM305.416 22C305.27 21.7174 305.143 21.2572 305.033 20.6191C303.976 21.722 302.682 22.2734 301.15 22.2734C299.665 22.2734 298.452 21.8496 297.514 21.002C296.575 20.1543 296.105 19.1061 296.105 17.8574C296.105 16.2806 296.689 15.0729 297.855 14.2344C299.031 13.3867 300.708 12.9629 302.887 12.9629H304.924V11.9922C304.924 11.2266 304.71 10.6159 304.281 10.1602C303.853 9.69531 303.201 9.46289 302.326 9.46289C301.57 9.46289 300.95 9.6543 300.467 10.0371C299.984 10.4108 299.742 10.8893 299.742 11.4727H296.42C296.42 10.6615 296.689 9.90495 297.227 9.20312C297.764 8.49219 298.493 7.9362 299.414 7.53516C300.344 7.13411 301.378 6.93359 302.518 6.93359C304.249 6.93359 305.63 7.37109 306.66 8.24609C307.69 9.11198 308.219 10.3333 308.246 11.9102V18.582C308.246 19.9128 308.433 20.9746 308.807 21.7676V22H305.416ZM301.766 19.6074C302.422 19.6074 303.037 19.4479 303.611 19.1289C304.195 18.8099 304.632 18.3815 304.924 17.8438V15.0547H303.133C301.902 15.0547 300.977 15.2689 300.357 15.6973C299.738 16.1257 299.428 16.7318 299.428 17.5156C299.428 18.1536 299.637 18.6641 300.057 19.0469C300.485 19.4206 301.055 19.6074 301.766 19.6074ZM317.803 19.6211C318.632 19.6211 319.32 19.3796 319.867 18.8965C320.414 18.4134 320.706 17.8164 320.742 17.1055H323.873C323.837 18.026 323.549 18.8874 323.012 19.6895C322.474 20.4824 321.745 21.1113 320.824 21.5762C319.904 22.041 318.91 22.2734 317.844 22.2734C315.775 22.2734 314.134 21.6035 312.922 20.2637C311.71 18.9238 311.104 17.0736 311.104 14.7129V14.3711C311.104 12.1198 311.705 10.3197 312.908 8.9707C314.111 7.61263 315.752 6.93359 317.83 6.93359C319.589 6.93359 321.02 7.44857 322.123 8.47852C323.235 9.49935 323.818 10.8438 323.873 12.5117H320.742C320.706 11.6641 320.414 10.9668 319.867 10.4199C319.329 9.87305 318.641 9.59961 317.803 9.59961C316.727 9.59961 315.898 9.99154 315.314 10.7754C314.731 11.5501 314.435 12.7305 314.426 14.3164V14.8496C314.426 16.4538 314.713 17.6523 315.287 18.4453C315.87 19.2292 316.709 19.6211 317.803 19.6211ZM330.545 3.61133V7.20703H333.156V9.66797H330.545V17.9258C330.545 18.4909 330.654 18.901 330.873 19.1562C331.101 19.4023 331.502 19.5254 332.076 19.5254C332.459 19.5254 332.846 19.4798 333.238 19.3887V21.959C332.482 22.1686 331.753 22.2734 331.051 22.2734C328.499 22.2734 327.223 20.8652 327.223 18.0488V9.66797H324.789V7.20703H327.223V3.61133H330.545ZM339.24 22H335.918V7.20703H339.24V22ZM335.713 3.36523C335.713 2.85482 335.872 2.43099 336.191 2.09375C336.52 1.75651 336.984 1.58789 337.586 1.58789C338.188 1.58789 338.652 1.75651 338.98 2.09375C339.309 2.43099 339.473 2.85482 339.473 3.36523C339.473 3.86654 339.309 4.28581 338.98 4.62305C338.652 4.95117 338.188 5.11523 337.586 5.11523C336.984 5.11523 336.52 4.95117 336.191 4.62305C335.872 4.28581 335.713 3.86654 335.713 3.36523ZM348.947 19.6211C349.777 19.6211 350.465 19.3796 351.012 18.8965C351.559 18.4134 351.85 17.8164 351.887 17.1055H355.018C354.981 18.026 354.694 18.8874 354.156 19.6895C353.618 20.4824 352.889 21.1113 351.969 21.5762C351.048 22.041 350.055 22.2734 348.988 22.2734C346.919 22.2734 345.279 21.6035 344.066 20.2637C342.854 18.9238 342.248 17.0736 342.248 14.7129V14.3711C342.248 12.1198 342.85 10.3197 344.053 8.9707C345.256 7.61263 346.896 6.93359 348.975 6.93359C350.734 6.93359 352.165 7.44857 353.268 8.47852C354.38 9.49935 354.963 10.8438 355.018 12.5117H351.887C351.85 11.6641 351.559 10.9668 351.012 10.4199C350.474 9.87305 349.786 9.59961 348.947 9.59961C347.872 9.59961 347.042 9.99154 346.459 10.7754C345.876 11.5501 345.579 12.7305 345.57 14.3164V14.8496C345.57 16.4538 345.857 17.6523 346.432 18.4453C347.015 19.2292 347.854 19.6211 348.947 19.6211ZM364.041 22.2734C361.936 22.2734 360.227 21.6126 358.914 20.291C357.611 18.9603 356.959 17.1921 356.959 14.9863V14.5762C356.959 13.0996 357.242 11.7826 357.807 10.625C358.381 9.45833 359.183 8.55143 360.213 7.9043C361.243 7.25716 362.391 6.93359 363.658 6.93359C365.673 6.93359 367.227 7.57617 368.32 8.86133C369.423 10.1465 369.975 11.9648 369.975 14.3164V15.6562H360.309C360.409 16.8776 360.814 17.8438 361.525 18.5547C362.245 19.2656 363.148 19.6211 364.232 19.6211C365.755 19.6211 366.994 19.0059 367.951 17.7754L369.742 19.4844C369.15 20.3685 368.357 21.0566 367.363 21.5488C366.379 22.0319 365.271 22.2734 364.041 22.2734ZM363.645 9.59961C362.733 9.59961 361.995 9.91862 361.43 10.5566C360.874 11.1947 360.518 12.0833 360.363 13.2227H366.693V12.9766C366.62 11.8646 366.324 11.026 365.805 10.4609C365.285 9.88672 364.565 9.59961 363.645 9.59961Z" fill="#333333"/>
</svg>
