<svg width="321" height="61" viewBox="0 0 321 61" fill="none" xmlns="http://www.w3.org/2000/svg">
<path d="M6.08594 1.625H7.59375V9.67969C7.59375 10.7682 7.26562 11.6198 6.60938 12.2344C5.95833 12.849 5.08854 13.1562 4 13.1562C2.86979 13.1562 1.98958 12.8672 1.35938 12.2891C0.729167 11.7109 0.414062 10.901 0.414062 9.85938H1.91406C1.91406 10.5104 2.09115 11.0182 2.44531 11.3828C2.80469 11.7474 3.32292 11.9297 4 11.9297C4.61979 11.9297 5.11979 11.7344 5.5 11.3438C5.88542 10.9531 6.08073 10.4062 6.08594 9.70312V1.625ZM9.53906 8.69531C9.53906 7.86719 9.70052 7.1224 10.0234 6.46094C10.3516 5.79948 10.8047 5.28906 11.3828 4.92969C11.9661 4.57031 12.6302 4.39062 13.375 4.39062C14.526 4.39062 15.4557 4.78906 16.1641 5.58594C16.8776 6.38281 17.2344 7.44271 17.2344 8.76562V8.86719C17.2344 9.6901 17.0755 10.4297 16.7578 11.0859C16.4453 11.737 15.9948 12.2448 15.4062 12.6094C14.8229 12.974 14.151 13.1562 13.3906 13.1562C12.2448 13.1562 11.3151 12.7578 10.6016 11.9609C9.89323 11.1641 9.53906 10.1094 9.53906 8.79688V8.69531ZM10.9922 8.86719C10.9922 9.80469 11.2083 10.5573 11.6406 11.125C12.0781 11.6927 12.6615 11.9766 13.3906 11.9766C14.125 11.9766 14.7083 11.6901 15.1406 11.1172C15.5729 10.5391 15.7891 9.73177 15.7891 8.69531C15.7891 7.76823 15.5677 7.01823 15.125 6.44531C14.6875 5.86719 14.1042 5.57812 13.375 5.57812C12.6615 5.57812 12.0859 5.86198 11.6484 6.42969C11.2109 6.9974 10.9922 7.8099 10.9922 8.86719ZM20.6172 13H19.1719V4.54688H20.6172V13ZM19.0547 2.30469C19.0547 2.07031 19.125 1.8724 19.2656 1.71094C19.4115 1.54948 19.625 1.46875 19.9062 1.46875C20.1875 1.46875 20.401 1.54948 20.5469 1.71094C20.6927 1.8724 20.7656 2.07031 20.7656 2.30469C20.7656 2.53906 20.6927 2.73438 20.5469 2.89062C20.401 3.04688 20.1875 3.125 19.9062 3.125C19.625 3.125 19.4115 3.04688 19.2656 2.89062C19.125 2.73438 19.0547 2.53906 19.0547 2.30469ZM24.3047 4.54688L24.3516 5.60938C24.9974 4.79688 25.8411 4.39062 26.8828 4.39062C28.6693 4.39062 29.5703 5.39844 29.5859 7.41406V13H28.1406V7.40625C28.1354 6.79688 27.9948 6.34635 27.7188 6.05469C27.4479 5.76302 27.0234 5.61719 26.4453 5.61719C25.9766 5.61719 25.5651 5.74219 25.2109 5.99219C24.8568 6.24219 24.5807 6.57031 24.3828 6.97656V13H22.9375V4.54688H24.3047ZM38.5 10.8828L40.4688 4.54688H42.0156L38.6172 14.3047C38.0911 15.7109 37.2552 16.4141 36.1094 16.4141L35.8359 16.3906L35.2969 16.2891V15.1172L35.6875 15.1484C36.1771 15.1484 36.5573 15.0495 36.8281 14.8516C37.1042 14.6536 37.3307 14.2917 37.5078 13.7656L37.8281 12.9062L34.8125 4.54688H36.3906L38.5 10.8828ZM42.8047 8.69531C42.8047 7.86719 42.9661 7.1224 43.2891 6.46094C43.6172 5.79948 44.0703 5.28906 44.6484 4.92969C45.2318 4.57031 45.8958 4.39062 46.6406 4.39062C47.7917 4.39062 48.7214 4.78906 49.4297 5.58594C50.1432 6.38281 50.5 7.44271 50.5 8.76562V8.86719C50.5 9.6901 50.3411 10.4297 50.0234 11.0859C49.7109 11.737 49.2604 12.2448 48.6719 12.6094C48.0885 12.974 47.4167 13.1562 46.6562 13.1562C45.5104 13.1562 44.5807 12.7578 43.8672 11.9609C43.1589 11.1641 42.8047 10.1094 42.8047 8.79688V8.69531ZM44.2578 8.86719C44.2578 9.80469 44.474 10.5573 44.9062 11.125C45.3438 11.6927 45.9271 11.9766 46.6562 11.9766C47.3906 11.9766 47.974 11.6901 48.4062 11.1172C48.8385 10.5391 49.0547 9.73177 49.0547 8.69531C49.0547 7.76823 48.8333 7.01823 48.3906 6.44531C47.9531 5.86719 47.3698 5.57812 46.6406 5.57812C45.9271 5.57812 45.3516 5.86198 44.9141 6.42969C44.4766 6.9974 44.2578 7.8099 44.2578 8.86719ZM57.5312 12.1641C56.9688 12.8255 56.1432 13.1562 55.0547 13.1562C54.1536 13.1562 53.4661 12.8958 52.9922 12.375C52.5234 11.849 52.2865 11.0729 52.2812 10.0469V4.54688H53.7266V10.0078C53.7266 11.2891 54.2474 11.9297 55.2891 11.9297C56.3932 11.9297 57.1276 11.5182 57.4922 10.6953V4.54688H58.9375V13H57.5625L57.5312 12.1641ZM65.2266 5.84375C65.0078 5.80729 64.7708 5.78906 64.5156 5.78906C63.5677 5.78906 62.9245 6.19271 62.5859 7V13H61.1406V4.54688H62.5469L62.5703 5.52344C63.0443 4.76823 63.7161 4.39062 64.5859 4.39062C64.8672 4.39062 65.0807 4.42708 65.2266 4.5V5.84375ZM233.344 15.2656L232.523 14.7031C233.013 14.0208 233.268 13.3177 233.289 12.5938V11.2891H234.703V12.4219C234.703 12.9479 234.573 13.474 234.312 14C234.057 14.526 233.734 14.9479 233.344 15.2656ZM245.719 13C245.635 12.8333 245.568 12.5365 245.516 12.1094C244.844 12.8073 244.042 13.1562 243.109 13.1562C242.276 13.1562 241.591 12.9219 241.055 12.4531C240.523 11.9792 240.258 11.3802 240.258 10.6562C240.258 9.77604 240.591 9.09375 241.258 8.60938C241.93 8.11979 242.872 7.875 244.086 7.875H245.492V7.21094C245.492 6.70573 245.341 6.30469 245.039 6.00781C244.737 5.70573 244.292 5.55469 243.703 5.55469C243.188 5.55469 242.755 5.6849 242.406 5.94531C242.057 6.20573 241.883 6.52083 241.883 6.89062H240.43C240.43 6.46875 240.578 6.0625 240.875 5.67188C241.177 5.27604 241.583 4.96354 242.094 4.73438C242.609 4.50521 243.174 4.39062 243.789 4.39062C244.763 4.39062 245.526 4.63542 246.078 5.125C246.63 5.60938 246.917 6.27865 246.938 7.13281V11.0234C246.938 11.7995 247.036 12.4167 247.234 12.875V13H245.719ZM243.32 11.8984C243.773 11.8984 244.203 11.7812 244.609 11.5469C245.016 11.3125 245.31 11.0078 245.492 10.6328V8.89844H244.359C242.589 8.89844 241.703 9.41667 241.703 10.4531C241.703 10.9062 241.854 11.2604 242.156 11.5156C242.458 11.7708 242.846 11.8984 243.32 11.8984ZM251.164 2.5V4.54688H252.742V5.66406H251.164V10.9062C251.164 11.2448 251.234 11.5 251.375 11.6719C251.516 11.8385 251.755 11.9219 252.094 11.9219C252.26 11.9219 252.49 11.8906 252.781 11.8281V13C252.401 13.1042 252.031 13.1562 251.672 13.1562C251.026 13.1562 250.539 12.9609 250.211 12.5703C249.883 12.1797 249.719 11.625 249.719 10.9062V5.66406H248.18V4.54688H249.719V2.5H251.164ZM256.398 2.5V4.54688H257.977V5.66406H256.398V10.9062C256.398 11.2448 256.469 11.5 256.609 11.6719C256.75 11.8385 256.99 11.9219 257.328 11.9219C257.495 11.9219 257.724 11.8906 258.016 11.8281V13C257.635 13.1042 257.266 13.1562 256.906 13.1562C256.26 13.1562 255.773 12.9609 255.445 12.5703C255.117 12.1797 254.953 11.625 254.953 10.9062V5.66406H253.414V4.54688H254.953V2.5H256.398ZM263.18 13.1562C262.034 13.1562 261.102 12.7812 260.383 12.0312C259.664 11.276 259.305 10.2682 259.305 9.00781V8.74219C259.305 7.90365 259.464 7.15625 259.781 6.5C260.104 5.83854 260.552 5.32292 261.125 4.95312C261.703 4.57812 262.328 4.39062 263 4.39062C264.099 4.39062 264.953 4.7526 265.562 5.47656C266.172 6.20052 266.477 7.23698 266.477 8.58594V9.1875H260.75C260.771 10.0208 261.013 10.6953 261.477 11.2109C261.945 11.7214 262.539 11.9766 263.258 11.9766C263.768 11.9766 264.201 11.8724 264.555 11.6641C264.909 11.4557 265.219 11.1797 265.484 10.8359L266.367 11.5234C265.659 12.612 264.596 13.1562 263.18 13.1562ZM263 5.57812C262.417 5.57812 261.927 5.79167 261.531 6.21875C261.135 6.64062 260.891 7.23438 260.797 8H265.031V7.89062C264.99 7.15625 264.792 6.58854 264.438 6.1875C264.083 5.78125 263.604 5.57812 263 5.57812ZM269.523 4.54688L269.57 5.60938C270.216 4.79688 271.06 4.39062 272.102 4.39062C273.888 4.39062 274.789 5.39844 274.805 7.41406V13H273.359V7.40625C273.354 6.79688 273.214 6.34635 272.938 6.05469C272.667 5.76302 272.242 5.61719 271.664 5.61719C271.195 5.61719 270.784 5.74219 270.43 5.99219C270.076 6.24219 269.799 6.57031 269.602 6.97656V13H268.156V4.54688H269.523ZM276.633 8.70312C276.633 7.40625 276.94 6.36458 277.555 5.57812C278.169 4.78646 278.974 4.39062 279.969 4.39062C280.958 4.39062 281.742 4.72917 282.32 5.40625V1H283.766V13H282.438L282.367 12.0938C281.789 12.8021 280.984 13.1562 279.953 13.1562C278.974 13.1562 278.174 12.7552 277.555 11.9531C276.94 11.151 276.633 10.1042 276.633 8.8125V8.70312ZM278.078 8.86719C278.078 9.82552 278.276 10.5755 278.672 11.1172C279.068 11.6589 279.615 11.9297 280.312 11.9297C281.229 11.9297 281.898 11.5182 282.32 10.6953V6.8125C281.888 6.01562 281.224 5.61719 280.328 5.61719C279.62 5.61719 279.068 5.89062 278.672 6.4375C278.276 6.98438 278.078 7.79427 278.078 8.86719ZM291.945 2.5V4.54688H293.523V5.66406H291.945V10.9062C291.945 11.2448 292.016 11.5 292.156 11.6719C292.297 11.8385 292.536 11.9219 292.875 11.9219C293.042 11.9219 293.271 11.8906 293.562 11.8281V13C293.182 13.1042 292.812 13.1562 292.453 13.1562C291.807 13.1562 291.32 12.9609 290.992 12.5703C290.664 12.1797 290.5 11.625 290.5 10.9062V5.66406H288.961V4.54688H290.5V2.5H291.945ZM296.664 5.57031C297.305 4.78385 298.138 4.39062 299.164 4.39062C300.951 4.39062 301.852 5.39844 301.867 7.41406V13H300.422V7.40625C300.417 6.79688 300.276 6.34635 300 6.05469C299.729 5.76302 299.305 5.61719 298.727 5.61719C298.258 5.61719 297.846 5.74219 297.492 5.99219C297.138 6.24219 296.862 6.57031 296.664 6.97656V13H295.219V1H296.664V5.57031ZM307.539 13.1562C306.393 13.1562 305.461 12.7812 304.742 12.0312C304.023 11.276 303.664 10.2682 303.664 9.00781V8.74219C303.664 7.90365 303.823 7.15625 304.141 6.5C304.464 5.83854 304.911 5.32292 305.484 4.95312C306.062 4.57812 306.688 4.39062 307.359 4.39062C308.458 4.39062 309.312 4.7526 309.922 5.47656C310.531 6.20052 310.836 7.23698 310.836 8.58594V9.1875H305.109C305.13 10.0208 305.372 10.6953 305.836 11.2109C306.305 11.7214 306.898 11.9766 307.617 11.9766C308.128 11.9766 308.56 11.8724 308.914 11.6641C309.268 11.4557 309.578 11.1797 309.844 10.8359L310.727 11.5234C310.018 12.612 308.956 13.1562 307.539 13.1562ZM307.359 5.57812C306.776 5.57812 306.286 5.79167 305.891 6.21875C305.495 6.64062 305.25 7.23438 305.156 8H309.391V7.89062C309.349 7.15625 309.151 6.58854 308.797 6.1875C308.443 5.78125 307.964 5.57812 307.359 5.57812ZM314.086 13H312.641V4.54688H314.086V13ZM312.523 2.30469C312.523 2.07031 312.594 1.8724 312.734 1.71094C312.88 1.54948 313.094 1.46875 313.375 1.46875C313.656 1.46875 313.87 1.54948 314.016 1.71094C314.161 1.8724 314.234 2.07031 314.234 2.30469C314.234 2.53906 314.161 2.73438 314.016 2.89062C313.87 3.04688 313.656 3.125 313.375 3.125C313.094 3.125 312.88 3.04688 312.734 2.89062C312.594 2.73438 312.523 2.53906 312.523 2.30469ZM320.492 5.84375C320.273 5.80729 320.036 5.78906 319.781 5.78906C318.833 5.78906 318.19 6.19271 317.852 7V13H316.406V4.54688H317.812L317.836 5.52344C318.31 4.76823 318.982 4.39062 319.852 4.39062C320.133 4.39062 320.346 4.42708 320.492 4.5V5.84375ZM2.45312 26.5469L2.49219 27.4844C3.11198 26.7552 3.94792 26.3906 5 26.3906C6.18229 26.3906 6.98698 26.8438 7.41406 27.75C7.69531 27.3438 8.0599 27.0156 8.50781 26.7656C8.96094 26.5156 9.49479 26.3906 10.1094 26.3906C11.9635 26.3906 12.9062 27.3724 12.9375 29.3359V35H11.4922V29.4219C11.4922 28.8177 11.3542 28.3672 11.0781 28.0703C10.8021 27.7682 10.3385 27.6172 9.6875 27.6172C9.15104 27.6172 8.70573 27.7786 8.35156 28.1016C7.9974 28.4193 7.79167 28.849 7.73438 29.3906V35H6.28125V29.4609C6.28125 28.2318 5.67969 27.6172 4.47656 27.6172C3.52865 27.6172 2.88021 28.0208 2.53125 28.8281V35H1.08594V26.5469H2.45312ZM18.6328 35.1562C17.487 35.1562 16.5547 34.7812 15.8359 34.0312C15.1172 33.276 14.7578 32.2682 14.7578 31.0078V30.7422C14.7578 29.9036 14.9167 29.1562 15.2344 28.5C15.5573 27.8385 16.0052 27.3229 16.5781 26.9531C17.1562 26.5781 17.7812 26.3906 18.4531 26.3906C19.5521 26.3906 20.4062 26.7526 21.0156 27.4766C21.625 28.2005 21.9297 29.237 21.9297 30.5859V31.1875H16.2031C16.224 32.0208 16.4661 32.6953 16.9297 33.2109C17.3984 33.7214 17.9922 33.9766 18.7109 33.9766C19.2214 33.9766 19.6536 33.8724 20.0078 33.6641C20.362 33.4557 20.6719 33.1797 20.9375 32.8359L21.8203 33.5234C21.112 34.612 20.0495 35.1562 18.6328 35.1562ZM18.4531 27.5781C17.8698 27.5781 17.3802 27.7917 16.9844 28.2188C16.5885 28.6406 16.3438 29.2344 16.25 30H20.4844V29.8906C20.4427 29.1562 20.2448 28.5885 19.8906 28.1875C19.5365 27.7812 19.0573 27.5781 18.4531 27.5781ZM27.1172 35.1562C25.9714 35.1562 25.0391 34.7812 24.3203 34.0312C23.6016 33.276 23.2422 32.2682 23.2422 31.0078V30.7422C23.2422 29.9036 23.401 29.1562 23.7188 28.5C24.0417 27.8385 24.4896 27.3229 25.0625 26.9531C25.6406 26.5781 26.2656 26.3906 26.9375 26.3906C28.0365 26.3906 28.8906 26.7526 29.5 27.4766C30.1094 28.2005 30.4141 29.237 30.4141 30.5859V31.1875H24.6875C24.7083 32.0208 24.9505 32.6953 25.4141 33.2109C25.8828 33.7214 26.4766 33.9766 27.1953 33.9766C27.7057 33.9766 28.138 33.8724 28.4922 33.6641C28.8464 33.4557 29.1562 33.1797 29.4219 32.8359L30.3047 33.5234C29.5964 34.612 28.5339 35.1562 27.1172 35.1562ZM26.9375 27.5781C26.3542 27.5781 25.8646 27.7917 25.4688 28.2188C25.0729 28.6406 24.8281 29.2344 24.7344 30H28.9688V29.8906C28.9271 29.1562 28.7292 28.5885 28.375 28.1875C28.0208 27.7812 27.5417 27.5781 26.9375 27.5781ZM34.0547 24.5V26.5469H35.6328V27.6641H34.0547V32.9062C34.0547 33.2448 34.125 33.5 34.2656 33.6719C34.4062 33.8385 34.6458 33.9219 34.9844 33.9219C35.151 33.9219 35.3802 33.8906 35.6719 33.8281V35C35.2917 35.1042 34.9219 35.1562 34.5625 35.1562C33.9167 35.1562 33.4297 34.9609 33.1016 34.5703C32.7734 34.1797 32.6094 33.625 32.6094 32.9062V27.6641H31.0703V26.5469H32.6094V24.5H34.0547ZM38.8984 35H37.4531V26.5469H38.8984V35ZM37.3359 24.3047C37.3359 24.0703 37.4062 23.8724 37.5469 23.7109C37.6927 23.5495 37.9062 23.4688 38.1875 23.4688C38.4688 23.4688 38.6823 23.5495 38.8281 23.7109C38.974 23.8724 39.0469 24.0703 39.0469 24.3047C39.0469 24.5391 38.974 24.7344 38.8281 24.8906C38.6823 25.0469 38.4688 25.125 38.1875 25.125C37.9062 25.125 37.6927 25.0469 37.5469 24.8906C37.4062 24.7344 37.3359 24.5391 37.3359 24.3047ZM42.5859 26.5469L42.6328 27.6094C43.2786 26.7969 44.1224 26.3906 45.1641 26.3906C46.9505 26.3906 47.8516 27.3984 47.8672 29.4141V35H46.4219V29.4062C46.4167 28.7969 46.276 28.3464 46 28.0547C45.7292 27.763 45.3047 27.6172 44.7266 27.6172C44.2578 27.6172 43.8464 27.7422 43.4922 27.9922C43.138 28.2422 42.862 28.5703 42.6641 28.9766V35H41.2188V26.5469H42.5859ZM49.7031 30.7031C49.7031 29.3854 50.0078 28.3385 50.6172 27.5625C51.2266 26.7812 52.0339 26.3906 53.0391 26.3906C54.0703 26.3906 54.875 26.7552 55.4531 27.4844L55.5234 26.5469H56.8438V34.7969C56.8438 35.8906 56.5182 36.7526 55.8672 37.3828C55.2214 38.013 54.3516 38.3281 53.2578 38.3281C52.6484 38.3281 52.0521 38.1979 51.4688 37.9375C50.8854 37.6771 50.4401 37.3203 50.1328 36.8672L50.8828 36C51.5026 36.7656 52.2604 37.1484 53.1562 37.1484C53.8594 37.1484 54.4062 36.9505 54.7969 36.5547C55.1927 36.1589 55.3906 35.6016 55.3906 34.8828V34.1562C54.8125 34.8229 54.0234 35.1562 53.0234 35.1562C52.0339 35.1562 51.2318 34.7578 50.6172 33.9609C50.0078 33.1641 49.7031 32.0781 49.7031 30.7031ZM51.1562 30.8672C51.1562 31.8203 51.3516 32.5703 51.7422 33.1172C52.1328 33.6589 52.6797 33.9297 53.3828 33.9297C54.2943 33.9297 54.9635 33.5156 55.3906 32.6875V28.8281C54.9479 28.0208 54.2839 27.6172 53.3984 27.6172C52.6953 27.6172 52.1458 27.8906 51.75 28.4375C51.3542 28.9844 51.1562 29.7943 51.1562 30.8672ZM63.9531 32.7578C63.9531 32.3672 63.8047 32.0651 63.5078 31.8516C63.2161 31.6328 62.7031 31.4453 61.9688 31.2891C61.2396 31.1328 60.6589 30.9453 60.2266 30.7266C59.7995 30.5078 59.4818 30.2474 59.2734 29.9453C59.0703 29.6432 58.9688 29.2839 58.9688 28.8672C58.9688 28.1745 59.2604 27.5885 59.8438 27.1094C60.4323 26.6302 61.1823 26.3906 62.0938 26.3906C63.0521 26.3906 63.8281 26.638 64.4219 27.1328C65.0208 27.6276 65.3203 28.2604 65.3203 29.0312H63.8672C63.8672 28.6354 63.6979 28.2943 63.3594 28.0078C63.026 27.7214 62.6042 27.5781 62.0938 27.5781C61.5677 27.5781 61.1562 27.6927 60.8594 27.9219C60.5625 28.151 60.4141 28.4505 60.4141 28.8203C60.4141 29.1693 60.5521 29.4323 60.8281 29.6094C61.1042 29.7865 61.6016 29.9557 62.3203 30.1172C63.0443 30.2786 63.6302 30.4714 64.0781 30.6953C64.526 30.9193 64.8568 31.1901 65.0703 31.5078C65.2891 31.8203 65.3984 32.2031 65.3984 32.6562C65.3984 33.4115 65.0964 34.0182 64.4922 34.4766C63.888 34.9297 63.1042 35.1562 62.1406 35.1562C61.4635 35.1562 60.8646 35.0365 60.3438 34.7969C59.8229 34.5573 59.4141 34.224 59.1172 33.7969C58.8255 33.3646 58.6797 32.8984 58.6797 32.3984H60.125C60.151 32.8828 60.3438 33.2682 60.7031 33.5547C61.0677 33.8359 61.5469 33.9766 62.1406 33.9766C62.6875 33.9766 63.125 33.8672 63.4531 33.6484C63.7865 33.4245 63.9531 33.1276 63.9531 32.7578ZM67.2344 37.2656L66.4141 36.7031C66.9036 36.0208 67.1589 35.3177 67.1797 34.5938V33.2891H68.5938V34.4219C68.5938 34.9479 68.4635 35.474 68.2031 36C67.9479 36.526 67.625 36.9479 67.2344 37.2656ZM79.6094 35C79.526 34.8333 79.4583 34.5365 79.4062 34.1094C78.7344 34.8073 77.9323 35.1562 77 35.1562C76.1667 35.1562 75.4818 34.9219 74.9453 34.4531C74.4141 33.9792 74.1484 33.3802 74.1484 32.6562C74.1484 31.776 74.4818 31.0938 75.1484 30.6094C75.8203 30.1198 76.763 29.875 77.9766 29.875H79.3828V29.2109C79.3828 28.7057 79.2318 28.3047 78.9297 28.0078C78.6276 27.7057 78.1823 27.5547 77.5938 27.5547C77.0781 27.5547 76.6458 27.6849 76.2969 27.9453C75.9479 28.2057 75.7734 28.5208 75.7734 28.8906H74.3203C74.3203 28.4688 74.4688 28.0625 74.7656 27.6719C75.0677 27.276 75.474 26.9635 75.9844 26.7344C76.5 26.5052 77.0651 26.3906 77.6797 26.3906C78.6536 26.3906 79.4167 26.6354 79.9688 27.125C80.5208 27.6094 80.8073 28.2786 80.8281 29.1328V33.0234C80.8281 33.7995 80.9271 34.4167 81.125 34.875V35H79.6094ZM77.2109 33.8984C77.6641 33.8984 78.0938 33.7812 78.5 33.5469C78.9062 33.3125 79.2005 33.0078 79.3828 32.6328V30.8984H78.25C76.4792 30.8984 75.5938 31.4167 75.5938 32.4531C75.5938 32.9062 75.7448 33.2604 76.0469 33.5156C76.349 33.7708 76.737 33.8984 77.2109 33.8984ZM84.4609 26.5469L84.5078 27.6094C85.1536 26.7969 85.9974 26.3906 87.0391 26.3906C88.8255 26.3906 89.7266 27.3984 89.7422 29.4141V35H88.2969V29.4062C88.2917 28.7969 88.151 28.3464 87.875 28.0547C87.6042 27.763 87.1797 27.6172 86.6016 27.6172C86.1328 27.6172 85.7214 27.7422 85.3672 27.9922C85.013 28.2422 84.737 28.5703 84.5391 28.9766V35H83.0938V26.5469H84.4609ZM91.5703 30.7031C91.5703 29.4062 91.8776 28.3646 92.4922 27.5781C93.1068 26.7865 93.9115 26.3906 94.9062 26.3906C95.8958 26.3906 96.6797 26.7292 97.2578 27.4062V23H98.7031V35H97.375L97.3047 34.0938C96.7266 34.8021 95.9219 35.1562 94.8906 35.1562C93.9115 35.1562 93.112 34.7552 92.4922 33.9531C91.8776 33.151 91.5703 32.1042 91.5703 30.8125V30.7031ZM93.0156 30.8672C93.0156 31.8255 93.2135 32.5755 93.6094 33.1172C94.0052 33.6589 94.5521 33.9297 95.25 33.9297C96.1667 33.9297 96.8359 33.5182 97.2578 32.6953V28.8125C96.8255 28.0156 96.1615 27.6172 95.2656 27.6172C94.5573 27.6172 94.0052 27.8906 93.6094 28.4375C93.2135 28.9844 93.0156 29.7943 93.0156 30.8672ZM109.008 27.8438C108.789 27.8073 108.552 27.7891 108.297 27.7891C107.349 27.7891 106.706 28.1927 106.367 29V35H104.922V26.5469H106.328L106.352 27.5234C106.826 26.7682 107.497 26.3906 108.367 26.3906C108.648 26.3906 108.862 26.4271 109.008 26.5V27.8438ZM113.695 35.1562C112.549 35.1562 111.617 34.7812 110.898 34.0312C110.18 33.276 109.82 32.2682 109.82 31.0078V30.7422C109.82 29.9036 109.979 29.1562 110.297 28.5C110.62 27.8385 111.068 27.3229 111.641 26.9531C112.219 26.5781 112.844 26.3906 113.516 26.3906C114.615 26.3906 115.469 26.7526 116.078 27.4766C116.688 28.2005 116.992 29.237 116.992 30.5859V31.1875H111.266C111.286 32.0208 111.529 32.6953 111.992 33.2109C112.461 33.7214 113.055 33.9766 113.773 33.9766C114.284 33.9766 114.716 33.8724 115.07 33.6641C115.424 33.4557 115.734 33.1797 116 32.8359L116.883 33.5234C116.174 34.612 115.112 35.1562 113.695 35.1562ZM113.516 27.5781C112.932 27.5781 112.443 27.7917 112.047 28.2188C111.651 28.6406 111.406 29.2344 111.312 30H115.547V29.8906C115.505 29.1562 115.307 28.5885 114.953 28.1875C114.599 27.7812 114.12 27.5781 113.516 27.5781ZM121.352 33.0391L123.445 26.5469H124.922L121.891 35H120.789L117.727 26.5469H119.203L121.352 33.0391ZM127.883 35H126.438V26.5469H127.883V35ZM126.32 24.3047C126.32 24.0703 126.391 23.8724 126.531 23.7109C126.677 23.5495 126.891 23.4688 127.172 23.4688C127.453 23.4688 127.667 23.5495 127.812 23.7109C127.958 23.8724 128.031 24.0703 128.031 24.3047C128.031 24.5391 127.958 24.7344 127.812 24.8906C127.667 25.0469 127.453 25.125 127.172 25.125C126.891 25.125 126.677 25.0469 126.531 24.8906C126.391 24.7344 126.32 24.5391 126.32 24.3047ZM133.711 35.1562C132.565 35.1562 131.633 34.7812 130.914 34.0312C130.195 33.276 129.836 32.2682 129.836 31.0078V30.7422C129.836 29.9036 129.995 29.1562 130.312 28.5C130.635 27.8385 131.083 27.3229 131.656 26.9531C132.234 26.5781 132.859 26.3906 133.531 26.3906C134.63 26.3906 135.484 26.7526 136.094 27.4766C136.703 28.2005 137.008 29.237 137.008 30.5859V31.1875H131.281C131.302 32.0208 131.544 32.6953 132.008 33.2109C132.477 33.7214 133.07 33.9766 133.789 33.9766C134.299 33.9766 134.732 33.8724 135.086 33.6641C135.44 33.4557 135.75 33.1797 136.016 32.8359L136.898 33.5234C136.19 34.612 135.128 35.1562 133.711 35.1562ZM133.531 27.5781C132.948 27.5781 132.458 27.7917 132.062 28.2188C131.667 28.6406 131.422 29.2344 131.328 30H135.562V29.8906C135.521 29.1562 135.323 28.5885 134.969 28.1875C134.615 27.7812 134.135 27.5781 133.531 27.5781ZM146.172 33.0078L147.797 26.5469H149.242L146.781 35H145.609L143.555 28.5938L141.555 35H140.383L137.93 26.5469H139.367L141.031 32.875L143 26.5469H144.164L146.172 33.0078ZM161.828 30.8672C161.828 32.1536 161.534 33.1901 160.945 33.9766C160.357 34.763 159.56 35.1562 158.555 35.1562C157.529 35.1562 156.721 34.8307 156.133 34.1797V38.25H154.688V26.5469H156.008L156.078 27.4844C156.667 26.7552 157.484 26.3906 158.531 26.3906C159.547 26.3906 160.349 26.7734 160.938 27.5391C161.531 28.3047 161.828 29.3698 161.828 30.7344V30.8672ZM160.383 30.7031C160.383 29.75 160.18 28.9974 159.773 28.4453C159.367 27.8932 158.81 27.6172 158.102 27.6172C157.227 27.6172 156.57 28.0052 156.133 28.7812V32.8203C156.565 33.5911 157.227 33.9766 158.117 33.9766C158.81 33.9766 159.359 33.7031 159.766 33.1562C160.177 32.6042 160.383 31.7865 160.383 30.7031ZM163.289 30.6953C163.289 29.8672 163.451 29.1224 163.773 28.4609C164.102 27.7995 164.555 27.2891 165.133 26.9297C165.716 26.5703 166.38 26.3906 167.125 26.3906C168.276 26.3906 169.206 26.7891 169.914 27.5859C170.628 28.3828 170.984 29.4427 170.984 30.7656V30.8672C170.984 31.6901 170.826 32.4297 170.508 33.0859C170.195 33.737 169.745 34.2448 169.156 34.6094C168.573 34.974 167.901 35.1562 167.141 35.1562C165.995 35.1562 165.065 34.7578 164.352 33.9609C163.643 33.1641 163.289 32.1094 163.289 30.7969V30.6953ZM164.742 30.8672C164.742 31.8047 164.958 32.5573 165.391 33.125C165.828 33.6927 166.411 33.9766 167.141 33.9766C167.875 33.9766 168.458 33.6901 168.891 33.1172C169.323 32.5391 169.539 31.7318 169.539 30.6953C169.539 29.7682 169.318 29.0182 168.875 28.4453C168.438 27.8672 167.854 27.5781 167.125 27.5781C166.411 27.5781 165.836 27.862 165.398 28.4297C164.961 28.9974 164.742 29.8099 164.742 30.8672ZM174.758 24.5V26.5469H176.336V27.6641H174.758V32.9062C174.758 33.2448 174.828 33.5 174.969 33.6719C175.109 33.8385 175.349 33.9219 175.688 33.9219C175.854 33.9219 176.083 33.8906 176.375 33.8281V35C175.995 35.1042 175.625 35.1562 175.266 35.1562C174.62 35.1562 174.133 34.9609 173.805 34.5703C173.477 34.1797 173.312 33.625 173.312 32.9062V27.6641H171.773V26.5469H173.312V24.5H174.758ZM181.539 35.1562C180.393 35.1562 179.461 34.7812 178.742 34.0312C178.023 33.276 177.664 32.2682 177.664 31.0078V30.7422C177.664 29.9036 177.823 29.1562 178.141 28.5C178.464 27.8385 178.911 27.3229 179.484 26.9531C180.062 26.5781 180.688 26.3906 181.359 26.3906C182.458 26.3906 183.312 26.7526 183.922 27.4766C184.531 28.2005 184.836 29.237 184.836 30.5859V31.1875H179.109C179.13 32.0208 179.372 32.6953 179.836 33.2109C180.305 33.7214 180.898 33.9766 181.617 33.9766C182.128 33.9766 182.56 33.8724 182.914 33.6641C183.268 33.4557 183.578 33.1797 183.844 32.8359L184.727 33.5234C184.018 34.612 182.956 35.1562 181.539 35.1562ZM181.359 27.5781C180.776 27.5781 180.286 27.7917 179.891 28.2188C179.495 28.6406 179.25 29.2344 179.156 30H183.391V29.8906C183.349 29.1562 183.151 28.5885 182.797 28.1875C182.443 27.7812 181.964 27.5781 181.359 27.5781ZM187.883 26.5469L187.93 27.6094C188.576 26.7969 189.419 26.3906 190.461 26.3906C192.247 26.3906 193.148 27.3984 193.164 29.4141V35H191.719V29.4062C191.714 28.7969 191.573 28.3464 191.297 28.0547C191.026 27.763 190.602 27.6172 190.023 27.6172C189.555 27.6172 189.143 27.7422 188.789 27.9922C188.435 28.2422 188.159 28.5703 187.961 28.9766V35H186.516V26.5469H187.883ZM197.305 24.5V26.5469H198.883V27.6641H197.305V32.9062C197.305 33.2448 197.375 33.5 197.516 33.6719C197.656 33.8385 197.896 33.9219 198.234 33.9219C198.401 33.9219 198.63 33.8906 198.922 33.8281V35C198.542 35.1042 198.172 35.1562 197.812 35.1562C197.167 35.1562 196.68 34.9609 196.352 34.5703C196.023 34.1797 195.859 33.625 195.859 32.9062V27.6641H194.32V26.5469H195.859V24.5H197.305ZM202.148 35H200.703V26.5469H202.148V35ZM200.586 24.3047C200.586 24.0703 200.656 23.8724 200.797 23.7109C200.943 23.5495 201.156 23.4688 201.438 23.4688C201.719 23.4688 201.932 23.5495 202.078 23.7109C202.224 23.8724 202.297 24.0703 202.297 24.3047C202.297 24.5391 202.224 24.7344 202.078 24.8906C201.932 25.0469 201.719 25.125 201.438 25.125C201.156 25.125 200.943 25.0469 200.797 24.8906C200.656 24.7344 200.586 24.5391 200.586 24.3047ZM209.688 35C209.604 34.8333 209.536 34.5365 209.484 34.1094C208.812 34.8073 208.01 35.1562 207.078 35.1562C206.245 35.1562 205.56 34.9219 205.023 34.4531C204.492 33.9792 204.227 33.3802 204.227 32.6562C204.227 31.776 204.56 31.0938 205.227 30.6094C205.898 30.1198 206.841 29.875 208.055 29.875H209.461V29.2109C209.461 28.7057 209.31 28.3047 209.008 28.0078C208.706 27.7057 208.26 27.5547 207.672 27.5547C207.156 27.5547 206.724 27.6849 206.375 27.9453C206.026 28.2057 205.852 28.5208 205.852 28.8906H204.398C204.398 28.4688 204.547 28.0625 204.844 27.6719C205.146 27.276 205.552 26.9635 206.062 26.7344C206.578 26.5052 207.143 26.3906 207.758 26.3906C208.732 26.3906 209.495 26.6354 210.047 27.125C210.599 27.6094 210.885 28.2786 210.906 29.1328V33.0234C210.906 33.7995 211.005 34.4167 211.203 34.875V35H209.688ZM207.289 33.8984C207.742 33.8984 208.172 33.7812 208.578 33.5469C208.984 33.3125 209.279 33.0078 209.461 32.6328V30.8984H208.328C206.557 30.8984 205.672 31.4167 205.672 32.4531C205.672 32.9062 205.823 33.2604 206.125 33.5156C206.427 33.7708 206.815 33.8984 207.289 33.8984ZM214.742 35H213.297V23H214.742V35ZM95.7969 56.2422C95.7969 55.9922 95.8698 55.7839 96.0156 55.6172C96.1667 55.4505 96.3906 55.3672 96.6875 55.3672C96.9844 55.3672 97.2083 55.4505 97.3594 55.6172C97.5156 55.7839 97.5938 55.9922 97.5938 56.2422C97.5938 56.4818 97.5156 56.6823 97.3594 56.8438C97.2083 57.0052 96.9844 57.0859 96.6875 57.0859C96.3906 57.0859 96.1667 57.0052 96.0156 56.8438C95.8698 56.6823 95.7969 56.4818 95.7969 56.2422Z" fill="#333333"/>
<path d="M79.125 9.39062C78.9844 10.5938 78.5391 11.5234 77.7891 12.1797C77.0443 12.8307 76.0521 13.1562 74.8125 13.1562C73.4688 13.1562 72.3906 12.6745 71.5781 11.7109C70.7708 10.7474 70.3672 9.45833 70.3672 7.84375V6.75C70.3672 5.69271 70.5547 4.76302 70.9297 3.96094C71.3099 3.15885 71.8464 2.54427 72.5391 2.11719C73.2318 1.6849 74.0339 1.46875 74.9453 1.46875C76.1536 1.46875 77.1224 1.80729 77.8516 2.48438C78.5807 3.15625 79.0052 4.08854 79.125 5.28125H77.6172C77.487 4.375 77.2031 3.71875 76.7656 3.3125C76.3333 2.90625 75.7266 2.70312 74.9453 2.70312C73.987 2.70312 73.2344 3.05729 72.6875 3.76562C72.1458 4.47396 71.875 5.48177 71.875 6.78906V7.89062C71.875 9.125 72.1328 10.1068 72.6484 10.8359C73.1641 11.5651 73.8854 11.9297 74.8125 11.9297C75.6458 11.9297 76.2839 11.7422 76.7266 11.3672C77.1745 10.987 77.4714 10.3281 77.6172 9.39062H79.125ZM80.5703 8.69531C80.5703 7.86719 80.7318 7.1224 81.0547 6.46094C81.3828 5.79948 81.8359 5.28906 82.4141 4.92969C82.9974 4.57031 83.6615 4.39062 84.4062 4.39062C85.5573 4.39062 86.487 4.78906 87.1953 5.58594C87.9089 6.38281 88.2656 7.44271 88.2656 8.76562V8.86719C88.2656 9.6901 88.1068 10.4297 87.7891 11.0859C87.4766 11.737 87.026 12.2448 86.4375 12.6094C85.8542 12.974 85.1823 13.1562 84.4219 13.1562C83.276 13.1562 82.3464 12.7578 81.6328 11.9609C80.9245 11.1641 80.5703 10.1094 80.5703 8.79688V8.69531ZM82.0234 8.86719C82.0234 9.80469 82.2396 10.5573 82.6719 11.125C83.1094 11.6927 83.6927 11.9766 84.4219 11.9766C85.1562 11.9766 85.7396 11.6901 86.1719 11.1172C86.6042 10.5391 86.8203 9.73177 86.8203 8.69531C86.8203 7.76823 86.599 7.01823 86.1562 6.44531C85.7188 5.86719 85.1354 5.57812 84.4062 5.57812C83.6927 5.57812 83.1172 5.86198 82.6797 6.42969C82.2422 6.9974 82.0234 7.8099 82.0234 8.86719ZM91.4375 4.54688L91.4766 5.48438C92.0964 4.75521 92.9323 4.39062 93.9844 4.39062C95.1667 4.39062 95.9714 4.84375 96.3984 5.75C96.6797 5.34375 97.0443 5.01562 97.4922 4.76562C97.9453 4.51562 98.4792 4.39062 99.0938 4.39062C100.948 4.39062 101.891 5.3724 101.922 7.33594V13H100.477V7.42188C100.477 6.81771 100.339 6.36719 100.062 6.07031C99.7865 5.76823 99.3229 5.61719 98.6719 5.61719C98.1354 5.61719 97.6901 5.77865 97.3359 6.10156C96.9818 6.41927 96.776 6.84896 96.7188 7.39062V13H95.2656V7.46094C95.2656 6.23177 94.6641 5.61719 93.4609 5.61719C92.513 5.61719 91.8646 6.02083 91.5156 6.82812V13H90.0703V4.54688H91.4375ZM105.469 4.54688L105.508 5.48438C106.128 4.75521 106.964 4.39062 108.016 4.39062C109.198 4.39062 110.003 4.84375 110.43 5.75C110.711 5.34375 111.076 5.01562 111.523 4.76562C111.977 4.51562 112.51 4.39062 113.125 4.39062C114.979 4.39062 115.922 5.3724 115.953 7.33594V13H114.508V7.42188C114.508 6.81771 114.37 6.36719 114.094 6.07031C113.818 5.76823 113.354 5.61719 112.703 5.61719C112.167 5.61719 111.721 5.77865 111.367 6.10156C111.013 6.41927 110.807 6.84896 110.75 7.39062V13H109.297V7.46094C109.297 6.23177 108.695 5.61719 107.492 5.61719C106.544 5.61719 105.896 6.02083 105.547 6.82812V13H104.102V4.54688H105.469ZM123.359 12.1641C122.797 12.8255 121.971 13.1562 120.883 13.1562C119.982 13.1562 119.294 12.8958 118.82 12.375C118.352 11.849 118.115 11.0729 118.109 10.0469V4.54688H119.555V10.0078C119.555 11.2891 120.076 11.9297 121.117 11.9297C122.221 11.9297 122.956 11.5182 123.32 10.6953V4.54688H124.766V13H123.391L123.359 12.1641ZM128.336 4.54688L128.383 5.60938C129.029 4.79688 129.872 4.39062 130.914 4.39062C132.701 4.39062 133.602 5.39844 133.617 7.41406V13H132.172V7.40625C132.167 6.79688 132.026 6.34635 131.75 6.05469C131.479 5.76302 131.055 5.61719 130.477 5.61719C130.008 5.61719 129.596 5.74219 129.242 5.99219C128.888 6.24219 128.612 6.57031 128.414 6.97656V13H126.969V4.54688H128.336ZM137.367 13H135.922V4.54688H137.367V13ZM135.805 2.30469C135.805 2.07031 135.875 1.8724 136.016 1.71094C136.161 1.54948 136.375 1.46875 136.656 1.46875C136.938 1.46875 137.151 1.54948 137.297 1.71094C137.443 1.8724 137.516 2.07031 137.516 2.30469C137.516 2.53906 137.443 2.73438 137.297 2.89062C137.151 3.04688 136.938 3.125 136.656 3.125C136.375 3.125 136.161 3.04688 136.016 2.89062C135.875 2.73438 135.805 2.53906 135.805 2.30469ZM141.648 2.5V4.54688H143.227V5.66406H141.648V10.9062C141.648 11.2448 141.719 11.5 141.859 11.6719C142 11.8385 142.24 11.9219 142.578 11.9219C142.745 11.9219 142.974 11.8906 143.266 11.8281V13C142.885 13.1042 142.516 13.1562 142.156 13.1562C141.51 13.1562 141.023 12.9609 140.695 12.5703C140.367 12.1797 140.203 11.625 140.203 10.9062V5.66406H138.664V4.54688H140.203V2.5H141.648ZM147.688 10.8828L149.656 4.54688H151.203L147.805 14.3047C147.279 15.7109 146.443 16.4141 145.297 16.4141L145.023 16.3906L144.484 16.2891V15.1172L144.875 15.1484C145.365 15.1484 145.745 15.0495 146.016 14.8516C146.292 14.6536 146.518 14.2917 146.695 13.7656L147.016 12.9062L144 4.54688H145.578L147.688 10.8828ZM156.086 8.69531C156.086 7.86719 156.247 7.1224 156.57 6.46094C156.898 5.79948 157.352 5.28906 157.93 4.92969C158.513 4.57031 159.177 4.39062 159.922 4.39062C161.073 4.39062 162.003 4.78906 162.711 5.58594C163.424 6.38281 163.781 7.44271 163.781 8.76562V8.86719C163.781 9.6901 163.622 10.4297 163.305 11.0859C162.992 11.737 162.542 12.2448 161.953 12.6094C161.37 12.974 160.698 13.1562 159.938 13.1562C158.792 13.1562 157.862 12.7578 157.148 11.9609C156.44 11.1641 156.086 10.1094 156.086 8.79688V8.69531ZM157.539 8.86719C157.539 9.80469 157.755 10.5573 158.188 11.125C158.625 11.6927 159.208 11.9766 159.938 11.9766C160.672 11.9766 161.255 11.6901 161.688 11.1172C162.12 10.5391 162.336 9.73177 162.336 8.69531C162.336 7.76823 162.115 7.01823 161.672 6.44531C161.234 5.86719 160.651 5.57812 159.922 5.57812C159.208 5.57812 158.633 5.86198 158.195 6.42969C157.758 6.9974 157.539 7.8099 157.539 8.86719ZM166.305 13V5.66406H164.969V4.54688H166.305V3.67969C166.305 2.77344 166.547 2.07292 167.031 1.57812C167.516 1.08333 168.201 0.835938 169.086 0.835938C169.419 0.835938 169.75 0.880208 170.078 0.96875L170 2.14062C169.755 2.09375 169.495 2.07031 169.219 2.07031C168.75 2.07031 168.388 2.20833 168.133 2.48438C167.878 2.75521 167.75 3.14583 167.75 3.65625V4.54688H169.555V5.66406H167.75V13H166.305ZM176.852 8.54688V13H175.352V1.625H179.547C180.792 1.625 181.766 1.94271 182.469 2.57812C183.177 3.21354 183.531 4.05469 183.531 5.10156C183.531 6.20573 183.185 7.05729 182.492 7.65625C181.805 8.25 180.818 8.54688 179.531 8.54688H176.852ZM176.852 7.32031H179.547C180.349 7.32031 180.964 7.13281 181.391 6.75781C181.818 6.3776 182.031 5.83073 182.031 5.11719C182.031 4.4401 181.818 3.89844 181.391 3.49219C180.964 3.08594 180.378 2.875 179.633 2.85938H176.852V7.32031ZM189.305 5.84375C189.086 5.80729 188.849 5.78906 188.594 5.78906C187.646 5.78906 187.003 6.19271 186.664 7V13H185.219V4.54688H186.625L186.648 5.52344C187.122 4.76823 187.794 4.39062 188.664 4.39062C188.945 4.39062 189.159 4.42708 189.305 4.5V5.84375ZM195.547 13C195.464 12.8333 195.396 12.5365 195.344 12.1094C194.672 12.8073 193.87 13.1562 192.938 13.1562C192.104 13.1562 191.419 12.9219 190.883 12.4531C190.352 11.9792 190.086 11.3802 190.086 10.6562C190.086 9.77604 190.419 9.09375 191.086 8.60938C191.758 8.11979 192.701 7.875 193.914 7.875H195.32V7.21094C195.32 6.70573 195.169 6.30469 194.867 6.00781C194.565 5.70573 194.12 5.55469 193.531 5.55469C193.016 5.55469 192.583 5.6849 192.234 5.94531C191.885 6.20573 191.711 6.52083 191.711 6.89062H190.258C190.258 6.46875 190.406 6.0625 190.703 5.67188C191.005 5.27604 191.411 4.96354 191.922 4.73438C192.438 4.50521 193.003 4.39062 193.617 4.39062C194.591 4.39062 195.354 4.63542 195.906 5.125C196.458 5.60938 196.745 6.27865 196.766 7.13281V11.0234C196.766 11.7995 196.865 12.4167 197.062 12.875V13H195.547ZM193.148 11.8984C193.602 11.8984 194.031 11.7812 194.438 11.5469C194.844 11.3125 195.138 11.0078 195.32 10.6328V8.89844H194.188C192.417 8.89844 191.531 9.41667 191.531 10.4531C191.531 10.9062 191.682 11.2604 191.984 11.5156C192.286 11.7708 192.674 11.8984 193.148 11.8984ZM202.422 11.9766C202.938 11.9766 203.388 11.8203 203.773 11.5078C204.159 11.1953 204.372 10.8047 204.414 10.3359H205.781C205.755 10.8203 205.589 11.2812 205.281 11.7188C204.974 12.1562 204.562 12.5052 204.047 12.7656C203.536 13.026 202.995 13.1562 202.422 13.1562C201.271 13.1562 200.354 12.7734 199.672 12.0078C198.995 11.237 198.656 10.1849 198.656 8.85156V8.60938C198.656 7.78646 198.807 7.05469 199.109 6.41406C199.411 5.77344 199.844 5.27604 200.406 4.92188C200.974 4.56771 201.643 4.39062 202.414 4.39062C203.362 4.39062 204.148 4.67448 204.773 5.24219C205.404 5.8099 205.74 6.54688 205.781 7.45312H204.414C204.372 6.90625 204.164 6.45833 203.789 6.10938C203.419 5.75521 202.961 5.57812 202.414 5.57812C201.68 5.57812 201.109 5.84375 200.703 6.375C200.302 6.90104 200.102 7.66406 200.102 8.66406V8.9375C200.102 9.91146 200.302 10.6615 200.703 11.1875C201.104 11.7135 201.677 11.9766 202.422 11.9766ZM209.367 2.5V4.54688H210.945V5.66406H209.367V10.9062C209.367 11.2448 209.438 11.5 209.578 11.6719C209.719 11.8385 209.958 11.9219 210.297 11.9219C210.464 11.9219 210.693 11.8906 210.984 11.8281V13C210.604 13.1042 210.234 13.1562 209.875 13.1562C209.229 13.1562 208.742 12.9609 208.414 12.5703C208.086 12.1797 207.922 11.625 207.922 10.9062V5.66406H206.383V4.54688H207.922V2.5H209.367ZM214.211 13H212.766V4.54688H214.211V13ZM212.648 2.30469C212.648 2.07031 212.719 1.8724 212.859 1.71094C213.005 1.54948 213.219 1.46875 213.5 1.46875C213.781 1.46875 213.995 1.54948 214.141 1.71094C214.286 1.8724 214.359 2.07031 214.359 2.30469C214.359 2.53906 214.286 2.73438 214.141 2.89062C213.995 3.04688 213.781 3.125 213.5 3.125C213.219 3.125 213.005 3.04688 212.859 2.89062C212.719 2.73438 212.648 2.53906 212.648 2.30469ZM219.922 11.9766C220.438 11.9766 220.888 11.8203 221.273 11.5078C221.659 11.1953 221.872 10.8047 221.914 10.3359H223.281C223.255 10.8203 223.089 11.2812 222.781 11.7188C222.474 12.1562 222.062 12.5052 221.547 12.7656C221.036 13.026 220.495 13.1562 219.922 13.1562C218.771 13.1562 217.854 12.7734 217.172 12.0078C216.495 11.237 216.156 10.1849 216.156 8.85156V8.60938C216.156 7.78646 216.307 7.05469 216.609 6.41406C216.911 5.77344 217.344 5.27604 217.906 4.92188C218.474 4.56771 219.143 4.39062 219.914 4.39062C220.862 4.39062 221.648 4.67448 222.273 5.24219C222.904 5.8099 223.24 6.54688 223.281 7.45312H221.914C221.872 6.90625 221.664 6.45833 221.289 6.10938C220.919 5.75521 220.461 5.57812 219.914 5.57812C219.18 5.57812 218.609 5.84375 218.203 6.375C217.802 6.90104 217.602 7.66406 217.602 8.66406V8.9375C217.602 9.91146 217.802 10.6615 218.203 11.1875C218.604 11.7135 219.177 11.9766 219.922 11.9766ZM228.414 13.1562C227.268 13.1562 226.336 12.7812 225.617 12.0312C224.898 11.276 224.539 10.2682 224.539 9.00781V8.74219C224.539 7.90365 224.698 7.15625 225.016 6.5C225.339 5.83854 225.786 5.32292 226.359 4.95312C226.938 4.57812 227.562 4.39062 228.234 4.39062C229.333 4.39062 230.188 4.7526 230.797 5.47656C231.406 6.20052 231.711 7.23698 231.711 8.58594V9.1875H225.984C226.005 10.0208 226.247 10.6953 226.711 11.2109C227.18 11.7214 227.773 11.9766 228.492 11.9766C229.003 11.9766 229.435 11.8724 229.789 11.6641C230.143 11.4557 230.453 11.1797 230.719 10.8359L231.602 11.5234C230.893 12.612 229.831 13.1562 228.414 13.1562ZM228.234 5.57812C227.651 5.57812 227.161 5.79167 226.766 6.21875C226.37 6.64062 226.125 7.23438 226.031 8H230.266V7.89062C230.224 7.15625 230.026 6.58854 229.672 6.1875C229.318 5.78125 228.839 5.57812 228.234 5.57812ZM223.82 33.0391L225.914 26.5469H227.391L224.359 35H223.258L220.195 26.5469H221.672L223.82 33.0391ZM228.273 30.6953C228.273 29.8672 228.435 29.1224 228.758 28.4609C229.086 27.7995 229.539 27.2891 230.117 26.9297C230.701 26.5703 231.365 26.3906 232.109 26.3906C233.26 26.3906 234.19 26.7891 234.898 27.5859C235.612 28.3828 235.969 29.4427 235.969 30.7656V30.8672C235.969 31.6901 235.81 32.4297 235.492 33.0859C235.18 33.737 234.729 34.2448 234.141 34.6094C233.557 34.974 232.885 35.1562 232.125 35.1562C230.979 35.1562 230.049 34.7578 229.336 33.9609C228.628 33.1641 228.273 32.1094 228.273 30.7969V30.6953ZM229.727 30.8672C229.727 31.8047 229.943 32.5573 230.375 33.125C230.812 33.6927 231.396 33.9766 232.125 33.9766C232.859 33.9766 233.443 33.6901 233.875 33.1172C234.307 32.5391 234.523 31.7318 234.523 30.6953C234.523 29.7682 234.302 29.0182 233.859 28.4453C233.422 27.8672 232.839 27.5781 232.109 27.5781C231.396 27.5781 230.82 27.862 230.383 28.4297C229.945 28.9974 229.727 29.8099 229.727 30.8672ZM239.352 35H237.906V23H239.352V35ZM246.891 34.1641C246.328 34.8255 245.503 35.1562 244.414 35.1562C243.513 35.1562 242.826 34.8958 242.352 34.375C241.883 33.849 241.646 33.0729 241.641 32.0469V26.5469H243.086V32.0078C243.086 33.2891 243.607 33.9297 244.648 33.9297C245.753 33.9297 246.487 33.5182 246.852 32.6953V26.5469H248.297V35H246.922L246.891 34.1641ZM251.867 26.5469L251.914 27.6094C252.56 26.7969 253.404 26.3906 254.445 26.3906C256.232 26.3906 257.133 27.3984 257.148 29.4141V35H255.703V29.4062C255.698 28.7969 255.557 28.3464 255.281 28.0547C255.01 27.763 254.586 27.6172 254.008 27.6172C253.539 27.6172 253.128 27.7422 252.773 27.9922C252.419 28.2422 252.143 28.5703 251.945 28.9766V35H250.5V26.5469H251.867ZM261.289 24.5V26.5469H262.867V27.6641H261.289V32.9062C261.289 33.2448 261.359 33.5 261.5 33.6719C261.641 33.8385 261.88 33.9219 262.219 33.9219C262.385 33.9219 262.615 33.8906 262.906 33.8281V35C262.526 35.1042 262.156 35.1562 261.797 35.1562C261.151 35.1562 260.664 34.9609 260.336 34.5703C260.008 34.1797 259.844 33.625 259.844 32.9062V27.6641H258.305V26.5469H259.844V24.5H261.289ZM268.07 35.1562C266.924 35.1562 265.992 34.7812 265.273 34.0312C264.555 33.276 264.195 32.2682 264.195 31.0078V30.7422C264.195 29.9036 264.354 29.1562 264.672 28.5C264.995 27.8385 265.443 27.3229 266.016 26.9531C266.594 26.5781 267.219 26.3906 267.891 26.3906C268.99 26.3906 269.844 26.7526 270.453 27.4766C271.062 28.2005 271.367 29.237 271.367 30.5859V31.1875H265.641C265.661 32.0208 265.904 32.6953 266.367 33.2109C266.836 33.7214 267.43 33.9766 268.148 33.9766C268.659 33.9766 269.091 33.8724 269.445 33.6641C269.799 33.4557 270.109 33.1797 270.375 32.8359L271.258 33.5234C270.549 34.612 269.487 35.1562 268.07 35.1562ZM267.891 27.5781C267.307 27.5781 266.818 27.7917 266.422 28.2188C266.026 28.6406 265.781 29.2344 265.688 30H269.922V29.8906C269.88 29.1562 269.682 28.5885 269.328 28.1875C268.974 27.7812 268.495 27.5781 267.891 27.5781ZM276.555 35.1562C275.409 35.1562 274.477 34.7812 273.758 34.0312C273.039 33.276 272.68 32.2682 272.68 31.0078V30.7422C272.68 29.9036 272.839 29.1562 273.156 28.5C273.479 27.8385 273.927 27.3229 274.5 26.9531C275.078 26.5781 275.703 26.3906 276.375 26.3906C277.474 26.3906 278.328 26.7526 278.938 27.4766C279.547 28.2005 279.852 29.237 279.852 30.5859V31.1875H274.125C274.146 32.0208 274.388 32.6953 274.852 33.2109C275.32 33.7214 275.914 33.9766 276.633 33.9766C277.143 33.9766 277.576 33.8724 277.93 33.6641C278.284 33.4557 278.594 33.1797 278.859 32.8359L279.742 33.5234C279.034 34.612 277.971 35.1562 276.555 35.1562ZM276.375 27.5781C275.792 27.5781 275.302 27.7917 274.906 28.2188C274.51 28.6406 274.266 29.2344 274.172 30H278.406V29.8906C278.365 29.1562 278.167 28.5885 277.812 28.1875C277.458 27.7812 276.979 27.5781 276.375 27.5781ZM285.617 27.8438C285.398 27.8073 285.161 27.7891 284.906 27.7891C283.958 27.7891 283.315 28.1927 282.977 29V35H281.531V26.5469H282.938L282.961 27.5234C283.435 26.7682 284.107 26.3906 284.977 26.3906C285.258 26.3906 285.471 26.4271 285.617 26.5V27.8438ZM0.710938 52.6953C0.710938 51.8672 0.872396 51.1224 1.19531 50.4609C1.52344 49.7995 1.97656 49.2891 2.55469 48.9297C3.13802 48.5703 3.80208 48.3906 4.54688 48.3906C5.69792 48.3906 6.6276 48.7891 7.33594 49.5859C8.04948 50.3828 8.40625 51.4427 8.40625 52.7656V52.8672C8.40625 53.6901 8.2474 54.4297 7.92969 55.0859C7.61719 55.737 7.16667 56.2448 6.57812 56.6094C5.99479 56.974 5.32292 57.1562 4.5625 57.1562C3.41667 57.1562 2.48698 56.7578 1.77344 55.9609C1.0651 55.1641 0.710938 54.1094 0.710938 52.7969V52.6953ZM2.16406 52.8672C2.16406 53.8047 2.38021 54.5573 2.8125 55.125C3.25 55.6927 3.83333 55.9766 4.5625 55.9766C5.29688 55.9766 5.88021 55.6901 6.3125 55.1172C6.74479 54.5391 6.96094 53.7318 6.96094 52.6953C6.96094 51.7682 6.73958 51.0182 6.29688 50.4453C5.85938 49.8672 5.27604 49.5781 4.54688 49.5781C3.83333 49.5781 3.25781 49.862 2.82031 50.4297C2.38281 50.9974 2.16406 51.8099 2.16406 52.8672ZM17.3594 52.8672C17.3594 54.1536 17.0651 55.1901 16.4766 55.9766C15.888 56.763 15.0911 57.1562 14.0859 57.1562C13.0599 57.1562 12.2526 56.8307 11.6641 56.1797V60.25H10.2188V48.5469H11.5391L11.6094 49.4844C12.1979 48.7552 13.0156 48.3906 14.0625 48.3906C15.0781 48.3906 15.8802 48.7734 16.4688 49.5391C17.0625 50.3047 17.3594 51.3698 17.3594 52.7344V52.8672ZM15.9141 52.7031C15.9141 51.75 15.7109 50.9974 15.3047 50.4453C14.8984 49.8932 14.3411 49.6172 13.6328 49.6172C12.7578 49.6172 12.1016 50.0052 11.6641 50.7812V54.8203C12.0964 55.5911 12.7578 55.9766 13.6484 55.9766C14.3411 55.9766 14.8906 55.7031 15.2969 55.1562C15.7083 54.6042 15.9141 53.7865 15.9141 52.7031ZM26.3438 52.8672C26.3438 54.1536 26.0495 55.1901 25.4609 55.9766C24.8724 56.763 24.0755 57.1562 23.0703 57.1562C22.0443 57.1562 21.237 56.8307 20.6484 56.1797V60.25H19.2031V48.5469H20.5234L20.5938 49.4844C21.1823 48.7552 22 48.3906 23.0469 48.3906C24.0625 48.3906 24.8646 48.7734 25.4531 49.5391C26.0469 50.3047 26.3438 51.3698 26.3438 52.7344V52.8672ZM24.8984 52.7031C24.8984 51.75 24.6953 50.9974 24.2891 50.4453C23.8828 49.8932 23.3255 49.6172 22.6172 49.6172C21.7422 49.6172 21.0859 50.0052 20.6484 50.7812V54.8203C21.0807 55.5911 21.7422 55.9766 22.6328 55.9766C23.3255 55.9766 23.875 55.7031 24.2812 55.1562C24.6927 54.6042 24.8984 53.7865 24.8984 52.7031ZM27.8047 52.6953C27.8047 51.8672 27.9661 51.1224 28.2891 50.4609C28.6172 49.7995 29.0703 49.2891 29.6484 48.9297C30.2318 48.5703 30.8958 48.3906 31.6406 48.3906C32.7917 48.3906 33.7214 48.7891 34.4297 49.5859C35.1432 50.3828 35.5 51.4427 35.5 52.7656V52.8672C35.5 53.6901 35.3411 54.4297 35.0234 55.0859C34.7109 55.737 34.2604 56.2448 33.6719 56.6094C33.0885 56.974 32.4167 57.1562 31.6562 57.1562C30.5104 57.1562 29.5807 56.7578 28.8672 55.9609C28.1589 55.1641 27.8047 54.1094 27.8047 52.7969V52.6953ZM29.2578 52.8672C29.2578 53.8047 29.474 54.5573 29.9062 55.125C30.3438 55.6927 30.9271 55.9766 31.6562 55.9766C32.3906 55.9766 32.974 55.6901 33.4062 55.1172C33.8385 54.5391 34.0547 53.7318 34.0547 52.6953C34.0547 51.7682 33.8333 51.0182 33.3906 50.4453C32.9531 49.8672 32.3698 49.5781 31.6406 49.5781C30.9271 49.5781 30.3516 49.862 29.9141 50.4297C29.4766 50.9974 29.2578 51.8099 29.2578 52.8672ZM41.3984 49.8438C41.1797 49.8073 40.9427 49.7891 40.6875 49.7891C39.7396 49.7891 39.0964 50.1927 38.7578 51V57H37.3125V48.5469H38.7188L38.7422 49.5234C39.2161 48.7682 39.888 48.3906 40.7578 48.3906C41.0391 48.3906 41.2526 48.4271 41.3984 48.5V49.8438ZM45.0859 46.5V48.5469H46.6641V49.6641H45.0859V54.9062C45.0859 55.2448 45.1562 55.5 45.2969 55.6719C45.4375 55.8385 45.6771 55.9219 46.0156 55.9219C46.1823 55.9219 46.4115 55.8906 46.7031 55.8281V57C46.3229 57.1042 45.9531 57.1562 45.5938 57.1562C44.9479 57.1562 44.4609 56.9609 44.1328 56.5703C43.8047 56.1797 43.6406 55.625 43.6406 54.9062V49.6641H42.1016V48.5469H43.6406V46.5H45.0859ZM53.5781 56.1641C53.0156 56.8255 52.1901 57.1562 51.1016 57.1562C50.2005 57.1562 49.513 56.8958 49.0391 56.375C48.5703 55.849 48.3333 55.0729 48.3281 54.0469V48.5469H49.7734V54.0078C49.7734 55.2891 50.2943 55.9297 51.3359 55.9297C52.4401 55.9297 53.1745 55.5182 53.5391 54.6953V48.5469H54.9844V57H53.6094L53.5781 56.1641ZM58.5547 48.5469L58.6016 49.6094C59.2474 48.7969 60.0911 48.3906 61.1328 48.3906C62.9193 48.3906 63.8203 49.3984 63.8359 51.4141V57H62.3906V51.4062C62.3854 50.7969 62.2448 50.3464 61.9688 50.0547C61.6979 49.763 61.2734 49.6172 60.6953 49.6172C60.2266 49.6172 59.8151 49.7422 59.4609 49.9922C59.1068 50.2422 58.8307 50.5703 58.6328 50.9766V57H57.1875V48.5469H58.5547ZM67.5859 57H66.1406V48.5469H67.5859V57ZM66.0234 46.3047C66.0234 46.0703 66.0938 45.8724 66.2344 45.7109C66.3802 45.5495 66.5938 45.4688 66.875 45.4688C67.1562 45.4688 67.3698 45.5495 67.5156 45.7109C67.6615 45.8724 67.7344 46.0703 67.7344 46.3047C67.7344 46.5391 67.6615 46.7344 67.5156 46.8906C67.3698 47.0469 67.1562 47.125 66.875 47.125C66.5938 47.125 66.3802 47.0469 66.2344 46.8906C66.0938 46.7344 66.0234 46.5391 66.0234 46.3047ZM71.8672 46.5V48.5469H73.4453V49.6641H71.8672V54.9062C71.8672 55.2448 71.9375 55.5 72.0781 55.6719C72.2188 55.8385 72.4583 55.9219 72.7969 55.9219C72.9635 55.9219 73.1927 55.8906 73.4844 55.8281V57C73.1042 57.1042 72.7344 57.1562 72.375 57.1562C71.7292 57.1562 71.2422 56.9609 70.9141 56.5703C70.5859 56.1797 70.4219 55.625 70.4219 54.9062V49.6641H68.8828V48.5469H70.4219V46.5H71.8672ZM76.7109 57H75.2656V48.5469H76.7109V57ZM75.1484 46.3047C75.1484 46.0703 75.2188 45.8724 75.3594 45.7109C75.5052 45.5495 75.7188 45.4688 76 45.4688C76.2812 45.4688 76.4948 45.5495 76.6406 45.7109C76.7865 45.8724 76.8594 46.0703 76.8594 46.3047C76.8594 46.5391 76.7865 46.7344 76.6406 46.8906C76.4948 47.0469 76.2812 47.125 76 47.125C75.7188 47.125 75.5052 47.0469 75.3594 46.8906C75.2188 46.7344 75.1484 46.5391 75.1484 46.3047ZM82.5391 57.1562C81.3932 57.1562 80.4609 56.7812 79.7422 56.0312C79.0234 55.276 78.6641 54.2682 78.6641 53.0078V52.7422C78.6641 51.9036 78.8229 51.1562 79.1406 50.5C79.4635 49.8385 79.9115 49.3229 80.4844 48.9531C81.0625 48.5781 81.6875 48.3906 82.3594 48.3906C83.4583 48.3906 84.3125 48.7526 84.9219 49.4766C85.5312 50.2005 85.8359 51.237 85.8359 52.5859V53.1875H80.1094C80.1302 54.0208 80.3724 54.6953 80.8359 55.2109C81.3047 55.7214 81.8984 55.9766 82.6172 55.9766C83.1276 55.9766 83.5599 55.8724 83.9141 55.6641C84.2682 55.4557 84.5781 55.1797 84.8438 54.8359L85.7266 55.5234C85.0182 56.612 83.9557 57.1562 82.5391 57.1562ZM82.3594 49.5781C81.776 49.5781 81.2865 49.7917 80.8906 50.2188C80.4948 50.6406 80.25 51.2344 80.1562 52H84.3906V51.8906C84.349 51.1562 84.151 50.5885 83.7969 50.1875C83.4427 49.7812 82.9635 49.5781 82.3594 49.5781ZM92.4375 54.7578C92.4375 54.3672 92.2891 54.0651 91.9922 53.8516C91.7005 53.6328 91.1875 53.4453 90.4531 53.2891C89.724 53.1328 89.1432 52.9453 88.7109 52.7266C88.2839 52.5078 87.9661 52.2474 87.7578 51.9453C87.5547 51.6432 87.4531 51.2839 87.4531 50.8672C87.4531 50.1745 87.7448 49.5885 88.3281 49.1094C88.9167 48.6302 89.6667 48.3906 90.5781 48.3906C91.5365 48.3906 92.3125 48.638 92.9062 49.1328C93.5052 49.6276 93.8047 50.2604 93.8047 51.0312H92.3516C92.3516 50.6354 92.1823 50.2943 91.8438 50.0078C91.5104 49.7214 91.0885 49.5781 90.5781 49.5781C90.0521 49.5781 89.6406 49.6927 89.3438 49.9219C89.0469 50.151 88.8984 50.4505 88.8984 50.8203C88.8984 51.1693 89.0365 51.4323 89.3125 51.6094C89.5885 51.7865 90.0859 51.9557 90.8047 52.1172C91.5286 52.2786 92.1146 52.4714 92.5625 52.6953C93.0104 52.9193 93.3411 53.1901 93.5547 53.5078C93.7734 53.8203 93.8828 54.2031 93.8828 54.6562C93.8828 55.4115 93.5807 56.0182 92.9766 56.4766C92.3724 56.9297 91.5885 57.1562 90.625 57.1562C89.9479 57.1562 89.349 57.0365 88.8281 56.7969C88.3073 56.5573 87.8984 56.224 87.6016 55.7969C87.3099 55.3646 87.1641 54.8984 87.1641 54.3984H88.6094C88.6354 54.8828 88.8281 55.2682 89.1875 55.5547C89.5521 55.8359 90.0312 55.9766 90.625 55.9766C91.1719 55.9766 91.6094 55.8672 91.9375 55.6484C92.2708 55.4245 92.4375 55.1276 92.4375 54.7578Z" fill="#FA114F"/>
<path d="M69.4375 14.5625H232.289V15.3438H69.4375V14.5625Z" fill="#FA114F"/>
<path d="M232.297 14.5625H235.438V15.3438H232.297V14.5625Z" fill="#333333"/>
<path d="M219.938 36.5625H285.852V37.3438H219.938V36.5625ZM0 58.5625H94.6719V59.3438H0V58.5625Z" fill="#FA114F"/>
<a href="https://www.hackforla.org/communities-of-practice">
<rect fill="black" fill-opacity="0" x="69.4375" y="1.625" width="166" height="18.75"/>
</a>
<a href="https://github.com/hackforla/communities-of-practice">
<rect fill="black" fill-opacity="0" x="219.938" y="23.625" width="69.8828" height="18.75"/>
</a>
<a href="https://github.com/hackforla/communities-of-practice">
<rect fill="black" fill-opacity="0" y="45.625" width="94.6719" height="18.75"/>
</a>
</svg>
