<svg class="logo" width="64" height="83" viewBox="0 0 64 83" fill="none" xmlns="http://www.w3.org/2000/svg">
<path fill-rule="evenodd" clip-rule="evenodd" d="M29.701 1.2672C38.8101 -2.24763 46.9642 1.67637 50.3239 11.4608L62.3303 46.4271C65.6901 56.2109 61.8226 64.7725 52.7135 68.2868L19.7256 81.0133C10.6166 84.5275 2.46245 80.6041 -0.897274 70.8197L-12.9037 35.854C-16.2629 26.0702 -12.3954 17.5085 -3.2869 13.9943L29.7015 1.2672H29.701Z" fill="#FA114F"/>
<path fill-rule="evenodd" clip-rule="evenodd" d="M17.9023 23.3652V18.9666C17.9023 18.5444 17.6106 18.3291 17.3272 18.3291C17.0355 18.3291 16.7521 18.545 16.7521 18.9666V20.3643H15.0352V18.9666C15.0352 18.5444 14.7435 18.3291 14.4601 18.3291C14.1684 18.3291 13.885 18.545 13.885 18.9666V23.3658C13.885 23.7881 14.1768 24.004 14.4601 24.004C14.7519 24.004 15.0358 23.7881 15.0358 23.3658V21.5834H16.7527V23.3652C16.7527 23.7875 17.0444 24.0034 17.3272 24.0034C17.619 24.0034 17.9023 23.7875 17.9023 23.3652ZM24.3844 23.4027C24.3844 23.7685 24.0831 23.9939 23.7914 23.9939C23.5434 23.9939 23.3049 23.8345 23.2426 23.4967L23.0833 22.6712H21.721C21.6593 22.9525 21.6054 23.2338 21.5437 23.5157C21.473 23.8434 21.243 23.9843 21.0039 23.9843C20.7122 23.9843 20.4109 23.7685 20.4109 23.4027C20.4109 23.3557 20.4199 23.2897 20.4288 23.2338L21.3136 19.201C21.4371 18.6193 21.8714 18.338 22.4465 18.338C23.2337 18.338 23.508 18.8067 23.641 19.4918L24.3665 23.2623C24.3754 23.3087 24.3844 23.3557 24.3844 23.4027ZM22.8443 21.452L22.5261 19.5572C22.5261 19.5572 22.5172 19.5007 22.4549 19.5007C22.4021 19.5007 22.4021 19.5293 22.3842 19.5483L21.9774 21.4514H22.8443V21.452ZM31.0169 19.7541C31.0169 19.7071 31.0079 19.6696 30.9989 19.6232C30.8575 18.8162 30.2381 18.385 29.53 18.385H28.5571C27.734 18.385 27.0529 18.9851 27.0529 19.9789V22.3429C27.0529 23.3373 27.734 23.9374 28.5566 23.9374H29.53C30.2381 23.9374 30.8575 23.5062 30.9989 22.6991C31.0079 22.6522 31.0169 22.6147 31.0169 22.5683C31.0169 22.193 30.7162 21.9771 30.4238 21.9771C30.1764 21.9771 29.9374 22.127 29.8751 22.4743C29.8487 22.6242 29.778 22.7182 29.53 22.7182H28.5571C28.3181 22.7182 28.2031 22.6052 28.2031 22.3429V19.9795C28.2031 19.7166 28.3181 19.6042 28.5566 19.6042H29.53C29.778 19.6042 29.8487 19.6982 29.8751 19.848C29.9368 20.1948 30.1764 20.3452 30.4238 20.3452C30.7156 20.3452 31.0169 20.1293 31.0169 19.7541ZM37.6937 23.3652C37.6937 23.2433 37.6578 23.1119 37.5607 22.9804L36.0122 20.9358L37.3127 19.3598C37.4193 19.2289 37.4631 19.0981 37.4631 18.9661C37.4631 18.6288 37.1798 18.338 36.87 18.338C36.7879 18.3396 36.7071 18.3606 36.6337 18.3994C36.5602 18.4383 36.4958 18.4942 36.4453 18.5628L34.7026 20.7294V18.9666C34.7026 18.5634 34.4108 18.3571 34.1269 18.3571C33.8352 18.3571 33.5518 18.5634 33.5518 18.9666V23.3658C33.5518 23.7691 33.8436 23.9754 34.1269 23.9754C34.4187 23.9754 34.7026 23.7691 34.7026 23.3658V22.4934L35.2424 21.8653L36.6579 23.7506C36.7096 23.8232 36.7764 23.8821 36.8531 23.9228C36.9298 23.9634 37.0143 23.9847 37.1001 23.9849C37.4098 23.9849 37.6931 23.7036 37.6931 23.3664L37.6937 23.3652ZM17.9298 28.3645C17.9298 28.0552 17.7351 27.7549 17.3547 27.7549H14.7794C14.4697 27.7549 14.2043 28.0362 14.2043 28.3645V32.7446C14.2043 33.1479 14.496 33.3542 14.7794 33.3542C15.0711 33.3542 15.3545 33.1479 15.3545 32.7446V31.1127H16.1332C16.5136 31.1127 16.7083 30.8035 16.7083 30.5031C16.7083 30.1939 16.5136 29.8935 16.1332 29.8935H15.3545V28.9741H17.3547C17.7351 28.9741 17.9298 28.6648 17.9298 28.3645ZM24.4114 31.7223C24.4114 32.7072 23.7566 33.3168 22.9071 33.3168H21.9331C21.11 33.3168 20.4288 32.7161 20.4288 31.7223V29.3589C20.4288 28.3645 21.11 27.7644 21.9331 27.7644H22.9065C23.756 27.7644 24.4102 28.374 24.4102 29.3583V31.7223H24.4114ZM23.2611 31.7223V29.3589C23.2611 29.0865 23.1545 28.9836 22.9071 28.9836H21.9331C21.6941 28.9836 21.5796 29.0966 21.5796 29.3583V31.7223C21.5796 31.9852 21.6941 32.097 21.9331 32.097H22.9065C23.154 32.097 23.26 31.9941 23.26 31.7223H23.2611ZM30.9372 29.6027C30.9372 30.2034 30.6892 30.6625 30.2998 30.9349L30.8575 32.5478C30.8839 32.6322 30.9019 32.6977 30.9019 32.7726C30.9019 33.1294 30.6011 33.3638 30.2998 33.3638C30.0878 33.3638 29.8751 33.2418 29.778 32.9605L29.1676 31.1972H28.1049V32.7542C28.1049 33.1574 27.8221 33.3638 27.5298 33.3638C27.2465 33.3638 26.9547 33.1574 26.9547 32.7542V28.374C26.9547 28.0457 27.2201 27.7644 27.5298 27.7644H29.4319C30.2819 27.7644 30.9367 28.374 30.9367 29.3583V29.6021L30.9372 29.6027ZM29.787 29.6027V29.3589C29.787 29.0865 29.6804 28.9836 29.433 28.9836H28.1049V29.978H29.4324C29.6804 29.978 29.7859 29.8745 29.7859 29.6027H29.787Z" fill="#030C2A"/>
<path fill-rule="evenodd" clip-rule="evenodd" d="M22.4674 58.9797C23.3483 58.63 23.3539 58.4106 23.1149 57.6452C22.9528 56.941 22.6941 56.2874 22.3305 55.6136C21.9658 54.9398 21.5433 54.8571 20.8117 55.0385C19.4455 55.3513 18.3194 55.6647 17.0441 56.1465C17.9115 50.7731 19.083 44.5903 19.9768 40.4517C20.1709 39.5851 20.061 39.2741 19.3456 38.7983C18.6297 38.3219 17.5244 38.0133 16.7506 37.8735C16.01 37.729 15.5864 37.9009 15.3631 38.8084C14.1792 43.8642 12.7171 53.2947 12.3277 57.8682C12.2486 58.8269 12.5454 59.5108 13.0206 59.9866C13.6877 60.6152 14.1102 60.953 14.6045 61.3164C15.0702 61.7208 15.4545 62.0271 16.7781 61.3931C18.5208 60.551 20.6103 59.7297 22.4674 58.9797Z" fill="white"/>
<path fill-rule="evenodd" clip-rule="evenodd" d="M32.9001 55.135C30.7972 55.8487 28.4295 56.6385 26.7782 57.3944C26.276 58.8427 25.7935 60.2985 25.3306 61.7614C25.0602 62.5661 24.8004 62.6773 24.1176 62.4513C23.4308 62.1896 22.8922 62.0154 22.3451 61.514C21.7981 61.0133 21.7319 60.5131 22.0029 59.4527C23.5296 53.8724 26.8534 44.4924 29.0186 39.3272C29.381 38.4351 29.9404 37.7334 31.1669 37.6596C33.2738 37.4913 34.4128 37.7946 35.5759 38.0224C36.427 38.2234 36.6038 38.7795 36.5875 39.6924C36.5779 44.2819 36.9443 53.0029 37.3825 59.6745C37.4577 60.5012 37.2838 60.7451 36.5432 60.8557C35.8025 60.9657 35.1236 61.0305 34.4128 60.845C33.7013 60.66 33.4421 60.2615 33.3007 59.1904C33.1492 58.0474 33.0364 56.6807 32.9001 55.135ZM28.6847 51.8301C29.9696 51.4204 31.2881 51.0052 32.5534 50.7079C32.3817 47.8568 32.2627 44.8885 32.2296 42.308C31.2287 44.8599 29.9376 48.3302 28.6847 51.8301Z" fill="white"/>
</svg>

