<svg class="logo" viewBox="0 0 140 140" xmlns="http://www.w3.org/2000/svg"><g fill="none" fill-rule="evenodd"><path d="M78.954 3.02c16.235-5.91 30.768.688 36.756 17.14l21.399 58.794c5.988 16.451-.905 30.847-17.14 36.756l-58.794 21.399c-16.235 5.909-30.768-.688-36.756-17.14L3.02 61.176c-5.987-16.451.906-30.847 17.14-36.756l58.795-21.4z" fill="#FA114F"/><path d="M57.926 40.176V32.78c0-.71-.52-1.072-1.025-1.072-.52 0-1.025.363-1.025 1.072v2.35h-3.06v-2.35c0-.71-.52-1.072-1.025-1.072-.52 0-1.025.363-1.025 1.072v7.397c0 .71.52 1.073 1.025 1.073.52 0 1.026-.363 1.026-1.073V37.18h3.06v2.996c0 .71.52 1.073 1.024 1.073.52 0 1.025-.363 1.025-1.073zm11.553.063c0 .615-.537.994-1.057.994-.442 0-.867-.268-.978-.836l-.284-1.388h-2.428c-.11.473-.206.946-.316 1.42-.126.551-.536.788-.962.788-.52 0-1.057-.363-1.057-.978 0-.079.016-.19.032-.284l1.577-6.781c.22-.978.994-1.451 2.019-1.451 1.403 0 1.892.788 2.129 1.94l1.293 6.34c.016.078.032.157.032.236zm-2.745-3.28l-.567-3.186s-.016-.095-.127-.095c-.094 0-.094.048-.126.08l-.725 3.2h1.545zM81.3 34.104c0-.079-.016-.142-.032-.22-.252-1.357-1.356-2.082-2.618-2.082h-1.734c-1.467 0-2.681 1.009-2.681 2.68v3.975c0 1.672 1.214 2.681 2.68 2.681h1.735c1.262 0 2.366-.725 2.618-2.082.016-.079.032-.142.032-.22 0-.631-.536-.994-1.057-.994-.441 0-.867.252-.978.836-.047.252-.173.41-.615.41h-1.734c-.426 0-.631-.19-.631-.631v-3.974c0-.442.205-.631.63-.631h1.735c.442 0 .568.158.615.41.11.583.537.836.978.836.52 0 1.057-.363 1.057-.994zm11.9 6.072c0-.205-.064-.426-.237-.647l-2.76-3.438 2.318-2.65c.19-.22.268-.44.268-.662 0-.567-.505-1.056-1.057-1.056a.982.982 0 0 0-.757.378l-3.106 3.643V32.78c0-.678-.52-1.025-1.026-1.025-.52 0-1.025.347-1.025 1.025v7.397c0 .678.52 1.025 1.025 1.025.52 0 1.026-.347 1.026-1.025V38.71l.962-1.056 2.523 3.17a.99.99 0 0 0 .788.394c.552 0 1.057-.473 1.057-1.04zm-35.225 8.406c0-.52-.347-1.025-1.025-1.025h-4.59c-.552 0-1.025.473-1.025 1.025v7.365c0 .678.52 1.025 1.025 1.025.52 0 1.025-.347 1.025-1.025v-2.744h1.388c.678 0 1.025-.52 1.025-1.025 0-.52-.347-1.025-1.025-1.025h-1.388v-1.546h3.565c.678 0 1.025-.52 1.025-1.025zm11.552 5.646c0 1.656-1.167 2.681-2.681 2.681H65.11c-1.467 0-2.681-1.01-2.681-2.681v-3.974c0-1.672 1.214-2.681 2.681-2.681h1.735c1.514 0 2.68 1.025 2.68 2.68v3.975zm-2.05 0v-3.974c0-.458-.19-.631-.631-.631H65.11c-.426 0-.63.19-.63.63v3.975c0 .442.204.63.63.63h1.735c.441 0 .63-.173.63-.63zm13.681-3.564c0 1.01-.442 1.782-1.136 2.24l.994 2.712c.047.142.079.252.079.378 0 .6-.536.994-1.073.994-.378 0-.757-.205-.93-.678l-1.088-2.965H76.11v2.618c0 .678-.504 1.025-1.025 1.025-.505 0-1.025-.347-1.025-1.025v-7.365c0-.552.473-1.025 1.025-1.025h3.39c1.515 0 2.682 1.025 2.682 2.68v.41zm-2.05 0v-.41c0-.458-.19-.631-.631-.631H76.11v1.672h2.366c.442 0 .63-.174.63-.631z" fill="#030C2A"/><g fill="#FFF"><path d="M66.062 100.06c1.57-.588 1.58-.957 1.154-2.244-.289-1.184-.75-2.283-1.398-3.416-.65-1.133-1.403-1.272-2.707-.967-2.435.526-4.442 1.053-6.715 1.863 1.546-9.035 3.634-19.431 5.227-26.39.346-1.457.15-1.98-1.125-2.78-1.276-.801-3.246-1.32-4.625-1.555-1.32-.243-2.075.046-2.473 1.572-2.11 8.501-4.716 24.358-5.41 32.048-.141 1.612.388 2.762 1.235 3.562 1.189 1.057 1.942 1.625 2.823 2.236.83.68 1.515 1.195 3.874.129 3.106-1.416 6.83-2.797 10.14-4.058z"/><path d="M84.656 93.596c-3.748 1.2-7.968 2.528-10.911 3.799a271.656 271.656 0 0 0-2.58 7.343c-.482 1.353-.945 1.54-2.162 1.16-1.224-.44-2.184-.733-3.159-1.576-.975-.842-1.093-1.683-.61-3.466 2.721-9.383 8.645-25.155 12.504-33.84.646-1.5 1.643-2.68 3.829-2.804 3.755-.283 5.785.227 7.858.61 1.517.338 1.832 1.273 1.803 2.808-.017 7.717.636 22.381 1.417 33.599.134 1.39-.176 1.8-1.496 1.986-1.32.185-2.53.294-3.797-.018-1.268-.311-1.73-.981-1.982-2.782-.27-1.922-.471-4.22-.714-6.819zm-7.513-5.557c2.29-.689 4.64-1.387 6.895-1.887-.306-4.794-.518-9.785-.577-14.124-1.784 4.291-4.085 10.126-6.318 16.011z"/></g></g></svg>
