<svg width="30" height="25" viewBox="0 0 30 25" fill="none" xmlns="http://www.w3.org/2000/svg">
<path d="M15.1758 17.4718C16.2875 17.4718 17.3742 17.1421 18.2985 16.5245C19.2228 15.9069 19.9432 15.0291 20.3686 14.0021C20.7941 12.975 20.9054 11.8449 20.6885 10.7546C20.4716 9.66429 19.9363 8.66279 19.1502 7.87672C18.3642 7.09066 17.3627 6.55535 16.2724 6.33847C15.1821 6.1216 14.0519 6.2329 13.0249 6.65832C11.9979 7.08373 11.12 7.80415 10.5024 8.72846C9.88482 9.65277 9.55518 10.7395 9.55518 11.8511C9.55518 13.3418 10.1474 14.7715 11.2014 15.8255C12.2555 16.8796 13.6851 17.4718 15.1758 17.4718ZM11.9664 11.4521C12.0187 11.3994 12.0809 11.3576 12.1493 11.329C12.2178 11.3005 12.2913 11.2858 12.3655 11.2858C12.4397 11.2858 12.5132 11.3005 12.5817 11.329C12.6502 11.3576 12.7123 11.3994 12.7646 11.4521L14.3327 13.0258L17.5871 9.76587C17.6395 9.71346 17.7017 9.67189 17.7702 9.64353C17.8387 9.61517 17.9121 9.60057 17.9862 9.60057C18.0603 9.60057 18.1337 9.61517 18.2021 9.64353C18.2706 9.67189 18.3328 9.71346 18.3852 9.76587C18.4376 9.81827 18.4792 9.88049 18.5076 9.94896C18.5359 10.0174 18.5505 10.0908 18.5505 10.1649C18.5505 10.239 18.5359 10.3124 18.5076 10.3809C18.4792 10.4494 18.4376 10.5116 18.3852 10.564L14.7318 14.2174C14.6796 14.2701 14.6174 14.3119 14.5489 14.3405C14.4804 14.369 14.4069 14.3837 14.3327 14.3837C14.2585 14.3837 14.1851 14.369 14.1166 14.3405C14.0481 14.3119 13.9859 14.2701 13.9337 14.2174L11.9664 12.2502C11.9138 12.1979 11.8719 12.1358 11.8434 12.0673C11.8149 11.9988 11.8002 11.9253 11.8002 11.8511C11.8002 11.7769 11.8149 11.7035 11.8434 11.635C11.8719 11.5665 11.9138 11.5043 11.9664 11.4521Z" fill="#FA207C"/>
<path d="M26.9792 11.8487H28.1033L26.878 10.3199L26.3159 9.58924C26.2633 9.5236 26.1965 9.47062 26.1206 9.43421C26.0448 9.39781 25.9617 9.37891 25.8775 9.37891C25.7934 9.37891 25.7103 9.39781 25.6344 9.43421C25.5585 9.47062 25.4918 9.5236 25.4391 9.58924L24.641 10.556L23.6068 11.8487H24.7309C24.7309 14.3829 23.7242 16.8133 21.9323 18.6052C20.1403 20.3972 17.71 21.4039 15.1758 21.4039H0.562066C0.412997 21.4039 0.270033 21.4631 0.164625 21.5685C0.0592176 21.6739 0 21.8169 0 21.9659V23.0901C0 23.2391 0.0592176 23.3821 0.164625 23.4875C0.270033 23.5929 0.412997 23.6521 0.562066 23.6521H15.1758C18.3062 23.6521 21.3085 22.4086 23.522 20.195C25.7356 17.9814 26.9792 14.9792 26.9792 11.8487Z" fill="#FA207C"/>
<path d="M3.47335 13.3857L4.03542 14.1164C4.08808 14.182 4.15482 14.235 4.2307 14.2714C4.30658 14.3078 4.38967 14.3267 4.47383 14.3267C4.55799 14.3267 4.64108 14.3078 4.71696 14.2714C4.79284 14.235 4.85957 14.182 4.91224 14.1164L5.68789 13.1496L6.74458 11.8513H5.62044C5.61822 9.67866 6.35647 7.57017 7.71345 5.87347C9.07043 4.17677 10.9651 2.99317 13.0851 2.51785C15.2051 2.04252 17.4237 2.30386 19.3752 3.25876C21.3267 4.21365 22.8945 5.8051 23.8201 7.77066C23.8595 7.85222 23.918 7.92307 23.9906 7.97716C24.0632 8.03125 24.1479 8.067 24.2373 8.08135C24.3267 8.0957 24.4183 8.08823 24.5042 8.05958C24.5901 8.03093 24.6678 7.98195 24.7307 7.9168L25.5738 7.0737C25.6581 6.99022 25.7139 6.88217 25.7331 6.76505C25.7523 6.64793 25.7339 6.52774 25.6806 6.42171C24.4709 4.06038 22.5009 2.17548 20.0885 1.07113C17.6762 -0.0332277 14.9621 -0.29262 12.3842 0.334804C9.80628 0.962227 7.51495 2.43987 5.87989 4.52932C4.24484 6.61876 3.36142 9.19814 3.37218 11.8513H2.24805L3.47335 13.3801V13.3857Z" fill="#FA207C"/>
<path d="M29.7898 22.0911L27.5415 20.2812V21.4054H23.8768C23.5203 21.7307 23.145 22.0348 22.7527 22.3159C22.0343 22.8426 21.2618 23.291 20.4482 23.6536H27.5415V24.7778L29.7898 22.9679C29.8554 22.9153 29.9084 22.8485 29.9448 22.7726C29.9812 22.6968 30.0001 22.6137 30.0001 22.5295C30.0001 22.4454 29.9812 22.3623 29.9448 22.2864C29.9084 22.2105 29.8554 22.1438 29.7898 22.0911Z" fill="#FA207C"/>
<path d="M6.2165 15.1875L4.49658 16.9074C5.09574 18.166 5.91413 19.308 6.91347 20.2798H10.6793C8.61998 19.184 7.03263 17.3728 6.2165 15.1875Z" fill="#FA207C"/>
</svg>