<svg width="30" height="30" viewBox="0 0 30 30" fill="none" xmlns="http://www.w3.org/2000/svg">
<path d="M14.6604 0C13.6503 0 12.6414 0.384555 11.872 1.15382C10.3331 2.69233 10.3331 5.19103 11.872 6.72956L16.6767 11.5333C16.8595 11.8386 17.2839 11.884 17.5273 11.6243L22.4189 6.72962C23.9577 5.19109 23.9577 2.69245 22.4189 1.15394C21.6494 0.384679 20.6416 0.000162994 19.6315 6.17776e-05C18.7497 1.04775e-06 17.8687 0.293308 17.1475 0.879836C16.4254 0.293611 15.5421 6.17776e-05 14.6604 6.17776e-05V0ZM14.6593 1.06597C15.3922 1.06597 16.1262 1.35046 16.6923 1.91646L16.7677 1.99072C16.868 2.09049 17.0038 2.14652 17.1454 2.14652C17.2869 2.14652 17.4227 2.09049 17.5231 1.99072L17.5974 1.91646C18.7287 0.784075 20.5312 0.78446 21.6634 1.91646C22.7956 3.04845 22.7956 4.84856 21.6634 5.98056L17.1464 10.4997L12.6263 5.98056C11.4941 4.84856 11.4941 3.04847 12.6263 1.91646C13.1925 1.35046 13.9264 1.06597 14.6593 1.06597ZM27.5134 11.3586C26.8632 11.3586 26.2136 11.6057 25.72 12.0992L22.6239 15.1946C22.1497 14.4392 21.3164 13.932 20.3618 13.932H11.7872C9.46578 13.932 8.19624 15.1569 7.12481 16.2281L4.82396 18.5296L4.1313 17.837C4.08151 17.787 4.02233 17.7473 3.95714 17.7202C3.89196 17.6931 3.82207 17.6792 3.75148 17.6792C3.68089 17.6792 3.611 17.6931 3.54582 17.7202C3.48064 17.7473 3.42145 17.787 3.37167 17.837L0.158422 21.0496C0.108223 21.0994 0.0683791 21.1587 0.0411889 21.2239C0.0139987 21.2892 0 21.3592 0 21.4299C0 21.5006 0.0139987 21.5706 0.0411889 21.6359C0.0683791 21.7011 0.108223 21.7604 0.158422 21.8101L8.1952 29.8442C8.29593 29.9443 8.43233 30.0004 8.57438 30C8.71644 29.9996 8.85253 29.9428 8.95273 29.8422L12.166 26.6296C12.2667 26.5294 12.3235 26.3934 12.3239 26.2513C12.3242 26.1093 12.2682 25.9729 12.1681 25.8722L11.4744 25.1787L12.167 24.4862C12.7027 23.9505 13.0383 23.5719 13.9311 23.5719H21.4311C23.2718 23.5719 24.8092 22.661 25.8989 21.0832C27.1517 19.2693 28.3813 17.0128 29.3664 15.6163C29.7359 15.0925 29.9756 14.4897 29.9984 13.8662C30.0212 13.2427 29.8033 12.5947 29.3078 12.0993C28.8142 11.6058 28.1635 11.3587 27.5134 11.3587L27.5134 11.3586ZM27.5144 12.4214C27.8875 12.4214 28.26 12.5663 28.5503 12.8565C28.8388 13.1449 28.9404 13.4585 28.927 13.8274C28.9134 14.1962 28.7601 14.6169 28.4906 14.999C27.4366 16.4932 26.2198 18.7342 25.0179 20.4743C24.0769 21.8368 22.9354 22.5006 21.4311 22.5006H13.9311C12.6811 22.5006 11.9452 23.1931 11.4095 23.7286L10.7168 24.4212L5.58149 19.287L7.88025 16.9876C8.95168 15.9164 9.82292 15.0032 11.7872 15.0032H20.3618C21.2614 15.0032 21.9668 15.7084 21.9668 16.6079C21.9668 17.5073 21.2614 18.2178 20.3618 18.2178H15.5362C14.8217 18.2178 14.8217 19.289 15.5362 19.289H20.3618C21.8365 19.289 23.0383 18.0822 23.0383 16.6079C23.0383 16.5077 23.0324 16.4091 23.0215 16.3118L26.4775 12.8565C26.7678 12.5663 27.1413 12.4214 27.5144 12.4214H27.5144ZM3.75148 18.9721L11.0307 26.2498L8.57187 28.7071L1.29368 21.4293L3.75148 18.9721Z" fill="#D7261B"/>
</svg>