<svg width="43" height="43" viewBox="0 0 43 43" fill="none" xmlns="http://www.w3.org/2000/svg">
<path d="M26.0561 20.5445L26.0383 20.5585C25.8922 20.6648 25.7658 20.7957 25.6649 20.9454L25.1062 20.24C24.949 20.042 24.7444 19.8869 24.5113 19.7888C24.2781 19.6908 24.0238 19.6529 23.7717 19.6786C23.5196 19.7044 23.2779 19.7929 23.0686 19.9362C22.8593 20.0795 22.6892 20.2729 22.5739 20.4987C22.3108 20.3427 22.0062 20.2703 21.7004 20.2913C21.3947 20.3122 21.1022 20.4254 20.8616 20.6158L20.8428 20.6308C20.6884 20.7536 20.5598 20.9056 20.4643 21.0781C20.3689 21.2506 20.3085 21.4402 20.2867 21.6359C20.2649 21.8316 20.282 22.0296 20.3372 22.2183C20.3924 22.4071 20.4845 22.583 20.6081 22.7358L20.6501 22.7888C20.4743 22.8481 20.3098 22.9367 20.1634 23.0509C19.8491 23.3002 19.6458 23.6634 19.5981 24.0611C19.5503 24.4588 19.662 24.8586 19.9086 25.1733L23.1116 29.2286C22.5941 29.1484 22.0649 29.2705 21.6338 29.5696C21.2028 29.8686 20.903 30.3216 20.7966 30.8346L20.7044 31.2031C20.6761 31.3165 20.6894 31.4362 20.7419 31.5404C20.7944 31.6446 20.8827 31.7263 20.9906 31.7709L26.5923 34.0743C27.1327 34.2958 27.7231 34.3688 28.3022 34.2857C28.8814 34.2026 29.4283 33.9665 29.8865 33.6017L32.4905 31.5396C33.1742 30.9995 33.6164 30.2111 33.72 29.3475C33.8235 28.4839 33.58 27.6157 33.0429 26.9336C31.2716 24.692 29.2977 22.195 28.1636 20.77C28.0407 20.6167 27.8886 20.4892 27.716 20.3949C27.5435 20.3006 27.354 20.2412 27.1582 20.2203C26.9624 20.1993 26.7643 20.2171 26.5752 20.2728C26.3861 20.3284 26.2097 20.4207 26.0561 20.5445ZM32.2752 27.5402C32.6524 28.0195 32.8233 28.6295 32.7501 29.2361C32.677 29.8427 32.3659 30.3963 31.8852 30.7752L29.2812 32.8373C28.9597 33.094 28.5758 33.2604 28.169 33.3193C27.7623 33.3782 27.3475 33.3274 26.9678 33.1722L21.75 31.0245C21.8057 30.7548 21.9646 30.5172 22.1929 30.3623C22.4211 30.2075 22.7006 30.1478 22.9716 30.1958L24.2048 30.4181C24.3023 30.4356 24.403 30.4231 24.4935 30.382C24.5839 30.341 24.6598 30.2735 24.711 30.1885C24.7623 30.1035 24.7865 30.005 24.7804 29.9061C24.7744 29.8072 24.7383 29.7126 24.6771 29.6349L20.6722 24.5695C20.5858 24.4606 20.5457 24.3221 20.5604 24.1836C20.5751 24.0452 20.6434 23.9178 20.7508 23.8287C20.8581 23.7397 20.9959 23.696 21.1347 23.7071C21.2735 23.7182 21.4023 23.7831 21.4935 23.888C21.894 24.3939 22.3295 24.9438 22.745 25.4678C23.6994 26.6725 24.5237 27.713 24.6025 27.8134C24.6824 27.9151 24.7995 27.9808 24.9281 27.996C25.0568 28.0112 25.1863 27.9747 25.2884 27.8945C25.3904 27.8143 25.4565 27.697 25.4721 27.5685C25.4878 27.4399 25.4517 27.3105 25.3718 27.2089C25.2915 27.1068 24.4666 26.0657 23.5118 24.86C23.2148 24.485 22.9152 24.0904 22.6175 23.7145C22.613 23.7089 22.617 23.6965 22.6124 23.6907L22.2927 23.2869C22.2839 23.2758 22.2669 23.2713 22.2579 23.2606C21.9256 22.841 21.6143 22.4565 21.3632 22.1392C21.3197 22.085 21.2873 22.0228 21.2681 21.956C21.2488 21.8892 21.2429 21.8192 21.2508 21.7501C21.2587 21.6809 21.2802 21.614 21.314 21.553C21.3479 21.4921 21.3934 21.4385 21.4481 21.3951L21.467 21.3802C21.5199 21.3379 21.581 21.3069 21.6464 21.2891C21.7117 21.2713 21.78 21.2671 21.847 21.2768C21.9153 21.2863 21.9809 21.3095 22.04 21.3451C22.099 21.3806 22.1502 21.4276 22.1906 21.4834L26.202 26.5491C26.2823 26.6505 26.3997 26.7157 26.5284 26.7304C26.6571 26.7451 26.7865 26.7081 26.8882 26.6276C26.99 26.547 27.0556 26.4295 27.0708 26.3009C27.086 26.1722 27.0494 26.043 26.9691 25.9417L23.4762 21.5308C23.3859 21.4167 23.3448 21.2714 23.3618 21.1267C23.3789 20.9819 23.4528 20.8497 23.5672 20.7591C23.6816 20.6685 23.8273 20.6269 23.972 20.6434C24.1168 20.66 24.2489 20.7334 24.3392 20.8474L27.8321 25.2583C27.9123 25.3597 28.0297 25.4249 28.1584 25.4396C28.2871 25.4543 28.4165 25.4173 28.5183 25.3368C28.62 25.2562 28.6857 25.1387 28.7008 25.0101C28.716 24.8814 28.6794 24.7522 28.5992 24.6509L26.5402 22.0507C26.3581 21.8208 26.4128 21.5057 26.6436 21.3229L26.6614 21.3088C26.7144 21.2646 26.7755 21.2312 26.8414 21.2108C26.9073 21.1904 26.9765 21.1832 27.0451 21.1898C27.1137 21.1964 27.1802 21.2165 27.2408 21.2491C27.3014 21.2817 27.3549 21.326 27.3981 21.3795C28.5312 22.8031 30.5045 25.2994 32.2752 27.5402Z" fill="#571DD1"/>
<path d="M15.6125 24.6985C15.634 24.5177 15.6224 24.3346 15.5783 24.1582L16.4739 24.261C16.7255 24.2895 16.9805 24.2543 17.2154 24.1587C17.4503 24.0631 17.6576 23.9101 17.8183 23.7138C17.9789 23.5175 18.0877 23.2841 18.1347 23.0352C18.1818 22.7863 18.1655 22.5298 18.0873 22.2893C18.3847 22.2137 18.6523 22.0497 18.8548 21.819C19.0574 21.5884 19.1852 21.3019 19.2213 20.9976L19.2241 20.9742C19.2705 20.5768 19.1573 20.1777 18.9094 19.8645C18.6614 19.5514 18.2989 19.3497 17.9014 19.3038L17.8348 19.2962C17.9465 19.079 18.0041 18.8383 18.0026 18.5945C18.0011 18.3507 17.9406 18.1111 17.8263 17.8961C17.7119 17.6811 17.5471 17.4971 17.3459 17.3599C17.1446 17.2227 16.913 17.1362 16.6707 17.108L11.5283 16.5157C11.9524 16.2068 12.2415 15.747 12.3357 15.2318C12.4298 14.7166 12.3218 14.1856 12.0339 13.7492L11.8383 13.4251C11.778 13.3253 11.6838 13.2505 11.5729 13.2143C11.4619 13.1781 11.3415 13.1828 11.2335 13.2277L5.6191 15.5613C5.07792 15.7866 4.60618 16.1518 4.25256 16.6193C3.89894 17.0868 3.67625 17.6397 3.60745 18.221L3.2191 21.5141C3.1183 22.379 3.36449 23.2473 3.90374 23.929C4.44298 24.6107 5.23135 25.0502 6.09619 25.1511C8.94476 25.4799 12.1348 25.8475 13.9373 26.049C14.3343 26.0928 14.733 25.9777 15.0464 25.729C15.3597 25.4802 15.5622 25.118 15.6097 24.7215L15.6125 24.6985ZM14.6422 24.5871L14.6394 24.6101C14.6227 24.7501 14.5512 24.8779 14.4407 24.9658C14.3301 25.0536 14.1894 25.0942 14.0493 25.0788C12.2484 24.8774 9.05937 24.5099 6.2116 24.1813C5.60377 24.1103 5.04968 23.8014 4.67068 23.3223C4.29169 22.8432 4.11866 22.2329 4.1895 21.625L4.57784 18.332C4.62616 17.9235 4.78265 17.5349 5.03118 17.2063C5.2797 16.8777 5.61125 16.621 5.99161 16.4627L11.2185 14.2903C11.3701 14.5194 11.4258 14.799 11.3739 15.0693C11.322 15.3397 11.1665 15.5794 10.9405 15.7374L9.9095 16.4521C9.82781 16.5088 9.76524 16.5888 9.73011 16.6817C9.69498 16.7746 9.68896 16.8759 9.71285 16.9721C9.73675 17.0683 9.78942 17.1548 9.86387 17.2201C9.93831 17.2855 10.031 17.3266 10.1296 17.3379L16.5559 18.0777C16.6944 18.0934 16.821 18.1625 16.9087 18.2705C16.9963 18.3784 17.0381 18.5165 17.025 18.6552C17.0119 18.7939 16.945 18.9221 16.8386 19.0124C16.7322 19.1027 16.5948 19.1479 16.4558 19.1383C15.8039 19.0638 15.0938 18.9828 14.4191 18.9058C12.9054 18.733 11.5979 18.584 11.4717 18.5689C11.3431 18.5537 11.2135 18.5902 11.1115 18.6704C11.0094 18.7505 10.9433 18.8678 10.9276 18.9964C10.912 19.125 10.948 19.2544 11.0279 19.356C11.1078 19.4577 11.2249 19.5234 11.3536 19.5386C11.4818 19.5537 12.79 19.7031 14.3048 19.876L15.7819 20.0445C15.7892 20.0457 15.7963 20.0467 15.8037 20.0475L16.3162 20.1062C16.3303 20.1077 16.3444 20.1091 16.3585 20.1104C16.8911 20.1712 17.3844 20.2275 17.7872 20.2736C17.9275 20.2899 18.0554 20.3612 18.1429 20.4718C18.2303 20.5824 18.2702 20.7233 18.2537 20.8636L18.251 20.887C18.2343 21.0273 18.1626 21.1554 18.0517 21.2432C17.9407 21.331 17.7996 21.3714 17.6593 21.3556L16.8302 21.2607L16.8278 21.2605L11.2279 20.62C11.1004 20.6077 10.973 20.6459 10.8732 20.7265C10.7733 20.807 10.709 20.9234 10.694 21.0506C10.679 21.1777 10.7146 21.3055 10.7931 21.4064C10.8716 21.5073 10.9867 21.5732 11.1137 21.5899L16.7149 22.2303C16.8556 22.2466 16.9838 22.318 17.0714 22.429C17.159 22.5399 17.1988 22.6812 17.182 22.8218C17.1653 22.9624 17.0933 23.0908 16.982 23.1787C16.8706 23.2667 16.7291 23.3069 16.5884 23.2906L10.9886 22.6505C10.8603 22.6366 10.7316 22.674 10.6305 22.7545C10.5294 22.8351 10.4642 22.9522 10.4491 23.0803C10.434 23.2084 10.4702 23.3371 10.5498 23.4383C10.6295 23.5396 10.7461 23.605 10.8741 23.6205L13.1713 23.883L13.176 23.8835L14.1766 23.9979C14.3166 24.0144 14.4441 24.0857 14.5314 24.1961C14.6186 24.3065 14.6585 24.4471 14.6422 24.5871Z" fill="#571DD1"/>
<path d="M21.5171 3.18562C20.6519 3.08785 19.782 3.3368 19.0979 3.87794C18.4138 4.41909 17.9713 5.20832 17.8672 6.07281C17.5284 8.92045 17.1496 12.1094 16.9417 13.9108C16.8966 14.3076 17.0105 14.7057 17.2584 15.018C17.5064 15.3302 17.8683 15.5313 18.2651 15.5773L18.2877 15.5799C18.4684 15.6008 18.6516 15.5886 18.8283 15.5441L18.7228 16.4396C18.6937 16.691 18.7283 16.9455 18.8232 17.1797C18.9182 17.414 19.0705 17.6204 19.2662 17.7803C19.462 17.9401 19.6949 18.0482 19.9436 18.0946C20.1924 18.141 20.449 18.1243 20.6901 18.046C20.7649 18.3426 20.9283 18.6093 21.1584 18.8106C21.3886 19.012 21.6747 19.1385 21.979 19.1736L22.0028 19.1763C22.4004 19.2213 22.8002 19.1068 23.1144 18.858C23.4287 18.6092 23.6317 18.2463 23.6791 17.8489L23.6871 17.7815C23.9039 17.8926 24.1446 17.9495 24.3886 17.9474C24.6327 17.9452 24.8727 17.884 25.0883 17.769C25.3039 17.6541 25.4886 17.4888 25.6267 17.2872C25.7647 17.0857 25.8519 16.8539 25.8809 16.6117L26.491 11.4711C26.7987 11.8937 27.2578 12.181 27.7731 12.2733C28.2884 12.3656 28.8202 12.2559 29.2579 11.9668L29.583 11.7703C29.6831 11.7097 29.7583 11.6154 29.7949 11.5044C29.8315 11.3934 29.8272 11.2731 29.7826 11.1653L27.4662 5.56348C27.2426 5.02351 26.8787 4.55341 26.412 4.20167C25.9453 3.84994 25.3927 3.62931 24.8113 3.56255L21.5171 3.18562ZM26.5631 5.93874L28.7195 11.154C28.4896 11.3064 28.2096 11.3631 27.9391 11.3122C27.6687 11.2612 27.4292 11.1065 27.2719 10.8812L26.56 9.85342C26.5036 9.77201 26.4237 9.70978 26.3309 9.675C26.238 9.64023 26.1367 9.63457 26.0404 9.65877C25.9441 9.68297 25.8573 9.73588 25.7916 9.81047C25.726 9.88506 25.6845 9.97778 25.6728 10.0763L24.9104 16.5001C24.8938 16.6381 24.824 16.7644 24.7157 16.852C24.6074 16.9395 24.4693 16.9815 24.3309 16.9689C24.1925 16.9563 24.0646 16.8901 23.9747 16.7844C23.8847 16.6788 23.8397 16.5421 23.8493 16.4034L24.0823 14.4233C24.2562 12.9454 24.4206 11.5494 24.4361 11.4215C24.4446 11.3575 24.4403 11.2925 24.4234 11.2303C24.4066 11.168 24.3776 11.1098 24.338 11.0589C24.2985 11.008 24.2492 10.9655 24.193 10.9338C24.1368 10.9021 24.0749 10.8819 24.0108 10.8743C23.9467 10.8667 23.8816 10.8719 23.8195 10.8896C23.7573 10.9073 23.6992 10.9371 23.6485 10.9774C23.5979 11.0176 23.5557 11.0674 23.5244 11.124C23.4931 11.1806 23.4733 11.2427 23.4662 11.3069C23.4503 11.4367 23.2935 12.7694 23.1118 14.3126L22.9445 15.7338C22.9434 15.7408 22.9424 15.748 22.9416 15.7552L22.8812 16.2675C22.8795 16.2815 22.8781 16.2953 22.8768 16.3092C22.8141 16.8417 22.756 17.3351 22.7084 17.7378C22.6917 17.878 22.6201 18.0061 22.5092 18.0939C22.3983 18.1817 22.2572 18.2221 22.1169 18.2062L22.0931 18.2035C22.0236 18.1955 21.9564 18.174 21.8953 18.1401C21.8342 18.1061 21.7805 18.0605 21.7371 18.0057C21.6937 17.951 21.6616 17.8882 21.6426 17.821C21.6236 17.7538 21.618 17.6834 21.6262 17.6139L21.9069 15.2334L21.9073 15.2306L22.3843 11.1852C22.3918 11.1215 22.3867 11.057 22.3693 10.9953C22.3518 10.9337 22.3224 10.8761 22.2827 10.826C22.2429 10.7758 22.1936 10.7339 22.1376 10.7028C22.0816 10.6717 22.02 10.6519 21.9563 10.6447C21.8926 10.6374 21.828 10.6427 21.7663 10.6603C21.7045 10.678 21.6468 10.7076 21.5965 10.7475C21.5461 10.7874 21.504 10.8367 21.4727 10.8928C21.4414 10.9489 21.4214 11.0105 21.4139 11.0742L20.7538 16.6717C20.7372 16.8124 20.6654 16.9409 20.5542 17.0289C20.443 17.117 20.3015 17.1574 20.1608 17.1413C20.0201 17.1252 19.8918 17.0539 19.804 16.9431C19.7163 16.8323 19.6763 16.6911 19.6929 16.5504L20.0817 13.2535L20.0818 13.2525L20.353 10.9528C20.3609 10.8889 20.3561 10.8241 20.3389 10.7622C20.3217 10.7002 20.2923 10.6423 20.2526 10.5918C20.2128 10.5413 20.1635 10.4992 20.1073 10.4679C20.0511 10.4366 19.9893 10.4167 19.9253 10.4094C19.8614 10.4021 19.7965 10.4075 19.7346 10.4253C19.6726 10.4431 19.6148 10.473 19.5643 10.5132C19.5139 10.5534 19.4719 10.6031 19.4407 10.6595C19.4095 10.7159 19.3897 10.7779 19.3826 10.8419L18.9935 14.1415C18.9768 14.2818 18.9051 14.4099 18.7942 14.4977C18.6833 14.5856 18.5421 14.626 18.4018 14.6101L18.3793 14.6075C18.2393 14.5913 18.1116 14.5204 18.024 14.4102C17.9365 14.3 17.8963 14.1596 17.9122 14.0195C18.1199 12.2197 18.4986 9.03179 18.8372 6.18496C18.9104 5.57738 19.2214 5.02269 19.7022 4.64235C20.183 4.26202 20.7944 4.08704 21.4025 4.15573L24.6972 4.53237C25.1058 4.57931 25.4942 4.73438 25.8222 4.9816C26.1502 5.22882 26.406 5.55923 26.5631 5.93874Z" fill="#571DD1"/>
</svg>