<svg width="30" height="32" viewBox="0 0 30 32" fill="none" xmlns="http://www.w3.org/2000/svg">
<path d="M29.2568 13.063C28.7781 12.5289 28.1412 12.2344 27.4638 12.2344C26.7864 12.2344 26.1498 12.5286 25.6714 13.063L21.8107 17.3698C21.6072 17.2178 21.3857 17.1003 21.1516 17.0198C21.1414 17.0163 21.1309 17.0133 21.1206 17.0102C21.0232 16.9783 20.924 16.9532 20.8232 16.9342C20.7983 16.9297 20.7737 16.9247 20.7489 16.9205C20.6354 16.9031 20.5202 16.8917 20.4037 16.8917C20.4037 16.8917 20.4037 16.8917 20.4033 16.8917C20.403 16.8917 20.403 16.8917 20.403 16.8917L8.76215 16.8939C7.7174 16.8939 6.72581 17.3405 5.96115 18.1616L0.199682 24.5825C0.0718991 24.725 0 24.9181 0 25.1203C0 25.3218 0.0715584 25.5152 0.199682 25.6578L5.44389 31.5082C5.57167 31.6507 5.74512 31.7309 5.92572 31.7309C6.10666 31.7309 6.2801 31.6507 6.40788 31.5082L8.87801 28.7521H17.7284C18.4055 28.7521 19.0417 28.4583 19.5204 27.9239L29.2568 17.0635C29.7363 16.5294 30 15.8194 30 15.0634C30 14.3074 29.7363 13.597 29.2568 13.063ZM28.2932 15.9878L18.5568 26.8486C18.3356 27.0953 18.0412 27.2313 17.7267 27.2313H8.59553C8.41459 27.2313 8.24114 27.3115 8.11336 27.4541L5.92572 29.895L1.6455 25.1207L6.91527 19.2471C7.41549 18.71 8.07145 18.4143 8.76215 18.4143L20.403 18.4117C20.7506 18.4117 21.0791 18.5892 21.3053 18.8986C21.3159 18.913 21.3292 18.924 21.3404 18.9377C21.4931 19.1646 21.5759 19.4326 21.5759 19.7192C21.5759 20.0689 21.4539 20.3973 21.2324 20.6447C21.0112 20.8914 20.7172 21.0275 20.4044 21.0275C20.404 21.0275 20.4037 21.0275 20.4037 21.0275H13.9822C13.606 21.0275 13.3007 21.368 13.3007 21.7876C13.3007 22.2073 13.606 22.5478 13.9822 22.5478H20.4033C20.404 22.5478 20.4044 22.5478 20.405 22.5478C21.0818 22.5478 21.718 22.254 22.1967 21.7196C22.6755 21.1852 22.9392 20.4752 22.9392 19.7192C22.9392 19.3064 22.8493 18.9035 22.6953 18.5329L26.6354 14.1383C27.0784 13.6438 27.8502 13.6449 28.2932 14.1383C28.5147 14.3853 28.637 14.7145 28.637 15.0638C28.637 15.4131 28.515 15.7407 28.2932 15.9878Z" fill="#981DD1"/>
<path d="M14.304 14.4054C14.3319 14.4054 14.3595 14.4004 14.3868 14.3966C14.4052 14.3989 14.4226 14.4038 14.4413 14.4042C14.4945 14.405 14.5473 14.4057 14.6001 14.4057C16.9274 14.4057 19.1079 13.4 20.7555 11.5626C22.4405 9.68307 23.3455 7.18206 23.303 4.51988C23.2965 4.11052 23.0007 3.7806 22.6337 3.773C20.6975 3.72815 18.8554 4.38989 17.3285 5.6461C17.0331 3.58561 16.1539 1.69579 14.7776 0.213422C14.5135 -0.0708874 14.0954 -0.0712673 13.831 0.213043C12.1129 2.06144 11.167 4.54421 11.167 7.20258C11.167 9.86133 12.1129 12.3437 13.8307 14.1933C13.9625 14.3347 14.1333 14.4054 14.304 14.4054ZM19.7918 10.4873C18.7079 11.6964 17.3496 12.4798 15.8725 12.7633C16.8351 11.235 17.3762 9.43639 17.4331 7.5363C18.6704 6.22954 20.2358 5.45225 21.9215 5.3139C21.792 7.26986 21.0495 9.08404 19.7918 10.4873ZM14.304 1.86455C15.4523 3.34957 16.0773 5.21811 16.0773 7.20258C16.0773 9.18705 15.4523 11.0552 14.3036 12.5402C13.155 11.0552 12.5297 9.18667 12.5297 7.20182C12.5297 5.21697 13.1553 3.34881 14.304 1.86455Z" fill="#981DD1"/>
</svg>