<svg width="30" height="31" viewBox="0 0 30 31" fill="none" xmlns="http://www.w3.org/2000/svg">
<path d="M17.9807 20.2599H16.6987V20.3561C16.6987 20.9971 16.1859 21.5099 15.5448 21.5099H14.4551C13.8141 21.5099 13.3012 20.9971 13.3012 20.3561V20.2599H12.0192C11.7628 20.2599 11.4743 20.1958 11.2499 20.0356L10.2563 19.3945V22.9202C10.2563 23.2086 10.5128 23.4651 10.8012 23.4651H19.1987C19.4872 23.4651 19.7436 23.2086 19.7436 22.9202V19.3945L18.75 20.0356C18.5256 20.1638 18.2692 20.2599 17.9807 20.2599Z" fill="#1587FF"/>
<path d="M19.8396 15.9942H17.1473V14.5839C17.1473 14.2634 16.8909 14.0391 16.6024 14.0391H13.3973C13.0768 14.0391 12.8524 14.2955 12.8524 14.5839V15.9942H10.1601C9.87165 15.9942 9.61523 16.2506 9.61523 16.5391V17.6609C9.61523 17.8532 9.71139 18.0134 9.87165 18.1096L11.7306 19.2955C11.8268 19.3596 11.9229 19.3916 12.0191 19.3916H13.3011V19.3275C13.3011 18.6865 13.814 18.1737 14.455 18.1737H15.5447C16.1858 18.1737 16.6986 18.6865 16.6986 19.3275V19.3916H17.9807C18.0768 19.3916 18.173 19.3596 18.2691 19.2955L20.1281 18.1096C20.2884 18.0134 20.3845 17.8532 20.3845 17.6609V16.5391C20.3845 16.2186 20.1601 15.9942 19.8396 15.9942ZM16.0576 15.9942H13.9742V15.1609H16.0576V15.9942Z" fill="#1587FF"/>
<path d="M15.5449 20.6455C15.7051 20.6455 15.8013 20.5173 15.8013 20.3891V19.2994C15.8013 19.1391 15.6731 19.043 15.5449 19.043H14.4551C14.2949 19.043 14.1987 19.1712 14.1987 19.2994V20.3571C14.1987 20.5173 14.3269 20.6135 14.4551 20.6135H15.5449V20.6455Z" fill="#1587FF"/>
<path d="M19.0706 27.5664C17.8527 28.1433 16.4745 28.4959 15.0001 28.4959C13.5257 28.4959 12.1796 28.1754 10.9616 27.5664V28.5279C10.9616 28.9126 10.8334 29.2972 10.6411 29.5856C11.9873 30.1626 13.4937 30.451 15.0322 30.451C16.5706 30.451 18.077 30.1305 19.4232 29.5856C19.2309 29.2972 19.1027 28.9126 19.1027 28.5279V27.5664H19.0706Z" fill="#1587FF"/>
<path d="M21.0259 11.7335C22.4361 12.9194 23.5259 14.4899 24.0387 16.2848C24.4233 16.1566 24.872 16.0925 25.2887 16.0925C25.5451 16.0925 25.8015 16.1245 26.058 16.1566C25.3528 13.3681 23.59 10.9642 21.2502 9.42578C21.2502 9.45783 21.2502 9.48988 21.2502 9.52194V10.836C21.2502 11.1566 21.1861 11.4771 21.0259 11.7335Z" fill="#1587FF"/>
<path d="M5.92971 16.2848C6.47458 14.4899 7.53228 12.9194 8.94254 11.7335C8.81433 11.4771 8.71818 11.1566 8.71818 10.836V9.52194C8.71818 9.48988 8.71818 9.45783 8.71818 9.42578C6.37843 10.9642 4.6156 13.3681 3.87842 16.1566C4.13483 16.1245 4.39124 16.0925 4.64765 16.0925C5.12842 16.0925 5.54509 16.1566 5.92971 16.2848Z" fill="#1587FF"/>
<path d="M15.0002 5.64105C16.5579 5.64105 17.8207 4.37826 17.8207 2.82052C17.8207 1.26279 16.5579 0 15.0002 0C13.4425 0 12.1797 1.26279 12.1797 2.82052C12.1797 4.37826 13.4425 5.64105 15.0002 5.64105Z" fill="#1587FF"/>
<path d="M10.6091 11.1201H19.3591C19.5194 11.1201 19.6476 10.9919 19.6476 10.8316V9.51754C19.6476 8.10728 18.7181 6.88932 17.4681 6.47266C16.763 6.95343 15.8976 7.24189 14.9681 7.24189C14.0386 7.24189 13.1732 6.95343 12.4681 6.47266C11.186 6.92138 10.2886 8.10728 10.2886 9.51754V10.8316C10.3206 10.9919 10.4488 11.1201 10.6091 11.1201Z" fill="#1587FF"/>
<path d="M7.17952 24.1289C6.47439 24.6097 5.609 24.9302 4.67951 24.9302C3.75002 24.9302 2.88463 24.6417 2.14744 24.1289C0.897439 24.5776 0 25.7956 0 27.2058V28.5199C0 28.6802 0.128206 28.8084 0.288463 28.8084H9.0385C9.19876 28.8084 9.32696 28.6802 9.32696 28.5199V27.2058C9.35901 25.7635 8.46157 24.5776 7.17952 24.1289Z" fill="#1587FF"/>
<path d="M4.67941 23.3325C6.23714 23.3325 7.49994 22.0697 7.49994 20.5119C7.49994 18.9542 6.23714 17.6914 4.67941 17.6914C3.12168 17.6914 1.85889 18.9542 1.85889 20.5119C1.85889 22.0697 3.12168 23.3325 4.67941 23.3325Z" fill="#1587FF"/>
<path d="M27.8208 24.1289C27.1157 24.6417 26.2503 24.9302 25.3208 24.9302C24.3913 24.9302 23.5259 24.6417 22.8208 24.1289C21.5708 24.5776 20.6733 25.7956 20.6733 27.2058V28.5199C20.6733 28.6802 20.8015 28.8084 20.9618 28.8084H29.7118C29.8721 28.8084 30.0003 28.6802 30.0003 28.5199V27.2058C30.0003 25.7635 29.1029 24.5776 27.8208 24.1289Z" fill="#1587FF"/>
<path d="M25.3205 23.3325C26.8783 23.3325 28.141 22.0697 28.141 20.5119C28.141 18.9542 26.8783 17.6914 25.3205 17.6914C23.7628 17.6914 22.5 18.9542 22.5 20.5119C22.5 22.0697 23.7628 23.3325 25.3205 23.3325Z" fill="#1587FF"/>
</svg>