<?xml version="1.0" encoding="UTF-8"?>
<svg width="700pt" height="700pt" version="1.1" viewBox="0 0 700 700" xmlns="http://www.w3.org/2000/svg" xmlns:xlink="http://www.w3.org/1999/xlink">
 <defs>
  <symbol id="m" overflow="visible">
   <path d="m29.312-1.75c-1.5117 0.78125-3.0898 1.3711-4.7344 1.7656-1.6367 0.40625-3.3398 0.60938-5.1094 0.60938-5.3125 0-9.5273-1.4844-12.641-4.4531-3.1055-2.9688-4.6562-7-4.6562-12.094s1.5508-9.125 4.6562-12.094c3.1133-2.9688 7.3281-4.4531 12.641-4.4531 1.7695 0 3.4727 0.19922 5.1094 0.59375 1.6445 0.39844 3.2227 0.99219 4.7344 1.7812v6.5938c-1.5312-1.0391-3.0391-1.8008-4.5156-2.2812-1.4805-0.48828-3.0391-0.73438-4.6719-0.73438-2.9375 0-5.2461 0.94531-6.9219 2.8281-1.6797 1.875-2.5156 4.4648-2.5156 7.7656 0 3.293 0.83594 5.8828 2.5156 7.7656 1.6758 1.875 3.9844 2.8125 6.9219 2.8125 1.6328 0 3.1914-0.23828 4.6719-0.71875 1.4766-0.48828 2.9844-1.2539 4.5156-2.2969z"/>
  </symbol>
  <symbol id="h" overflow="visible">
   <path d="m21.453-17.406c-0.67969-0.3125-1.3516-0.53906-2.0156-0.6875-0.65625-0.15625-1.3203-0.23438-1.9844-0.23438-1.9688 0-3.4844 0.63281-4.5469 1.8906-1.0547 1.2617-1.5781 3.0703-1.5781 5.4219v11.016h-7.6562v-23.922h7.6562v3.9219c0.97656-1.5625 2.1016-2.7031 3.375-3.4219 1.2812-0.71875 2.8125-1.0781 4.5938-1.0781 0.25 0 0.52344 0.011719 0.82812 0.03125 0.30078 0.023438 0.73438 0.070312 1.2969 0.14062z"/>
  </symbol>
  <symbol id="c" overflow="visible">
   <path d="m27.562-12.031v2.1875h-17.891c0.1875 1.793 0.83203 3.1367 1.9375 4.0312 1.1133 0.89844 2.6719 1.3438 4.6719 1.3438 1.6016 0 3.25-0.23438 4.9375-0.70312 1.6875-0.47656 3.4219-1.2031 5.2031-2.1719v5.8906c-1.8047 0.6875-3.6094 1.2031-5.4219 1.5469-1.8125 0.35156-3.6211 0.53125-5.4219 0.53125-4.3359 0-7.7031-1.0977-10.109-3.2969-2.3984-2.207-3.5938-5.2969-3.5938-9.2656 0-3.9062 1.1758-6.9727 3.5312-9.2031 2.3633-2.2383 5.6094-3.3594 9.7344-3.3594 3.7578 0 6.7695 1.1367 9.0312 3.4062 2.2578 2.2617 3.3906 5.2812 3.3906 9.0625zm-7.8594-2.5312c0-1.457-0.42969-2.6289-1.2812-3.5156-0.84375-0.89453-1.9492-1.3438-3.3125-1.3438-1.4922 0-2.6992 0.41797-3.625 1.25-0.91797 0.83594-1.4922 2.0391-1.7188 3.6094z"/>
  </symbol>
  <symbol id="b" overflow="visible">
   <path d="m14.391-10.766c-1.5938 0-2.793 0.27344-3.5938 0.8125-0.80469 0.54297-1.2031 1.3398-1.2031 2.3906 0 0.96875 0.32031 1.7305 0.96875 2.2812 0.64453 0.54297 1.5469 0.8125 2.7031 0.8125 1.4375 0 2.6445-0.51562 3.625-1.5469 0.98828-1.0312 1.4844-2.3203 1.4844-3.875v-0.875zm11.688-2.8906v13.656h-7.7031v-3.5469c-1.0312 1.4492-2.1875 2.5078-3.4688 3.1719s-2.8398 1-4.6719 1c-2.4805 0-4.4961-0.72266-6.0469-2.1719-1.543-1.4453-2.3125-3.3203-2.3125-5.625 0-2.8125 0.96094-4.8672 2.8906-6.1719 1.9375-1.3125 4.9688-1.9688 9.0938-1.9688h4.5156v-0.60938c0-1.207-0.48047-2.0938-1.4375-2.6562-0.94922-0.5625-2.4375-0.84375-4.4688-0.84375-1.6367 0-3.1562 0.16797-4.5625 0.5-1.4062 0.32422-2.7188 0.8125-3.9375 1.4688v-5.8281c1.6445-0.40625 3.2891-0.70703 4.9375-0.90625 1.6562-0.20703 3.3047-0.3125 4.9531-0.3125 4.3203 0 7.4375 0.85547 9.3438 2.5625 1.9141 1.6992 2.875 4.4609 2.875 8.2812z"/>
  </symbol>
  <symbol id="g" overflow="visible">
   <path d="m12.031-30.719v6.7969h7.875v5.4688h-7.875v10.141c0 1.1172 0.21875 1.8711 0.65625 2.2656 0.4375 0.38672 1.3125 0.57812 2.625 0.57812h3.9375v5.4688h-6.5625c-3.0234 0-5.1641-0.62891-6.4219-1.8906-1.2617-1.2578-1.8906-3.3984-1.8906-6.4219v-10.141h-3.7969v-5.4688h3.7969v-6.7969z"/>
  </symbol>
  <symbol id="f" overflow="visible">
   <path d="m19.953-20.422v-12.812h7.6875v33.234h-7.6875v-3.4531c-1.0547 1.4062-2.2148 2.4375-3.4844 3.0938-1.2734 0.65625-2.7422 0.98438-4.4062 0.98438-2.9492 0-5.3711-1.1719-7.2656-3.5156-1.8867-2.3438-2.8281-5.3594-2.8281-9.0469s0.94141-6.7031 2.8281-9.0469c1.8945-2.3438 4.3164-3.5156 7.2656-3.5156 1.6562 0 3.1172 0.33594 4.3906 1 1.2812 0.65625 2.4453 1.6836 3.5 3.0781zm-5.0469 15.484c1.6445 0 2.8945-0.59766 3.75-1.7969 0.86328-1.1953 1.2969-2.9297 1.2969-5.2031 0-2.2812-0.43359-4.0195-1.2969-5.2188-0.85547-1.1953-2.1055-1.7969-3.75-1.7969-1.625 0-2.8711 0.60156-3.7344 1.7969-0.85547 1.1992-1.2812 2.9375-1.2812 5.2188 0 2.2734 0.42578 4.0078 1.2812 5.2031 0.86328 1.1992 2.1094 1.7969 3.7344 1.7969z"/>
  </symbol>
  <symbol id="e" overflow="visible">
   <path d="m16.406-4.9375c1.6328 0 2.8828-0.59766 3.75-1.7969 0.86328-1.1953 1.2969-2.9297 1.2969-5.2031 0-2.2812-0.43359-4.0195-1.2969-5.2188-0.86719-1.1953-2.1172-1.7969-3.75-1.7969-1.6367 0-2.8906 0.60547-3.7656 1.8125-0.875 1.1992-1.3125 2.9336-1.3125 5.2031 0 2.2617 0.4375 3.9961 1.3125 5.2031 0.875 1.1992 2.1289 1.7969 3.7656 1.7969zm-5.0781-15.484c1.0508-1.3945 2.2188-2.4219 3.5-3.0781 1.2812-0.66406 2.7539-1 4.4219-1 2.9453 0 5.3672 1.1719 7.2656 3.5156 1.8945 2.3438 2.8438 5.3594 2.8438 9.0469s-0.94922 6.7031-2.8438 9.0469c-1.8984 2.3438-4.3203 3.5156-7.2656 3.5156-1.668 0-3.1406-0.33594-4.4219-1s-2.4492-1.6914-3.5-3.0781v3.4531h-7.6562v-33.234h7.6562z"/>
  </symbol>
  <symbol id="a" overflow="visible">
   <path d="m0.53125-23.922h7.6562l6.4219 16.234 5.4688-16.234h7.6562l-10.062 26.188c-1.0117 2.6641-2.1953 4.5234-3.5469 5.5781-1.3438 1.0625-3.1211 1.5938-5.3281 1.5938h-4.4219v-5.0156h2.3906c1.3008 0 2.2422-0.21094 2.8281-0.625 0.59375-0.40625 1.0547-1.1484 1.3906-2.2188l0.20312-0.65625z"/>
  </symbol>
  <symbol id="d" overflow="visible">
   <path d="m4.0156-31.891h22.203v6.2188h-13.984v5.9375h13.141v6.2188h-13.141v7.2969h14.453v6.2188h-22.672z"/>
  </symbol>
  <symbol id="l" overflow="visible">
   <path d="m3.4219-9.3125v-14.609h7.6875v2.3906c0 1.293-0.011719 2.918-0.03125 4.875-0.011719 1.9609-0.015625 3.2656-0.015625 3.9219 0 1.9297 0.046875 3.3125 0.14062 4.1562 0.10156 0.84375 0.28125 1.4609 0.53125 1.8438 0.3125 0.5 0.71875 0.88672 1.2188 1.1562 0.50781 0.27344 1.0938 0.40625 1.75 0.40625 1.5938 0 2.8438-0.60938 3.75-1.8281 0.91406-1.2266 1.375-2.9297 1.375-5.1094v-11.812h7.6406v23.922h-7.6406v-3.4531c-1.1562 1.3867-2.3828 2.4141-3.6719 3.0781-1.2812 0.66406-2.6992 1-4.25 1-2.7734 0-4.8828-0.84766-6.3281-2.5469-1.4375-1.6953-2.1562-4.1602-2.1562-7.3906z"/>
  </symbol>
  <symbol id="k" overflow="visible">
   <path d="m23-23.172v6.2344c-1.0312-0.71875-2.0742-1.2422-3.125-1.5781-1.043-0.34375-2.125-0.51562-3.25-0.51562-2.1367 0-3.8047 0.625-5 1.875-1.1875 1.2422-1.7812 2.9805-1.7812 5.2188 0 2.2305 0.59375 3.9688 1.7812 5.2188 1.1953 1.25 2.8633 1.875 5 1.875 1.1953 0 2.332-0.17578 3.4062-0.53125 1.0703-0.36328 2.0625-0.89453 2.9688-1.5938v6.2656c-1.1875 0.4375-2.4023 0.76562-3.6406 0.98438-1.2305 0.22656-2.4648 0.34375-3.7031 0.34375-4.3125 0-7.6875-1.1094-10.125-3.3281s-3.6562-5.2969-3.6562-9.2344c0-3.9453 1.2188-7.0234 3.6562-9.2344 2.4375-2.2188 5.8125-3.3281 10.125-3.3281 1.25 0 2.4844 0.10938 3.7031 0.32812s2.4297 0.55469 3.6406 1z"/>
  </symbol>
  <symbol id="j" overflow="visible">
   <path d="m3.6719-33.234h7.6562v33.234h-7.6562z"/>
  </symbol>
  <symbol id="i" overflow="visible">
   <path d="m11.328-3.4531v12.547h-7.6562v-33.016h7.6562v3.5c1.0508-1.3945 2.2188-2.4219 3.5-3.0781 1.2812-0.66406 2.7539-1 4.4219-1 2.9453 0 5.3672 1.1719 7.2656 3.5156 1.8945 2.3438 2.8438 5.3594 2.8438 9.0469s-0.94922 6.7031-2.8438 9.0469c-1.8984 2.3438-4.3203 3.5156-7.2656 3.5156-1.668 0-3.1406-0.33594-4.4219-1s-2.4492-1.6914-3.5-3.0781zm5.0781-15.5c-1.6367 0-2.8906 0.60547-3.7656 1.8125-0.875 1.1992-1.3125 2.9336-1.3125 5.2031 0 2.2617 0.4375 3.9961 1.3125 5.2031 0.875 1.1992 2.1289 1.7969 3.7656 1.7969 1.6328 0 2.8828-0.59766 3.75-1.7969 0.86328-1.1953 1.2969-2.9297 1.2969-5.2031 0-2.2812-0.43359-4.0195-1.2969-5.2188-0.86719-1.1953-2.1172-1.7969-3.75-1.7969z"/>
  </symbol>
 </defs>
 <g>
  <path d="m498.75 420c14.473 0 26.25-11.777 26.25-26.25s-11.777-26.25-26.25-26.25-26.25 11.777-26.25 26.25 11.777 26.25 26.25 26.25zm0-35c4.8203 0 8.75 3.9219 8.75 8.75s-3.9297 8.75-8.75 8.75-8.75-3.9219-8.75-8.75 3.9297-8.75 8.75-8.75z"/>
  <path d="m587.65 356.81c-2.6523-6.3516-1.2422-13.57 3.5781-18.402l12.73-12.738-37.137-37.137-12.75 12.738c-4.8203 4.8281-12.047 6.2305-18.734 3.4297-6.2773-2.5898-10.336-8.6602-10.336-15.469v-17.98h-17.945c-0.79688-14.113-3.4141-27.754-7.7539-40.68l101.25-101.25c13.344-13.344 20.695-31.082 20.695-49.945 0-38.938-31.684-70.621-70.621-70.621-18.863 0-36.602 7.3516-49.938 20.684l-101.15 101.16c-13.082-4.3906-26.949-6.9492-41.273-7.707-12.074-21.098-34.766-35.387-60.77-35.387-6.6602 0-13.082 0.99609-19.199 2.7383-15.102-28.395-44.441-46.488-77.051-46.488-48.246 0-87.5 39.254-87.5 87.5 0 6.7031 0.82422 13.301 2.3203 19.758-21.57 6.5273-37.32 26.574-37.32 50.242 0 28.953 23.547 52.5 52.5 52.5h63.473c-1.4531 8.6523-2.2227 17.438-2.2227 26.25 0 19.258 3.5625 34.93 9.3086 48.316l-78.059 78.066-43.434 112.93c-1.043 2.6953-1.5664 5.5312-1.5664 8.4258 0 12.969 10.551 23.512 23.512 23.512 2.8945 0 5.7305-0.53516 8.4336-1.5664l112.93-43.434 57.078-57.086c-0.42969 1.8828-0.69922 3.8242-0.69922 5.8359 0 6.7461 2.6328 12.844 6.8242 17.5-4.1992 4.6562-6.8242 10.754-6.8242 17.5 0 12.164 8.3555 22.328 19.602 25.289 7.4531 21.348 27.422 35.961 50.398 35.961s42.945-14.613 50.398-35.961c11.246-2.9609 19.602-13.125 19.602-25.289 0-0.65625-0.14844-1.2695-0.19141-1.9062l10.867 10.867 12.75-12.738c4.8203-4.8281 12.023-6.2383 18.727-3.4492 6.2773 2.6172 10.348 8.6875 10.348 15.496v17.98h52.5v-17.98c0-6.8086 4.0703-12.891 10.691-15.629 6.3516-2.6406 13.57-1.25 18.391 3.5781l12.738 12.738 37.137-37.137-12.73-12.738c-4.8203-4.8281-6.2305-12.047-3.4375-18.734 2.6016-6.2773 8.6719-10.348 15.48-10.348h17.98v-52.5h-17.98c-6.8086 0-12.879-4.0703-15.621-10.691zm-131.11 25.793c9.5469-9.3203 19.109-18.84 27.359-29.848 4.7617-1.7305 9.7148-2.7539 14.852-2.7539 24.125 0 43.75 19.625 43.75 43.75s-19.625 43.75-43.75 43.75-43.75-19.625-43.75-43.75c0-3.7891 0.58594-7.5156 1.5391-11.148zm10.508-207.27 40.453-40.461 31.379 31.379-46.734 46.734c-6.5547-13.754-15.023-26.406-25.098-37.652zm9.0742-96.582 13.879-13.879 75.129 75.129-13.879 13.879zm74.508-52.5c29.285 0 53.121 23.836 53.121 53.121 0 14.184-5.5195 27.527-15.559 37.562l-10.691 10.695-75.129-75.129 10.691-10.691c10.039-10.027 23.375-15.559 37.566-15.559zm-86.879 64.871 31.379 31.379-40.434 40.434c-11.234-10.078-23.879-18.559-37.633-25.121zm26.25 188.88c0 45.527-22.926 67.891-47.199 91.559-16.711 16.301-33.879 33.152-43.871 57.715-1.6719-0.33984-3.4023-0.52344-5.1797-0.52344h-35v-43.75c0-14.473-11.777-26.25-26.25-26.25h-17.5c-4.8203 0-8.75-3.9219-8.75-8.75s3.9297-8.75 8.75-8.75h87.5c14.473 0 26.25-11.777 26.25-26.25s-11.777-26.25-26.25-26.25h-70c-4.8203 0-8.75-3.9219-8.75-8.75v-26.25h43.75c24.125 0 43.75-19.625 43.75-43.75s-19.625-43.75-43.75-43.75c-0.24609 0-0.47266 0.070312-0.71875 0.070312 0.37891-2.9219 0.71875-5.8438 0.71875-8.8203 0-5.7227-0.76953-11.262-2.0664-16.59 69.758 7.7695 124.57 67.637 124.57 139.09zm-192.5 175c0-4.8281 3.9297-8.75 8.75-8.75h87.5c4.8203 0 8.75 3.9219 8.75 8.75s-3.9297 8.75-8.75 8.75h-87.5c-4.8203 0-8.75-3.9219-8.75-8.75zm-110.13 0 64.32-64.32c10.762 10.676 20.754 21.473 28.121 34.625l-61.062 61.074zm-91.121-253.75c0-19.301 15.699-35 35-35s35 15.699 35 35h17.5c0-28.191-22.355-51.203-50.262-52.387-1.4844-5.7227-2.2383-11.629-2.2383-17.613 0-38.598 31.402-70 70-70 25.594 0 48.695 13.914 60.98 35.883-18.656 10.945-31.832 30.223-34.293 52.719-15.277 3.7617-26.688 17.477-26.688 33.898h17.5c0-9.6523 7.8477-17.5 17.5-17.5s17.5 7.8477 17.5 17.5h17.5c0-16.055-10.922-29.469-25.68-33.582 3.5859-25.48 25.469-45.168 51.93-45.168 28.953 0 52.5 23.547 52.5 52.5 0 4.6016-0.75391 9.1094-1.9258 13.5-14.348 7.1836-24.324 21.887-24.324 39h17.5c0-14.473 11.777-26.25 26.25-26.25s26.25 11.777 26.25 26.25-11.777 26.25-26.25 26.25h-236.25c-19.301 0-35-15.699-35-35zm210 52.5v26.25c0 14.473 11.777 26.25 26.25 26.25h70c4.8203 0 8.75 3.9219 8.75 8.75s-3.9297 8.75-8.75 8.75h-87.5c-14.473 0-26.25 11.777-26.25 26.25s11.777 26.25 26.25 26.25h17.5c4.8203 0 8.75 3.9219 8.75 8.75v43.75h-35c-1.7773 0-3.5078 0.18359-5.1797 0.52344-9.9922-24.562-27.16-41.414-43.871-57.715-24.273-23.668-47.199-46.031-47.199-91.559 0-8.8477 1.0586-17.613 2.6953-26.25zm-67.051 124.68-64.199 64.199-31.379-31.379 66.762-66.762c8.2188 12.898 18.402 23.66 28.816 33.941zm-104.62 48.527 68.461 68.461-57.961 22.297-32.797-32.797zm-30.16 106.39c-3.7891 1.4688-8.1719-1.5508-8.1719-5.6094 0-0.74219 0.14062-1.4688 0.39453-2.1523l8.7656-22.801 21.797 21.797zm245.58 0.40234c-12.922 0-24.449-6.8789-30.836-17.5h61.672c-6.3867 10.621-17.914 17.5-30.836 17.5zm43.75-35h-87.5c-4.8203 0-8.75-3.9219-8.75-8.75s3.9297-8.75 8.75-8.75h87.5c4.8203 0 8.75 3.9219 8.75 8.75s-3.9297 8.75-8.75 8.75zm210-96.25h-0.48047c-13.922 0-26.348 8.3125-31.77 21.453-5.3906 12.922-2.5039 27.641 7.3516 37.504l0.36719 0.36719-12.391 12.391-0.36719-0.36719c-9.8711-9.8711-24.605-12.766-37.793-7.2344-12.855 5.3164-21.168 17.734-21.168 31.656v0.48047h-17.5v-0.48047c0-13.922-8.3125-26.348-21.453-31.781-12.941-5.3984-27.66-2.5039-37.512 7.3594l-0.36719 0.36719-11.855-11.855c0.69922-2.3555 1.1875-4.7852 1.1875-7.3594 0-6.2109-2.2578-11.848-5.8789-16.355 5.4414-14.691 13.973-26.441 23.906-37.293 3.7617 30.191 29.527 53.648 60.723 53.648 33.773 0 61.25-27.484 61.25-61.25s-27.477-61.25-61.25-61.25c-0.85938 0-1.6875 0.085938-2.5391 0.12109 5.9219-12.293 9.9922-26.547 11.016-43.871h0.27344v0.48047c0 13.922 8.3125 26.355 21.445 31.77 12.914 5.4062 27.648 2.5195 37.512-7.3516l0.36719-0.36719 12.391 12.391-0.36719 0.36719c-9.8516 9.8594-12.738 24.586-7.2344 37.781 5.3125 12.863 17.734 21.176 31.656 21.176l0.48047 0.003906z"/>
  <use x="70" y="691.25" xlink:href="#m"/>
  <use x="102.109375" y="691.25" xlink:href="#h"/>
  <use x="123.683594" y="691.25" xlink:href="#c"/>
  <use x="153.355469" y="691.25" xlink:href="#b"/>
  <use x="182.878906" y="691.25" xlink:href="#g"/>
  <use x="203.792969" y="691.25" xlink:href="#c"/>
  <use x="233.464844" y="691.25" xlink:href="#f"/>
  <use x="280.011719" y="691.25" xlink:href="#e"/>
  <use x="311.328125" y="691.25" xlink:href="#a"/>
  <use x="355.078125" y="691.25" xlink:href="#d"/>
  <use x="384.964844" y="691.25" xlink:href="#l"/>
  <use x="416.113281" y="691.25" xlink:href="#k"/>
  <use x="442.046875" y="691.25" xlink:href="#b"/>
  <use x="471.570312" y="691.25" xlink:href="#j"/>
  <use x="486.566406" y="691.25" xlink:href="#a"/>
  <use x="515.082031" y="691.25" xlink:href="#i"/>
 </g>
</svg>
