<svg width="147" height="145" viewBox="0 0 147 145" fill="none" xmlns="http://www.w3.org/2000/svg">
<path d="M128.125 0.0368042C122.061 0.0368042 117.1 4.93073 117.1 10.9128C117.1 16.8949 122.061 21.8076 128.125 21.8076C134.188 21.8076 139.172 16.8949 139.172 10.9128C139.172 4.93073 134.188 0.0368042 128.125 0.0368042ZM128.125 5.68365C131.096 5.68365 133.444 7.98144 133.444 10.9128C133.444 13.8441 131.096 16.1608 128.125 16.1608C125.153 16.1608 122.821 13.8441 122.821 10.9128C122.821 7.98144 125.153 5.68365 128.125 5.68365ZM117.479 24.6405C113.144 24.6405 109.561 28.1819 109.561 32.4575V45.2681C109.561 48.6077 112.726 50.2514 115.747 51.3546V63.3926C115.747 66.4688 118.35 69.0238 121.468 69.0238H134.797C137.915 69.0238 140.502 66.4688 140.502 63.3926V51.3703C143.536 50.2736 146.688 48.615 146.688 45.2681V32.4575C146.688 28.1854 143.127 24.6405 138.793 24.6405H117.479ZM117.479 30.2904H138.793C140.055 30.2904 140.967 31.2093 140.967 32.4575V45.2681C140.138 47.236 139.579 47.3893 137.653 47.4131C136.072 47.4189 134.791 48.6867 134.797 50.246V63.3707H121.468V50.246C121.473 48.6867 120.199 47.4187 118.618 47.4131C116.532 47.6246 115.985 46.3029 115.282 45.2681V32.4575C115.282 31.2125 116.217 30.2904 117.479 30.2904ZM18.714 30.4883C12.6501 30.4883 7.6892 35.3824 7.6892 41.3643C7.6892 47.3464 12.6501 52.256 18.714 52.256C24.7779 52.256 29.7611 47.3464 29.7611 41.3643C29.7611 35.3824 24.7779 30.4883 18.714 30.4883ZM18.714 36.132C21.6854 36.132 24.0338 38.4329 24.0338 41.3643C24.0338 44.2956 21.6854 46.6123 18.714 46.6123C15.7426 46.6123 13.4101 44.2956 13.4101 41.3643C13.4101 38.4329 15.7426 36.132 18.714 36.132ZM98.3802 48.1795L92.376 50.3182L94.5408 56.2383L100.545 54.1027L98.3802 48.1795ZM86.3749 52.4538L80.3706 54.5675L82.5355 60.4876L88.5397 58.3739L86.3749 52.4538ZM8.06805 55.0888C3.73377 55.0888 0.150452 58.63 0.150452 62.9058V75.7196C0.150452 79.0592 3.31514 80.6999 6.33617 81.803V93.8441C6.33617 96.9202 8.93902 99.4722 12.0571 99.4722H25.3868C28.5049 99.4722 31.0918 96.9202 31.0918 93.8441V81.8218C34.1256 80.7251 37.2775 79.0665 37.2775 75.7196V62.9058C37.2775 58.6339 33.7165 55.0888 29.3822 55.0888H8.06805ZM74.3664 56.7031L68.3653 58.8387L70.5302 64.762L76.5344 62.6263L74.3664 56.7031ZM8.06805 60.7388H29.3822C30.6442 60.7388 31.5566 61.6577 31.5566 62.9058V75.7196C30.7276 77.6875 30.1686 77.8374 28.2425 77.8615C26.6618 77.8672 25.3807 79.1384 25.3868 80.6975V93.8222H12.0571V80.6975C12.0628 79.1384 10.7884 77.867 9.20778 77.8615C7.12167 78.073 6.57445 76.7545 5.87137 75.7196V62.9058C5.87137 61.6609 6.80603 60.7388 8.06805 60.7388ZM62.3865 60.9524L56.3823 63.088L58.5248 69.0112L64.5291 66.8756L62.3865 60.9524ZM50.3812 65.2268L44.3769 67.3404L46.5195 73.2605L52.5206 71.1469L50.3812 65.2268ZM128.287 75.7761C122.223 75.7761 117.262 80.6733 117.262 86.6553C117.262 92.6373 122.223 97.5469 128.287 97.5469C134.351 97.5469 139.334 92.6373 139.334 86.6553C139.334 80.6733 134.351 75.7761 128.287 75.7761ZM128.287 81.423C131.258 81.423 133.607 83.724 133.607 86.6553C133.607 89.5865 131.258 91.9032 128.287 91.9032C125.316 91.9032 122.983 89.5865 122.983 86.6553C122.983 83.724 125.316 81.423 128.287 81.423ZM46.5195 81.6208L44.3547 87.5441L50.3812 89.6577L52.5206 83.7345L46.5195 81.6208ZM58.5248 85.8481L56.3823 91.7713L62.3865 93.8818L64.5291 87.9618L58.5248 85.8481ZM70.5302 90.0754L68.3876 95.9955L74.3919 98.1091L76.5344 92.189L70.5302 90.0754ZM82.561 94.3027L80.4184 100.223L86.4195 102.336L88.562 96.4132L82.561 94.3027ZM94.5663 98.5268L92.4237 104.45L98.428 106.564L100.567 100.64L94.5663 98.5268ZM117.641 100.38C113.307 100.38 109.723 103.921 109.723 108.197V121.007C109.723 124.347 112.888 125.991 115.909 127.094V139.135C115.909 142.211 118.515 144.763 121.633 144.763H134.96C138.078 144.763 140.665 142.211 140.665 139.135V127.11C143.699 126.013 146.85 124.354 146.85 121.007V108.197C146.85 103.925 143.289 100.38 138.955 100.38H117.641ZM117.641 106.03H138.955C140.217 106.03 141.13 106.949 141.13 108.197V121.007C140.301 122.975 139.742 123.129 137.815 123.152C136.235 123.158 134.954 124.426 134.96 125.985V139.113H121.633V125.985C121.639 124.426 120.361 123.158 118.781 123.152C116.695 123.364 116.147 122.042 115.444 121.007V108.197C115.444 106.952 116.379 106.03 117.641 106.03Z" fill="#030D2D"/>
</svg>
