<svg width="254" height="159" viewBox="0 0 254 159" fill="none" xmlns="http://www.w3.org/2000/svg">
<g clip-path="url(#clip0)">
<path d="M210.389 104.976C210.389 56.6357 171.423 17.4454 123.36 17.4454C75.2966 17.4454 36.3311 56.6357 36.3311 104.976C36.3311 125.272 43.1991 143.951 54.7252 158.796H191.995C203.521 143.951 210.389 125.272 210.389 104.976Z" fill="#E6F5FA"/>
<path d="M242.498 123.494H220.012C219.191 123.494 218.527 122.827 218.527 122C218.527 121.174 219.191 120.506 220.012 120.506H242.498C243.319 120.506 243.983 121.174 243.983 122C243.987 122.827 243.319 123.494 242.498 123.494Z" fill="#E6F5FA"/>
<path d="M26.1726 107.791H1.48529C0.663724 107.791 0 107.123 0 106.297C0 105.471 0.663724 104.803 1.48529 104.803H26.1726C26.9942 104.803 27.6579 105.471 27.6579 106.297C27.6619 107.123 26.9942 107.791 26.1726 107.791Z" fill="#E6F5FA"/>
<path d="M247.31 141.8H244.955C244.335 141.8 243.834 141.296 243.834 140.673V138.446C243.834 137.824 244.335 137.319 244.955 137.319H247.31C247.929 137.319 248.431 137.824 248.431 138.446V140.673C248.431 141.296 247.929 141.8 247.31 141.8Z" fill="#90D3ED"/>
<path d="M19.8955 130.577H16.7752C15.9536 130.577 15.2899 129.91 15.2899 129.084V126.137C15.2899 125.31 15.9536 124.643 16.7752 124.643H19.8955C20.717 124.643 21.3808 125.31 21.3808 126.137V129.084C21.3808 129.91 20.717 130.577 19.8955 130.577Z" fill="#90D3ED"/>
<path d="M168.444 6.91974H179.133C179.679 6.91974 180.124 7.37156 180.124 7.92921V13.2004C180.124 13.7581 179.679 14.2099 179.133 14.2099H173.62L170.342 17.0348V14.3605L168.424 14.3076C167.886 14.2954 167.453 13.8476 167.453 13.2981V7.92921C167.453 7.37156 167.898 6.91974 168.444 6.91974Z" stroke="white" stroke-width="1.2926" stroke-miterlimit="10" stroke-linecap="round" stroke-linejoin="round"/>
<path d="M239.236 55.7366C239.236 57.5602 237.787 59.0378 235.998 59.0378C234.209 59.0378 232.761 57.5602 232.761 55.7366C232.761 53.9131 234.209 52.4355 235.998 52.4355C237.787 52.4355 239.236 53.9131 239.236 55.7366Z" stroke="white" stroke-width="1.2572" stroke-miterlimit="10"/>
<path d="M6.82335 83.2601C6.82335 85.0836 5.37449 86.5612 3.58567 86.5612C1.79685 86.5612 0.347992 85.0836 0.347992 83.2601C0.347992 81.4365 1.79685 79.9589 3.58567 79.9589C5.37449 79.9589 6.82335 81.4365 6.82335 83.2601Z" stroke="white" stroke-width="1.2572" stroke-miterlimit="10"/>
<path d="M94.9167 11.9427C95.0381 12.0892 95.2769 11.9997 95.2769 11.8084L95.2648 7.83969V1.42059C95.2648 0.634991 94.6334 0 93.8523 0H76.6602C75.8792 0 75.2478 0.634991 75.2478 1.42059V8.3892C75.2478 9.1748 75.8792 9.80979 76.6602 9.80979H93.0996L94.9167 11.9427Z" fill="#0083C8"/>
<path d="M82.0185 4.9609C82.0185 5.43714 81.6381 5.8279 81.1605 5.8279C80.687 5.8279 80.2985 5.44528 80.2985 4.96497C80.2985 4.48873 80.6789 4.09796 81.1565 4.09796C81.63 4.09796 82.0185 4.48058 82.0185 4.9609Z" fill="white"/>
<path d="M85.7014 4.94906C85.7014 5.4253 85.321 5.81606 84.8434 5.81606C84.3699 5.81606 83.9814 5.43344 83.9814 4.95313C83.9814 4.47688 84.3618 4.08612 84.8394 4.08612C85.3169 4.08612 85.7014 4.47281 85.7014 4.94906Z" fill="white"/>
<path d="M89.3882 4.93709C89.3882 5.41334 89.0078 5.8041 88.5303 5.8041C88.0567 5.8041 87.6682 5.42148 87.6682 4.94116C87.6682 4.46492 88.0486 4.07416 88.5262 4.07416C89.0038 4.07416 89.3842 4.46085 89.3882 4.93709Z" fill="white"/>
<path d="M228.435 28.3673H208.329C206.374 28.3673 204.791 26.7758 204.791 24.8097V6.01239C204.791 4.5226 205.993 3.31775 207.471 3.31775H228.43C229.912 3.31775 231.11 4.52667 231.11 6.01239V25.6727C231.114 27.1584 229.916 28.3673 228.435 28.3673Z" fill="#0083C8"/>
<path d="M223.966 17.8897L222.404 16.3185C222.125 16.0091 221.761 15.8423 221.401 15.8423C221.036 15.8423 220.676 16.0091 220.397 16.29L219.503 17.1896C219.446 17.1611 219.389 17.1326 219.337 17.1041C219.223 17.0471 219.142 17.0186 219.057 16.9657C218.22 16.4325 217.467 15.7324 216.742 14.8328C216.406 14.4135 216.156 14.0187 216.018 13.6808C216.241 13.4855 216.435 13.2616 216.633 13.0621C216.718 12.9767 216.799 12.8952 216.884 12.8098C217.192 12.5004 217.358 12.1381 217.358 11.7718C217.358 11.4055 217.192 11.0432 216.884 10.7338L216.103 9.94824C216.018 9.86276 215.937 9.78135 215.852 9.66738C215.686 9.50049 215.488 9.30104 215.322 9.13415C215.043 8.85329 214.678 8.6864 214.318 8.6864C213.954 8.6864 213.622 8.8248 213.315 9.13415L212.339 10.1151C211.975 10.4815 211.752 10.9577 211.696 11.4909C211.639 12.3335 211.862 13.1191 212.06 13.6239C212.505 14.9142 213.205 16.0661 214.237 17.2995C215.492 18.7852 216.973 19.9656 218.701 20.8082C219.345 21.1176 220.235 21.4798 221.21 21.5653C221.267 21.5653 221.324 21.5653 221.405 21.5653C222.072 21.5653 222.631 21.3129 223.08 20.8367C223.08 20.8367 223.08 20.8367 223.109 20.8082C223.246 20.6413 223.416 20.4704 223.61 20.3035C223.724 20.1895 223.861 20.0511 223.975 19.9371C224.549 19.3184 224.549 18.4799 223.966 17.8897ZM223.323 19.3469C223.21 19.4609 223.1 19.5708 222.987 19.6848C222.793 19.8517 222.623 20.0511 222.429 20.2465C222.149 20.5273 221.842 20.6657 221.425 20.6657C221.368 20.6657 221.34 20.6657 221.287 20.6657C220.45 20.6088 219.668 20.2709 219.11 19.9941C217.519 19.2085 216.123 18.1136 214.954 16.7093C214.007 15.5573 213.363 14.4664 212.918 13.3145C212.639 12.6429 212.529 12.1097 212.582 11.5764C212.61 11.2671 212.72 10.9862 212.975 10.7623L213.922 9.80985C214.007 9.72437 214.144 9.61446 214.31 9.61446C214.476 9.61446 214.589 9.69994 214.703 9.80985C214.869 9.97673 215.039 10.1477 215.205 10.3146C215.289 10.4001 215.37 10.51 215.484 10.5954L216.265 11.381C216.35 11.4665 216.459 11.6334 216.459 11.7759C216.459 11.9428 216.346 12.0852 216.265 12.1707C216.18 12.2562 216.099 12.3376 216.014 12.4231C215.763 12.6754 215.54 12.8993 215.318 13.1232C215.318 13.1232 215.318 13.1232 215.29 13.1517C215.01 13.4325 215.067 13.6849 215.124 13.8518V13.8803C215.318 14.385 215.625 14.8328 216.042 15.3945C216.823 16.3755 217.661 17.1326 218.58 17.7228C218.693 17.8083 218.831 17.8612 218.944 17.9182C219.057 17.9752 219.138 18.0037 219.223 18.0566L219.252 18.0851C219.531 18.2235 219.81 18.1706 220.033 17.9467L221.008 16.9657C221.093 16.8802 221.231 16.7703 221.401 16.7703C221.538 16.7703 221.68 16.8843 221.765 16.9657L223.327 18.5369C223.574 18.7852 223.574 19.0661 223.323 19.3469Z" fill="white"/>
<path d="M34.4773 47.7919H11.943C9.75356 47.7919 7.98093 46.009 7.98093 43.8069V22.7382C7.98093 21.0693 9.32456 19.718 10.9839 19.718H34.4773C36.1366 19.718 37.4802 21.0693 37.4802 22.7382V44.7716C37.4802 46.4405 36.1366 47.7919 34.4773 47.7919Z" fill="#FFCC05"/>
<path d="M17.1151 27.9486C14.0312 31.0503 14.0312 36.1425 17.1151 39.2441C20.199 42.3458 25.2619 42.3458 28.3458 39.2441C31.4297 36.1425 31.4297 31.0503 28.3458 27.9486C25.2619 24.847 20.199 24.847 17.1151 27.9486ZM28.3256 29.0965H25.7962C25.5412 28.2987 25.2174 27.4968 24.8127 26.699C26.213 27.1264 27.4312 27.9731 28.3256 29.0965ZM19.8145 33.1263C19.8145 32.0924 19.936 31.0625 20.1909 30.0286H25.27C25.525 31.0625 25.6464 32.0924 25.6464 33.1263H19.8145ZM25.614 34.0625C25.5452 35.0964 25.3591 36.1262 25.0677 37.1601H20.3892C20.0978 36.1262 19.9157 35.0964 19.8429 34.0625H25.614ZM22.7285 26.3897C23.1089 26.3897 23.4853 26.4181 23.8495 26.4792C24.3352 27.3544 24.7156 28.2254 24.9989 29.1006H20.454C20.7373 28.2254 21.1177 27.3544 21.6074 26.4792C21.9717 26.4181 22.348 26.3897 22.7285 26.3897ZM20.6483 26.699C20.2435 27.4968 19.9198 28.2987 19.6648 29.0965H17.1354C18.0257 27.9731 19.2439 27.1264 20.6483 26.699ZM16.5 30.0327H19.3977C19.1427 31.0666 19.0092 32.0964 18.993 33.1303H15.5813C15.6501 32.0069 15.9779 30.9567 16.5 30.0327ZM16.5 37.1601C15.9779 36.2361 15.6501 35.1859 15.5772 34.0625H19.0051C19.0537 35.0964 19.2196 36.1262 19.4867 37.1601H16.5ZM17.1313 38.0922H19.766C20.029 38.9022 20.3569 39.7122 20.7454 40.5182C19.3006 40.103 18.046 39.2401 17.1313 38.0922ZM22.7285 40.7991C22.4087 40.7991 22.0971 40.7787 21.7895 40.738C21.3524 39.8547 20.9801 38.9755 20.6806 38.0922H24.7803C24.4809 38.9755 24.1085 39.8547 23.6714 40.738C23.3598 40.7787 23.0482 40.7991 22.7285 40.7991ZM24.7156 40.5182C25.1041 39.7082 25.4319 38.8982 25.695 38.0922H28.3296C27.411 39.2401 26.1564 40.103 24.7156 40.5182ZM28.9569 37.1601H25.9661C26.2373 36.1262 26.3992 35.0964 26.4477 34.0625H29.8756C29.8068 35.1818 29.479 36.2361 28.9569 37.1601ZM29.8756 33.1263H26.4639C26.4437 32.0924 26.3101 31.0625 26.0592 30.0286H28.9569C29.479 30.9567 29.8068 32.0069 29.8756 33.1263Z" fill="white"/>
<path d="M251.139 104.407H229.669C227.585 104.407 225.893 102.705 225.893 100.609V80.5336C225.893 78.9421 227.176 77.6558 228.754 77.6558H251.139C252.721 77.6558 254 78.9462 254 80.5336V101.529C254 103.121 252.717 104.407 251.139 104.407Z" fill="#6FC7BF"/>
<path d="M243.239 88.845C243.239 86.9481 241.709 85.4136 239.827 85.4136C237.941 85.4136 236.415 86.9522 236.415 88.845C236.415 90.7418 237.945 92.2764 239.827 92.2764C241.709 92.2764 243.235 90.7377 243.239 88.845ZM237.265 88.845C237.265 87.4244 238.411 86.2684 239.827 86.2684C241.239 86.2684 242.389 87.4203 242.389 88.845C242.389 90.2656 241.243 91.4216 239.827 91.4216C238.411 91.4175 237.265 90.2656 237.265 88.845Z" fill="white"/>
<path d="M239.479 98.9684C239.617 99.1598 239.884 99.2005 240.074 99.0621C240.11 99.0376 240.139 99.0051 240.167 98.9684C240.203 98.9196 240.365 98.6957 240.612 98.3457L243.129 94.4258C244.299 92.4191 245.368 90.2088 245.368 88.8452C245.368 85.7639 242.883 83.2646 239.819 83.2646C236.755 83.2646 234.27 85.7639 234.27 88.8452C234.27 90.1722 235.278 92.2929 236.411 94.2508L239.034 98.3457C239.285 98.6957 239.447 98.9196 239.479 98.9684ZM239.823 84.1235C242.413 84.1235 244.518 86.2361 244.518 88.8452C244.518 90.8967 241.397 95.7487 239.823 97.9793C238.249 95.7487 235.128 90.8967 235.128 88.8452C235.128 86.2361 237.233 84.1235 239.823 84.1235Z" fill="white"/>
<path d="M41.7824 82.0604L40.0584 86.2245C40.0584 86.2245 49.9819 93.3722 58.1934 97.4793C60.7836 98.7737 63.7906 96.6448 63.6327 93.7426C63.6327 93.7141 63.6287 93.6816 63.6287 93.6531C63.5397 92.0778 62.5117 90.7142 61.0264 90.2095C52.6287 87.3439 50.9896 86.2041 41.7824 82.0604Z" fill="#D97F48"/>
<path d="M41.3739 86.598C41.3739 86.598 32.79 90.4039 29.6333 84.8803L42.6488 81.6321L41.3739 86.598Z" fill="#D97F48"/>
<path d="M68.1293 67.2351C64.0255 74.3055 59.0759 84.4246 56.3562 92.1341C55.6561 94.1245 56.3765 96.3511 58.2867 97.2262C58.311 97.2384 58.3312 97.2466 58.3555 97.2588C60.2293 98.1258 62.4431 97.4175 63.4427 95.6062C69.6469 84.3473 75.1712 75.5755 75.1712 75.5755L68.1293 67.2351Z" fill="#D97F48"/>
<path d="M68.2953 65.2861C68.2953 65.2861 62.1275 66.605 56.9715 81.918L68.5786 88.8459L72.8604 80.298L68.2953 65.2861Z" fill="#6FC7BF"/>
<path d="M62.5887 84.9912H49.1928V82.8339H62.5887C63.1796 82.8339 63.6612 83.3182 63.6612 83.9125C63.6612 84.5068 63.1836 84.9912 62.5887 84.9912Z" fill="#08101C"/>
<path d="M54.5188 84.9843H23.9955C23.2832 84.9843 22.6478 84.5162 22.4374 83.8323L17.0305 65.6455C16.7957 64.8925 17.3542 64.1273 18.1394 64.1273H47.0842C47.7965 64.1273 48.4319 64.5954 48.6424 65.2792L54.5188 84.9843Z" fill="#111D36"/>
<path d="M36.9057 73.8345C37.1323 75.1004 36.2986 76.3093 35.0399 76.5373C33.7813 76.7652 32.5793 75.9267 32.3527 74.6608C32.126 73.3949 32.9597 72.186 34.2184 71.958C35.477 71.7301 36.679 72.5686 36.9057 73.8345Z" fill="#E6F5FA"/>
<path d="M95.6937 87.0879C95.6937 87.0879 103.059 113.839 106.066 137.106L111.125 136.141C111.125 136.141 109.555 102.047 104.456 80.9537L95.6937 87.0879Z" fill="#D97F48"/>
<path d="M111.085 134.977C111.085 134.977 118.697 146.281 109.563 151.361C108.96 151.694 108.203 151.56 107.758 151.031L107.697 150.962C107.208 150.38 107.26 149.529 107.795 148.983C109.094 147.661 110.838 144.917 108.058 141.339C108.058 141.339 106.597 141.714 106.843 144.628C106.908 145.377 106.285 146.012 105.54 145.939C105.03 145.89 104.614 145.524 104.492 145.027C104.015 143.106 103.221 138.339 106.277 135.779L111.085 134.977Z" fill="#D97F48"/>
<path d="M96.6529 65.2862C96.6529 65.2862 101.364 66.6661 106.39 82.6752L94.7832 89.6031L92.0919 80.298L96.6529 65.2862Z" fill="#6FC7BF"/>
<path d="M95.9408 64.8556L87.195 61.355L78.2064 61.4771L69.1854 64.8027C67.4937 65.4254 66.5427 67.2368 66.9878 68.9952L73.6129 95.2781H91.3595L97.4787 67.7822C97.7498 66.557 97.0983 65.3155 95.9408 64.8556Z" fill="#6FC7BF"/>
<path d="M91.3596 95.2744H73.613V98.1319H91.3596V95.2744Z" fill="#111D36"/>
<path d="M70.9622 84.7563L67.9147 72.6752" stroke="#51A99F" stroke-width="1.3684" stroke-miterlimit="10"/>
<path d="M93.5612 85.3831L96.3901 72.6752" stroke="#51A99F" stroke-width="1.3684" stroke-miterlimit="10"/>
<path d="M91.3595 98.1328H73.6129C73.6129 98.1328 65.0128 100.323 59.2579 140.836C58.3796 147.011 57.6228 153.031 56.9713 158.799H73.7303L81.1365 121.408L82.7553 121.835L85.4871 158.795H101.234L101.562 138.829C101.562 138.833 100.146 106.335 91.3595 98.1328Z" fill="#006AB8"/>
<path d="M82.7553 121.839L77.2391 119.673" stroke="#005A94" stroke-width="1.3684" stroke-miterlimit="10"/>
<path d="M97.2926 46.0263C96.5075 43.0305 96.2201 43.5678 93.5814 37.6046C92.0031 34.0429 90.7808 32.6142 90.0564 32.0362C90.0564 32.0362 87.3894 29.1462 82.6138 29.1462C78.0568 29.1462 75.418 31.8897 75.418 31.8897C74.726 32.3537 73.4269 33.6969 71.6947 37.6005C69.0519 43.5597 68.7687 43.0224 67.9835 46.0223C67.1984 49.0181 68.198 54.5458 74.3375 55.6245C74.3375 55.6245 73.5523 54.8348 73.265 53.5404C73.265 53.5404 75.8349 57.0573 79.3316 56.8415H85.9405C89.4372 57.0573 92.0071 53.5404 92.0071 53.5404C91.7198 54.8348 90.9346 55.6245 90.9346 55.6245C97.0781 54.5499 98.0777 49.0222 97.2926 46.0263Z" fill="#111D36"/>
<path d="M90.8174 62.8049L87.1993 61.3559L86.1065 51.7781C86.1065 51.7781 84.9774 52.9341 83.48 53.215C81.9825 53.4958 80.5337 52.6125 80.5134 52.6044C80.4932 52.5922 79.2912 51.5868 79.2912 51.5868L78.2066 61.478L74.2607 62.9311C74.2607 62.9311 74.5156 65.5077 82.8567 65.5077C91.2018 65.5077 90.8174 62.8049 90.8174 62.8049Z" fill="#D97F48"/>
<path d="M78.6072 51.9246C78.6072 51.9246 80.8978 56.3736 83.6256 55.7386C86.4748 55.0751 86.4626 51.3099 86.4626 51.3099L78.6072 51.9246Z" fill="#111D36"/>
<path d="M92.448 39.14C92.448 44.5903 88.2309 49.0067 83.0304 49.0067C77.8299 49.0067 73.6128 44.5903 73.6128 39.14C73.6128 33.6896 77.8299 29.9814 83.0304 29.9814C88.2309 29.9814 92.448 33.6896 92.448 39.14Z" fill="#111D36"/>
<path d="M90.8135 39.6427C90.8135 43.0416 90.344 45.9723 89.8745 48.0523C89.4132 50.0875 88.1222 51.5122 86.2969 52.66L85.9651 52.8676C84.0305 54.0806 81.5375 54.1091 79.5747 52.9409C77.5956 51.7605 76.2115 50.2096 75.7826 48.0238C75.0055 44.047 74.9205 39.6427 74.9205 39.6427C74.9205 39.6427 74.1839 31.0663 82.7517 31.2332C91.3234 31.4001 90.8135 39.6427 90.8135 39.6427Z" fill="#D97F48"/>
<path d="M75.8552 47.699C74.3457 49.0096 71.1646 43.8157 72.6297 42.4155C74.0907 41.0153 75.1268 43.2947 75.1268 43.2947L75.4222 44.9351L75.8633 47.1454L75.9767 47.642L75.8552 47.699Z" fill="#D97F48"/>
<path d="M73.2811 44.1664C73.2811 44.1664 73.9003 42.8231 75.337 45.184" stroke="#111D36" stroke-width="1.0039" stroke-miterlimit="10" stroke-linecap="round" stroke-linejoin="round"/>
<path d="M89.8702 47.7315C91.404 49.0178 94.492 43.771 93.0067 42.3952C91.5214 41.0194 90.5258 43.3151 90.5258 43.3151L90.2587 44.9596L89.854 47.1739L89.7488 47.6705L89.8702 47.7315Z" fill="#D97F48"/>
<path d="M92.3794 44.1535C92.3794 44.1535 91.74 42.8184 90.3397 45.2037" stroke="#111D36" stroke-width="1.0039" stroke-miterlimit="10" stroke-linecap="round" stroke-linejoin="round"/>
<path d="M75.0296 42.3181C75.0296 42.3181 78.4575 37.6574 77.6642 32.9398C77.6642 32.9398 75.1227 34.226 74.4589 37.5516C73.7952 40.869 75.0296 42.3181 75.0296 42.3181Z" fill="#111D36"/>
<path d="M90.9548 42.4075C90.9548 42.4075 86.8348 37.3398 87.628 32.618C87.628 32.618 90.3882 34.2218 91.0519 37.5433C91.7116 40.8689 90.9548 42.4075 90.9548 42.4075Z" fill="#111D36"/>
<path d="M72.4883 38.9656H93.2377C93.2377 38.9656 90.9026 30.1246 82.1487 29.5995C73.3948 29.0744 72.4883 38.9656 72.4883 38.9656Z" fill="#111D36"/>
<path d="M79.8574 42.9781C79.8574 43.4177 79.5053 43.7718 79.0682 43.7718C78.6312 43.7718 78.2791 43.4177 78.2791 42.9781C78.2791 42.5385 78.6312 42.1844 79.0682 42.1844C79.5053 42.1803 79.8574 42.5385 79.8574 42.9781Z" fill="#111D36"/>
<path d="M87.1746 42.9781C87.1746 43.4177 86.8225 43.7718 86.3854 43.7718C85.9483 43.7718 85.5962 43.4177 85.5962 42.9781C85.5962 42.5385 85.9483 42.1844 86.3854 42.1844C86.8184 42.1803 87.1746 42.5385 87.1746 42.9781Z" fill="#111D36"/>
<path d="M82.3304 44.7074V45.7779C82.3304 46.0466 82.5692 46.2501 82.8242 46.1972L83.3908 46.0791" stroke="#111D36" stroke-width="0.9876" stroke-miterlimit="10" stroke-linecap="round" stroke-linejoin="round"/>
<path d="M81.4158 40.5148L76.6281 41.0928C76.6281 41.0928 77.0125 39.8147 78.9673 39.5949C80.922 39.3751 81.4158 40.5148 81.4158 40.5148Z" fill="#111D36"/>
<path d="M84.1758 40.5148L88.9635 41.0928C88.9635 41.0928 88.579 39.8147 86.6243 39.5949C84.6655 39.3751 84.1758 40.5148 84.1758 40.5148Z" fill="#111D36"/>
<path d="M78.2914 46.2388C80.0952 46.2388 81.5574 44.7681 81.5574 42.9539C81.5574 41.1397 80.0952 39.6691 78.2914 39.6691C76.4876 39.6691 75.0254 41.1397 75.0254 42.9539C75.0254 44.7681 76.4876 46.2388 78.2914 46.2388Z" stroke="#6FC7BF" stroke-width="1.083" stroke-miterlimit="10"/>
<path d="M87.543 46.2388C89.3467 46.2388 90.809 44.7681 90.809 42.9539C90.809 41.1397 89.3467 39.6691 87.543 39.6691C85.7392 39.6691 84.277 41.1397 84.277 42.9539C84.277 44.7681 85.7392 46.2388 87.543 46.2388Z" stroke="#6FC7BF" stroke-width="1.083" stroke-miterlimit="10"/>
<path d="M81.5575 43.2267C81.5575 43.2267 82.7109 41.4438 84.2771 43.2267" stroke="#6FC7BF" stroke-width="1.083" stroke-miterlimit="10"/>
<path d="M80.311 47.7034H85.5236C85.5236 47.7034 83.0792 50.6341 80.311 47.7034Z" fill="white"/>
<path d="M193.48 73.8252L205.379 84.1845C207.629 86.1424 207.908 89.5534 206.002 91.8573C204.088 94.1693 200.684 94.5072 198.361 92.6103L186.572 83L193.48 73.8252Z" fill="#F7A771"/>
<path d="M178.32 63.683C186.972 65.0914 196.471 73.8266 196.471 73.8266L188.615 85.1303L178.271 76.6108L178.32 63.683Z" fill="#0083C8"/>
<path d="M206.046 62.4665L197.491 87.048C196.536 89.767 198.049 92.7303 200.797 93.5403C203.695 94.3911 206.674 92.482 207.131 89.478L211.518 63.3742L206.046 62.4665Z" fill="#F7A771"/>
<path d="M206.046 62.4658C206.046 62.4658 204.367 60.2881 204.031 54.0562C204.011 53.6654 204.233 53.3032 204.581 53.1363C205.095 52.892 205.706 53.1485 205.897 53.6899L206.747 56.2909L211.518 63.3775L206.046 62.4658Z" fill="#F7A771"/>
<path d="M206.746 56.2911L206.953 47.6454C206.969 47.2791 207.212 46.7621 207.681 46.7418C208.191 46.6848 208.576 47.043 208.588 47.446L208.782 53.5761L209.915 46.408C209.972 46.0579 210.288 45.8178 210.636 45.8585C210.98 45.8992 211.231 46.1963 211.214 46.5464L210.846 54.325L212.396 47.9344C212.481 47.5884 212.797 47.3524 213.153 47.3768C213.57 47.4053 213.877 47.7757 213.833 48.1949L213.036 55.2083L216.115 50.8448C216.379 50.5273 216.86 50.5151 217.143 50.8163C217.354 51.0402 217.39 51.3821 217.232 51.6467L214.642 56.9301C214.642 56.9301 214.48 60.2191 211.518 63.3859L206.937 60.6465L206.746 56.2911Z" fill="#F7A771"/>
<path d="M206.746 56.2911C206.746 56.2911 209.988 56.3033 210.049 59.23" stroke="#111D36" stroke-width="1.0166" stroke-miterlimit="10" stroke-linecap="round" stroke-linejoin="round"/>
<path d="M177.441 63.0067L183.913 65.4734C185.604 66.0962 186.037 67.9889 185.592 69.7433L182.601 106.988H157.068L155.101 68.5303C154.83 67.3092 155.482 66.0677 156.635 65.6077L165.381 62.1071L177.441 63.0067Z" fill="#0083C8"/>
<path d="M184.625 81.8396L185.22 74.4029" stroke="#00678D" stroke-width="1.4581" stroke-miterlimit="10"/>
<path d="M155.7 88.6447C155.7 88.6447 148.764 115.762 147.027 139.159L141.924 138.475C141.924 138.475 142.673 104.344 146.619 83.0031L155.7 88.6447Z" fill="#F7A771"/>
<path d="M155.931 66.0408C155.931 66.0408 150.18 67.4207 145.158 83.4297L157.805 90.3576L160.496 81.0526L155.931 66.0408Z" fill="#0083C8"/>
<path d="M174.519 62.124L174.018 52.8963C174.018 52.8963 172.322 54.0849 170.78 54.3739C169.238 54.6629 167.749 53.7552 167.728 53.743C167.708 53.7308 165.935 52.6928 165.935 52.6928L165.397 62.1037H165.381L162.686 63.1824C162.686 63.1824 164.381 66.0846 170.031 65.7875C175.681 65.4944 177.441 62.9992 177.441 62.9992L174.519 62.124Z" fill="#F7A771"/>
<path d="M165.576 53.0464C165.576 53.0464 168.073 57.6256 171.043 56.9703C174.147 56.2865 174.261 52.2933 174.261 52.2933L165.576 53.0464Z" fill="#111D36"/>
<path d="M178.332 40.4028C178.332 43.8993 177.846 46.9196 177.364 49.0606C176.891 51.1569 175.559 52.6223 173.682 53.8027L173.338 54.0185C171.346 55.2681 168.776 55.2966 166.757 54.0917C164.721 52.8787 163.293 51.279 162.856 49.0281C162.058 44.9332 161.969 40.4028 161.969 40.4028C161.969 40.4028 161.208 31.574 170.031 31.7449C178.858 31.92 178.332 40.4028 178.332 40.4028Z" fill="#F7A771"/>
<path d="M162.933 48.6953C161.379 50.0467 158.104 44.6981 159.61 43.2572C161.115 41.8163 162.18 44.1608 162.18 44.1608L162.483 45.8501L162.937 48.1255L163.054 48.6343L162.933 48.6953Z" fill="#F7A771"/>
<path d="M160.286 45.0613C160.286 45.0613 160.921 43.6774 162.402 46.1074" stroke="#111D36" stroke-width="1.0334" stroke-miterlimit="10" stroke-linecap="round" stroke-linejoin="round"/>
<path d="M177.36 48.7284C178.939 50.0513 182.12 44.6498 180.59 43.2333C179.06 41.8167 178.036 44.1817 178.036 44.1817L177.761 45.875L177.344 48.1544L177.235 48.6673L177.36 48.7284Z" fill="#F7A771"/>
<path d="M179.943 45.0485C179.943 45.0485 179.283 43.6768 177.846 46.1312" stroke="#111D36" stroke-width="1.0334" stroke-miterlimit="10" stroke-linecap="round" stroke-linejoin="round"/>
<path d="M167.057 43.2982C167.057 43.75 166.692 44.1164 166.243 44.1164C165.794 44.1164 165.43 43.75 165.43 43.2982C165.43 42.8464 165.794 42.48 166.243 42.48C166.692 42.48 167.057 42.8464 167.057 43.2982Z" fill="#111D36"/>
<path d="M174.584 43.2982C174.584 43.75 174.22 44.1164 173.771 44.1164C173.322 44.1164 172.957 43.75 172.957 43.2982C172.957 42.8464 173.322 42.48 173.771 42.48C174.22 42.48 174.584 42.8464 174.584 43.2982Z" fill="#111D36"/>
<path d="M169.598 44.541V46.1813C169.598 46.4581 169.845 46.6698 170.108 46.6128L170.691 46.4907" stroke="#111D36" stroke-width="1.0166" stroke-miterlimit="10" stroke-linecap="round" stroke-linejoin="round"/>
<path d="M171.266 40.2946L175.96 41.5157C175.96 41.5157 175.746 40.1928 173.827 39.7084C171.909 39.2281 171.266 40.2946 171.266 40.2946Z" fill="#111D36"/>
<path d="M168.352 40.2946L163.657 41.5157C163.657 41.5157 163.872 40.1928 165.79 39.7084C167.712 39.2281 168.352 40.2946 168.352 40.2946Z" fill="#111D36"/>
<path d="M169.619 49.0206C169.793 48.9066 169.918 48.7316 169.971 48.5321C170.08 48.1251 170.129 47.4738 169.347 47.4005C168.202 47.2906 166.288 49.505 164.608 48.239C164.612 48.239 166.215 51.2308 169.619 49.0206Z" fill="#111D36"/>
<path d="M170.254 49.0206C170.084 48.9066 169.959 48.7316 169.902 48.5321C169.793 48.1251 169.744 47.4738 170.521 47.4005C171.662 47.2906 173.569 49.505 175.24 48.239C175.24 48.239 173.645 51.2308 170.254 49.0206Z" fill="#111D36"/>
<path d="M178.125 29.9432C175.24 27.8916 169.752 29.8007 166.713 31.1317C166.802 30.163 166.207 29.5483 166.207 29.5483C160.99 31.1561 161.646 34.1479 162.01 35.1004C160.986 36.1832 159.582 38.8819 162.249 44.5439C162.249 44.5439 163.738 39.7082 163.103 35.8616C165.575 36.9891 172.29 39.6837 176.555 37.966C176.701 41.2671 177.976 44.5398 177.976 44.5398C179.591 40.3879 179.364 37.8887 178.72 36.4192C179.457 35.536 181.626 32.4302 178.125 29.9432Z" fill="#111D36"/>
<path d="M177.761 158.798H194.168C188.109 132.751 183.354 114.747 183.354 114.747L182.605 106.985H170.148L170.711 134.249L177.761 158.798Z" fill="#006AB8"/>
<path d="M170.707 134.254L170.144 106.99H157.068C147.282 121.721 152.823 147.894 152.823 147.894L154.312 158.799H170.707V134.254Z" fill="#006AB8"/>
<path d="M170.707 134.253V126.528L174.414 120.756" stroke="#005A94" stroke-width="1.3684" stroke-miterlimit="10"/>
<path d="M120.345 149.741C120.345 149.741 124.752 127.736 127.346 121.736C127.581 121.191 128.366 121.264 128.52 121.834C129.143 124.121 129.969 130.858 129.601 150.689L129.609 158.794H145.081L147.359 139.284C147.359 139.284 150.807 112.093 139.581 96.65H117.079C117.079 96.65 105.605 113.437 104.092 136.622C103.756 141.779 103.177 149.659 102.477 158.79H118.418L120.345 149.741Z" fill="#0083C8"/>
<path d="M123.489 119.673L128.759 121.838" stroke="#00678D" stroke-width="1.4581" stroke-miterlimit="10"/>
<path d="M123.429 53.7393L112.607 56.7352L117.079 93.8902H139.787L144.267 56.5723L132.272 53.5765L123.429 53.7393Z" fill="#FFCC05"/>
<path d="M139.581 93.8904H117.079V96.6583H139.581V93.8904Z" fill="#111D36"/>
<path d="M133.886 80.4989C133.886 80.4989 143.158 76.7582 148.128 79.3673L148.598 85.3712L133.453 87.2844L133.886 80.4989Z" fill="#F7A771"/>
<path d="M153.705 92.6089C153.705 92.6089 138.65 94.4284 126.448 87.9889L136.784 84.8424L149.553 82.681L153.705 92.6089Z" fill="#FFCC05"/>
<path d="M143.535 56.4587C143.535 56.4587 149.383 56.8332 153.11 68.4788C157.072 80.853 157.359 90.5936 154.607 92.2299C151.859 93.8621 148.448 90.2557 144.951 80.2912C141.454 70.3268 139.84 64.9619 139.84 64.9619L143.535 56.4587Z" fill="#FFCC05"/>
<path d="M142.333 72.6759L143.235 65.166" stroke="#EAB600" stroke-width="1.4581" stroke-miterlimit="10"/>
<path d="M112.607 56.7348C112.607 56.7348 106.759 57.1093 103.031 68.7548C99.0692 81.129 98.7819 90.8696 101.534 92.5059C104.282 94.1382 108.106 90.5318 111.603 80.5673C115.1 70.6028 116.302 65.238 116.302 65.238L112.607 56.7348Z" fill="#FFCC05"/>
<path d="M114.44 71.9531L113.627 65.1636" stroke="#EAB600" stroke-width="1.4581" stroke-miterlimit="10"/>
<path d="M117.455 80.5481C117.455 80.5481 113.255 76.1723 106.318 73.8929C106.014 73.7952 105.678 73.8644 105.44 74.0761C104.954 74.5075 105.067 75.3013 105.654 75.5781L109.835 77.5441L104.347 77.9104C103.444 77.9715 102.744 78.7815 102.874 79.6811C102.987 80.4748 103.521 81.5128 105.043 82.7176L117.455 80.5481Z" fill="#F7A771"/>
<path d="M105.043 82.717C105.043 82.717 124.926 78.7727 134.36 78.8093L138.124 88.1673C138.124 88.1673 108.694 95.5878 101.534 92.5023L105.043 82.717Z" fill="#FFCC05"/>
<path d="M117.456 80.5468C117.456 80.5468 129.953 78.5848 134.36 78.8127L134.89 80.1356" stroke="#EAB600" stroke-width="1.4581" stroke-miterlimit="10"/>
<path d="M116.901 92.3999L138.124 88.1707L134.89 80.1316" stroke="#EAB600" stroke-width="1.4581" stroke-miterlimit="10"/>
<path d="M117.989 37.6881L113.55 43.517C113.55 43.517 129.52 55.8546 142.652 42.646L137.966 36.8944L117.989 37.6881Z" fill="#111D36"/>
<path d="M132.247 53.2909L131.126 44.34C131.126 44.34 129.969 45.5285 128.431 45.8135C126.893 46.1025 125.408 45.1988 125.388 45.1866C125.367 45.1744 124.133 44.1405 124.133 44.1405L123.457 53.413C123.457 53.5229 123.445 53.6328 123.429 53.7386L128.293 64.3707L132.272 53.5758C132.256 53.4822 132.247 53.3845 132.247 53.2909Z" fill="#F7A771"/>
<path d="M123.429 44.4899C123.429 44.4899 125.78 49.4844 128.581 48.829C131.503 48.1452 131.491 43.8549 131.491 43.8549L123.429 44.4899Z" fill="#111D36"/>
<path d="M137.634 31.3678C137.634 36.9606 133.308 41.4951 127.97 41.4951C122.631 41.4951 118.305 36.9606 118.305 31.3678C118.305 25.775 122.631 21.9691 127.97 21.9691C133.308 21.9691 137.634 25.775 137.634 31.3678Z" fill="#111D36"/>
<path d="M135.954 31.8888C135.954 35.3772 135.473 38.3852 134.991 40.5181C134.522 42.6103 133.194 44.0716 131.321 45.248L130.981 45.4637C128.998 46.7093 126.436 46.7378 124.42 45.537C122.389 44.3281 120.968 42.7325 120.531 40.4896C119.734 36.407 119.649 31.8888 119.649 31.8888C119.649 31.8888 118.892 23.0885 127.686 23.2594C136.481 23.4304 135.954 31.8888 135.954 31.8888Z" fill="#F7A771"/>
<path d="M120.604 40.1562C119.054 41.5035 115.792 36.1712 117.293 34.7344C118.795 33.2975 119.855 35.6339 119.855 35.6339L120.159 37.3191L120.612 39.5863L120.729 40.0951L120.604 40.1562Z" fill="#F7A771"/>
<path d="M117.965 36.5291C117.965 36.5291 118.601 35.1492 120.074 37.5712" stroke="#111D36" stroke-width="1.0303" stroke-miterlimit="10" stroke-linecap="round" stroke-linejoin="round"/>
<path d="M134.987 40.1852C136.561 41.504 139.73 36.1188 138.209 34.7063C136.683 33.2939 135.663 35.6507 135.663 35.6507L135.388 37.3399L134.975 39.6153L134.866 40.1241L134.987 40.1852Z" fill="#F7A771"/>
<path d="M137.565 36.5188C137.565 36.5188 136.905 35.1511 135.473 37.5975" stroke="#111D36" stroke-width="1.0303" stroke-miterlimit="10" stroke-linecap="round" stroke-linejoin="round"/>
<path d="M136.201 29.7341C135.675 27.0924 133.862 25.5171 133.069 24.9351C132.081 23.9541 130.778 23.1807 129.046 22.9568C129.046 22.9568 123.554 21.7113 121.28 25.8876C120.494 26.6284 119.547 27.8658 119.175 29.7301C118.495 33.1411 119.758 34.6268 119.758 34.6268C119.758 34.6268 121.919 31.688 122.461 28.0856C124.125 29.4696 127.496 31.2036 133.898 31.114C134.898 33.2347 136.104 34.7204 136.104 34.7204C136.104 34.7204 136.881 33.1452 136.201 29.7341Z" fill="#111D36"/>
<path d="M124.711 35.3073C124.711 35.7591 124.347 36.1214 123.902 36.1214C123.453 36.1214 123.093 35.755 123.093 35.3073C123.093 34.8555 123.457 34.4932 123.902 34.4932C124.351 34.4891 124.711 34.8555 124.711 35.3073Z" fill="#111D36"/>
<path d="M132.223 35.3073C132.223 35.7591 131.859 36.1214 131.414 36.1214C130.964 36.1214 130.604 35.755 130.604 35.3073C130.604 34.8555 130.968 34.4932 131.414 34.4932C131.859 34.4891 132.223 34.8555 132.223 35.3073Z" fill="#111D36"/>
<path d="M127.055 37.0822V38.1812C127.055 38.458 127.302 38.6656 127.561 38.6127L128.144 38.4906" stroke="#111D36" stroke-width="1.0135" stroke-miterlimit="10" stroke-linecap="round" stroke-linejoin="round"/>
<path d="M131.049 31.5346C131.049 31.5346 128.674 31.3392 128.649 32.3121C128.649 32.3121 128.649 32.9715 130.721 33.1017C132.793 33.232 133.332 33.0814 133.522 32.4627C133.712 31.8399 132.162 31.5387 131.049 31.5346Z" fill="#111D36"/>
<path d="M123.947 31.5346C123.947 31.5346 126.322 31.3392 126.346 32.3121C126.346 32.3121 126.346 32.9715 124.274 33.1017C122.202 33.232 121.664 33.0814 121.474 32.4627C121.284 31.8399 122.834 31.5387 123.947 31.5346Z" fill="#111D36"/>
<path d="M129.803 39.4638C129.803 39.4638 128.949 40.8396 126.751 40.4529" stroke="#111D36" stroke-width="1.0135" stroke-miterlimit="10" stroke-linecap="round" stroke-linejoin="round"/>
<path d="M19.4304 158.798H227.969" stroke="#111D36" stroke-width="0.9847" stroke-miterlimit="10" stroke-linecap="round" stroke-linejoin="round"/>
</g>
<defs>
<clipPath id="clip0">
<rect width="254" height="159" fill="white"/>
</clipPath>
</defs>
</svg>
