<svg width="385" height="240" viewBox="0 0 385 240" fill="none" xmlns="http://www.w3.org/2000/svg">
<g clip-path="url(#clip0)">
<path d="M318.373 158.455C318.373 85.4878 259.408 26.3326 186.676 26.3326C113.943 26.3326 54.9785 85.4878 54.9785 158.455C54.9785 189.089 65.3715 217.284 82.8135 239.692H290.538C307.98 217.284 318.373 189.089 318.373 158.455Z" fill="#E6F5FA"/>
<path d="M366.962 186.406H332.935C331.692 186.406 330.688 185.399 330.688 184.151C330.688 182.904 331.692 181.897 332.935 181.897H366.962C368.205 181.897 369.209 182.904 369.209 184.151C369.215 185.399 368.205 186.406 366.962 186.406Z" fill="#E6F5FA"/>
<path d="M39.6059 162.703H2.24762C1.00439 162.703 0 161.695 0 160.448C0 159.201 1.00439 158.193 2.24762 158.193H39.6059C40.8491 158.193 41.8535 159.201 41.8535 160.448C41.8597 161.695 40.8491 162.703 39.6059 162.703Z" fill="#E6F5FA"/>
<path d="M374.244 214.038H370.68C369.743 214.038 368.983 213.276 368.983 212.336V208.976C368.983 208.036 369.743 207.274 370.68 207.274H374.244C375.181 207.274 375.941 208.036 375.941 208.976V212.336C375.941 213.276 375.181 214.038 374.244 214.038Z" fill="#90D3ED"/>
<path d="M30.1072 197.098H25.3853C24.1421 197.098 23.1377 196.09 23.1377 194.843V190.395C23.1377 189.148 24.1421 188.14 25.3853 188.14H30.1072C31.3504 188.14 32.3548 189.148 32.3548 190.395V194.843C32.3548 196.09 31.3504 197.098 30.1072 197.098Z" fill="#90D3ED"/>
<path d="M254.9 10.4449H271.074C271.901 10.4449 272.575 11.1269 272.575 11.9687V19.9253C272.575 20.767 271.901 21.449 271.074 21.449H262.733L257.772 25.713V21.6763L254.869 21.5964C254.055 21.578 253.399 20.9022 253.399 20.0727V11.9687C253.399 11.1269 254.073 10.4449 254.9 10.4449Z" stroke="white" stroke-width="1.2926" stroke-miterlimit="10" stroke-linecap="round" stroke-linejoin="round"/>
<path d="M362.025 84.1308C362.025 86.8833 359.833 89.1136 357.126 89.1136C354.419 89.1136 352.227 86.8833 352.227 84.1308C352.227 81.3782 354.419 79.1479 357.126 79.1479C359.833 79.1479 362.025 81.3782 362.025 84.1308Z" stroke="white" stroke-width="1.2572" stroke-miterlimit="10"/>
<path d="M10.3253 125.676C10.3253 128.428 8.13276 130.658 5.42582 130.658C2.71887 130.658 0.526367 128.428 0.526367 125.676C0.526367 122.923 2.71887 120.693 5.42582 120.693C8.13276 120.693 10.3253 122.923 10.3253 125.676Z" stroke="white" stroke-width="1.2572" stroke-miterlimit="10"/>
<path d="M143.633 18.0267C143.817 18.2479 144.178 18.1127 144.178 17.824L144.16 11.8335V2.14428C144.16 0.958476 143.205 0 142.023 0H116.007C114.825 0 113.869 0.958476 113.869 2.14428V12.6629C113.869 13.8488 114.825 14.8072 116.007 14.8072H140.883L143.633 18.0267Z" fill="#0083C8"/>
<path d="M124.115 7.48809C124.115 8.20695 123.539 8.79678 122.816 8.79678C122.1 8.79678 121.512 8.21924 121.512 7.49424C121.512 6.77538 122.087 6.18555 122.81 6.18555C123.527 6.18555 124.115 6.76309 124.115 7.48809Z" fill="white"/>
<path d="M129.688 7.47027C129.688 8.18913 129.112 8.77896 128.389 8.77896C127.673 8.77896 127.085 8.20142 127.085 7.47641C127.085 6.75756 127.661 6.16772 128.383 6.16772C129.106 6.16772 129.688 6.75141 129.688 7.47027Z" fill="white"/>
<path d="M135.267 7.4522C135.267 8.17106 134.691 8.76089 133.969 8.76089C133.252 8.76089 132.664 8.18335 132.664 7.45835C132.664 6.73949 133.24 6.14966 133.962 6.14966C134.685 6.14966 135.261 6.73335 135.267 7.4522Z" fill="white"/>
<path d="M345.681 42.8186H315.255C312.297 42.8186 309.902 40.4163 309.902 37.4487V9.07532C309.902 6.82658 311.721 5.00793 313.957 5.00793H345.674C347.916 5.00793 349.729 6.83273 349.729 9.07532V38.7512C349.735 40.9938 347.922 42.8186 345.681 42.8186Z" fill="#0083C8"/>
<path d="M338.919 27.0033L336.555 24.6317C336.133 24.1648 335.582 23.9129 335.037 23.9129C334.485 23.9129 333.94 24.1648 333.518 24.5887L332.164 25.9466C332.079 25.9035 331.993 25.8605 331.913 25.8175C331.742 25.7315 331.619 25.6885 331.491 25.6086C330.223 24.8038 329.084 23.747 327.987 22.3891C327.479 21.7563 327.099 21.1603 326.891 20.6504C327.228 20.3554 327.522 20.0175 327.822 19.7165C327.951 19.5874 328.073 19.4646 328.202 19.3355C328.667 18.8686 328.918 18.3218 328.918 17.7688C328.918 17.2158 328.667 16.669 328.202 16.202L327.02 15.0162C326.891 14.8872 326.769 14.7643 326.64 14.5923C326.389 14.3404 326.089 14.0393 325.838 13.7874C325.415 13.3635 324.864 13.1116 324.319 13.1116C323.768 13.1116 323.266 13.3205 322.8 13.7874L321.324 15.2681C320.773 15.8211 320.436 16.54 320.35 17.3448C320.265 18.6167 320.602 19.8025 320.902 20.5643C321.575 22.512 322.635 24.2508 324.197 26.1124C326.095 28.355 328.337 30.1368 330.952 31.4086C331.925 31.8756 333.273 32.4224 334.749 32.5514C334.834 32.5514 334.92 32.5514 335.043 32.5514C336.053 32.5514 336.898 32.1705 337.578 31.4516C337.578 31.4516 337.578 31.4516 337.621 31.4086C337.829 31.1567 338.087 30.8987 338.38 30.6468C338.552 30.4747 338.76 30.2658 338.932 30.0938C339.801 29.1599 339.801 27.8942 338.919 27.0033ZM337.946 29.2029C337.774 29.375 337.609 29.5408 337.437 29.7129C337.143 29.9648 336.886 30.2658 336.592 30.5608C336.17 30.9847 335.704 31.1936 335.073 31.1936C334.988 31.1936 334.945 31.1936 334.865 31.1936C333.597 31.1076 332.415 30.5976 331.57 30.1798C329.163 28.994 327.05 27.3413 325.281 25.2216C323.847 23.4828 322.874 21.8362 322.2 20.0974C321.777 19.0836 321.612 18.2787 321.692 17.4739C321.735 17.0069 321.9 16.583 322.286 16.2451L323.719 14.8073C323.847 14.6783 324.056 14.5124 324.307 14.5124C324.558 14.5124 324.729 14.6414 324.901 14.8073C325.152 15.0592 325.409 15.3173 325.66 15.5692C325.789 15.6982 325.911 15.8641 326.083 15.9931L327.265 17.179C327.393 17.308 327.559 17.5599 327.559 17.7749C327.559 18.0268 327.387 18.2419 327.265 18.3709C327.136 18.4999 327.014 18.6228 326.885 18.7518C326.505 19.1328 326.169 19.4707 325.832 19.8086C325.832 19.8086 325.832 19.8086 325.789 19.8516C325.366 20.2756 325.452 20.6565 325.538 20.9084V20.9514C325.832 21.7133 326.297 22.3891 326.928 23.237C328.11 24.7177 329.378 25.8605 330.768 26.7514C330.939 26.8805 331.148 26.9603 331.319 27.0463C331.491 27.1324 331.613 27.1754 331.742 27.2552L331.785 27.2983C332.207 27.5072 332.63 27.4273 332.967 27.0894L334.443 25.6086C334.571 25.4796 334.779 25.3137 335.037 25.3137C335.245 25.3137 335.459 25.4857 335.588 25.6086L337.952 27.9802C338.325 28.355 338.325 28.779 337.946 29.2029Z" fill="white"/>
<path d="M52.173 72.1386H18.0728C14.7596 72.1386 12.0771 69.4475 12.0771 66.1236V34.3218C12.0771 31.8028 14.1104 29.7629 16.6214 29.7629H52.173C54.684 29.7629 56.7172 31.8028 56.7172 34.3218V67.5797C56.7172 70.0988 54.684 72.1386 52.173 72.1386Z" fill="#FFCC05"/>
<path d="M25.8995 42.1866C21.2327 46.8684 21.2327 54.5547 25.8995 59.2365C30.5662 63.9182 38.2277 63.9182 42.8944 59.2365C47.5611 54.5547 47.5611 46.8684 42.8944 42.1866C38.2277 37.5048 30.5662 37.5048 25.8995 42.1866ZM42.8638 43.9193H39.0361C38.6503 42.715 38.1603 41.5046 37.5479 40.3004C39.6669 40.9455 41.5103 42.2235 42.8638 43.9193ZM29.9844 50.0019C29.9844 48.4413 30.1681 46.8869 30.5539 45.3263H38.2399C38.6258 46.8869 38.8095 48.4413 38.8095 50.0019H29.9844ZM38.7605 51.415C38.6564 52.9756 38.3747 54.5301 37.9337 56.0907H30.854C30.4131 54.5301 30.1375 52.9756 30.0272 51.415H38.7605ZM34.3939 39.8335C34.9696 39.8335 35.5391 39.8765 36.0903 39.9686C36.8252 41.2896 37.4009 42.6044 37.8296 43.9254H30.952C31.3807 42.6044 31.9564 41.2896 32.6974 39.9686C33.2486 39.8765 33.8182 39.8335 34.3939 39.8335ZM31.246 40.3004C30.6336 41.5046 30.1436 42.715 29.7578 43.9193H25.9301C27.2774 42.2235 29.1208 40.9455 31.246 40.3004ZM24.9686 45.3324H29.3536C28.9677 46.893 28.7656 48.4474 28.7411 50.008H23.5783C23.6825 48.3123 24.1785 46.7271 24.9686 45.3324ZM24.9686 56.0907C24.1785 54.696 23.6825 53.1108 23.5722 51.415H28.7595C28.833 52.9756 29.0841 54.5301 29.4883 56.0907H24.9686ZM25.924 57.4977H29.9109C30.309 58.7204 30.805 59.943 31.393 61.1596C29.2066 60.5329 27.3081 59.2303 25.924 57.4977ZM34.3939 61.5835C33.9101 61.5835 33.4385 61.5528 32.973 61.4913C32.3116 60.1581 31.7482 58.8309 31.295 57.4977H37.4989C37.0457 58.8309 36.4823 60.1581 35.8208 61.4913C35.3493 61.5528 34.8777 61.5835 34.3939 61.5835ZM37.4009 61.1596C37.9888 59.9369 38.4849 58.7142 38.883 57.4977H42.8699C41.4797 59.2303 39.5812 60.5329 37.4009 61.1596ZM43.8192 56.0907H39.2933C39.7037 54.5301 39.9486 52.9756 40.0221 51.415H45.2094C45.1053 53.1047 44.6092 54.696 43.8192 56.0907ZM45.2094 50.0019H40.0466C40.016 48.4413 39.8139 46.8869 39.4342 45.3263H43.8192C44.6092 46.7271 45.1053 48.3123 45.2094 50.0019Z" fill="white"/>
<path d="M380.037 157.595H347.548C344.394 157.595 341.834 155.027 341.834 151.863V121.56C341.834 119.158 343.775 117.216 346.164 117.216H380.037C382.432 117.216 384.367 119.164 384.367 121.56V153.251C384.367 155.654 382.426 157.595 380.037 157.595Z" fill="#6FC7BF"/>
<path d="M368.083 134.106C368.083 131.242 365.768 128.926 362.921 128.926C360.067 128.926 357.758 131.249 357.758 134.106C357.758 136.969 360.073 139.285 362.921 139.285C365.768 139.285 368.077 136.963 368.083 134.106ZM359.044 134.106C359.044 131.961 360.777 130.216 362.921 130.216C365.058 130.216 366.797 131.955 366.797 134.106C366.797 136.25 365.064 137.995 362.921 137.995C360.777 137.989 359.044 136.25 359.044 134.106Z" fill="white"/>
<path d="M362.394 149.386C362.602 149.675 363.006 149.737 363.294 149.528C363.349 149.491 363.392 149.442 363.435 149.386C363.49 149.313 363.735 148.975 364.109 148.446L367.918 142.53C369.688 139.501 371.305 136.164 371.305 134.106C371.305 129.455 367.544 125.682 362.908 125.682C358.272 125.682 354.512 129.455 354.512 134.106C354.512 136.109 356.037 139.31 357.752 142.265L361.72 148.446C362.1 148.975 362.345 149.313 362.394 149.386ZM362.914 126.979C366.834 126.979 370.018 130.168 370.018 134.106C370.018 137.203 365.297 144.526 362.914 147.893C360.532 144.526 355.81 137.203 355.81 134.106C355.81 130.168 358.995 126.979 362.914 126.979Z" fill="white"/>
<path d="M63.2271 123.865L60.6182 130.15C60.6182 130.15 75.635 140.939 88.0612 147.139C91.9808 149.092 96.5311 145.879 96.2923 141.498C96.2923 141.455 96.2862 141.406 96.2862 141.363C96.1514 138.985 94.5958 136.927 92.3482 136.165C79.6403 131.84 77.1599 130.12 63.2271 123.865Z" fill="#D97F48"/>
<path d="M62.6094 130.714C62.6094 130.714 49.6197 136.459 44.8428 128.121L64.5386 123.218L62.6094 130.714Z" fill="#D97F48"/>
<path d="M103.097 101.487C96.8874 112.159 89.3973 127.433 85.2818 139.07C84.2223 142.075 85.3124 145.436 88.2031 146.757C88.2399 146.775 88.2705 146.787 88.3072 146.806C91.1428 148.114 94.4928 147.045 96.0055 144.311C105.394 127.317 113.754 114.076 113.754 114.076L103.097 101.487Z" fill="#D97F48"/>
<path d="M103.349 98.5452C103.349 98.5452 94.0153 100.536 86.2129 123.65L103.777 134.107L110.257 121.205L103.349 98.5452Z" fill="#6FC7BF"/>
<path d="M94.7129 128.289H74.4414V125.032H94.7129C95.607 125.032 96.3358 125.763 96.3358 126.66C96.3358 127.557 95.6132 128.289 94.7129 128.289Z" fill="#08101C"/>
<path d="M82.5008 128.278H36.3113C35.2334 128.278 34.2719 127.572 33.9534 126.539L25.7713 99.0876C25.4161 97.951 26.2613 96.7959 27.4494 96.7959H71.2504C72.3283 96.7959 73.2898 97.5025 73.6083 98.5347L82.5008 128.278Z" fill="#111D36"/>
<path d="M55.8474 111.448C56.1904 113.359 54.9288 115.184 53.0241 115.528C51.1195 115.872 49.3005 114.606 48.9576 112.696C48.6146 110.785 49.8762 108.96 51.7809 108.616C53.6855 108.272 55.5045 109.538 55.8474 111.448Z" fill="#E6F5FA"/>
<path d="M144.809 131.453C144.809 131.453 155.955 171.832 160.505 206.952L168.161 205.496C168.161 205.496 165.784 154.033 158.068 122.194L144.809 131.453Z" fill="#D97F48"/>
<path d="M168.1 203.739C168.1 203.739 179.62 220.801 165.797 228.469C164.885 228.973 163.739 228.77 163.066 227.971L162.974 227.867C162.233 226.988 162.312 225.704 163.121 224.881C165.087 222.884 167.726 218.743 163.519 213.342C163.519 213.342 161.308 213.907 161.681 218.307C161.779 219.437 160.836 220.396 159.709 220.285C158.938 220.211 158.307 219.658 158.123 218.909C157.401 216.009 156.2 208.814 160.824 204.949L168.1 203.739Z" fill="#D97F48"/>
<path d="M146.26 98.5453C146.26 98.5453 153.389 100.628 160.996 124.793L143.431 135.25L139.358 121.205L146.26 98.5453Z" fill="#6FC7BF"/>
<path d="M145.183 97.8952L131.948 92.6113L118.346 92.7957L104.695 97.8154C102.135 98.7554 100.696 101.49 101.369 104.144L111.395 143.816H138.25L147.51 102.313C147.92 100.463 146.934 98.5895 145.183 97.8952Z" fill="#6FC7BF"/>
<path d="M138.251 143.811H111.396V148.124H138.251V143.811Z" fill="#111D36"/>
<path d="M107.384 127.934L102.772 109.698" stroke="#51A99F" stroke-width="1.3684" stroke-miterlimit="10"/>
<path d="M141.582 128.88L145.863 109.698" stroke="#51A99F" stroke-width="1.3684" stroke-miterlimit="10"/>
<path d="M138.25 148.125H111.395C111.395 148.125 98.3809 151.431 89.6721 212.583C88.3432 221.903 87.1979 230.99 86.2119 239.696H111.573L122.78 183.257L125.23 183.902L129.364 239.69H153.194L153.69 209.553C153.69 209.56 151.546 160.505 138.25 148.125Z" fill="#006AB8"/>
<path d="M125.23 183.908L116.883 180.639" stroke="#005A94" stroke-width="1.3684" stroke-miterlimit="10"/>
<path d="M147.229 69.4738C146.04 64.9517 145.606 65.7627 141.613 56.7617C139.224 51.3856 137.375 49.229 136.278 48.3566C136.278 48.3566 132.242 43.9943 125.016 43.9943C118.12 43.9943 114.127 48.1354 114.127 48.1354C113.079 48.8358 111.114 50.8633 108.492 56.7555C104.493 65.7504 104.064 64.9394 102.876 69.4676C101.688 73.9897 103.201 82.3333 112.492 83.9615C112.492 83.9615 111.303 82.7695 110.869 80.8157C110.869 80.8157 114.758 86.1242 120.049 85.7986H130.05C135.341 86.1242 139.23 80.8157 139.23 80.8157C138.795 82.7695 137.607 83.9615 137.607 83.9615C146.904 82.3395 148.417 73.9958 147.229 69.4738Z" fill="#111D36"/>
<path d="M137.43 94.8L131.954 92.6127L130.301 78.1557C130.301 78.1557 128.592 79.9006 126.326 80.3246C124.06 80.7485 121.868 79.4152 121.837 79.403C121.806 79.3845 119.988 77.8669 119.988 77.8669L118.346 92.7971L112.375 94.9905C112.375 94.9905 112.761 98.8797 125.383 98.8797C138.011 98.8797 137.43 94.8 137.43 94.8Z" fill="#D97F48"/>
<path d="M118.953 78.3767C118.953 78.3767 122.419 85.0922 126.547 84.1337C130.859 83.1322 130.84 77.449 130.84 77.449L118.953 78.3767Z" fill="#111D36"/>
<path d="M139.897 59.0792C139.897 67.3061 133.516 73.9724 125.646 73.9724C117.776 73.9724 111.395 67.3061 111.395 59.0792C111.395 50.8523 117.776 45.255 125.646 45.255C133.516 45.255 139.897 50.8523 139.897 59.0792Z" fill="#111D36"/>
<path d="M137.424 59.8382C137.424 64.9685 136.713 69.3922 136.003 72.5318C135.305 75.6039 133.351 77.7543 130.589 79.4869L130.087 79.8003C127.159 81.6312 123.387 81.6742 120.417 79.9109C117.422 78.1291 115.327 75.7882 114.678 72.4888C113.502 66.4861 113.374 59.8382 113.374 59.8382C113.374 59.8382 112.259 46.8926 125.224 47.1445C138.195 47.3964 137.424 59.8382 137.424 59.8382Z" fill="#D97F48"/>
<path d="M114.789 71.9984C112.504 73.9768 107.69 66.137 109.907 64.0234C112.118 61.9098 113.686 65.3505 113.686 65.3505L114.133 67.8266L114.801 71.1628L114.972 71.9124L114.789 71.9984Z" fill="#D97F48"/>
<path d="M110.894 66.6662C110.894 66.6662 111.831 64.6387 114.005 68.2022" stroke="#111D36" stroke-width="1.0039" stroke-miterlimit="10" stroke-linecap="round" stroke-linejoin="round"/>
<path d="M135.996 72.0476C138.317 73.9891 142.99 66.0694 140.743 63.9927C138.495 61.916 136.988 65.3813 136.988 65.3813L136.584 67.8635L135.972 71.2059L135.812 71.9554L135.996 72.0476Z" fill="#D97F48"/>
<path d="M139.794 66.6469C139.794 66.6469 138.826 64.6317 136.707 68.2321" stroke="#111D36" stroke-width="1.0039" stroke-miterlimit="10" stroke-linecap="round" stroke-linejoin="round"/>
<path d="M113.539 63.8764C113.539 63.8764 118.726 56.8414 117.526 49.7205C117.526 49.7205 113.68 51.662 112.676 56.6817C111.671 61.6891 113.539 63.8764 113.539 63.8764Z" fill="#111D36"/>
<path d="M137.638 64.0113C137.638 64.0113 131.403 56.3619 132.604 49.2347C132.604 49.2347 136.78 51.6555 137.785 56.6691C138.783 61.6888 137.638 64.0113 137.638 64.0113Z" fill="#111D36"/>
<path d="M109.693 58.816H141.093C141.093 58.816 137.559 45.471 124.312 44.6784C111.065 43.8858 109.693 58.816 109.693 58.816Z" fill="#111D36"/>
<path d="M120.845 64.8727C120.845 65.5363 120.312 66.0708 119.65 66.0708C118.989 66.0708 118.456 65.5363 118.456 64.8727C118.456 64.2092 118.989 63.6746 119.65 63.6746C120.312 63.6685 120.845 64.2092 120.845 64.8727Z" fill="#111D36"/>
<path d="M131.917 64.8727C131.917 65.5363 131.384 66.0708 130.723 66.0708C130.061 66.0708 129.528 65.5363 129.528 64.8727C129.528 64.2092 130.061 63.6746 130.723 63.6746C131.378 63.6685 131.917 64.2092 131.917 64.8727Z" fill="#111D36"/>
<path d="M124.587 67.4829V69.0988C124.587 69.5043 124.948 69.8115 125.334 69.7316L126.191 69.5535" stroke="#111D36" stroke-width="0.9876" stroke-miterlimit="10" stroke-linecap="round" stroke-linejoin="round"/>
<path d="M123.202 61.1544L115.957 62.0269C115.957 62.0269 116.539 60.0977 119.497 59.7659C122.455 59.4341 123.202 61.1544 123.202 61.1544Z" fill="#111D36"/>
<path d="M127.379 61.1544L134.624 62.0269C134.624 62.0269 134.042 60.0977 131.084 59.7659C128.12 59.4341 127.379 61.1544 127.379 61.1544Z" fill="#111D36"/>
<path d="M118.475 69.7944C121.204 69.7944 123.417 67.5745 123.417 64.8361C123.417 62.0977 121.204 59.8778 118.475 59.8778C115.745 59.8778 113.532 62.0977 113.532 64.8361C113.532 67.5745 115.745 69.7944 118.475 69.7944Z" stroke="#6FC7BF" stroke-width="1.083" stroke-miterlimit="10"/>
<path d="M132.475 69.7944C135.204 69.7944 137.417 67.5745 137.417 64.8361C137.417 62.0977 135.204 59.8778 132.475 59.8778C129.745 59.8778 127.532 62.0977 127.532 64.8361C127.532 67.5745 129.745 69.7944 132.475 69.7944Z" stroke="#6FC7BF" stroke-width="1.083" stroke-miterlimit="10"/>
<path d="M123.417 65.2478C123.417 65.2478 125.162 62.5567 127.533 65.2478" stroke="#6FC7BF" stroke-width="1.083" stroke-miterlimit="10"/>
<path d="M121.53 72.0051H129.418C129.418 72.0051 125.719 76.4289 121.53 72.0051Z" fill="white"/>
<path d="M292.786 111.434L310.792 127.071C314.197 130.026 314.619 135.175 311.735 138.652C308.838 142.142 303.688 142.652 300.172 139.789L282.332 125.283L292.786 111.434Z" fill="#F7A771"/>
<path d="M269.844 96.1252C282.938 98.2511 297.312 111.436 297.312 111.436L285.424 128.498L269.771 115.639L269.844 96.1252Z" fill="#0083C8"/>
<path d="M311.802 94.2889L298.855 131.393C297.41 135.497 299.7 139.97 303.858 141.193C308.243 142.477 312.751 139.595 313.443 135.061L320.082 95.6591L311.802 94.2889Z" fill="#F7A771"/>
<path d="M311.802 94.2878C311.802 94.2878 309.26 91.0007 308.752 81.5941C308.721 81.0043 309.058 80.4575 309.585 80.2056C310.363 79.8369 311.287 80.224 311.575 81.0412L312.861 84.9672L320.082 95.6641L311.802 94.2878Z" fill="#F7A771"/>
<path d="M312.861 84.9676L313.174 71.9175C313.198 71.3646 313.566 70.5843 314.276 70.5535C315.048 70.4675 315.63 71.0082 315.648 71.6165L315.942 80.8695L317.657 70.0497C317.742 69.5213 318.22 69.1588 318.747 69.2203C319.267 69.2817 319.647 69.7302 319.623 70.2586L319.065 82L321.411 72.3538C321.539 71.8315 322.017 71.4752 322.556 71.512C323.187 71.555 323.652 72.1141 323.585 72.747L322.378 83.3332L327.039 76.7468C327.437 76.2675 328.166 76.2491 328.595 76.7038C328.913 77.0417 328.968 77.5578 328.729 77.9572L324.81 85.9322C324.81 85.9322 324.565 90.8966 320.082 95.6767L313.149 91.5417L312.861 84.9676Z" fill="#F7A771"/>
<path d="M312.861 84.9677C312.861 84.9677 317.767 84.9861 317.859 89.4037" stroke="#111D36" stroke-width="1.0166" stroke-miterlimit="10" stroke-linecap="round" stroke-linejoin="round"/>
<path d="M268.515 95.1044L278.308 98.8277C280.868 99.7678 281.523 102.625 280.849 105.273L276.323 161.491H237.685L234.709 103.442C234.298 101.599 235.284 99.7248 237.03 99.0305L250.265 93.7466L268.515 95.1044Z" fill="#0083C8"/>
<path d="M279.386 123.531L280.286 112.306" stroke="#00678D" stroke-width="1.4581" stroke-miterlimit="10"/>
<path d="M235.615 133.803C235.615 133.803 225.118 174.735 222.49 210.051L214.768 209.019C214.768 209.019 215.901 157.501 221.872 125.287L235.615 133.803Z" fill="#F7A771"/>
<path d="M235.964 99.6841C235.964 99.6841 227.261 101.767 219.661 125.932L238.8 136.389L242.872 122.343L235.964 99.6841Z" fill="#0083C8"/>
<path d="M264.093 93.7721L263.334 79.8435C263.334 79.8435 260.768 81.6375 258.434 82.0738C256.101 82.51 253.847 81.1399 253.816 81.1214C253.786 81.103 251.103 79.5363 251.103 79.5363L250.289 93.7414H250.264L246.186 95.3695C246.186 95.3695 248.752 99.7503 257.301 99.3018C265.851 98.8594 268.515 95.0931 268.515 95.0931L264.093 93.7721Z" fill="#F7A771"/>
<path d="M250.559 80.0699C250.559 80.0699 254.337 86.982 258.833 85.9928C263.53 84.9606 263.701 78.9332 263.701 78.9332L250.559 80.0699Z" fill="#111D36"/>
<path d="M269.862 60.9854C269.862 66.2631 269.127 70.822 268.398 74.0538C267.681 77.218 265.667 79.4299 262.825 81.2117L262.304 81.5373C259.291 83.4235 255.402 83.4666 252.346 81.6479C249.266 79.817 247.104 77.4023 246.442 74.0047C245.236 67.8237 245.101 60.9854 245.101 60.9854C245.101 60.9854 243.95 47.6589 257.301 47.9169C270.658 48.1811 269.862 60.9854 269.862 60.9854Z" fill="#F7A771"/>
<path d="M246.559 73.5023C244.207 75.5421 239.253 67.4688 241.531 65.2938C243.809 63.1188 245.42 66.6578 245.42 66.6578L245.879 69.2076L246.565 72.6421L246.743 73.4102L246.559 73.5023Z" fill="#F7A771"/>
<path d="M242.554 68.017C242.554 68.017 243.515 65.928 245.757 69.596" stroke="#111D36" stroke-width="1.0334" stroke-miterlimit="10" stroke-linecap="round" stroke-linejoin="round"/>
<path d="M268.392 73.5523C270.78 75.5491 275.594 67.3959 273.279 65.2578C270.964 63.1197 269.415 66.6894 269.415 66.6894L268.998 69.2453L268.368 72.686L268.202 73.4602L268.392 73.5523Z" fill="#F7A771"/>
<path d="M272.299 67.9978C272.299 67.9978 271.301 65.9273 269.127 69.6321" stroke="#111D36" stroke-width="1.0334" stroke-miterlimit="10" stroke-linecap="round" stroke-linejoin="round"/>
<path d="M252.8 65.3557C252.8 66.0377 252.249 66.5907 251.569 66.5907C250.889 66.5907 250.338 66.0377 250.338 65.3557C250.338 64.6737 250.889 64.1207 251.569 64.1207C252.249 64.1207 252.8 64.6737 252.8 65.3557Z" fill="#111D36"/>
<path d="M264.191 65.3557C264.191 66.0377 263.64 66.5907 262.96 66.5907C262.281 66.5907 261.729 66.0377 261.729 65.3557C261.729 64.6737 262.281 64.1207 262.96 64.1207C263.64 64.1207 264.191 64.6737 264.191 65.3557Z" fill="#111D36"/>
<path d="M256.646 67.2316V69.7076C256.646 70.1254 257.019 70.4449 257.417 70.3589L258.299 70.1746" stroke="#111D36" stroke-width="1.0166" stroke-miterlimit="10" stroke-linecap="round" stroke-linejoin="round"/>
<path d="M259.169 60.8219L266.273 62.6651C266.273 62.6651 265.949 60.6683 263.046 59.9371C260.143 59.2121 259.169 60.8219 259.169 60.8219Z" fill="#111D36"/>
<path d="M254.76 60.8219L247.655 62.6651C247.655 62.6651 247.98 60.6683 250.883 59.9371C253.792 59.2121 254.76 60.8219 254.76 60.8219Z" fill="#111D36"/>
<path d="M256.677 73.9932C256.94 73.8212 257.13 73.557 257.209 73.2559C257.375 72.6415 257.448 71.6585 256.266 71.5479C254.533 71.382 251.636 74.7244 249.095 72.8136C249.101 72.8136 251.526 77.3295 256.677 73.9932Z" fill="#111D36"/>
<path d="M257.638 73.9932C257.381 73.8212 257.191 73.557 257.106 73.2559C256.94 72.6415 256.867 71.6585 258.043 71.5479C259.77 71.382 262.654 74.7244 265.183 72.8136C265.183 72.8136 262.77 77.3295 257.638 73.9932Z" fill="#111D36"/>
<path d="M269.549 45.1972C265.183 42.1006 256.878 44.9822 252.279 46.9913C252.414 45.529 251.513 44.6012 251.513 44.6012C243.619 47.0281 244.611 51.544 245.162 52.9817C243.613 54.6161 241.488 58.6896 245.524 67.236C245.524 67.236 247.777 59.9368 246.816 54.1307C250.558 55.8326 260.718 59.9 267.173 57.3072C267.394 62.29 269.323 67.2299 269.323 67.2299C271.766 60.9629 271.423 57.1904 270.45 54.9724C271.564 53.6392 274.847 48.9512 269.549 45.1972Z" fill="#111D36"/>
<path d="M268.998 239.694H293.826C284.658 200.378 277.462 173.203 277.462 173.203L276.329 161.486H257.479L258.33 202.639L268.998 239.694Z" fill="#006AB8"/>
<path d="M258.324 202.647L257.473 161.494H237.685C222.877 183.73 231.261 223.236 231.261 223.236L233.515 239.696H258.324V202.647Z" fill="#006AB8"/>
<path d="M258.324 202.646V190.985L263.934 182.273" stroke="#005A94" stroke-width="1.3684" stroke-miterlimit="10"/>
<path d="M182.113 226.024C182.113 226.024 188.782 192.809 192.708 183.753C193.063 182.929 194.251 183.04 194.484 183.9C195.427 187.353 196.677 197.522 196.119 227.456L196.132 239.688H219.545L222.993 210.24C222.993 210.24 228.211 169.197 211.222 145.887H177.171C177.171 145.887 159.808 171.225 157.518 206.222C157.01 214.006 156.134 225.901 155.074 239.682H179.198L182.113 226.024Z" fill="#0083C8"/>
<path d="M186.872 180.638L194.846 183.907" stroke="#00678D" stroke-width="1.4581" stroke-miterlimit="10"/>
<path d="M186.78 81.1159L170.403 85.6379L177.171 141.721H211.534L218.314 85.3922L200.161 80.8701L186.78 81.1159Z" fill="#FFCC05"/>
<path d="M211.222 141.721H177.171V145.899H211.222V141.721Z" fill="#111D36"/>
<path d="M202.605 121.508C202.605 121.508 216.635 115.861 224.156 119.8L224.866 128.862L201.949 131.75L202.605 121.508Z" fill="#F7A771"/>
<path d="M232.595 139.787C232.595 139.787 209.812 142.533 191.348 132.813L206.989 128.064L226.311 124.802L232.595 139.787Z" fill="#FFCC05"/>
<path d="M217.205 85.2207C217.205 85.2207 226.054 85.786 231.695 103.364C237.691 122.042 238.125 136.745 233.961 139.215C229.802 141.679 224.64 136.235 219.348 121.194C214.057 106.154 211.613 98.0557 211.613 98.0557L217.205 85.2207Z" fill="#FFCC05"/>
<path d="M215.386 109.699L216.751 98.3636" stroke="#EAB600" stroke-width="1.4581" stroke-miterlimit="10"/>
<path d="M170.403 85.6375C170.403 85.6375 161.554 86.2027 155.913 103.781C149.917 122.459 149.482 137.162 153.647 139.632C157.805 142.095 163.593 136.652 168.884 121.611C174.176 106.57 175.995 98.4724 175.995 98.4724L170.403 85.6375Z" fill="#FFCC05"/>
<path d="M173.177 108.608L171.946 98.3601" stroke="#EAB600" stroke-width="1.4581" stroke-miterlimit="10"/>
<path d="M177.741 121.582C177.741 121.582 171.384 114.977 160.887 111.537C160.427 111.389 159.919 111.494 159.558 111.813C158.823 112.464 158.994 113.662 159.882 114.08L166.209 117.048L157.904 117.601C156.538 117.693 155.479 118.916 155.675 120.273C155.846 121.471 156.655 123.038 158.957 124.857L177.741 121.582Z" fill="#F7A771"/>
<path d="M158.957 124.855C158.957 124.855 189.046 118.901 203.322 118.957L209.017 133.082C209.017 133.082 164.481 144.282 153.647 139.625L158.957 124.855Z" fill="#FFCC05"/>
<path d="M177.74 121.58C177.74 121.58 196.652 118.619 203.321 118.963L204.124 120.96" stroke="#EAB600" stroke-width="1.4581" stroke-miterlimit="10"/>
<path d="M176.901 139.472L209.017 133.088L204.124 120.953" stroke="#EAB600" stroke-width="1.4581" stroke-miterlimit="10"/>
<path d="M178.548 56.8877L171.83 65.686C171.83 65.686 195.997 84.3087 215.87 64.3712L208.778 55.6896L178.548 56.8877Z" fill="#111D36"/>
<path d="M200.124 80.439L198.428 66.9281C198.428 66.9281 196.676 68.7222 194.349 69.1523C192.022 69.5885 189.774 68.2245 189.743 68.2061C189.713 68.1877 187.845 66.6271 187.845 66.6271L186.822 80.6233C186.822 80.7892 186.804 80.9551 186.779 81.1148L194.141 97.1632L200.161 80.8691C200.136 80.7277 200.124 80.5803 200.124 80.439Z" fill="#F7A771"/>
<path d="M186.779 67.1545C186.779 67.1545 190.338 74.6933 194.576 73.7041C198.997 72.6719 198.979 66.196 198.979 66.196L186.779 67.1545Z" fill="#111D36"/>
<path d="M208.276 47.3476C208.276 55.7895 201.729 62.634 193.651 62.634C185.573 62.634 179.026 55.7895 179.026 47.3476C179.026 38.9056 185.573 33.1609 193.651 33.1609C201.729 33.1609 208.276 38.9056 208.276 47.3476Z" fill="#111D36"/>
<path d="M205.735 48.134C205.735 53.3995 205.006 57.94 204.277 61.1595C203.567 64.3175 201.558 66.5232 198.722 68.2989L198.208 68.6245C195.207 70.5046 191.33 70.5476 188.28 68.7351C185.206 66.9103 183.056 64.5018 182.395 61.1165C181.188 54.9539 181.06 48.134 181.06 48.134C181.06 48.134 179.915 34.8505 193.223 35.1086C206.531 35.3666 205.735 48.134 205.735 48.134Z" fill="#F7A771"/>
<path d="M182.505 60.613C180.16 62.6467 175.223 54.598 177.496 52.4291C179.768 50.2603 181.372 53.787 181.372 53.787L181.832 56.3306L182.517 59.7529L182.695 60.5209L182.505 60.613Z" fill="#F7A771"/>
<path d="M178.513 55.1382C178.513 55.1382 179.474 53.0553 181.703 56.7111" stroke="#111D36" stroke-width="1.0303" stroke-miterlimit="10" stroke-linecap="round" stroke-linejoin="round"/>
<path d="M204.271 60.6568C206.653 62.6475 211.448 54.5188 209.146 52.3869C206.837 50.2549 205.293 53.8123 205.293 53.8123L204.877 56.3621L204.252 59.7966L204.087 60.5646L204.271 60.6568Z" fill="#F7A771"/>
<path d="M208.172 55.1226C208.172 55.1226 207.174 53.0582 205.006 56.7508" stroke="#111D36" stroke-width="1.0303" stroke-miterlimit="10" stroke-linecap="round" stroke-linejoin="round"/>
<path d="M206.108 44.8816C205.312 40.8941 202.568 38.5164 201.368 37.6378C199.874 36.157 197.902 34.9897 195.28 34.6517C195.28 34.6517 186.97 32.7716 183.528 39.0755C182.34 40.1937 180.907 42.0615 180.343 44.8755C179.314 50.0242 181.225 52.2668 181.225 52.2668C181.225 52.2668 184.496 47.8308 185.316 42.3933C187.833 44.4823 192.935 47.0996 202.624 46.9645C204.136 50.1655 205.961 52.4081 205.961 52.4081C205.961 52.4081 207.137 50.0304 206.108 44.8816Z" fill="#111D36"/>
<path d="M188.72 53.2941C188.72 53.976 188.169 54.5229 187.495 54.5229C186.816 54.5229 186.271 53.9699 186.271 53.2941C186.271 52.6121 186.822 52.0652 187.495 52.0652C188.175 52.0591 188.72 52.6121 188.72 53.2941Z" fill="#111D36"/>
<path d="M200.087 53.2941C200.087 53.976 199.536 54.5229 198.863 54.5229C198.183 54.5229 197.638 53.9699 197.638 53.2941C197.638 52.6121 198.189 52.0652 198.863 52.0652C199.536 52.0591 200.087 52.6121 200.087 53.2941Z" fill="#111D36"/>
<path d="M192.267 55.9731V57.632C192.267 58.0498 192.64 58.3632 193.032 58.2833L193.914 58.099" stroke="#111D36" stroke-width="1.0135" stroke-miterlimit="10" stroke-linecap="round" stroke-linejoin="round"/>
<path d="M198.311 47.5994C198.311 47.5994 194.716 47.3045 194.68 48.7729C194.68 48.7729 194.68 49.7683 197.815 49.9649C200.951 50.1615 201.766 49.9342 202.053 49.0003C202.341 48.0602 199.996 47.6056 198.311 47.5994Z" fill="#111D36"/>
<path d="M187.563 47.5994C187.563 47.5994 191.158 47.3045 191.195 48.7729C191.195 48.7729 191.195 49.7683 188.059 49.9649C184.923 50.1615 184.109 49.9342 183.821 49.0003C183.533 48.0602 185.879 47.6056 187.563 47.5994Z" fill="#111D36"/>
<path d="M196.425 59.568C196.425 59.568 195.133 61.6447 191.808 61.061" stroke="#111D36" stroke-width="1.0135" stroke-miterlimit="10" stroke-linecap="round" stroke-linejoin="round"/>
<path d="M29.4033 239.695H344.977" stroke="#CADBFE" stroke-width="0.9847" stroke-miterlimit="10" stroke-linecap="round" stroke-linejoin="round"/>
</g>
<defs>
<clipPath id="clip0">
<rect width="384.368" height="240" fill="white"/>
</clipPath>
</defs>
</svg>
