<?xml version="1.0"?>
<svg width="289" height="358" xmlns="http://www.w3.org/2000/svg" xmlns:svg="http://www.w3.org/2000/svg">
 <g class="layer">
  <title>Layer 1</title>
  <path d="m281,262c0,21.54 -17.91,39 -40,39c-22.09,0 -40,-17.46 -40,-39c0,-21.54 17.91,-39 40,-39c22.09,0 40,17.46 40,39z" fill="#52A336" fill-opacity="0.29" id="svg_1"/>
  <path d="m281,262c0,21.54 -17.91,39 -40,39c-22.09,0 -40,-17.46 -40,-39c0,-21.54 17.91,-39 40,-39c22.09,0 40,17.46 40,39z" fill="#000000" fill-opacity="0" id="svg_2" stroke="#52a336" stroke-width="0"/>
  <path d="m227,84.5c0,43.91 -36.04,79.5 -80.5,79.5c-44.46,0 -80.5,-35.59 -80.5,-79.5c0,-43.91 36.04,-79.5 80.5,-79.5c44.46,0 80.5,35.59 80.5,79.5z" fill="#52A336" fill-opacity="0.29" id="svg_3"/>
  <path d="m131,263.5c0,32.86 -27.09,59.5 -60.5,59.5c-33.41,0 -60.5,-26.64 -60.5,-59.5c0,-32.86 27.09,-59.5 60.5,-59.5c33.41,0 60.5,26.64 60.5,59.5z" fill="#52A336" fill-opacity="0.29" id="svg_5"/>
  <path d="m131,263.5c0,32.86 -27.09,59.5 -60.5,59.5c-33.41,0 -60.5,-26.64 -60.5,-59.5c0,-32.86 27.09,-59.5 60.5,-59.5c33.41,0 60.5,26.64 60.5,59.5z" fill="#000000" fill-opacity="0" id="svg_6" stroke="#030D2D" stroke-width="0"/>
  <path d="m128.37,59.52l0,1.22l-6.16,0l0,-1.22l6.16,0zm-5.93,-4.89l0,11.37l-1.5,0l0,-11.37l1.5,0zm7.24,0l0,11.37l-1.5,0l0,-11.37l1.5,0zm2.08,7.24l0,-0.18c0,-0.61 0.09,-1.18 0.26,-1.7c0.18,-0.52 0.44,-0.98 0.77,-1.36c0.33,-0.4 0.74,-0.7 1.21,-0.91c0.47,-0.22 1,-0.33 1.59,-0.33c0.6,0 1.13,0.11 1.6,0.33c0.48,0.21 0.89,0.51 1.22,0.91c0.34,0.38 0.6,0.84 0.78,1.36c0.18,0.52 0.26,1.09 0.26,1.7l0,0.18c0,0.61 -0.08,1.17 -0.26,1.69c-0.18,0.52 -0.44,0.98 -0.78,1.37c-0.33,0.39 -0.73,0.69 -1.21,0.91c-0.47,0.21 -1,0.32 -1.59,0.32c-0.59,0 -1.13,-0.11 -1.6,-0.32c-0.48,-0.22 -0.88,-0.52 -1.22,-0.91c-0.33,-0.39 -0.59,-0.85 -0.77,-1.37c-0.17,-0.52 -0.26,-1.08 -0.26,-1.69zm1.44,-0.18l0,0.18c0,0.42 0.05,0.82 0.15,1.19c0.1,0.37 0.25,0.7 0.45,0.99c0.2,0.28 0.45,0.51 0.76,0.68c0.3,0.16 0.65,0.24 1.05,0.24c0.39,0 0.74,-0.08 1.04,-0.24c0.3,-0.17 0.55,-0.4 0.75,-0.68c0.2,-0.29 0.35,-0.62 0.44,-0.99c0.11,-0.37 0.16,-0.77 0.16,-1.19l0,-0.18c0,-0.42 -0.05,-0.81 -0.16,-1.18c-0.09,-0.38 -0.25,-0.71 -0.45,-0.99c-0.2,-0.3 -0.45,-0.53 -0.75,-0.69c-0.3,-0.17 -0.64,-0.25 -1.05,-0.25c-0.39,0 -0.74,0.08 -1.04,0.25c-0.3,0.16 -0.55,0.39 -0.75,0.69c-0.2,0.28 -0.35,0.61 -0.45,0.99c-0.1,0.37 -0.15,0.76 -0.15,1.18zm12.99,2.07c0,-0.21 -0.05,-0.4 -0.14,-0.58c-0.09,-0.18 -0.28,-0.35 -0.56,-0.49c-0.27,-0.15 -0.69,-0.28 -1.25,-0.39c-0.47,-0.1 -0.89,-0.22 -1.27,-0.35c-0.38,-0.14 -0.7,-0.3 -0.96,-0.5c-0.26,-0.19 -0.46,-0.42 -0.6,-0.68c-0.14,-0.26 -0.22,-0.56 -0.22,-0.91c0,-0.33 0.08,-0.65 0.22,-0.95c0.15,-0.29 0.37,-0.56 0.64,-0.78c0.27,-0.23 0.6,-0.41 0.99,-0.54c0.38,-0.13 0.81,-0.2 1.29,-0.2c0.67,0 1.25,0.12 1.73,0.36c0.48,0.24 0.85,0.56 1.1,0.96c0.26,0.4 0.39,0.84 0.39,1.32l-1.45,0c0,-0.23 -0.07,-0.46 -0.21,-0.68c-0.14,-0.22 -0.33,-0.41 -0.6,-0.55c-0.26,-0.15 -0.58,-0.22 -0.96,-0.22c-0.4,0 -0.73,0.06 -0.98,0.19c-0.24,0.12 -0.42,0.27 -0.54,0.46c-0.11,0.18 -0.16,0.38 -0.16,0.59c0,0.16 0.02,0.3 0.08,0.42c0.05,0.12 0.15,0.23 0.29,0.34c0.14,0.1 0.34,0.19 0.6,0.28c0.25,0.09 0.58,0.18 0.97,0.27c0.7,0.15 1.27,0.34 1.72,0.56c0.44,0.22 0.78,0.48 1,0.8c0.21,0.32 0.32,0.71 0.32,1.16c0,0.37 -0.07,0.71 -0.23,1.01c-0.15,0.31 -0.37,0.58 -0.67,0.8c-0.28,0.22 -0.63,0.39 -1.03,0.52c-0.39,0.12 -0.84,0.18 -1.33,0.18c-0.75,0 -1.38,-0.14 -1.89,-0.4c-0.52,-0.27 -0.91,-0.61 -1.17,-1.03c-0.27,-0.43 -0.4,-0.87 -0.4,-1.34l1.45,0c0.02,0.4 0.14,0.71 0.34,0.95c0.21,0.23 0.47,0.39 0.77,0.49c0.3,0.09 0.6,0.14 0.9,0.14c0.39,0 0.72,-0.05 0.99,-0.16c0.27,-0.1 0.48,-0.24 0.62,-0.43c0.14,-0.18 0.21,-0.39 0.21,-0.62zm6.88,-6.21l0,1.11l-4.57,0l0,-1.11l4.57,0zm-3.02,-2.06l1.44,0l0,8.42c0,0.28 0.05,0.5 0.14,0.64c0.08,0.15 0.2,0.25 0.34,0.29c0.14,0.05 0.29,0.07 0.45,0.07c0.12,0 0.25,-0.01 0.38,-0.03c0.13,-0.02 0.23,-0.04 0.3,-0.06l0.01,1.18c-0.11,0.04 -0.27,0.07 -0.45,0.1c-0.19,0.04 -0.41,0.06 -0.67,0.06c-0.35,0 -0.68,-0.07 -0.97,-0.21c-0.3,-0.15 -0.54,-0.38 -0.71,-0.71c-0.18,-0.33 -0.26,-0.78 -0.26,-1.34l0,-8.41zm6.29,2.06l0,8.45l-1.46,0l0,-8.45l1.46,0zm-1.57,-2.25c0,-0.23 0.07,-0.43 0.21,-0.59c0.15,-0.16 0.36,-0.24 0.65,-0.24c0.27,0 0.48,0.08 0.63,0.24c0.15,0.16 0.22,0.36 0.22,0.59c0,0.23 -0.07,0.42 -0.22,0.58c-0.15,0.16 -0.36,0.24 -0.63,0.24c-0.29,0 -0.5,-0.08 -0.65,-0.24c-0.14,-0.16 -0.21,-0.35 -0.21,-0.58zm5.33,4.05l0,6.65l-1.44,0l0,-8.45l1.36,0l0.08,1.8zm-0.34,2.1l-0.6,-0.02c0,-0.58 0.09,-1.11 0.25,-1.6c0.17,-0.5 0.4,-0.93 0.71,-1.29c0.3,-0.37 0.66,-0.65 1.07,-0.84c0.43,-0.21 0.89,-0.31 1.4,-0.31c0.42,0 0.79,0.06 1.13,0.17c0.33,0.11 0.62,0.29 0.85,0.53c0.24,0.25 0.42,0.57 0.55,0.96c0.12,0.38 0.19,0.85 0.19,1.41l0,5.54l-1.46,0l0,-5.55c0,-0.45 -0.06,-0.8 -0.19,-1.07c-0.13,-0.27 -0.32,-0.46 -0.57,-0.58c-0.25,-0.13 -0.56,-0.19 -0.93,-0.19c-0.35,0 -0.68,0.07 -0.98,0.23c-0.29,0.15 -0.55,0.36 -0.76,0.62c-0.21,0.27 -0.37,0.57 -0.49,0.92c-0.12,0.33 -0.17,0.69 -0.17,1.07zm13.22,-3.9l1.31,0l0,8.27c0,0.75 -0.15,1.38 -0.45,1.91c-0.31,0.52 -0.73,0.92 -1.27,1.19c-0.54,0.28 -1.16,0.42 -1.86,0.42c-0.29,0 -0.63,-0.05 -1.03,-0.14c-0.39,-0.09 -0.78,-0.25 -1.16,-0.47c-0.37,-0.21 -0.69,-0.5 -0.94,-0.86l0.76,-0.86c0.35,0.42 0.72,0.72 1.1,0.89c0.4,0.17 0.78,0.25 1.16,0.25c0.46,0 0.86,-0.09 1.19,-0.26c0.33,-0.17 0.59,-0.43 0.77,-0.76c0.19,-0.34 0.28,-0.75 0.28,-1.24l0,-6.48l0.14,-1.86zm-5.82,4.32l0,-0.17c0,-0.64 0.07,-1.23 0.22,-1.75c0.16,-0.54 0.38,-0.99 0.67,-1.37c0.29,-0.38 0.64,-0.67 1.05,-0.88c0.41,-0.21 0.88,-0.31 1.39,-0.31c0.53,0 1,0.09 1.39,0.28c0.4,0.18 0.74,0.45 1.02,0.81c0.28,0.35 0.5,0.77 0.66,1.26c0.16,0.5 0.28,1.06 0.34,1.68l0,0.72c-0.06,0.62 -0.17,1.18 -0.34,1.67c-0.16,0.5 -0.38,0.92 -0.66,1.27c-0.28,0.35 -0.62,0.62 -1.02,0.8c-0.4,0.19 -0.87,0.28 -1.4,0.28c-0.51,0 -0.97,-0.11 -1.38,-0.32c-0.41,-0.22 -0.75,-0.52 -1.04,-0.9c-0.3,-0.39 -0.52,-0.84 -0.68,-1.36c-0.15,-0.53 -0.22,-1.1 -0.22,-1.71zm1.44,-0.17l0,0.17c0,0.42 0.04,0.81 0.13,1.18c0.08,0.37 0.22,0.7 0.4,0.98c0.18,0.28 0.41,0.5 0.69,0.67c0.28,0.15 0.62,0.23 1.01,0.23c0.48,0 0.87,-0.1 1.19,-0.3c0.31,-0.21 0.56,-0.48 0.74,-0.81c0.18,-0.33 0.33,-0.69 0.43,-1.09l0,-1.88c-0.05,-0.28 -0.14,-0.56 -0.26,-0.83c-0.12,-0.27 -0.27,-0.51 -0.45,-0.72c-0.19,-0.21 -0.41,-0.38 -0.68,-0.5c-0.27,-0.13 -0.59,-0.19 -0.96,-0.19c-0.39,0 -0.73,0.08 -1.02,0.25c-0.28,0.16 -0.51,0.38 -0.69,0.67c-0.18,0.28 -0.32,0.61 -0.4,0.99c-0.09,0.37 -0.13,0.76 -0.13,1.18zm-62.15,17.93l1.46,0l3.73,9.27l3.72,-9.27l1.47,0l-4.63,11.37l-1.14,0l-4.61,-11.37zm-0.47,0l1.29,0l0.21,6.93l0,4.44l-1.5,0l0,-11.37zm10.03,0l1.29,0l0,11.37l-1.5,0l0,-4.44l0.21,-6.93zm8.7,9.92l0,-4.35c0,-0.33 -0.07,-0.62 -0.2,-0.86c-0.13,-0.25 -0.33,-0.45 -0.6,-0.58c-0.26,-0.14 -0.59,-0.21 -0.98,-0.21c-0.37,0 -0.68,0.07 -0.96,0.19c-0.27,0.13 -0.49,0.29 -0.64,0.49c-0.15,0.21 -0.23,0.43 -0.23,0.66l-1.44,0c0,-0.3 0.07,-0.6 0.23,-0.9c0.16,-0.29 0.38,-0.56 0.67,-0.8c0.3,-0.25 0.65,-0.44 1.07,-0.58c0.41,-0.15 0.87,-0.22 1.39,-0.22c0.61,0 1.15,0.1 1.62,0.31c0.47,0.21 0.84,0.53 1.11,0.95c0.27,0.42 0.41,0.94 0.41,1.57l0,3.94c0,0.28 0.02,0.58 0.07,0.89c0.05,0.32 0.12,0.6 0.22,0.83l0,0.12l-1.51,0c-0.07,-0.17 -0.13,-0.39 -0.17,-0.66c-0.04,-0.29 -0.06,-0.55 -0.06,-0.79zm0.25,-3.67l0.02,1.01l-1.46,0c-0.42,0 -0.78,0.03 -1.11,0.1c-0.32,0.06 -0.59,0.16 -0.81,0.29c-0.22,0.13 -0.38,0.3 -0.5,0.49c-0.11,0.2 -0.17,0.42 -0.17,0.68c0,0.27 0.06,0.51 0.18,0.73c0.12,0.22 0.3,0.39 0.54,0.52c0.24,0.13 0.54,0.19 0.9,0.19c0.44,0 0.83,-0.09 1.17,-0.28c0.34,-0.19 0.61,-0.42 0.8,-0.69c0.21,-0.27 0.32,-0.53 0.33,-0.79l0.62,0.7c-0.04,0.22 -0.14,0.46 -0.3,0.72c-0.16,0.27 -0.38,0.53 -0.65,0.77c-0.26,0.24 -0.58,0.44 -0.95,0.6c-0.36,0.16 -0.78,0.24 -1.23,0.24c-0.58,0 -1.08,-0.12 -1.51,-0.34c-0.43,-0.22 -0.76,-0.52 -1,-0.9c-0.24,-0.38 -0.35,-0.8 -0.35,-1.27c0,-0.45 0.08,-0.85 0.26,-1.2c0.18,-0.35 0.43,-0.63 0.77,-0.86c0.33,-0.24 0.73,-0.42 1.2,-0.54c0.47,-0.12 0.99,-0.17 1.57,-0.17l1.68,0zm5.04,-3.33l0,8.45l-1.45,0l0,-8.45l1.45,0zm-1.56,-2.25c0,-0.23 0.07,-0.43 0.21,-0.59c0.14,-0.16 0.36,-0.24 0.64,-0.24c0.27,0 0.49,0.08 0.63,0.24c0.15,0.16 0.23,0.36 0.23,0.59c0,0.23 -0.08,0.42 -0.23,0.58c-0.14,0.16 -0.36,0.24 -0.63,0.24c-0.28,0 -0.5,-0.08 -0.64,-0.24c-0.14,-0.16 -0.21,-0.35 -0.21,-0.58zm5.45,-1.3l0,12l-1.45,0l0,-12l1.45,0zm3.89,3.55l0,8.45l-1.45,0l0,-8.45l1.45,0zm-1.56,-2.25c0,-0.23 0.07,-0.43 0.21,-0.59c0.15,-0.16 0.36,-0.24 0.64,-0.24c0.28,0 0.49,0.08 0.63,0.24c0.15,0.16 0.23,0.36 0.23,0.59c0,0.23 -0.08,0.42 -0.23,0.58c-0.14,0.16 -0.35,0.24 -0.63,0.24c-0.28,0 -0.49,-0.08 -0.64,-0.24c-0.14,-0.16 -0.21,-0.35 -0.21,-0.58zm5.33,4.05l0,6.65l-1.45,0l0,-8.45l1.37,0l0.08,1.8zm-0.35,2.1l-0.6,-0.02c0.01,-0.58 0.09,-1.11 0.26,-1.6c0.17,-0.5 0.4,-0.93 0.7,-1.29c0.31,-0.37 0.66,-0.65 1.08,-0.84c0.42,-0.21 0.89,-0.31 1.4,-0.31c0.42,0 0.79,0.06 1.12,0.17c0.34,0.11 0.62,0.29 0.86,0.53c0.23,0.25 0.42,0.57 0.54,0.96c0.13,0.38 0.19,0.85 0.19,1.41l0,5.54l-1.45,0l0,-5.55c0,-0.45 -0.07,-0.8 -0.2,-1.07c-0.13,-0.27 -0.32,-0.46 -0.57,-0.58c-0.25,-0.13 -0.56,-0.19 -0.92,-0.19c-0.36,0 -0.69,0.07 -0.98,0.23c-0.3,0.15 -0.55,0.36 -0.76,0.62c-0.21,0.27 -0.37,0.57 -0.49,0.92c-0.12,0.33 -0.18,0.69 -0.18,1.07zm13.22,-3.9l1.31,0l0,8.27c0,0.75 -0.15,1.38 -0.45,1.91c-0.3,0.52 -0.72,0.92 -1.26,1.19c-0.54,0.28 -1.16,0.42 -1.86,0.42c-0.29,0 -0.64,-0.05 -1.03,-0.14c-0.4,-0.09 -0.78,-0.25 -1.16,-0.47c-0.38,-0.21 -0.69,-0.5 -0.95,-0.86l0.76,-0.86c0.35,0.42 0.72,0.72 1.11,0.89c0.39,0.17 0.78,0.25 1.16,0.25c0.45,0 0.85,-0.09 1.18,-0.26c0.34,-0.17 0.6,-0.43 0.78,-0.76c0.18,-0.34 0.28,-0.75 0.28,-1.24l0,-6.48l0.13,-1.86zm-5.82,4.32l0,-0.17c0,-0.64 0.08,-1.23 0.23,-1.75c0.15,-0.54 0.38,-0.99 0.66,-1.37c0.29,-0.38 0.64,-0.67 1.06,-0.88c0.41,-0.21 0.87,-0.31 1.39,-0.31c0.53,0 0.99,0.09 1.39,0.28c0.4,0.18 0.74,0.45 1.01,0.81c0.29,0.35 0.51,0.77 0.67,1.26c0.16,0.5 0.27,1.06 0.33,1.68l0,0.72c-0.05,0.62 -0.17,1.18 -0.33,1.67c-0.16,0.5 -0.38,0.92 -0.67,1.27c-0.27,0.35 -0.61,0.62 -1.01,0.8c-0.4,0.19 -0.87,0.28 -1.41,0.28c-0.5,0 -0.96,-0.11 -1.37,-0.32c-0.41,-0.22 -0.76,-0.52 -1.05,-0.9c-0.29,-0.39 -0.52,-0.84 -0.67,-1.36c-0.15,-0.53 -0.23,-1.1 -0.23,-1.71zm1.45,-0.17l0,0.17c0,0.42 0.04,0.81 0.12,1.18c0.09,0.37 0.22,0.7 0.4,0.98c0.18,0.28 0.41,0.5 0.7,0.67c0.28,0.15 0.61,0.23 1,0.23c0.48,0 0.88,-0.1 1.19,-0.3c0.31,-0.21 0.56,-0.48 0.74,-0.81c0.19,-0.33 0.34,-0.69 0.44,-1.09l0,-1.88c-0.06,-0.28 -0.14,-0.56 -0.26,-0.83c-0.12,-0.27 -0.27,-0.51 -0.46,-0.72c-0.18,-0.21 -0.41,-0.38 -0.68,-0.5c-0.27,-0.13 -0.59,-0.19 -0.95,-0.19c-0.4,0 -0.74,0.08 -1.02,0.25c-0.29,0.16 -0.52,0.38 -0.7,0.67c-0.18,0.28 -0.31,0.61 -0.4,0.99c-0.08,0.37 -0.12,0.76 -0.12,1.18zm13.42,-7.7l0,12l-1.45,0l0,-12l1.45,0zm3.89,3.55l0,8.45l-1.45,0l0,-8.45l1.45,0zm-1.56,-2.25c0,-0.23 0.07,-0.43 0.21,-0.59c0.14,-0.16 0.36,-0.24 0.64,-0.24c0.27,0 0.48,0.08 0.63,0.24c0.15,0.16 0.23,0.36 0.23,0.59c0,0.23 -0.08,0.42 -0.23,0.58c-0.15,0.16 -0.36,0.24 -0.63,0.24c-0.28,0 -0.5,-0.08 -0.64,-0.24c-0.14,-0.16 -0.21,-0.35 -0.21,-0.58zm8.8,8.46c0,-0.21 -0.04,-0.4 -0.14,-0.58c-0.09,-0.18 -0.27,-0.35 -0.55,-0.49c-0.28,-0.15 -0.7,-0.28 -1.25,-0.39c-0.47,-0.1 -0.9,-0.22 -1.28,-0.35c-0.37,-0.14 -0.69,-0.3 -0.96,-0.5c-0.26,-0.19 -0.46,-0.42 -0.6,-0.68c-0.14,-0.26 -0.21,-0.56 -0.21,-0.91c0,-0.33 0.07,-0.65 0.22,-0.95c0.15,-0.29 0.36,-0.56 0.63,-0.78c0.28,-0.23 0.61,-0.41 0.99,-0.54c0.39,-0.13 0.82,-0.2 1.29,-0.2c0.68,0 1.26,0.12 1.74,0.36c0.48,0.24 0.84,0.56 1.1,0.96c0.25,0.4 0.38,0.84 0.38,1.32l-1.44,0c0,-0.23 -0.08,-0.46 -0.21,-0.68c-0.14,-0.22 -0.34,-0.41 -0.61,-0.55c-0.26,-0.15 -0.58,-0.22 -0.96,-0.22c-0.4,0 -0.72,0.06 -0.97,0.19c-0.25,0.12 -0.43,0.27 -0.54,0.46c-0.11,0.18 -0.17,0.38 -0.17,0.59c0,0.16 0.03,0.3 0.08,0.42c0.06,0.12 0.16,0.23 0.3,0.34c0.14,0.1 0.34,0.19 0.59,0.28c0.26,0.09 0.58,0.18 0.98,0.27c0.69,0.15 1.26,0.34 1.71,0.56c0.45,0.22 0.78,0.48 1,0.8c0.22,0.32 0.33,0.71 0.33,1.16c0,0.37 -0.08,0.71 -0.24,1.01c-0.15,0.31 -0.37,0.58 -0.66,0.8c-0.29,0.22 -0.63,0.39 -1.03,0.52c-0.4,0.12 -0.84,0.18 -1.34,0.18c-0.74,0 -1.37,-0.14 -1.89,-0.4c-0.51,-0.27 -0.91,-0.61 -1.17,-1.03c-0.27,-0.43 -0.4,-0.87 -0.4,-1.34l1.45,0c0.02,0.4 0.14,0.71 0.35,0.95c0.21,0.23 0.46,0.39 0.76,0.49c0.31,0.09 0.6,0.14 0.9,0.14c0.4,0 0.73,-0.05 0.99,-0.16c0.27,-0.1 0.48,-0.24 0.62,-0.43c0.14,-0.18 0.21,-0.39 0.21,-0.62zm6.88,-6.21l0,1.11l-4.57,0l0,-1.11l4.57,0zm-3.02,-2.06l1.45,0l0,8.42c0,0.28 0.04,0.5 0.13,0.64c0.09,0.15 0.2,0.25 0.34,0.29c0.14,0.05 0.29,0.07 0.46,0.07c0.12,0 0.24,-0.01 0.37,-0.03c0.14,-0.02 0.24,-0.04 0.31,-0.06l0,1.18c-0.11,0.04 -0.26,0.07 -0.45,0.1c-0.18,0.04 -0.4,0.06 -0.66,0.06c-0.36,0 -0.68,-0.07 -0.98,-0.21c-0.3,-0.15 -0.53,-0.38 -0.71,-0.71c-0.17,-0.33 -0.26,-0.78 -0.26,-1.34l0,-8.41zm9.64,8.27c0,-0.21 -0.04,-0.4 -0.14,-0.58c-0.09,-0.18 -0.27,-0.35 -0.55,-0.49c-0.28,-0.15 -0.7,-0.28 -1.25,-0.39c-0.47,-0.1 -0.9,-0.22 -1.28,-0.35c-0.37,-0.14 -0.69,-0.3 -0.96,-0.5c-0.26,-0.19 -0.46,-0.42 -0.6,-0.68c-0.14,-0.26 -0.21,-0.56 -0.21,-0.91c0,-0.33 0.07,-0.65 0.22,-0.95c0.15,-0.29 0.36,-0.56 0.63,-0.78c0.28,-0.23 0.61,-0.41 0.99,-0.54c0.39,-0.13 0.82,-0.2 1.29,-0.2c0.68,0 1.26,0.12 1.74,0.36c0.48,0.24 0.84,0.56 1.1,0.96c0.25,0.4 0.38,0.84 0.38,1.32l-1.44,0c0,-0.23 -0.08,-0.46 -0.21,-0.68c-0.14,-0.22 -0.34,-0.41 -0.61,-0.55c-0.26,-0.15 -0.58,-0.22 -0.96,-0.22c-0.4,0 -0.72,0.06 -0.97,0.19c-0.25,0.12 -0.43,0.27 -0.54,0.46c-0.11,0.18 -0.17,0.38 -0.17,0.59c0,0.16 0.03,0.3 0.08,0.42c0.06,0.12 0.16,0.23 0.3,0.34c0.14,0.1 0.34,0.19 0.59,0.28c0.26,0.09 0.58,0.18 0.98,0.27c0.69,0.15 1.26,0.34 1.71,0.56c0.45,0.22 0.78,0.48 1,0.8c0.22,0.32 0.33,0.71 0.33,1.16c0,0.37 -0.08,0.71 -0.24,1.01c-0.15,0.31 -0.37,0.58 -0.66,0.8c-0.29,0.22 -0.63,0.39 -1.03,0.52c-0.4,0.12 -0.84,0.18 -1.34,0.18c-0.74,0 -1.37,-0.14 -1.89,-0.4c-0.51,-0.27 -0.91,-0.61 -1.17,-1.03c-0.27,-0.43 -0.4,-0.87 -0.4,-1.34l1.45,0c0.02,0.4 0.14,0.71 0.35,0.95c0.21,0.23 0.46,0.39 0.76,0.49c0.31,0.09 0.6,0.14 0.9,0.14c0.4,0 0.73,-0.05 0.99,-0.16c0.27,-0.1 0.48,-0.24 0.62,-0.43c0.14,-0.18 0.21,-0.39 0.21,-0.62zm-87.36,26.01l0,1.23l-7.7,0l0,-1.23l7.7,0zm-0.25,-9.05l-7.09,10.28l-0.93,0l0,-1.12l7.08,-10.25l0.94,0l0,1.09zm-0.64,-1.09l0,1.23l-7.28,0l0,-1.23l7.28,0zm2.08,7.24l0,-0.18c0,-0.61 0.09,-1.18 0.26,-1.7c0.18,-0.52 0.44,-0.98 0.77,-1.36c0.33,-0.4 0.74,-0.7 1.21,-0.91c0.48,-0.22 1.01,-0.33 1.6,-0.33c0.59,0 1.12,0.11 1.6,0.33c0.48,0.21 0.88,0.51 1.22,0.91c0.33,0.38 0.59,0.84 0.77,1.36c0.18,0.52 0.27,1.09 0.27,1.7l0,0.18c0,0.61 -0.09,1.17 -0.27,1.69c-0.18,0.52 -0.44,0.98 -0.77,1.37c-0.34,0.38 -0.74,0.69 -1.21,0.91c-0.47,0.21 -1,0.32 -1.6,0.32c-0.59,0 -1.13,-0.11 -1.6,-0.32c-0.47,-0.22 -0.88,-0.53 -1.22,-0.91c-0.33,-0.39 -0.59,-0.85 -0.77,-1.37c-0.17,-0.52 -0.26,-1.08 -0.26,-1.69zm1.45,-0.18l0,0.18c0,0.42 0.04,0.82 0.14,1.19c0.1,0.37 0.25,0.7 0.45,0.99c0.2,0.28 0.45,0.51 0.76,0.68c0.3,0.16 0.65,0.24 1.05,0.24c0.4,0 0.74,-0.08 1.04,-0.24c0.3,-0.17 0.55,-0.4 0.75,-0.68c0.2,-0.29 0.35,-0.62 0.45,-0.99c0.1,-0.37 0.15,-0.77 0.15,-1.19l0,-0.18c0,-0.42 -0.05,-0.81 -0.15,-1.18c-0.1,-0.38 -0.25,-0.71 -0.46,-0.99c-0.2,-0.3 -0.45,-0.52 -0.75,-0.69c-0.29,-0.17 -0.64,-0.25 -1.04,-0.25c-0.4,0 -0.75,0.08 -1.05,0.25c-0.3,0.17 -0.55,0.39 -0.75,0.69c-0.2,0.28 -0.35,0.61 -0.45,0.99c-0.1,0.37 -0.14,0.76 -0.14,1.18zm7.68,0.18l0,-0.18c0,-0.61 0.08,-1.18 0.26,-1.7c0.18,-0.52 0.43,-0.98 0.77,-1.36c0.33,-0.4 0.73,-0.7 1.21,-0.91c0.47,-0.22 1,-0.33 1.59,-0.33c0.59,0 1.13,0.11 1.6,0.33c0.48,0.21 0.89,0.51 1.22,0.91c0.34,0.38 0.6,0.84 0.77,1.36c0.18,0.52 0.27,1.09 0.27,1.7l0,0.18c0,0.61 -0.09,1.17 -0.27,1.69c-0.17,0.52 -0.43,0.98 -0.77,1.37c-0.33,0.38 -0.74,0.69 -1.21,0.91c-0.47,0.21 -1,0.32 -1.59,0.32c-0.6,0 -1.13,-0.11 -1.6,-0.32c-0.48,-0.22 -0.89,-0.53 -1.22,-0.91c-0.34,-0.39 -0.59,-0.85 -0.77,-1.37c-0.18,-0.52 -0.26,-1.08 -0.26,-1.69zm1.44,-0.18l0,0.18c0,0.42 0.05,0.82 0.15,1.19c0.1,0.37 0.25,0.7 0.44,0.99c0.21,0.28 0.46,0.51 0.76,0.68c0.3,0.16 0.65,0.24 1.06,0.24c0.39,0 0.74,-0.08 1.03,-0.24c0.31,-0.17 0.56,-0.4 0.75,-0.68c0.2,-0.29 0.35,-0.62 0.45,-0.99c0.11,-0.37 0.16,-0.77 0.16,-1.19l0,-0.18c0,-0.42 -0.05,-0.81 -0.16,-1.18c-0.1,-0.38 -0.25,-0.71 -0.45,-0.99c-0.2,-0.3 -0.45,-0.52 -0.75,-0.69c-0.3,-0.17 -0.65,-0.25 -1.05,-0.25c-0.39,0 -0.74,0.08 -1.05,0.25c-0.29,0.17 -0.54,0.39 -0.75,0.69c-0.19,0.28 -0.34,0.61 -0.44,0.99c-0.1,0.37 -0.15,0.76 -0.15,1.18zm9.5,-2.46l0,6.77l-1.45,0l0,-8.45l1.37,0l0.08,1.68zm-0.3,2.22l-0.67,-0.02c0.01,-0.58 0.08,-1.11 0.23,-1.6c0.14,-0.5 0.36,-0.93 0.65,-1.29c0.28,-0.37 0.64,-0.65 1.07,-0.85c0.42,-0.2 0.92,-0.3 1.48,-0.3c0.4,0 0.76,0.06 1.1,0.17c0.33,0.11 0.62,0.29 0.86,0.53c0.25,0.24 0.44,0.54 0.57,0.92c0.14,0.37 0.2,0.83 0.2,1.36l0,5.63l-1.44,0l0,-5.56c0,-0.44 -0.08,-0.8 -0.23,-1.06c-0.14,-0.27 -0.35,-0.46 -0.62,-0.58c-0.27,-0.13 -0.59,-0.19 -0.96,-0.19c-0.42,0 -0.78,0.08 -1.06,0.23c-0.29,0.15 -0.52,0.35 -0.69,0.62c-0.17,0.27 -0.3,0.57 -0.38,0.92c-0.07,0.33 -0.11,0.69 -0.11,1.07zm5.48,-0.79l-0.97,0.29c0.01,-0.46 0.08,-0.91 0.23,-1.33c0.15,-0.43 0.37,-0.81 0.65,-1.14c0.28,-0.34 0.63,-0.6 1.05,-0.79c0.42,-0.2 0.89,-0.3 1.43,-0.3c0.45,0 0.85,0.06 1.2,0.18c0.36,0.12 0.65,0.31 0.89,0.56c0.25,0.24 0.43,0.56 0.56,0.94c0.12,0.39 0.19,0.84 0.19,1.37l0,5.56l-1.46,0l0,-5.57c0,-0.47 -0.07,-0.84 -0.22,-1.1c-0.15,-0.27 -0.36,-0.45 -0.63,-0.56c-0.26,-0.11 -0.58,-0.16 -0.95,-0.16c-0.32,0 -0.6,0.05 -0.84,0.16c-0.25,0.11 -0.46,0.26 -0.62,0.46c-0.17,0.18 -0.3,0.4 -0.38,0.65c-0.09,0.24 -0.13,0.5 -0.13,0.78zm16.37,3.9l0,-4.36c0,-0.33 -0.07,-0.62 -0.21,-0.86c-0.13,-0.25 -0.32,-0.45 -0.59,-0.58c-0.27,-0.14 -0.59,-0.2 -0.98,-0.2c-0.37,0 -0.69,0.06 -0.96,0.18c-0.28,0.13 -0.49,0.29 -0.65,0.49c-0.15,0.21 -0.22,0.43 -0.22,0.66l-1.45,0c0,-0.3 0.08,-0.6 0.24,-0.9c0.15,-0.3 0.38,-0.56 0.67,-0.8c0.29,-0.25 0.65,-0.44 1.06,-0.58c0.42,-0.15 0.88,-0.22 1.39,-0.22c0.62,0 1.16,0.11 1.63,0.31c0.47,0.21 0.84,0.53 1.11,0.95c0.27,0.41 0.4,0.94 0.4,1.57l0,3.94c0,0.28 0.03,0.58 0.07,0.9c0.06,0.31 0.13,0.59 0.23,0.82l0,0.12l-1.51,0c-0.07,-0.17 -0.13,-0.39 -0.17,-0.66c-0.04,-0.28 -0.06,-0.55 -0.06,-0.78zm0.25,-3.68l0.01,1.01l-1.46,0c-0.41,0 -0.78,0.03 -1.1,0.1c-0.32,0.07 -0.59,0.16 -0.81,0.29c-0.22,0.13 -0.39,0.3 -0.5,0.49c-0.12,0.2 -0.17,0.42 -0.17,0.68c0,0.27 0.06,0.51 0.17,0.73c0.12,0.22 0.31,0.39 0.54,0.52c0.25,0.13 0.55,0.19 0.9,0.19c0.45,0 0.84,-0.09 1.18,-0.28c0.33,-0.19 0.6,-0.42 0.8,-0.69c0.2,-0.27 0.31,-0.53 0.33,-0.79l0.62,0.7c-0.04,0.22 -0.14,0.46 -0.3,0.73c-0.16,0.26 -0.38,0.52 -0.65,0.76c-0.27,0.24 -0.58,0.44 -0.95,0.6c-0.37,0.16 -0.78,0.24 -1.24,0.24c-0.57,0 -1.07,-0.12 -1.51,-0.34c-0.42,-0.22 -0.76,-0.52 -1,-0.9c-0.23,-0.38 -0.35,-0.8 -0.35,-1.27c0,-0.46 0.09,-0.85 0.27,-1.2c0.17,-0.35 0.43,-0.64 0.76,-0.86c0.34,-0.24 0.74,-0.42 1.21,-0.53c0.47,-0.12 0.99,-0.18 1.57,-0.18l1.68,0zm6.85,4.09c0.34,0 0.66,-0.07 0.95,-0.21c0.29,-0.14 0.53,-0.34 0.72,-0.58c0.19,-0.25 0.3,-0.53 0.32,-0.85l1.38,0c-0.03,0.5 -0.2,0.96 -0.51,1.4c-0.31,0.42 -0.71,0.77 -1.21,1.04c-0.5,0.26 -1.05,0.39 -1.65,0.39c-0.64,0 -1.19,-0.12 -1.67,-0.34c-0.46,-0.22 -0.85,-0.53 -1.17,-0.92c-0.31,-0.39 -0.54,-0.84 -0.69,-1.34c-0.15,-0.52 -0.23,-1.06 -0.23,-1.62l0,-0.33c0,-0.57 0.08,-1.11 0.23,-1.61c0.15,-0.51 0.38,-0.96 0.69,-1.35c0.32,-0.39 0.71,-0.7 1.17,-0.92c0.48,-0.23 1.03,-0.34 1.67,-0.34c0.66,0 1.24,0.14 1.73,0.41c0.5,0.26 0.89,0.63 1.17,1.09c0.28,0.46 0.44,0.98 0.47,1.56l-1.38,0c-0.02,-0.35 -0.12,-0.66 -0.3,-0.94c-0.16,-0.28 -0.39,-0.51 -0.68,-0.67c-0.29,-0.18 -0.63,-0.26 -1.01,-0.26c-0.44,0 -0.82,0.09 -1.12,0.26c-0.3,0.18 -0.53,0.41 -0.71,0.71c-0.17,0.29 -0.3,0.61 -0.38,0.97c-0.07,0.36 -0.1,0.72 -0.1,1.09l0,0.33c0,0.37 0.03,0.73 0.1,1.09c0.08,0.36 0.2,0.69 0.37,0.98c0.18,0.29 0.42,0.52 0.71,0.7c0.31,0.17 0.68,0.26 1.13,0.26zm8.37,0c0.35,0 0.67,-0.07 0.96,-0.21c0.29,-0.14 0.53,-0.34 0.71,-0.58c0.19,-0.25 0.3,-0.53 0.33,-0.85l1.37,0c-0.02,0.5 -0.2,0.96 -0.51,1.4c-0.3,0.42 -0.71,0.77 -1.21,1.04c-0.5,0.26 -1.05,0.39 -1.65,0.39c-0.63,0 -1.19,-0.12 -1.66,-0.34c-0.47,-0.22 -0.86,-0.53 -1.17,-0.92c-0.31,-0.39 -0.54,-0.84 -0.7,-1.34c-0.15,-0.52 -0.22,-1.06 -0.22,-1.62l0,-0.33c0,-0.57 0.07,-1.11 0.22,-1.61c0.16,-0.51 0.39,-0.96 0.7,-1.35c0.31,-0.39 0.7,-0.7 1.17,-0.92c0.47,-0.23 1.03,-0.34 1.66,-0.34c0.67,0 1.24,0.14 1.74,0.41c0.49,0.26 0.88,0.63 1.16,1.09c0.29,0.46 0.45,0.98 0.47,1.56l-1.37,0c-0.03,-0.35 -0.13,-0.66 -0.3,-0.94c-0.17,-0.28 -0.4,-0.51 -0.69,-0.67c-0.28,-0.18 -0.62,-0.26 -1.01,-0.26c-0.44,0 -0.81,0.09 -1.11,0.26c-0.3,0.18 -0.54,0.41 -0.72,0.71c-0.17,0.29 -0.29,0.61 -0.37,0.97c-0.07,0.36 -0.11,0.72 -0.11,1.09l0,0.33c0,0.37 0.04,0.73 0.11,1.09c0.07,0.36 0.2,0.69 0.37,0.98c0.18,0.29 0.41,0.52 0.71,0.7c0.3,0.17 0.68,0.26 1.12,0.26zm4.61,-3.1l0,-0.18c0,-0.61 0.09,-1.18 0.27,-1.7c0.18,-0.52 0.43,-0.98 0.76,-1.36c0.34,-0.4 0.74,-0.7 1.22,-0.91c0.47,-0.22 1,-0.33 1.59,-0.33c0.59,0 1.13,0.11 1.6,0.33c0.48,0.21 0.89,0.51 1.22,0.91c0.34,0.38 0.59,0.84 0.77,1.36c0.18,0.52 0.27,1.09 0.27,1.7l0,0.18c0,0.61 -0.09,1.17 -0.27,1.69c-0.18,0.52 -0.43,0.98 -0.77,1.37c-0.33,0.38 -0.74,0.69 -1.21,0.91c-0.47,0.21 -1,0.32 -1.6,0.32c-0.59,0 -1.12,-0.11 -1.6,-0.32c-0.47,-0.22 -0.88,-0.53 -1.22,-0.91c-0.33,-0.39 -0.58,-0.85 -0.76,-1.37c-0.18,-0.52 -0.27,-1.08 -0.27,-1.69zm1.45,-0.18l0,0.18c0,0.42 0.05,0.82 0.15,1.19c0.1,0.37 0.24,0.7 0.44,0.99c0.21,0.28 0.46,0.51 0.76,0.68c0.3,0.16 0.65,0.24 1.05,0.24c0.4,0 0.75,-0.08 1.04,-0.24c0.31,-0.17 0.56,-0.4 0.75,-0.68c0.2,-0.29 0.35,-0.62 0.45,-0.99c0.1,-0.37 0.16,-0.77 0.16,-1.19l0,-0.18c0,-0.42 -0.06,-0.81 -0.16,-1.18c-0.1,-0.38 -0.25,-0.71 -0.45,-0.99c-0.2,-0.3 -0.45,-0.52 -0.75,-0.69c-0.3,-0.17 -0.65,-0.25 -1.05,-0.25c-0.4,0 -0.75,0.08 -1.05,0.25c-0.29,0.17 -0.54,0.39 -0.75,0.69c-0.2,0.28 -0.34,0.61 -0.44,0.99c-0.1,0.37 -0.15,0.76 -0.15,1.18zm13.23,2.36l0,-6.5l1.46,0l0,8.45l-1.39,0l-0.07,-1.95zm0.28,-1.78l0.6,-0.02c0,0.56 -0.06,1.08 -0.18,1.56c-0.12,0.48 -0.3,0.89 -0.57,1.24c-0.25,0.35 -0.6,0.62 -1.02,0.82c-0.42,0.19 -0.93,0.29 -1.54,0.29c-0.41,0 -0.79,-0.06 -1.13,-0.18c-0.34,-0.12 -0.63,-0.31 -0.87,-0.56c-0.25,-0.25 -0.44,-0.57 -0.57,-0.98c-0.14,-0.4 -0.2,-0.88 -0.2,-1.44l0,-5.45l1.45,0l0,5.47c0,0.38 0.04,0.69 0.12,0.94c0.09,0.25 0.2,0.44 0.35,0.59c0.15,0.14 0.32,0.24 0.5,0.29c0.19,0.06 0.38,0.09 0.58,0.09c0.61,0 1.1,-0.12 1.46,-0.35c0.36,-0.24 0.62,-0.56 0.77,-0.96c0.16,-0.41 0.25,-0.86 0.25,-1.35zm4.82,-2.92l0,6.65l-1.44,0l0,-8.45l1.37,0l0.07,1.8zm-0.34,2.1l-0.6,-0.02c0,-0.58 0.09,-1.11 0.26,-1.6c0.16,-0.5 0.4,-0.93 0.7,-1.29c0.3,-0.37 0.66,-0.65 1.08,-0.85c0.42,-0.2 0.89,-0.3 1.4,-0.3c0.41,0 0.79,0.06 1.12,0.17c0.34,0.11 0.62,0.29 0.85,0.53c0.24,0.25 0.43,0.57 0.55,0.96c0.13,0.38 0.19,0.85 0.19,1.41l0,5.54l-1.46,0l0,-5.56c0,-0.44 -0.06,-0.79 -0.19,-1.06c-0.13,-0.27 -0.32,-0.46 -0.57,-0.58c-0.25,-0.13 -0.56,-0.19 -0.92,-0.19c-0.36,0 -0.69,0.08 -0.99,0.23c-0.29,0.15 -0.54,0.35 -0.76,0.62c-0.2,0.27 -0.37,0.57 -0.49,0.92c-0.11,0.33 -0.17,0.69 -0.17,1.07zm11.28,-3.9l0,1.11l-4.57,0l0,-1.11l4.57,0zm-3.02,-2.06l1.44,0l0,8.42c0,0.28 0.05,0.5 0.14,0.65c0.09,0.14 0.2,0.24 0.34,0.28c0.14,0.05 0.29,0.07 0.45,0.07c0.12,0 0.25,-0.01 0.38,-0.03c0.13,-0.02 0.23,-0.04 0.3,-0.06l0.01,1.18c-0.11,0.04 -0.26,0.07 -0.45,0.1c-0.19,0.04 -0.41,0.06 -0.67,0.06c-0.35,0 -0.68,-0.07 -0.97,-0.22c-0.3,-0.13 -0.54,-0.37 -0.71,-0.7c-0.18,-0.33 -0.26,-0.78 -0.26,-1.34l0,-8.41zm9.64,8.27c0,-0.21 -0.05,-0.4 -0.14,-0.58c-0.09,-0.18 -0.27,-0.35 -0.56,-0.49c-0.27,-0.15 -0.69,-0.28 -1.25,-0.39c-0.46,-0.1 -0.89,-0.22 -1.27,-0.36c-0.37,-0.13 -0.69,-0.29 -0.96,-0.49c-0.26,-0.19 -0.46,-0.42 -0.6,-0.68c-0.14,-0.26 -0.21,-0.56 -0.21,-0.91c0,-0.33 0.07,-0.65 0.21,-0.95c0.16,-0.29 0.37,-0.56 0.64,-0.78c0.27,-0.23 0.61,-0.41 0.99,-0.54c0.39,-0.13 0.81,-0.2 1.29,-0.2c0.68,0 1.26,0.12 1.73,0.36c0.48,0.24 0.85,0.56 1.1,0.96c0.26,0.4 0.39,0.84 0.39,1.32l-1.45,0c0,-0.23 -0.07,-0.46 -0.21,-0.68c-0.13,-0.22 -0.33,-0.41 -0.6,-0.55c-0.26,-0.15 -0.58,-0.22 -0.96,-0.22c-0.4,0 -0.73,0.06 -0.98,0.19c-0.24,0.12 -0.42,0.27 -0.54,0.46c-0.11,0.18 -0.16,0.38 -0.16,0.59c0,0.16 0.03,0.3 0.08,0.42c0.05,0.12 0.15,0.23 0.3,0.34c0.13,0.1 0.33,0.19 0.59,0.28c0.25,0.09 0.58,0.18 0.98,0.27c0.69,0.15 1.26,0.34 1.71,0.56c0.44,0.22 0.78,0.48 1,0.8c0.22,0.32 0.32,0.7 0.32,1.16c0,0.37 -0.07,0.71 -0.23,1.01c-0.15,0.31 -0.37,0.58 -0.66,0.8c-0.29,0.22 -0.64,0.39 -1.04,0.52c-0.39,0.12 -0.84,0.18 -1.33,0.18c-0.75,0 -1.38,-0.14 -1.89,-0.4c-0.52,-0.27 -0.91,-0.61 -1.17,-1.03c-0.27,-0.42 -0.4,-0.87 -0.4,-1.34l1.45,0c0.02,0.4 0.14,0.71 0.34,0.95c0.21,0.22 0.47,0.39 0.77,0.49c0.3,0.09 0.6,0.14 0.9,0.14c0.39,0 0.73,-0.05 0.99,-0.16c0.27,-0.1 0.48,-0.25 0.62,-0.43c0.14,-0.18 0.21,-0.39 0.21,-0.62z" fill="#030D2D" id="svg_7"/>
  <path d="m219.82,257.13c0,-0.27 -0.04,-0.5 -0.13,-0.71c-0.07,-0.21 -0.21,-0.39 -0.42,-0.56c-0.19,-0.17 -0.47,-0.33 -0.83,-0.48c-0.34,-0.15 -0.79,-0.3 -1.32,-0.46c-0.56,-0.17 -1.07,-0.35 -1.53,-0.55c-0.45,-0.21 -0.84,-0.45 -1.16,-0.71c-0.32,-0.27 -0.57,-0.57 -0.74,-0.92c-0.17,-0.34 -0.26,-0.74 -0.26,-1.18c0,-0.44 0.09,-0.85 0.27,-1.22c0.18,-0.38 0.45,-0.71 0.78,-0.98c0.35,-0.28 0.76,-0.5 1.23,-0.66c0.48,-0.15 1,-0.23 1.59,-0.23c0.85,0 1.58,0.16 2.17,0.49c0.6,0.32 1.05,0.75 1.37,1.27c0.31,0.52 0.47,1.08 0.47,1.68l-1.5,0c0,-0.43 -0.1,-0.81 -0.28,-1.14c-0.18,-0.33 -0.46,-0.59 -0.83,-0.78c-0.37,-0.19 -0.83,-0.29 -1.4,-0.29c-0.54,0 -0.98,0.08 -1.33,0.24c-0.35,0.17 -0.61,0.39 -0.78,0.66c-0.17,0.28 -0.25,0.59 -0.25,0.95c0,0.24 0.05,0.45 0.15,0.65c0.1,0.2 0.26,0.38 0.47,0.54c0.22,0.17 0.5,0.32 0.83,0.46c0.34,0.14 0.74,0.28 1.21,0.41c0.65,0.18 1.21,0.39 1.67,0.61c0.47,0.22 0.86,0.47 1.16,0.76c0.31,0.27 0.53,0.59 0.68,0.94c0.15,0.35 0.23,0.75 0.23,1.19c0,0.46 -0.1,0.88 -0.28,1.26c-0.19,0.37 -0.46,0.69 -0.81,0.96c-0.35,0.26 -0.77,0.47 -1.26,0.61c-0.48,0.15 -1.02,0.22 -1.62,0.22c-0.53,0 -1.05,-0.08 -1.56,-0.22c-0.5,-0.15 -0.96,-0.37 -1.38,-0.66c-0.41,-0.29 -0.74,-0.65 -0.99,-1.08c-0.25,-0.43 -0.37,-0.93 -0.37,-1.5l1.5,0c0,0.39 0.08,0.73 0.23,1.01c0.15,0.28 0.35,0.51 0.61,0.69c0.27,0.18 0.57,0.32 0.9,0.41c0.34,0.08 0.69,0.12 1.06,0.12c0.52,0 0.97,-0.07 1.33,-0.22c0.37,-0.15 0.64,-0.35 0.83,-0.62c0.19,-0.28 0.29,-0.59 0.29,-0.96zm6.76,-5.58l0,1.11l-4.57,0l0,-1.11l4.57,0zm-3.02,-2.06l1.44,0l0,8.42c0,0.28 0.04,0.5 0.13,0.65c0.09,0.14 0.21,0.24 0.35,0.28c0.14,0.05 0.29,0.07 0.45,0.07c0.12,0 0.24,-0.01 0.38,-0.03c0.13,-0.02 0.23,-0.04 0.3,-0.06l0.01,1.18c-0.12,0.04 -0.27,0.07 -0.46,0.1c-0.18,0.04 -0.4,0.06 -0.66,0.06c-0.35,0 -0.68,-0.07 -0.98,-0.22c-0.29,-0.13 -0.53,-0.37 -0.71,-0.7c-0.17,-0.33 -0.25,-0.78 -0.25,-1.34l0,-8.41zm6.28,2.06l0,8.45l-1.45,0l0,-8.45l1.45,0zm-1.56,-2.24c0,-0.24 0.07,-0.44 0.21,-0.6c0.15,-0.16 0.36,-0.24 0.64,-0.24c0.28,0 0.49,0.08 0.64,0.24c0.15,0.16 0.22,0.36 0.22,0.6c0,0.22 -0.07,0.41 -0.22,0.57c-0.15,0.16 -0.36,0.24 -0.64,0.24c-0.28,0 -0.49,-0.08 -0.64,-0.24c-0.14,-0.16 -0.21,-0.35 -0.21,-0.57zm7.27,9.66c0.34,0 0.66,-0.07 0.95,-0.21c0.29,-0.14 0.53,-0.34 0.72,-0.58c0.19,-0.25 0.29,-0.53 0.32,-0.85l1.37,0c-0.02,0.5 -0.19,0.96 -0.5,1.4c-0.31,0.42 -0.72,0.77 -1.22,1.04c-0.5,0.26 -1.04,0.39 -1.64,0.39c-0.64,0 -1.19,-0.12 -1.67,-0.34c-0.47,-0.22 -0.86,-0.53 -1.17,-0.92c-0.31,-0.39 -0.54,-0.84 -0.69,-1.34c-0.15,-0.52 -0.23,-1.06 -0.23,-1.62l0,-0.33c0,-0.57 0.08,-1.11 0.23,-1.61c0.15,-0.51 0.38,-0.96 0.69,-1.35c0.31,-0.39 0.7,-0.7 1.17,-0.92c0.48,-0.23 1.03,-0.34 1.67,-0.34c0.66,0 1.24,0.14 1.73,0.41c0.5,0.26 0.88,0.63 1.16,1.09c0.29,0.46 0.45,0.98 0.47,1.56l-1.37,0c-0.03,-0.35 -0.13,-0.66 -0.3,-0.94c-0.16,-0.28 -0.39,-0.51 -0.68,-0.67c-0.29,-0.18 -0.63,-0.26 -1.01,-0.26c-0.45,0 -0.82,0.09 -1.12,0.26c-0.3,0.18 -0.53,0.41 -0.71,0.71c-0.17,0.29 -0.3,0.61 -0.38,0.97c-0.07,0.36 -0.11,0.72 -0.11,1.09l0,0.33c0,0.37 0.04,0.73 0.11,1.09c0.08,0.36 0.2,0.69 0.37,0.98c0.18,0.29 0.42,0.52 0.71,0.7c0.3,0.17 0.68,0.26 1.13,0.26zm6.44,-10.97l0,12l-1.45,0l0,-12l1.45,0zm5.17,3.55l-3.69,3.94l-2.06,2.14l-0.12,-1.54l1.48,-1.76l2.62,-2.78l1.77,0zm-1.32,8.45l-3.02,-4.03l0.75,-1.29l3.97,5.32l-1.7,0zm6.16,0.16c-0.59,0 -1.12,-0.1 -1.6,-0.3c-0.48,-0.2 -0.88,-0.49 -1.23,-0.85c-0.34,-0.37 -0.6,-0.8 -0.78,-1.3c-0.18,-0.5 -0.27,-1.05 -0.27,-1.64l0,-0.33c0,-0.68 0.1,-1.3 0.3,-1.83c0.21,-0.54 0.48,-1 0.83,-1.38c0.35,-0.37 0.75,-0.66 1.19,-0.85c0.44,-0.19 0.9,-0.29 1.37,-0.29c0.61,0 1.13,0.11 1.57,0.31c0.44,0.21 0.8,0.5 1.08,0.88c0.28,0.37 0.49,0.8 0.63,1.31c0.13,0.5 0.2,1.05 0.2,1.64l0,0.65l-6.31,0l0,-1.18l4.86,0l0,-0.11c-0.02,-0.37 -0.09,-0.74 -0.23,-1.09c-0.13,-0.36 -0.34,-0.65 -0.63,-0.88c-0.28,-0.23 -0.67,-0.34 -1.17,-0.34c-0.33,0 -0.63,0.07 -0.9,0.21c-0.28,0.13 -0.52,0.34 -0.72,0.61c-0.19,0.27 -0.35,0.6 -0.46,0.99c-0.1,0.39 -0.16,0.84 -0.16,1.35l0,0.33c0,0.4 0.06,0.78 0.16,1.13c0.12,0.35 0.28,0.66 0.5,0.93c0.21,0.26 0.48,0.47 0.79,0.62c0.31,0.15 0.66,0.23 1.06,0.23c0.51,0 0.94,-0.11 1.3,-0.32c0.35,-0.2 0.66,-0.48 0.93,-0.83l0.87,0.69c-0.18,0.28 -0.41,0.54 -0.7,0.79c-0.28,0.25 -0.62,0.46 -1.04,0.61c-0.4,0.16 -0.88,0.24 -1.44,0.24zm6.42,-7.28l0,7.12l-1.44,0l0,-8.45l1.4,0l0.04,1.33zm2.64,-1.38l0,1.34c-0.12,-0.02 -0.24,-0.04 -0.35,-0.04c-0.1,-0.01 -0.22,-0.02 -0.36,-0.02c-0.33,0 -0.63,0.05 -0.88,0.16c-0.26,0.1 -0.47,0.25 -0.65,0.44c-0.18,0.18 -0.32,0.41 -0.42,0.67c-0.1,0.25 -0.17,0.53 -0.2,0.84l-0.4,0.24c0,-0.51 0.05,-1 0.14,-1.44c0.11,-0.45 0.27,-0.85 0.48,-1.19c0.21,-0.35 0.49,-0.62 0.81,-0.81c0.34,-0.2 0.73,-0.3 1.19,-0.3c0.11,0 0.23,0.01 0.36,0.04c0.14,0.02 0.23,0.04 0.28,0.07zm6.26,6.26c0,-0.21 -0.05,-0.4 -0.14,-0.58c-0.09,-0.18 -0.27,-0.35 -0.55,-0.49c-0.28,-0.15 -0.7,-0.28 -1.25,-0.39c-0.47,-0.1 -0.9,-0.22 -1.28,-0.36c-0.37,-0.13 -0.69,-0.29 -0.96,-0.49c-0.26,-0.19 -0.46,-0.42 -0.6,-0.68c-0.14,-0.26 -0.21,-0.56 -0.21,-0.91c0,-0.33 0.07,-0.65 0.22,-0.95c0.15,-0.29 0.36,-0.56 0.63,-0.78c0.28,-0.23 0.61,-0.41 0.99,-0.54c0.39,-0.13 0.82,-0.2 1.29,-0.2c0.68,0 1.26,0.12 1.73,0.36c0.48,0.24 0.85,0.56 1.11,0.96c0.25,0.4 0.38,0.84 0.38,1.32l-1.45,0c0,-0.23 -0.07,-0.46 -0.21,-0.68c-0.13,-0.22 -0.33,-0.41 -0.6,-0.55c-0.26,-0.15 -0.58,-0.22 -0.96,-0.22c-0.4,0 -0.73,0.06 -0.98,0.19c-0.24,0.11 -0.42,0.27 -0.54,0.46c-0.1,0.18 -0.16,0.38 -0.16,0.59c0,0.16 0.03,0.3 0.08,0.42c0.06,0.12 0.16,0.23 0.3,0.34c0.14,0.1 0.34,0.19 0.59,0.28c0.25,0.09 0.58,0.18 0.98,0.27c0.69,0.15 1.26,0.34 1.71,0.56c0.44,0.22 0.78,0.48 1,0.8c0.22,0.32 0.33,0.7 0.33,1.16c0,0.37 -0.08,0.71 -0.24,1.01c-0.15,0.31 -0.37,0.58 -0.66,0.8c-0.29,0.22 -0.63,0.39 -1.03,0.52c-0.4,0.12 -0.84,0.18 -1.34,0.18c-0.75,0 -1.37,-0.14 -1.89,-0.4c-0.52,-0.27 -0.91,-0.61 -1.17,-1.03c-0.27,-0.42 -0.4,-0.87 -0.4,-1.34l1.45,0c0.02,0.4 0.14,0.71 0.35,0.95c0.2,0.22 0.46,0.39 0.76,0.49c0.3,0.09 0.6,0.14 0.9,0.14c0.4,0 0.73,-0.05 0.99,-0.16c0.27,-0.1 0.48,-0.25 0.62,-0.43c0.14,-0.18 0.21,-0.39 0.21,-0.62zm-47.01,12.87l0,11.37l-1.49,0l0,-11.37l1.49,0zm3.65,0l0,1.23l-8.79,0l0,-1.23l8.79,0zm2.67,5.94l0,1.19l-3.82,0l0,-1.19l3.82,0zm6.33,3.19c0,-0.21 -0.05,-0.4 -0.14,-0.58c-0.09,-0.18 -0.27,-0.35 -0.55,-0.49c-0.28,-0.15 -0.7,-0.28 -1.25,-0.39c-0.47,-0.1 -0.9,-0.22 -1.28,-0.36c-0.37,-0.13 -0.69,-0.29 -0.96,-0.49c-0.26,-0.19 -0.46,-0.42 -0.6,-0.68c-0.14,-0.26 -0.21,-0.56 -0.21,-0.91c0,-0.33 0.07,-0.65 0.22,-0.95c0.15,-0.29 0.36,-0.56 0.63,-0.78c0.28,-0.23 0.61,-0.41 0.99,-0.54c0.39,-0.13 0.82,-0.2 1.29,-0.2c0.68,0 1.26,0.12 1.74,0.36c0.47,0.24 0.84,0.56 1.1,0.96c0.25,0.4 0.38,0.84 0.38,1.32l-1.44,0c0,-0.23 -0.07,-0.46 -0.22,-0.68c-0.13,-0.22 -0.33,-0.41 -0.6,-0.55c-0.26,-0.15 -0.58,-0.22 -0.96,-0.22c-0.4,0 -0.72,0.06 -0.97,0.19c-0.25,0.11 -0.43,0.27 -0.54,0.46c-0.11,0.18 -0.17,0.38 -0.17,0.59c0,0.16 0.03,0.3 0.08,0.42c0.06,0.12 0.16,0.23 0.3,0.34c0.14,0.1 0.33,0.19 0.59,0.28c0.26,0.09 0.58,0.18 0.98,0.27c0.69,0.15 1.26,0.34 1.71,0.56c0.45,0.22 0.78,0.48 1,0.8c0.22,0.32 0.33,0.7 0.33,1.16c0,0.37 -0.08,0.71 -0.24,1.01c-0.15,0.31 -0.37,0.58 -0.66,0.8c-0.29,0.22 -0.63,0.39 -1.03,0.52c-0.4,0.12 -0.85,0.18 -1.34,0.18c-0.74,0 -1.37,-0.14 -1.89,-0.4c-0.52,-0.27 -0.91,-0.61 -1.17,-1.03c-0.27,-0.42 -0.4,-0.87 -0.4,-1.34l1.45,0c0.02,0.4 0.14,0.71 0.35,0.95c0.21,0.22 0.46,0.39 0.76,0.49c0.3,0.09 0.6,0.14 0.9,0.14c0.4,0 0.73,-0.05 0.99,-0.16c0.27,-0.1 0.48,-0.25 0.62,-0.43c0.14,-0.18 0.21,-0.39 0.21,-0.62zm4.79,-9.76l0,12l-1.44,0l0,-12l1.44,0zm-0.34,7.45l-0.6,-0.02c0,-0.58 0.09,-1.11 0.25,-1.6c0.17,-0.5 0.4,-0.93 0.71,-1.29c0.3,-0.37 0.66,-0.65 1.07,-0.85c0.43,-0.2 0.89,-0.3 1.4,-0.3c0.42,0 0.79,0.06 1.13,0.17c0.33,0.11 0.61,0.29 0.85,0.53c0.24,0.25 0.42,0.57 0.55,0.96c0.12,0.38 0.18,0.85 0.18,1.41l0,5.54l-1.45,0l0,-5.56c0,-0.44 -0.06,-0.79 -0.19,-1.06c-0.14,-0.27 -0.33,-0.46 -0.58,-0.58c-0.25,-0.13 -0.55,-0.19 -0.92,-0.19c-0.36,0 -0.68,0.08 -0.98,0.23c-0.29,0.15 -0.55,0.35 -0.76,0.62c-0.21,0.27 -0.37,0.57 -0.49,0.92c-0.12,0.33 -0.17,0.69 -0.17,1.07zm9.28,-3.9l0,8.45l-1.46,0l0,-8.45l1.46,0zm-1.56,-2.24c0,-0.24 0.06,-0.44 0.21,-0.6c0.14,-0.16 0.35,-0.24 0.64,-0.24c0.27,0 0.48,0.08 0.63,0.24c0.15,0.16 0.23,0.36 0.23,0.6c0,0.22 -0.08,0.41 -0.23,0.57c-0.15,0.16 -0.36,0.24 -0.63,0.24c-0.29,0 -0.5,-0.08 -0.64,-0.24c-0.15,-0.16 -0.21,-0.35 -0.21,-0.57zm5.32,3.57l0,7.12l-1.44,0l0,-8.45l1.4,0l0.04,1.33zm2.64,-1.38l0,1.34c-0.12,-0.02 -0.24,-0.04 -0.35,-0.04c-0.1,-0.01 -0.22,-0.02 -0.36,-0.02c-0.33,0 -0.63,0.05 -0.88,0.16c-0.25,0.1 -0.47,0.25 -0.65,0.44c-0.18,0.18 -0.32,0.41 -0.42,0.67c-0.1,0.25 -0.16,0.53 -0.2,0.84l-0.4,0.24c0,-0.51 0.05,-1 0.15,-1.44c0.1,-0.45 0.26,-0.85 0.47,-1.19c0.22,-0.35 0.49,-0.62 0.82,-0.81c0.33,-0.2 0.73,-0.3 1.18,-0.3c0.11,0 0.23,0.01 0.36,0.04c0.14,0.02 0.23,0.04 0.28,0.07zm5.27,0.05l0,1.11l-4.57,0l0,-1.11l4.57,0zm-3.02,-2.06l1.44,0l0,8.42c0,0.28 0.05,0.5 0.13,0.65c0.09,0.14 0.21,0.24 0.35,0.28c0.14,0.05 0.29,0.07 0.45,0.07c0.12,0 0.25,-0.01 0.38,-0.03c0.13,-0.02 0.23,-0.04 0.3,-0.06l0.01,1.18c-0.12,0.04 -0.27,0.07 -0.46,0.1c-0.18,0.04 -0.4,0.06 -0.66,0.06c-0.35,0 -0.68,-0.07 -0.97,-0.22c-0.3,-0.13 -0.54,-0.37 -0.72,-0.7c-0.17,-0.33 -0.25,-0.78 -0.25,-1.34l0,-8.41zm9.64,8.27c0,-0.21 -0.05,-0.4 -0.14,-0.58c-0.09,-0.18 -0.28,-0.35 -0.56,-0.49c-0.28,-0.15 -0.69,-0.28 -1.25,-0.39c-0.47,-0.1 -0.89,-0.22 -1.27,-0.36c-0.38,-0.13 -0.7,-0.29 -0.96,-0.49c-0.26,-0.19 -0.46,-0.42 -0.61,-0.68c-0.13,-0.26 -0.21,-0.56 -0.21,-0.91c0,-0.33 0.08,-0.65 0.22,-0.95c0.15,-0.29 0.36,-0.56 0.64,-0.78c0.27,-0.23 0.6,-0.41 0.99,-0.54c0.38,-0.13 0.81,-0.2 1.29,-0.2c0.67,0 1.25,0.12 1.73,0.36c0.48,0.24 0.85,0.56 1.1,0.96c0.26,0.4 0.39,0.84 0.39,1.32l-1.45,0c0,-0.23 -0.07,-0.46 -0.21,-0.68c-0.14,-0.22 -0.34,-0.41 -0.6,-0.55c-0.26,-0.15 -0.58,-0.22 -0.96,-0.22c-0.4,0 -0.73,0.06 -0.98,0.19c-0.24,0.11 -0.42,0.27 -0.54,0.46c-0.11,0.18 -0.16,0.38 -0.16,0.59c0,0.16 0.02,0.3 0.08,0.42c0.05,0.12 0.15,0.23 0.29,0.34c0.14,0.1 0.34,0.19 0.6,0.28c0.25,0.09 0.58,0.18 0.97,0.27c0.7,0.15 1.27,0.34 1.71,0.56c0.45,0.22 0.79,0.48 1,0.8c0.22,0.32 0.33,0.7 0.33,1.16c0,0.37 -0.08,0.71 -0.23,1.01c-0.15,0.31 -0.38,0.58 -0.67,0.8c-0.28,0.22 -0.63,0.39 -1.03,0.52c-0.39,0.12 -0.84,0.18 -1.33,0.18c-0.75,0 -1.38,-0.14 -1.89,-0.4c-0.52,-0.27 -0.91,-0.61 -1.18,-1.03c-0.26,-0.42 -0.4,-0.87 -0.4,-1.34l1.46,0c0.02,0.4 0.13,0.71 0.34,0.95c0.21,0.22 0.47,0.39 0.77,0.49c0.3,0.09 0.6,0.14 0.9,0.14c0.39,0 0.72,-0.05 0.99,-0.16c0.27,-0.1 0.48,-0.25 0.62,-0.43c0.14,-0.18 0.21,-0.39 0.21,-0.62z" fill="#030D2D" id="svg_8"/>
  <path d="m47.35,262l-2.37,0l0.01,-1.23l2.36,0c0.81,0 1.49,-0.17 2.03,-0.5c0.54,-0.35 0.95,-0.83 1.22,-1.44c0.28,-0.62 0.42,-1.35 0.42,-2.17l0,-0.7c0,-0.65 -0.08,-1.23 -0.24,-1.73c-0.15,-0.51 -0.38,-0.94 -0.69,-1.29c-0.3,-0.36 -0.67,-0.63 -1.11,-0.81c-0.43,-0.18 -0.93,-0.27 -1.49,-0.27l-2.56,0l0,-1.23l2.56,0c0.75,0 1.43,0.12 2.04,0.37c0.62,0.25 1.14,0.6 1.59,1.07c0.45,0.46 0.79,1.03 1.03,1.69c0.24,0.65 0.36,1.39 0.36,2.22l0,0.68c0,0.82 -0.12,1.56 -0.36,2.22c-0.24,0.66 -0.59,1.22 -1.04,1.68c-0.45,0.47 -0.99,0.82 -1.63,1.07c-0.63,0.25 -1.34,0.37 -2.13,0.37zm-1.57,-11.37l0,11.37l-1.51,0l0,-11.37l1.51,0zm8.39,7.24l0,-0.18c0,-0.61 0.09,-1.18 0.27,-1.7c0.17,-0.52 0.43,-0.98 0.76,-1.36c0.34,-0.4 0.74,-0.7 1.21,-0.91c0.48,-0.22 1.01,-0.33 1.6,-0.33c0.59,0 1.13,0.11 1.6,0.33c0.48,0.21 0.88,0.51 1.22,0.91c0.34,0.38 0.59,0.84 0.77,1.36c0.18,0.52 0.27,1.09 0.27,1.7l0,0.18c0,0.61 -0.09,1.17 -0.27,1.69c-0.18,0.52 -0.43,0.98 -0.77,1.37c-0.34,0.38 -0.74,0.69 -1.21,0.91c-0.47,0.21 -1,0.32 -1.6,0.32c-0.59,0 -1.12,-0.11 -1.6,-0.32c-0.47,-0.22 -0.88,-0.53 -1.22,-0.91c-0.33,-0.39 -0.59,-0.85 -0.76,-1.37c-0.18,-0.52 -0.27,-1.08 -0.27,-1.69zm1.45,-0.18l0,0.18c0,0.42 0.05,0.82 0.15,1.19c0.09,0.37 0.24,0.7 0.44,0.99c0.2,0.28 0.46,0.51 0.76,0.68c0.3,0.16 0.65,0.24 1.05,0.24c0.4,0 0.75,-0.08 1.04,-0.24c0.3,-0.17 0.55,-0.4 0.75,-0.68c0.2,-0.29 0.35,-0.62 0.45,-0.99c0.1,-0.37 0.15,-0.77 0.15,-1.19l0,-0.18c0,-0.42 -0.05,-0.81 -0.15,-1.18c-0.1,-0.38 -0.25,-0.71 -0.46,-0.99c-0.19,-0.3 -0.44,-0.52 -0.75,-0.69c-0.29,-0.17 -0.64,-0.25 -1.04,-0.25c-0.4,0 -0.75,0.08 -1.05,0.25c-0.3,0.17 -0.55,0.39 -0.75,0.69c-0.2,0.28 -0.35,0.61 -0.44,0.99c-0.1,0.37 -0.15,0.76 -0.15,1.18zm9.5,-2.46l0,6.77l-1.46,0l0,-8.45l1.38,0l0.08,1.68zm-0.3,2.22l-0.67,-0.02c0,-0.58 0.08,-1.11 0.23,-1.6c0.14,-0.5 0.36,-0.93 0.64,-1.29c0.29,-0.37 0.65,-0.65 1.07,-0.85c0.43,-0.2 0.93,-0.3 1.49,-0.3c0.39,0 0.76,0.06 1.09,0.17c0.34,0.11 0.62,0.29 0.87,0.53c0.24,0.24 0.43,0.54 0.57,0.92c0.13,0.37 0.2,0.83 0.2,1.36l0,5.63l-1.44,0l0,-5.56c0,-0.44 -0.08,-0.8 -0.23,-1.06c-0.15,-0.27 -0.35,-0.46 -0.62,-0.58c-0.28,-0.13 -0.59,-0.19 -0.96,-0.19c-0.42,0 -0.78,0.08 -1.07,0.23c-0.28,0.15 -0.51,0.35 -0.69,0.62c-0.17,0.27 -0.29,0.57 -0.37,0.92c-0.07,0.33 -0.11,0.69 -0.11,1.07zm5.48,-0.79l-0.97,0.29c0,-0.46 0.08,-0.91 0.22,-1.33c0.16,-0.43 0.37,-0.81 0.65,-1.14c0.29,-0.34 0.64,-0.6 1.06,-0.79c0.41,-0.2 0.89,-0.3 1.43,-0.3c0.45,0 0.85,0.06 1.2,0.18c0.35,0.12 0.65,0.31 0.89,0.56c0.25,0.24 0.43,0.56 0.56,0.94c0.12,0.39 0.18,0.84 0.18,1.37l0,5.56l-1.45,0l0,-5.57c0,-0.47 -0.08,-0.84 -0.23,-1.1c-0.14,-0.27 -0.35,-0.45 -0.62,-0.56c-0.27,-0.11 -0.58,-0.16 -0.95,-0.16c-0.32,0 -0.6,0.05 -0.85,0.16c-0.24,0.11 -0.45,0.26 -0.62,0.46c-0.16,0.18 -0.29,0.4 -0.38,0.65c-0.08,0.24 -0.12,0.5 -0.12,0.78zm12.4,3.9l0,-4.36c0,-0.33 -0.07,-0.62 -0.21,-0.86c-0.13,-0.25 -0.33,-0.45 -0.59,-0.58c-0.27,-0.14 -0.6,-0.2 -0.99,-0.2c-0.36,0 -0.68,0.06 -0.96,0.18c-0.27,0.13 -0.48,0.29 -0.64,0.49c-0.15,0.21 -0.22,0.43 -0.22,0.66l-1.45,0c0,-0.3 0.08,-0.6 0.24,-0.9c0.15,-0.3 0.38,-0.56 0.67,-0.8c0.29,-0.25 0.65,-0.44 1.06,-0.58c0.42,-0.15 0.88,-0.22 1.39,-0.22c0.61,0 1.16,0.11 1.63,0.31c0.47,0.21 0.84,0.53 1.1,0.95c0.28,0.41 0.41,0.94 0.41,1.57l0,3.94c0,0.28 0.02,0.58 0.07,0.9c0.05,0.31 0.13,0.59 0.23,0.82l0,0.12l-1.51,0c-0.07,-0.17 -0.13,-0.39 -0.17,-0.66c-0.04,-0.28 -0.06,-0.55 -0.06,-0.78zm0.25,-3.68l0.01,1.01l-1.46,0c-0.41,0 -0.78,0.03 -1.1,0.1c-0.32,0.07 -0.6,0.16 -0.81,0.29c-0.22,0.13 -0.39,0.3 -0.5,0.49c-0.12,0.2 -0.18,0.42 -0.18,0.68c0,0.27 0.06,0.51 0.18,0.73c0.12,0.22 0.3,0.39 0.54,0.52c0.25,0.13 0.55,0.19 0.9,0.19c0.44,0 0.83,-0.09 1.17,-0.28c0.34,-0.19 0.61,-0.42 0.81,-0.69c0.2,-0.27 0.31,-0.53 0.33,-0.79l0.61,0.7c-0.03,0.22 -0.13,0.46 -0.29,0.73c-0.17,0.26 -0.38,0.52 -0.65,0.76c-0.27,0.24 -0.59,0.44 -0.96,0.6c-0.36,0.16 -0.77,0.24 -1.23,0.24c-0.57,0 -1.08,-0.12 -1.51,-0.34c-0.42,-0.22 -0.76,-0.52 -1,-0.9c-0.23,-0.38 -0.35,-0.8 -0.35,-1.27c0,-0.46 0.09,-0.85 0.27,-1.2c0.17,-0.35 0.43,-0.64 0.76,-0.86c0.34,-0.24 0.74,-0.42 1.21,-0.53c0.46,-0.12 0.99,-0.18 1.57,-0.18l1.68,0zm5.03,-3.33l0,8.45l-1.45,0l0,-8.45l1.45,0zm-1.56,-2.24c0,-0.24 0.07,-0.44 0.21,-0.6c0.15,-0.16 0.36,-0.24 0.64,-0.24c0.28,0 0.49,0.08 0.64,0.24c0.15,0.16 0.22,0.36 0.22,0.6c0,0.22 -0.07,0.41 -0.22,0.57c-0.15,0.16 -0.36,0.24 -0.64,0.24c-0.28,0 -0.49,-0.08 -0.64,-0.24c-0.14,-0.16 -0.21,-0.35 -0.21,-0.57zm5.33,4.04l0,6.65l-1.45,0l0,-8.45l1.37,0l0.08,1.8zm-0.34,2.1l-0.61,-0.02c0.01,-0.58 0.1,-1.11 0.26,-1.6c0.17,-0.5 0.4,-0.93 0.71,-1.29c0.3,-0.37 0.66,-0.65 1.07,-0.85c0.43,-0.2 0.89,-0.3 1.4,-0.3c0.42,0 0.79,0.06 1.13,0.17c0.33,0.11 0.61,0.29 0.85,0.53c0.24,0.25 0.42,0.57 0.55,0.96c0.12,0.38 0.18,0.85 0.18,1.41l0,5.54l-1.45,0l0,-5.56c0,-0.44 -0.07,-0.79 -0.2,-1.06c-0.13,-0.27 -0.32,-0.46 -0.57,-0.58c-0.25,-0.13 -0.55,-0.19 -0.92,-0.19c-0.36,0 -0.68,0.08 -0.98,0.23c-0.29,0.15 -0.55,0.35 -0.76,0.62c-0.21,0.27 -0.37,0.57 -0.49,0.92c-0.12,0.33 -0.17,0.69 -0.17,1.07zm-42.53,19.9l0,6.65l-1.44,0l0,-8.45l1.36,0l0.08,1.8zm-0.34,2.1l-0.6,-0.02c0,-0.58 0.09,-1.11 0.26,-1.6c0.16,-0.5 0.4,-0.93 0.7,-1.29c0.3,-0.37 0.66,-0.65 1.08,-0.85c0.42,-0.2 0.88,-0.3 1.4,-0.3c0.41,0 0.79,0.06 1.12,0.17c0.33,0.11 0.62,0.29 0.85,0.53c0.24,0.25 0.42,0.57 0.55,0.96c0.12,0.38 0.19,0.85 0.19,1.41l0,5.54l-1.46,0l0,-5.56c0,-0.44 -0.06,-0.79 -0.19,-1.06c-0.13,-0.27 -0.32,-0.46 -0.57,-0.58c-0.25,-0.13 -0.56,-0.19 -0.92,-0.19c-0.36,0 -0.69,0.08 -0.99,0.23c-0.29,0.15 -0.54,0.35 -0.76,0.62c-0.21,0.27 -0.37,0.57 -0.49,0.92c-0.11,0.33 -0.17,0.69 -0.17,1.07zm12.73,3.11l0,-4.36c0,-0.33 -0.07,-0.62 -0.21,-0.86c-0.13,-0.25 -0.33,-0.45 -0.59,-0.58c-0.27,-0.14 -0.59,-0.2 -0.99,-0.2c-0.36,0 -0.68,0.06 -0.96,0.18c-0.27,0.13 -0.48,0.29 -0.64,0.49c-0.15,0.21 -0.22,0.43 -0.22,0.66l-1.45,0c0,-0.3 0.08,-0.6 0.24,-0.9c0.15,-0.3 0.38,-0.56 0.67,-0.8c0.29,-0.25 0.65,-0.44 1.06,-0.58c0.42,-0.15 0.88,-0.22 1.39,-0.22c0.61,0 1.16,0.11 1.63,0.31c0.47,0.21 0.84,0.53 1.1,0.95c0.28,0.41 0.41,0.94 0.41,1.57l0,3.94c0,0.28 0.02,0.58 0.07,0.9c0.05,0.31 0.13,0.59 0.23,0.82l0,0.12l-1.51,0c-0.07,-0.17 -0.13,-0.39 -0.17,-0.66c-0.04,-0.28 -0.06,-0.55 -0.06,-0.78zm0.25,-3.68l0.01,1.01l-1.46,0c-0.41,0 -0.78,0.03 -1.1,0.1c-0.32,0.07 -0.59,0.16 -0.81,0.29c-0.22,0.13 -0.39,0.3 -0.5,0.49c-0.12,0.2 -0.18,0.42 -0.18,0.68c0,0.27 0.06,0.51 0.18,0.73c0.12,0.22 0.3,0.39 0.54,0.52c0.25,0.13 0.55,0.19 0.9,0.19c0.44,0 0.83,-0.09 1.17,-0.28c0.34,-0.19 0.61,-0.42 0.81,-0.69c0.2,-0.27 0.31,-0.53 0.33,-0.79l0.61,0.7c-0.03,0.22 -0.13,0.46 -0.29,0.73c-0.16,0.26 -0.38,0.52 -0.65,0.76c-0.27,0.24 -0.59,0.44 -0.95,0.6c-0.37,0.16 -0.78,0.24 -1.24,0.24c-0.57,0 -1.07,-0.12 -1.51,-0.34c-0.42,-0.22 -0.76,-0.52 -1,-0.9c-0.23,-0.38 -0.35,-0.8 -0.35,-1.27c0,-0.46 0.09,-0.85 0.27,-1.2c0.17,-0.35 0.43,-0.64 0.76,-0.86c0.34,-0.24 0.74,-0.42 1.21,-0.53c0.46,-0.12 0.99,-0.18 1.57,-0.18l1.68,0zm4.9,-1.65l0,6.77l-1.45,0l0,-8.45l1.37,0l0.08,1.68zm-0.29,2.22l-0.68,-0.02c0.01,-0.58 0.08,-1.11 0.23,-1.6c0.15,-0.5 0.36,-0.93 0.65,-1.29c0.28,-0.37 0.64,-0.65 1.07,-0.85c0.43,-0.2 0.92,-0.3 1.48,-0.3c0.4,0 0.76,0.06 1.1,0.17c0.33,0.11 0.62,0.29 0.86,0.53c0.25,0.24 0.44,0.54 0.57,0.92c0.14,0.37 0.21,0.83 0.21,1.36l0,5.63l-1.45,0l0,-5.56c0,-0.44 -0.07,-0.8 -0.22,-1.06c-0.15,-0.27 -0.36,-0.46 -0.63,-0.58c-0.27,-0.13 -0.59,-0.19 -0.95,-0.19c-0.43,0 -0.79,0.08 -1.07,0.23c-0.29,0.15 -0.52,0.35 -0.69,0.62c-0.17,0.27 -0.3,0.57 -0.38,0.92c-0.07,0.33 -0.1,0.69 -0.1,1.07zm5.47,-0.79l-0.97,0.29c0.01,-0.46 0.08,-0.91 0.23,-1.33c0.15,-0.43 0.37,-0.81 0.65,-1.14c0.28,-0.34 0.64,-0.6 1.05,-0.79c0.42,-0.2 0.9,-0.3 1.43,-0.3c0.46,0 0.86,0.06 1.21,0.18c0.35,0.12 0.65,0.31 0.89,0.56c0.24,0.24 0.43,0.56 0.55,0.94c0.13,0.39 0.19,0.84 0.19,1.37l0,5.56l-1.45,0l0,-5.57c0,-0.47 -0.08,-0.84 -0.23,-1.1c-0.15,-0.27 -0.36,-0.45 -0.63,-0.56c-0.26,-0.11 -0.58,-0.16 -0.95,-0.16c-0.32,0 -0.6,0.05 -0.84,0.16c-0.25,0.11 -0.45,0.26 -0.62,0.46c-0.17,0.18 -0.29,0.4 -0.38,0.65c-0.09,0.24 -0.13,0.5 -0.13,0.78zm10.92,5.5c-0.59,0 -1.12,-0.1 -1.6,-0.3c-0.47,-0.2 -0.88,-0.49 -1.22,-0.85c-0.34,-0.37 -0.6,-0.8 -0.79,-1.3c-0.18,-0.5 -0.27,-1.05 -0.27,-1.64l0,-0.33c0,-0.68 0.1,-1.3 0.31,-1.83c0.2,-0.54 0.47,-1 0.82,-1.38c0.35,-0.37 0.75,-0.66 1.19,-0.85c0.44,-0.19 0.9,-0.29 1.38,-0.29c0.6,0 1.12,0.11 1.56,0.31c0.44,0.21 0.8,0.5 1.08,0.88c0.29,0.37 0.49,0.8 0.63,1.31c0.13,0.5 0.2,1.05 0.2,1.64l0,0.65l-6.31,0l0,-1.18l4.87,0l0,-0.11c-0.02,-0.37 -0.1,-0.74 -0.24,-1.09c-0.13,-0.36 -0.34,-0.65 -0.62,-0.88c-0.29,-0.23 -0.68,-0.34 -1.17,-0.34c-0.33,0 -0.63,0.07 -0.91,0.21c-0.28,0.13 -0.51,0.34 -0.71,0.61c-0.2,0.27 -0.35,0.6 -0.46,0.99c-0.11,0.39 -0.17,0.84 -0.17,1.35l0,0.33c0,0.4 0.06,0.78 0.17,1.13c0.11,0.35 0.28,0.66 0.49,0.93c0.22,0.26 0.48,0.47 0.79,0.62c0.31,0.15 0.67,0.23 1.06,0.23c0.51,0 0.94,-0.11 1.3,-0.32c0.35,-0.2 0.66,-0.48 0.93,-0.83l0.87,0.69c-0.18,0.28 -0.41,0.54 -0.69,0.79c-0.28,0.25 -0.63,0.46 -1.04,0.61c-0.41,0.16 -0.89,0.24 -1.45,0.24zm9.9,-2.4c0,-0.21 -0.04,-0.4 -0.14,-0.58c-0.09,-0.18 -0.27,-0.35 -0.55,-0.49c-0.28,-0.15 -0.7,-0.28 -1.25,-0.39c-0.47,-0.1 -0.9,-0.22 -1.28,-0.36c-0.37,-0.13 -0.69,-0.29 -0.96,-0.49c-0.26,-0.19 -0.46,-0.42 -0.6,-0.68c-0.14,-0.26 -0.21,-0.56 -0.21,-0.91c0,-0.33 0.07,-0.65 0.22,-0.95c0.15,-0.29 0.36,-0.56 0.63,-0.78c0.28,-0.23 0.61,-0.41 0.99,-0.54c0.39,-0.13 0.82,-0.2 1.29,-0.2c0.68,0 1.26,0.12 1.74,0.36c0.48,0.24 0.84,0.56 1.1,0.96c0.25,0.4 0.38,0.84 0.38,1.32l-1.44,0c0,-0.23 -0.07,-0.46 -0.21,-0.68c-0.14,-0.22 -0.34,-0.41 -0.61,-0.55c-0.26,-0.15 -0.58,-0.22 -0.96,-0.22c-0.4,0 -0.72,0.06 -0.97,0.19c-0.25,0.11 -0.43,0.27 -0.54,0.46c-0.11,0.18 -0.17,0.38 -0.17,0.59c0,0.16 0.03,0.3 0.08,0.42c0.06,0.12 0.16,0.23 0.3,0.34c0.14,0.1 0.34,0.19 0.59,0.28c0.26,0.09 0.58,0.18 0.98,0.27c0.69,0.15 1.26,0.34 1.71,0.56c0.45,0.22 0.78,0.48 1,0.8c0.22,0.32 0.33,0.7 0.33,1.16c0,0.37 -0.08,0.71 -0.24,1.01c-0.15,0.31 -0.37,0.58 -0.66,0.8c-0.29,0.22 -0.63,0.39 -1.03,0.52c-0.4,0.12 -0.84,0.18 -1.34,0.18c-0.74,0 -1.37,-0.14 -1.89,-0.4c-0.51,-0.27 -0.91,-0.61 -1.17,-1.03c-0.27,-0.42 -0.4,-0.87 -0.4,-1.34l1.45,0c0.02,0.4 0.14,0.71 0.35,0.95c0.21,0.22 0.46,0.39 0.76,0.49c0.31,0.09 0.6,0.14 0.9,0.14c0.4,0 0.73,-0.05 0.99,-0.16c0.27,-0.1 0.48,-0.25 0.62,-0.43c0.14,-0.18 0.21,-0.39 0.21,-0.62z" fill="#030D2D" id="svg_9"/>
  <path d="m117.86,175.2l4.18,10.45l4.18,-10.45l2.19,0l0,12.8l-1.69,0l0,-4.98l0.16,-5.38l-4.2,10.36l-1.29,0l-4.19,-10.34l0.16,5.36l0,4.98l-1.68,0l0,-12.8l2.18,0zm12.85,7.96c0,-0.93 0.18,-1.77 0.54,-2.52c0.37,-0.74 0.88,-1.32 1.53,-1.72c0.66,-0.4 1.4,-0.61 2.24,-0.61c1.3,0 2.34,0.45 3.14,1.35c0.8,0.9 1.2,2.09 1.2,3.58l0,0.11c0,0.93 -0.17,1.76 -0.53,2.5c-0.35,0.73 -0.86,1.3 -1.52,1.71c-0.66,0.41 -1.41,0.62 -2.27,0.62c-1.29,0 -2.34,-0.45 -3.14,-1.35c-0.8,-0.89 -1.19,-2.08 -1.19,-3.56l0,-0.11zm1.63,0.19c0,1.06 0.24,1.9 0.73,2.54c0.49,0.64 1.15,0.96 1.97,0.96c0.83,0 1.48,-0.32 1.97,-0.97c0.48,-0.65 0.73,-1.56 0.73,-2.72c0,-1.05 -0.25,-1.89 -0.75,-2.53c-0.49,-0.65 -1.15,-0.98 -1.97,-0.98c-0.8,0 -1.45,0.32 -1.94,0.96c-0.49,0.64 -0.74,1.55 -0.74,2.74zm10.6,-4.86l0.05,1.2c0.73,-0.92 1.68,-1.38 2.85,-1.38c2.01,0 3.02,1.14 3.04,3.41l0,6.28l-1.62,0l0,-6.29c-0.01,-0.69 -0.17,-1.2 -0.48,-1.52c-0.3,-0.33 -0.78,-0.5 -1.43,-0.5c-0.53,0 -0.99,0.15 -1.39,0.43c-0.4,0.28 -0.71,0.65 -0.93,1.1l0,6.78l-1.63,0l0,-9.51l1.54,0zm10.6,-2.3l0,2.3l1.77,0l0,1.26l-1.77,0l0,5.9c0,0.38 0.08,0.66 0.24,0.86c0.16,0.18 0.43,0.28 0.81,0.28c0.18,0 0.44,-0.04 0.77,-0.11l0,1.32c-0.43,0.12 -0.84,0.18 -1.25,0.18c-0.73,0 -1.27,-0.22 -1.64,-0.66c-0.37,-0.44 -0.56,-1.07 -0.56,-1.87l0,-5.9l-1.73,0l0,-1.26l1.73,0l0,-2.3l1.63,0zm5.31,3.45c0.72,-0.88 1.66,-1.33 2.81,-1.33c2.01,0 3.03,1.14 3.04,3.41l0,6.28l-1.62,0l0,-6.29c-0.01,-0.69 -0.17,-1.2 -0.48,-1.52c-0.3,-0.33 -0.78,-0.5 -1.43,-0.5c-0.53,0 -0.99,0.15 -1.39,0.43c-0.4,0.28 -0.71,0.65 -0.93,1.1l0,6.78l-1.63,0l0,-13.5l1.63,0l0,5.14zm10.05,8.36l-1.62,0l0,-13.5l1.62,0l0,13.5zm5.73,-2.38l2.21,-7.13l1.74,0l-3.82,10.98c-0.6,1.58 -1.54,2.37 -2.82,2.37l-0.31,-0.03l-0.61,-0.11l0,-1.32l0.44,0.04c0.55,0 0.98,-0.11 1.28,-0.34c0.32,-0.22 0.57,-0.63 0.77,-1.22l0.36,-0.96l-3.39,-9.41l1.77,0l2.38,7.13z" fill="#030D2D" id="svg_10"/>
  <path d="m51.7,343.66l-5.36,0l-1.21,3.34l-1.74,0l4.89,-12.8l1.48,0l4.89,12.8l-1.73,0l-1.22,-3.34zm-4.85,-1.39l4.35,0l-2.18,-5.98l-2.17,5.98zm10.81,-4.78l0.05,1.2c0.73,-0.92 1.68,-1.38 2.85,-1.38c2.01,0 3.02,1.14 3.04,3.41l0,6.28l-1.63,0l0,-6.29c0,-0.69 -0.16,-1.2 -0.47,-1.52c-0.31,-0.33 -0.78,-0.5 -1.43,-0.5c-0.53,0 -0.99,0.14 -1.39,0.43c-0.4,0.28 -0.71,0.65 -0.93,1.1l0,6.78l-1.63,0l0,-9.51l1.54,0zm9.93,0l0.05,1.2c0.73,-0.92 1.68,-1.38 2.85,-1.38c2.01,0 3.02,1.14 3.04,3.41l0,6.28l-1.62,0l0,-6.29c-0.01,-0.69 -0.17,-1.2 -0.48,-1.52c-0.3,-0.33 -0.78,-0.5 -1.43,-0.5c-0.53,0 -0.99,0.14 -1.39,0.43c-0.4,0.28 -0.71,0.65 -0.93,1.1l0,6.78l-1.63,0l0,-9.51l1.54,0zm14.26,8.57c-0.63,0.74 -1.56,1.12 -2.78,1.12c-1.02,0 -1.79,-0.3 -2.32,-0.88c-0.53,-0.6 -0.8,-1.47 -0.8,-2.62l0,-6.19l1.62,0l0,6.14c0,1.44 0.59,2.17 1.76,2.17c1.24,0 2.07,-0.47 2.48,-1.39l0,-6.92l1.63,0l0,9.51l-1.55,0l-0.04,-0.94zm9.94,0.94c-0.1,-0.19 -0.17,-0.52 -0.23,-1c-0.76,0.78 -1.66,1.18 -2.71,1.18c-0.94,0 -1.71,-0.27 -2.31,-0.8c-0.6,-0.53 -0.9,-1.2 -0.9,-2.02c0,-0.99 0.38,-1.75 1.13,-2.3c0.75,-0.55 1.81,-0.83 3.18,-0.83l1.58,0l0,-0.74c0,-0.57 -0.17,-1.02 -0.51,-1.36c-0.34,-0.34 -0.84,-0.51 -1.5,-0.51c-0.58,0 -1.07,0.15 -1.46,0.44c-0.39,0.3 -0.59,0.65 -0.59,1.07l-1.63,0c0,-0.48 0.16,-0.94 0.5,-1.37c0.34,-0.45 0.79,-0.8 1.37,-1.06c0.58,-0.26 1.21,-0.39 1.91,-0.39c1.09,0 1.95,0.28 2.57,0.83c0.62,0.55 0.94,1.3 0.97,2.26l0,4.38c0,0.87 0.11,1.56 0.33,2.08l0,0.14l-1.7,0zm-2.7,-1.24c0.51,0 0.99,-0.13 1.45,-0.39c0.46,-0.27 0.79,-0.61 0.99,-1.03l0,-1.95l-1.27,0c-2,0 -2.99,0.58 -2.99,1.74c0,0.51 0.17,0.91 0.51,1.2c0.34,0.29 0.77,0.43 1.31,0.43zm8.38,1.24l-1.62,0l0,-13.5l1.62,0l0,13.5z" fill="#030D2D" id="svg_11"/>
  <path d="m207.81,318.01c0,1.26 -0.21,2.35 -0.63,3.29c-0.42,0.93 -1.02,1.64 -1.79,2.14c-0.78,0.49 -1.68,0.74 -2.71,0.74c-1.01,0 -1.9,-0.25 -2.68,-0.74c-0.78,-0.5 -1.39,-1.21 -1.82,-2.12c-0.43,-0.92 -0.65,-1.98 -0.66,-3.19l0,-0.92c0,-1.23 0.21,-2.32 0.64,-3.27c0.43,-0.94 1.03,-1.66 1.81,-2.16c0.79,-0.5 1.68,-0.75 2.69,-0.75c1.03,0 1.93,0.25 2.71,0.74c0.78,0.5 1.39,1.21 1.81,2.16c0.42,0.94 0.63,2.03 0.63,3.28l0,0.8zm-1.68,-0.82c0,-1.52 -0.3,-2.68 -0.91,-3.49c-0.61,-0.82 -1.46,-1.22 -2.56,-1.22c-1.06,0 -1.91,0.4 -2.52,1.22c-0.61,0.81 -0.92,1.93 -0.94,3.37l0,0.94c0,1.48 0.31,2.63 0.92,3.48c0.62,0.83 1.48,1.25 2.56,1.25c1.09,0 1.93,-0.39 2.53,-1.18c0.6,-0.8 0.91,-1.94 0.92,-3.42l0,-0.95zm7.77,5.66c0.58,0 1.09,-0.18 1.52,-0.53c0.44,-0.35 0.68,-0.79 0.73,-1.32l1.53,0c-0.03,0.55 -0.21,1.07 -0.56,1.56c-0.35,0.49 -0.81,0.88 -1.39,1.18c-0.57,0.29 -1.18,0.44 -1.83,0.44c-1.29,0 -2.32,-0.43 -3.09,-1.3c-0.76,-0.86 -1.14,-2.05 -1.14,-3.55l0,-0.27c0,-0.93 0.17,-1.75 0.51,-2.47c0.34,-0.72 0.82,-1.28 1.46,-1.68c0.63,-0.4 1.39,-0.6 2.26,-0.6c1.06,0 1.95,0.32 2.65,0.96c0.71,0.64 1.09,1.47 1.13,2.49l-1.53,0c-0.05,-0.62 -0.29,-1.12 -0.71,-1.51c-0.41,-0.4 -0.93,-0.6 -1.54,-0.6c-0.83,0 -1.47,0.3 -1.93,0.9c-0.45,0.59 -0.68,1.45 -0.68,2.57l0,0.31c0,1.09 0.23,1.94 0.68,2.53c0.45,0.59 1.09,0.89 1.93,0.89zm9.42,0c0.59,0 1.09,-0.18 1.53,-0.53c0.43,-0.35 0.67,-0.79 0.72,-1.32l1.53,0c-0.03,0.55 -0.21,1.07 -0.56,1.56c-0.34,0.49 -0.81,0.88 -1.39,1.18c-0.57,0.29 -1.18,0.44 -1.83,0.44c-1.29,0 -2.32,-0.43 -3.09,-1.3c-0.76,-0.86 -1.14,-2.05 -1.14,-3.55l0,-0.27c0,-0.93 0.17,-1.75 0.51,-2.47c0.34,-0.72 0.83,-1.28 1.46,-1.68c0.64,-0.4 1.39,-0.6 2.26,-0.6c1.06,0 1.95,0.32 2.65,0.96c0.71,0.64 1.09,1.47 1.13,2.49l-1.53,0c-0.05,-0.62 -0.29,-1.12 -0.71,-1.51c-0.41,-0.4 -0.93,-0.6 -1.54,-0.6c-0.83,0 -1.47,0.3 -1.93,0.9c-0.45,0.59 -0.67,1.45 -0.67,2.57l0,0.31c0,1.09 0.22,1.94 0.67,2.53c0.45,0.59 1.1,0.89 1.93,0.89zm11.48,1.15c-0.09,-0.19 -0.17,-0.52 -0.23,-1c-0.75,0.78 -1.65,1.18 -2.7,1.18c-0.94,0 -1.71,-0.27 -2.31,-0.8c-0.6,-0.53 -0.9,-1.2 -0.9,-2.02c0,-0.99 0.37,-1.75 1.12,-2.3c0.76,-0.55 1.82,-0.83 3.19,-0.83l1.58,0l0,-0.74c0,-0.57 -0.17,-1.02 -0.51,-1.36c-0.34,-0.34 -0.84,-0.51 -1.5,-0.51c-0.58,0 -1.07,0.15 -1.46,0.44c-0.39,0.3 -0.59,0.65 -0.59,1.07l-1.64,0c0,-0.48 0.17,-0.94 0.5,-1.37c0.34,-0.45 0.8,-0.8 1.38,-1.06c0.58,-0.26 1.21,-0.39 1.9,-0.39c1.1,0 1.96,0.28 2.58,0.83c0.62,0.55 0.94,1.3 0.97,2.26l0,4.38c0,0.87 0.11,1.56 0.33,2.08l0,0.14l-1.71,0zm-2.7,-1.24c0.52,0 1,-0.13 1.46,-0.39c0.45,-0.27 0.78,-0.61 0.99,-1.03l0,-1.95l-1.28,0c-1.99,0 -2.98,0.58 -2.98,1.74c0,0.51 0.17,0.91 0.51,1.2c0.34,0.29 0.77,0.43 1.3,0.43zm12.16,-1.28c0,-0.44 -0.17,-0.78 -0.5,-1.02c-0.33,-0.25 -0.91,-0.46 -1.73,-0.64c-0.82,-0.17 -1.47,-0.38 -1.96,-0.63c-0.48,-0.24 -0.84,-0.54 -1.07,-0.88c-0.23,-0.34 -0.35,-0.74 -0.35,-1.21c0,-0.78 0.33,-1.44 0.99,-1.98c0.66,-0.54 1.5,-0.81 2.53,-0.81c1.08,0 1.95,0.28 2.62,0.84c0.67,0.56 1.01,1.27 1.01,2.14l-1.64,0c0,-0.45 -0.19,-0.83 -0.57,-1.16c-0.37,-0.32 -0.85,-0.48 -1.42,-0.48c-0.59,0 -1.06,0.13 -1.39,0.39c-0.33,0.26 -0.5,0.59 -0.5,1.01c0,0.39 0.16,0.69 0.47,0.89c0.31,0.19 0.87,0.38 1.67,0.57c0.82,0.18 1.48,0.39 1.98,0.65c0.51,0.25 0.88,0.55 1.12,0.91c0.24,0.35 0.37,0.78 0.37,1.29c0,0.85 -0.34,1.54 -1.02,2.05c-0.68,0.51 -1.56,0.77 -2.65,0.77c-0.76,0 -1.43,-0.14 -2.02,-0.41c-0.59,-0.27 -1.05,-0.64 -1.38,-1.12c-0.33,-0.49 -0.49,-1.01 -0.49,-1.58l1.62,0c0.03,0.55 0.25,0.98 0.65,1.3c0.41,0.32 0.95,0.48 1.62,0.48c0.62,0 1.11,-0.12 1.48,-0.37c0.37,-0.25 0.56,-0.59 0.56,-1zm5.51,2.52l-1.62,0l0,-9.51l1.62,0l0,9.51zm-1.76,-12.03c0,-0.27 0.08,-0.49 0.24,-0.67c0.16,-0.18 0.41,-0.27 0.72,-0.27c0.32,0 0.56,0.09 0.72,0.27c0.17,0.18 0.25,0.4 0.25,0.67c0,0.26 -0.08,0.48 -0.25,0.66c-0.16,0.17 -0.4,0.26 -0.72,0.26c-0.31,0 -0.56,-0.09 -0.72,-0.26c-0.16,-0.18 -0.24,-0.4 -0.24,-0.66zm3.94,7.19c0,-0.93 0.18,-1.77 0.55,-2.52c0.37,-0.74 0.88,-1.32 1.53,-1.72c0.65,-0.4 1.4,-0.61 2.24,-0.61c1.29,0 2.34,0.45 3.13,1.35c0.81,0.9 1.21,2.09 1.21,3.58l0,0.11c0,0.93 -0.18,1.76 -0.54,2.5c-0.35,0.73 -0.86,1.3 -1.52,1.71c-0.65,0.41 -1.41,0.62 -2.27,0.62c-1.28,0 -2.33,-0.45 -3.13,-1.35c-0.8,-0.89 -1.2,-2.08 -1.2,-3.56l0,-0.11zm1.64,0.19c0,1.05 0.24,1.9 0.72,2.54c0.5,0.64 1.15,0.96 1.97,0.96c0.83,0 1.49,-0.32 1.97,-0.97c0.49,-0.65 0.73,-1.56 0.73,-2.72c0,-1.05 -0.25,-1.89 -0.74,-2.53c-0.5,-0.65 -1.15,-0.98 -1.97,-0.98c-0.81,0 -1.45,0.32 -1.95,0.96c-0.49,0.64 -0.73,1.55 -0.73,2.74zm10.6,-4.86l0.05,1.2c0.72,-0.92 1.67,-1.38 2.85,-1.38c2.01,0 3.02,1.14 3.04,3.41l0,6.28l-1.63,0l0,-6.29c0,-0.69 -0.16,-1.2 -0.47,-1.52c-0.31,-0.33 -0.79,-0.5 -1.44,-0.5c-0.52,0 -0.99,0.14 -1.39,0.43c-0.39,0.28 -0.7,0.65 -0.93,1.1l0,6.78l-1.62,0l0,-9.51l1.54,0zm14.26,9.51c-0.09,-0.19 -0.17,-0.52 -0.23,-1c-0.75,0.78 -1.66,1.18 -2.71,1.18c-0.93,0 -1.7,-0.27 -2.31,-0.8c-0.59,-0.53 -0.89,-1.2 -0.89,-2.02c0,-0.99 0.37,-1.75 1.12,-2.3c0.76,-0.55 1.82,-0.83 3.18,-0.83l1.58,0l0,-0.74c0,-0.57 -0.17,-1.02 -0.5,-1.36c-0.34,-0.34 -0.84,-0.51 -1.51,-0.51c-0.58,0 -1.06,0.15 -1.46,0.44c-0.39,0.3 -0.59,0.65 -0.59,1.07l-1.63,0c0,-0.48 0.17,-0.94 0.5,-1.37c0.34,-0.45 0.8,-0.8 1.37,-1.06c0.58,-0.26 1.22,-0.39 1.91,-0.39c1.1,0 1.95,0.28 2.57,0.83c0.63,0.55 0.95,1.3 0.97,2.26l0,4.38c0,0.87 0.11,1.56 0.33,2.08l0,0.14l-1.7,0zm-2.7,-1.24c0.51,0 1,-0.13 1.45,-0.39c0.46,-0.27 0.79,-0.61 0.99,-1.03l0,-1.95l-1.27,0c-1.99,0 -2.99,0.58 -2.99,1.74c0,0.51 0.17,0.91 0.51,1.2c0.34,0.29 0.78,0.43 1.31,0.43zm8.39,1.24l-1.63,0l0,-13.5l1.63,0l0,13.5z" fill="#030D2D" id="svg_12"/>
  <path d="m227,84.5c0,43.91 -36.04,79.5 -80.5,79.5c-44.46,0 -80.5,-35.59 -80.5,-79.5c0,-43.91 36.04,-79.5 80.5,-79.5c44.46,0 80.5,35.59 80.5,79.5z" fill="#000000" fill-opacity="0" id="svg_4" opacity="0.29" stroke="#52a336" stroke-width="0" transform="matrix(1 0 0 1 0 0)"/>
 </g>
</svg>