<svg width="163" height="139" viewBox="0 0 163 139" fill="none" xmlns="http://www.w3.org/2000/svg">
<path d="M146.7 32.9099H130.285C128.784 32.9099 127.568 34.0581 127.568 35.4743V39.5407C123.043 39.6371 113.218 39.402 105.527 36.0828C94.0208 31.1193 76.6556 32.0572 69.795 38.0198C69.2924 38.4565 68.7626 38.9289 68.2133 39.4272H35.4334V35.4743C35.4334 34.0581 34.217 32.9099 32.7167 32.9099H16.3C14.7997 32.9099 13.5833 34.0581 13.5833 35.4743V89.2244C13.5833 90.6406 14.7997 91.7888 16.3 91.7888H32.7167C33.8552 91.7888 34.8234 91.125 35.2275 90.1871L66.5703 116.496C70.0072 119.381 74.3396 120.978 78.6334 120.978C79.0685 120.978 79.505 120.962 79.9387 120.928C83.6196 120.647 85.8907 119.292 87.3159 117.777C89.3703 119.278 91.7951 120.109 94.2238 120.109C95.1178 120.109 96.0119 120.002 96.8834 119.78C98.4543 119.384 101.395 118.157 102.605 114.78C104.241 115.902 106.131 116.483 108.025 116.483C110.574 116.483 113.106 115.485 114.942 113.535C116.37 112.018 117.094 110.149 117.213 108.257C119.176 108.17 121.184 107.496 122.686 106.002C125.39 103.312 127.377 98.4188 124.078 93.4804C124.023 93.3988 123.938 93.2869 123.845 93.1674C125.161 92.1253 126.277 90.827 127.307 89.6113C127.395 89.5075 127.489 89.3972 127.582 89.2881C127.619 90.6731 128.808 91.7888 130.285 91.7888H146.7C148.2 91.7888 149.417 90.6406 149.417 89.2244V35.4743C149.417 34.0581 148.2 32.9099 146.7 32.9099ZM30.0001 86.66H19.0167V38.0386H30.0001V86.66ZM118.744 102.472C117.951 103.261 116.551 103.247 115.752 102.983C115.325 102.36 114.841 101.764 114.231 101.244L93.1175 83.2255C92.0045 82.2763 90.2854 82.3565 89.2812 83.4083C88.2744 84.4588 88.362 86.0803 89.4749 87.0294L110.587 105.048C112.139 106.372 112.271 108.651 110.881 110.127C109.501 111.595 107.165 111.761 105.569 110.502L84.0389 93.5505C82.8888 92.6452 81.1724 92.7892 80.212 93.8773C79.2516 94.9654 79.4068 96.5819 80.5582 97.4897L97.7038 110.989C97.9026 114.175 96.3004 114.619 95.4773 114.825C93.8046 115.255 91.8387 114.757 90.3371 113.532L73.4044 99.8187C72.2649 98.8959 70.5511 99.0198 69.5735 100.094C68.5958 101.17 68.7272 102.789 69.8653 103.71L83.1651 114.482C82.5269 115.101 81.4559 115.667 79.4983 115.817C76.2656 116.063 72.8645 114.917 70.181 112.664L35.4334 83.4978V44.5559H62.7916C60.4563 46.8319 58.125 49.1694 56.1719 51.1522C52.0969 55.2892 52.1672 61.7126 56.3297 65.7758C60.4299 69.7776 67.1752 70.0994 71.6826 66.5133L82.6965 57.7496C96.8595 72.228 118.021 94.0852 119.483 96.2163C121.482 99.2101 119.633 101.588 118.744 102.472ZM127.568 82.2439C125.811 83.1888 124.417 84.811 123.063 86.4084C122.2 87.4267 121.263 88.5018 120.352 89.2217C111.494 79.6257 89.9662 57.6157 84.925 52.4694C83.9368 51.4627 82.2866 51.3625 81.179 52.249L68.1806 62.5916C65.8487 64.4498 62.3587 64.282 60.2349 62.2097C58.0807 60.1074 58.0436 56.7842 60.1514 54.6444C63.204 51.5438 67.1806 47.5775 70.6038 44.3904C71.3765 44.1406 71.9826 43.591 72.2641 42.8693C72.6788 42.4959 73.0907 42.1263 73.4747 41.7925C78.1851 37.698 93.1546 36.3846 103.268 40.7482C111.917 44.4805 122.508 44.7829 127.568 44.6772V82.2439ZM143.983 86.66H133.001V38.0386H143.983V86.66Z" fill="#030D2D"/>
</svg>
