<svg width="161" height="175" viewBox="0 0 161 175" fill="none" xmlns="http://www.w3.org/2000/svg">
<path d="M80.5001 36.7785C89.8917 36.7785 97.2709 29.4228 97.2709 20.061C97.2709 10.6992 89.8917 3.34349 80.5001 3.34349C71.1084 3.34349 63.7292 10.6992 63.7292 20.061C63.7292 29.4228 71.1084 36.7785 80.5001 36.7785ZM80.5001 10.0305C86.2022 10.0305 90.5626 14.377 90.5626 20.061C90.5626 25.7449 86.2022 30.0915 80.5001 30.0915C74.798 30.0915 70.4376 25.7449 70.4376 20.061C70.4376 14.377 74.798 10.0305 80.5001 10.0305Z" fill="#030D2D"/>
<path d="M108.339 96.627L125.11 76.5661C126.787 74.2256 127.794 71.2165 127.123 68.5417C126.787 65.5325 125.11 63.1921 122.427 61.5203L95.929 45.1372C91.5686 41.7937 86.2019 40.1219 80.4999 40.1219H80.1644C72.7853 40.1219 65.4061 44.8028 65.0707 45.1372L38.2374 61.8547C35.8894 63.5264 34.2124 65.8669 33.5415 68.876C33.2061 71.5508 33.8769 74.56 35.8894 76.9004L52.6603 96.9614C54.6728 99.3018 57.3561 100.639 60.3749 100.639V102.98L47.2936 144.439C45.6165 149.789 48.6353 155.473 54.0019 157.144C59.3686 158.816 65.0707 155.807 66.7478 150.457L80.1644 107.326H80.8353L94.2519 150.457C95.5936 154.804 99.2832 157.479 103.979 157.479C104.985 157.479 105.992 157.479 106.998 157.144C112.364 155.473 115.383 149.789 113.706 144.439L100.625 102.645V100.305C103.644 100.305 106.327 98.9675 108.339 96.627ZM110.017 73.8913C110.687 73.2226 111.023 72.2195 110.687 71.2165C110.687 70.2134 110.017 69.5447 109.01 68.876L99.2832 62.8577C97.9415 61.8547 96.2644 61.8547 94.9228 63.1921C94.2519 63.8608 93.9165 64.5295 93.9165 65.5325V82.5843L92.9103 83.9217C91.2332 85.9278 90.2269 88.6026 90.5624 91.2774C90.8978 93.9522 91.904 96.2927 93.9165 97.6301V103.314C93.9165 103.648 93.9165 103.983 93.9165 104.317L107.333 146.111C108.004 147.783 106.998 149.789 105.321 150.457C103.308 151.126 101.631 150.123 100.96 148.117L86.8728 102.645C86.5374 101.308 85.1957 100.305 83.5186 100.305H77.8165C76.4749 100.305 75.1332 101.308 74.4624 102.645L60.3749 148.117C59.704 149.789 57.6915 150.792 56.0144 150.457C54.3374 149.789 53.3311 148.117 53.6665 146.111L67.0832 104.317C67.0832 103.983 67.0832 103.648 67.0832 103.314V97.6301C69.0957 95.9583 70.1019 93.6179 70.4374 91.2774C70.7728 88.6026 69.7665 85.9278 68.0894 83.9217L67.0832 82.5843V65.5325C67.0832 64.5295 66.7478 64.1951 66.4124 63.8608C65.4061 62.189 63.3936 61.8547 61.7165 62.8577L51.654 69.2104C50.9832 69.8791 50.3124 70.5478 49.9769 71.5508C49.9769 72.5539 49.9769 73.5569 50.6478 74.2256L62.3874 88.2683C63.0582 88.937 63.3936 89.94 63.0582 90.6087C63.0582 91.6118 62.7228 92.2805 62.0519 92.6148C61.7165 92.6148 59.704 94.9553 57.3561 92.2805L40.5853 72.2195C40.2499 71.5508 40.2499 70.5478 40.2499 69.5447C40.2499 68.5417 40.9207 67.873 41.9269 67.2043L68.7603 50.4868C68.7603 50.4868 74.7978 46.4746 80.4999 46.8089C84.5249 46.8089 88.5499 48.1463 91.904 50.1524L92.2394 50.4868L119.073 67.2043C119.744 67.873 120.414 68.5417 120.75 69.5447C120.75 70.5478 120.75 71.5508 120.079 72.2195L103.308 92.2805C102.302 93.6179 100.289 93.6179 98.9478 92.9492C97.9415 92.6148 97.2707 91.2774 97.2707 90.2744C97.2707 89.2713 97.6061 88.6026 97.9415 87.9339L110.017 73.8913ZM100.625 74.56V71.5508L102.302 72.5539L100.625 74.56ZM60.3749 71.5508V74.56L58.6978 72.5539L60.3749 71.5508Z" fill="#030D2D"/>
</svg>
