<svg width="150" height="150" viewBox="0 0 150 150" fill="none" xmlns="http://www.w3.org/2000/svg">
<path d="M26.0416 56.1469C24.8503 54.7841 23.1033 53.9512 21.2767 53.9512C17.2266 53.9512 14.9237 57.5098 14.9237 60.9926C14.9237 64.4755 17.3061 67.8826 21.1973 67.8826C23.0238 67.8826 24.7709 66.974 25.9621 65.6869V70.4569C24.3739 71.1383 22.7856 71.6683 21.1179 71.6683C15.0825 71.6683 10.5559 66.6712 10.5559 61.0683C10.5559 55.2384 14.8442 50.0898 21.1973 50.0898C22.865 50.0898 24.5327 50.5441 25.9621 51.3013L26.0416 56.1469Z" fill="#CC273E"/>
<path d="M42.7186 71.7425C36.1272 71.7425 32.0771 66.9725 32.0771 60.9154C32.0771 54.8583 36.2861 50.1641 42.7186 50.1641C49.1511 50.1641 53.36 54.8583 53.36 60.9154C53.36 66.9725 49.3099 71.7425 42.7186 71.7425ZM42.7186 54.1012C38.7479 54.1012 36.4449 57.4326 36.4449 60.764C36.4449 63.944 38.1126 67.8054 42.7186 67.8054C47.404 67.8054 48.9922 63.944 48.9922 60.764C48.9922 57.4326 46.6892 54.1012 42.7186 54.1012Z" fill="#CC273E"/>
<path d="M59.7129 50.6953H65.6689C71.8632 50.6953 76.0721 55.1624 76.0721 60.9924C76.0721 66.7466 71.7838 71.2138 65.6689 71.2138H59.7129V50.6953ZM63.8424 67.7309H64.5571C69.719 67.7309 71.7043 65.0052 71.7043 60.9924C71.7043 56.5253 69.3219 54.2539 64.5571 54.2539H63.8424V67.7309Z" fill="#CC273E"/>
<path d="M86.5546 54.1781V58.6453H93.2253V62.1281H86.5546V67.7309H93.5429V71.2138H82.425V50.6953H93.5429V54.1781H86.5546Z" fill="#CC273E"/>
<path d="M14.6854 94.9887L12.5412 99.5315H10L19.0531 80.5273L28.1857 99.5315H25.6445L23.5003 94.9887H14.6854ZM19.0531 85.5245L15.6384 92.8687H22.3885L19.0531 85.5245Z" fill="#3F9ED8"/>
<path d="M36.8417 87.493H36.7623L34.5387 99.5315H32.0769L35.9682 80.5273L42.5595 94.913L49.0714 80.5273L52.9627 99.5315H50.5803L48.2773 87.493L42.5595 99.9101L36.8417 87.493Z" fill="#3F9ED8"/>
<path d="M58.9189 81.2852H69.1633V83.4051H61.3014V88.478H69.0045V90.5222H61.3014V97.4122H69.1633V99.5322H58.9189V81.2852Z" fill="#3F9ED8"/>
<path d="M87.8253 99.5322H84.9664L79.328 91.8094H78.3751V99.5322H75.9927V81.2852H78.8516C80.5192 81.2852 82.3458 81.2852 83.8546 82.118C85.4429 83.0266 86.3959 84.6923 86.3959 86.4337C86.3959 89.008 84.5693 91.2037 81.7899 91.5065L87.8253 99.5322ZM78.2957 89.9165H79.0898C81.5516 89.9165 84.1723 89.4622 84.1723 86.5851C84.1723 83.708 81.3134 83.3294 79.0104 83.3294H78.3751L78.2957 89.9165Z" fill="#3F9ED8"/>
<path d="M95.8463 81.2852H93.4639V99.5322H95.8463V81.2852Z" fill="#3F9ED8"/>
<path d="M117.129 84.7652C115.779 83.6295 113.873 82.9481 112.126 82.9481C107.838 82.9481 104.582 86.3552 104.582 90.3681C104.582 94.3809 107.838 97.788 112.047 97.788C113.952 97.788 115.7 97.1066 117.129 95.8952V98.5452C115.7 99.378 113.794 99.8323 112.126 99.8323C106.646 99.8323 102.199 95.668 102.199 90.4438C102.199 85.0681 106.726 80.8281 112.364 80.8281C114.032 80.8281 115.7 81.2067 117.208 82.0395V84.7652H117.129Z" fill="#3F9ED8"/>
<path d="M126.42 94.9887L124.276 99.5315H121.735L130.867 80.5273L140 99.5315H137.379L135.235 94.9887H126.42ZM130.788 85.5245L127.373 92.8687H134.203L130.788 85.5245Z" fill="#3F9ED8"/>
<path d="M110.935 63.3399C110.299 64.3242 109.585 65.4599 108.949 66.5956C108.314 67.7313 107.599 68.9427 106.885 70.0784C106.17 71.2141 105.376 72.3498 104.502 73.4098C103.629 74.4698 102.755 75.3784 101.723 76.2113C100.69 77.0441 99.5785 77.6498 98.3873 78.1798C97.1961 78.6341 95.7667 78.9369 94.2578 78.9369C93.7813 78.9369 93.2254 78.8612 92.6695 78.7855C92.1136 78.7098 91.5577 78.4827 91.0813 78.2555C90.6048 78.0284 90.2077 77.7255 89.8901 77.2712C89.5724 76.8927 89.4136 76.3627 89.4136 75.757C89.4136 75.3027 89.493 74.8484 89.7312 74.5455C89.9695 74.167 90.2077 73.8641 90.6048 73.637C90.9224 73.4098 91.3195 73.1827 91.796 73.107C92.2725 72.9556 92.6695 72.8798 93.146 72.8798C93.3842 72.8798 93.6225 72.8798 93.7813 72.8798C93.9401 72.8798 94.1784 72.9556 94.3372 72.9556V73.1827C93.5431 73.2584 92.9078 73.4856 92.3519 74.0156C91.8754 74.5455 91.6372 75.1513 91.6372 75.9084C91.6372 76.7412 91.8754 77.4227 92.3519 77.877C92.8284 78.3312 93.6225 78.6341 94.7343 78.6341C95.7667 78.6341 96.7196 78.407 97.5932 77.877C98.4667 77.347 99.3403 76.6655 100.214 75.8327C101.087 74.9998 101.882 74.0156 102.596 72.9556C103.311 71.8956 104.105 70.7599 104.74 69.6241C105.455 68.4884 106.09 67.3527 106.726 66.2927C107.361 65.2327 107.917 64.2485 108.473 63.4156H106.011L106.249 62.9613H108.711C109.188 62.1285 109.743 61.2956 110.458 60.3113C111.093 59.3271 111.888 58.4185 112.682 57.5857C113.555 56.7528 114.429 56.0714 115.461 55.4657C116.494 54.9357 117.526 54.6328 118.638 54.6328C118.955 54.6328 119.352 54.7085 119.67 54.7842C119.988 54.86 120.305 55.0114 120.544 55.1628C120.782 55.3142 121.02 55.5414 121.179 55.7685C121.338 55.9957 121.417 56.2985 121.417 56.6771C121.417 57.2828 121.179 57.6614 120.782 57.9642C120.305 58.2671 119.829 58.4185 119.273 58.4185C119.114 58.4185 118.955 58.4185 118.797 58.3428C118.955 58.0399 119.114 57.7371 119.194 57.4342C119.273 57.1314 119.352 56.7528 119.352 56.3742C119.352 55.9199 119.273 55.5414 119.035 55.3142C118.797 55.0871 118.558 54.9357 118.241 54.9357C117.844 54.9357 117.367 55.0871 116.891 55.39C116.414 55.6928 115.938 56.1471 115.461 56.6014C114.985 57.1314 114.588 57.6614 114.111 58.2671C113.635 58.8728 113.238 59.4785 112.92 60.0842C112.523 60.6899 112.205 61.2199 111.888 61.7499C111.57 62.2799 111.332 62.6585 111.173 62.9613H117.685L117.367 63.4156L110.935 63.3399Z" fill="#3F9ED8"/>
<path d="M127.294 65.0797C126.976 65.534 126.579 65.9125 126.102 66.2154C125.626 66.5182 125.149 66.7454 124.594 66.7454C124.197 66.7454 123.879 66.6697 123.561 66.5182C123.244 66.3668 123.005 66.1397 122.767 65.8368C122.529 66.6697 122.211 67.4268 121.735 68.1082C121.258 68.7896 120.702 69.4711 120.067 70.0011C119.432 70.5311 118.638 70.9853 117.843 71.2882C117.049 71.5911 116.176 71.7425 115.302 71.7425C114.349 71.7425 113.635 71.5153 113.079 70.9853C112.523 70.4554 112.205 69.7739 112.205 68.8654C112.205 68.0325 112.443 67.1997 112.92 66.4425C113.396 65.6854 113.952 65.004 114.667 64.3982C115.382 63.7925 116.176 63.3383 117.049 62.9597C117.923 62.5811 118.796 62.4297 119.67 62.4297C120.544 62.4297 121.338 62.6568 121.814 63.1111C122.37 63.5654 122.688 64.1711 122.767 64.7768C122.846 65.2311 123.005 65.6854 123.323 65.9125C123.641 66.2154 124.038 66.3668 124.514 66.3668C124.991 66.3668 125.388 66.2154 125.785 65.9882C126.182 65.7611 126.658 65.3068 127.055 64.8525L127.294 65.0797ZM116.811 71.0611C117.208 70.7582 117.605 70.4554 118.002 70.0011C118.399 69.5468 118.717 69.0925 119.114 68.5625C119.432 68.0325 119.749 67.5025 119.988 66.8968C120.226 66.3668 120.385 65.8368 120.544 65.3068C120.702 64.7768 120.782 64.3982 120.782 64.0197C120.782 63.6411 120.702 63.3383 120.544 63.1111C120.385 62.884 120.067 62.8083 119.67 62.8083C119.273 62.8083 118.796 62.9597 118.399 63.1868C118.002 63.4897 117.605 63.7925 117.208 64.2468C116.811 64.7011 116.493 65.1554 116.096 65.6854C115.779 66.2154 115.461 66.7454 115.223 67.3511C114.985 67.8811 114.826 68.4111 114.667 68.9411C114.508 69.4711 114.429 69.8496 114.429 70.2282C114.429 70.6068 114.508 70.9096 114.667 71.1368C114.826 71.3639 115.143 71.4396 115.54 71.4396C115.938 71.4396 116.414 71.3639 116.811 71.0611Z" fill="#3F9ED8"/>
<path d="M122.291 71.3663C123.164 69.9278 124.038 68.5649 124.911 67.1264C125.785 65.7635 126.659 64.3249 127.532 62.8864L130.391 62.8107L127.056 67.2778L127.135 67.3535C127.77 66.5964 128.326 65.9906 128.882 65.5364C129.359 65.0821 129.835 64.7035 130.153 64.4007C130.55 64.0978 130.867 63.8707 131.106 63.7192C131.344 63.5678 131.582 63.4164 131.662 63.3407C131.82 63.1892 132.059 63.0378 132.217 62.8864C132.376 62.8107 132.535 62.735 132.773 62.6592C133.012 62.5835 133.25 62.5835 133.568 62.5835C133.885 62.5835 134.282 62.5835 134.759 62.5078C134.441 62.9621 134.123 63.4164 133.885 63.8707C133.647 64.3249 133.488 64.8549 133.488 65.3849C133.488 66.0664 133.885 66.4449 134.6 66.4449C134.838 66.4449 135.076 66.3692 135.315 66.2935C135.553 66.2178 135.791 66.0664 135.95 65.9149C136.188 65.7635 136.347 65.6121 136.506 65.4607C136.665 65.3092 136.823 65.1578 136.982 65.0064L137.062 65.1578C136.585 65.6878 136.029 66.1421 135.394 66.5206C134.759 66.8992 134.044 67.0506 133.329 67.0506C132.615 67.0506 132.138 66.8992 131.741 66.5206C131.344 66.2178 131.185 65.6878 131.185 65.0064C131.185 64.5521 131.344 64.1735 131.582 63.7949L131.503 63.7192C130.788 64.1735 130.153 64.7035 129.438 65.3092C128.803 65.9149 128.167 66.5206 127.611 67.2021C127.056 67.8835 126.579 68.5649 126.103 69.2463C125.626 69.9278 125.229 70.6092 124.832 71.2906L122.291 71.3663Z" fill="#3F9ED8"/>
</svg>
