 <svg
          width="36"
          height="36"
          viewBox="0 0 36 36"
          fill="none"
          xmlns="http://www.w3.org/2000/svg"
          class="vector-img"
        >
          <g clip-path="url(#clip0)">
            <path
              d="M26.7227 14.6754C26.7143 15.7533 26.5222 16.7894 26.1796 17.7503C25.979 18.3101 25.72 18.8366 25.4192 19.3379C25.1602 19.764 24.9095 20.1985 24.6839 20.6414L18.9937 31.6291C18.4004 32.7738 16.7627 32.7738 16.1695 31.6291L10.4792 20.6414C10.2536 20.1985 10.0029 19.764 9.74392 19.3379C9.44311 18.8366 9.18409 18.3018 8.98355 17.7503C8.63261 16.7727 8.44043 15.7282 8.44043 14.6336C8.44043 9.56173 12.5765 5.45072 17.6651 5.4925C22.6785 5.52593 26.7478 9.66199 26.7227 14.6754Z"
              fill="#000000"
              stroke="white"
              stroke-width="0.5"
              stroke-miterlimit="10"
              stroke-linecap="round"
            />
            <path
              d="M17.5823 19.5884C19.9819 19.5884 21.9272 17.6431 21.9272 15.2434C21.9272 12.8437 19.9819 10.8984 17.5823 10.8984C15.1826 10.8984 13.2373 12.8437 13.2373 15.2434C13.2373 17.6431 15.1826 19.5884 17.5823 19.5884Z"
              fill="white"
              stroke="white"
              stroke-width="0.5"
              stroke-miterlimit="10"
              stroke-linecap="round"
            />
            <path
              d="M21.626 7.85742C22.3446 8.16658 22.9712 8.65957 23.4475 9.2779L21.626 7.85742Z"
              fill="#000000"
            />
            <path
              d="M21.626 7.85742C22.3446 8.16658 22.9712 8.65957 23.4475 9.2779"
              stroke="white"
              stroke-width="0.5"
              stroke-miterlimit="10"
              stroke-linecap="round"
            />
            <path
              d="M13.7963 23.7505C13.7963 24.2769 13.696 24.7866 13.5289 25.2545C13.4286 25.5302 13.3033 25.7893 13.1529 26.0316C13.0276 26.2405 12.9022 26.4494 12.7936 26.6666L10.0028 32.056C9.71035 32.6159 8.9082 32.6159 8.61575 32.056L5.82495 26.6666C5.71633 26.4494 5.59099 26.2405 5.46565 26.0316C5.31525 25.7893 5.18992 25.5219 5.08965 25.2545C4.91418 24.7782 4.82227 24.2602 4.82227 23.7254C4.82227 21.2354 6.8527 19.2217 9.35105 19.2384C11.8076 19.2635 13.8046 21.2855 13.7963 23.7505Z"
              fill="#000000"
              stroke="white"
              stroke-width="0.5"
              stroke-miterlimit="10"
              stroke-linecap="round"
            />
            <path
              d="M9.30844 26.1559C10.4852 26.1559 11.4391 25.202 11.4391 24.0252C11.4391 22.8485 10.4852 21.8945 9.30844 21.8945C8.13168 21.8945 7.17773 22.8485 7.17773 24.0252C7.17773 25.202 8.13168 26.1559 9.30844 26.1559Z"
              fill="white"
              stroke="white"
              stroke-width="0.5"
              stroke-miterlimit="10"
              stroke-linecap="round"
            />
            <path
              d="M10.9883 20.6582C11.3476 20.817 11.6651 21.0593 11.8991 21.3684L10.9883 20.6582Z"
              fill="#000000"
            />
            <path
              d="M10.9883 20.6582C11.3476 20.817 11.6651 21.0593 11.8991 21.3684"
              stroke="white"
              stroke-width="0.5"
              stroke-miterlimit="10"
              stroke-linecap="round"
            />
            <path
              d="M31.8531 20.6323C31.8531 21.3509 31.7194 22.0361 31.4854 22.6794C31.3517 23.0471 31.1846 23.4064 30.9757 23.7406C30.8003 24.0247 30.6415 24.3088 30.4827 24.6096L26.6976 31.9292C26.3049 32.6896 25.2103 32.6896 24.8176 31.9292L21.0324 24.6096C20.882 24.3172 20.7149 24.0247 20.5395 23.7406C20.3389 23.4064 20.1718 23.0555 20.0298 22.6794C19.7958 22.0277 19.6621 21.3342 19.6621 20.5989C19.6621 17.2232 22.4111 14.4825 25.8035 14.5159C29.1625 14.541 31.8698 17.29 31.8531 20.6323Z"
              fill="#000000"
              stroke="white"
              stroke-width="0.5"
              stroke-miterlimit="10"
              stroke-linecap="round"
            />
            <path
              d="M25.771 23.8993C27.3676 23.8993 28.662 22.605 28.662 21.0083C28.662 19.4116 27.3676 18.1172 25.771 18.1172C24.1743 18.1172 22.8799 19.4116 22.8799 21.0083C22.8799 22.605 24.1743 23.8993 25.771 23.8993Z"
              fill="white"
              stroke="white"
              stroke-width="0.5"
              stroke-miterlimit="10"
              stroke-linecap="round"
            />
            <path
              d="M28.1436 16.0859C28.67 16.3533 29.1295 16.7126 29.5139 17.1471L28.1436 16.0859Z"
              fill="#000000"
            />
            <path
              d="M28.1436 16.0859C28.67 16.3533 29.1295 16.7126 29.5139 17.1471"
              stroke="white"
              stroke-width="0.5"
              stroke-miterlimit="10"
              stroke-linecap="round"
            />
            <path
              d="M33.0234 32.4922H35.597"
              stroke="#000000"
              stroke-width="0.5"
              stroke-miterlimit="10"
              stroke-linecap="round"
            />
            <path
              d="M22.6455 32.4922H31.8535"
              stroke="#000000"
              stroke-width="0.5"
              stroke-miterlimit="10"
              stroke-linecap="round"
            />
            <path
              d="M5.95117 32.4922H20.9079"
              stroke="#000000"
              stroke-width="0.5"
              stroke-miterlimit="10"
              stroke-linecap="round"
            />
            <path
              d="M-0.232422 32.4922H4.82278"
              stroke="#000000"
              stroke-width="0.5"
              stroke-miterlimit="10"
              stroke-linecap="round"
            />
            <path
              d="M3.83739 18.7981L3.37782 18.1631L2.70101 17.8205C2.6843 17.8122 2.6843 17.7871 2.70101 17.7787L3.95437 17.3108C3.97108 17.3025 3.98779 17.3192 3.97943 17.3359L3.87081 18.7814C3.87081 18.8065 3.84574 18.8148 3.83739 18.7981Z"
              fill="#000000"
              stroke="#000000"
              stroke-width="0.5"
              stroke-miterlimit="10"
              stroke-linecap="round"
            />
            <path
              d="M5.96825 15.9817L5.50868 15.3467L4.83187 15.0041C4.81516 14.9957 4.81516 14.9707 4.83187 14.9623L6.08523 14.4944C6.10194 14.4861 6.11865 14.5028 6.11029 14.5195L6.00167 15.965C6.00167 15.9901 5.9766 15.9984 5.96825 15.9817Z"
              fill="#000000"
              stroke="#000000"
              stroke-width="0.5"
              stroke-miterlimit="10"
              stroke-linecap="round"
            />
            <path
              d="M29.5121 7.50195L27.3086 8.28124"
              stroke="#000000"
              stroke-width="0.5"
              stroke-miterlimit="10"
              stroke-linecap="round"
            />
            <path
              d="M26.8799 4.41211L25.2139 6.45438"
              stroke="#000000"
              stroke-width="0.5"
              stroke-miterlimit="10"
              stroke-linecap="round"
            />
            <path
              d="M22.7959 4.97418L23.0377 2.50195"
              stroke="#000000"
              stroke-width="0.5"
              stroke-miterlimit="10"
              stroke-linecap="round"
            />
          </g>
          <defs>
            <clipPath id="clip0">
              <rect
                width="35"
                height="35"
                fill="white"
                transform="translate(0.182617 0.00195312)"
              />
            </clipPath>
          </defs>
        </svg>