<svg
          width="36"
          height="36"
          viewBox="0 0 36 36"
          fill="none"
          xmlns="http://www.w3.org/2000/svg"
          class="vector-img"
        >
          <path
            d="M17.6361 13.7154C19.2297 13.7154 20.5262 12.4182 20.5262 10.8236C20.5262 9.22996 19.2297 7.93359 17.6361 7.93359C16.042 7.93359 14.7451 9.23003 14.7451 10.8236C14.7451 12.4182 16.042 13.7154 17.6361 13.7154Z"
            fill="#FA114F"
          />
          <path
            d="M14.219 6.7151C15.499 6.7151 16.5403 5.6733 16.5403 4.39286C16.5403 3.11324 15.499 2.07227 14.219 2.07227C12.9394 2.07227 11.8984 3.11331 11.8984 4.39286C11.8984 5.6733 12.9394 6.7151 14.219 6.7151Z"
            fill="#FA114F"
          />
          <path
            d="M25.4741 13.0417C27.0682 13.0417 28.3651 11.7452 28.3651 10.1517C28.3651 8.55716 27.0682 7.25977 25.4741 7.25977C23.8804 7.25977 22.584 8.55716 22.584 10.1517C22.584 11.7452 23.8805 13.0417 25.4741 13.0417Z"
            fill="#FA114F"
          />
          <path
            d="M9.89108 13.0417C11.4847 13.0417 12.7812 11.7452 12.7812 10.1517C12.7812 8.55716 11.4847 7.25977 9.89108 7.25977C8.29748 7.25977 7.00098 8.55716 7.00098 10.1517C7.00104 11.7452 8.29748 13.0417 9.89108 13.0417Z"
            fill="#FA114F"
          />
          <path
            d="M21.0547 6.7151C22.3343 6.7151 23.3752 5.6733 23.3752 4.39286C23.3752 3.11324 22.3342 2.07227 21.0547 2.07227C19.7747 2.07227 18.7334 3.11331 18.7334 4.39286C18.7334 5.6733 19.7748 6.7151 21.0547 6.7151Z"
            fill="#FA114F"
          />
          <path
            d="M20.7283 25.706C21.4564 25.6418 21.8861 25.2543 22.1112 24.4605C22.1112 24.4597 22.111 24.4591 22.111 24.4583V18.4524C22.11 18.4486 22.1083 18.4453 22.1074 18.4416C21.6478 16.383 19.4473 15.4251 17.5972 15.4065C16.204 15.3944 14.4865 15.9182 13.6047 17.3555C13.5952 17.4276 13.5573 17.4917 13.5019 17.535C13.3594 17.8001 13.2439 18.0937 13.1621 18.4182V24.4274C13.1693 24.4421 13.1756 24.4574 13.1802 24.4738C13.4021 25.2717 13.8255 25.6651 14.5441 25.7365V22.1237H15.0909V32.9178V33.4647V33.6137H17.3631V26.2644H17.91V33.6137H20.1813V22.0997H20.7282V25.706H20.7283Z"
            fill="#FA114F"
          />
          <path
            d="M25.445 14.6958C23.9733 14.8164 22.4315 15.6811 22.3043 17.3411C22.3032 17.3541 22.3002 17.3664 22.2975 17.3789C22.4383 17.6494 22.5456 17.9363 22.6199 18.2367C22.6436 18.2773 22.6582 18.3237 22.6582 18.3741V24.4591C22.6582 24.4752 22.6561 24.4909 22.6534 24.5062C22.6542 24.5328 22.6524 24.5597 22.6449 24.5867C22.3536 25.6387 21.7258 26.1842 20.7285 26.2549V32.9408H25.2016V25.5915H25.7485V32.9408H28.019V21.4506H28.5658V25.0637C29.2859 24.993 29.7098 24.5997 29.9314 23.8012C29.9359 23.7846 29.9423 23.7693 29.9496 23.7544V17.7419C29.3663 15.4312 27.2715 14.5461 25.445 14.6958Z"
            fill="#FA114F"
          />
          <path
            d="M12.6532 24.6209C12.6499 24.6088 12.6486 24.5967 12.6469 24.5844C12.6273 24.5467 12.6151 24.5045 12.6151 24.459V18.3741C12.6151 18.3735 12.6153 18.3731 12.6153 18.3726C12.6153 18.3725 12.6154 18.3724 12.6154 18.3722C12.6156 18.3371 12.6227 18.3037 12.635 18.273C12.7303 17.8997 12.8697 17.5503 13.0493 17.2286C12.8623 15.6422 11.3581 14.8136 9.92008 14.6958C8.09379 14.546 5.99755 15.4321 5.41602 17.745V23.7544C5.42319 23.7691 5.42962 23.7844 5.4342 23.8009C5.65609 24.5989 6.07978 24.9923 6.79886 25.0636V21.4506H7.34573V32.9185H9.61704V25.5915H10.1639V32.9185H14.544V26.2853C13.5627 26.207 12.9429 25.6627 12.6532 24.6209Z"
            fill="#FA114F"
          />
        </svg>