<svg
          width="36"
          height="35"
          viewBox="0 0 36 35"
          fill="none"
          xmlns="http://www.w3.org/2000/svg"
          class="vector-img"
        >
          <path
            d="M7.86326 26.9342C7.92889 27.2739 7.72627 27.5957 7.38653 27.6672C7.06469 27.7327 6.73697 27.5301 6.67149 27.1904C6.60593 26.8687 6.80855 26.5289 7.13038 26.4574C7.45208 26.3859 7.79169 26.5945 7.86326 26.9342Z"
            fill="#FA114F"
          />
          <path
            d="M16.3916 31.1899C16.0162 31.4642 15.9149 31.9885 16.1711 32.3818C16.4452 32.7751 16.9697 32.8764 17.363 32.6024C17.7385 32.3282 17.8398 31.8039 17.5657 31.4104C17.3154 31.0232 16.7849 30.9158 16.3916 31.1899Z"
            fill="#FA114F"
          />
          <path
            d="M11.2669 3.63956C11.6423 3.55616 11.8807 3.18073 11.7972 2.80523C11.7316 2.41196 11.3562 2.17352 10.9808 2.26287C10.6053 2.34634 10.367 2.7217 10.4384 3.0972C10.5219 3.49054 10.8914 3.72884 11.2669 3.63956Z"
            fill="#FA114F"
          />
          <path
            d="M4.01394 15.7314C3.41792 15.3202 2.60157 15.4751 2.19032 16.0889C1.77914 16.6849 1.93411 17.5191 2.53007 17.9305C3.12596 18.3535 3.94244 18.2045 4.35355 17.5906C4.76487 16.971 4.60983 16.1545 4.01394 15.7314Z"
            fill="#FA114F"
          />
          <path
            d="M20.2235 5.54667C20.8552 5.17124 21.0399 4.35476 20.6823 3.74096C20.3069 3.10932 19.5084 2.90663 18.8946 3.28206C18.2808 3.65756 18.0782 4.47397 18.4538 5.10561C18.8112 5.71948 19.6096 5.9221 20.2235 5.54667Z"
            fill="#FA114F"
          />
          <path
            d="M8.83534 9.00237C9.29417 8.68053 9.39554 8.04882 9.09155 7.58999C8.78762 7.1311 8.15598 7.02979 7.71493 7.33371C7.2561 7.65555 7.15479 8.28726 7.45872 8.74609C7.76264 9.21093 8.38834 9.31217 8.83534 9.00237Z"
            fill="#FA114F"
          />
          <path
            d="M31.0219 18.2994C30.5811 18.4007 30.2888 18.8417 30.3903 19.3066C30.4737 19.7475 30.9205 20.0395 31.3616 19.9381C31.8027 19.8546 32.0946 19.4078 31.9934 18.9489C31.9039 18.5082 31.4629 18.216 31.0219 18.2994Z"
            fill="#FA114F"
          />
          <path
            d="M33.3877 14.9147C33.3222 14.5751 32.9945 14.3724 32.6726 14.4381C32.3329 14.5036 32.1303 14.8492 32.1959 15.1889C32.2615 15.5108 32.5893 15.7312 32.9289 15.6657C33.2508 15.5763 33.4712 15.2545 33.3877 14.9147Z"
            fill="#FA114F"
          />
          <path
            d="M28.6022 10.5218C28.0898 10.8793 27.9705 11.5767 28.3102 12.0892C28.6499 12.6016 29.3471 12.7209 29.8595 12.3812C30.3542 12.0237 30.4735 11.3264 30.1338 10.8139C29.7942 10.2954 29.0968 10.1642 28.6022 10.5218Z"
            fill="#FA114F"
          />
          <path
            d="M28.2269 18.8293C29.7943 21.398 29.1268 24.7887 26.6596 26.5229C25.6227 27.2559 24.4486 27.5776 23.2687 27.542C22.5537 30.3488 19.133 31.3916 17.0055 29.4847C16.9399 29.5384 16.8505 29.586 16.7849 29.6575C14.4549 31.2724 11.2845 30.6944 9.66949 28.3286C9.09144 27.4764 8.79948 26.5051 8.76967 25.5337C4.87223 24.8842 3.40626 19.9319 6.32036 17.2084C4.63379 14.4135 6.35611 10.8081 9.50262 10.3611C10.9984 6.41612 15.9149 4.54485 19.2521 7.13116C23.2686 5.80225 27.3746 8.88328 27.0529 13.1561C29.5023 13.907 30.1994 17.1429 28.2269 18.8293Z"
            fill="#FA114F"
          />
          <path
            d="M24.0551 23.2584C23.8704 22.0309 21.6176 22.9843 21.4866 21.6436C21.3018 19.7366 24.0908 15.6187 23.8704 14.0156C23.6677 12.5854 22.7142 12.2814 21.8799 12.2636C21.0813 12.2457 20.8727 12.3829 20.6046 12.5378C20.4319 12.6391 20.2113 12.8298 19.9074 12.5199C19.532 12.1624 19.246 11.8227 18.7513 11.7512C18.0183 11.632 17.6966 11.8704 17.1662 12.3292C16.9635 12.502 16.451 13.098 15.9743 12.8715C15.7717 12.7701 15.0566 12.4126 14.5441 12.1922C13.5727 11.769 12.1603 12.4663 11.6478 13.3839C10.8791 14.7487 9.3833 20.1241 9.16277 20.8391C8.65021 22.4243 9.81232 23.7354 11.3618 23.646C12.0233 23.6104 12.4524 23.3719 12.8754 22.6091C13.1138 22.1681 15.3605 16.1909 15.5334 15.8989C15.6525 15.6963 16.0637 15.4221 16.4034 15.595C16.7431 15.7797 16.8146 16.1552 16.7609 16.4948C16.6954 17.0729 15.0923 20.7201 15.0387 21.1252C14.8361 22.49 16.6418 22.7103 17.339 21.3635C17.5595 20.9405 20.0623 15.8452 20.2828 15.5055C20.539 15.1301 20.7238 15.0109 20.9801 15.0288C21.1648 15.0288 21.4747 15.0824 21.4032 15.6784C21.3197 16.2386 19.3114 19.987 19.085 20.9046C18.8109 22.1323 19.4783 23.3719 20.5688 23.9202C21.2482 24.2598 24.2934 24.8557 24.0551 23.2584Z"
            fill="white"
          />
          <path
            d="M24.3942 28.7577C23.7804 29.1987 23.6255 30.0688 24.0546 30.7005C24.4776 31.3321 25.3299 31.4811 25.9616 31.058C26.5932 30.617 26.7422 29.7469 26.319 29.1152C25.8781 28.4835 25.0259 28.3108 24.3942 28.7577Z"
            fill="#FA114F"
          />
        </svg>