<?xml version="1.0" standalone="no"?>
<!DOCTYPE svg PUBLIC "-//W3C//DTD SVG 20010904//EN"
 "http://www.w3.org/TR/2001/REC-SVG-20010904/DTD/svg10.dtd">
<svg version="1.0" xmlns="http://www.w3.org/2000/svg"
 width="368.000000pt" height="368.000000pt" viewBox="0 0 368.000000 368.000000"
 preserveAspectRatio="xMidYMid meet">
<metadata>
Created by potrace 1.11, written by Peter Selinger 2001-2013
</metadata>
<g transform="translate(0.000000,368.000000) scale(0.100000,-0.100000)"
fill="#000000" stroke="none">
<path d="M2738 3539 c-122 -17 -207 -78 -263 -189 -85 -168 -474 -1139 -595
-1485 -9 -27 -57 -162 -107 -300 -49 -137 -113 -323 -143 -412 l-55 -162 -41
81 c-78 149 -112 164 -284 124 -36 -8 -76 -17 -90 -20 -89 -19 -256 -67 -338
-97 -29 -10 -56 -19 -61 -19 -4 0 0 47 10 104 9 57 20 119 23 138 6 35 102
549 110 583 2 11 11 61 21 110 14 78 54 277 135 675 12 58 26 123 32 145 6 22
12 51 15 65 2 14 20 94 39 179 39 177 41 214 15 258 -34 54 -152 120 -281 156
-121 34 -144 38 -203 43 -72 6 -115 -14 -142 -67 -19 -36 -116 -448 -141 -599
-3 -14 -18 -92 -34 -175 -16 -82 -31 -161 -34 -175 -2 -14 -13 -77 -25 -140
-11 -63 -23 -128 -25 -145 -3 -16 -18 -111 -35 -210 -16 -99 -33 -200 -37
-225 -3 -25 -8 -54 -10 -65 -4 -27 -43 -292 -48 -330 -3 -16 -8 -52 -11 -80
-4 -27 -8 -61 -10 -75 -2 -14 -7 -52 -10 -85 -4 -33 -8 -67 -10 -75 -2 -8 -7
-51 -11 -95 -3 -44 -8 -89 -10 -100 -8 -41 -5 -132 6 -180 21 -96 65 -145 261
-294 72 -55 129 -91 151 -95 65 -12 151 15 383 119 107 48 576 228 581 223 2
-2 -3 -24 -10 -48 -29 -99 -17 -191 31 -245 69 -78 296 -174 366 -154 45 12
62 46 135 259 87 253 133 382 147 410 10 20 43 36 155 79 165 62 711 243 717
238 6 -7 10 -36 18 -122 11 -125 12 -136 19 -210 4 -38 9 -83 11 -100 3 -16 7
-52 10 -80 8 -70 33 -155 56 -187 42 -58 140 -83 288 -75 58 4 115 9 126 11
11 2 28 5 37 5 10 1 32 14 49 29 30 27 31 31 29 102 0 41 -3 98 -5 125 -12
181 -15 230 -20 310 -3 50 -7 124 -10 165 -4 67 -8 141 -20 360 -2 36 -6 133
-10 215 -3 83 -8 173 -10 200 -3 44 -12 266 -20 505 -3 72 -15 599 -19 826 -3
189 -38 218 -306 259 -160 24 -375 30 -492 14z m182 -736 c2 -176 14 -502 27
-728 3 -66 7 -158 7 -204 l1 -85 -60 -14 c-76 -18 -274 -73 -385 -106 -47 -14
-88 -26 -92 -26 -4 0 2 21 12 48 11 26 74 189 141 362 66 173 127 329 134 345
7 17 46 111 85 210 40 99 78 194 85 210 7 17 19 45 26 63 8 17 15 32 15 32 1
0 3 -48 4 -107z"/>
</g>
</svg>
