<?xml version="1.0" encoding="UTF-8"?>
<svg width="700pt" height="700pt" version="1.1" viewBox="0 0 700 700" xmlns="http://www.w3.org/2000/svg">
 <path d="m233.38 35c-19.188 0-35.07 15.789-35.07 34.977v163.36c0 6.4492 5.2305 11.68 11.68 11.68s11.68-5.2305 11.68-11.68v-163.36c0-6.6641 5.0469-11.645 11.711-11.645h244.95v58.336c0 19.188 15.812 35 35 35h58.336v338.31c0 6.6641-4.957 11.711-11.621 11.711h-210.07c-6.4492 0-11.676 5.2305-11.676 11.68 0 6.4492 5.2266 11.68 11.676 11.68h210.07c19.188 0 34.953-15.883 34.953-35.07v-350c0-3.1055-1.2383-6.082-3.4414-8.2695l-93.266-93.266c-2.1875-2.2031-5.1641-3.4414-8.2695-3.4414zm268.29 39.809 53.523 53.523h-41.859c-6.6641 0-11.664-5-11.664-11.664zm-222.83 53.547c-6.3398 0.44141-11.16 5.8672-10.859 12.215 0.30469 6.3438 5.625 11.285 11.973 11.117h116.71c6.3438-0.13672 11.418-5.3164 11.418-11.664 0-6.3477-5.0742-11.531-11.418-11.668h-116.71c-0.37109-0.015625-0.74219-0.015625-1.1133 0zm163.33 46.668c-0.015625 0.007812-0.03125 0.015624-0.046875 0.023437-6.3359 0.46875-11.133 5.9102-10.805 12.258 0.32813 6.3438 5.6641 11.262 12.012 11.074h70.023c3.1406 0.070313 6.1758-1.1289 8.4219-3.3242 2.2461-2.1953 3.5117-5.2031 3.5117-8.3438 0-3.1406-1.2656-6.1484-3.5117-8.3438-2.2461-2.1953-5.2812-3.3906-8.4219-3.3203h-70.023c-0.38672-0.027344-0.77344-0.035156-1.1602-0.023437zm-163.33 0.023437c-6.3359 0.44531-11.152 5.8711-10.848 12.211 0.30078 6.3438 5.6133 11.281 11.961 11.121h116.71c3.1367 0.070313 6.1719-1.1289 8.418-3.3242 2.2461-2.1953 3.5117-5.2031 3.5117-8.3438 0-3.1406-1.2656-6.1484-3.5117-8.3438-2.2461-2.1953-5.2812-3.3906-8.418-3.3203h-116.71c-0.37109-0.019531-0.74219-0.019531-1.1133 0zm1.1133 46.574c-6.4492 0-11.676 5.2266-11.676 11.68 0 6.4492 5.2266 11.676 11.676 11.676h186.73c6.4531 0 11.68-5.2266 11.68-11.676 0-6.4531-5.2266-11.68-11.68-11.68zm233.38 0.046875c-3.0938 0-6.0586 1.2266-8.25 3.4141-2.1875 2.1914-3.4141 5.1562-3.4141 8.25s1.2266 6.0625 3.4141 8.25c2.1914 2.1875 5.1562 3.418 8.25 3.418s6.0625-1.2305 8.25-3.418 3.418-5.1562 3.418-8.25-1.2305-6.0586-3.418-8.25c-2.1875-2.1875-5.1562-3.4141-8.25-3.4141zm-0.22656 46.551c-3.0312 0.089844-5.9062 1.3594-8.0195 3.5312l-40.742 40.742-39.082-19.551c-4.4961-2.2891-9.9609-1.4258-13.531 2.1445l-46.668 46.688c-2.3398 2.1562-3.6953 5.1758-3.7539 8.3555-0.0625 3.1797 1.1797 6.2461 3.4336 8.4883 2.25 2.2461 5.3242 3.4727 8.5039 3.3984 3.1797-0.074219 6.1875-1.4453 8.3359-3.7891l40.742-40.652 39.102 19.551c4.5195 2.25 9.9688 1.3398 13.512-2.2539l46.691-46.578c3.4922-3.3516 4.5508-8.5156 2.6562-12.973-1.8906-4.457-6.3398-7.2852-11.18-7.1016zm-373.08 0.089844c-19.188 0-35.07 15.859-35.07 35.047v186.62c0 19.188 15.883 35.07 35.07 35.07h139.93c19.191 0 35.07-15.883 35.07-35.07v-186.62c0-19.188-15.879-35.047-35.07-35.047zm0 23.336h139.93c6.668 0 11.734 5.0469 11.734 11.711v186.62c0 6.6641-5.0664 11.711-11.734 11.711h-139.93c-6.6641 0-11.715-5.0469-11.715-11.711v-186.62c0-6.6641 5.0508-11.711 11.715-11.711zm23.332 23.332c-3.1094-0.011718-6.0938 1.2188-8.293 3.418s-3.4297 5.1836-3.418 8.293v46.691c0.023438 6.4414 5.2695 11.645 11.711 11.621h93.266c6.4414 0.023438 11.688-5.1797 11.711-11.621v-46.691c0.011719-3.1094-1.2188-6.0938-3.418-8.293-2.1953-2.1992-5.1836-3.4297-8.293-3.418zm349.82 11.555c-6.4414 0.074219-11.602 5.3594-11.527 11.801v81.645c-0.070312 3.1406 1.1289 6.1758 3.3242 8.418 2.1953 2.2461 5.2031 3.5117 8.3398 3.5117 3.1406 0 6.1484-1.2656 8.3438-3.5117 2.1953-2.2422 3.3945-5.2773 3.3242-8.418v-81.645c0.039063-3.1406-1.1953-6.1641-3.4141-8.3867-2.2227-2.2188-5.2461-3.4531-8.3906-3.4141zm-338.2 11.801h70.023v23.336h-70.023zm244.84 11.531c-6.4062 0.125-11.512 5.3945-11.438 11.805v58.309c-0.29297 3.2617 0.80078 6.5 3.0078 8.918 2.2109 2.418 5.3359 3.793 8.6133 3.793s6.4023-1.375 8.6133-3.793c2.207-2.418 3.3008-5.6562 3.0078-8.918v-58.309c0.035156-3.1445-1.1953-6.168-3.418-8.3867-2.2188-2.2227-5.2422-3.4531-8.3867-3.418zm46.691 11.621c-3.1133 0.03125-6.0859 1.3047-8.2578 3.5391-2.168 2.2344-3.3555 5.2422-3.2969 8.3555v46.598c0 6.4492 5.2305 11.68 11.68 11.68 6.4492 0 11.676-5.2305 11.676-11.68v-46.598c0.0625-3.1562-1.1562-6.2031-3.3828-8.4453-2.2227-2.2422-5.2617-3.4883-8.418-3.4492zm-93.355 23.332c-6.418 0.11328-11.539 5.3867-11.465 11.805v23.355c0 6.4492 5.2305 11.68 11.68 11.68 6.4492 0 11.68-5.2305 11.68-11.68v-23.355c0.035156-3.1562-1.207-6.1953-3.4492-8.418-2.2422-2.2266-5.2891-3.4453-8.4453-3.3867zm-209.82 23.516c-3.0938 0-6.0586 1.2305-8.25 3.418-2.1875 2.1875-3.4141 5.1562-3.4141 8.25s1.2266 6.0625 3.4141 8.25c2.1914 2.1875 5.1562 3.418 8.25 3.418s6.0625-1.2305 8.25-3.418 3.418-5.1562 3.418-8.25-1.2305-6.0625-3.418-8.25-5.1562-3.418-8.25-3.418zm46.668 0c-3.0938 0-6.0625 1.2305-8.25 3.418s-3.418 5.1562-3.418 8.25 1.2305 6.0625 3.418 8.25 5.1562 3.418 8.25 3.418 6.0625-1.2305 8.25-3.418 3.418-5.1562 3.418-8.25-1.2305-6.0625-3.418-8.25-5.1562-3.418-8.25-3.418zm46.668 0c-3.0938 0-6.0625 1.2305-8.25 3.418s-3.418 5.1562-3.418 8.25 1.2305 6.0625 3.418 8.25 5.1562 3.418 8.25 3.418 6.0586-1.2305 8.25-3.418c2.1875-2.1875 3.4141-5.1562 3.4141-8.25s-1.2266-6.0625-3.4141-8.25c-2.1914-2.1875-5.1562-3.418-8.25-3.418zm-93.336 46.668c-3.0938 0-6.0586 1.2305-8.25 3.418-2.1875 2.1875-3.4141 5.1562-3.4141 8.25s1.2266 6.0586 3.4141 8.25c2.1914 2.1875 5.1562 3.4141 8.25 3.4141s6.0625-1.2266 8.25-3.4141c2.1875-2.1914 3.418-5.1562 3.418-8.25s-1.2305-6.0625-3.418-8.25-5.1562-3.418-8.25-3.418zm46.668 0c-3.0938 0-6.0625 1.2305-8.25 3.418s-3.418 5.1562-3.418 8.25 1.2305 6.0586 3.418 8.25c2.1875 2.1875 5.1562 3.4141 8.25 3.4141s6.0625-1.2266 8.25-3.4141c2.1875-2.1914 3.418-5.1562 3.418-8.25s-1.2305-6.0625-3.418-8.25-5.1562-3.418-8.25-3.418zm46.668 0c-3.0938 0-6.0625 1.2305-8.25 3.418s-3.418 5.1562-3.418 8.25 1.2305 6.0586 3.418 8.25c2.1875 2.1875 5.1562 3.4141 8.25 3.4141s6.0586-1.2266 8.25-3.4141c2.1875-2.1914 3.4141-5.1562 3.4141-8.25s-1.2266-6.0625-3.4141-8.25c-2.1914-2.1875-5.1562-3.418-8.25-3.418z" fill-rule="evenodd"/>
</svg>
