<svg width="25" height="21" viewBox="0 0 25 21" fill="none" xmlns="http://www.w3.org/2000/svg">
<path d="M7.07994 17.4741V14.9477H11.5049V12.0704C8.06326 11.8599 5.21162 9.89495 4.81829 7.43875C1.76998 5.82468 0 3.22814 0 0.561415C0 0.280708 0.196665 0 0.688327 0H23.5015C23.8948 0 24.0915 0.280708 24.0915 0.561415C24.0915 3.22814 22.3215 5.82468 19.2732 7.43875C18.9782 9.82477 16.2249 11.7897 12.7832 12.0704V14.9477H17.2082V17.4741H20.7482V20.9127H3.6383V17.4741H7.07994ZM8.45659 15.86V17.4741H15.9299V15.86H8.45659ZM22.8131 0.9123H19.3715V6.17557C21.4365 4.84221 22.6165 2.94743 22.8131 0.9123ZM17.9948 0.9123H6.09661V6.87734C6.09661 9.19318 8.75159 11.1581 12.0949 11.1581C15.3399 11.1581 17.9948 9.19318 17.9948 6.87734V0.9123ZM4.81829 0.9123H1.37665C1.47499 2.94743 2.75331 4.84221 4.81829 6.17557V0.9123ZM4.91662 18.3864V19.9302H19.3715V18.3864H4.91662Z" fill="#FA114F"/>
</svg>