<svg width="35" height="36" viewBox="0 0 35 36" fill="none" xmlns="http://www.w3.org/2000/svg">
<path d="M11.7324 0.975354C11.7324 0.975354 14.3523 0.0582533 16.9925 0.0195312V7.63146C16.9925 7.63146 15.2704 7.74661 14.5469 8.11039L11.7324 0.975354Z" fill="#EE2052"/>
<path d="M18.083 0C18.083 0 21.6026 0.191572 23.2667 1.03327L20.5887 8.11022C20.5887 8.11022 18.8666 7.63129 18.1594 7.68938L18.083 0Z" fill="#EE2052"/>
<path d="M24.3377 1.41406C24.3377 1.41406 28.3546 3.32673 28.8896 4.28357L23.7824 9.86871C23.7824 9.86871 22.0419 8.58681 21.6211 8.52974L24.3377 1.41406Z" fill="#EE2052"/>
<path d="M29.6927 4.99219C29.6927 4.99219 32.2402 7.55497 32.8873 9.23836L26.0783 12.6245C26.0783 12.6245 25.1408 10.9941 24.5498 10.6344L29.6927 4.99219Z" fill="#EE2052"/>
<path d="M33.3843 10.2109C34.1569 11.8237 34.6523 13.5551 34.8496 15.3324L27.2468 16.0457C27.2468 16.0457 26.8882 13.7499 26.5723 13.6348L33.3843 10.2109Z" fill="#EE2052"/>
<path d="M34.9518 16.4336C34.9518 16.4336 35.2238 18.7712 34.4779 21.6835L27.1055 19.618C27.1055 19.618 27.5355 18.0395 27.3347 17.1652L34.9518 16.4336Z" fill="#EE2052"/>
<path d="M25.7529 22.832C25.7529 22.832 26.5844 21.6846 26.8433 20.6523L34.1301 22.7607C34.1301 22.7607 33.3557 25.6139 31.8639 27.4481L25.7529 22.832Z" fill="#EE2052"/>
<path d="M27.2594 31.9703C27.2594 31.9703 29.6836 30.4673 31.1896 28.3701L25.1215 23.75C25.1215 23.75 24.3471 24.8261 23.271 25.4721L27.2594 31.9703Z" fill="#EE2052"/>
<path d="M6.229 4.1139C6.229 4.1139 8.89675 1.96177 10.7187 1.40234L13.47 8.45994C12.7243 8.81338 12.0217 9.25137 11.376 9.76528L6.229 4.1139Z" fill="#EE2052"/>
<path d="M2.13965 9.09128C2.99227 7.51194 4.09714 6.08249 5.41064 4.85938L10.5321 10.4965C9.92855 11.0945 9.39428 11.7587 8.93944 12.4764L2.13965 9.09128Z" fill="#EE2052"/>
<path d="M0.101562 15.2451C0.101562 15.2451 0.805692 11.4137 1.62395 10.1094L8.438 13.4812C8.438 13.4812 7.63401 15.1453 7.76343 15.9625L0.101562 15.2451Z" fill="#EE2052"/>
<path d="M7.63423 17.0379C7.63423 17.0379 7.47629 18.4298 7.82071 19.6057L0.548105 21.7141C0.548105 21.7141 -0.155005 20.5096 0.0314717 16.3633L7.63423 17.0379Z" fill="#EE2052"/>
<path d="M8.10799 20.668C8.10799 20.668 9.01184 22.9098 9.28392 23.0056L3.2443 27.6542C3.2443 27.6542 1.351 25.014 0.848633 22.8191L8.10799 20.668Z" fill="#EE2052"/>
<path d="M9.95856 23.9102C9.95856 23.9102 10.8339 25.0005 11.8519 25.618L7.8635 32.0876C7.8635 32.0876 4.92266 29.9926 3.91895 28.5008L9.95856 23.9102Z" fill="#EE2052"/>
<path d="M12.8273 26.2031C12.8273 26.2031 13.5019 26.7055 15.223 27.107L13.8035 34.6089C13.8035 34.6089 10.6762 33.8956 8.82568 32.7156L12.8273 26.2031Z" fill="#EE2052"/>
<path d="M16.313 27.3084C16.313 27.3084 17.8629 27.4949 18.8952 27.2656L20.3157 34.7532C18.5258 35.0917 16.6902 35.1114 14.8936 34.8113L16.313 27.3084Z" fill="#EE2052"/>
<path d="M19.957 27.0652C19.957 27.0652 21.8218 26.5638 22.3242 26.1328L26.3268 32.6086C26.3268 32.6086 23.601 34.1146 21.4203 34.5875L19.957 27.0652Z" fill="#EE2052"/>
</svg>