<?xml version="1.0" encoding="UTF-8" standalone="no"?>
<svg width="18px" height="21px" viewBox="0 0 18 21" version="1.1" xmlns="http://www.w3.org/2000/svg" xmlns:xlink="http://www.w3.org/1999/xlink">
    <!-- Generator: Sketch 45.2 (43514) - http://www.bohemiancoding.com/sketch -->
    <title></title>
    <desc>Created with Sketch.</desc>
    <defs></defs>
    <g id="Layout" stroke="none" stroke-width="1" fill="none" fill-rule="evenodd">
        <g id="hfla-web-mobile" transform="translate(-226.000000, -3735.000000)" fill="#046AFA">
            <g id="Group-13" transform="translate(0.000000, 2539.000000)">
                <g id="Group-2" transform="translate(0.000000, 1186.000000)">
                    <path d="M235,16.015625 C234.187496,16.015625 233.484378,15.718753 232.890625,15.125 C232.296872,14.531247 232,13.8281291 232,13.015625 C232,12.2031209 232.296872,11.500003 232.890625,10.90625 C233.484378,10.312497 234.187496,10.015625 235,10.015625 C235.812504,10.015625 236.515622,10.312497 237.109375,10.90625 C237.703128,11.500003 238,12.2031209 238,13.015625 C238,13.8281291 237.703128,14.531247 237.109375,15.125 C236.515622,15.718753 235.812504,16.015625 235,16.015625 Z M235,19.53125 C237.500012,17.1874883 240.499982,16.015625 244,16.015625 L244,26.984375 C240.531233,26.984375 237.531263,28.1718631 235,30.546875 C232.468737,28.1718631 229.468767,26.984375 226,26.984375 L226,16.015625 C229.500018,16.015625 232.499988,17.1874883 235,19.53125 Z" id=""></path>
                </g>
            </g>
        </g>
    </g>
</svg>