<?xml version="1.0" encoding="utf-8"?>
<!-- Generator: Adobe Illustrator 16.0.4, SVG Export Plug-In . SVG Version: 6.00 Build 0)  -->
<!DOCTYPE svg PUBLIC "-//W3C//DTD SVG 1.1//EN" "http://www.w3.org/Graphics/SVG/1.1/DTD/svg11.dtd">
<svg version="1.1" id="Layer_1" xmlns="http://www.w3.org/2000/svg" xmlns:xlink="http://www.w3.org/1999/xlink" x="0px" y="0px"
	 width="20px" height="17px" viewBox="0 0 20 17" enable-background="new 0 0 20 17" xml:space="preserve">
<path id="Fill-1" fill="#414141" d="M20,2.218c-0.736,0.331-1.527,0.554-2.357,0.655c0.848-0.514,1.498-1.329,1.805-2.299
	c-0.793,0.477-1.671,0.822-2.605,1.009c-0.748-0.808-1.814-1.312-2.995-1.312c-2.267,0-4.103,1.86-4.103,4.155
	c0,0.326,0.035,0.643,0.105,0.946c-3.41-0.173-6.434-1.827-8.457-4.341C1.039,1.645,0.837,2.358,0.837,3.12
	c0,1.441,0.724,2.713,1.825,3.459C1.99,6.557,1.357,6.37,0.804,6.059c0,0.018,0,0.034,0,0.052c0,2.013,1.415,3.692,3.292,4.075
	C3.75,10.279,3.388,10.33,3.014,10.33c-0.264,0-0.521-0.025-0.772-0.074c0.522,1.652,2.038,2.854,3.833,2.887
	c-1.404,1.113-3.173,1.779-5.096,1.779c-0.332,0-0.658-0.021-0.979-0.059c1.816,1.178,3.973,1.867,6.29,1.867
	c7.548,0,11.675-6.332,11.675-11.823c0-0.18-0.004-0.359-0.012-0.538C18.754,3.784,19.449,3.052,20,2.218"/>
</svg>
