<?xml version="1.0" encoding="utf-8"?>
<!-- Generator: Adobe Illustrator 16.0.4, SVG Export Plug-In . SVG Version: 6.00 Build 0)  -->
<!DOCTYPE svg PUBLIC "-//W3C//DTD SVG 1.1//EN" "http://www.w3.org/Graphics/SVG/1.1/DTD/svg11.dtd">
<svg version="1.1" id="Layer_2" xmlns="http://www.w3.org/2000/svg" xmlns:xlink="http://www.w3.org/1999/xlink" x="0px" y="0px"
	 width="20px" height="20px" viewBox="0 0 20 20" enable-background="new 0 0 20 20" xml:space="preserve">
<path id="White_2_" fill="#414141" d="M18.858,0.041H1.142c-0.607,0-1.1,0.492-1.1,1.1v17.719c0,0.607,0.492,1.1,1.1,1.1h9.539
	v-7.713H8.085V9.239h2.596V7.022c0-2.572,1.57-3.973,3.865-3.973c1.1,0,2.043,0.081,2.318,0.118v2.688l-1.592,0.001
	c-1.246,0-1.488,0.593-1.488,1.463v1.919h2.977l-0.389,3.007h-2.588v7.713h5.074c0.607,0,1.1-0.492,1.1-1.1V1.141
	C19.958,0.533,19.466,0.041,18.858,0.041z"/>
</svg>
