<?xml version="1.0" encoding="utf-8"?>
<!-- Generator: Adobe Illustrator 16.0.4, SVG Export Plug-In . SVG Version: 6.00 Build 0)  -->
<!DOCTYPE svg PUBLIC "-//W3C//DTD SVG 1.1//EN" "http://www.w3.org/Graphics/SVG/1.1/DTD/svg11.dtd">
<svg version="1.1"
	 id="svg2" xmlns:svg="http://www.w3.org/2000/svg" xmlns:rdf="http://www.w3.org/1999/02/22-rdf-syntax-ns#" xmlns:cc="http://creativecommons.org/ns#" xmlns:dc="http://purl.org/dc/elements/1.1/"
	 xmlns="http://www.w3.org/2000/svg" xmlns:xlink="http://www.w3.org/1999/xlink" x="0px" y="0px" width="671.8px" height="671.8px"
	 viewBox="0 0 671.8 671.8" style="enable-background:new 0 0 671.8 671.8;" xml:space="preserve">
<g id="g10" transform="matrix(1.3333333,0,0,-1.3333333,0,671.78667)">
	<g id="g12" transform="scale(0.1)">
		<path id="path14" style="fill:#414141;" d="M2519.2,5038.4c-684.2,0-770-2.9-1038.7-15.2c-268.1-12.2-451.3-54.8-611.5-117.1
			c-165.7-64.4-306.1-150.5-446.2-290.6c-140.1-140-226.2-280.5-290.6-446.2C70,4009.1,27.4,3826,15.2,3557.9
			C2.9,3289.2,0,3203.4,0,2519.2c0-684.2,2.9-770,15.2-1038.7C27.4,1212.4,70,1029.3,132.3,869c64.4-165.7,150.5-306.2,290.6-446.2
			c140.1-140,280.5-226.2,446.2-290.6C1029.3,70,1212.4,27.4,1480.5,15.2C1749.2,2.9,1835,0,2519.2,0c684.2,0,770,2.9,1038.7,15.2
			C3826,27.4,4009.1,70,4169.4,132.2c165.7,64.4,306.2,150.5,446.2,290.6c140,140.1,226.2,280.6,290.6,446.2
			c62.3,160.2,104.9,343.4,117.1,611.5c12.3,268.7,15.2,354.5,15.2,1038.7c0,684.2-2.9,770-15.2,1038.7
			c-12.2,268.1-54.8,451.3-117.1,611.5c-64.4,165.7-150.5,306.2-290.6,446.2c-140.1,140.1-280.6,226.2-446.2,290.6
			c-160.2,62.3-343.4,104.9-611.5,117.1C3289.2,5035.5,3203.4,5038.4,2519.2,5038.4L2519.2,5038.4z M2519.2,4584.5
			c672.6,0,752.3-2.6,1018-14.7c245.6-11.2,379-52.2,467.8-86.7c117.6-45.7,201.5-100.3,289.7-188.4
			c88.2-88.2,142.7-172.1,188.4-289.7c34.5-88.8,75.5-222.2,86.7-467.8c12.1-265.6,14.7-345.3,14.7-1018
			c0-672.6-2.6-752.3-14.7-1018c-11.2-245.6-52.2-379-86.7-467.8c-45.7-117.6-100.3-201.5-188.4-289.7
			c-88.2-88.2-172.1-142.7-289.7-188.4c-88.8-34.5-222.2-75.5-467.8-86.7c-265.6-12.1-345.3-14.7-1018-14.7
			c-672.7,0-752.4,2.6-1018,14.7c-245.6,11.2-379,52.2-467.8,86.7C915.9,601,831.9,655.6,743.8,743.8S601,915.9,555.3,1033.5
			c-34.5,88.8-75.5,222.2-86.7,467.8c-12.1,265.6-14.7,345.3-14.7,1018c0,672.7,2.6,752.3,14.7,1018c11.2,245.6,52.2,379,86.7,467.8
			c45.7,117.6,100.3,201.5,188.4,289.7c88.2,88.2,172.1,142.8,289.7,188.5c88.8,34.5,222.2,75.5,467.8,86.7
			C1766.9,4581.9,1846.5,4584.5,2519.2,4584.5"/>
		<path id="path16" style="fill:#414141;" d="M2519.2,1679.5c-463.8,0-839.7,376-839.7,839.7c0,463.8,376,839.7,839.7,839.7
			c463.8,0,839.7-376,839.7-839.7C3358.9,2055.4,2983,1679.5,2519.2,1679.5z M2519.2,3812.8c-714.5,0-1293.6-579.2-1293.6-1293.7
			c0-714.5,579.2-1293.6,1293.6-1293.6c714.5,0,1293.6,579.2,1293.6,1293.6C3812.8,3233.7,3233.7,3812.8,2519.2,3812.8"/>
		<path id="path18" style="fill:#414141;" d="M4166.3,3864c0-167-135.4-302.3-302.3-302.3c-166.9,0-302.3,135.3-302.3,302.3
			c0,167,135.4,302.3,302.3,302.3C4030.9,4166.3,4166.3,4030.9,4166.3,3864"/>
	</g>
</g>
</svg>
