<?xml version="1.0" encoding="utf-8"?>
<!-- Generator: Adobe Illustrator 19.0.0, SVG Export Plug-In . SVG Version: 6.00 Build 0)  -->
<svg version="1.1" id="Layer_1" xmlns="http://www.w3.org/2000/svg" xmlns:xlink="http://www.w3.org/1999/xlink" x="0px" y="0px"
	 viewBox="0 0 5184 2160" style="enable-background:new 0 0 5184 2160;" xml:space="preserve">
<style type="text/css">
	.st0{fill:#343434;}
	.st1{fill:#2FB04A;}
	.st2{display:none;fill:#343434;}
</style>
<g>
	<path class="st0" d="M447.7,1402V758h142.6v260.3h99.1V758h142.6v644H689.3v-282h-99.1v282H447.7z"/>
	<path class="st0" d="M898.7,1402l122-644h160.8l121.2,644h-131.3l-22.1-136.7h-94l-21.8,136.7H898.7z M1067.7,1180.2h68.8
		l-34.6-249.4L1067.7,1180.2z"/>
	<path class="st0" d="M1551.7,1411c-36,0-66.7-5-92.1-15c-25.4-10-45.4-24.7-60-44.1c-14.6-19.4-25.2-41.8-31.7-67.2
		c-6.5-25.4-9.7-55.2-9.7-89.3V965.8c0-35,3.2-65.3,9.7-91.1c6.5-25.8,17-48.3,31.7-67.6c14.6-19.3,34.6-33.8,59.8-43.5
		c25.2-9.7,56-14.6,92.3-14.6c34.7,0,64.3,4.4,88.8,13.2c24.5,8.8,43.6,21.8,57.5,38.8c13.9,17.1,23.8,36.5,29.9,58.3
		c6.1,21.8,9.1,47,9.1,75.7v56.7h-139.1V927c0-10.1-0.1-17.7-0.4-22.9c-0.3-5.2-1.2-11.8-2.7-20c-1.6-8.2-3.8-14.3-6.8-18.5
		c-3-4.1-7.6-7.8-13.8-11.1c-6.2-3.2-13.7-4.9-22.5-4.9c-8.8,0-16.3,1.6-22.5,4.9c-6.2,3.2-10.9,7.1-14.2,11.7
		c-3.2,4.5-5.8,10.7-7.8,18.6c-1.9,7.9-3.1,15.1-3.5,21.6c-0.4,6.5-0.6,14.5-0.6,24.1v300.3c0,25.9,3.4,45.6,10.1,59.2
		c6.7,13.6,19.5,20.4,38.5,20.4c8.5,0,15.9-1.6,21.9-4.9c6.1-3.2,10.7-7.1,13.8-11.5c3.1-4.4,5.5-10.6,7.2-18.6c1.7-8,2.7-15,2.9-21
		c0.3-6,0.4-13.9,0.4-23.7v-67.6H1737v55.5c0,23.1-1.8,43.9-5.4,62.5c-3.6,18.6-9.8,36.2-18.5,52.6c-8.7,16.4-19.9,30.2-33.8,41.4
		c-13.9,11.1-31.5,19.9-53,26.2C1604.7,1407.8,1579.9,1411,1551.7,1411z"/>
	<path class="st0" d="M1814.3,1402V758h142.2v261.8L2065.2,758h138.7l-119.3,290.9l125.1,353.1h-145.3l-94-287.8l-14,22.1V1402
		H1814.3z"/>
	<path class="st0" d="M2264.9,1402V758h289.4v97.1H2407v159.3h112.3v99.1H2407v192.3h148.8v96.3H2264.9z"/>
	<path class="st0" d="M2620.3,1402V758h175.6c27.2,0,51.3,1.6,72.2,4.7c21,3.1,40.7,8.5,59,16.3c18.4,7.8,33.5,18,45.5,30.7
		c11.9,12.7,21.2,29,28,48.9c6.7,19.9,10.1,43.3,10.1,69.9c0,42.2-5.7,76.1-17.1,101.8c-11.4,25.6-32,45.6-61.8,59.8l88.6,311.9
		h-147.2l-70.7-288.2h-40V1402H2620.3z M2762.5,1031.8h36.5c29,0,49.5-7.5,61.4-22.5c11.9-15,17.9-37.7,17.9-68
		c0-29.8-5.4-51.9-16.1-66.2c-10.7-14.4-29.3-21.6-55.7-21.6h-43.9V1031.8z"/>
	<path class="st1" d="M3104.3,1402V758h232.3v45.4h-171.3v242h142.6v45.1h-142.6V1402H3104.3z"/>
	<path class="st1" d="M3569.3,1410.2c-25.6,0-48.2-3-67.6-8.9c-19.4-6-35.2-14.2-47.4-24.7c-12.2-10.5-22-23.6-29.5-39.4
		c-7.5-15.8-12.8-32.6-15.7-50.3c-3-17.7-4.5-38-4.5-60.8V758h58.7v470c0,16.1,0.9,30.4,2.7,43.1c1.8,12.7,5,24.8,9.7,36.3
		s10.9,21.1,18.6,28.7c7.8,7.6,18,13.7,30.7,18.3c12.7,4.5,27.4,6.8,44.3,6.8c20.2,0,37.4-3.3,51.5-9.9c14.1-6.6,25-16.2,32.6-28.7
		c7.6-12.6,13.1-26.5,16.5-41.8c3.4-15.3,5-32.9,5-52.8V758h58.3v468.1c0,22.5-1.6,42.7-4.7,60.6c-3.1,17.9-8.5,34.7-16.3,50.5
		c-7.8,15.8-17.8,28.9-30.1,39.4c-12.3,10.5-28,18.7-47,24.7C3616.1,1407.2,3594.1,1410.2,3569.3,1410.2z"/>
	<path class="st1" d="M3838.4,1402V758h44.7l205.1,499.9V758h52.1v644h-42.7l-206.7-505.8V1402H3838.4z"/>
	<path class="st1" d="M4252.1,1402V758h141c26.2,0,49.3,3,69.3,8.9c20.1,6,36.7,14.2,49.9,24.9c13.2,10.6,23.9,24,32.2,40
		c8.3,16.1,14.2,33.4,17.7,52.1c3.5,18.6,5.2,39.8,5.2,63.3v256c0,31.3-2.9,58.8-8.5,82.3c-5.7,23.6-15,44.3-28,62.2
		c-13,17.9-30.5,31.4-52.6,40.6c-22.1,9.2-49,13.8-80.6,13.8H4252.1z M4313.1,1356.6h81.2c19.9,0,36.8-2.8,50.7-8.4
		c13.9-5.6,24.7-12.7,32.6-21.4c7.9-8.7,14-20.5,18.4-35.5c4.4-15,7.2-29.7,8.4-44.1c1.2-14.4,1.7-32.2,1.7-53.4V953.4
		c0-20.7-0.8-38.3-2.5-52.8c-1.7-14.5-4.9-28.2-9.7-41c-4.8-12.8-11.4-23-19.8-30.7c-8.4-7.6-19.4-13.6-33-17.9
		c-13.6-4.3-29.9-6.4-48.7-6.4h-79.2V1356.6z"/>
	<g id="_x38_wxVSu.tif">
		<g>
			<path class="st2" d="M4736.3,882.6c-41.5,0-83.1,0-124.6,0c0-41.5,0-83.1,0-124.6c41.5,0,83.1,0,124.6,0
				C4736.3,799.5,4736.3,841.1,4736.3,882.6z M4611.8,820.2c0,34.3,27.8,62.1,62,62.2c34.5,0,62.3-27.8,62.3-62.2
				c0-34.4-27.8-62.2-62.2-62.2C4639.6,758.1,4611.8,785.9,4611.8,820.2z"/>
			<path class="st0" d="M4611.8,820.2c0-34.3,27.8-62.2,62.1-62.2c34.4,0,62.2,27.8,62.2,62.2c0,34.4-27.8,62.2-62.3,62.2
				C4639.6,882.4,4611.8,854.5,4611.8,820.2z M4673.9,869.8c27.3,0,49.6-22.2,49.6-49.5c0-27.3-22.2-49.5-49.5-49.6
				c-27.4,0-49.6,22.2-49.6,49.5C4624.4,847.5,4646.6,869.8,4673.9,869.8z"/>
			<path class="st2" d="M4673.9,869.8c-27.3,0-49.5-22.2-49.5-49.5c0-27.4,22.2-49.6,49.6-49.5c27.3,0,49.5,22.2,49.5,49.6
				C4723.4,847.6,4701.2,869.8,4673.9,869.8z M4663.4,826.7c2.4,0.1,4.7,0,7,0.2c2.6,0.3,4.9,1.5,6.4,3.7c0.9,1.3,1.8,2.7,2.5,4.1
				c2.7,5.3,5.3,10.7,7.9,16c0.2,0.4,0.4,0.6,1,0.6c5.5,0,11,0,16.5,0c0.2,0,0.4,0,0.7,0c-0.1-0.3-0.2-0.5-0.3-0.7
				c-2.6-5.1-5.1-10.3-7.7-15.4c-1.4-2.7-2.6-5.5-4.4-8c-1.7-2.5-3.8-4.5-6.6-5.7c-0.5-0.2-1.1-0.4-1.6-0.6c0.9-0.4,1.8-0.7,2.7-1.1
				c3.6-1.6,6.5-4,8.1-7.7c1.3-2.9,1.6-6,1.5-9.2c-0.1-2.7-0.6-5.4-1.9-7.8c-1.9-3.6-5.1-5.7-8.8-7c-4.1-1.4-8.4-1.9-12.8-1.9
				c-8.8,0-17.5,0-26.3,0c-0.2,0-0.3,0-0.5,0c0,21.7,0,43.3,0,65c5.6,0,11.1,0,16.7,0C4663.4,843.1,4663.4,835,4663.4,826.7z"/>
			<path class="st0" d="M4663.4,826.7c0,8.3,0,16.5,0,24.6c-5.6,0-11.2,0-16.7,0c0-21.7,0-43.3,0-65c0.2,0,0.4,0,0.5,0
				c8.8,0,17.5,0,26.3,0c4.3,0,8.6,0.5,12.8,1.9c3.7,1.3,6.9,3.4,8.8,7c1.3,2.4,1.8,5.1,1.9,7.8c0.1,3.1-0.2,6.2-1.5,9.2
				c-1.6,3.7-4.5,6.1-8.1,7.7c-0.9,0.4-1.7,0.7-2.7,1.1c0.6,0.2,1.1,0.4,1.6,0.6c2.8,1.2,4.9,3.3,6.6,5.7c1.8,2.5,3.1,5.3,4.4,8
				c2.6,5.1,5.1,10.3,7.7,15.4c0.1,0.2,0.2,0.4,0.3,0.7c-0.3,0-0.5,0-0.7,0c-5.5,0-11,0-16.5,0c-0.5,0-0.8-0.2-1-0.6
				c-2.6-5.3-5.2-10.7-7.9-16c-0.7-1.4-1.6-2.8-2.5-4.1c-1.6-2.2-3.8-3.4-6.4-3.7C4668.1,826.7,4665.8,826.7,4663.4,826.7z
				 M4663.5,815.1c2.8,0,5.5,0,8.2,0c0.9,0,1.8-0.2,2.7-0.3c2.9-0.6,5-2.2,5.6-5.2c0.4-1.9,0.4-3.8,0-5.7c-0.5-2.3-1.8-4-4.2-4.7
				c-1.2-0.3-2.4-0.6-3.5-0.7c-2.8-0.1-5.6-0.1-8.4-0.1c-0.1,0-0.3,0-0.4,0.1C4663.5,804.1,4663.5,809.6,4663.5,815.1z"/>
			<path class="st2" d="M4663.5,815.1c0-5.6,0-11.1,0-16.6c0.1,0,0.3-0.1,0.4-0.1c2.8,0,5.6,0,8.4,0.1c1.2,0,2.4,0.3,3.5,0.7
				c2.4,0.7,3.7,2.4,4.2,4.7c0.4,1.9,0.4,3.8,0,5.7c-0.7,3-2.7,4.6-5.6,5.2c-0.9,0.2-1.8,0.3-2.7,0.3
				C4669,815.2,4666.3,815.1,4663.5,815.1z"/>
		</g>
	</g>
</g>
</svg>
