<?xml version="1.0" encoding="utf-8"?>
<!-- Generator: Adobe Illustrator 15.0.2, SVG Export Plug-In . SVG Version: 6.00 Build 0)  -->
<!DOCTYPE svg PUBLIC "-//W3C//DTD SVG 1.1//EN" "http://www.w3.org/Graphics/SVG/1.1/DTD/svg11.dtd">
<svg version="1.1"
	 id="svg2" xmlns:rdf="http://www.w3.org/1999/02/22-rdf-syntax-ns#" xmlns:svg="http://www.w3.org/2000/svg" xmlns:cc="http://creativecommons.org/ns#" xmlns:dc="http://purl.org/dc/elements/1.1/"
	 xmlns="http://www.w3.org/2000/svg" xmlns:xlink="http://www.w3.org/1999/xlink" x="0px" y="0px" width="411.06px"
	 height="96.312px" viewBox="93.951 68.597 411.06 96.312" enable-background="new 93.951 68.597 411.06 96.312"
	 xml:space="preserve">
<g id="g10" transform="matrix(1.3333333,0,0,-1.3333333,0,240)">
	<g id="g12" transform="scale(0.1)">
		<path id="path14" fill="#048371" d="M1388.921,575.376h-109.783v526.425h109.783V575.376z M1388.782,1179.569H1279.27v105.952
			h109.512V1179.569"/>
		<path id="path16" fill="#048371" d="M2022.191,1101.801L1869.32,647.08c-26.279-74.363-73.129-83.899-111.05-83.899
			c-56.32,0-90.231,25.876-110.211,83.767l-127.419,377.622h-50.42v77.23h131.521l131.32-422.714
			c5.739-18.032,9.28-28.835,25.21-28.835c16.538,0,19.808,10.964,25.148,28.835l133.993,422.714H2022.191"/>
		<path id="path18" fill="#048371" d="M2292.495,649.82c84.976,0,137.637,64.263,137.637,141.321v82.705
			c0,77.131-52.2,141.383-137.637,141.383c-89.963,0-137.556-64.252-137.556-141.383V791.14
			C2154.939,714.082,2204.605,649.82,2292.495,649.82 M2292.495,1101.801c142.068,0,241.106-93.702,241.106-227.955V791.14
			c0-134.084-99.038-227.959-241.106-227.959c-141.984,0-241.234,93.875-241.234,227.959v82.705
			C2051.261,1008.098,2150.512,1101.801,2292.495,1101.801"/>
		<path id="path20" fill="#048371" d="M3409.974,1084.999c-54.69,14.07-140.164,24.272-203.284,24.272
			c-144.126,0-233.569-90.901-233.569-237.433v-57.686c0-146.389,89.436-238.674,233.569-238.674c3.333,0,28.938-0.103,40.613,1.04
			v88.374c-4.431,0-37.354-1.172-40.613-1.172c-78.398,0-131.133,60.454-131.133,150.432v57.686
			c0,89.974,52.734,150.403,131.133,150.403c35.479,0,89.033-2.871,107.512-6.771l5.867-1.271l0.132-438.823h109.68v491.386
			C3429.881,1076.129,3429.881,1079.729,3409.974,1084.999"/>
		<path id="path22" fill="#048371" d="M3645.367,575.376h-109.739v710.145h109.739V575.376"/>
		<path id="path24" fill="#048371" d="M897.243,1285.521H704.634V575.479h114.148v611.331h66.925
			c14.202-0.099,26.309-0.699,38.448-0.93c98.943-1.908,147.363-41.158,147.363-118.088c0-3.102,0.201-5.131,0.201-8.331
			c0-71.166-39.089-118.389-146.96-118.389c-10.309,0-20.911,0.234-31.882,0.135c0.033-27.213-0.106-77.695-0.165-95.442
			c11.136-0.535,21.541-1.003,32.212-1.003c154.797,0,264.104,60.864,264.104,213.629c0,2.999-0.157,6.13-0.157,9.199
			C1188.871,1225.932,1069.779,1285.521,897.243,1285.521"/>
		<path id="path26" fill="#048371" d="M2728.477,1215.29v-113.489h178.755v-85.031h-178.755V710.039
			c0-48.12,30.754-49.417,75.3-49.417h103.513v-85.144h-140.061c-103.572,0-149.759,41.455-149.759,134.561v490.012
			L2728.477,1215.29"/>
		<path id="path28" fill="#048371" d="M3740.589,620.713c8.284,0.278,13.323,4.233,13.323,10.847
			c0,7.031-4.482,10.554-14.019,10.554c-0.139,0-8.423,0-8.423,0v-21.826L3740.589,620.713z M3731.609,597.07h-5.339v49.827
			c0,0,13.887,0,14.033,0c12.634,0,18.809-5.779,18.809-15.066c0-7.324-4.351-11.96-10.239-14.209l12.898-20.552h-6.313
			l-11.924,19.277l-11.924-0.703V597.07z M3741.709,660.989c-21.541,0-39.031-17.952-39.031-39.426
			c0-21.482,17.49-39.294,39.031-39.294c21.68,0,39.17,17.812,39.17,39.294C3780.879,643.037,3763.389,660.989,3741.709,660.989z
			 M3695.831,621.424c0,25.474,20.479,46.165,45.879,46.165c25.393,0,45.872-20.691,45.872-46.165
			c0-25.342-20.479-46.047-45.872-46.047C3716.309,575.376,3695.831,596.082,3695.831,621.424"/>
	</g>
</g>
</svg>
