<?xml version="1.0" encoding="utf-8"?>
<!-- Generator: Adobe Illustrator 16.0.4, SVG Export Plug-In . SVG Version: 6.00 Build 0)  -->
<!DOCTYPE svg PUBLIC "-//W3C//DTD SVG 1.1//EN" "http://www.w3.org/Graphics/SVG/1.1/DTD/svg11.dtd">
<svg version="1.1" id="Layer_1" xmlns="http://www.w3.org/2000/svg" xmlns:xlink="http://www.w3.org/1999/xlink" x="0px" y="0px"
	 width="722.773px" height="247.893px" viewBox="116.747 158.293 722.773 247.893"
	 enable-background="new 116.747 158.293 722.773 247.893" xml:space="preserve">
<g>
	<path d="M116.747,163.146h66.08v180.32h115.36v57.866h-181.44V163.146z"/>
	<path d="M400.106,161.653h63.467l101.174,239.68h-70.561l-17.173-42.56h-91.84L368,401.333h-69.067L400.106,161.653
		L400.106,161.653z M457.974,307.253l-26.507-67.573l-26.88,67.573H457.974L457.974,307.253z"/>
	<path d="M536,282.986v-0.746c0-69.44,53.387-123.947,125.44-123.947c48.533,0,79.893,20.533,100.8,49.653L712.587,246.4
		c-13.44-17.173-29.12-28-51.894-28c-33.227,0-56.747,28.374-56.747,63.093v0.747c0,35.84,23.521,63.467,56.747,63.467
		c25.014,0,39.573-11.573,53.76-28.747l49.653,35.467c-22.399,30.986-52.64,53.76-105.28,53.76
		C590.507,405.813,536,353.92,536,282.986z"/>
	<path d="M773.066,163.146h66.453v238.187h-66.453V163.146z"/>
</g>
</svg>
