<?xml version="1.0" encoding="UTF-8"?>
<svg width="700pt" height="700pt" version="1.1" viewBox="0 0 700 700" xmlns="http://www.w3.org/2000/svg" xmlns:xlink="http://www.w3.org/1999/xlink">
 <defs>
  <symbol id="d" overflow="visible">
   <path d="m39.078-2.3281c-2.0117 1.043-4.1094 1.8281-6.2969 2.3594s-4.4648 0.79688-6.8281 0.79688c-7.0859 0-12.699-1.9766-16.844-5.9375-4.1367-3.957-6.2031-9.3281-6.2031-16.109 0-6.7891 2.0664-12.164 6.2031-16.125 4.1445-3.9688 9.7578-5.9531 16.844-5.9531 2.3633 0 4.6406 0.26562 6.8281 0.79688s4.2852 1.3242 6.2969 2.375v8.7969c-2.0312-1.3828-4.0391-2.3984-6.0156-3.0469-1.9688-0.64453-4.0469-0.96875-6.2344-0.96875-3.9062 0-6.9844 1.2578-9.2344 3.7656-2.2422 2.5-3.3594 5.9531-3.3594 10.359 0 4.3867 1.1172 7.8359 3.3594 10.344 2.25 2.5 5.3281 3.75 9.2344 3.75 2.1875 0 4.2656-0.32031 6.2344-0.96875 1.9766-0.64453 3.9844-1.6602 6.0156-3.0469z"/>
  </symbol>
  <symbol id="a" overflow="visible">
   <path d="m16.031-40.953v9.0625h10.516v7.2812h-10.516v13.531c0 1.4805 0.28906 2.4805 0.875 3 0.59375 0.52344 1.7656 0.78125 3.5156 0.78125h5.2344v7.2969h-8.7344c-4.0312 0-6.8867-0.83594-8.5625-2.5156-1.6797-1.6875-2.5156-4.5391-2.5156-8.5625v-13.531h-5.0781v-7.2812h5.0781v-9.0625z"/>
  </symbol>
  <symbol id="c" overflow="visible">
   <path d="m26.594-27.234v-17.078h10.266v44.312h-10.266v-4.6094c-1.3984 1.875-2.9453 3.25-4.6406 4.125-1.6875 0.875-3.6406 1.3125-5.8594 1.3125-3.9297 0-7.1562-1.5625-9.6875-4.6875-2.5234-3.125-3.7812-7.1445-3.7812-12.062 0-4.9141 1.2578-8.9375 3.7812-12.062 2.5312-3.125 5.7578-4.6875 9.6875-4.6875 2.1953 0 4.1445 0.44531 5.8438 1.3281 1.707 0.88672 3.2578 2.2578 4.6562 4.1094zm-6.7188 20.656c2.1875 0 3.8516-0.79688 5-2.3906 1.1445-1.5938 1.7188-3.9102 1.7188-6.9531 0-3.0391-0.57422-5.3594-1.7188-6.9531-1.1484-1.5938-2.8125-2.3906-5-2.3906-2.168 0-3.8242 0.79688-4.9688 2.3906-1.1484 1.5938-1.7188 3.9141-1.7188 6.9531 0 3.043 0.57031 5.3594 1.7188 6.9531 1.1445 1.5938 2.8008 2.3906 4.9688 2.3906z"/>
  </symbol>
  <symbol id="b" overflow="visible">
   <path d="m21.875-6.5781c2.1758 0 3.8359-0.79688 4.9844-2.3906 1.1562-1.5938 1.7344-3.9102 1.7344-6.9531 0-3.0391-0.57812-5.3594-1.7344-6.9531-1.1484-1.5938-2.8086-2.3906-4.9844-2.3906-2.1875 0-3.8672 0.80469-5.0312 2.4062-1.168 1.6055-1.75 3.918-1.75 6.9375 0 3.0234 0.58203 5.3359 1.75 6.9375 1.1641 1.6055 2.8438 2.4062 5.0312 2.4062zm-6.7812-20.656c1.4062-1.8516 2.9609-3.2227 4.6719-4.1094 1.707-0.88281 3.6719-1.3281 5.8906-1.3281 3.9375 0 7.1641 1.5625 9.6875 4.6875 2.5195 3.125 3.7812 7.1484 3.7812 12.062 0 4.918-1.2617 8.9375-3.7812 12.062-2.5234 3.125-5.75 4.6875-9.6875 4.6875-2.2188 0-4.1836-0.44531-5.8906-1.3281-1.7109-0.88281-3.2656-2.2539-4.6719-4.1094v4.6094h-10.188v-44.312h10.188z"/>
  </symbol>
 </defs>
 <g>
  <path d="m198.33 450.33c7.9648-9.0273 12.129-20.785 11.629-32.816-0.50391-12.027-5.6367-23.395-14.324-31.73-8.6914-8.332-20.266-12.984-32.305-12.984-12.039 0-23.613 4.6523-32.301 12.984-8.6875 8.3359-13.82 19.703-14.324 31.73-0.50391 12.031 3.6641 23.789 11.625 32.816-17.203 6.9609-31.941 18.891-42.332 34.27-10.391 15.379-15.961 33.504-16 52.066v11.668-0.003907c0 3.0938 1.2305 6.0625 3.418 8.25s5.1562 3.418 8.25 3.418h163.33c3.0938 0 6.0625-1.2305 8.25-3.418s3.418-5.1562 3.418-8.25v-11.664c-0.039063-18.562-5.6094-36.688-16-52.066-10.391-15.379-25.129-27.309-42.336-34.27zm-58.332-30.332c0-6.1875 2.457-12.125 6.8359-16.5 4.375-4.375 10.309-6.832 16.496-6.832 6.1914 0 12.125 2.457 16.5 6.832s6.8359 10.312 6.8359 16.5-2.4609 12.125-6.8359 16.5-10.309 6.832-16.5 6.832c-6.1875 0-12.121-2.457-16.496-6.832-4.3789-4.375-6.8359-10.312-6.8359-16.5zm-46.668 116.67c0-25.012 13.344-48.117 35-60.625 21.66-12.504 48.344-12.504 70 0 21.66 12.508 35 35.613 35 60.625z"/>
  <path d="m571.67 450.33c7.9609-9.0273 12.129-20.785 11.625-32.816-0.50391-12.027-5.6367-23.395-14.324-31.73-8.6875-8.332-20.262-12.984-32.301-12.984-12.039 0-23.613 4.6523-32.305 12.984-8.6875 8.3359-13.82 19.703-14.324 31.73-0.5 12.031 3.6641 23.789 11.629 32.816-17.207 6.9609-31.945 18.891-42.336 34.27-10.391 15.379-15.961 33.504-16 52.066v11.668-0.003907c0 3.0938 1.2305 6.0625 3.418 8.25s5.1562 3.418 8.25 3.418h163.33c3.0938 0 6.0625-1.2305 8.25-3.418s3.418-5.1562 3.418-8.25v-11.664c-0.039062-18.562-5.6094-36.688-16-52.066-10.391-15.379-25.129-27.309-42.332-34.27zm-58.336-30.332c0-6.1875 2.4609-12.125 6.8359-16.5s10.309-6.832 16.5-6.832c6.1875 0 12.121 2.457 16.496 6.832 4.3789 4.375 6.8359 10.312 6.8359 16.5s-2.457 12.125-6.8359 16.5c-4.375 4.375-10.309 6.832-16.496 6.832-6.1914 0-12.125-2.457-16.5-6.832s-6.8359-10.312-6.8359-16.5zm-46.664 116.67c0-25.012 13.34-48.117 35-60.625 21.656-12.504 48.34-12.504 70 0 21.656 12.508 35 35.613 35 60.625z"/>
  <path d="m268.33 186.67h163.34c3.0938 0 6.0586-1.2305 8.25-3.418 2.1875-2.1875 3.4141-5.1562 3.4141-8.25v-11.668c-0.035156-18.559-5.6055-36.684-15.996-52.062-10.391-15.379-25.133-27.309-42.336-34.27 7.9648-9.0312 12.129-20.789 11.625-32.816-0.5-12.027-5.6328-23.398-14.324-31.73-8.6875-8.3359-20.262-12.988-32.301-12.988s-23.613 4.6523-32.301 12.988c-8.6914 8.332-13.824 19.703-14.324 31.73-0.50391 12.027 3.6602 23.785 11.625 32.816-17.203 6.9609-31.945 18.891-42.336 34.27-10.391 15.379-15.961 33.504-15.996 52.062v11.668c0 3.0938 1.2266 6.0625 3.4141 8.25 2.1914 2.1875 5.1562 3.418 8.25 3.418zm58.336-140c0-6.1914 2.457-12.125 6.832-16.5s10.312-6.8359 16.5-6.8359 12.125 2.4609 16.5 6.8359 6.832 10.309 6.832 16.5c0 6.1875-2.457 12.121-6.832 16.496-4.375 4.3789-10.312 6.8359-16.5 6.8359s-12.125-2.457-16.5-6.8359c-4.375-4.375-6.832-10.309-6.832-16.496zm23.332 46.668v-0.003907c18.566 0 36.371 7.375 49.496 20.504 13.129 13.129 20.504 30.934 20.504 49.496h-140c0-18.562 7.375-36.367 20.504-49.496 13.125-13.129 30.93-20.504 49.496-20.504z"/>
  <path d="m451.73 44.332c56.906 24.598 102.99 68.957 129.73 124.89 26.742 55.93 32.336 119.65 15.75 179.38-1.2109 5.9844 2.3984 11.895 8.2773 13.547 5.8789 1.6523 12.039-1.5078 14.125-7.25 18.004-65.094 11.875-134.5-17.262-195.44-29.137-60.93-79.316-109.28-141.29-136.13-5.4961-1.3672-11.18 1.4062-13.48 6.582-2.3008 5.1758-0.55078 11.258 4.1484 14.418z"/>
  <path d="m102.79 348.6c-16.586-59.734-10.992-123.45 15.75-179.38 26.742-55.93 72.824-100.29 129.73-124.89 4.6992-3.1602 6.4492-9.2422 4.1484-14.418-2.3008-5.1758-7.9844-7.9492-13.48-6.582-61.973 26.852-112.15 75.199-141.29 136.13-29.137 60.934-35.266 130.34-17.262 195.44 2.0859 5.7422 8.2461 8.9023 14.125 7.25 5.8789-1.6523 9.4883-7.5625 8.2773-13.547z"/>
  <path d="m405.77 530.48c-87.965 20.184-119.93-15.285-125.77 8.75-1.3828 6.2422 2.5195 12.434 8.75 13.883 40.078 9.2148 81.723 9.2148 121.8 0 5.5195-1.9492 8.7422-7.6875 7.5312-13.414-1.2109-5.7266-6.4805-9.6719-12.316-9.2188z"/>
  <path d="m448.58 442.05c8.3984-4.1992 6.418-11.668 6.418-33.715h11.668v-0.003907c3.0938 0 6.0586-1.2266 8.25-3.4141 2.1875-2.1914 3.4141-5.1562 3.4141-8.25v-93.336c0-3.0938-1.2266-6.0586-3.4141-8.25-2.1914-2.1875-5.1562-3.4141-8.25-3.4141h-81.668v-35c0-3.0938-1.2305-6.0625-3.418-8.25s-5.1562-3.418-8.25-3.418h-58.332c0-24.734 1.6328-29.75-6.418-33.715-8.0469-3.9688-9.6836-1.2852-55.766 33.715h-19.484c-6.4414 0-11.664 5.2227-11.664 11.668v93.332c0 3.0938 1.2266 6.0625 3.4141 8.25 2.1914 2.1875 5.1562 3.418 8.25 3.418h81.668v35c0 3.0938 1.2305 6.0586 3.418 8.25 2.1875 2.1875 5.1562 3.4141 8.25 3.4141h66.148c42.699 32.086 47.016 38.152 55.766 33.719zm-203.58-103.72v-70c19.367 0 10.965 3.5 46.668-23.332v11.668c0 3.0938 1.2266 6.0586 3.4141 8.25 2.1914 2.1875 5.1562 3.4141 8.25 3.4141h58.332v23.332l-34.996 0.003907c-6.4453 0-11.668 5.2227-11.668 11.664v35zm186.67 58.332v11.668l-28-21c-4.3164-3.1484-2.5664-2.332-65.332-2.332l-0.003907-70h116.67v70h-11.668c-6.4414 0-11.664 5.2227-11.664 11.668z"/>
  <path d="m373.33 338.33c-6.4414 0-11.664 5.2266-11.664 11.668s5.2227 11.668 11.664 11.668c6.4453 0 11.668-5.2266 11.668-11.668s-5.2227-11.668-11.668-11.668z"/>
  <path d="m420 338.33c-6.4414 0-11.668 5.2266-11.668 11.668s5.2266 11.668 11.668 11.668 11.668-5.2266 11.668-11.668-5.2266-11.668-11.668-11.668z"/>
  <use x="70" y="735" xlink:href="#d"/>
  <use x="220.503906" y="735" xlink:href="#a"/>
  <use x="287.953125" y="735" xlink:href="#c"/>
  <use x="350.015625" y="735" xlink:href="#b"/>
  <use x="450.105469" y="735" xlink:href="#a"/>
  <use x="639.945312" y="735" xlink:href="#a"/>
 </g>
</svg>
