<svg width="345" height="241" viewBox="0 0 345 241" fill="none" xmlns="http://www.w3.org/2000/svg">
<g opacity="0.8">
<path d="M34.7495 39.3359H305.506" stroke="#C9BEB8" stroke-width="1.59222" stroke-miterlimit="10"/>
<path d="M301.971 20.6289H38.2846C36.3322 20.6289 34.7495 22.2973 34.7495 24.3553V193.484C34.7495 195.542 36.3322 197.211 38.2846 197.211H301.971C303.923 197.211 305.506 195.542 305.506 193.484V24.3553C305.506 22.2973 303.923 20.6289 301.971 20.6289Z" stroke="#C9BEB8" stroke-width="1.59222" stroke-miterlimit="10"/>
<path d="M52.5929 30.1726C52.5939 30.6894 52.4495 31.195 52.1779 31.6253C51.9063 32.0556 51.5197 32.3912 51.067 32.5898C50.6144 32.7884 50.116 32.8409 49.635 32.7408C49.154 32.6406 48.7119 32.3923 48.3649 32.0273C48.0178 31.6622 47.7813 31.1968 47.6852 30.69C47.5892 30.1832 47.6379 29.6577 47.8253 29.1801C48.0127 28.7025 48.3303 28.2943 48.7379 28.007C49.1455 27.7197 49.6247 27.5664 50.115 27.5664C50.7713 27.5664 51.4007 27.8408 51.8652 28.3294C52.3297 28.818 52.5914 29.4809 52.5929 30.1726Z" fill="#FFB1A5"/>
<path d="M62.2169 30.1726C62.218 30.6894 62.0736 31.195 61.8019 31.6253C61.5303 32.0556 61.1437 32.3912 60.6911 32.5898C60.2384 32.7884 59.74 32.8409 59.259 32.7408C58.778 32.6406 58.336 32.3923 57.9889 32.0273C57.6418 31.6622 57.4053 31.1968 57.3092 30.69C57.2132 30.1832 57.2619 29.6577 57.4493 29.1801C57.6367 28.7025 57.9543 28.2943 58.3619 28.007C58.7695 27.7197 59.2488 27.5664 59.7391 27.5664C60.3953 27.5664 61.0247 27.8408 61.4892 28.3294C61.9538 28.818 62.2155 29.4809 62.2169 30.1726Z" fill="#EAD254"/>
<path d="M71.8409 30.1726C71.842 30.6895 71.6975 31.195 71.4259 31.6253C71.1543 32.0556 70.7677 32.3912 70.315 32.5898C69.8624 32.7884 69.364 32.8409 68.883 32.7408C68.402 32.6406 67.96 32.3923 67.6129 32.0273C67.2658 31.6622 67.0293 31.1968 66.9333 30.69C66.8372 30.1832 66.886 29.6577 67.0733 29.1801C67.2607 28.7025 67.5783 28.2943 67.9859 28.007C68.3935 27.7197 68.8728 27.5664 69.3631 27.5664C69.6882 27.5657 70.0103 27.6325 70.3109 27.7632C70.6115 27.8938 70.8847 28.0856 71.1148 28.3277C71.345 28.5698 71.5276 28.8574 71.6522 29.1739C71.7768 29.4905 71.8409 29.8299 71.8409 30.1726Z" fill="#00857B"/>
<path d="M57.0336 4.33225H2.05492C1.50993 4.33225 0.987247 4.10403 0.601874 3.6978C0.2165 3.29158 0 2.74062 0 2.16612C0 1.59163 0.2165 1.04067 0.601874 0.634445C0.987247 0.228218 1.50993 0 2.05492 0H57.0336C57.5786 0 58.1013 0.228218 58.4867 0.634445C58.8721 1.04067 59.0886 1.59163 59.0886 2.16612C59.0886 2.74062 58.8721 3.29158 58.4867 3.6978C58.1013 4.10403 57.5786 4.33225 57.0336 4.33225Z" fill="#C98BD2"/>
<path d="M342.918 145.893H316.231C315.685 145.891 315.163 145.662 314.777 145.255C314.392 144.847 314.176 144.296 314.176 143.721C314.176 143.146 314.392 142.595 314.778 142.189C315.163 141.783 315.686 141.555 316.231 141.555H342.918C343.463 141.555 343.985 141.783 344.371 142.189C344.756 142.595 344.973 143.146 344.973 143.721C344.973 144.296 344.756 144.847 344.371 145.255C343.986 145.662 343.463 145.891 342.918 145.893Z" fill="#56DFED"/>
<path d="M324.234 164.477H320.97C320.113 164.477 319.419 165.208 319.419 166.111V169.34C319.419 170.243 320.113 170.975 320.97 170.975H324.234C325.09 170.975 325.784 170.243 325.784 169.34V166.111C325.784 165.208 325.09 164.477 324.234 164.477Z" fill="#C98BD2"/>
<path d="M15.1546 179.492H11.8905C11.0341 179.492 10.3398 180.224 10.3398 181.127V184.356C10.3398 185.259 11.0341 185.991 11.8905 185.991H15.1546C16.011 185.991 16.7052 185.259 16.7052 184.356V181.127C16.7052 180.224 16.011 179.492 15.1546 179.492Z" fill="#FFB1A5"/>
<path d="M245.675 133.016L225.885 130.238L226.042 132.313L209.12 134.685C209.12 134.685 198.189 163.547 207.802 226.988H221.569L226.519 162.662H228.281L233.08 226.988H246.841C256.454 163.547 245.675 133.016 245.675 133.016Z" fill="#8E716C"/>
<path d="M220.229 162.645H234.592" stroke="#282828" stroke-width="0.994129" stroke-linecap="round" stroke-linejoin="round"/>
<path d="M257.213 102.585C255.521 99.7272 246.006 99.8358 245.507 99.7729C242.937 99.4586 247.133 121.023 252.501 139.878C252.745 140.729 253.156 141.516 253.707 142.189C254.259 142.861 254.938 143.404 255.702 143.781C256.466 144.159 257.296 144.362 258.139 144.379C258.982 144.396 259.82 144.225 260.596 143.878L260.704 143.833C261.969 143.269 263.012 142.265 263.661 140.989C264.309 139.713 264.523 138.242 264.267 136.82C261.724 122.617 259.17 105.877 257.213 102.585Z" fill="#FFB1A5"/>
<path d="M259.479 110.387L247.339 115.353L246.201 109.278L258.774 105.969L259.479 110.387Z" fill="#F3978E"/>
<path d="M261.772 122.538C261.772 122.538 256.02 130.677 256.296 130.305C256.573 129.934 260.807 117.16 260.807 117.16L261.772 122.538Z" fill="#F3978E"/>
<path d="M269.998 111.586L253.51 134.11C252.998 134.809 252.629 135.612 252.426 136.469C252.223 137.326 252.191 138.218 252.332 139.088C252.472 139.959 252.782 140.789 253.243 141.527C253.703 142.265 254.304 142.894 255.006 143.375C255.706 143.855 256.493 144.178 257.317 144.324C258.141 144.469 258.985 144.433 259.796 144.218C260.606 144.004 261.365 143.615 262.027 143.076C262.688 142.538 263.236 141.861 263.638 141.089L277.366 114.392L269.998 111.586Z" fill="#FFB1A5"/>
<path d="M274.265 117.372C272.986 116.935 271.859 116.108 271.025 114.996C270.192 113.884 269.69 112.537 269.583 111.124C269.476 109.712 269.769 108.297 270.424 107.06C271.079 105.823 272.068 104.818 273.265 104.173C274.462 103.527 275.813 103.271 277.149 103.435C278.484 103.599 279.743 104.177 280.767 105.095C281.791 106.014 282.533 107.232 282.901 108.595C283.268 109.958 283.244 111.405 282.832 112.754C282.557 113.65 282.118 114.481 281.539 115.199C280.96 115.916 280.252 116.506 279.456 116.935C278.661 117.364 277.793 117.623 276.902 117.698C276.011 117.773 275.115 117.662 274.265 117.372Z" fill="#FFB1A5"/>
<path d="M281.313 106.237C281.313 106.237 283.178 104.202 279.876 102.773C276.575 101.345 272.492 101.676 269.884 108.346L281.313 106.237Z" fill="#FFB1A5"/>
<path d="M284.713 92.0067L291.621 95.1616C291.712 95.2057 291.794 95.2699 291.86 95.3498C291.926 95.4298 291.976 95.5237 292.005 95.6253C292.034 95.7269 292.043 95.8339 292.03 95.9392C292.017 96.0445 291.983 96.1457 291.93 96.236L282.87 114.119C282.772 114.32 282.607 114.476 282.406 114.556C282.206 114.636 281.985 114.635 281.785 114.554L274.883 111.399C274.792 111.355 274.71 111.292 274.644 111.212C274.578 111.133 274.528 111.04 274.498 110.939C274.468 110.838 274.459 110.732 274.472 110.627C274.484 110.522 274.517 110.421 274.569 110.33L283.65 92.4468C283.747 92.2503 283.908 92.0974 284.103 92.0165C284.299 91.9355 284.515 91.932 284.713 92.0067Z" fill="#372F5F"/>
<path d="M284.078 91.6926L290.981 94.8475C291.072 94.8912 291.153 94.9547 291.22 95.034C291.286 95.1133 291.336 95.2065 291.365 95.3074C291.395 95.4084 291.404 95.5149 291.392 95.6198C291.38 95.7247 291.347 95.8258 291.295 95.9163L282.213 113.822C282.116 114.024 281.952 114.181 281.751 114.262C281.551 114.343 281.329 114.344 281.129 114.263L274.221 111.108C274.13 111.064 274.048 110.999 273.982 110.919C273.915 110.839 273.866 110.746 273.837 110.644C273.807 110.542 273.799 110.435 273.812 110.33C273.825 110.225 273.859 110.124 273.912 110.033L282.999 92.1041C283.101 91.9088 283.266 91.7592 283.465 91.6835C283.664 91.6077 283.882 91.6109 284.078 91.6926Z" fill="#261B43"/>
<path d="M283.298 93.5117L289.365 96.2837L281.964 110.858L275.897 108.086L283.298 93.5117Z" fill="#E6E6E6"/>
<path d="M289.365 96.2837L275.897 108.086L283.298 93.5117L289.365 96.2837Z" fill="white"/>
<path d="M277.892 102.18C278.915 102.412 279.901 102.797 280.82 103.323C281.117 103.5 281.351 103.774 281.487 104.104C281.623 104.434 281.653 104.802 281.574 105.152C281.498 105.472 281.332 105.76 281.097 105.98C280.863 106.199 280.572 106.339 280.261 106.38L276.672 106.855C276.672 106.855 274.801 110.284 272.334 110.638L274.595 104.677L277.892 102.18Z" fill="#FFB1A5"/>
<path d="M232.055 74.2275C231.659 74.2275 257.505 77.9997 261.772 109.091L248.386 111.234L245.675 134.667H208.263L200.83 91.3336C200.83 91.3336 209.12 78.8112 224.518 74.1875L232.055 74.2275Z" fill="#56DFED"/>
<path d="M248.359 111.232L249.525 97.6641" stroke="#282828" stroke-width="0.994129" stroke-linecap="round" stroke-linejoin="round"/>
<path d="M234.511 74.6734V63.8828H222.512V74.7992C221.408 75.1734 220.331 75.6338 219.292 76.1766L228.644 82.052L238.214 76.1766C237.046 75.5106 235.801 75.0054 234.511 74.6734Z" fill="#FFB1A5"/>
<path d="M222.404 65.1974C222.404 65.1974 224.573 71.2271 230.309 70.7071C235.595 70.2327 234.755 61.8711 234.755 61.8711L222.404 65.1974Z" fill="#282828"/>
<path d="M217.172 57.1769C215.29 58.9772 211.083 52.1588 212.904 50.2441C214.726 48.3295 216.103 51.3301 216.103 51.3301L216.917 53.3647L217.529 56.1252L217.676 56.8454L217.172 57.1769Z" fill="#F3978E"/>
<path d="M213.777 52.669C213.777 52.669 215.203 51.9946 216.488 54.1721" stroke="#282828" stroke-width="0.800153" stroke-linecap="round" stroke-linejoin="round"/>
<path d="M239.407 56.9738C241.137 58.9342 245.875 52.5102 244.216 50.4412C242.557 48.3722 240.963 51.2413 240.963 51.2413L239.993 53.196L239.163 55.8936L238.957 56.5966L239.407 56.9738Z" fill="#F3978E"/>
<path d="M243.148 52.7708C243.148 52.7708 241.782 51.9707 240.351 54.0225" stroke="#282828" stroke-width="0.800153" stroke-linecap="round" stroke-linejoin="round"/>
<path d="M213.87 43.7389C213.87 52.7692 220.403 57.05 228.455 57.05C236.506 57.05 243.04 52.7692 243.04 43.7389C243.04 34.7086 236.533 28.5703 228.455 28.5703C220.376 28.5703 213.87 34.7143 213.87 43.7389Z" fill="#A03333"/>
<path d="M215.854 44.3676C215.86 48.9842 216.358 53.5854 217.34 58.0845C218.066 61.4108 220.105 63.7313 222.995 65.6002L223.537 65.9431C225.056 66.9145 226.796 67.4375 228.573 67.4577C230.35 67.4778 232.099 66.9942 233.638 66.0574C236.767 64.1371 238.957 61.6052 239.629 58.0559C240.411 53.5419 240.866 48.9716 240.99 44.3848C240.99 44.3848 242.156 30.3993 228.606 30.6679C215.057 30.9365 215.854 44.3676 215.854 44.3676Z" fill="#FFB1A5"/>
<path d="M227.593 52.3477V54.2852C227.593 54.3967 227.613 54.5072 227.652 54.6109C227.733 54.8008 227.877 54.9534 228.056 55.0406C228.236 55.1277 228.439 55.1436 228.628 55.0853L229.469 54.851" stroke="#282828" stroke-width="0.994129" stroke-linecap="round" stroke-linejoin="round"/>
<path d="M225.44 44.8454L218.706 46.5086C218.706 46.5086 219.01 44.7025 221.764 44.0453C224.518 43.388 225.44 44.8454 225.44 44.8454Z" fill="#A03333"/>
<path d="M231.415 44.8454L237.921 46.5086C237.921 46.5086 237.623 44.7025 234.966 44.0453C232.31 43.388 231.415 44.8454 231.415 44.8454Z" fill="#A03333"/>
<path d="M222.881 51.2484C223.507 51.2484 224.014 50.7136 224.014 50.0539C224.014 49.3942 223.507 48.8594 222.881 48.8594C222.255 48.8594 221.748 49.3942 221.748 50.0539C221.748 50.7136 222.255 51.2484 222.881 51.2484Z" fill="#282828"/>
<path d="M234.777 50.0539C234.777 50.2901 234.71 50.5211 234.586 50.7175C234.461 50.914 234.284 51.0671 234.077 51.1575C233.87 51.2479 233.642 51.2715 233.422 51.2255C233.203 51.1794 233.001 51.0656 232.842 50.8985C232.684 50.7315 232.576 50.5186 232.532 50.2869C232.488 50.0552 232.511 49.815 232.597 49.5968C232.682 49.3785 232.828 49.1919 233.014 49.0607C233.2 48.9294 233.419 48.8594 233.643 48.8594C233.944 48.8594 234.232 48.9852 234.445 49.2092C234.657 49.4333 234.777 49.7371 234.777 50.0539Z" fill="#282828"/>
<path d="M224.014 57.3398H232.771C232.771 57.3398 228.867 62.3179 224.014 57.3398Z" fill="white"/>
<path d="M240.795 49.0049C240.795 49.0049 235.373 41.2835 236.625 33.4648C237.939 34.2815 239.072 35.3856 239.946 36.7029C240.821 38.0201 241.417 39.5197 241.695 41.1006C242.747 46.6045 240.795 49.0049 240.795 49.0049Z" fill="#A03333"/>
<path d="M215.854 49.5277C215.854 49.5277 222.149 40.7603 220.896 32.9531C218.137 34.811 216.187 37.7455 215.474 41.1147C214.428 46.6071 215.854 49.5277 215.854 49.5277Z" fill="#A03333"/>
<path d="M240.345 36.5459C240.345 36.5459 233.389 44.5474 214.363 43.1986C214.363 43.1986 217.274 31.4193 226.497 30.1676C226.497 30.1676 237.146 28.8245 240.345 36.5459Z" fill="#A03333"/>
<path d="M248.832 28.6903C249.631 23.4676 246.263 18.5503 241.309 17.7072C236.354 16.8641 231.689 20.4145 230.89 25.6372C230.09 30.8599 233.458 35.7772 238.412 36.6203C243.367 37.4634 248.032 33.913 248.832 28.6903Z" fill="#962929"/>
<path d="M128.951 132.993L112.034 130.622L112.186 128.547L92.396 131.325C92.396 131.325 81.5955 161.833 91.2086 225.274H104.97L109.768 160.947H111.53L116.486 225.274H130.247C139.86 161.833 128.951 132.993 128.951 132.993Z" fill="#282828"/>
<path d="M127.606 46.2102C125.081 43.0211 123.152 39.3555 121.924 35.4081C120.249 30.4186 114.773 32.4475 114.773 32.4475C114.773 32.4475 110.207 26.2578 103.338 28.4125C96.468 30.5672 94.0823 35.7225 93.9413 41.8436C93.8004 47.9648 89.2296 48.9307 85.7108 56.0177C79.4972 68.5287 89.9562 79.0621 109.025 76.1415V75.9472C111.296 76.6083 113.661 76.8405 116.009 76.633C138.862 75.2042 136.694 57.4637 127.606 46.2102Z" fill="#282828"/>
<path d="M120.113 55.4855C121.995 57.2858 126.197 50.4674 124.38 48.5527C122.564 46.6381 121.181 49.6386 121.181 49.6386L120.368 51.6733L119.755 54.4338L119.609 55.154L120.113 55.4855Z" fill="#B78876"/>
<path d="M123.502 50.9541C123.502 50.9541 122.081 50.2797 120.818 52.4573" stroke="#282828" stroke-width="0.800153" stroke-linecap="round" stroke-linejoin="round"/>
<path d="M97.8773 55.281C96.1477 57.2414 91.4089 50.823 93.068 48.7483C94.7272 46.6737 96.3212 49.5485 96.3212 49.5485L97.2972 51.5089L98.1267 54.2008L98.3274 54.9038L97.8773 55.281Z" fill="#B78876"/>
<path d="M94.1362 51.0833C94.1362 51.0833 95.4972 50.2832 96.934 52.335" stroke="#282828" stroke-width="0.800153" stroke-linecap="round" stroke-linejoin="round"/>
<path d="M123.409 42.0475C123.409 51.0721 116.903 55.3529 108.83 55.3529C100.756 55.3529 94.2446 51.0721 94.2446 42.0475C94.2446 33.0229 100.751 26.8789 108.83 26.8789C116.908 26.8789 123.409 33.0172 123.409 42.0475Z" fill="#282828"/>
<path d="M114.772 62.1914H102.773V78.5659H114.772V62.1914Z" fill="#B78876"/>
<path d="M101.022 61.168C101.022 61.168 104.362 68.1922 108.472 69.2895C109.576 69.5701 110.734 69.5005 111.801 69.0895C113.346 68.5179 115.303 66.0832 115.64 63.3741L115.791 61.8367C115.791 61.8367 108.499 66.0489 101.022 61.168Z" fill="#282828"/>
<path d="M121.43 42.6702C121.424 47.2867 120.925 51.8878 119.945 56.3871C119.218 59.7077 117.174 62.0281 114.29 63.8971L113.747 64.24C112.228 65.2113 110.489 65.7344 108.712 65.7545C106.935 65.7746 105.185 65.291 103.646 64.3543C100.518 62.4339 98.3274 59.902 97.6551 56.3528C96.873 51.8387 96.4181 47.2685 96.2942 42.6816C96.2942 42.6816 95.1285 28.6961 108.673 28.9648C122.217 29.2334 121.43 42.6702 121.43 42.6702Z" fill="#B78876"/>
<path d="M107.924 51.418V52.561C107.925 52.6726 107.945 52.7831 107.984 52.8868C108.065 53.0767 108.208 53.2293 108.388 53.3164C108.567 53.4036 108.77 53.4195 108.96 53.3612L109.8 53.1269" stroke="#282828" stroke-width="0.994129" stroke-linecap="round" stroke-linejoin="round"/>
<path d="M110.744 43.8318L117.955 45.6321C117.955 45.6321 117.624 43.6774 114.675 42.9687C111.725 42.26 110.744 43.8318 110.744 43.8318Z" fill="#282828"/>
<path d="M106.959 43.8318L99.6611 45.6321C99.6611 45.6321 99.9919 43.6774 102.979 42.9687C105.967 42.26 106.959 43.8318 106.959 43.8318Z" fill="#282828"/>
<path d="M104.346 48.5482C104.348 48.7863 104.283 49.0197 104.159 49.2187C104.035 49.4177 103.858 49.5733 103.649 49.6657C103.441 49.7581 103.212 49.7832 102.99 49.7377C102.768 49.6922 102.564 49.5783 102.404 49.4103C102.244 49.2423 102.135 49.028 102.091 48.7945C102.047 48.561 102.069 48.3189 102.156 48.099C102.243 47.8791 102.389 47.6914 102.578 47.5597C102.766 47.428 102.987 47.3583 103.213 47.3594C103.512 47.3594 103.8 47.4844 104.012 47.7072C104.225 47.93 104.345 48.2324 104.346 48.5482Z" fill="#282828"/>
<path d="M115.109 48.5482C115.11 48.7847 115.044 49.0162 114.92 49.2134C114.796 49.4105 114.62 49.5645 114.413 49.6558C114.206 49.7471 113.978 49.7716 113.758 49.7261C113.538 49.6807 113.335 49.5674 113.176 49.4006C113.017 49.2337 112.909 49.0209 112.864 48.789C112.82 48.5572 112.842 48.3167 112.928 48.0981C113.014 47.8795 113.159 47.6926 113.345 47.5611C113.532 47.4296 113.751 47.3594 113.975 47.3594C114.124 47.3586 114.271 47.3888 114.409 47.4482C114.546 47.5076 114.671 47.5951 114.776 47.7055C114.882 47.816 114.965 47.9473 115.022 48.0919C115.079 48.2365 115.109 48.3916 115.109 48.5482Z" fill="#282828"/>
<path d="M103.619 55.3555H113.585C113.585 55.3555 112.88 58.2417 108.363 58.2417C107.398 58.2633 106.445 58.0057 105.609 57.4968C104.773 56.988 104.084 56.2474 103.619 55.3555Z" fill="white"/>
<path d="M96.484 47.3135C96.484 47.3135 101.906 39.592 100.653 31.7734C99.3397 32.5901 98.2073 33.6942 97.3327 35.0114C96.4582 36.3287 95.8619 37.8283 95.584 39.4092C94.5375 44.9188 96.484 47.3135 96.484 47.3135Z" fill="#282828"/>
<path d="M121.436 47.0548C121.436 47.0548 115.147 39.0533 116.394 31.2461C119.154 33.1039 121.103 36.0385 121.816 39.4076C122.857 44.9172 121.436 47.0548 121.436 47.0548Z" fill="#282828"/>
<path d="M96.9395 34.8545C96.9395 34.8545 103.153 43.6619 122.179 42.2845C122.179 42.2845 120.01 29.7107 110.793 28.4762C110.787 28.4762 100.138 27.1331 96.9395 34.8545Z" fill="#282828"/>
<path d="M79.5947 171.726C79.3182 172.189 95.4323 97.8259 90.6447 98.9461C90.211 99.049 81.834 99.872 80.587 102.541C76.9759 110.274 74.3896 171.165 74.3896 171.165L79.5947 171.726Z" fill="#B78876"/>
<path d="M74.3895 171.162C74.3895 171.162 71.7924 183.862 81.6115 185.262C81.9255 185.307 82.2445 185.236 82.5143 185.061C82.7841 184.886 82.9881 184.618 83.0917 184.302L83.1242 184.216C83.234 183.87 83.2164 183.493 83.0748 183.159C82.9332 182.826 82.678 182.56 82.3597 182.416C80.7603 181.662 78.277 179.758 79.5078 175.426C79.5078 175.426 80.9284 175.243 81.7091 178.032C81.7553 178.201 81.8361 178.357 81.9458 178.49C82.0555 178.622 82.1914 178.727 82.344 178.798C82.4966 178.869 82.662 178.904 82.8287 178.9C82.9954 178.896 83.1592 178.853 83.3086 178.775C83.5199 178.663 83.6929 178.485 83.8037 178.265C83.9145 178.045 83.9574 177.794 83.9267 177.546C83.6881 175.592 82.7555 170.888 79.1771 169.625L74.3895 171.162Z" fill="#B78876"/>
<path d="M77.6914 120.409C77.6914 120.409 86.9738 134.189 87.0226 133.926C87.0714 133.663 90.2758 114.574 90.2758 114.574L79.0089 109.43L77.6914 120.409Z" fill="#B78876"/>
<path d="M103.489 75.8662C103.885 75.8662 80.5435 76.3063 76.2764 107.375L89.6903 109.541L92.4013 132.974H129.813L137.236 89.6574C137.236 89.6574 131.955 80.2727 116.562 75.6719L103.489 75.8662Z" fill="#00857B"/>
<path d="M92.0815 79.6202C92.0815 79.6202 95.3781 84.2383 108.89 84.2383C122.276 84.2383 125.698 79.3802 125.698 79.3802C125.698 79.3802 117.803 74.7336 108.646 73.2305C102.858 74.4971 97.2776 76.6499 92.0815 79.6202Z" fill="#B78876"/>
<path d="M138.005 178.047L138.032 240.001H167.11L169.35 178.047H138.005Z" fill="#005683"/>
<path d="M201.139 178.047L201.106 240.001H172.028L169.794 178.047H201.139Z" fill="#005683"/>
<path d="M185.258 178.047H155.193V199.571H185.258V178.047Z" fill="#005683"/>
<path d="M159.39 199.57H180.129" stroke="#282828" stroke-width="1.13153" stroke-linecap="round" stroke-linejoin="round"/>
<path d="M219.508 123.973C221.308 144.971 219.405 160.265 219.931 198.895L202.581 199.667L199.995 127.35L219.508 123.973Z" fill="#FFB1A5"/>
<path d="M202.131 140.361C202.131 140.361 212.877 139.321 220.229 134.211L220.034 129.719L202.142 132.291L202.131 140.361Z" fill="#F3978E"/>
<path d="M184.889 75.6367C184.889 75.6367 219.048 84.6841 225.212 130.361C225.212 130.361 208.507 137.997 191.764 134.711L195.527 119.434L184.889 75.6367Z" fill="#C98BD2"/>
<path d="M82.9238 94.6328L108.342 126.273L100.567 149.363C100.567 149.363 81.2484 121.049 72.5679 99.1651L82.9238 94.6328Z" fill="#FFB1A5"/>
<path d="M83.7585 95.7662C83.7585 95.7662 74.8339 101.087 72.5675 99.1611C68.5986 95.8005 65.3184 83.501 65.3184 83.501C65.3184 83.501 82.0126 76.8712 81.8554 77.1284C81.6981 77.3856 83.7585 95.7662 83.7585 95.7662Z" fill="#FFB1A5"/>
<path d="M83.7588 95.7657C83.6016 94.8226 87.0716 84.6036 88.259 80.7743C88.3175 80.5461 88.3306 80.3077 88.2974 80.074C88.2643 79.8403 88.1857 79.6163 88.0666 79.4161C87.9474 79.216 87.7903 79.0439 87.6051 78.9108C87.4199 78.7776 87.2106 78.6863 86.9903 78.6424C86.6008 78.5344 86.1886 78.563 85.8159 78.7239C85.4432 78.8847 85.1303 79.1691 84.9245 79.534L80.7388 87.0783L83.7588 95.7657Z" fill="#FFB1A5"/>
<path d="M83.4548 84.7297L80.5812 69.6583C80.4903 69.1697 80.2215 68.7381 79.8323 68.456C79.443 68.1739 78.9645 68.0639 78.4992 68.1494C78.1079 68.2237 77.7582 68.4525 77.5215 68.7891C77.2847 69.1258 77.1787 69.545 77.225 69.9612L78.4829 81.1862L83.4548 84.7297Z" fill="#FFB1A5"/>
<path d="M77.7405 79.166L73.8367 68.404C73.6749 67.9515 73.3552 67.5811 72.943 67.3687C72.5309 67.1562 72.0573 67.1177 71.6191 67.2609C71.2499 67.3888 70.9399 67.6586 70.751 68.0167C70.5621 68.3747 70.5081 68.7946 70.5998 69.1927L73.4951 81.6294L77.7405 79.166Z" fill="#FFB1A5"/>
<path d="M73.5438 82.3346L68.6044 71.7612C68.3886 71.2871 68.0088 70.9181 67.5429 70.7299C67.0771 70.5418 66.5606 70.5488 66.0995 70.7496C65.8929 70.844 65.7061 70.9805 65.5498 71.1512C65.3934 71.322 65.2707 71.5237 65.1885 71.7446C65.1064 71.9656 65.0665 72.2015 65.0712 72.4388C65.0758 72.676 65.125 72.91 65.2157 73.1272L69.1575 83.1119L73.5438 82.3346Z" fill="#FFB1A5"/>
<path d="M65.3185 83.5355L61.4473 77.06C61.3681 76.8846 61.3228 76.6944 61.3141 76.5004C61.3053 76.3064 61.3333 76.1125 61.3964 75.9301C61.4595 75.7476 61.5564 75.5802 61.6815 75.4376C61.8066 75.295 61.9574 75.1801 62.125 75.0996C62.4609 74.9461 62.8366 74.9191 63.1891 75.0232C63.5416 75.1273 63.8493 75.3561 64.0606 75.6711L69.1573 83.1011L65.3185 83.5355Z" fill="#FFB1A5"/>
<path d="M82.6745 83.5941C82.6745 83.5941 76.8567 82.9482 76.2549 91.1212" stroke="#282828" stroke-width="1.2366" stroke-linecap="round" stroke-linejoin="round"/>
<path d="M95.4106 138.559C95.4106 138.559 100.193 155.996 109.719 153.682C119.246 151.367 134.091 129.917 134.091 129.917L130.767 93.293L104.032 127.985L95.4106 138.559Z" fill="#FFB1A5"/>
<path d="M112.322 117.208C112.322 117.208 121.349 131.565 129.049 136.641L134.091 129.936L114.648 114.082L112.322 117.208Z" fill="#F3978E"/>
<path d="M151.815 74.8438C151.815 74.8438 125.307 81.1421 111.21 113.611C111.21 113.611 119.744 127.162 133.44 133.186L142.603 121.361L151.815 74.8438Z" fill="#C98BD2"/>
<path d="M151.815 74.7455C145.578 78.1189 139.889 82.5133 134.958 87.7652L136.997 182.675H202.239L202.028 88.2567C202.028 88.2567 193.803 79.7694 184.889 75.6371C177.32 72.0993 159.178 70.7677 151.815 74.7455Z" fill="#C98BD2"/>
<path d="M173.617 101.863H191.764V111.431C191.764 113.968 190.808 116.402 189.106 118.196C187.403 119.99 185.095 120.998 182.688 120.998C180.28 120.998 177.972 119.99 176.27 118.196C174.568 116.402 173.611 113.968 173.611 111.431V101.863H173.617Z" stroke="#282828" stroke-width="1.13153" stroke-linecap="round" stroke-linejoin="round"/>
<path d="M202.131 135.067L202.982 104.016" stroke="#282828" stroke-width="1.13153" stroke-linecap="round" stroke-linejoin="round"/>
<path d="M135.961 129.89L134.552 102.977" stroke="#282828" stroke-width="1.13153" stroke-linecap="round" stroke-linejoin="round"/>
<path d="M152.58 40.0948L149.869 25.915C149.711 24.7719 149.288 22.9773 149.809 21.3027C150.671 18.5308 153.837 13.2098 159.249 15.6445L160.42 21.2627C160.42 21.2627 154.797 22.4572 152.542 30.2015L152.58 40.0948Z" fill="#282828"/>
<path d="M158.842 18.5547C158.744 20.4179 157.183 28.5737 151.701 31.5457C151.701 31.5229 146.892 20.6637 158.842 18.5547Z" fill="#282828"/>
<path d="M178.09 72.1353V48.0508H157.026V72.1353L150.758 75.1473C150.758 75.1473 152.227 85.1263 167.777 85.3492C183.328 85.5721 184.889 75.6331 184.889 75.6331L178.09 72.1353Z" fill="#FFB1A5"/>
<path d="M159.243 15.6275C159.243 15.6275 163.109 4.87689 175.027 10.5923C182.243 14.0501 184.244 18.6909 185.122 21.9773C185.406 23.2304 185.514 24.5205 185.442 25.8066L182.558 40.095L171.302 20.3484L160.414 21.2343L159.243 15.6275Z" fill="#282828"/>
<path d="M182.558 40.093C182.558 40.093 183.978 37.7154 186.895 38.887C189.812 40.0587 188.522 47.5515 184.108 48.5117C183.615 48.6033 183.108 48.5812 182.623 48.4471C182.139 48.3129 181.687 48.0698 181.3 47.7344C181.3 47.7344 182.39 42.1791 182.558 40.093Z" fill="#F3978E"/>
<path d="M186.326 41.5176C186.326 41.5176 183.875 40.6546 182.135 44.461" stroke="#282828" stroke-width="1.13153" stroke-linecap="round" stroke-linejoin="round"/>
<path d="M152.58 40.093C152.58 40.093 151.159 37.7154 148.242 38.887C145.325 40.0587 146.616 47.5515 151.035 48.5117C151.528 48.6033 152.035 48.5812 152.52 48.4471C153.004 48.3129 153.456 48.0698 153.843 47.7344C153.843 47.7344 152.753 42.1791 152.58 40.093Z" fill="#F3978E"/>
<path d="M148.812 41.5176C148.812 41.5176 151.268 40.6546 153.008 44.461" stroke="#282828" stroke-width="1.13153" stroke-linecap="round" stroke-linejoin="round"/>
<path d="M182.85 32.9682C182.85 37.4834 182.433 46.9423 179.798 52.5548C177.325 57.8244 173.232 60.6592 167.869 60.8249C162.507 60.9907 158.506 58.8188 155.301 51.9775C152.097 45.1362 152.249 33.0483 152.249 33.0483C152.249 33.0483 152.249 16.9023 167.387 16.9023C183.322 16.9023 182.85 32.9682 182.85 32.9682Z" fill="#FFB1A5"/>
<path d="M157.183 55.3477C157.183 55.3477 158.951 64.778 166.737 65.8639C175.699 67.1099 178.09 55.5763 178.09 55.5763C178.09 55.5763 174.127 60.8058 167.864 60.8116C165.809 60.8036 163.782 60.3083 161.933 59.3625C160.084 58.4167 158.461 57.0445 157.183 55.3477Z" fill="#282828"/>
<path d="M166.471 39.6641V43.4019C166.47 43.5584 166.498 43.7136 166.552 43.8591C166.664 44.1246 166.864 44.3381 167.114 44.46C167.365 44.582 167.648 44.604 167.913 44.5221L169.09 44.1963" stroke="#282828" stroke-width="1.13153" stroke-linecap="round" stroke-linejoin="round"/>
<path d="M161.998 37.8814C161.998 38.1685 161.917 38.4492 161.765 38.6879C161.614 38.9267 161.399 39.1127 161.147 39.2226C160.896 39.3325 160.619 39.3612 160.352 39.3052C160.085 39.2492 159.839 39.1109 159.647 38.9079C159.454 38.7049 159.323 38.4462 159.27 38.1646C159.216 37.883 159.244 37.5911 159.348 37.3259C159.452 37.0606 159.629 36.8339 159.855 36.6743C160.082 36.5148 160.348 36.4297 160.62 36.4297C160.801 36.4297 160.98 36.4672 161.147 36.5402C161.314 36.6131 161.466 36.7201 161.594 36.8549C161.722 36.9897 161.823 37.1497 161.893 37.3259C161.962 37.502 161.998 37.6908 161.998 37.8814Z" fill="#282828"/>
<path d="M174.918 37.8814C174.918 38.1685 174.837 38.4492 174.686 38.6879C174.535 38.9267 174.319 39.1127 174.068 39.2226C173.816 39.3325 173.539 39.3612 173.272 39.3052C173.005 39.2492 172.76 39.1109 172.567 38.9079C172.374 38.7049 172.243 38.4462 172.19 38.1646C172.137 37.883 172.164 37.5911 172.268 37.3259C172.373 37.0606 172.549 36.8339 172.776 36.6743C173.002 36.5148 173.268 36.4297 173.541 36.4297C173.906 36.4297 174.256 36.5826 174.515 36.8549C174.773 37.1271 174.918 37.4964 174.918 37.8814Z" fill="#282828"/>
<path d="M170.011 30.6567L179.277 33.1772C179.277 33.1772 178.86 30.4395 175.07 29.4451C171.28 28.4506 170.011 30.6567 170.011 30.6567Z" fill="#282828"/>
<path d="M164.259 30.6567L154.993 33.1772C154.993 33.1772 155.41 30.4395 159.2 29.4451C162.99 28.4506 164.259 30.6567 164.259 30.6567Z" fill="#282828"/>
<path d="M162.415 47.1719C162.415 47.1719 163.781 48.2749 167.376 48.2749C169.201 48.3182 171.012 47.9418 172.684 47.1719" stroke="#282828" stroke-width="1.13153" stroke-linecap="round" stroke-linejoin="round"/>
<path d="M160.252 44.478C163.486 44.478 166.107 41.7144 166.107 38.3054C166.107 34.8964 163.486 32.1328 160.252 32.1328C157.018 32.1328 154.396 34.8964 154.396 38.3054C154.396 41.7144 157.018 44.478 160.252 44.478Z" stroke="white" stroke-width="1.57606" stroke-miterlimit="10"/>
<path d="M174.636 44.478C177.87 44.478 180.492 41.7144 180.492 38.3054C180.492 34.8964 177.87 32.1328 174.636 32.1328C171.402 32.1328 168.78 34.8964 168.78 38.3054C168.78 41.7144 171.402 44.478 174.636 44.478Z" stroke="white" stroke-width="1.57606" stroke-miterlimit="10"/>
<path d="M166.107 38.3077C166.107 38.3077 167.49 36.9474 168.78 38.3077" stroke="white" stroke-width="1.57606" stroke-miterlimit="10"/>
<path d="M154.396 38.3053L152.433 38.2539" stroke="white" stroke-width="1.57606" stroke-miterlimit="10"/>
<path d="M180.492 38.3038L182.682 38.2695" stroke="white" stroke-width="1.57606" stroke-miterlimit="10"/>
<path d="M157.183 18.9468C157.183 18.9468 159.997 27.3655 172.69 27.1084C181.311 26.9312 183.371 33.5096 183.371 33.5096C183.371 33.5096 181.869 18.8096 181.473 18.9468C181.078 19.084 168.352 15.3633 168.352 15.3633L157.183 18.9468Z" fill="#282828"/>
</g>
</svg>
