<svg width="6" height="9" viewBox="0 0 6 9" fill="none" xmlns="http://www.w3.org/2000/svg">
<path d="M5.89595 0.894243C5.86806 0.879833 5.83712 0.872309 5.80573 0.872298C5.76655 0.872351 5.7283 0.884251 5.696 0.906435L0.0837083 4.77368C0.0578914 4.79146 0.0367827 4.81525 0.0222006 4.843C0.00761843 4.87075 -4.76837e-07 4.90163 -4.76837e-07 4.93298C-4.76837e-07 4.96433 0.00761843 4.99521 0.0222006 5.02296C0.0367827 5.05071 0.0578914 5.07451 0.0837083 5.09229L5.696 8.96603C5.72534 8.98612 5.75963 8.99777 5.79514 8.99971C5.83064 9.00165 5.86599 8.99381 5.89735 8.97704C5.9287 8.96028 5.95485 8.93523 5.97295 8.90462C5.99105 8.87402 6.0004 8.83903 5.99999 8.80348V1.06574C5.99998 1.03038 5.99028 0.99569 5.97193 0.965454C5.95359 0.935218 5.92731 0.910588 5.89595 0.894243Z" fill="#333333"/>
</svg>