<svg width="20.03" height="22" viewBox="0 0 20.03 22" fill="none" xmlns="http://www.w3.org/2000/svg">
<path d="M18.9292 4.30833H16.4542V3.7125C16.8667 3.575 17.1875 3.1625 17.1875 2.65833V1.1C17.1875 0.504167 16.6833 0 16.0875 0H3.94167C3.34583 0 2.84167 0.504167 2.84167 1.1V2.65833C2.84167 3.11667 3.1625 3.52917 3.575 3.7125V4.30833H1.1C0.504167 4.30833 0 4.8125 0 5.40833V6.69167C0 8.89167 1.69583 10.7708 3.89583 10.9542C4.58333 13.1083 6.41667 14.7583 8.6625 15.1708V16.1333C8.6625 16.5917 8.43333 17.0042 8.02083 17.2333H7.65417C7.37917 17.2333 7.19583 17.4167 7.19583 17.6917V19.1583H6.325C5.45417 19.1583 4.76667 19.8458 4.76667 20.7167V21.5417C4.76667 21.8167 4.95 22 5.225 22H14.8042C15.0792 22 15.2625 21.8167 15.2625 21.5417V20.7167C15.2625 19.8458 14.575 19.1583 13.7042 19.1583H12.8333V17.6917C12.8333 17.4167 12.65 17.2333 12.375 17.2333H12.0083C11.6417 17.0042 11.3667 16.5917 11.3667 16.1333V15.1708C13.6125 14.7583 15.4458 13.1083 16.1333 10.9542C18.3333 10.725 20.0292 8.89167 20.0292 6.69167V5.40833C20.0292 4.8125 19.525 4.30833 18.9292 4.30833ZM3.75833 1.1C3.75833 1.00833 3.85 0.916667 3.94167 0.916667H16.0417C16.1333 0.916667 16.225 1.00833 16.225 1.1V2.65833C16.225 2.75 16.1333 2.84167 16.0417 2.84167H3.94167C3.85 2.84167 3.75833 2.75 3.75833 2.65833V1.1ZM0.870834 6.69167V5.40833C0.870834 5.31667 0.9625 5.225 1.05417 5.225H3.52917V9.12083C3.52917 9.44167 3.575 9.71667 3.62083 10.0375C2.0625 9.71667 0.870834 8.34167 0.870834 6.69167ZM14.3458 20.7167V21.0833H5.6375V20.7167C5.6375 20.35 5.9125 20.075 6.27917 20.075H7.60833H12.4208H13.75C14.025 20.075 14.3458 20.35 14.3458 20.7167ZM8.06666 19.1583V18.15H11.9167V19.1583H8.06666ZM10.7708 17.2333H9.16667C9.35 16.9125 9.44166 16.5458 9.44166 16.1333V15.2625C9.53333 15.2625 9.57917 15.2625 9.67083 15.2625H10.175C10.2667 15.2625 10.3125 15.2625 10.4042 15.2625V16.1333C10.4958 16.5458 10.5875 16.9125 10.7708 17.2333ZM10.2667 14.3917H9.7625C6.875 14.3917 4.49167 12.0083 4.49167 9.12083V3.80417H15.5375V9.12083C15.5375 12.0083 13.1542 14.3917 10.2667 14.3917ZM19.1125 6.69167C19.1125 8.34167 17.9208 9.71667 16.3625 9.99167C16.4083 9.71667 16.4542 9.39583 16.4542 9.075V5.17917H18.9292C19.0208 5.17917 19.1125 5.27083 19.1125 5.3625V6.69167Z" fill="#FA114F"/>
</svg>