<svg width="32" height="32" viewBox="0 0 32 32" fill="none" xmlns="http://www.w3.org/2000/svg">
<path d="M29.8536 8.36028C28.4229 5.90885 26.4821 3.96805 24.0309 2.53744C21.5794 1.10676 18.903 0.391602 15.9999 0.391602C13.0971 0.391602 10.4199 1.10698 7.9688 2.53744C5.51737 3.96798 3.57672 5.90885 2.14596 8.36028C0.715426 10.8116 0.00012207 13.4885 0.00012207 16.3909C0.00012207 19.8773 1.01729 23.0124 3.05215 25.7969C5.08679 28.5817 7.71524 30.5086 10.9373 31.5779C11.3123 31.6475 11.59 31.5986 11.7705 31.4323C11.9511 31.2658 12.0413 31.0572 12.0413 30.8075C12.0413 30.7659 12.0377 30.391 12.0308 29.6826C12.0236 28.9741 12.0203 28.3561 12.0203 27.8288L11.5411 27.9117C11.2356 27.9676 10.8502 27.9913 10.3848 27.9846C9.91974 27.9781 9.43691 27.9294 8.93701 27.8388C8.43689 27.7489 7.97172 27.5406 7.54113 27.2142C7.11077 26.8879 6.80525 26.4606 6.62466 25.9332L6.41634 25.4538C6.27748 25.1347 6.05887 24.7801 5.76021 24.3915C5.46155 24.0025 5.15954 23.7388 4.85402 23.5999L4.70816 23.4955C4.61096 23.4261 4.52077 23.3424 4.43737 23.2453C4.35404 23.1482 4.29166 23.051 4.24999 22.9536C4.20825 22.8562 4.24284 22.7763 4.35412 22.7137C4.46539 22.651 4.66649 22.6205 4.95829 22.6205L5.37479 22.6828C5.65258 22.7385 5.99619 22.9048 6.40605 23.1827C6.81569 23.4604 7.15244 23.8214 7.41636 24.2657C7.73596 24.8353 8.12101 25.2693 8.57261 25.5679C9.02384 25.8666 9.4788 26.0157 9.93704 26.0157C10.3953 26.0157 10.7911 25.9809 11.1245 25.9118C11.4576 25.8424 11.7701 25.738 12.0619 25.5992C12.1869 24.6682 12.5273 23.9531 13.0826 23.4532C12.2911 23.37 11.5794 23.2447 10.9473 23.0781C10.3155 22.9113 9.66268 22.6406 8.98918 22.2653C8.31532 21.8904 7.75632 21.425 7.31202 20.8697C6.86764 20.3141 6.50295 19.5847 6.21845 18.6822C5.9338 17.7793 5.79144 16.7377 5.79144 15.5573C5.79144 13.8764 6.34016 12.4461 7.43738 11.2655C6.92339 10.0018 6.97191 8.58524 7.58309 7.01585C7.98587 6.89071 8.58319 6.98462 9.37475 7.29699C10.1664 7.60951 10.7461 7.87723 11.1143 8.0992C11.4825 8.3211 11.7775 8.50914 11.9998 8.66164C13.2917 8.30067 14.6249 8.12014 15.9997 8.12014C17.3746 8.12014 18.7081 8.30067 20 8.66164L20.7917 8.16188C21.333 7.82842 21.9723 7.52283 22.708 7.24504C23.444 6.9674 24.0069 6.89093 24.396 7.01607C25.0207 8.58553 25.0764 10.0021 24.5623 11.2657C25.6594 12.4463 26.2084 13.877 26.2084 15.5575C26.2084 16.7379 26.0655 17.7828 25.7813 18.6926C25.4967 19.6026 25.1289 20.3312 24.6776 20.8801C24.2259 21.4289 23.6633 21.8907 22.9898 22.2655C22.3162 22.6405 21.6631 22.9112 21.0314 23.0781C20.3993 23.2449 19.6877 23.3702 18.8961 23.4535C19.6181 24.0783 19.9791 25.0645 19.9791 26.4116V30.807C19.9791 31.0567 20.0659 31.2651 20.2397 31.4317C20.4133 31.598 20.6875 31.647 21.0625 31.5773C24.285 30.5081 26.9135 28.5811 28.948 25.7963C30.9824 23.0118 31.9999 19.8767 31.9999 16.3903C31.9992 13.4883 31.2835 10.8116 29.8536 8.36028Z" fill="white"/>
</svg>
