<svg width="24" height="24" viewBox="0 0 24 24" fill="none" xmlns="http://www.w3.org/2000/svg">
<path d="M5.0422 15.1668C5.0422 16.5544 3.90869 17.6879 2.5211 17.6879C1.13352 17.6879 0 16.5544 0 15.1668C0 13.7793 1.13352 12.6458 2.5211 12.6458H5.0422V15.1668Z" fill="#FFFFFF"/>
<path d="M6.31274 15.1665C6.31274 13.7789 7.44626 12.6454 8.83385 12.6454C10.2214 12.6454 11.3549 13.7789 11.3549 15.1665V21.4789C11.3549 22.8665 10.2214 24 8.83385 24C7.44626 24 6.31274 22.8665 6.31274 21.4789V15.1665Z" fill="#FFFFFF"/>
<path d="M8.83434 5.04214C7.44675 5.04214 6.31323 3.90863 6.31323 2.52107C6.31323 1.1335 7.44675 0 8.83434 0C10.2219 0 11.3554 1.1335 11.3554 2.52107V5.04214H8.83434Z" fill="#FFFFFF"/>
<path d="M8.83411 6.31183C10.2217 6.31183 11.3552 7.44533 11.3552 8.8329C11.3552 10.2205 10.2217 11.354 8.83411 11.354H2.52159C1.13401 11.354 0.000488281 10.2205 0.000488281 8.8329C0.000488281 7.44533 1.13401 6.31183 2.52159 6.31183H8.83411Z" fill="#FFFFFF"/>
<path d="M18.9575 8.8329C18.9575 7.44533 20.091 6.31183 21.4786 6.31183C22.8662 6.31183 23.9997 7.44533 23.9997 8.8329C23.9997 10.2205 22.8662 11.354 21.4786 11.354H18.9575V8.8329Z" fill="#FFFFFF"/>
<path d="M17.6872 8.83351C17.6872 10.2211 16.5537 11.3546 15.1661 11.3546C13.7785 11.3546 12.645 10.2211 12.645 8.83351V2.52107C12.645 1.1335 13.7785 0 15.1661 0C16.5537 0 17.6872 1.1335 17.6872 2.52107V8.83351Z" fill="#FFFFFF"/>
<path d="M15.1656 18.9581C16.5532 18.9581 17.6867 20.0916 17.6867 21.4791C17.6867 22.8667 16.5532 24.0002 15.1656 24.0002C13.778 24.0002 12.6445 22.8667 12.6445 21.4791V18.9581H15.1656Z" fill="#FFFFFF"/>
<path d="M15.1658 17.6875C13.7783 17.6875 12.6448 16.554 12.6448 15.1665C12.6448 13.7789 13.7783 12.6454 15.1658 12.6454H21.4783C22.8659 12.6454 23.9994 13.7789 23.9994 15.1665C23.9994 16.554 22.8659 17.6875 21.4783 17.6875H15.1658Z" fill="#FFFFFF"/>
</svg>
