<?xml version="1.0" encoding="utf-8"?>
<!-- Generator: Adobe Illustrator 19.0.0, SVG Export Plug-In . SVG Version: 6.00 Build 0)  -->
<svg version="1.1" id="Layer_1" xmlns="http://www.w3.org/2000/svg" xmlns:xlink="http://www.w3.org/1999/xlink" x="0px" y="0px"
	 viewBox="0 0 500 500" style="enable-background:new 0 0 500 500;" xml:space="preserve">
<g id="XMLID_1_">
	<path id="XMLID_5_" d="M87.5,248.6c-0.1,12.1,8.8,19.3,22.9,16v-32C96.1,228.3,87.6,237.1,87.5,248.6 M110.8,186.4h19.4v92
		c-18.6,3-36.5,5-49.3-2.2c-16.4-9.2-17.8-38.4-4.8-51.4c6.6-6.6,19.9-11.2,34.1-8.2v-28.9C110.4,187.1,110.3,186.5,110.8,186.4"/>
	<rect id="XMLID_6_" x="142.4" y="186.4" width="19.4" height="20.3"/>
	<path id="XMLID_9_" d="M395.1,265.5c21.2,8.2,23.5-37.9,2.2-33.7C384,234.4,384.4,261.3,395.1,265.5 M396,215.8
		c16.2-1.7,28.4,5.4,33.3,16.4c8.3,18.8-0.5,40.3-13.8,46.7c-6.9,3.3-14.2,3.6-20.7,3c-20.3-1.8-33-22.4-25.9-45.4
		c1.1-3.6,2.4-5.8,3-6.9C376.2,222.1,383.6,217.1,396,215.8"/>
	<path id="XMLID_12_" d="M188.6,258.1c-5.4,9,8.1,11.2,16.8,8.6v-13.4C198.8,254.3,191.1,253.9,188.6,258.1 M222.7,279.3
		c-16.1,0.9-40.5,6.4-49.3-4.3c-5.2-6.3-4.6-18.3,0-24.2c6-7.6,18.9-9.3,30.7-10.4c1.1-2.6,0.3-6.9-0.9-8.6
		c-10.7-2.7-21.4,1.5-28.9,4.8v-15.1c11.4-5.2,37.9-10.8,45.8,1.3c4.2,6.3,2.6,17.4,2.6,27.2V279.3z"/>
	<path id="XMLID_13_" d="M291,280.2h-19.4v-25.1c0-8.3,1.3-18.7-3-22c-3.4-2.6-11.5-1.3-16.4,0v47.1h-19.4v-60.1
		c19.9-5.2,55.7-10.7,58.3,14.3C292.3,246.7,290.1,265.1,291,280.2"/>
	<path id="XMLID_16_" d="M320,259.4c3.3,5.3,12.1,7.3,19.4,3.9c-0.4-10.1-0.5-20.5-0.4-31.1C322.2,227.8,312.1,246.8,320,259.4
		 M368.8,218.4c-1.7,5.2-4.3,9.6-6.5,14.3c-2,0.4-3.7-0.8-4.8,0c-0.4,21.1,4.5,49.6-3.9,64.8c-5,9.1-14.3,15-28.5,16
		c-10.3,0.7-18.4-1-25.9-3.9v-18.1c8.9,5.2,31.3,9.4,37.6-1.3c1.9-3.1,1.7-6.4,2.6-11.2c-4.1,0.2-8,2.1-13,2.2
		c-20.4,0.3-33-16-28.1-38.5c1.9-8.7,7-15.7,13.8-19.9C326.4,214.1,348.2,214.7,368.8,218.4"/>
	<path id="XMLID_17_" d="M161.8,217c0,14.3,0,24.6,0,42c-0.8,17.1-0.6,30.7-6.9,38.9c-1.2,1.6-3.9,4-6,5.6c-1.8,1.4-5.4,4.2-7.3,4.3
		c-2,0.1-7.2-2.8-9.5-3.9c-3.1-1.4-5.9-3.4-9.1-4.3c7.4-4.6,14.4-8,17.3-17.3c2.5-8.1,2.2-19.7,2.2-31.1c0-11.2,0.1-24.3,0.1-34.2
		L161.8,217L161.8,217z"/>
</g>
</svg>
