<svg height="-389" viewBox="20.7 244.9 600.3 154.7" width="2500" xmlns="http://www.w3.org/2000/svg"><g fill="#0091e2"><path d="m303 290c-3.2-.1-5.8 2.4-5.9 5.5v28.8c-13.7-11-33.8-8.8-44.8 4.9-4.5 5.7-7 12.7-7 20-.3 17.6 13.7 32.1 31.3 32.4s32.1-13.7 32.4-31.3v-54.4c0-1.6-.6-3.1-1.7-4.2-1.2-1.1-2.7-1.7-4.3-1.7m-7.5 66.9c-2 4.8-5.8 8.6-10.6 10.7-5 2.1-10.6 2.1-15.6 0-4.8-2-8.5-5.9-10.5-10.6-2.1-4.9-2.1-10.5 0-15.5 2-4.8 5.8-8.6 10.5-10.6 5-2.1 10.6-2.1 15.6 0 4.8 2.1 8.6 5.9 10.6 10.7 2.1 4.8 2.1 10.4 0 15.3m74-30.2c-12.4-12.4-32.6-12.4-45 0-6 6-9.3 14.1-9.3 22.5-.3 17.6 13.7 32.1 31.3 32.4s32.1-13.7 32.4-31.3v-1.1c0-4.2-.8-8.3-2.4-12.2s-4-7.4-7-10.3m-4.1 30.1c-1 2.4-2.5 4.5-4.3 6.3s-4 3.3-6.3 4.3c-5 2.1-10.6 2.1-15.6 0-4.8-2-8.6-5.9-10.6-10.6-2.1-4.9-2.1-10.5 0-15.5 2-4.8 5.8-8.5 10.6-10.6 5-2.1 10.6-2.1 15.6 0 2.4 1 4.5 2.5 6.3 4.3s3.3 4 4.3 6.3c2.1 5.1 2.1 10.7 0 15.5m135.8-33.6c0-.8-.2-1.6-.5-2.3s-.8-1.3-1.3-1.9c-.5-.5-1.2-1-1.9-1.3s-1.5-.5-2.3-.5c-1.1 0-2.2.3-3.2.9l-34 22.1v-44.2c0-1.6-.6-3.1-1.7-4.2s-2.6-1.8-4.2-1.8c-3.3 0-5.9 2.6-6 5.9v79.1c0 1.6.6 3.1 1.7 4.2 1.1 1.2 2.6 1.8 4.2 1.8s3.1-.6 4.2-1.8c1.1-1.1 1.8-2.6 1.7-4.2v-20.5l6.9-4.5 26.3 29.5c1.1 1 2.5 1.6 4 1.5.8 0 1.6-.1 2.3-.5.7-.3 1.3-.7 1.9-1.3.5-.6 1-1.2 1.3-1.9s.5-1.5.5-2.3c0-1.5-.6-3-1.6-4.1l-24.4-27.5 23.8-15.5c1.6-1 2.4-2.8 2.3-4.7m-98.7 11.8c1.8-1.8 4-3.3 6.4-4.3 2.5-1 5.1-1.6 7.8-1.6 2.4 0 4.7.4 6.9 1.2 2.2.9 4.3 2.1 6.1 3.7 1.1.9 2.5 1.3 3.9 1.3 1.6.1 3.2-.5 4.3-1.7 1.1-1.1 1.7-2.7 1.7-4.3 0-1.7-.7-3.4-2.1-4.5-5.7-5.1-13.1-7.9-20.8-7.7-17.6 0-31.9 14.3-31.9 31.9s14.2 31.8 31.7 31.9c7.7 0 15.1-2.7 20.9-7.7 1.2-1.1 1.9-2.7 1.9-4.4.1-3.2-2.4-5.8-5.5-5.9h-.4c-1.4 0-2.7.4-3.8 1.2-1.8 1.6-3.8 2.8-6 3.7-2.2.8-4.6 1.2-6.9 1.2-2.7 0-5.3-.5-7.8-1.6-2.4-1-4.5-2.5-6.4-4.3-7.8-7.8-7.8-20.4-.1-28.2.1.2.1.2.1.1m216.8-13.7c-1.2-1.1-2.5-1.9-4-2.4-1.7-.6-3.5-1-5.3-1.2s-3.6-.3-5.4-.3c-3.6 0-7.3.6-10.7 1.9-3.4 1.2-6.5 3-9.3 5.2v-1.2c-.1-3.3-2.9-5.8-6.2-5.7a5.9 5.9 0 0 0 -5.7 5.7v51.9c.1 3.3 2.9 5.8 6.2 5.7a5.9 5.9 0 0 0 5.7-5.7v-25.9c0-2.7.5-5.3 1.6-7.8 1-2.4 2.4-4.5 4.3-6.3 1.8-1.8 4-3.3 6.3-4.3 2.5-1 5.1-1.6 7.8-1.6s5.3.5 7.8 1.4c.8.4 1.6.6 2.5.6.8 0 1.6-.1 2.3-.5.7-.3 1.3-.7 1.9-1.3.5-.5 1-1.2 1.3-1.9s.5-1.5.5-2.3c.1-1.5-.5-2.9-1.6-4m-55.2 15.7c-5.1-11.8-16.7-19.5-29.5-19.6-17.6 0-31.8 14.2-31.9 31.8 0 17.6 14.3 31.9 31.9 31.9 7.6 0 15-2.7 20.8-7.7l.2-.2c.5-.4 1-.9 1.3-1.5 1.9-2.8 1.2-6.5-1.5-8.4-2.3-1.5-5.3-1.2-7.3.7-.2.2-.8.7-.8.8l-.1.1c-1.7 1.4-3.6 2.6-5.7 3.3-2.2.8-4.5 1.2-6.9 1.1-2.2 0-4.3-.3-6.4-1-2-.7-3.9-1.6-5.6-2.9-1.7-1.2-3.2-2.7-4.4-4.4-1.3-1.7-2.2-3.7-2.8-5.7h45c1.6 0 3.1-.6 4.2-1.7 1.2-1.1 1.8-2.6 1.7-4.2.1-4.3-.7-8.5-2.2-12.4m-48.7 6.4c.6-2.1 1.5-4 2.8-5.7 1.2-1.7 2.7-3.2 4.4-4.4s3.6-2.2 5.6-2.9 4.2-1 6.3-1 4.3.3 6.3 1c4 1.3 7.5 3.9 10 7.3 1.3 1.7 2.2 3.7 2.9 5.7zm83.6 29c-2.3 0-4.1 1.9-4.1 4.2s1.9 4.1 4.2 4.1 4.1-1.9 4.1-4.1c0-2.4-1.9-4.2-4.2-4.2zm0 7.4c-1.8.1-3.3-1.3-3.4-3.1s1.3-3.3 3.1-3.4 3.3 1.3 3.4 3.1v.2c.1 1.7-1.3 3.2-3 3.2z"/><path d="m600 376.6c.5-.1.8-.5.8-1 0-.4-.1-.7-.4-.9-.4-.2-.9-.3-1.4-.3s-1.1 0-1.6.1v4.1h.9v-1.6h.4c.5 0 .8.2.9.6.1.3.2.7.3 1h1c-.2-.3-.3-.7-.3-1 .1-.4-.2-.8-.6-1m-1.2-.3h-.5v-1.2h.5c.6 0 .9.3.9.6.1.4-.4.7-.9.6m-364.4-72.9c-.6-.5-6-4.6-17.6-4.6-3 0-6.1.3-9.1.8-2.2-15.3-14.9-22.7-15.4-23.1l-3.1-1.8-2 2.9c-2.5 3.9-4.4 8.3-5.5 12.8-2.1 8.7-.8 16.9 3.6 23.9-5.3 3-13.9 3.7-15.7 3.8h-142c-3.7 0-6.7 3-6.7 6.7-.2 12.4 1.9 24.8 6.2 36.5 4.9 12.8 12.2 22.3 21.6 28.1 10.6 6.5 27.9 10.2 47.4 10.2 8.8 0 17.6-.8 26.3-2.4 12.1-2.2 23.7-6.4 34.4-12.5 8.8-5.1 16.7-11.6 23.4-19.2 11.3-12.7 18-26.9 22.9-39.5h2c12.3 0 19.9-4.9 24.1-9.1 2.8-2.6 4.9-5.8 6.4-9.4l.9-2.6z"/><path d="m40.8 314h19c.9 0 1.7-.7 1.7-1.7v-17c0-.9-.7-1.7-1.7-1.7h-19c-.9 0-1.7.7-1.7 1.7v17c.1 1 .8 1.7 1.7 1.7zm26.2 0h19c.9 0 1.7-.7 1.7-1.7v-17c0-.9-.7-1.7-1.7-1.7h-19c-.9 0-1.7.7-1.7 1.7v17c.1 1 .8 1.7 1.7 1.7m26.7 0h19c.9 0 1.7-.7 1.7-1.7v-17c0-.9-.7-1.7-1.7-1.7h-19c-.9 0-1.7.7-1.7 1.7v17c0 1 .7 1.7 1.7 1.7zm26.3 0h19c.9 0 1.7-.7 1.7-1.7v-17c0-.9-.7-1.7-1.7-1.7h-19c-.9 0-1.7.7-1.7 1.7v17c0 1 .8 1.7 1.7 1.7zm-53-24.3h19c.9 0 1.7-.8 1.7-1.7v-17c0-.9-.7-1.7-1.7-1.7h-19c-.9 0-1.7.7-1.7 1.7v17c.1.9.8 1.7 1.7 1.7m26.7 0h19c.9 0 1.7-.8 1.7-1.7v-17c0-.9-.7-1.7-1.7-1.7h-19c-.9 0-1.7.7-1.7 1.7v17c0 .9.7 1.7 1.7 1.7m26.3 0h19c.9 0 1.7-.8 1.7-1.7v-17c0-.9-.8-1.7-1.7-1.7h-19c-.9 0-1.7.7-1.7 1.7v17c0 .9.8 1.7 1.7 1.7m0-24.4h19c.9 0 1.7-.7 1.7-1.7v-17c0-.9-.8-1.7-1.7-1.7h-19c-.9 0-1.7.7-1.7 1.7v17c0 .9.8 1.7 1.7 1.7m26.5 48.7h19c.9 0 1.7-.7 1.7-1.7v-17c0-.9-.7-1.7-1.7-1.7h-19c-.9 0-1.7.7-1.7 1.7v17c.1 1 .8 1.7 1.7 1.7"/></g></svg>