<?xml version="1.0" encoding="utf-8"?>
<!-- Generator: Adobe Illustrator 24.1.1, SVG Export Plug-In . SVG Version: 6.00 Build 0)  -->
<svg version="1.1" id="Layer_1" xmlns="http://www.w3.org/2000/svg" xmlns:xlink="http://www.w3.org/1999/xlink" x="0px" y="0px"
	 viewBox="0 0 512 512" style="enable-background:new 0 0 512 512;" xml:space="preserve">
<style type="text/css">
	.st0{fill:#E5E5E5;}
	.st1{fill:url(#SVGID_1_);}
	.st2{fill:url(#SVGID_2_);}
	.st3{fill:#333333;}
	.st4{fill:#FFFFFF;}
	.st5{fill:url(#SVGID_3_);}
	.st6{fill:url(#SVGID_4_);}
	.st7{fill:url(#SVGID_5_);}
	.st8{fill:url(#SVGID_6_);}
	.st9{fill:url(#SVGID_7_);}
	.st10{fill:url(#SVGID_8_);}
	.st11{fill:url(#SVGID_9_);}
	.st12{fill:url(#SVGID_10_);}
	.st13{fill:url(#SVGID_11_);}
	.st14{fill:url(#SVGID_12_);}
	.st15{fill:url(#SVGID_13_);}
	.st16{fill:url(#SVGID_14_);}
	.st17{fill:url(#SVGID_15_);}
</style>
<g>
	<path class="st0" d="M505.7,166.7c3.3,2.8,5,5.4,4.3,7.2c0,0.1-0.1,0.1-0.1,0.2v0.1c-0.2,0.3-0.5,0.6-0.8,0.9c0,0-6.9,6.1-8.1,9.2
		l-61.6,160.3c-3.6,9-12.2,14.5-21.4,14.5c-2.7,0-5.5-0.5-8.2-1.5c-1.8-0.7-3.5-1.6-5-2.7c2,1.7,4.3,3.1,6.8,4.1
		c2.7,1,5.5,1.5,8.2,1.5c9.2,0,17.8-5.5,21.4-14.5l61.6-160.3c1.2-3.1,8.1-9.2,8.1-9.2c0.3-0.3,0.6-0.6,0.8-0.9v-0.1
		c0-0.1,0.1-0.1,0.1-0.2C512.7,173.1,510.3,170,505.7,166.7"/>
	
		<linearGradient id="SVGID_1_" gradientUnits="userSpaceOnUse" x1="4.8145" y1="511.2333" x2="5.8165" y2="511.2333" gradientTransform="matrix(51.4986 19.8035 -10.9826 92.8601 5789.4189 -47321.457)">
		<stop  offset="0" style="stop-color:#919191"/>
		<stop  offset="1" style="stop-color:#FFFFFF"/>
	</linearGradient>
	<path class="st1" d="M465.4,151.5c-3.8,0-6.3,0.8-7,2.6c0,0.1,0,0.2-0.1,0.3c-0.1,0.4-0.1,0.8,0,1.2c0,0,0.2,1.5,0.4,3.5
		c2.9,10.1,9.5,16.3,9.5,16.3l-27.3,71.4c0,0,0,0,0,0c7-4.1,12.7-3.2,20.4-6.6c7.8-3.4,16.4-13.3,16.4-13.3l-44.5,115.6
		c-2.5,6.4-8.8,10.4-15.4,10.4c-2,0-4-0.4-5.9-1.1c-0.9-0.4-1.8-0.8-2.6-1.3c1.5,3.1,3.8,5.8,6.6,7.9c-2.1-0.1-4.2-0.6-6.2-1.4
		c-9-3.4-14.5-11.9-14.7-21c-0.1,7.5,3.5,14.6,9.7,18.9c1.5,1.1,3.2,2,5,2.7c2.7,1,5.5,1.5,8.2,1.5c9.2,0,17.8-5.5,21.4-14.5
		L501,184.3c1.2-3.1,8.1-9.2,8.1-9.2c0.3-0.3,0.6-0.6,0.8-0.9v-0.1c0-0.1,0.1-0.1,0.1-0.2c0.7-1.8-1-4.4-4.3-7.2
		c-4.1-3.4-10.8-7.2-18.6-10.2C478.8,153.2,470.8,151.5,465.4,151.5"/>
	
		<linearGradient id="SVGID_2_" gradientUnits="userSpaceOnUse" x1="7.907" y1="510.6227" x2="8.9089" y2="510.6227" gradientTransform="matrix(31.1521 11.9794 -7.2896 51.194 3897.2424 -25955.2773)">
		<stop  offset="0" style="stop-color:#990000"/>
		<stop  offset="1" style="stop-color:#E80000"/>
	</linearGradient>
	<path class="st2" d="M434.6,318c-1,0-1.8-0.8-1.8-1.8c0-1,0.8-1.8,1.8-1.8c1,0,1.8,0.8,1.8,1.8C436.4,317.2,435.6,318,434.6,318
		 M432.1,292c-2.8,0-5.1-2.3-5.1-5.1c0-2.8,2.3-5.1,5.1-5.1c2.8,0,5.1,2.3,5.1,5.1C437.2,289.7,434.9,292,432.1,292 M449.9,274.2
		c-1.5,0-2.7-1.2-2.7-2.7c0-1.5,1.2-2.7,2.7-2.7c1.5,0,2.7,1.2,2.7,2.7C452.6,273,451.4,274.2,449.9,274.2 M477.7,226.9
		c0,0-8.6,9.9-16.4,13.3c-7.7,3.4-13.4,2.5-20.4,6.6c0,0,0,0,0,0l-4.2,11c0.3-0.5,0.9-0.9,1.5-0.9c1,0,1.8,0.8,1.8,1.8
		c0,1-0.8,1.8-1.8,1.8c-1,0-1.8-0.8-1.8-1.8c0-0.1,0-0.2,0-0.4l-7.9,20.6c0.2,0.6-0.1,1.6-0.9,2.3c0,0,0,0,0,0l-4.8,12.6
		c0.3-0.1,0.7-0.2,1-0.2c1.5,0,2.7,1.2,2.7,2.7c0,1.5-1.2,2.7-2.7,2.7c-1.1,0-2-0.6-2.4-1.5l-13.3,34.6c-2.3,6.3-1.7,12.9,1.1,18.4
		c0.8,0.5,1.7,0.9,2.6,1.3c2,0.8,4,1.1,5.9,1.1c6.6,0,12.8-4,15.4-10.4L477.7,226.9"/>
	<path class="st3" d="M499.3,170.5c0.9-2.3-5.5-6.9-14.2-10.3c-8.8-3.4-16.6-4.2-17.5-1.9c-0.9,2.3,5.5,6.9,14.2,10.3
		C490.6,172,498.4,172.8,499.3,170.5z"/>
	<path class="st4" d="M407.3,300.2c-0.1,0.1-0.2,0.2-0.3,0.3l-10.4,27.2c-1,2.7-1.5,5.5-1.4,8.3c0-2.6,0.5-5.2,1.5-7.8L407.3,300.2
		 M457.9,155.6c0,0,1.3,8.5-0.2,12.3l-48.4,126.4c0.1-0.1,0.2-0.2,0.4-0.3l48.5-126.1c0.9-2.2,0.8-6,0.6-8.8
		C458.4,157.9,458.1,156.8,457.9,155.6"/>
	
		<linearGradient id="SVGID_3_" gradientUnits="userSpaceOnUse" x1="4.8145" y1="511.3002" x2="5.8165" y2="511.3002" gradientTransform="matrix(51.4986 19.8035 -10.9826 92.8601 5789.4189 -47321.457)">
		<stop  offset="0" style="stop-color:#B2B2B2"/>
		<stop  offset="1" style="stop-color:#FFFFFF"/>
	</linearGradient>
	<path class="st5" d="M416.8,292.2c-2.9,2.7-6.1,5.5-9.5,8.1l-10.7,27.9c-1,2.6-1.4,5.2-1.5,7.8c0.1,9.1,5.7,17.6,14.7,21
		c2,0.8,4.1,1.3,6.2,1.4c-2.8-2.1-5-4.8-6.6-7.9c-6.8-4.1-10.1-12.6-7.3-20L416.8,292.2 M458.7,159.1c0.2,2.8,0.3,6.6-0.6,8.8
		L409.7,294c3.4-2.6,6.6-5.2,9.3-7.7l11.4-29.8c0,0,3.5-5.7,10.5-9.8l27.3-71.4C468.3,175.4,461.6,169.2,458.7,159.1"/>
	
		<linearGradient id="SVGID_4_" gradientUnits="userSpaceOnUse" x1="7.907" y1="510.9356" x2="8.9089" y2="510.9356" gradientTransform="matrix(31.1521 11.9794 -7.2896 51.194 3897.2424 -25955.2773)">
		<stop  offset="0" style="stop-color:#B84D4D"/>
		<stop  offset="1" style="stop-color:#EF4D4D"/>
	</linearGradient>
	<path class="st6" d="M427.7,281.2c-2.6,2.7-6.4,6.7-11,11L402,330.5c-2.8,7.4,0.5,15.9,7.3,20c-2.8-5.5-3.4-12.1-1.1-18.4
		l13.3-34.6c-0.2-0.3-0.3-0.7-0.3-1.2c0-1.1,0.7-2.1,1.6-2.5L427.7,281.2 M440.9,246.8c-7,4.1-10.5,9.8-10.5,9.8L419,286.3
		c3.1-2.8,5.7-5.2,7.1-6.7c0.8-0.9,1.5-1.2,1.9-1.2c0.3,0,0.5,0.2,0.6,0.5l7.9-20.6c0-0.2,0.1-0.4,0.2-0.5L440.9,246.8"/>
	
		<linearGradient id="SVGID_5_" gradientUnits="userSpaceOnUse" x1="7.907" y1="510.1019" x2="8.9089" y2="510.1019" gradientTransform="matrix(31.1521 11.9794 -7.2896 51.194 3897.2424 -25955.2773)">
		<stop  offset="0" style="stop-color:#CC8080"/>
		<stop  offset="1" style="stop-color:#F48080"/>
	</linearGradient>
	<path class="st7" d="M438.3,256.9c-0.7,0-1.2,0.4-1.5,0.9l-0.2,0.5c0,0.1,0,0.2,0,0.4c0,1,0.8,1.8,1.8,1.8c1,0,1.8-0.8,1.8-1.8
		C440,257.7,439.2,256.9,438.3,256.9"/>
	
		<linearGradient id="SVGID_6_" gradientUnits="userSpaceOnUse" x1="7.907" y1="510.1019" x2="8.9089" y2="510.1019" gradientTransform="matrix(31.1521 11.9794 -7.2896 51.194 3897.2424 -25955.2773)">
		<stop  offset="0" style="stop-color:#DCA6A6"/>
		<stop  offset="1" style="stop-color:#F7A6A6"/>
	</linearGradient>
	<path class="st8" d="M436.7,257.8c-0.1,0.2-0.2,0.3-0.2,0.5L436.7,257.8"/>
	
		<linearGradient id="SVGID_7_" gradientUnits="userSpaceOnUse" x1="7.907" y1="510.2574" x2="8.9089" y2="510.2574" gradientTransform="matrix(31.1521 11.9794 -7.2896 51.194 3897.2424 -25955.2773)">
		<stop  offset="0" style="stop-color:#CC8080"/>
		<stop  offset="1" style="stop-color:#F48080"/>
	</linearGradient>
	<path class="st9" d="M449.9,268.8c-1.5,0-2.7,1.2-2.7,2.7c0,1.5,1.2,2.7,2.7,2.7c1.5,0,2.7-1.2,2.7-2.7
		C452.6,270,451.4,268.8,449.9,268.8"/>
	
		<linearGradient id="SVGID_8_" gradientUnits="userSpaceOnUse" x1="7.907" y1="510.6684" x2="8.9089" y2="510.6684" gradientTransform="matrix(31.1521 11.9794 -7.2896 51.194 3897.2424 -25955.2773)">
		<stop  offset="0" style="stop-color:#CC8080"/>
		<stop  offset="1" style="stop-color:#F48080"/>
	</linearGradient>
	<path class="st10" d="M432.1,281.8c-2.8,0-5.1,2.3-5.1,5.1c0,2.8,2.3,5.1,5.1,5.1c2.8,0,5.1-2.3,5.1-5.1
		C437.2,284.1,434.9,281.8,432.1,281.8"/>
	
		<linearGradient id="SVGID_9_" gradientUnits="userSpaceOnUse" x1="7.907" y1="510.9" x2="8.9089" y2="510.9" gradientTransform="matrix(31.1521 11.9794 -7.2896 51.194 3897.2424 -25955.2773)">
		<stop  offset="0" style="stop-color:#CC8080"/>
		<stop  offset="1" style="stop-color:#F48080"/>
	</linearGradient>
	<path class="st11" d="M423.9,293.6c-0.4,0-0.7,0.1-1,0.2l-1.4,3.6c0.4,0.9,1.4,1.5,2.4,1.5c1.5,0,2.7-1.2,2.7-2.7
		C426.6,294.8,425.4,293.6,423.9,293.6"/>
	
		<linearGradient id="SVGID_10_" gradientUnits="userSpaceOnUse" x1="7.907" y1="510.8999" x2="8.9089" y2="510.8999" gradientTransform="matrix(31.1521 11.9794 -7.2896 51.194 3897.2424 -25955.2773)">
		<stop  offset="0" style="stop-color:#DCA6A6"/>
		<stop  offset="1" style="stop-color:#F7A6A6"/>
	</linearGradient>
	<path class="st12" d="M422.9,293.8c-1,0.4-1.6,1.4-1.6,2.5c0,0.4,0.1,0.8,0.3,1.2L422.9,293.8"/>
	
		<linearGradient id="SVGID_11_" gradientUnits="userSpaceOnUse" x1="7.907" y1="511.1936" x2="8.9089" y2="511.1936" gradientTransform="matrix(31.1521 11.9794 -7.2896 51.194 3897.2424 -25955.2773)">
		<stop  offset="0" style="stop-color:#CC8080"/>
		<stop  offset="1" style="stop-color:#F48080"/>
	</linearGradient>
	<path class="st13" d="M434.6,314.4c-1,0-1.8,0.8-1.8,1.8c0,1,0.8,1.8,1.8,1.8c1,0,1.8-0.8,1.8-1.8
		C436.4,315.2,435.6,314.4,434.6,314.4"/>
	<path class="st0" d="M112.9,255.9c-0.1,0-0.2,0-0.3,0c-0.7,0-2,1.3-0.9,1.8c1.5,0.5,2.2,1.8,2.2,3.6c-1.3,7.5-10.6,16-14.2,18.8
		c-0.8,0.8,0.1,2.3,0.9,2.3c0.1,0,0.3,0,0.4-0.1c2-1.6,6.2-4.9,9.6-9.3c-5.6,12.5-16.6,28.6-20.8,34.3
		c-16.4,22.6-41.3,43.5-58.4,43.5c-13.7,0-25.3-9.3-27.8-22.8c-0.1-0.8-0.7-1.2-1.1-1.2c-0.5,0-0.9,0.4-0.7,1.4
		c3.1,18.6,17.5,25.9,34.9,25.9c19.1,0,41.5-13.8,53.9-27.9c20-22.8,32.9-49.2,29.5-64C118.7,256.9,115.1,255.9,112.9,255.9
		 M329.2,239.5c-0.8,0-1.7,0.1-2.7,0.4c-3.8,1.1-7.5,8.4-10.2,14.7c-8.4,12.5-22.4,29.5-32.2,38.5c-4.1,3.5-8,5.8-10,5.8
		c-2.3,0-2.1-2.9,3.1-10.3c4-5.6,9.1-11.6,12-17.6c4.8-10.4-0.8-16.8-8.5-16.8c-3.5,0-7.5,1.3-11.2,4.1
		c-6.9,5.3-16.2,16.2-23.5,22.1c-1.5,1.2-1.6,2.9-0.6,2.9c0.3,0,0.7-0.2,1.1-0.5c5.8-4.7,16-15.5,24.8-21.7c2.6-2,4.7-2.8,6.1-2.8
		c2.4,0,2.6,2.5-0.1,5.5c-5.8,6.7-16,18.3-18.6,25.7c-3.6,11.1,0.7,16,8,16c10,0,24.9-15.6,34.9-27.9c3.3-4.2,6.9-9.1,10-13.8
		c-8.7,16.9-17.8,33.9-29.1,49.4c-16,21.7-36,38.1-55,38.1c-13.7,0-25.5-9.3-28-22.8c-0.1-0.8-0.6-1.2-1.1-1.2
		c-0.4,0-0.8,0.4-0.7,1.4c3.1,18.6,17.5,25.9,34.9,25.9c19.1,0,37.5-11.1,50.4-24.6c26-27.4,29.1-58.2,37.1-75.5
		c3.3-6.8,6.3-7.9,8.8-7.9c0.4,0,0.8,0,1.2,0.1c0.4,0,0.7,0.1,1,0.1c3.1,0,4.2-1.8,3.7-3.6C334.3,241.3,332.3,239.5,329.2,239.5
		 M129.6,234.2c-2.5,0-5.4,1.4-7.6,4c-3.5,3.8-4.1,8.6-1.3,10.7c0.9,0.7,2,1.1,3.3,1.1c2.5,0,5.4-1.4,7.6-3.8
		c3.5-3.8,4-8.7,1.3-10.9C132,234.5,130.8,234.2,129.6,234.2 M381.1,204.6c-6.7,0.2-18.9,4.9-24.6,9.3c-0.9,0.9-0.9,1.6-0.2,1.6
		c0.3,0,0.6-0.1,1.1-0.3c1.1-0.4,2.4-1.1,3.6-1.6c1.2-0.7,2.1-0.9,2.7-0.9c2.8,0,0.8,5.2-0.3,7.4c-7.6,13.3-21.1,31.9-28.2,41.2
		c-5.8,7.8-12.9,15.6-18.4,19.9c-1.6,1.3-1.3,2.6-0.2,2.6c0.4,0,0.9-0.2,1.5-0.6c2-1.3,4.9-4.2,8.2-7.6c-6,12-10.9,28.8,4.9,30.8
		c0.8,0.1,1.6,0.2,2.5,0.2c12.9,0,27.7-12.6,37.4-22.2c1.1-1.1,2.4-2.4,3.7-3.7c0.3-0.3,0.6-0.6,0.9-0.9c-6,12-10.9,28.8,4.9,30.8
		c0.8,0.1,1.7,0.2,2.5,0.2c7.8,0,16.2-4.6,23.7-10.3l2.4-6.2c-5.5,4.2-11.5,8.1-16.7,10c-3.3,1.2-5.8,1.8-7.7,1.8
		c-17.4,0,17.2-46.1,20.3-50.2c7.9-10,25.4-27,30.7-35.5c3.8-6.5,3.6-11.6-5.3-11.6c-6.7,0.2-18.9,4.9-24.6,9.3
		c-0.9,0.9-0.9,1.6-0.2,1.6c0.3,0,0.6-0.1,1.1-0.3c1.1-0.4,2.4-1.1,3.6-1.6c1.2-0.7,2.1-0.9,2.7-0.9c2.8,0,0.8,5.2-0.3,7.4
		c-7.6,13.3-21.1,31.9-28.2,41.2c-3.4,4.6-7.2,9.1-10.9,13c-6.8,6.5-20.3,17.9-30.6,21.7c-3.3,1.2-5.8,1.8-7.7,1.8
		c-17.4,0,17.2-46.1,20.3-50.2c7.8-9.8,25.3-26.8,30.6-35.4C390.2,209.7,390,204.6,381.1,204.6 M208.8,283.5c-1.6,0-3-0.3-3.9-0.8
		l-0.9-0.5c-0.5-0.9-1.1-1.8-1.5-2.7c3.5-4.3,7.5-8.1,11.5-11.7c6.8-6.1,12.3-8.4,16.1-8.4c7.8,0,8.6,9.8-0.3,16.6
		C224.3,280.2,214.7,283.5,208.8,283.5 M271.4,190.7c-7.2,0-17.1,4.1-28,14.1c-21.5,19.7-35.5,40.4-47.7,67.2
		c-4.2,5.1-7.3,9.3-11.1,12.5c-0.5,0.4-0.8,0.8-1.1,1.2c-10.5,9-27,21.1-37.3,21.2c-0.1,0-0.3,0-0.4,0c-7,0-10-5.4-8.7-12.4
		c2-11.1,13.5-24.1,23.3-28.6c2.4-1.1,4.6-1.6,6.5-1.6c8.1,0,10.5,8.8-3,16c-6.4,3.3-14,5.1-17.1,5.1c-3.6,0-3.3,1.5-0.2,1.6
		c0.2,0,0.4,0,0.7,0c5.1,0,12.9-2.1,18-4.5c17.1-8.2,18.2-23.4-0.4-23.9c-0.4,0-0.8,0-1.2,0c-19.9,0-43.2,16.9-43,38.1
		c0.2,9.8,8,15.1,18.7,15.1c17.9-0.2,33.8-13.8,46.9-25.7c1.9-1.6,3.7-3.3,5.5-5.1c-4.6,11.6-6.9,22.3-5.8,30.3
		c0.7,5.8,4,8.5,6.6,10.7c0.1,0.1,0.3,0.2,0.5,0.2c0.5,0,1-0.4,0.4-1.2c-3.8-4.5-2.7-17.9,2.5-31c3.8,7.5,16.8,16.7,31.7,16.7
		c2.5,0,5.1-0.3,7.7-0.8c5.3-1.3,9.6-4.2,9.6-8.8c0-0.2-0.2-0.4-0.5-0.4s-0.5,0.1-0.5,0.4c0,2.7-3.1,5-6.6,5.5
		c-0.5,0.1-1,0.1-1.6,0.1c-8.6,0-23.3-9-30.4-18.3c1.8,0.7,4.1,1,6.6,1c8.6,0,20-3.7,26.2-8.1c7.3-5.3,10.2-11.1,10.7-15.8
		c0.7-5.6-3.6-9.6-10.6-9.6c-2.6,0-5.6,0.6-8.9,1.8c-7.6,3.1-16.7,9.8-26.2,22.3c10-16.5,29.7-43.4,49-60.5
		c10.5-9.3,19-13.7,23.3-13.7c5.4,0,4.3,6.7-7.3,18.9c-8.7,9.1-25.1,20.8-36.4,25.9c-2.8,1.2-2.3,2.7-0.7,2.7c0.4,0,0.9-0.1,1.4-0.3
		c12-5.3,28-16.2,37.7-25.2C289.1,205.7,285.3,190.7,271.4,190.7"/>
	
		<linearGradient id="SVGID_12_" gradientUnits="userSpaceOnUse" x1="7.907" y1="510.57" x2="8.9089" y2="510.57" gradientTransform="matrix(31.1521 11.9794 -7.2896 51.194 3897.2424 -25955.2773)">
		<stop  offset="0" style="stop-color:#890000"/>
		<stop  offset="1" style="stop-color:#D00000"/>
	</linearGradient>
	<path class="st14" d="M428.6,278.9l-0.9,2.3c0,0,0,0,0,0C428.5,280.5,428.8,279.5,428.6,278.9"/>
	<path class="st0" d="M409.7,294c-0.1,0.1-0.2,0.2-0.4,0.3l-2.4,6.2c0.1-0.1,0.2-0.2,0.3-0.3L409.7,294"/>
	
		<linearGradient id="SVGID_13_" gradientUnits="userSpaceOnUse" x1="4.8145" y1="511.7469" x2="5.8165" y2="511.7469" gradientTransform="matrix(51.4986 19.8035 -10.9826 92.8601 5789.4189 -47321.457)">
		<stop  offset="0" style="stop-color:#A0A0A0"/>
		<stop  offset="1" style="stop-color:#E5E5E5"/>
	</linearGradient>
	<path class="st15" d="M419,286.3c-2.7,2.4-5.9,5.1-9.3,7.7l-2.4,6.3c3.4-2.6,6.6-5.4,9.5-8.1L419,286.3"/>
	
		<linearGradient id="SVGID_14_" gradientUnits="userSpaceOnUse" x1="7.907" y1="510.7078" x2="8.9089" y2="510.7078" gradientTransform="matrix(31.1521 11.9794 -7.2896 51.194 3897.2424 -25955.2773)">
		<stop  offset="0" style="stop-color:#A54545"/>
		<stop  offset="1" style="stop-color:#D74545"/>
	</linearGradient>
	<path class="st16" d="M428,278.4c-0.4,0-1,0.3-1.9,1.2c-1.5,1.5-4,4-7.1,6.7l-2.3,5.9c4.6-4.3,8.4-8.3,11-11l0.9-2.3
		C428.5,278.6,428.3,278.4,428,278.4"/>
	
		<linearGradient id="SVGID_15_" gradientUnits="userSpaceOnUse" x1="-0.149" y1="512.5884" x2="0.8529" y2="512.5884" gradientTransform="matrix(2.663952e-14 -163.3988 435.0564 1.000529e-14 -222786.625 328.2513)">
		<stop  offset="0" style="stop-color:#1A1A1A"/>
		<stop  offset="0.4026" style="stop-color:#4A4A4C"/>
		<stop  offset="1" style="stop-color:#333333"/>
	</linearGradient>
	<path class="st17" d="M118.8,247.1c2.7,2.2,7.6,0.9,10.9-2.7c3.5-3.8,4-8.7,1.3-10.9c-2.7-2.2-7.6-0.9-10.9,2.9
		C116.6,240.2,116.1,244.9,118.8,247.1z M110.8,254.2c-0.7,0-2,1.3-0.9,1.8c1.5,0.5,2.2,1.8,2.2,3.6c-1.3,7.5-10.6,16-14.2,18.8
		c-0.9,0.9,0.4,2.9,1.3,2.2c2-1.6,6.2-4.9,9.6-9.3c-5.6,12.5-16.6,28.6-20.8,34.3c-16.4,22.6-41.3,43.5-58.4,43.5
		c-13.7,0-25.3-9.3-27.8-22.8c-0.2-1.5-2.2-1.8-1.8,0.2c3.1,18.6,17.5,25.9,34.9,25.9c19.1,0,41.5-13.8,53.9-27.9
		c20-22.8,32.9-49.2,29.5-64C116.8,254.9,113,254,110.8,254.2z M233.6,303.9c5.3-1.3,9.6-4.2,9.6-8.8c0-0.5-0.9-0.5-0.9,0
		c0,2.7-3.1,5-6.6,5.5c-8.2,1.3-24.4-8.3-32-18.1c8.2,3.1,24.9-1.4,32.8-7.1c7.3-5.3,10.2-11.1,10.7-15.8c0.9-7.8-7.6-12.4-19.5-7.8
		c-7.6,3.1-16.7,9.8-26.2,22.3c10-16.5,29.7-43.4,49-60.5c23.5-20.8,37.1-16.9,16,5.3c-8.7,9.1-25.1,20.8-36.4,25.9
		c-3.5,1.5-1.8,3.5,0.7,2.4c12-5.3,28-16.2,37.7-25.2c28.6-27.4,4.7-48.1-26.9-19c-21.5,19.6-35.5,40.4-47.7,67.2
		c-4.2,5.1-7.3,9.3-11.1,12.5c-0.5,0.4-0.8,0.8-1.1,1.2c-10.5,9-27,21.1-37.3,21.2c-7.3,0.2-10.4-5.3-9.1-12.4
		c2-11.1,13.5-24.1,23.3-28.6c12.7-5.8,20.2,5.5,3.5,14.5c-6.4,3.3-14,5.1-17.1,5.1c-3.6,0-3.3,1.5-0.2,1.6c5.1,0.2,13.3-2,18.7-4.5
		c17.1-8.2,18.2-23.4-0.4-23.9c-20.2-0.7-44.4,16.5-44.2,38.1c0.2,9.8,8,15.1,18.7,15.1c17.9-0.2,33.8-13.8,46.9-25.7
		c1.9-1.6,3.7-3.3,5.5-5.1c-4.6,11.6-6.9,22.3-5.8,30.3c0.7,5.8,4,8.5,6.6,10.7c0.5,0.4,1.6,0,0.9-1.1c-3.8-4.5-2.7-17.9,2.5-31
		C198.7,296.9,215.8,307.9,233.6,303.9z M212.1,266c20.9-18.6,29.1-2,15.8,8.2c-6.9,5.3-20.6,9.3-24.9,6.7l-0.9-0.5
		c-0.5-0.9-1.1-1.8-1.5-2.7C204.1,273.5,208.1,269.6,212.1,266z M328.3,244.9c8.4,0.9,4.9-9.3-3.6-6.7c-3.8,1.1-7.5,8.4-10.2,14.7
		c-8.4,12.5-22.4,29.5-32.2,38.5c-8.7,7.5-16.7,9.5-6.9-4.5c4-5.6,9.1-11.6,12-17.5c6.9-15.1-7.8-21.7-19.7-12.7
		c-6.9,5.3-16.2,16.2-23.5,22.1c-2,1.6-1.5,4,0.5,2.4c5.8-4.7,16-15.5,24.8-21.7c7.3-5.6,10.2-2,6,2.7c-5.8,6.7-16,18.3-18.6,25.7
		c-3.6,11.1,0.7,16,8,16c10,0,24.9-15.6,34.9-27.9c3.3-4.2,6.9-9.1,10-13.8c-8.7,16.9-17.8,33.9-29.1,49.4c-16,21.7-36,38.1-55,38.1
		c-13.7,0-25.5-9.3-28-22.8c-0.2-1.5-2-1.8-1.8,0.2c3.1,18.6,17.5,25.9,34.9,25.9c19.1,0,37.5-11.1,50.4-24.6
		c26-27.4,29.1-58.2,37.1-75.5C322.1,244.9,325.6,244.5,328.3,244.9z M434.1,218.5c3.8-6.5,3.6-11.6-5.3-11.6
		c-6.7,0.2-18.9,4.9-24.6,9.3c-1.3,1.3-0.7,2,0.9,1.3c1.1-0.4,2.4-1.1,3.6-1.6c6.4-3.5,3.8,3.8,2.4,6.5
		c-7.6,13.3-21.1,31.9-28.2,41.2c-3.4,4.6-7.2,9.1-10.9,13c-6.8,6.5-20.3,17.9-30.6,21.7c-33.1,12.4,9.1-43.9,12.6-48.5
		c7.8-9.8,25.3-26.8,30.6-35.4c3.8-6.5,3.6-11.6-5.3-11.6c-6.7,0.2-18.9,4.9-24.6,9.3c-1.3,1.3-0.7,2,0.9,1.3
		c1.1-0.4,2.4-1.1,3.6-1.6c6.4-3.5,3.8,3.8,2.4,6.5c-7.6,13.3-21.1,31.9-28.2,41.2c-5.8,7.8-12.9,15.6-18.4,19.9
		c-2.2,1.8-0.9,3.5,1.3,2c2-1.3,4.9-4.2,8.2-7.6c-6,12-10.9,28.8,4.9,30.8c13.5,1.8,29.5-11.9,39.9-22c1.1-1.1,2.4-2.4,3.7-3.7
		c0.3-0.3,0.6-0.6,0.9-0.9c-6,12-10.9,28.8,4.9,30.8c17.3,2.4,38.8-20.8,47.1-29.4c1.6-1.6,1.1-4.4-1.6-1.6
		c-4.9,5.1-21.5,20.1-33.5,24.6c-33.1,12.4,9.1-43.9,12.6-48.5C411.4,244,428.8,227,434.1,218.5z"/>
</g>
</svg>
