<svg xmlns="http://www.w3.org/2000/svg" width="2500" height="2500" viewBox="0 0 192.756 192.756"><g fill-rule="evenodd" clip-rule="evenodd"><path fill="#fff" d="M0 0h192.756v192.756H0V0z"/><path d="M51.253 133.206c-.026-.26-.078-.622-.13-1.191-.052-.285-.078-.544-.104-.803l-1.114.104h-.285c-2.875.129-6.217-.104-9.429-.647-3.186-.544-6.268-1.399-8.651-2.487-4.896-2.279-9.014-5.517-10.905-8.081-1.14-1.605-1.839-3.289-1.943-4.999-.233-3.342 1.166-5.906 4.403-7.46 1.865-.907 4.43-1.14 7.719-.466 4.222.881 6.89 1.45 8.574 1.864-7.538-12.51-13.081-25.953-16.37-37.868-4.559-16.474-4.61-30.797.311-37.091 7.46-9.506 16.681-14.272 25.695-16.422 13.158-3.134 26.264-.259 31.859 1.347a67.046 67.046 0 0 1 4.818-.699c2.331-.233 4.637-.389 6.968-.415 4.585-.078 8.728.519 12.458 1.632a33.225 33.225 0 0 1 7.668 3.341c13.701-4.663 63.977-18.028 61.18 37.869-.336 6.683-5.568 33.802-13.494 52.606-2.746 6.502-5.854 12.148-9.326 15.981-4.791 5.336-10.309 7.693-16.576 5.439-1.684-.596-3.342-1.528-4.947-2.849-.26.311-.57.647-.881.932-1.891 1.788-4.947 3.187-7.355 3.782-2.875.726-7.668 1.58-13.004.674a24.9 24.9 0 0 1-6.061-1.813c.078.854.129 1.787.104 2.771-.053 1.398-.078 2.798-.129 3.781-.131 3.394-.311 6.761-.674 10.024-.389 3.419-.959 6.45-1.84 8.858-.129.337-.232.647-.361 1.01-2.047 6.32-5.725 17.562-23.183 13.832-6.786-1.45-12.822-3.289-17.665-10.231-4.222-5.983-6.916-15.593-7.33-32.325z" fill="#6a778f"/><path d="M58.247 121.368c.44-8.495-3.756-10.023-6.683-10.853.311-.44.726-.958 1.191-1.554 1.502-1.839 3.394-4.223 4.921-7.926.233-.57.933-1.813 1.839-3.445 3.859-6.916 11.474-20.566 9.972-29.917-1.062-6.656-6.139-11.06-18.805-9.739.026-.129.078-.259.129-.389.596-1.709 1.554-3.963 2.953-6.475C59.309 40.995 71.353 26.931 92.8 26.594c25.875-.44 30.59 25.306 31.444 36.133a27.88 27.88 0 0 0-3.938-2.02c-2.174-.88-4.635-1.632-7.096-2.021-2.564-.388-5.154-.336-7.486.388-3.652 1.14-6.553 3.86-7.693 9.04-3.988 18.52-.414 26.498 2.385 32.74 2.047 4.507 1.197 2.584 2.482 6.199.469 1.317.881 2.557 1.168 3.695a6.18 6.18 0 0 0-.932-.155c-1.684-.155-3.652.518-5.025 1.502-1.476 1.062-2.667 2.72-3.341 4.559-.596 1.71-.518 3.342-.492 5.129.181 8.314.129 16.525-.181 23.208-.311 6.657-.855 11.63-1.58 13.495-.777 1.942-2.021 4.817-4.378 6.812-2.279 1.942-5.802 3.108-11.396 1.916-4.896-1.062-8.211-2.563-10.387-4.843-2.202-2.254-3.419-5.466-4.196-9.921-.544-3.264-1.321-8.962-2.047-14.608-.88-6.89-1.657-13.96-1.864-16.474zm60.792 4.068c-8.521-1.762-9.377-2.823-12.123-6.32a41.228 41.228 0 0 0-3.16-3.574 1.54 1.54 0 0 0-1.01-.467c-.621-.052-1.502.285-2.047.674-.725.518-1.346 1.399-1.709 2.383-.336 1.011-.467 2.254.182 3.16 3.186 4.43 7.098 6.294 10.75 6.916 3.703.647 7.199 0 9.299-.518 1.035-.26 2.227-.752 3.004-1.296-.621-.311-1.659-.648-3.186-.958zm2.461-16.215a22.985 22.985 0 0 0 1.969-1.891c3.236-3.549 5.412-8.211 5.904-13.417a23.585 23.585 0 0 0-.129-5.725c-1.088-7.796-.674-14.816-.441-18.468.053-.958.105-1.684.078-2.253.027-.181.621-23.622-12.717-36.729 12.043-3.963 50.975-13.469 48.85 29.321-.311 6.242-5.258 31.755-12.77 49.55-2.355 5.595-4.973 10.387-7.744 13.469-2.305 2.564-4.662 3.808-6.941 2.979-1.244-.441-2.59-1.477-4.016-3.187a292.666 292.666 0 0 0-12.043-13.649zM73.917 26.102c-12.2 5.388-19.867 15.152-24.063 22.82a45.98 45.98 0 0 0-3.264 7.149c-.777 2.175-1.062 3.885-.932 4.636 0 .078.025.156.025.233-.104 3.186.285 5.802.726 8.548.311 2.124.647 4.326.751 6.916.078 2.461-.233 5.051-.57 7.745-.829 6.864-1.709 14.168 2.901 21.731-.078.104-.156.208-.233.286-.181.232-.363.466-.544.673C40.762 94.328 34.96 80.574 31.645 68.53c-3.833-13.857-4.429-25.151-1.269-29.217 5.465-6.968 12.147-10.775 18.805-12.718 9.454-2.721 18.882-1.685 24.736-.493zM124.4 67.441c0 .673-.053 1.347-.078 2.02-.232 3.756-.674 11.035.492 19.349.232 1.606.26 3.186.104 4.688a18.475 18.475 0 0 1-4.766 10.801c-2.564 2.823-5.957 4.739-9.688 5.258-.674.104-1.373.129-2.047.155-.338-1.371-.811-2.791-1.352-4.277-.744-2.047-.949-2.878-2.559-6.42-2.539-5.647-5.775-12.847-2.072-29.969.699-3.315 2.461-5.025 4.611-5.698 1.631-.519 3.547-.519 5.516-.233 2.072.311 4.17.984 6.061 1.735 3.267 1.348 5.753 2.487 5.778 2.591zm-13.287-1.865c-1.652-.354-3.9-.05-5.389.751-.854.492-1.32 1.14-1.242 1.839.076.544.621 1.321 1.449 1.891.777.518 1.84.907 2.979.751h.027c1.113-.155 2.098-.803 2.797-1.528.676-.725 1.098-1.507 1.061-2.18s-.529-1.236-1.682-1.524zm-60.947-3.108c10.257-1.27 14.22 1.528 14.919 5.906 1.244 7.822-5.854 20.566-9.479 27.067-.984 1.736-1.71 3.083-2.047 3.885-.388.881-.777 1.71-1.191 2.435-2.693-5.698-1.994-11.552-1.321-17.095.337-2.875.673-5.673.596-8.393-.104-2.823-.467-5.18-.803-7.434-.338-2.097-.649-4.118-.674-6.371zm-1.27 51.933c.337.104.726.207 1.114.336 1.554.441 4.015 1.114 3.756 6.45-.208.207-.881.414-1.891.596-1.58.337-3.678.389-5.906.284-3.885-.232-8.029-1.062-10.672-2.278-2.72-1.27-4.999-2.798-6.397-4.145 5.836 1.087 14.702 2.754 19.996-1.243zm5.439-48.825c-.078.466.311 1.269.958 1.943.784.815 1.694 1.312 2.658 1.42.75.084 1.533-.067 2.315-.488.921-.511 1.596-1.206 1.608-1.905.008-.478-.293-.958-1.039-1.385-.622-.337-1.502-.622-2.487-.777-.984-.13-1.917-.104-2.616.078-.801.182-1.318.57-1.397 1.114zm-8.132 45.639c-1.036.985-4.533 2.513-16.267.078-2.279-.466-3.885-.362-4.921.13-1.347.647-1.943 1.709-1.839 3.107.052.855.44 1.735 1.088 2.643 1.503 2.072 4.947 4.714 9.169 6.683 3.134 1.45 7.926 2.435 12.304 2.694 2.564.129 5.025.025 7.019-.363.492-.104.984-.233 1.425-.362.362 3.289.907 7.899 1.502 12.562.726 5.854 1.529 11.656 2.072 14.816.933 5.361 2.486 9.299 5.362 12.277s6.89 4.869 12.692 6.113c7.252 1.554 12.019-.155 15.23-2.85 3.16-2.668 4.662-6.217 5.621-8.6.958-2.356 1.581-7.873 1.917-14.945.232-5.154.336-11.241.285-17.562 3.264 2.953 6.863 4.403 10.283 5 4.531.776 8.676.025 11.162-.597 1.814-.466 4.068-1.477 5.389-2.72.777-.726 1.295-1.579 1.451-2.563.154-1.141-.182-2.254-1.244-3.238-1.01-.959-2.875-1.813-5.982-2.461-6.891-1.424-7.512-2.201-9.48-4.714a37.807 37.807 0 0 0-1.58-1.865c.025-.104.025-.207.025-.311a20.077 20.077 0 0 0 2.201-.182 20.118 20.118 0 0 0 6.684-2.201c1.865 1.969 6.863 7.382 12.33 13.961 1.941 2.357 3.963 3.808 5.982 4.533 4.273 1.528 8.186-.259 11.76-4.196 3.107-3.471 5.957-8.678 8.521-14.738 7.719-18.287 12.795-44.629 13.133-51.079 2.641-53.047-49.137-35.926-57.373-32.87-4.896-3.341-11.217-5.413-19.401-5.284-3.963.051-7.667.543-11.06 1.373-1.632-.44-3.937-1.088-4.067-1.14-.311-.078-.673-.155-1.14-.259-6.087-1.425-17.225-3.03-28.518.233-7.459 2.15-14.945 6.424-21.084 14.246-4.041 5.18-3.704 17.976.492 33.154 3.6 13.057 10.024 28.08 18.857 41.497z" fill="#fff"/></g></svg>